<svg xmlns="http://www.w3.org/2000/svg" width="200" height="30" version="1"><g fill="#FFF" fill-rule="evenodd"><path d="M122 0h1v29h-1zM8 17l1-2-1-1H4v3h4zm-1-6l2-2-2-1H4v3h3zM0 4h8l3 1 2 4-2 3c2 0 3 2 3 4l-2 3-4 1H0V4zM14 4h4v16h-4zM27 15l-2-4-2 4c0 2 1 3 2 3s2-1 2-3m-8 0c0-4 3-6 6-6 4 0 6 2 6 6 0 3-2 6-6 6-3 0-6-3-6-6M40 15l-2-4c-2 0-2 2-2 4s0 3 2 3c1 0 2-1 2-3m-8 0c0-4 2-6 6-6 3 0 6 2 6 6 0 3-3 6-6 6-4 0-6-3-6-6M45 9h3v2c1-2 2-2 4-2 1 0 2 0 3 2 1-2 2-2 4-2s4 2 4 4v7h-5v-6l-1-2-1 2v6h-5v-6l-1-2-1 2v6h-5V9h1zM72 15c0-2-1-3-2-3-2 0-2 1-2 3 0 1 0 3 2 3l2-3m-4 4v1h-4V4h4v6l3-1c3 0 5 2 5 6s-2 6-5 6l-3-2M80 13h4l-2-2-2 2m-4 2c0-4 3-6 6-6l4 1c2 1 2 3 2 6h-8l2 2 2-1h4l-2 3-4 1c-3 0-6-3-6-6M93 11c0-2 2-2 3-2h1v3h-1c-2 0-3 1-3 4v4h-4V9h3v2h1zM105 14l-2-2-2 2c0 2 1 3 2 3s2-1 2-3m-8 7h4l2 1 1-2v-1l-2 1c-3 0-5-2-5-6 0-3 2-5 4-5l4 1V9h3v10l-1 4-4 1c-3 0-5-1-6-3M149 29h-2l-3-1-3-3-3-2h-2v-1h1l1-1h2c-3-1-5-3-5-7 0-7 5-13 11-13 4 0 7 3 7 7 0 6-4 11-8 13l-4 1c2 0 4 2 5 3l2 3h2l-1 1zm-11-7c2 0 2 1 3 3 1 1 3 3 7 3-2 0-2-1-3-2-1-2-2-4-6-4h-1zm5-20c-4 2-7 7-7 12 0 3 1 5 3 6l-1-3 4-13 1-2zm6 0l1 3-4 13-2 2c5-2 8-7 8-12 0-3-1-5-3-6zm-3 0c-2 0-3 1-3 2l-4 13c0 2 1 3 3 3l3-2 4-13c0-2-1-3-3-3zm48 19l-2-1-1-3 3-7h-2V9 8h2l1-3 4-1-1 4h2v1l-1 1h-2l-2 9 2-2 1 1-4 3zm1-12l-3 8v3h3l-1-1v-1l3-9 1-4h-2l-1 4zm-9 12c-2 0-3-1-3-3l1-3 1-3v-1l-4 4-2 6h-3l3-10v-1h-1l-1 2-1-1c1-2 2-3 4-3l2 1v2l4-3c2 0 3 1 3 3l-1 5-1 2v1l2-2 2 1h-1c-1 2-2 3-4 3zm-1-11l1 2-1 3-1 4 2 1h2-1l-1-2 1-2 1-5c0-1 0-2-2-2l-2 1h1zm-8 10h2l2-5 1-2-1-1v-2l-1-1h-2l1 1v1l-2 9zm-6 1c-2 0-3-1-3-3l2-4 1-3-1-1-1 2-1-1c1-2 2-3 4-3s2 2 2 3l-1 5-1 2v1l2-1v-1l2 1h-1c-1 2-2 3-4 3zm-1-11l2 1-2 3-1 4 2 2h2-1l-1-2 1-3 2-4-2-2-2 1zm-7 11l-2-1-1-2c-1 2-2 3-4 3-1 0-3-1-3-3l2-5 1-2v-1l-2 1v1l-1-1c1-2 2-3 4-3 1 0 2 1 2 3l-1 3-1 4h1l3-4 2-5 4-1-3 11 2-1v-1l1 1c-1 2-2 3-4 3zm-2-4l1 2 3 1h-1l-1-1v-1l3-9h-2l-2 5-1 3zm-5-8l1 2-1 2-2 5 2 2 3-1h-1l-2-1 2-4 1-3-2-2h-1zm17-2l-2-2 2-2 2 2-2 2zm0-3l-1 1 1 1 1-1-1-1z"/><path d="M192 8v2h7l1-2z"/><path d="M149 5l-3 13-4 2c-3 0-4-1-4-3l4-13 4-2c3 0 3 1 3 3m3 3c0-4-2-7-6-7-5 0-11 6-11 13 0 4 3 7 7 7h-3l-1 1h-1-1v1h2c4 0 3 6 11 6v-1c-4 0-3-6-10-6l6-2c4-2 7-7 7-12m12 11l3-10h-4l-1 5-4 5-1-1 2-7-2-2c-2 0-3 1-3 2l2-1v1l-2 7c0 2 1 3 2 3 2 0 3-1 5-4-1 2 1 4 2 4l4-3h-1l-2 1s-1 0 0 0m8-10l-4 2h1l1-1 1 1-2 7c0 2 0 3 2 3s3-2 4-3h-1l-2 1-1-1c0-1 3-4 3-7l-2-2m3-4l-2-2-1 2 1 1 2-1m15 13h-1l-2 1-1-1c0-1 3-4 3-7 0-1-1-2-3-2-1 0-3 0-4 4 0-3-1-4-2-4l-4 2h1l1-1 1 1-3 9h3l2-5 4-4 1 1-2 7c0 1 0 2 2 2s3-1 4-3m9-9h-2l2-4h-4l-1 4h-2 2l-2 8c-1 2 0 4 2 4 1 0 3-1 3-3l-2 1h-1l3-10h2"/></g></svg>