<?xml version="1.0" encoding="utf-8"?>
<!-- Generator: Adobe Illustrator 19.2.1, SVG Export Plug-In . SVG Version: 6.00 Build 0)  -->
<svg version="1.1" id="Layer_1" xmlns="http://www.w3.org/2000/svg" xmlns:xlink="http://www.w3.org/1999/xlink" x="0px" y="0px"
	 viewBox="0 0 630.1 144.3" style="enable-background:new 0 0 630.1 144.3;" xml:space="preserve">
<style type="text/css">
	.st0{fill:#FFFFFF;}
</style>
<g>
	<defs>
		<path id="SVGID_1_" d="M463.3,138.9c0.1,0.1,0.4,0.2,0.8,0.2l4.6,0.4v4.3h-20.1v-4.3l4.3-0.4c0.4,0,0.6-0.1,0.8-0.2
			c0.1-0.1,0.2-0.4,0.2-0.8v-27.7c0-0.4-0.1-0.7-0.2-0.8c-0.1-0.1-0.4-0.2-0.8-0.2l-4.3-0.4v-4.3h20.1v4.3l-4.6,0.4
			c-0.4,0-0.7,0.1-0.8,0.3c-0.1,0.1-0.1,0.4-0.1,0.8V138C463.1,138.5,463.2,138.8,463.3,138.9L463.3,138.9z M513.3,109.4
			c-0.4,0-0.7,0.1-0.8,0.3c-0.1,0.1-0.1,0.4-0.1,0.8v33.4h-10l-19.1-28.2V138c0,0.4,0,0.7,0.1,0.8c0.1,0.1,0.4,0.2,0.8,0.2l3.9,0.4
			v4.3h-16.5v-4.3l3.7-0.4c0.4,0,0.6-0.1,0.8-0.3c0.1-0.1,0.2-0.4,0.2-0.8v-27.8c0-0.4-0.1-0.7-0.2-0.8c-0.1-0.1-0.4-0.2-0.8-0.2
			l-3.7-0.4v-4.2h14.9l18.8,28.2v-22.5c0-0.4-0.1-0.7-0.2-0.8c-0.1-0.1-0.4-0.2-0.8-0.2l-3.7-0.4v-4.3h16.5v4.3L513.3,109.4
			L513.3,109.4z M555.2,138.4c-3.7,3.6-9.4,5.4-16.9,5.4h-18.4v-4.3l3.8-0.4c0.4,0,0.6-0.1,0.8-0.3c0.1-0.1,0.2-0.4,0.2-0.8v-27.7
			c0-0.4-0.1-0.7-0.2-0.8c-0.1-0.1-0.4-0.2-0.8-0.3l-3.8-0.4v-4.3h19.4c7.3,0,12.7,1.6,16.2,4.9c3.5,3.3,5.3,8,5.3,14
			C560.8,129.9,558.9,134.8,555.2,138.4L555.2,138.4z M548.3,113.7c-2.2-2.1-5.7-3.1-10.5-3.1H534V138h3.4c9.4,0,14.1-4.6,14.1-13.8
			C551.5,119.3,550.4,115.8,548.3,113.7L548.3,113.7z M576.8,138.9c0.1,0.1,0.4,0.2,0.8,0.2l4.6,0.4v4.3h-20.1v-4.3l4.3-0.4
			c0.4,0,0.6-0.1,0.8-0.2c0.1-0.1,0.2-0.4,0.2-0.8v-27.7c0-0.4-0.1-0.7-0.2-0.8c-0.1-0.1-0.4-0.2-0.8-0.2l-4.3-0.4v-4.3h20.1v4.3
			l-4.6,0.4c-0.4,0-0.7,0.1-0.8,0.3c-0.1,0.1-0.1,0.4-0.1,0.8V138C576.6,138.5,576.7,138.8,576.8,138.9L576.8,138.9z M610.4,143.8
			v-4.3l4.9-0.5l-2.2-5.6h-14.9l-2.1,5.6l4.7,0.5v4.3h-16.8v-4.3l2.6-0.6c0.8-0.2,1.3-0.5,1.5-1l13.2-33.2H612l13.1,33.3
			c0.2,0.4,0.6,0.7,1.4,0.9l2.8,0.6v4.3H610.4L610.4,143.8z M606,113h-0.4l-5.5,14.7h11.2L606,113L606,113z"/>
	</defs>
	<use xlink:href="#SVGID_1_"  style="overflow:visible;fill:#FFFFFF;"/>
	<clipPath id="SVGID_2_">
		<use xlink:href="#SVGID_1_"  style="overflow:visible;"/>
	</clipPath>
</g>
<g>
	<g id="XMLID_2_">
		<g>
			<path class="st0" d="M629.8,29.8l-1.9,17.5l-10.4-0.4l-1.1-9.4c-2.4,0.4-4.7,1.1-6.7,2.4v44.3l6.6,1.4l-0.5,6.7H588l0.3-6.7
				l5.9-1.4V37.8l-6.9-0.7v-7l18.9-2.6l1.3,4.5v1.4c4.9-3.7,11.7-6.1,19.7-6.1L629.8,29.8z"/>
			<path class="st0" d="M584.2,85.4l-0.8,6.8h-18l-1.6-5.5c-4.2,4.1-8.4,6.5-14.9,6.5c-9.9,0-18.8-5-18.8-18.7V36.1l-7.3-0.7v-6.1
				l21-2.4l1.6,5.5v40.2c0,7,2.8,10.7,8.5,10.7c1.6,0,3.7-0.2,5.5-1c1.1-1.1,2-2.3,2.9-3.6V36.1l-7.5-0.7v-6.1l21.2-2.4l1.7,5.5
				v51.8L584.2,85.4z"/>
			<path class="st0" d="M521.8,59.6l-1.6,4.1L488.5,64c0,11.1,4.8,19.7,14.4,19.7c4.9,0,8.9-1.1,13.5-3.2l2.6,6.1
				c-4.7,3.8-11.6,6.7-20.3,6.7c-16.8,0-26.5-14.6-26.5-33.3c0-15.9,7-33.4,26.3-33.4C515.4,26.6,521.8,42.2,521.8,59.6z
				 M488.3,56.6l19.4-0.9c-0.4-7.7-2-20-9.6-20c-1.8,0-3.1,0.3-5.4,1.5C489.5,42.5,488.2,52.1,488.3,56.6z"/>
			<path class="st0" d="M470.1,85.4l-0.4,6.8h-21.6V48c0-6.4-2.3-9.9-8-9.9c-1.9,0-3.3,0.4-4.9,0.9c-1,0.8-1.8,1.9-2.6,3v42.3
				l6.6,1.2l-0.5,6.8h-27.9l0.3-6.8l6.3-1.2V37.7l-7.3-0.7v-7l18.3-2.6l1.4,3.9v2.6c4.4-4.6,9.7-7.3,16.5-7.3
				c9.9,0,17.3,6,17.3,17.9v39.5L470.1,85.4z"/>
			<path class="st0" d="M409,59.6l-1.6,4.1L375.8,64c0,11.1,4.8,19.7,14.4,19.7c4.9,0,8.9-1.1,13.5-3.2l2.6,6.1
				c-4.7,3.8-11.6,6.7-20.3,6.7c-16.8,0-26.5-14.6-26.5-33.3c0-15.9,7-33.4,26.4-33.4C402.7,26.6,409,42.2,409,59.6z M375.5,56.6
				l19.4-0.9c-0.4-7.7-2-20-9.6-20c-1.8,0-3.1,0.3-5.4,1.5C376.8,42.5,375.5,52.1,375.5,56.6z"/>
			<path class="st0" d="M357.8,29.8l-1.9,17.5l-10.4-0.4l-1.1-9.4c-2.4,0.4-4.7,1.1-6.7,2.4v44.3l6.6,1.4l-0.5,6.7h-27.9l0.3-6.7
				l5.9-1.4V37.8l-7-0.7v-7l18.9-2.6l1.3,4.5v1.4c4.9-3.7,11.7-6.1,19.7-6.1L357.8,29.8z"/>
			<path class="st0" d="M310.7,58.4c0,11-0.2,34.9-23.6,34.9c-4.1,0-7.8-1-10.4-2.4v25l6.6,1.2l-0.5,6.6h-27.9l0.3-6.6l6.2-1.2V37.1
				l-7.3-1v-6.7l18.9-2.6l1.6,5.5v2.1c1.9-2.3,6.4-7.8,16-7.8C304.9,26.6,310.7,38.9,310.7,58.4z M292.8,82.3
				c0.6-1.7,2.9-5.9,2.9-21c0-15.7-1.4-24.5-10.1-24.5c-2,0-3.8,0.3-5.8,1c-1.1,1.2-2.1,2.4-3,3.8v40.8c2.1,1.2,4.7,1.7,8.1,1.7
				C287.9,84,290.4,83.4,292.8,82.3z"/>
			<path class="st0" d="M253.4,59.6l-1.7,4.1L220.2,64c0,11.1,4.8,19.7,14.4,19.7c4.9,0,8.9-1.1,13.5-3.2l2.6,6.1
				c-4.7,3.8-11.6,6.7-20.3,6.7c-16.8,0-26.5-14.6-26.5-33.3c0-15.9,7-33.4,26.4-33.4C247,26.6,253.4,42.2,253.4,59.6z M219.9,56.6
				l19.4-0.9c-0.4-7.7-2-20-9.6-20c-1.8,0-3.1,0.3-5.4,1.5C221.1,42.5,219.8,52.1,219.9,56.6z"/>
			<path class="st0" d="M202.1,29.8l-1.9,17.5l-10.4-0.4l-1.1-9.4c-2.4,0.4-4.7,1.1-6.7,2.4v44.3l6.6,1.4l-0.5,6.7h-27.9l0.3-6.7
				l5.9-1.4V37.8l-7-0.7v-7l18.9-2.6l1.2,4.5v1.4c4.9-3.7,11.7-6.1,19.7-6.1L202.1,29.8z"/>
			<path class="st0" d="M155,84l0.7,7c-2.5,1.1-7,2.2-12.9,2.2c-7.7,0-14.9-3.5-14.9-14.8V37.7l-7.3-1.2l0.3-8.1l8.3-0.4l3.6-12.4
				l10.6-0.5v13.2h11.5l-0.8,8.1l-10.5,1.2v40.7c0,3.4,1.8,5.6,5.3,5.6H155z"/>
			<path class="st0" d="M121.2,85.4l-0.4,6.8H99.2V48c0-6.4-2.3-9.9-8-9.9c-1.9,0-3.3,0.4-4.8,0.9c-1,0.8-1.8,1.9-2.6,3v42.3
				l6.6,1.2l-0.5,6.8H61.9l0.3-6.8l6.2-1.2V37.7l-7.3-0.7v-7l18.3-2.6l1.4,3.9v2.6c4.4-4.6,9.7-7.3,16.5-7.3c9.9,0,17.3,6,17.3,17.9
				v39.5L121.2,85.4z"/>
			<polygon class="st0" points="55.9,69 56.8,92.3 0.1,92.3 0.5,84 8.4,82.7 8.4,9.1 -0.5,7.9 0,0 55.6,0 54.3,22.3 43.2,22 42.5,8 
				25.3,8 25.3,41.1 32.8,41.1 34.5,33.5 42.3,33.7 42.3,56.6 34.6,56.6 32.8,48.8 25.3,48.8 25.3,83.9 42.6,83.9 44.2,68.7 			"/>
		</g>
		<g>
		</g>
	</g>
</g>
</svg>
