<svg xmlns="http://www.w3.org/2000/svg" width="331" height="39" fill-rule="evenodd" clip-rule="evenodd" image-rendering="optimizeQuality" shape-rendering="geometricPrecision" text-rendering="geometricPrecision" version="1" viewBox="0 0 2062 240"><defs><style>.fil0{fill:#fefefe;fill-rule:nonzero}</style></defs><g id="Layer_x0020_1"><g id="_2251986474688"><path d="M264 9h-88v134h27V92h50V67h-50V34h61V9zm47 0h-27v134h27V9zm117 0v80L351 7h-9v136h27V63l78 82h9V9h-28zm145 134h29L542 7h-9l-59 136h29l7-17h55l8 17zm-17-40h-36l18-45 18 45zM707 9v80L629 7h-9v136h28V63l77 82h9V9h-27zm121-2a69 69 0 1 0 0 138c26 0 48-12 59-33l-21-14c-9 14-21 22-38 22-25 0-43-18-43-44s18-44 43-44c17 0 29 9 38 23l21-15a66 66 0 0 0-59-33zm110 2h-28v134h28V9zm117 134h29L1024 7h-9l-60 136h30l7-17h55l8 17zm-18-40h-35l18-45 17 45zm92-94h-27v134h86v-25h-59V9zm216 0h-90v134h92v-25h-65V84h46V61h-46V34h63V9zm132 134l-44-68 41-66h-31l-25 42-26-42h-31l41 66-44 68h31l29-44 28 44h31zm68-134h-50v134h27V96h23c28 0 48-18 48-44 1-26-20-43-48-43zm0 24c13 0 21 8 21 19 0 12-8 20-21 20h-23V33h23zm183 110l-38-52c15-8 24-21 24-39 0-26-20-43-48-43h-51v134h28V96h20l34 47h31zm-85-110h23c12 0 20 8 20 19 0 12-8 20-20 20h-23V33zm192-24h-90v134h92v-25h-65V84h46V61h-46V34h63V9zm68-2c-25 0-44 15-44 38 0 19 13 29 32 38l14 7c11 5 17 8 17 16 0 10-7 15-19 15-16 0-25-9-33-19l-18 14c10 18 28 29 51 29 27 0 47-15 47-40 0-19-12-29-33-39l-15-6c-10-5-16-8-16-16 0-9 8-13 17-13 11 0 19 6 25 16l19-15c-8-14-23-25-44-25zm112 0c-25 0-44 15-44 38 0 19 13 29 32 38l14 7c11 5 17 8 17 16 0 10-7 15-19 15-16 0-25-9-32-19l-19 14c10 18 28 29 51 29 27 0 47-15 47-40 0-19-12-29-33-39l-15-6c-10-5-16-8-16-16 0-9 8-13 17-13 11 0 19 6 26 16l18-15c-8-14-23-25-44-25zM1612 239l-14-22c5-1 12-6 12-15 0-10-7-16-21-16h-20v53h9v-21h10l13 21h11zm-13-37c0 7-4 10-11 10h-10v-20h10c8 0 11 4 11 10zm57 16c0-13-7-22-19-22s-20 9-20 21 6 23 22 23c5 0 11-1 16-6l-2-4c-5 3-9 5-14 5-9 0-13-6-14-15h31v-2zm-9-3h-22c2-8 5-13 11-13 8 0 10 5 11 13zm60 18h-3c-3 0-4-1-4-5v-18c0-8-5-14-17-14-7 0-13 3-18 6l3 6c4-3 9-5 14-5 7 0 10 3 10 6v2c-21 1-29 7-29 16 0 8 6 13 14 13 6 0 11-1 15-7 1 4 2 7 7 7l8-2v-5zm-16-4c-2 3-7 5-11 5-6 0-9-3-9-8 0-4 4-9 20-10v13zm61 10v-57h-9v21c-3-5-8-6-13-6-12 0-18 8-18 21 0 18 10 22 17 22s10-1 15-6v5h8zm-9-10c-2 3-7 5-11 5-6 0-11-4-11-16 0-11 4-16 11-16s10 5 11 8v19zm66-24v-6h-12v-13h-8l-1 13h-7v6h7v23c0 8 4 12 13 12l8-2v-5h-5c-6 0-7-2-7-6v-23h12zm48 13c0-13-9-22-21-22-13 0-21 9-21 22s8 22 21 22c12 0 21-9 21-22zm-9 0c0 10-5 17-12 17-8 0-12-7-12-17 0-9 4-16 12-16s12 7 12 16zm74 21v-7h-25v-46h-9v53h34zm44-21c0-13-6-22-19-22-12 0-20 9-20 21s6 23 22 23c6 0 12-1 17-6l-3-4c-5 3-9 5-13 5-9 0-14-6-14-15h30v-2zm-9-3h-21c1-8 4-13 11-13s10 5 10 13zm60 18h-3c-2 0-4-1-4-5v-18c0-8-4-14-16-14-8 0-13 3-18 6l2 6c5-3 9-5 14-5 7 0 10 3 10 6v2c-20 1-28 7-28 16 0 8 6 13 14 13 5 0 11-1 14-7 1 4 2 7 7 7l8-2v-5zm-15-4c-3 3-7 5-12 5-6 0-8-3-8-8 0-4 3-9 20-10v13zm60 10v-57h-8v21c-4-5-9-6-14-6-11 0-18 8-18 21 0 18 10 22 18 22 6 0 9-1 14-6l1 5h7zm-8-10c-3 3-7 5-12 5-6 0-11-4-11-16 0-11 4-16 11-16s10 5 12 8v19zM54 14c-6 8-5 19 2 26l54 49c7 6 3 16 3 16l1 1 11-14c3-4 4-8 4-12 0-5-2-11-6-14L69 17c-7-6-3-16-3-16l-1-1-11 14zM29 45c-6 8-5 19 2 26l54 49c7 6 3 16 3 16l1 1 11-14c6-8 5-20-2-26L44 48c-7-6-3-16-3-16l-1-1-11 14zM4 76c-3 3-4 8-4 12 0 5 2 10 6 14l54 49c8 6 3 16 3 16l1 1 11-14c7-8 5-20-2-26L19 79c-7-6-2-16-2-16l-2-1L4 76z" class="fil0"/></g></g></svg>