<?xml version="1.0" encoding="utf-8"?>
<!-- Generator: Adobe Illustrator 19.2.1, SVG Export Plug-In . SVG Version: 6.00 Build 0)  -->
<svg version="1.1" id="Layer_1" xmlns="http://www.w3.org/2000/svg" xmlns:xlink="http://www.w3.org/1999/xlink" x="0px" y="0px"
	 viewBox="0 0 229.5 72.5" style="enable-background:new 0 0 229.5 72.5;" xml:space="preserve">
<style type="text/css">
	.st0{fill:#FFFFFF;}
</style>
<g>
	<polygon class="st0" points="169.7,8.6 169.7,29.9 163,8.6 156.4,8.6 156.4,47.6 163,47.6 163,28.5 169,47.6 176.3,47.6 176.3,8.6
			"/>
	<polygon class="st0" points="44.7,15.2 44.7,8.6 35.2,8.6 29.1,8.6 28.6,8.6 28.6,47.6 35.2,47.6 35.2,30.9 41.3,30.9 41.3,24.3
		35.2,24.3 35.2,15.2 	"/>
	<path class="st0" d="M57.8,39V17.2c0-1.4,1.1-2.6,2.6-2.6h0c1.4,0,2.6,1.1,2.6,2.6V39c0,1.4-1.1,2.6-2.6,2.6
		C58.9,41.6,57.8,40.4,57.8,39 M51.1,17.2V39c0,5.1,4.1,9.2,9.2,9.2l0,0c5.1,0,9.2-4.1,9.2-9.2V17.2c0-5.1-4.1-9.2-9.2-9.2h0
		C55.3,8.1,51.1,12.2,51.1,17.2"/>
	<polygon class="st0" points="122,8.6 103.7,8.6 103.7,15.2 109.6,15.2 109.6,47.6 116.2,47.6 116.2,15.2 122,15.2 	"/>
	<path class="st0" d="M141.4,8.6V39c0,1.4-1.1,2.6-2.6,2.6s-2.6-1.2-2.6-2.6V8.6h-6.6V39c0,5.1,4.1,9.2,9.2,9.2
		c5.1,0,9.2-4.1,9.2-9.2V8.6L141.4,8.6L141.4,8.6z"/>
	<polygon class="st0" points="185,8.6 185,47.6 201.1,47.6 201.1,41 191.6,41 191.6,30.9 197.7,30.9 197.7,24.3 191.6,24.3
		191.6,15.2 201.1,15.2 201.1,8.6 	"/>
	<path class="st0" d="M97.4,47.6h-6.8l-4.9-18.5c0,0,4.2-0.8,4.2-5.2v-6.1c0-1.4-1.1-2.6-2.6-2.6h-2.5v32.4h-6.6v-39h9.1
		c4.9,0,8.9,3.9,9.1,8.8h0v6.4h0c0,3.9-1.3,6.6-3.6,8.4L97.4,47.6L97.4,47.6z"/>
</g>
<g id="XMLID_1_">
	<g>
		<path class="st0" d="M198.8,51.5l2.3,13h-1.9l-0.3-2h-2.2l-0.3,2h-1.9l2.3-13C196.7,51.5,198.8,51.5,198.8,51.5z M198.6,60.8
			l-0.6-4.7l-0.1-1.8h-0.1l-0.1,1.8l-0.7,4.7H198.6z"/>
		<rect x="190.8" y="51.5" class="st0" width="1.9" height="13"/>
		<path class="st0" d="M188.5,53.3v9.3c0,0.5-0.2,1-0.6,1.4c-0.3,0.3-0.8,0.5-1.3,0.5h-3.9v-13h3.9c0.5,0,1,0.2,1.3,0.6
			C188.3,52.4,188.5,52.8,188.5,53.3z M186.7,62.4v-8.8c0-0.2-0.2-0.5-0.5-0.5h-1.6v9.7h1.6C186.4,62.8,186.7,62.6,186.7,62.4z"/>
		<polygon class="st0" points="180.4,51.5 180.4,64.5 178.6,64.5 176.2,57.1 175.7,55.2 175.6,55.2 175.9,60.5 175.9,64.5
			174.1,64.5 174.1,51.5 175.9,51.5 178.3,58.9 178.8,60.8 178.9,60.8 178.6,55.5 178.6,51.5 		"/>
		<rect x="169.9" y="51.5" class="st0" width="1.9" height="13"/>
	</g>
</g>
</svg>
