<svg xmlns="http://www.w3.org/2000/svg" width="323.419" height="22.677"><g fill="#fff"><path d="M12.599 20.072c0 2.077 3.07 1.085 3.07 1.86 0 .372-.31.435-.806.435-1.457 0-2.264-.063-4.124-.063s-2.666.063-4.124.063c-.496 0-.806-.063-.806-.435 0-.775 3.069.217 3.069-1.86l-.03-18.045c-3.131 0-5.829 2.759-7.039 5.271-.341.713-.496 1.116-.682 1.116-.217 0-.279-.124-.279-.248 0-.372.186-1.116.31-1.705l.992-5.085c.031-.187.062-.589.341-.589.186 0 .248.124.403.248.187.124.466.248 1.117.248h13.425c.651 0 .931-.124 1.116-.248.155-.124.217-.248.403-.248.279 0 .31.403.341.589l.992 5.085c.124.589.311 1.333.311 1.705 0 .124-.063.248-.279.248-.186 0-.341-.403-.682-1.116-1.209-2.512-3.907-5.271-7.039-5.271v18.045zM28.625 11.577v8.496c0 2.077 2.573 1.085 2.573 1.86 0 .372-.186.435-.682.435-1.085 0-1.891-.063-3.751-.063s-2.667.063-3.752.063c-.496 0-.682-.063-.682-.435 0-.775 2.574.217 2.574-1.86V3.515c0-2.078-2.574-1.085-2.574-1.86 0-.372.186-.434.682-.434 1.085 0 1.892.062 3.752.062s2.666-.062 3.751-.062c.496 0 .682.062.682.434 0 .775-2.573-.217-2.573 1.86v7.317h8.96V3.515c0-2.078-2.574-1.085-2.574-1.86 0-.372.187-.434.683-.434 1.085 0 1.891.062 3.751.062s2.667-.062 3.751-.062c.496 0 .683.062.683.434 0 .775-2.574-.217-2.574 1.86v16.557c0 2.077 2.574 1.085 2.574 1.86 0 .372-.187.435-.683.435-1.085 0-1.891-.063-3.751-.063s-2.667.063-3.751.063c-.496 0-.683-.063-.683-.435 0-.775 2.574.217 2.574-1.86v-8.496h-8.96zM48.526 3.515c0-2.078-2.574-1.085-2.574-1.86 0-.372.187-.434.683-.434 1.085 0 1.891.062 3.751.062 6.852 0 9.147-.062 11.379-.062l1.488 5.798c.093.403.186.651.186.807 0 .217-.062.31-.248.31-.372 0-.279-.775-1.798-2.945-1.892-2.697-4.527-3.225-8.217-3.225h-.93v9.116h.682c2.667 0 4.682-1.054 4.682-4.186 0-.465.155-.589.372-.589.248 0 .372.124.372.589v9.271c0 .465-.124.558-.372.558-.217 0-.372-.093-.372-.558 0-3.256-2.015-4.341-4.682-4.341h-.682v8.062c0 1.178.744 1.736 2.604 1.736 5.736 0 8.186-3.783 9.084-6.853.155-.466.248-.62.465-.62s.279.154.279.31c0 .187 0 .466-.093.899l-1.302 7.008c-2.574 0-5.209-.063-12.898-.063-1.86 0-2.667.063-3.751.063-.496 0-.683-.063-.683-.435 0-.775 2.574.217 2.574-1.86V3.515zM86.936 20.072c0 2.077 3.07 1.085 3.07 1.86 0 .372-.31.435-.806.435-1.457 0-2.264-.063-4.124-.063s-2.666.063-4.124.063c-.496 0-.806-.063-.806-.435 0-.775 3.069.217 3.069-1.86l-.03-18.045c-3.131 0-5.829 2.759-7.039 5.271-.341.713-.496 1.116-.682 1.116-.217 0-.279-.124-.279-.248 0-.372.186-1.116.31-1.705l.992-5.085c.031-.187.062-.589.341-.589.186 0 .248.124.403.248.186.124.465.248 1.116.248h13.425c.651 0 .931-.124 1.116-.248.155-.124.217-.248.403-.248.279 0 .31.403.341.589l.992 5.085c.124.589.311 1.333.311 1.705 0 .124-.063.248-.279.248-.186 0-.341-.403-.682-1.116-1.209-2.512-3.907-5.271-7.039-5.271v18.045zM99.551 3.515c0-2.078-2.573-1.085-2.573-1.86 0-.372.186-.434.682-.434 1.085 0 1.891.062 3.751.062s2.667-.062 3.752-.062c.496 0 .682.062.682.434 0 .775-2.574-.217-2.574 1.86v16.557c0 2.077 2.574 1.085 2.574 1.86 0 .372-.186.435-.682.435-1.085 0-1.892-.063-3.752-.063s-2.666.063-3.751.063c-.496 0-.682-.063-.682-.435 0-.775 2.573.217 2.573-1.86V3.515zM120.726 17.127l6.666-15.844h1.427c1.86 0 2.666-.062 3.751-.062.496 0 .682.062.682.434 0 .775-2.573-.217-2.573 1.86v16.557c0 2.077 2.573 1.085 2.573 1.86 0 .372-.186.435-.682.435-1.085 0-1.891-.063-3.751-.063s-2.667.063-3.752.063c-.496 0-.682-.063-.682-.435 0-.775 2.574.217 2.574-1.86V3.949h-.063l-7.224 17.704c-.124.279-.248.651-.465.651-.155 0-.279-.311-.403-.651l-7.069-17.456h-.062v12.991c0 2.636.899 3.907 2.077 4.279.807.248 1.179.124 1.179.558 0 .279-.187.342-.683.342-.868 0-1.705-.063-2.945-.063-1.922 0-2.729.063-3.287.063-.434 0-.713-.031-.713-.311 0-.496.341-.341 1.147-.589 2.201-.62 2.48-3.039 2.48-6.79V4.197c0-2.76-3.193-1.768-3.193-2.542 0-.372.186-.434.682-.434 1.085 0 1.892.062 3.752.062h1.984l6.573 15.844zM137.774 3.515c0-2.078-2.574-1.085-2.574-1.86 0-.372.187-.434.683-.434 1.085 0 1.891.062 3.751.062 6.852 0 9.147-.062 11.379-.062l1.488 5.798c.093.403.186.651.186.807 0 .217-.062.31-.248.31-.372 0-.279-.775-1.798-2.945-1.892-2.697-4.527-3.225-8.217-3.225h-.93v9.116h.682c2.667 0 4.682-1.054 4.682-4.186 0-.465.155-.589.372-.589.248 0 .372.124.372.589v9.271c0 .465-.124.558-.372.558-.217 0-.372-.093-.372-.558 0-3.256-2.015-4.341-4.682-4.341h-.682v8.062c0 1.178.744 1.736 2.604 1.736 5.736 0 8.186-3.783 9.084-6.853.155-.466.248-.62.465-.62s.279.154.279.31c0 .187 0 .466-.093.899l-1.302 7.008c-2.574 0-5.209-.063-12.898-.063-1.86 0-2.667.063-3.751.063-.496 0-.683-.063-.683-.435 0-.775 2.574.217 2.574-1.86V3.515zM156.653 13.778c0-.279.155-.372.31-.372.279 0 .341.248.434.93.527 3.814 2.17 7.721 6.263 7.721 3.102 0 4.496-1.86 4.496-3.969 0-6.263-11.503-3.721-11.503-11.348 0-3.225 2.977-5.953 6.511-5.953 2.76 0 3.814 1.24 5.023 1.24.899 0 .496-.992 1.085-.992.218 0 .279.124.311.465.403 4.341.526 6.48.526 6.883 0 .311-.154.435-.341.435-.248 0-.31-.403-.403-.744-1.054-3.535-2.729-6.542-6.231-6.542-2.356 0-3.752 1.395-3.752 3.349 0 5.705 11.503 3.783 11.503 11.317 0 3.287-2.356 6.604-7.41 6.604-2.264 0-4.341-1.178-5.147-1.178-1.271 0-.806 1.054-1.395 1.054-.124 0-.279-.062-.279-.372v-8.528zM204.396 11.794c0 6.945-5.891 11.007-11.131 11.007s-11.131-4.062-11.131-11.007S188.025.787 193.265.787s11.131 4.062 11.131 11.007zM193.265 1.531c-4.062 0-7.038 3.255-7.038 10.263 0 7.007 2.977 10.263 7.038 10.263s7.038-3.256 7.038-10.263c0-7.008-2.976-10.263-7.038-10.263zM209.258 3.515c0-2.078-2.573-1.085-2.573-1.86 0-.372.187-.434.683-.434 1.085 0 1.891.062 3.752.062 6.852 0 9.146-.062 11.131-.062l1.488 5.798c.093.403.186.651.186.807 0 .217-.062.31-.248.31-.372 0-.279-.775-1.798-2.945-1.892-2.697-4.527-3.225-8.217-3.225h-.683v9.116h.683c2.667 0 4.682-1.054 4.682-4.186 0-.465.155-.589.372-.589.248 0 .372.124.372.589v9.271c0 .465-.124.558-.372.558-.217 0-.372-.093-.372-.558 0-3.256-2.015-4.341-4.682-4.341h-.683v8.248c0 2.077 2.574 1.085 2.574 1.86 0 .372-.187.435-.683.435-1.085 0-1.892-.063-3.751-.063-1.861 0-2.667.063-3.752.063-.496 0-.683-.063-.683-.435 0-.775 2.573.217 2.573-1.86V3.515zM237.314 3.515c0-2.078-2.573-1.085-2.573-1.86 0-.372.186-.434.682-.434 1.085 0 1.892.062 3.752.062s2.666-.062 3.752-.062c.496 0 .682.062.682.434 0 .775-2.573-.217-2.573 1.86v16.557c0 2.077 2.573 1.085 2.573 1.86 0 .372-.186.435-.682.435-1.086 0-1.892-.063-3.752-.063s-2.667.063-3.752.063c-.496 0-.682-.063-.682-.435 0-.775 2.573.217 2.573-1.86V3.515zM262.488 6.398c0-2.635-1.147-3.906-2.325-4.278-.807-.248-1.178-.124-1.178-.559 0-.279.186-.341.682-.341 1.116 0 1.953.062 3.256.062 1.302 0 2.139-.062 3.256-.062.496 0 .682.062.682.341 0 .435-.372.311-1.178.559-1.179.372-2.326 1.643-2.326 4.278v15.969c0 .217-.124.434-.372.434a.76.76 0 01-.62-.311L249.217 5.003h-.062v12.185c0 2.636 1.147 3.907 2.325 4.279.807.248 1.178.124 1.178.558 0 .279-.186.342-.682.342-1.116 0-1.953-.063-3.256-.063-1.302 0-2.139.063-3.256.063-.496 0-.682-.063-.682-.342 0-.434.372-.31 1.178-.558 1.179-.372 2.326-1.644 2.326-4.279V3.918c-1.799-2.573-3.473-1.674-3.473-2.263 0-.341.217-.434.682-.434.744 0 1.364.062 2.356.062h2.884l11.689 15.689h.062V6.398zM270.391 3.515c0-2.078-2.574-1.085-2.574-1.86 0-.372.187-.434.683-.434 1.085 0 1.892.062 3.751.062 1.271 0 2.698-.062 4.403-.062 7.349 0 11.845 4.31 11.845 10.666 0 5.798-3.566 10.48-10.543 10.48-2.077 0-3.875-.063-5.705-.063-1.859 0-2.666.063-3.751.063-.496 0-.683-.063-.683-.435 0-.775 2.574.217 2.574-1.86V3.515zm3.721 15.317c0 1.984 1.146 2.791 3.379 2.791 3.535 0 6.914-1.613 6.914-9.52 0-5.922-2.355-10.139-7.1-10.139h-3.193v16.868zM293.579 3.515c0-2.078-2.574-1.085-2.574-1.86 0-.372.187-.434.683-.434 1.085 0 1.892.062 3.752.062s2.666-.062 3.751-.062c.496 0 .683.062.683.434 0 .775-2.573-.217-2.573 1.86v16.557c0 2.077 2.573 1.085 2.573 1.86 0 .372-.187.435-.683.435-1.085 0-1.891-.063-3.751-.063s-2.667.063-3.752.063c-.496 0-.683-.063-.683-.435 0-.775 2.574.217 2.574-1.86V3.515zM306.877 14.739c-.837 2.388-1.24 3.286-1.24 4.186 0 3.101 2.573 2.356 2.573 3.101 0 .342-.155.342-.496.342-.651 0-1.396-.063-3.503-.063-1.023 0-2.016.063-3.132.063-.311 0-.403-.125-.403-.373 0-.558 1.209-.248 2.077-.992.807-.682 1.829-2.325 2.667-4.434 3.721-9.302 4.248-10.449 4.248-10.697 0-.217-.744-.806-.744-1.178 0-.465.526-.403 1.395-2.232.651-1.364.496-1.798.899-1.798s.372 1.023 2.232 5.116l6.604 14.604c.837 1.829 2.294.93 2.294 1.611 0 .342-.217.373-.526.373-1.24 0-2.48-.063-3.721-.063s-2.45.063-3.721.063c-.311 0-.496-.094-.496-.373 0-.774 2.17.125 2.17-1.55 0-.279-.311-1.209-.527-1.675l-1.768-4.03h-6.882zm3.225-8.371l-2.914 7.627h6.263l-3.349-7.627z"/></g></svg>