<?xml version="1.0" encoding="UTF-8"?>
<svg width="223px" height="128px" viewBox="0 0 223 128" version="1.1" xmlns="http://www.w3.org/2000/svg" xmlns:xlink="http://www.w3.org/1999/xlink">
    <!-- Generator: Sketch 50.2 (55047) - http://www.bohemiancoding.com/sketch -->
    <title>vcc</title>
    <desc>Created with Sketch.</desc>
    <defs></defs>
    <g id="Page-1" stroke="none" stroke-width="1" fill="none" fill-rule="evenodd">
        <g id="vcc" fill="#FFFFFF" fill-rule="nonzero">
            <g id="newscorp" transform="translate(24.252632, 0.000000)">
                <path d="M0.6,27 C3.7,21.3 6.9,15.7 9.9,10 C10.4,9 10.6,7.8 10.9,6.8 C11,6.5 11.2,6.2 11.4,6.1 C13.3,5.4 15,6.6 15.1,8.6 C15.4,12.7 15.3,16.9 16.4,20.9 C16.6,21.4 16.7,22 16.9,22.5 C16.9,22.6 17,22.7 17.1,22.8 C18,20.9 18.9,19 19.8,17.2 C22.4,12.5 25.1,7.7 27.8,3 C28.5,1.8 29.4,0.7 30.8,0.2 L31.2,0.2 C31.4,0.3 31.6,0.4 31.8,0.5 C32.8,0.9 33.2,1.8 32.7,2.8 C32.4,3.4 32.1,3.9 31.7,4.4 C28,8.6 25.3,13.4 22.7,18.4 C21.2,21.3 19.9,24.3 18.5,27.3 C17.8,28.5 16.3,29 15,28 C14.8,27.8 14.6,27.5 14.5,27.2 C14,24.8 13.5,22.5 13.2,20.1 C12.8,17.6 12.6,15.1 12.3,12.5 C12.2,12.7 12,13 11.8,13.3 C9.9,16.9 8,20.6 6.2,24.2 C5.7,25.2 5.5,26.4 5.2,27.5 C5,28.3 4.4,28.8 3.6,28.9 C2.5,29.1 1.6,28.9 0.7,28.2 L0.7,27 L0.6,27 Z" id="Fill-3"></path>
                <path d="M148.4,23.8 C145.7,25 143.1,26.3 140.4,27.4 C139.2,27.9 137.9,28.1 136.7,28.2 C134.7,28.3 133.6,26.9 134.2,24.9 C134.4,24.1 134.8,23.4 135.1,22.7 C133.5,22.1 131.9,21.6 130.2,20.9 C127.7,24.2 124.3,25.3 120.2,24 C119.5,24.8 119,25.7 118.2,26.3 C117.3,27 116.3,27.7 115.3,28 C113,28.8 111.8,28 111.3,25.4 C110.4,25.8 109.6,26.2 108.7,26.6 C106,27.7 103.3,28.8 100.3,28.6 C97.8,28.4 96,26.6 95.9,24.1 C95.9,22.6 96.1,21 96.6,19.6 C98.3,14.8 100.9,10.5 104.6,6.9 C106,5.6 107.5,4.4 109.5,4.4 C111.5,4.3 113,5.6 113.4,7.5 C114,10.4 112.9,12.9 111.4,15.3 C111.1,15.8 110.7,16.3 110.3,16.6 C109.5,17.2 108.5,17.1 107.9,16.3 C107.2,15.4 107.4,14.4 108,13.7 C108.9,12.6 109.6,11.4 110.3,10.2 C110.7,9.5 110.5,8.6 109.8,8.1 C109.1,7.6 108.4,8 107.8,8.4 C107.2,8.8 106.7,9.3 106.2,9.8 C103.3,13.2 100.9,16.8 99.7,21.1 C99.5,21.9 99.4,22.8 99.5,23.6 C99.6,24.8 100.2,25.4 101.4,25.3 C102.9,25.2 104.4,24.9 105.8,24.5 C107.4,24 109.1,23.3 110.6,22.5 C111.6,22 112.4,21.2 113.2,20.4 C114.7,18.8 116.5,18.3 118.5,18.8 C119.1,18.9 119.8,19.6 120.1,20.2 C120.5,20.9 121,21.3 121.7,21.4 C123.5,21.7 125.2,21.5 126.6,20.3 C127.5,19.5 128.1,18.5 127.9,17.3 C127.8,16.7 128.1,16.5 128.6,16.4 C129.8,16.1 130.5,16.4 131.3,17.4 C132.6,19.3 134.4,20.1 136.7,19.6 C137.1,19.5 137.4,19.5 137.8,19.4 C138.5,19.4 139.1,19.5 139.5,20.2 C139.9,20.9 139.8,21.6 139.4,22.2 C139,22.7 138.6,23.2 138.3,23.7 C138,24.1 137.8,24.6 137.5,25.2 C138.2,25.1 138.7,25.2 139.1,25 C143.4,23.7 147.1,21.5 150.5,18.6 C150.9,18.3 151,17.6 151.1,17.1 C151.2,16.4 151.5,16 152.2,16.1 C152.4,16.1 152.5,16.1 152.7,16.1 C154.7,16.1 155.5,17.3 154.7,19.2 C154.7,19.3 154.6,19.4 154.5,19.6 C155.4,19.3 156.2,19 157.1,18.8 C158,18.7 159,18.6 159.8,18.8 C161.3,19.2 161.9,20.5 161.2,21.8 C160.6,22.8 159.8,23.6 159,24.5 C158.9,24.7 158.7,24.8 158.4,25.1 C163.2,24 167.4,22.1 170.9,18.9 C171.7,18.2 172.2,17.8 173.1,18.3 C174.7,19.1 174.9,20.6 173.3,21.6 C168,24.9 162.3,27.3 156.1,28.1 C155.5,28.2 154.8,28.1 154.2,28 C153.6,27.9 153,27.6 152.9,26.9 C152.8,26.2 153.1,25.7 153.7,25.3 C154.7,24.6 155.7,23.8 156.6,23 C157,22.7 157.2,22.2 157.6,21.7 C155.9,21.7 154.6,22.1 153.6,23.1 C152.4,24.3 151.2,25.6 150.4,27.1 C147.9,31.5 146.1,36.3 144.9,41.3 C144.5,42.7 143.6,43.5 142.3,43.4 C141.3,43.3 140.7,42.8 140.9,41.8 C141.1,40.6 141.5,39.5 142,38.4 C143.9,33.5 146.1,28.7 148.4,23.8 C148.4,23.9 148.4,23.8 148.4,23.8 M117,22.1 C116,22.8 115.1,23.4 114.2,24.1 C114,24.2 114,24.6 114.1,24.9 C114.1,25 114.4,25.1 114.6,25.1 C115.5,25.1 117.1,23.4 117,22.1" id="Fill-5"></path>
                <path d="M47.2,23.7 C45.8,24.5 44.3,25.4 42.8,26.1 C40.1,27.4 37.4,28.4 34.3,28.2 C33.4,28.1 32.6,28 31.7,27.8 C29.5,27.2 28.1,25.8 27.8,23.5 C27,23.4 26.1,23.4 25.3,23.1 C23.8,22.7 23.3,21.2 24.1,20 C24.5,19.5 24.8,19.1 25.6,19.6 C26.2,19.9 27.1,19.8 27.8,19.8 C28,19.8 28.2,19.4 28.4,19.1 C29.7,16.2 31.6,13.9 34.8,13.1 C36,12.8 37.3,12.7 38.5,12.8 C40.4,13 41.2,14.8 40.3,16.5 C39.8,17.4 39.1,18.3 38.3,18.8 C36.2,20.1 34,21.3 31.8,22.4 C31.1,22.8 31,23.1 31.3,23.7 C32,24.9 33.1,25.3 34.4,25.4 C36.2,25.6 38,25.2 39.6,24.4 C41.6,23.3 43.5,22.1 45.3,20.8 C45.9,20.4 46.1,19.6 46.5,18.9 C46.6,18.7 46.8,18.6 46.9,18.5 C48.4,17.9 49.8,18.8 50,20.4 C50.1,21.4 50.1,22.3 50.4,23.2 C50.7,24.3 51.3,24.5 52,23.6 C53.2,22.2 54.3,20.7 55.4,19.2 C55.9,18.5 56.4,18.1 57.2,18.3 C58,18.5 58.3,19.1 58.4,19.9 C58.5,21.2 58.5,22.4 58.8,23.7 C59,24.7 59.4,24.8 60.1,24.1 C61.2,23 62.2,21.8 63.2,20.5 C64.8,18.6 65,18.5 67.4,19.1 C68.9,19.5 70.3,19.4 71.7,18.6 C72,18.4 72.2,18.3 72.5,18.2 C73.7,17.9 74.8,18.5 75.1,19.4 C75.3,20.3 74.7,21.1 73.5,21.5 C71.6,22.2 69.6,22.5 67.6,22 C66.8,21.8 66.2,22.1 65.7,22.6 C64.9,23.5 64.1,24.5 63.2,25.4 C62.4,26.2 61.6,26.9 60.7,27.5 C58.9,28.7 57.3,28.2 56.3,26.3 C56,25.7 55.8,25.1 55.5,24.5 C54.9,25.1 54.4,25.8 53.7,26.3 C53,26.9 52.2,27.5 51.4,27.8 C50.1,28.4 49,28.1 48.3,26.8 C48,26 47.6,24.9 47.2,23.7 M31.9,19 C33.9,18.7 36.5,17 37,15.9 C35.6,15.3 32.7,17.1 31.9,19" id="Fill-7"></path>
                <path d="M80.4,24.9 C79.5,23.8 78.6,22.9 78,21.9 C77.4,21 76.8,20.1 76.4,19.1 C75.6,17 76.4,15 78.3,13.9 C80.3,12.7 82.4,12.5 84.6,12.8 C85.9,13 86.6,13.9 86.4,14.9 C86.1,16 85.1,16.6 83.8,16.3 C83,16.1 82.1,16 81.2,16 C79.7,16 78.9,17.1 79.5,18.4 C79.9,19.5 80.6,20.5 81.3,21.5 C82,22.5 82.9,23.3 83.7,24.2 C84.5,25.1 84.6,26 84.1,26.8 C83.5,27.7 82.7,28.1 81.6,28 C78.9,27.7 76.1,27.4 73.4,27.1 C73.1,27.1 72.8,27 72.5,26.9 C71.7,26.7 71.3,26.2 71.6,25.4 C71.8,24.8 72.2,24.3 72.7,23.8 C73.1,23.3 73.6,23.3 74.3,23.6 C76,24.9 78.1,24.9 80.4,24.9" id="Fill-9"></path>
            </g>
            <g id="vccircle" transform="translate(0.000000, 58.936842)">
                <path d="M24.2,0.6 L16.6,67.7 L8,67.7 L0.4,0.6 L8.2,0.6 L12,52.6 L12,53 L12,53.6 C11.9,53.8 11.9,54 12,54.3 C12.1,54.6 12.2,54.7 12.3,54.7 C12.4,54.7 12.5,54.6 12.6,54.3 C12.7,54 12.7,53.8 12.6,53.6 C12.5,53.5 12.5,53.5 12.6,53.4 C12.6,53.3 12.6,53.2 12.6,53.1 L12.6,52.7 L16.4,0.7 L24.2,0.7 L24.2,0.6 Z" id="Fill-11"></path>
                <path d="M47.3,61.6 C47.8,61.5 48.2,61.2 48.5,60.9 C49,60.4 49.3,60 49.5,59.6 C49.7,59.2 49.8,58.5 49.8,57.4 L49.9,54 L56.8,54 L56.8,57.1 C56.7,57.6 56.7,58.1 56.7,58.5 C56.6,58.9 56.6,59.3 56.6,59.8 C56.6,60.3 56.5,60.7 56.4,61.1 C56.2,61.9 55.9,62.8 55.4,63.6 C54.9,64.4 54.5,65.1 54,65.5 C53.6,65.9 52.8,66.5 51.7,67.2 C50.6,67.9 49.1,68.3 47.3,68.3 L41.4,68.3 C39.5,68.3 38.1,67.9 37,67.2 C35.9,66.5 35.1,65.9 34.7,65.5 C34.3,65.1 33.8,64.4 33.3,63.6 C32.8,62.8 32.5,61.9 32.3,61.1 C32.2,60.7 32.1,60.3 32,59.8 C31.9,59.3 31.9,58.9 31.9,58.5 C31.8,58.1 31.8,57.6 31.9,57.1 L31.9,11.1 C31.8,10.6 31.8,10.1 31.9,9.7 C31.9,9.3 31.9,8.9 32,8.5 C32.1,8.1 32.2,7.6 32.3,7.2 C32.5,6.4 32.8,5.5 33.3,4.7 C33.8,3.9 34.2,3.2 34.7,2.8 C35.1,2.4 35.9,1.8 37,1.1 C38.1,0.4 39.6,1.33226763e-15 41.4,1.33226763e-15 L47,1.33226763e-15 C48.9,1.33226763e-15 50.3,0.4 51.4,1.1 C52.5,1.8 53.3,2.4 53.7,2.8 C54.1,3.2 54.6,3.9 55.1,4.7 C55.6,5.5 55.9,6.4 56.1,7.2 C56.2,7.6 56.3,8.1 56.3,8.5 C56.3,8.9 56.3,9.4 56.4,9.7 C56.4,10.1 56.4,10.6 56.5,11.1 L56.5,14 L49.6,14 L49.6,6.5 L42.9,6.5 C42.4,6.6 41.9,6.7 41.4,6.8 C40.9,6.9 40.6,7.1 40.3,7.4 C39.8,7.9 39.5,8.3 39.3,8.7 C39.1,9.1 39,9.8 39,10.9 L38.9,15.7 L38.9,52.9 L39,57.7 C39.1,58.8 39.2,59.5 39.3,59.9 C39.5,60.3 39.8,60.7 40.3,61.2 C40.6,61.5 41.1,61.7 41.7,61.9 C42.3,62 42.9,62.1 43.4,62.1 L45.9,62.1 C46.4,61.8 46.8,61.8 47.3,61.6" id="Fill-13"></path>
                <path d="M78.6,61.6 C79.1,61.5 79.5,61.2 79.8,60.9 C80.3,60.4 80.6,60 80.8,59.6 C81,59.2 81.1,58.5 81.1,57.4 L81.2,54 L88.1,54 L88.1,57.1 C88,57.6 88,58.1 88,58.5 C88,59 88,59.4 88,59.9 C88,60.4 87.9,60.8 87.8,61.2 C87.6,62 87.3,62.9 86.8,63.7 C86.3,64.5 85.9,65.2 85.4,65.6 C85,66 84.2,66.6 83.1,67.3 C82,68 80.5,68.4 78.7,68.4 L72.8,68.4 C70.9,68.4 69.5,68 68.4,67.3 C67.3,66.6 66.5,66 66.1,65.6 C65.7,65.2 65.2,64.5 64.7,63.7 C64.2,62.9 63.9,62 63.7,61.2 C63.6,60.8 63.5,60.4 63.4,59.9 C63.3,59.4 63.3,59 63.3,58.6 C63.2,58.2 63.2,57.7 63.3,57.2 L63.3,11.2 C63.2,10.7 63.2,10.2 63.3,9.8 C63.3,9.4 63.3,9 63.4,8.6 C63.5,8.2 63.6,7.7 63.7,7.3 C63.9,6.5 64.2,5.6 64.7,4.8 C65.2,4 65.6,3.3 66.1,2.9 C66.5,2.5 67.3,1.9 68.4,1.2 C69.5,0.5 71,0.1 72.8,0.1 L78.4,0.1 C80.3,0.1 81.7,0.5 82.8,1.2 C83.9,1.9 84.7,2.5 85.1,2.9 C85.5,3.3 86,4 86.5,4.8 C87,5.6 87.3,6.5 87.5,7.3 C87.6,7.7 87.7,8.2 87.7,8.6 C87.7,9 87.7,9.5 87.8,9.8 C87.8,10.2 87.8,10.7 87.9,11.2 L87.9,14 L81,14 L81,6.5 L74.3,6.5 C73.8,6.6 73.3,6.7 72.8,6.8 C72.3,6.9 72,7.1 71.7,7.4 C71.2,7.9 70.9,8.3 70.7,8.7 C70.5,9.1 70.4,9.8 70.4,10.9 L70.3,15.7 L70.3,52.9 L70.4,57.7 C70.5,58.8 70.6,59.5 70.7,59.9 C70.9,60.3 71.2,60.7 71.7,61.2 C72,61.5 72.5,61.7 73.1,61.9 C73.7,62 74.3,62.1 74.8,62.1 L77.3,62.1 C77.7,61.8 78.2,61.8 78.6,61.6" id="Fill-15"></path>
                <path d="M158.1,61.6 C158.6,61.5 159,61.2 159.3,60.9 C159.8,60.4 160.1,60 160.3,59.6 C160.5,59.2 160.6,58.5 160.6,57.4 L160.7,54 L167.6,54 L167.6,57.1 C167.5,57.6 167.5,58.1 167.5,58.5 C167.4,58.9 167.4,59.3 167.4,59.8 C167.4,60.3 167.3,60.7 167.2,61.1 C167,61.9 166.7,62.8 166.2,63.6 C165.7,64.4 165.3,65.1 164.8,65.5 C164.4,65.9 163.6,66.5 162.5,67.2 C161.4,67.9 159.9,68.3 158.1,68.3 L152.2,68.3 C150.3,68.3 148.9,67.9 147.8,67.2 C146.7,66.5 145.9,65.9 145.5,65.5 C145.1,65.1 144.6,64.4 144.1,63.6 C143.6,62.8 143.3,61.9 143.1,61.1 C143,60.7 142.9,60.3 142.8,59.8 C142.7,59.3 142.7,58.9 142.7,58.5 C142.6,58.1 142.6,57.6 142.7,57.1 L142.7,11.1 C142.6,10.6 142.6,10.1 142.7,9.7 C142.7,9.3 142.7,8.9 142.8,8.5 C142.9,8.1 143,7.6 143.1,7.2 C143.3,6.4 143.6,5.5 144.1,4.7 C144.6,3.9 145,3.2 145.5,2.8 C145.9,2.4 146.7,1.8 147.8,1.1 C148.9,0.4 150.4,1.33226763e-15 152.2,1.33226763e-15 L157.8,1.33226763e-15 C159.7,1.33226763e-15 161.1,0.4 162.2,1.1 C163.3,1.8 164.1,2.4 164.5,2.8 C164.9,3.2 165.4,3.9 165.9,4.7 C166.4,5.5 166.7,6.4 166.9,7.2 C167,7.6 167,8 167,8.5 C167,8.9 167,9.4 167.1,9.7 C167.1,10.1 167.1,10.6 167.2,11.1 L167.2,14 L160.3,14 L160.3,6.5 L153.6,6.5 C153.1,6.6 152.6,6.7 152.1,6.8 C151.6,6.9 151.3,7.1 151,7.4 C150.5,7.9 150.2,8.3 150,8.7 C149.8,9.1 149.7,9.8 149.7,10.9 L149.6,15.7 L149.6,52.9 L149.7,57.7 C149.8,58.8 149.9,59.5 150,59.9 C150.2,60.3 150.5,60.7 151,61.2 C151.3,61.5 151.8,61.7 152.4,61.9 C153,62 153.6,62.1 154.1,62.1 L156.6,62.1 C157.1,61.8 157.6,61.8 158.1,61.6" id="Fill-17"></path>
                <polygon id="Fill-19" points="173.4 0.6 180.2 0.6 180.2 61.1 195.1 61.1 195.1 67.7 173.4 67.7"></polygon>
                <polygon id="Fill-21" points="200.9 0.6 222.1 0.6 222.1 7.1 207.8 7.1 207.8 24.6 217.1 24.6 217.1 31.1 207.8 31.1 207.8 61.2 223 61.2 223 67.7 200.9 67.7"></polygon>
                <path d="M102.1,5.3 C102.1,7.9 100,10 97.4,10 C94.8,10 92.7,7.9 92.7,5.3 C92.7,2.7 94.8,0.6 97.4,0.6 C100,0.6 102.1,2.7 102.1,5.3" id="Fill-23"></path>
                <path d="M97.4,14.5 C96.1,14.5 94.9,14.1 93.9,13.4 L93.9,67.7 L100.8,67.7 L100.8,13.4 C99.8,14.1 98.7,14.5 97.4,14.5" id="Fill-25"></path>
                <path d="M125.4,24.4 C125.4,29.7 120.2,29.5 120.2,29.5 L115,29.5 L115,7.1 L121.4,7.1 C125.3,7.1 125.3,10.7 125.3,10.7 L125.3,24.4 L125.4,24.4 Z M132.8,62.7 L132.8,40.1 C132.8,40.1 132.2,32.8 125.4,32.8 C125.4,32.8 132.3,33.4 132.3,27.7 L132.3,7.2 C132.3,7.2 132.5,0.6 124,0.6 C115.5,0.6 108.1,0.6 108.1,0.6 L108.1,67.7 L115,67.7 L115,37.5 L123,37.5 C123,37.5 125.8,37.2 125.8,42 L125.8,64 C125.8,64 125.8,68 130.4,68 L135.7,68 L135.7,67.6 C135.8,67.6 132.8,66 132.8,62.7 Z" id="Fill-27"></path>
            </g>
        </g>
    </g>
</svg>