<svg xmlns="http://www.w3.org/2000/svg" viewBox="0 0 63.2 63.2"><style>.st8{fill:#fff}</style><switch><g><g id="Layer_1"><circle cx="31.6" cy="31.6" r="31.6" fill="#73c69c"/><path class="st8" d="M25.4 18.7c1.1 0 2.1.2 3 .5.9.3 1.7.8 2.4 1.4.7.6 1.2 1.4 1.6 2.2.4.9.6 1.9.6 3 0 .9-.1 1.8-.4 2.6-.3.8-.7 1.6-1.2 2.3-.5.7-1 1.5-1.7 2.1-.6.7-1.3 1.4-2 2.1l-6.7 7c.5-.1 1-.2 1.4-.3.5-.1 1-.1 1.4-.1h8.5c.3 0 .6.1.8.3.2.2.3.5.3.8v1.9h-17v-1.1c0-.2 0-.5.1-.7.1-.2.2-.5.4-.7l8.1-8.2c.7-.7 1.3-1.3 1.8-2 .6-.6 1-1.3 1.4-1.9.4-.6.7-1.3.9-1.9.2-.7.3-1.4.3-2.1 0-.7-.1-1.4-.4-2-.2-.6-.6-1-1-1.4-.4-.4-.9-.6-1.5-.8-.6-.2-1.2-.3-1.8-.3-.6 0-1.2.1-1.8.3-.5.2-1 .5-1.4.8-.4.3-.8.7-1.1 1.2-.3.5-.5 1-.6 1.5-.1.3-.2.6-.4.7-.2.2-.4.2-.7.2h-.4l-1.6-.3c.2-1.2.5-2.2 1-3.1.5-.9 1.1-1.6 1.8-2.2.7-.6 1.6-1.1 2.5-1.4 1.3-.2 2.3-.4 3.4-.4zM44.9 39.5c.1.2.1.4.2.6.1-.2.1-.4.2-.6.1-.2.2-.4.3-.5l5.2-9.4c.1-.2.2-.3.3-.3.1 0 .2-.1.4-.1H53v15.2h-1.8V33.2v-.5-.5L46 41.8c-.2.3-.4.5-.7.5H45c-.3 0-.6-.2-.7-.5L39 32.2v12.2h-1.8V29.2h1.5c.2 0 .3 0 .4.1.1 0 .2.1.3.3l5.3 9.4c0 .1.1.3.2.5z"/><g><path class="st8" d="M10.6 18c.2.2.4.4.7.5.3.1.7.3 1.2.4.6.2 1.2.4 1.6.6.4.2.7.4 1 .8.3.4.4.8.4 1.4 0 .7-.3 1.3-.8 1.8s-1.2.8-2.1.9v1.8h-1v-1.8c-.6 0-1.2-.2-1.8-.5-.6-.3-1.1-.6-1.5-1l.6-1.1c.5.4 1 .8 1.5 1 .6.2 1.1.4 1.6.4.6 0 1.1-.1 1.5-.4.4-.2.5-.6.5-1 0-.3-.1-.6-.3-.8-.2-.2-.4-.4-.8-.5-.3-.1-.7-.3-1.2-.4-.6-.2-1.1-.4-1.5-.6-.4-.2-.7-.4-1-.8-.3-.4-.4-.8-.4-1.4 0-.7.3-1.3.8-1.7.5-.4 1.2-.7 2-.8v-1.6h1v1.6c.5 0 1 .1 1.4.3.5.2.9.4 1.3.6l-.5 1.2c-.4-.3-.9-.5-1.4-.6-.5-.1-.9-.2-1.3-.2-.6 0-1 .1-1.3.3-.3.2-.5.5-.5.9 0 .2.1.5.3.7z"/></g></g></g></switch></svg>