<svg id="Layer_1" data-name="Layer 1" xmlns="http://www.w3.org/2000/svg" viewBox="0 0 63.2 63.2"><defs><style>.cls-1{fill:#73c69c;}.cls-2{fill:#fff;}</style></defs><title>2.5million</title><g id="Layer_1-2" data-name="Layer 1"><circle class="cls-1" cx="31.6" cy="31.6" r="31.6"/></g><path class="cls-2" d="M25.64,41.29H13.26V39a5.43,5.43,0,0,1,.35-1.86A8,8,0,0,1,15,34.93c.67-.82,1.37-1.62,2.12-2.38l1.39-1.43c.29-.29.9-1,1.85-2a14.57,14.57,0,0,0,1.87-2.42A3.53,3.53,0,0,0,22.66,25a2.34,2.34,0,0,0-1.06-2,4.09,4.09,0,0,0-2.37-.72,9.75,9.75,0,0,0-1.68.17,12.28,12.28,0,0,0-1.62.41,23.27,23.27,0,0,0-2.27.94V21.6A13.07,13.07,0,0,1,17,20.52a16.13,16.13,0,0,1,2.75-.3,8,8,0,0,1,2.94.52,3.88,3.88,0,0,1,2,1.61,4.54,4.54,0,0,1,.65,2.34,5.61,5.61,0,0,1-.84,2.83,19.86,19.86,0,0,1-3.16,3.73l-1.5,1.49L18.55,34a14.82,14.82,0,0,0-1.93,2.35A5.24,5.24,0,0,0,15.8,39h9.84Z"/><path class="cls-2" d="M28.24,41.91a2.08,2.08,0,0,1-1.51-.64,2.05,2.05,0,0,1-.63-1.51,2.08,2.08,0,0,1,.63-1.53,2.15,2.15,0,0,1,3,0,2.14,2.14,0,0,1,0,3A2.09,2.09,0,0,1,28.24,41.91Z"/><path class="cls-2" d="M31.49,30.66V20.82H42.94v2.36h-9v5h.42q4.41,0,6.8,1.85a6,6,0,0,1,2.39,5,6.51,6.51,0,0,1-3.68,6,8.17,8.17,0,0,1-3.73.89,17.84,17.84,0,0,1-5.06-1V38.27a12.29,12.29,0,0,0,2.5,1,9.55,9.55,0,0,0,2.56.39,5,5,0,0,0,2.29-.57,4,4,0,0,0,1.74-1.65,4.34,4.34,0,0,0,.62-2.22A4,4,0,0,0,39.1,32q-1.7-1.32-6-1.32Z"/><path class="cls-2" d="M7.86,21.9a1.79,1.79,0,0,0,.7.5,8.34,8.34,0,0,0,1.2.4,13.78,13.78,0,0,1,1.6.6,2.54,2.54,0,0,1,1,.8,2.12,2.12,0,0,1,.4,1.4,2.5,2.5,0,0,1-.8,1.8,3.4,3.4,0,0,1-2.1.9v1.8h-1V28.3a4.07,4.07,0,0,1-1.8-.5,5.6,5.6,0,0,1-1.5-1l.6-1.1a6.53,6.53,0,0,0,1.5,1,5.35,5.35,0,0,0,1.6.4,2.41,2.41,0,0,0,1.5-.4,1,1,0,0,0,.5-1,1.14,1.14,0,0,0-.3-.8,1.58,1.58,0,0,0-.8-.5A8.34,8.34,0,0,0,9,24a11.64,11.64,0,0,1-1.5-.6,2.54,2.54,0,0,1-1-.8,2.38,2.38,0,0,1,.4-3.1,4,4,0,0,1,2-.8V17.1h1v1.6a3.19,3.19,0,0,1,1.4.3c.5.2.9.4,1.3.6l-.5,1.2a3.51,3.51,0,0,0-1.4-.6,6.88,6.88,0,0,0-1.3-.2,2.27,2.27,0,0,0-1.3.3,1.05,1.05,0,0,0-.5.9A1.08,1.08,0,0,0,7.86,21.9Z"/><path class="cls-2" d="M52,37.35c.08.16.08.32.16.48.08-.16.08-.32.16-.48a1.75,1.75,0,0,1,.24-.4l4.18-7.54q.12-.24.24-.24c.08,0,.16-.08.32-.08h1.2v12.2H57v-9.8L52.85,39.2c-.16.24-.32.4-.56.4h-.24a.6.6,0,0,1-.56-.4l-4.25-7.71v9.8H45.79V29.09H47c.17,0,.25,0,.33.08s.16.08.24.24L51.81,37A1.35,1.35,0,0,0,52,37.35Z"/></svg>