<svg xmlns="http://www.w3.org/2000/svg" viewBox="0 0 63.2 63.2"><style></style><switch><g><g id="Layer_1"><circle cx="31.6" cy="31.6" r="31.6" fill="#73c69c"/><path d="M27 25.7c.7.7 1.6 1.3 2.6 1.8 1 .4 2.4.9 4.2 1.5 2.3.7 4.1 1.4 5.5 2 1.4.6 2.6 1.6 3.6 2.8 1 1.3 1.5 2.9 1.5 5 0 2.6-.9 4.7-2.8 6.4-1.8 1.7-4.3 2.7-7.4 3v6.3h-3.5v-6.3c-2.2-.2-4.3-.7-6.4-1.6-2.1-.9-3.9-2.1-5.4-3.6l2.1-4c1.6 1.6 3.4 2.8 5.4 3.6 2 .8 3.9 1.3 5.8 1.3 2.2 0 4-.4 5.3-1.3 1.3-.9 1.9-2.1 1.9-3.6 0-1.2-.4-2.1-1-2.9-.7-.8-1.6-1.4-2.6-1.8-1.1-.4-2.5-.9-4.3-1.5-2.2-.7-4-1.3-5.4-2-1.4-.6-2.6-1.6-3.6-2.8-1-1.2-1.5-2.9-1.5-4.9 0-2.4.9-4.5 2.7-6 1.8-1.6 4.2-2.5 7.2-2.8V8.6h3.5v5.7c1.7.1 3.5.5 5.1 1 1.7.6 3.1 1.3 4.4 2.1L42 21.5c-1.6-1-3.2-1.7-4.8-2.2-1.7-.5-3.2-.7-4.6-.7-1.9 0-3.5.4-4.7 1.1-1.2.7-1.7 1.8-1.7 3.1-.3 1.2.1 2.2.8 2.9z" fill="#fff"/></g></g></switch></svg>