<svg id="Layer_1" data-name="Layer 1" xmlns="http://www.w3.org/2000/svg" viewBox="0 0 63.2 63.2"><defs><style>.cls-1{fill:#73c69c;}.cls-2{fill:#fff;}</style></defs><title>noc</title><g id="Layer_1-2" data-name="Layer 1"><circle class="cls-1" cx="31.6" cy="31.6" r="31.6"/><g id="surface1"><path class="cls-2" d="M45.92,15.14a4.53,4.53,0,0,0-4.53-4.53H18.2a4.46,4.46,0,0,0-4.46,4.45V43.14H7.06V47a4.4,4.4,0,0,0,4.39,4.39H34.71a4.56,4.56,0,0,0,4.53-4.29V18.87h6.67ZM11.45,49a2,2,0,0,1-2-2V45.53H30.19v1.71s0,.11,0,.17v.05s0,.09,0,.14v0c0,.06,0,.13,0,.19v0s0,.11.05.16v.06l.06.17v0a1.8,1.8,0,0,0,.08.21l0,.06a1.11,1.11,0,0,0,.07.16.14.14,0,0,1,0,.06,2,2,0,0,1,.1.21H11.45Zm25.4-2.09a3.11,3.11,0,0,1-.4,1.14,1.85,1.85,0,0,1-1.74,1A1.9,1.9,0,0,1,33,48.23L33,48.12l-.1-.17a1.3,1.3,0,0,0-.08-.17l0-.08a2.72,2.72,0,0,1-.18-.65V43.14H16.13V15.06A2.07,2.07,0,0,1,18.2,13H37.39a1.19,1.19,0,0,1-.08.16l0,0a1.3,1.3,0,0,1-.08.17v0c0,.06-.05.12-.07.17v0a1.34,1.34,0,0,0-.07.18v0c0,.06,0,.12,0,.18h0c0,.07,0,.13,0,.2v0l0,.19v0a1.37,1.37,0,0,1,0,.19v0c0,.07,0,.13,0,.2v0c0,.07,0,.14,0,.21Zm6.68-30.45H39.25V15.14a2.14,2.14,0,0,1,4.28,0Z"/><path class="cls-2" d="M22.21,16.48h8.34v2.39H22.21Z"/><path class="cls-2" d="M19.34,21h14.4v2.39H19.34Z"/><path class="cls-2" d="M19.34,25.56h14.4V28H19.34Z"/><path class="cls-2" d="M19.34,30.1h14.4v2.39H19.34Z"/><path class="cls-2" d="M30.21,34.14a3.67,3.67,0,1,0,3.66,3.67A3.68,3.68,0,0,0,30.21,34.14Zm0,4.94a1.28,1.28,0,1,1,1.27-1.27A1.28,1.28,0,0,1,30.21,39.08Z"/></g><path class="cls-2" d="M52,33,55.6,29.4a1.47,1.47,0,1,0-2.08-2.09L49.88,31l-3.63-3.64a1.48,1.48,0,1,0-2.09,2.09L47.8,33l-3.64,3.64a1.47,1.47,0,0,0,2.09,2.08l3.63-3.64,3.64,3.64a1.45,1.45,0,0,0,1,.43,1.44,1.44,0,0,0,1-.43,1.46,1.46,0,0,0,0-2.08Z"/></g></svg>