<svg id="Layer_1" xmlns="http://www.w3.org/2000/svg" viewBox="0 0 63.2 63.2"><style>.st1{fill:#fff}</style><g id="Layer_1-2"><circle cx="31.6" cy="31.6" r="31.6" fill="#73c69c"/><path class="st1" d="M22.6 36.5c-.6 0-1.1-.6-1.1-1.2 0-.5.3-.9.7-1 .6-.2 1.2.1 1.8.8.4.5 1.1.5 1.6.1s.5-1.1.1-1.6c-.6-.7-1.3-1.2-2-1.4v-1.3c0-.6-.5-1.1-1.1-1.1-.6 0-1.1.5-1.1 1.1v1.3c-1.3.5-2.2 1.7-2.2 3.1 0 .9.3 1.7 1 2.4.6.7 1.5 1 2.4 1 .6 0 1.1.5 1.1 1.1 0 .4-.3.8-.7 1-.5.2-1.1 0-1.6-.5-.4-.4-1.1-.4-1.6 0-.4.4-.4 1.1 0 1.6.5.5 1.1.8 1.6 1v1.3c0 .6.5 1.1 1.1 1.1.6 0 1.1-.5 1.1-1.1v-1.3c1.3-.5 2.2-1.7 2.2-3.1 0-1.8-1.5-3.3-3.3-3.3z"/><path class="st1" d="M45.4 13.4c-2-.9-4.7-1.4-7.5-1.4-5.8 0-11.1 2.1-11.1 5.5v8.3c-1.1-.3-2.2-.5-3.4-.5-3.2 0-6.3 1.3-8.6 3.6s-3.6 5.4-3.6 8.6c0 6.7 5.5 12.2 12.2 12.2 2.2 0 4.4-.6 6.3-1.7 2.1 1.1 5 1.7 8.2 1.7 2.8 0 5.5-.5 7.5-1.4 2.3-1 3.6-2.5 3.6-4.1V17.5c0-1.6-1.3-3.1-3.6-4.1zm-22 34.1c-5.5 0-10-4.5-10-10s4.5-10 10-10 10 4.5 10 10c0 5.6-4.5 10-10 10zm23.4-3.3c0 1.4-3.5 3.3-8.9 3.3-2.3 0-4.5-.4-6.2-1l.3-.3c1-1 1.8-2.1 2.4-3.3 1.1.2 2.2.3 3.4.3 2.9 0 6.5-.6 8.9-2.1v3.1zm0-6.6c0 1.4-3.5 3.3-8.9 3.3-.9 0-1.8-.1-2.6-.2.3-1 .4-2.1.4-3.2 0-.4 0-.9-.1-1.3.7.1 1.5.1 2.3.1 2.9 0 6.5-.6 8.9-2.1v3.4zm0-6.7c0 1.4-3.5 3.3-8.9 3.3-.9 0-1.9-.1-2.7-.2-.6-1.9-1.6-3.6-3-5 1.7.5 3.7.8 5.8.8 2.9 0 6.5-.6 8.9-2.1v3.2zm0-6.7c0 1.4-3.5 3.3-8.9 3.3-2.5 0-4.8-.4-6.6-1.2-1.4-.6-2.3-1.4-2.3-2.1v-3.3c2.4 1.6 6 2.1 8.8 2.1 2.9 0 6.5-.6 8.9-2.1v3.3zm-8.9-3.4c-5.4 0-8.8-1.9-8.8-3.3s3.5-3.3 8.8-3.3c5.4 0 8.9 2 8.9 3.3s-3.5 3.3-8.9 3.3z"/></g></svg>