<?xml version="1.0" encoding="utf-8"?>
<!-- Generator: Adobe Illustrator 25.0.1, SVG Export Plug-In . SVG Version: 6.00 Build 0)  -->
<svg version="1.1" id="Layer_1" xmlns="http://www.w3.org/2000/svg" xmlns:xlink="http://www.w3.org/1999/xlink" x="0px" y="0px"
	 viewBox="0 0 1008 612" style="enable-background:new 0 0 1008 612;" xml:space="preserve">
<style type="text/css">
	.st0{fill:#0A2E57;}
	.st1{fill:#74C69D;}
</style>
<g>
	<path class="st0" d="M214.1,195.2c-17.3-9.5-36.9-14.4-58.2-14.4H70.7c-3.2,0-5.8,2.6-5.8,5.8v210c0,3.2,2.6,5.8,5.8,5.8H155
		c21.5,0,41.3-4.8,58.7-14.4s31.3-22.9,41.3-39.8c10-16.8,15-35.9,15-56.6c0-20.8-5-39.8-14.9-56.6
		C245.2,218.2,231.4,204.8,214.1,195.2 M232.4,292c0,14.3-3.4,27.5-10,39c-6.7,11.6-15.8,20.8-27.3,27.3
		c-11.5,6.6-24.5,9.9-38.6,9.9h-48.8c-3.2,0-5.8-2.6-5.8-5.8V220.9c0-3.2,2.6-5.8,5.8-5.8h47.6c14.3,0,27.5,3.4,39.2,10
		c11.7,6.7,21,15.9,27.8,27.5C229,264.2,232.4,277.4,232.4,292"/>
	<path class="st0" d="M457.1,302.7c8.5-12.4,12.7-27.8,12.7-45.9c0-24.1-7.9-43-23.5-56.2c-15.4-13.1-37.4-19.7-65.3-19.7h-81.8
		c-3.2,0-5.8,2.6-5.8,5.8v210c0,3.2,2.6,5.8,5.8,5.8h25.5c3.2,0,5.8-2.6,5.8-5.8v-55.1c0-3.2,2.6-5.8,5.8-5.8h44.8
		c1.9,0,4.1-0.1,6.6-0.2c2.1-0.1,4.1,0.9,5.2,2.7l38.8,61.5c1.1,1.7,2.9,2.7,4.9,2.7h28.9c4.6,0,7.4-5.2,4.7-9L429,333.6
		c-2-2.9-0.9-6.8,2.1-8.4C442,319.7,450.7,312.2,457.1,302.7 M434.1,257.7c0,14.6-4.3,25.3-13.3,32.6c-9,7.4-22.4,11.2-39.7,11.2
		h-44.8c-3.2,0-5.8-2.6-5.8-5.8v-75c0-3.2,2.6-5.8,5.8-5.8h44.8c17.4,0,30.7,3.7,39.8,10.9C429.8,233.2,434.1,243.5,434.1,257.7"/>
	<path class="st0" d="M517.3,402.4h25.5c3.2,0,5.8-2.6,5.8-5.8v-210c0-3.2-2.6-5.8-5.8-5.8h-25.5c-3.2,0-5.8,2.6-5.8,5.8v210
		C511.5,399.8,514.1,402.4,517.3,402.4"/>
	<path class="st0" d="M597.5,402.4H623c3.2,0,5.8-2.6,5.8-5.8v-210c0-3.2-2.6-5.8-5.8-5.8h-25.5c-3.2,0-5.8,2.6-5.8,5.8v210
		C591.7,399.8,594.3,402.4,597.5,402.4"/>
	<path class="st0" d="M732.1,200.7c-15.2-13.2-36.9-19.9-64.4-19.9h-12.1c-3.2,0-5.8,2.6-5.8,5.8v22.8c0,3.2,2.6,5.8,5.8,5.8
		l10.8-0.1c17.4,0,30.7,3.7,39.8,10.9c8.9,7.1,13.2,17.5,13.2,31.7c0,14.6-4.3,25.3-13.3,32.7s-22.4,11.2-39.7,11.2h-10.9
		c-3.2,0-5.8,2.6-5.8,5.8V330c0,3.2,2.6,5.8,5.8,5.8h12.1c27.3,0,49-7,64.3-20.7c15.4-13.8,23.3-33.5,23.3-58.3
		C755.3,232.9,747.5,214.1,732.1,200.7"/>
	<path class="st0" d="M887.1,291.5c9-7.4,22.4-11.2,39.7-11.2h10.9c3.2,0,5.8-2.6,5.8-5.8v-22.7c0-3.2-2.6-5.8-5.8-5.8h-12.1
		c-27.3,0-49,7-64.3,20.7C845.9,280.5,838,300.2,838,325c0,23.9,7.8,42.7,23.2,56.1c15.2,13.2,36.9,19.9,64.4,19.9h12.1
		c3.2,0,5.8-2.6,5.8-5.8v-22.8c0-3.2-2.6-5.8-5.8-5.8l-10.8,0.1c-17.4,0-30.7-3.7-39.8-10.9c-8.9-7.1-13.2-17.5-13.2-31.7
		C873.8,309.6,878.2,298.9,887.1,291.5"/>
	<path class="st1" d="M748.7,432l24.4,6.1c3.1,0.8,6.1-1.1,6.9-4.2l68.7-275.7c0.8-3.1-1.1-6.1-4.2-6.9l-24.4-6.1
		c-3.1-0.8-6.1,1.1-6.9,4.2l-68.7,275.7C743.8,428.1,745.7,431.2,748.7,432"/>
</g>
</svg>
