<svg xmlns="http://www.w3.org/2000/svg" width="32" height="32" viewBox="0 0 32 32" fill="none">
  <circle cx="16" cy="16" r="16" fill="#0A2E57" />
  <path
    d="M18.1053 11.3684V9.68421H14.7368V11.3684H18.1053ZM9.68421 13.0526V22.3158H23.1579V13.0526H9.68421ZM23.1579 11.3684C24.0926 11.3684 24.8421 12.1179 24.8421 13.0526V22.3158C24.8421 23.2505 24.0926 24 23.1579 24H9.68421C8.74947 24 8 23.2505 8 22.3158L8.00842 13.0526C8.00842 12.1179 8.74947 11.3684 9.68421 11.3684H13.0526V9.68421C13.0526 8.74947 13.8021 8 14.7368 8H18.1053C19.04 8 19.7895 8.74947 19.7895 9.68421V11.3684H23.1579Z"
    fill="#26B67F" />
</svg>