<svg xmlns="http://www.w3.org/2000/svg" width="32" height="32" viewBox="0 0 32 32" fill="none">
  <circle cx="16" cy="16" r="16" fill="#0A2E57" />
  <path
    d="M11.6 15.1H13.4V16.9H11.6V15.1ZM24.2 10.6V23.2C24.2 24.19 23.39 25 22.4 25H9.8C8.801 25 8 24.19 8 23.2L8.009 10.6C8.009 9.61 8.801 8.8 9.8 8.8H10.7V7H12.5V8.8H19.7V7H21.5V8.8H22.4C23.39 8.8 24.2 9.61 24.2 10.6ZM9.8 12.4H22.4V10.6H9.8V12.4ZM22.4 23.2V14.2H9.8V23.2H22.4ZM18.8 16.9H20.6V15.1H18.8V16.9ZM15.2 16.9H17V15.1H15.2V16.9Z"
    fill="#26B67F" />
</svg>