<svg xmlns="http://www.w3.org/2000/svg" width="32" height="32" viewBox="0 0 32 32" fill="none">
  <circle cx="16" cy="16" r="16" fill="#0A2E57" />
  <path
    d="M21.184 18.9358C21.184 19.9626 20.8246 20.8353 20.1059 21.554C19.3872 22.2599 18.431 22.7027 17.2374 22.8824V25H15.2738V22.9209C14.4139 22.8567 13.6182 22.6898 12.8866 22.4203C12.1679 22.1508 11.539 21.7914 11 21.3422L11.8278 19.5519C12.4824 20.0396 13.1433 20.3989 13.8107 20.6299C14.4909 20.861 15.2225 20.9765 16.0053 20.9765C16.8781 20.9765 17.5455 20.8096 18.0075 20.4759C18.4824 20.1422 18.7198 19.661 18.7198 19.0321C18.7198 18.6599 18.5914 18.3583 18.3348 18.1273C18.0781 17.8963 17.7572 17.7166 17.3722 17.5882C17 17.4471 16.4674 17.2866 15.7743 17.107C14.7989 16.8631 14.0096 16.6193 13.4064 16.3754C12.8032 16.1187 12.2834 15.7337 11.8471 15.2203C11.4107 14.6941 11.1925 13.9947 11.1925 13.1219C11.1925 12.0952 11.5647 11.216 12.3091 10.4845C13.0663 9.75294 14.0417 9.29733 15.2353 9.11765V7H17.1989V9.0984C17.9305 9.18824 18.6235 9.36791 19.2781 9.63743C19.9455 9.90695 20.4973 10.2406 20.9337 10.6385L20.1059 12.4289C18.9123 11.492 17.6353 11.0235 16.2749 11.0235C15.4791 11.0235 14.8439 11.1968 14.369 11.5433C13.907 11.8898 13.6759 12.3711 13.6759 12.9872C13.6759 13.4107 13.8107 13.7572 14.0802 14.0267C14.3497 14.2834 14.6898 14.4888 15.1005 14.6428C15.5241 14.7968 16.0888 14.9572 16.7947 15.1241C17.7316 15.3551 18.4888 15.5925 19.0663 15.8364C19.6567 16.0674 20.1572 16.4332 20.5679 16.9337C20.9786 17.4342 21.184 18.1016 21.184 18.9358Z"
    fill="#26B67F" />
</svg>