<?xml version="1.0" encoding="utf-8"?>
<!-- Generator: Adobe Illustrator 25.1.0, SVG Export Plug-In . SVG Version: 6.00 Build 0)  -->
<svg version="1.1" id="Capa_1" xmlns="http://www.w3.org/2000/svg" xmlns:xlink="http://www.w3.org/1999/xlink" x="0px" y="0px"
	 viewBox="0 0 60 60" style="enable-background:new 0 0 60 60;" xml:space="preserve">
<path d="M53,41.1V29H31V18.9c3.9-0.5,7-3.9,7-7.9c0-4.4-3.6-8-8-8s-8,3.6-8,8c0,4.1,3.1,7.4,7,7.9V29H7v12.1c-3.9,0.5-7,3.9-7,7.9
	c0,4.4,3.6,8,8,8s8-3.6,8-8c0-4.1-3.1-7.4-7-7.9V31h20v10.1c-3.9,0.5-7,3.9-7,7.9c0,4.4,3.6,8,8,8s8-3.6,8-8c0-4.1-3.1-7.4-7-7.9V31
	h20v10.1c-3.9,0.5-7,3.9-7,7.9c0,4.4,3.6,8,8,8s8-3.6,8-8C60,44.9,56.9,41.6,53,41.1z M24,11c0-3.3,2.7-6,6-6s6,2.7,6,6s-2.7,6-6,6
	S24,14.3,24,11z M14,49c0,3.3-2.7,6-6,6s-6-2.7-6-6s2.7-6,6-6S14,45.7,14,49z M36,49c0,3.3-2.7,6-6,6s-6-2.7-6-6s2.7-6,6-6
	S36,45.7,36,49z M52,55c-3.3,0-6-2.7-6-6s2.7-6,6-6s6,2.7,6,6S55.3,55,52,55z"/>
<path d="M29.8,12.9v0.5c0,0.1,0.1,0.1,0.1,0.1h0.2c0.1,0,0.1-0.1,0.1-0.1v-0.5c0.4,0,0.7-0.2,0.9-0.4s0.3-0.5,0.3-0.9
	c0-0.4-0.1-0.7-0.3-0.9s-0.6-0.4-1.1-0.6c-0.2-0.1-0.3-0.2-0.4-0.3c-0.1-0.1-0.1-0.2-0.1-0.3c0-0.1,0-0.3,0.1-0.3
	c0.1-0.1,0.2-0.1,0.3-0.1c0.1,0,0.3,0.1,0.3,0.2c0.1,0.1,0.1,0.2,0.1,0.4c0,0.1,0.1,0.1,0.1,0.1l0.7,0c0.1,0,0.2-0.1,0.1-0.2
	c0-0.3-0.1-0.6-0.3-0.8c-0.2-0.3-0.5-0.4-0.9-0.5V7.7c0-0.1-0.1-0.1-0.1-0.1H30c-0.1,0-0.1,0.1-0.1,0.1v0.5c-0.4,0-0.7,0.2-0.9,0.4
	c-0.2,0.2-0.4,0.5-0.4,0.9c0,0.4,0.1,0.7,0.3,0.9c0.2,0.2,0.6,0.4,1.1,0.6c0.2,0.1,0.3,0.2,0.4,0.3s0.1,0.2,0.1,0.4
	c0,0.1,0,0.3-0.1,0.3s-0.2,0.1-0.3,0.1c-0.2,0-0.3-0.1-0.4-0.2c-0.1-0.1-0.1-0.2-0.2-0.4c0-0.1-0.1-0.1-0.1-0.1l-0.7,0
	c-0.1,0-0.1,0.1-0.1,0.2c0,0.4,0.1,0.7,0.4,0.9C29.1,12.7,29.4,12.8,29.8,12.9z"/>
<path d="M7.8,50.8v0.5c0,0.1,0.1,0.1,0.1,0.1h0.2c0.1,0,0.1-0.1,0.1-0.1v-0.5c0.4,0,0.7-0.2,0.9-0.4c0.2-0.2,0.3-0.5,0.3-0.9
	c0-0.4-0.1-0.7-0.3-0.9C9,48.4,8.7,48.2,8.2,48c-0.2-0.1-0.3-0.2-0.4-0.3c-0.1-0.1-0.1-0.2-0.1-0.3s0-0.3,0.1-0.3
	c0.1-0.1,0.2-0.1,0.3-0.1c0.1,0,0.3,0.1,0.3,0.2c0.1,0.1,0.1,0.2,0.1,0.4c0,0.1,0.1,0.1,0.1,0.1l0.7,0c0.1,0,0.2-0.1,0.1-0.2
	c0-0.3-0.1-0.6-0.3-0.8c-0.2-0.3-0.5-0.4-0.9-0.5v-0.5c0-0.1-0.1-0.1-0.1-0.1H8c-0.1,0-0.1,0.1-0.1,0.1v0.5c-0.4,0-0.7,0.2-0.9,0.4
	c-0.2,0.2-0.4,0.5-0.4,0.9c0,0.4,0.1,0.7,0.3,0.9s0.6,0.4,1.1,0.6c0.2,0.1,0.3,0.2,0.4,0.3c0.1,0.1,0.1,0.2,0.1,0.4
	c0,0.1,0,0.3-0.1,0.3C8.3,49.9,8.2,50,8.1,50c-0.2,0-0.3-0.1-0.4-0.2c-0.1-0.1-0.1-0.2-0.2-0.4c0-0.1-0.1-0.1-0.1-0.1l-0.7,0
	c-0.1,0-0.1,0.1-0.1,0.2c0,0.4,0.1,0.7,0.4,0.9C7.1,50.6,7.4,50.7,7.8,50.8z"/>
<path d="M29.8,50.8v0.5c0,0.1,0.1,0.1,0.1,0.1h0.2c0.1,0,0.1-0.1,0.1-0.1v-0.5c0.4,0,0.7-0.2,0.9-0.4c0.2-0.2,0.3-0.5,0.3-0.9
	c0-0.4-0.1-0.7-0.3-0.9c-0.2-0.2-0.6-0.4-1.1-0.6c-0.2-0.1-0.3-0.2-0.4-0.3c-0.1-0.1-0.1-0.2-0.1-0.3s0-0.3,0.1-0.3
	c0.1-0.1,0.2-0.1,0.3-0.1c0.1,0,0.3,0.1,0.3,0.2c0.1,0.1,0.1,0.2,0.1,0.4c0,0.1,0.1,0.1,0.1,0.1l0.7,0c0.1,0,0.2-0.1,0.1-0.2
	c0-0.3-0.1-0.6-0.3-0.8c-0.2-0.3-0.5-0.4-0.9-0.5v-0.5c0-0.1-0.1-0.1-0.1-0.1H30c-0.1,0-0.1,0.1-0.1,0.1v0.5c-0.4,0-0.7,0.2-0.9,0.4
	c-0.2,0.2-0.4,0.5-0.4,0.9c0,0.4,0.1,0.7,0.3,0.9c0.2,0.2,0.6,0.4,1.1,0.6c0.2,0.1,0.3,0.2,0.4,0.3c0.1,0.1,0.1,0.2,0.1,0.4
	c0,0.1,0,0.3-0.1,0.3c-0.1,0.1-0.2,0.1-0.3,0.1c-0.2,0-0.3-0.1-0.4-0.2c-0.1-0.1-0.1-0.2-0.2-0.4c0-0.1-0.1-0.1-0.1-0.1l-0.7,0
	c-0.1,0-0.1,0.1-0.1,0.2c0,0.4,0.1,0.7,0.4,0.9C29.1,50.6,29.4,50.7,29.8,50.8z"/>
<path d="M51.8,50.8v0.5c0,0.1,0.1,0.1,0.1,0.1h0.2c0.1,0,0.1-0.1,0.1-0.1v-0.5c0.4,0,0.7-0.2,0.9-0.4c0.2-0.2,0.3-0.5,0.3-0.9
	c0-0.4-0.1-0.7-0.3-0.9c-0.2-0.2-0.6-0.4-1.1-0.6c-0.2-0.1-0.3-0.2-0.4-0.3c-0.1-0.1-0.1-0.2-0.1-0.3s0-0.3,0.1-0.3
	c0.1-0.1,0.2-0.1,0.3-0.1c0.1,0,0.3,0.1,0.3,0.2c0.1,0.1,0.1,0.2,0.1,0.4c0,0.1,0.1,0.1,0.1,0.1l0.7,0c0.1,0,0.2-0.1,0.1-0.2
	c0-0.3-0.1-0.6-0.3-0.8c-0.2-0.3-0.5-0.4-0.9-0.5v-0.5c0-0.1-0.1-0.1-0.1-0.1H52c-0.1,0-0.1,0.1-0.1,0.1v0.5c-0.4,0-0.7,0.2-0.9,0.4
	s-0.4,0.5-0.4,0.9c0,0.4,0.1,0.7,0.3,0.9s0.6,0.4,1.1,0.6c0.2,0.1,0.3,0.2,0.4,0.3c0.1,0.1,0.1,0.2,0.1,0.4c0,0.1,0,0.3-0.1,0.3
	c-0.1,0.1-0.2,0.1-0.3,0.1c-0.2,0-0.3-0.1-0.4-0.2c-0.1-0.1-0.1-0.2-0.2-0.4c0-0.1-0.1-0.1-0.1-0.1l-0.7,0c-0.1,0-0.1,0.1-0.1,0.2
	c0,0.4,0.1,0.7,0.4,0.9C51.1,50.6,51.4,50.7,51.8,50.8z"/>
</svg>
