<?xml version="1.0" encoding="UTF-8"?>
<svg width="316px" height="55px" viewBox="0 0 316 55" version="1.1" xmlns="http://www.w3.org/2000/svg" xmlns:xlink="http://www.w3.org/1999/xlink">
    <!-- Generator: Sketch 49 (51002) - http://www.bohemiancoding.com/sketch -->
    <title>ic-logo</title>
    <desc>Created with Sketch.</desc>
    <defs></defs>
    <g id="ic-logo" stroke="none" stroke-width="1" fill="none" fill-rule="evenodd">
        <g id="IC_Logo_01" transform="translate(-0.500000, -0.250000)" fill="#333" fill-rule="nonzero">
            <path d="M0.5,7.7 L0.5,0.4 L8.5,0.4 L8.5,7.6 L0.5,7.6 L0.5,7.7 Z M0.8,45.8 L0.8,12.7 L8.3,12.7 L8.3,45.8 L0.8,45.8 Z" id="Shape"></path>
            <path d="M23,45.8 L15.4,45.8 L15.4,12.7 L23,12.7 L23,17.9 C23.5,17.1 24.1,16.3 24.8,15.7 C25.4,15 26.2,14.4 27,13.8 C27.9,13.3 28.8,12.8 29.8,12.5 C30.8,12.2 32,12 33.3,12 C37,12 39.9,13.2 42,15.4 C44,17.7 45.1,20.8 45.1,24.7 L45.1,45.8 L37.5,45.8 L37.5,27.1 C37.5,24.5 36.9,22.5 35.7,21.1 C34.5,19.7 32.8,19 30.5,19 C28.3,19 26.5,19.7 25.2,21.2 C23.8,22.6 23.1,24.7 23.1,27.2 L23.1,45.8 L23,45.8 Z" id="Shape"></path>
            <path d="M50.9,7.7 L50.9,0.4 L58.9,0.4 L58.9,7.6 L50.9,7.6 L50.9,7.7 Z M51.2,45.8 L51.2,12.7 L58.7,12.7 L58.7,45.8 L51.2,45.8 Z" id="Shape"></path>
            <path d="M74.7,35.5 C74.7,37 75,38 75.7,38.7 C76.4,39.3 77.4,39.7 78.6,39.7 C80.2,39.7 81.7,39.3 83.2,38.6 L83.2,44.8 C82.3,45.3 81.3,45.8 80.2,46.1 C79.1,46.4 77.9,46.5 76.5,46.5 C75.2,46.5 73.9,46.3 72.7,46 C71.5,45.7 70.5,45.1 69.7,44.4 C68.9,43.6 68.2,42.7 67.8,41.4 C67.3,40.2 67.1,38.6 67.1,36.8 L67.1,19.2 L63,19.2 L63,12.7 L67.1,12.7 L67.1,3.6 L74.6,3.6 L74.6,12.7 L83.3,12.7 L83.3,19.2 L74.6,19.2 L74.6,35.5 L74.7,35.5 Z" id="Shape"></path>
            <path d="M88.4,7.7 L88.4,0.4 L96.4,0.4 L96.4,7.6 L88.4,7.6 L88.4,7.7 Z M88.7,45.8 L88.7,12.7 L96.2,12.7 L96.2,45.8 L88.7,45.8 Z" id="Shape"></path>
            <path d="M123.6,45.8 L123.6,41.7 C122.5,43 121,44.2 119.3,45.1 C117.6,46 115.4,46.5 112.9,46.5 C111.3,46.5 109.8,46.3 108.4,45.8 C107,45.4 105.7,44.7 104.7,43.9 C103.6,43 102.8,42 102.1,40.7 C101.5,39.4 101.1,37.9 101.1,36.3 L101.1,36.2 C101.1,34.4 101.4,32.8 102.1,31.5 C102.8,30.2 103.7,29.1 104.9,28.2 C106.1,27.3 107.5,26.7 109.2,26.2 C110.9,25.8 112.6,25.5 114.6,25.5 C116.6,25.5 118.3,25.6 119.7,25.9 C121.1,26.2 122.5,26.5 123.8,26.9 L123.8,26.1 C123.8,23.8 123.1,22 121.7,20.8 C120.3,19.6 118.3,19 115.6,19 C113.7,19 112,19.2 110.6,19.6 C109.1,20 107.6,20.5 106.1,21.1 L104,15 C105.8,14.2 107.7,13.5 109.7,13 C111.6,12.5 114,12.2 116.7,12.2 C121.6,12.2 125.3,13.4 127.7,15.9 C130.1,18.3 131.3,21.8 131.3,26.2 L131.3,45.8 L123.6,45.8 Z M123.8,31.8 C122.8,31.4 121.7,31.1 120.4,30.9 C119.1,30.6 117.7,30.5 116.2,30.5 C113.8,30.5 111.9,31 110.6,31.9 C109.3,32.8 108.6,34.1 108.6,35.9 L108.6,36 C108.6,37.6 109.2,38.8 110.5,39.6 C111.7,40.4 113.3,40.9 115.1,40.9 C116.4,40.9 117.5,40.7 118.6,40.4 C119.7,40.1 120.6,39.6 121.4,39 C122.2,38.4 122.8,37.7 123.3,36.8 C123.7,35.9 124,35 124,33.9 L124,31.8 L123.8,31.8 Z" id="Shape"></path>
            <polygon id="Shape" points="137.1 45.8 137.1 0.1 144.6 0.1 144.6 45.9 137.1 45.9"></polygon>
            <path d="M151.7,7.7 L151.7,0.4 L159.7,0.4 L159.7,7.6 L151.7,7.6 L151.7,7.7 Z M152,45.8 L152,12.7 L159.5,12.7 L159.5,45.8 L152,45.8 Z" id="Shape"></path>
            <polygon id="Shape" points="165.1 18.9 165.1 12.7 193.2 12.7 193.2 17.9 174.1 39.6 193.2 39.6 193.2 45.8 164.4 45.8 164.4 40.6 183.5 18.9"></polygon>
            <path d="M205.9,38.2 C207.6,39.6 209.7,40.4 212.1,40.4 C214,40.4 215.6,40.1 217,39.4 C218.4,38.7 219.7,37.7 221.1,36.5 L225.5,40.4 C223.9,42.3 222,43.8 219.8,44.9 C217.6,46 215,46.6 212,46.6 C209.6,46.6 207.4,46.2 205.3,45.3 C203.2,44.5 201.4,43.3 199.9,41.8 C198.4,40.3 197.2,38.5 196.3,36.4 C195.4,34.3 195,31.9 195,29.4 C195,27 195.4,24.8 196.2,22.7 C197,20.6 198.1,18.8 199.5,17.2 C200.9,15.6 202.6,14.4 204.6,13.5 C206.6,12.6 208.7,12.1 211.1,12.1 C213.7,12.1 216,12.6 218,13.5 C220,14.5 221.6,15.8 222.9,17.4 C224.2,19 225.2,20.9 225.9,23.1 C226.6,25.3 226.9,27.6 226.9,29.9 C226.9,30.2 226.9,30.6 226.9,30.9 C226.9,31.2 226.8,31.6 226.8,32 L202.6,32 C203.1,34.7 204.1,36.8 205.9,38.2 Z M219.5,27 C219.4,25.8 219.1,24.6 218.7,23.6 C218.3,22.6 217.7,21.6 217,20.8 C216.3,20 215.4,19.4 214.5,19 C213.5,18.5 212.4,18.3 211.2,18.3 C208.9,18.3 206.9,19.1 205.4,20.7 C203.9,22.3 203,24.4 202.6,27 L219.5,27 Z" id="Shape"></path>
            <path d="M256.8,45.8 L256.8,40.3 C255.6,42 254.1,43.5 252.3,44.7 C250.5,45.9 248.2,46.5 245.6,46.5 C243.6,46.5 241.7,46.1 239.9,45.4 C238.1,44.7 236.4,43.5 235,42 C233.6,40.5 232.4,38.7 231.6,36.6 C230.7,34.5 230.3,32 230.3,29.3 C230.3,26.5 230.7,24.1 231.6,22 C232.5,19.9 233.6,18.1 235,16.6 C236.4,15.1 238.1,14 239.9,13.2 C241.8,12.4 243.7,12.1 245.6,12.1 C248.3,12.1 250.6,12.7 252.3,13.9 C254.1,15.1 255.6,16.4 256.8,18 L256.8,0.1 L264.4,0.1 L264.4,45.9 L256.8,45.9 L256.8,45.8 Z M256.1,24.9 C255.6,23.6 254.9,22.5 254,21.5 C253.1,20.6 252.1,19.8 250.9,19.3 C249.7,18.8 248.5,18.5 247.3,18.5 C246,18.5 244.8,18.7 243.6,19.2 C242.5,19.7 241.4,20.4 240.6,21.3 C239.7,22.2 239,23.3 238.5,24.7 C238,26 237.7,27.5 237.7,29.2 C237.7,30.8 238,32.3 238.5,33.6 C239,34.9 239.7,36 240.6,37 C241.5,37.9 242.5,38.6 243.6,39.1 C244.7,39.6 246,39.9 247.3,39.9 C248.5,39.9 249.8,39.7 250.9,39.1 C252.1,38.6 253.1,37.9 254,36.9 C254.9,36 255.6,34.8 256.1,33.5 C256.6,32.2 256.9,30.7 256.9,29.1 C256.9,27.6 256.7,26.2 256.1,24.9 Z" id="Shape"></path>
            <path d="M280.9,13.8 C278.3,17.9 276.9,22.6 276.9,27.8 C276.9,33.1 278.2,37.7 280.9,41.8 C283.5,45.9 287.3,49.5 292.3,52.5 L291,54.6 C285.5,51.5 281.2,47.6 278.2,43.1 C275.2,38.6 273.7,33.5 273.7,27.7 C273.7,22 275.2,16.9 278.2,12.3 C281.2,7.8 285.5,4 291,0.8 L292.3,2.9 C287.4,6.1 283.6,9.7 280.9,13.8 Z" id="Shape"></path>
            <path d="M298.6,1 C304.1,4.1 308.4,8 311.4,12.5 C314.4,17 315.9,22.1 315.9,27.9 C315.9,33.6 314.4,38.7 311.4,43.3 C308.4,47.8 304.1,51.6 298.6,54.8 L297.3,52.7 C302.3,49.7 306.1,46.1 308.7,42 C311.3,37.9 312.7,33.2 312.7,28 C312.7,22.7 311.4,18.1 308.7,14 C306,9.9 302.2,6.3 297.3,3.3 L298.6,1 Z" id="Shape"></path>
        </g>
    </g>
</svg>