<svg width="630" height="152" viewBox="0 0 630 152" xmlns="http://www.w3.org/2000/svg" xmlns:sketch="http://www.bohemiancoding.com/sketch/ns"><title>Untitled</title><g sketch:type="MSShapeGroup" fill="#333"><path d="M137.35 16.737c-3.039-10.977-10.586-16.47-22.645-16.47-11.86 0-19.26 5.493-22.201 16.47l-28.082 101.896-35.436-116.746h-28.673l40.288 133.946c3.234 10.393 10.881 15.589 22.937 15.589 12.447 0 20.092-5.15 22.938-15.44l27.936-103.955 28.965 103.955c2.745 10.289 10.34 15.44 22.791 15.44 12.055 0 19.703-5.196 22.938-15.589l40.434-133.946h-28.672l-35.583 116.746-27.935-101.896zM248.654 148.775h29.259v-104.393l-29.259 14.524v89.869zM248.654 41.168l29.259-13.653v-26.218h-29.259v39.871zM600.801 67.463v43.521c0 10.979-7.4 16.47-22.201 16.47h-37.934c-8.434 0-14.462-1.076-18.087-3.233-4.609-2.843-6.911-7.551-6.911-14.116v-70.283c0-6.471 2.105-10.977 6.324-13.526 3.625-2.256 10.045-3.383 19.26-3.383h77.929v-21.171h-83.956c-14.703 0-25.977 2.255-33.819 6.761-6.175 3.53-10.39 7.599-12.643 12.206-1.571 3.626-2.354 8.874-2.354 15.733v74.544c0 7.551.489 12.845 1.47 15.883 1.861 5.291 5.588 9.8 11.176 13.523 8.231 5.588 20.29 8.385 36.17 8.385h50.873c13.624 0 24.456-3.286 32.492-9.852 7.45-5.783 11.176-14.358 11.176-25.732v-45.728h-28.965v-.002zM426.564 121.72l-67.49-103.513c-4.018-6.269-7.057-10.24-9.115-11.909-3.726-3.039-9.215-4.557-16.469-4.557-15.879 0-23.818 7.156-23.818 21.464v125.864h27.936v-118.216l68.076 103.657c4.216 6.571 7.156 10.542 8.825 11.912 3.82 3.136 9.21 4.707 16.173 4.707 7.446 0 13.38-2.06 17.79-6.181 4.02-3.626 6.028-8.232 6.028-13.817v-128.067h-27.936v118.656z"/></g></svg>