<svg width="288" height="100" viewBox="0 0 288 100" fill="none" xmlns="http://www.w3.org/2000/svg">
<path d="M0 8C0 3.58172 3.58172 0 8 0H280C284.418 0 288 3.58172 288 8V100H0V8Z" fill="#0A2E57"/>
<path d="M19 20C19 15.5817 22.5817 12 27 12H264.44C268.858 12 272.44 15.5817 272.44 20V100H19V20Z" fill="#0A2E57"/>
<path d="M27 25C27 22.7909 28.7909 21 31 21H263C265.209 21 267 22.7909 267 25V100H27V25Z" fill="url(#paint0_linear_566_1194)"/>
<path opacity="0.8" d="M27 25C27 22.7909 28.7909 21 31 21H263C265.209 21 267 22.7909 267 25V100H27V25Z" fill="white"/>
<mask id="mask0_566_1194" style="mask-type:alpha" maskUnits="userSpaceOnUse" x="27" y="21" width="240" height="79">
<path opacity="0.8" d="M27 25C27 22.7909 28.7909 21 31 21H263C265.209 21 267 22.7909 267 25V100H27V25Z" fill="white"/>
</mask>
<g mask="url(#mask0_566_1194)">
<path d="M382.451 5.23504L236.319 218.716C209.732 257.553 154.208 271.673 112.297 250.257C70.3853 228.835 57.9629 179.988 84.5499 141.151L230.678 -72.3286C257.264 -111.168 312.789 -125.289 354.703 -103.87C396.614 -82.4509 409.037 -33.6045 382.451 5.23504Z" fill="url(#paint1_linear_566_1194)"/>
</g>
<path d="M69 50C69 48.8954 69.8954 48 71 48H90.5038C91.0283 48 91.5318 48.2061 91.9059 48.5738L96.8195 53.4043L101.638 58.2229C102.013 58.5979 102.224 59.1066 102.224 59.6371V89.191C102.224 90.2956 101.328 91.191 100.224 91.191H71C69.8954 91.191 69 90.2956 69 89.191V50Z" fill="#B5D8F0"/>
<rect x="73.2295" y="68.2212" width="25.3354" height="2.11128" rx="1.05564" fill="white"/>
<rect x="73.2295" y="75.0829" width="25.3354" height="2.11128" rx="1.05564" fill="white"/>
<rect x="73.2295" y="81.9446" width="25.3354" height="2.11128" rx="1.05564" fill="white"/>
<path d="M102.247 58.8086L91.5573 58.8086L91.3224 47.9999L96.9617 53.4043L102.247 58.8086Z" fill="#DAECF7"/>
<path d="M42 36C42 34.8954 42.8954 34 44 34H70.8388C71.3633 34 71.8669 34.2061 72.2409 34.5738L78.961 41.1802L85.5554 47.7746C85.9305 48.1496 86.1412 48.6584 86.1412 49.1888V89.3835C86.1412 90.4881 85.2458 91.3835 84.1412 91.3835H44C42.8954 91.3835 42 90.4881 42 89.3835V36Z" fill="#8FC5E8"/>
<rect x="47.6194" y="60.8659" width="33.7156" height="3.74618" rx="1.87309" fill="white"/>
<rect x="47.6194" y="69.607" width="33.7156" height="3.74618" rx="1.87309" fill="white"/>
<rect x="47.6194" y="78.3481" width="33.7156" height="3.74618" rx="1.87309" fill="white"/>
<path d="M86.1719 48.3604H71.9695L71.6573 34L79.1497 41.1802L86.1719 48.3604Z" fill="#DAECF7"/>
<path d="M195.5 27C177.008 27 162 42.008 162 60.5C162 78.992 177.008 94 195.5 94C213.992 94 229 78.992 229 60.5C229 42.008 213.992 27 195.5 27ZM195.5 87.3C180.726 87.3 168.7 75.2735 168.7 60.5C168.7 45.7265 180.726 33.7 195.5 33.7C210.273 33.7 222.3 45.7265 222.3 60.5C222.3 75.2735 210.273 87.3 195.5 87.3ZM210.876 45.693L188.8 67.7695L180.123 59.1265L175.4 63.85L188.8 77.25L215.6 50.45L210.876 45.693Z" fill="#ECF5FB"/>
<defs>
<linearGradient id="paint0_linear_566_1194" x1="274.529" y1="100" x2="22.2402" y2="32.3436" gradientUnits="userSpaceOnUse">
<stop stop-color="#B5D8F0"/>
<stop offset="0.457958" stop-color="#ECF5FB"/>
<stop offset="0.980016" stop-color="#B5D8F0"/>
</linearGradient>
<linearGradient id="paint1_linear_566_1194" x1="115.5" y1="39.5" x2="244.614" y2="94.6162" gradientUnits="userSpaceOnUse">
<stop stop-color="white"/>
<stop offset="0.9965" stop-color="#B5D8F0"/>
</linearGradient>
</defs>
</svg>
