<svg width="288" height="100" viewBox="0 0 288 100" fill="none" xmlns="http://www.w3.org/2000/svg">
<path d="M0 8C0 3.58172 3.58172 0 8 0H280C284.418 0 288 3.58172 288 8V100H0V8Z" fill="#0A2E57"/>
<path d="M19 20C19 15.5817 22.5817 12 27 12H264.44C268.858 12 272.44 15.5817 272.44 20V100H19V20Z" fill="#0A2E57"/>
<path d="M27 25C27 22.7909 28.7909 21 31 21H263C265.209 21 267 22.7909 267 25V100H27V25Z" fill="url(#paint0_linear_569_376)"/>
<path opacity="0.8" d="M27 25C27 22.7909 28.7909 21 31 21H263C265.209 21 267 22.7909 267 25V100H27V25Z" fill="white"/>
<mask id="mask0_569_376" style="mask-type:alpha" maskUnits="userSpaceOnUse" x="27" y="21" width="240" height="79">
<path opacity="0.8" d="M27 25C27 22.7909 28.7909 21 31 21H263C265.209 21 267 22.7909 267 25V100H27V25Z" fill="white"/>
</mask>
<g mask="url(#mask0_569_376)">
<path d="M387.662 195.861L143.849 194.479C99.4926 194.225 59.1551 158.332 53.7494 114.305C48.3472 70.2751 79.9237 34.7893 124.28 35.0428L368.09 36.423C412.449 36.6745 452.786 72.5681 458.192 116.598C463.596 160.627 432.02 196.113 387.662 195.861Z" fill="url(#paint1_linear_569_376)"/>
<path d="M206.743 49.8491H49.3672V52.3671H206.743V49.8491Z" fill="#B5D8F0"/>
<path d="M216.742 59.9211H43V62.4391H216.742V59.9211Z" fill="#B5D8F0"/>
<path d="M206.743 69.9932H49.3672V71.2522H206.743V69.9932Z" fill="#B5D8F0"/>
<path d="M165.825 63.6981C167.563 63.6981 168.973 62.2889 168.973 60.5506C168.973 58.8123 167.563 57.4031 165.825 57.4031C164.087 57.4031 162.677 58.8123 162.677 60.5506C162.677 62.2889 164.087 63.6981 165.825 63.6981Z" fill="#26B67F"/>
<path d="M105.321 53.295C107.059 53.295 108.468 51.8858 108.468 50.1475C108.468 48.4092 107.059 47 105.321 47C103.583 47 102.173 48.4092 102.173 50.1475C102.173 51.8858 103.583 53.295 105.321 53.295Z" fill="#26B67F"/>
<path d="M136.724 74.295C138.462 74.295 139.871 72.8858 139.871 71.1475C139.871 69.4092 138.462 68 136.724 68C134.986 68 133.576 69.4092 133.576 71.1475C133.576 72.8858 134.986 74.295 136.724 74.295Z" fill="#26B67F"/>
<path d="M238.993 32H188.007C184.689 32 182 34.1999 182 36.9135V78.0865C182 80.8001 184.689 83 188.007 83H238.993C242.311 83 245 80.8001 245 78.0865V36.9135C245 34.1999 242.311 32 238.993 32Z" fill="#8FC5E8"/>
<path d="M214.287 36L192.69 50.0282V52.8228L235.884 52.9545V50.0282L214.287 36Z" fill="#DAECF7"/>
<path d="M201.208 52.3937H193.033V53.6953H201.208V52.3937Z" fill="#DAECF7"/>
<path d="M201.208 75.126H193.033V76.4276H201.208V75.126Z" fill="#DAECF7"/>
<path d="M200.084 53.0445H194.156V75.7777H200.084V53.0445Z" fill="#DAECF7"/>
<path d="M218.255 52.3937H210.079V53.6953H218.255V52.3937Z" fill="#DAECF7"/>
<path d="M218.255 75.126H210.079V76.4276H218.255V75.126Z" fill="#DAECF7"/>
<path d="M217.131 53.0445H211.204V75.7777H217.131V53.0445Z" fill="#DAECF7"/>
<path d="M235.884 52.3937H227.708V53.6953H235.884V52.3937Z" fill="#DAECF7"/>
<path d="M235.884 75.126H227.708V76.4276H235.884V75.126Z" fill="#DAECF7"/>
<path d="M234.759 53.0445H228.832V75.7777H234.759V53.0445Z" fill="#DAECF7"/>
<path d="M238.184 75.8431H190.39V78.3346H238.184V75.8431Z" fill="#DAECF7"/>
<path d="M241.574 77.5085H187V80H241.574V77.5085Z" fill="#DAECF7"/>
<path d="M214.167 47.279C216.061 47.279 217.596 45.7436 217.596 43.8496C217.596 41.9557 216.061 40.4203 214.167 40.4203C212.273 40.4203 210.737 41.9557 210.737 43.8496C210.737 45.7436 212.273 47.279 214.167 47.279Z" fill="#8FC5E8"/>
<circle cx="63" cy="61" r="20" fill="#ECF5FB"/>
<path d="M62.979 40C51.387 40 42 49.408 42 61C42 72.592 51.387 82 62.979 82C74.592 82 84 72.592 84 61C84 49.408 74.592 40 62.979 40ZM63 77.8C53.718 77.8 46.2 70.282 46.2 61C46.2 51.718 53.718 44.2 63 44.2C72.282 44.2 79.8 51.718 79.8 61C79.8 70.282 72.282 77.8 63 77.8ZM64.05 50.5H60.9V63.1L71.925 69.715L73.5 67.132L64.05 61.525V50.5Z" fill="#8FC5E8"/>
</g>
<circle cx="240.579" cy="36" r="6" fill="#3FD79A"/>
<circle cx="240.525" cy="36.054" r="4.86487" fill="#26B67F"/>
<g clip-path="url(#clip0_569_376)">
<path d="M239.552 37.4066L238.2 36.0542L237.74 36.5115L239.552 38.3245L243.444 34.4326L242.987 33.9753L239.552 37.4066Z" fill="#ECF5FB"/>
</g>
<defs>
<linearGradient id="paint0_linear_569_376" x1="274.529" y1="100" x2="22.2402" y2="32.3436" gradientUnits="userSpaceOnUse">
<stop stop-color="#B5D8F0"/>
<stop offset="0.457958" stop-color="#ECF5FB"/>
<stop offset="0.980016" stop-color="#B5D8F0"/>
</linearGradient>
<linearGradient id="paint1_linear_569_376" x1="219.979" y1="5.54077" x2="245.113" y2="135.439" gradientUnits="userSpaceOnUse">
<stop stop-color="white"/>
<stop offset="0.9965" stop-color="#B5D8F0"/>
</linearGradient>
<clipPath id="clip0_569_376">
<rect width="7.78378" height="7.78378" fill="white" transform="translate(236.634 32.1623)"/>
</clipPath>
</defs>
</svg>
