<svg width="288" height="100" viewBox="0 0 288 100" fill="none" xmlns="http://www.w3.org/2000/svg">
<path d="M0 8C0 3.58172 3.58172 0 8 0H280C284.418 0 288 3.58172 288 8V100H0V8Z" fill="#0A2E57"/>
<path d="M19 20C19 15.5817 22.5817 12 27 12H264.44C268.858 12 272.44 15.5817 272.44 20V100H19V20Z" fill="#0A2E57"/>
<path d="M27 25C27 22.7909 28.7909 21 31 21H263C265.209 21 267 22.7909 267 25V100H27V25Z" fill="url(#paint0_linear_566_1123)"/>
<path opacity="0.8" d="M27 25C27 22.7909 28.7909 21 31 21H263C265.209 21 267 22.7909 267 25V100H27V25Z" fill="white"/>
<path opacity="0.5" d="M45.1006 64.2036C43.7598 66.232 29.6816 84.488 27 84.488V100H267V68.9365C244.877 39.186 229.458 35.8053 221.413 35.1291C213.369 34.453 203.313 35.8053 183.872 54.7375C164.43 73.6696 155.045 83.1357 136.944 82.4596C118.844 81.7834 112.81 68.9366 102.084 61.4989C91.3575 54.0613 86.6648 48.6522 73.257 47.2999C59.8492 45.9476 46.4413 62.1751 45.1006 64.2036Z" fill="url(#paint1_linear_566_1123)"/>
<path d="M55.8 34H48.6C47.94 34 47.4 34.54 47.4 35.2V42.4C47.4 43.06 47.94 43.6 48.6 43.6H55.8C56.46 43.6 57 43.06 57 42.4V35.2C57 34.54 56.46 34 55.8 34ZM51.282 41.2L49.2 39.1L50.04 38.254L51.282 39.502L54.36 36.4L55.2 37.246L51.282 41.2ZM46.2 36.4H45V44.8C45 45.46 45.54 46 46.2 46H54.6V44.8H46.2V36.4Z" fill="#8FC5E8"/>
<rect x="63" y="39" width="72" height="2" rx="1" fill="#B5D8F0"/>
<path d="M55.8 54H48.6C47.94 54 47.4 54.54 47.4 55.2V62.4C47.4 63.06 47.94 63.6 48.6 63.6H55.8C56.46 63.6 57 63.06 57 62.4V55.2C57 54.54 56.46 54 55.8 54ZM51.282 61.2L49.2 59.1L50.04 58.254L51.282 59.502L54.36 56.4L55.2 57.246L51.282 61.2ZM46.2 56.4H45V64.8C45 65.46 45.54 66 46.2 66H54.6V64.8H46.2V56.4Z" fill="#8FC5E8"/>
<rect x="63" y="59" width="72" height="2" rx="1" fill="#B5D8F0"/>
<path d="M55.8 74H48.6C47.94 74 47.4 74.54 47.4 75.2V82.4C47.4 83.06 47.94 83.6 48.6 83.6H55.8C56.46 83.6 57 83.06 57 82.4V75.2C57 74.54 56.46 74 55.8 74ZM51.282 81.2L49.2 79.1L50.04 78.254L51.282 79.502L54.36 76.4L55.2 77.246L51.282 81.2ZM46.2 76.4H45V84.8C45 85.46 45.54 86 46.2 86H54.6V84.8H46.2V76.4Z" fill="#8FC5E8"/>
<rect x="63" y="79" width="72" height="2" rx="1" fill="#B5D8F0"/>
<path d="M199.818 46.25L189.636 56.5H197.273C197.273 64.9819 190.425 71.875 182 71.875C179.429 71.875 176.985 71.2344 174.873 70.0812L171.156 73.8225C174.287 75.8213 178.004 77 182 77C193.251 77 202.364 67.8263 202.364 56.5H210L199.818 46.25ZM166.727 56.5C166.727 48.0181 173.575 41.125 182 41.125C184.571 41.125 187.015 41.7656 189.127 42.9187L192.844 39.1775C189.713 37.1787 185.996 36 182 36C170.749 36 161.636 45.1737 161.636 56.5H154L164.182 66.75L174.364 56.5H166.727Z" fill="#ECF5FB"/>
<defs>
<linearGradient id="paint0_linear_566_1123" x1="274.529" y1="100" x2="22.2402" y2="32.3436" gradientUnits="userSpaceOnUse">
<stop stop-color="#B5D8F0"/>
<stop offset="0.457958" stop-color="#ECF5FB"/>
<stop offset="0.980016" stop-color="#B5D8F0"/>
</linearGradient>
<linearGradient id="paint1_linear_566_1123" x1="264" y1="100" x2="12" y2="24.5" gradientUnits="userSpaceOnUse">
<stop stop-color="#8FC5E8"/>
<stop offset="0.70421" stop-color="#ECF5FB" stop-opacity="0.7"/>
</linearGradient>
</defs>
</svg>
