<svg width="288" height="100" viewBox="0 0 288 100" fill="none" xmlns="http://www.w3.org/2000/svg">
<path d="M0 8C0 3.58172 3.58172 0 8 0H280C284.418 0 288 3.58172 288 8V100H0V8Z" fill="#0A2E57"/>
<path d="M19 20C19 15.5817 22.5817 12 27 12H264.44C268.858 12 272.44 15.5817 272.44 20V100H19V20Z" fill="#0A2E57"/>
<path d="M29 25C29 22.7909 30.7909 21 33 21H265C267.209 21 269 22.7909 269 25V100H29V25Z" fill="url(#paint0_linear_566_1013)"/>
<path opacity="0.8" d="M29 25C29 22.7909 30.7909 21 33 21H265C267.209 21 269 22.7909 269 25V100H29V25Z" fill="url(#paint1_linear_566_1013)"/>
<path d="M206.465 29C187.421 29 172 44.456 172 63.5C172 82.544 187.421 98 206.465 98C225.544 98 241 82.544 241 63.5C241 44.456 225.544 29 206.465 29ZM230.374 49.7H220.197C219.093 45.3875 217.506 41.2475 215.436 37.418C221.784 39.5915 227.062 44.0075 230.374 49.7ZM206.5 36.038C209.363 40.178 211.606 44.7665 213.09 49.7H199.911C201.394 44.7665 203.637 40.178 206.5 36.038ZM179.797 70.4C179.245 68.192 178.9 65.8805 178.9 63.5C178.9 61.1195 179.245 58.808 179.797 56.6H191.458C191.182 58.877 190.975 61.154 190.975 63.5C190.975 65.846 191.182 68.123 191.458 70.4H179.797ZM182.626 77.3H192.803C193.907 81.6125 195.494 85.7525 197.564 89.582C191.216 87.4085 185.938 83.027 182.626 77.3ZM192.803 49.7H182.626C185.938 43.973 191.216 39.5915 197.564 37.418C195.494 41.2475 193.907 45.3875 192.803 49.7ZM206.5 90.962C203.637 86.822 201.394 82.2335 199.911 77.3H213.09C211.606 82.2335 209.363 86.822 206.5 90.962ZM214.573 70.4H198.427C198.116 68.123 197.875 65.846 197.875 63.5C197.875 61.154 198.116 58.8425 198.427 56.6H214.573C214.884 58.8425 215.125 61.154 215.125 63.5C215.125 65.846 214.884 68.123 214.573 70.4ZM215.436 89.582C217.506 85.7525 219.093 81.6125 220.197 77.3H230.374C227.062 82.9925 221.784 87.4085 215.436 89.582ZM221.542 70.4C221.818 68.123 222.025 65.846 222.025 63.5C222.025 61.154 221.818 58.877 221.542 56.6H233.203C233.755 58.808 234.1 61.1195 234.1 63.5C234.1 65.8805 233.755 68.192 233.203 70.4H221.542Z" fill="#ECF5FB"/>
<path d="M29 25C29 22.7909 30.7909 21 33 21H265C267.209 21 269 22.7909 269 25V33H29V25Z" fill="#8FC5E8"/>
<circle cx="36" cy="27" r="2" fill="white"/>
<circle cx="43" cy="27" r="2" fill="white"/>
<circle cx="50" cy="27" r="2" fill="white"/>
<rect x="48" y="44" width="80" height="4" rx="2" fill="#D5DAE1"/>
<rect x="48" y="53" width="80" height="4" rx="2" fill="#D5DAE1"/>
<rect x="48" y="62" width="80" height="4" rx="2" fill="#D5DAE1"/>
<rect x="48" y="75" width="103" height="15" rx="2" fill="#B5D8F0"/>
<path d="M140.573 93C140.558 93 140.544 92.9988 140.529 92.9964C140.491 92.9902 140.454 92.9755 140.42 92.953C140.386 92.9306 140.357 92.9009 140.334 92.8657L138.506 90.1137C138.498 90.1021 138.488 90.0929 138.476 90.0872C138.464 90.0814 138.451 90.0793 138.438 90.081C138.425 90.0827 138.413 90.0882 138.402 90.0969C138.392 90.1056 138.384 90.1172 138.379 90.1305L137.441 92.5924C137.417 92.6565 137.375 92.7104 137.322 92.7465C137.269 92.7827 137.207 92.7993 137.146 92.7941C137.084 92.7888 137.025 92.7619 136.977 92.7172C136.93 92.6725 136.896 92.6122 136.88 92.5447L135.009 84.4172C134.995 84.353 134.997 84.2854 135.017 84.2229C135.037 84.1603 135.072 84.1058 135.12 84.0662C135.167 84.0266 135.224 84.0037 135.283 84.0004C135.342 83.9971 135.4 84.0137 135.451 84.0479L141.856 88.3796C141.909 88.4156 141.951 88.4693 141.976 88.5333C142 88.5972 142.006 88.6682 141.993 88.7363C141.98 88.8044 141.948 88.8662 141.902 88.9129C141.856 88.9597 141.798 88.9891 141.737 88.9971L139.368 89.3029C139.355 89.3045 139.343 89.31 139.332 89.3186C139.322 89.3273 139.314 89.3389 139.309 89.3523C139.304 89.3656 139.302 89.3802 139.303 89.3947C139.305 89.4091 139.31 89.4229 139.317 89.4345L141.145 92.1863C141.192 92.2573 141.213 92.3464 141.201 92.434C141.19 92.5215 141.148 92.6005 141.085 92.6535L140.75 92.9337C140.699 92.9767 140.637 93 140.573 93Z" fill="black"/>
<defs>
<linearGradient id="paint0_linear_566_1013" x1="276.529" y1="100" x2="24.2402" y2="32.3436" gradientUnits="userSpaceOnUse">
<stop stop-color="#B5D8F0"/>
<stop offset="0.457958" stop-color="#ECF5FB"/>
<stop offset="0.980016" stop-color="#B5D8F0"/>
</linearGradient>
<linearGradient id="paint1_linear_566_1013" x1="276.529" y1="100" x2="24.2402" y2="32.3436" gradientUnits="userSpaceOnUse">
<stop stop-color="white" stop-opacity="0.8"/>
<stop offset="0.457958" stop-color="white"/>
<stop offset="0.980016" stop-color="white" stop-opacity="0.7"/>
</linearGradient>
</defs>
</svg>
