<svg width="24" height="25" viewBox="0 0 24 25" fill="none" xmlns="http://www.w3.org/2000/svg">
<rect y="0.5" width="24" height="24" rx="2" fill="url(#paint0_linear_336_2199)"/>
<g clip-path="url(#clip0_336_2199)">
<path d="M8.99998 15.875H15V17.375H8.99998V15.875ZM8.99998 12.875H15V14.375H8.99998V12.875ZM13.5 5.375H7.49998C6.67498 5.375 5.99998 6.05 5.99998 6.875V18.875C5.99998 19.7 6.66748 20.375 7.49248 20.375H16.5C17.325 20.375 18 19.7 18 18.875V9.875L13.5 5.375ZM16.5 18.875H7.49998V6.875H12.75V10.625H16.5V18.875Z" fill="#26B67F"/>
</g>
<defs>
<linearGradient id="paint0_linear_336_2199" x1="22.65" y1="23.45" x2="-6.6" y2="-5.05" gradientUnits="userSpaceOnUse">
<stop stop-color="#0A2E57"/>
<stop offset="1" stop-color="#1355A1"/>
</linearGradient>
<clipPath id="clip0_336_2199">
<rect width="18" height="18" fill="white" transform="translate(2.99998 3.875)"/>
</clipPath>
</defs>
</svg>
