<svg width="24" height="25" viewBox="0 0 24 25" fill="none" xmlns="http://www.w3.org/2000/svg">
<rect y="0.5" width="24" height="24" rx="2" fill="url(#paint0_linear_336_2192)"/>
<g clip-path="url(#clip0_336_2192)">
<path d="M12 5C7.86 5 4.5 8.36 4.5 12.5C4.5 16.64 7.86 20 12 20C16.14 20 19.5 16.64 19.5 12.5C19.5 8.36 16.14 5 12 5ZM8.3025 17.21C8.625 16.535 10.59 15.875 12 15.875C13.41 15.875 15.3825 16.535 15.6975 17.21C14.6775 18.02 13.395 18.5 12 18.5C10.605 18.5 9.3225 18.02 8.3025 17.21ZM16.77 16.1225C15.6975 14.8175 13.095 14.375 12 14.375C10.905 14.375 8.3025 14.8175 7.23 16.1225C6.465 15.1175 6 13.865 6 12.5C6 9.1925 8.6925 6.5 12 6.5C15.3075 6.5 18 9.1925 18 12.5C18 13.865 17.535 15.1175 16.77 16.1225ZM12 8C10.545 8 9.375 9.17 9.375 10.625C9.375 12.08 10.545 13.25 12 13.25C13.455 13.25 14.625 12.08 14.625 10.625C14.625 9.17 13.455 8 12 8ZM12 11.75C11.3775 11.75 10.875 11.2475 10.875 10.625C10.875 10.0025 11.3775 9.5 12 9.5C12.6225 9.5 13.125 10.0025 13.125 10.625C13.125 11.2475 12.6225 11.75 12 11.75Z" fill="#26B67F"/>
</g>
<defs>
<linearGradient id="paint0_linear_336_2192" x1="22.65" y1="23.45" x2="-6.6" y2="-5.05" gradientUnits="userSpaceOnUse">
<stop stop-color="#0A2E57"/>
<stop offset="1" stop-color="#1355A1"/>
</linearGradient>
<clipPath id="clip0_336_2192">
<rect width="18" height="18" fill="white" transform="translate(3 3.5)"/>
</clipPath>
</defs>
</svg>
