<svg width="370" height="101" viewBox="0 0 370 101" fill="none" xmlns="http://www.w3.org/2000/svg">
<path d="M0 8C0 3.58172 3.58172 0 8 0H362C366.418 0 370 3.58172 370 8V100H0V8Z" fill="#0A2E57"/>
<path d="M24 15.7026C24 11.2844 27.5817 7.70264 32 7.70264H337C341.418 7.70264 345 11.2844 345 15.7026V99.7026H24V15.7026Z" fill="#1355A1"/>
<path d="M36 28.7297C36 24.3115 39.5817 20.7297 44 20.7297H325C329.418 20.7297 333 24.3115 333 28.7297V100.73H36V28.7297Z" fill="white"/>
<circle cx="95" cy="61" r="32" fill="#ECF5FB"/>
<circle cx="95" cy="61" r="20" fill="#B5D8F0"/>
<circle cx="95" cy="61" r="16" fill="white"/>
<path d="M94.8405 70.0023C99.9005 70.0023 104.002 65.9004 104.002 60.8405C104.002 55.7805 99.9005 51.6786 94.8405 51.6786C89.7806 51.6786 85.6786 55.7805 85.6786 60.8405C85.6786 65.9004 89.7806 70.0023 94.8405 70.0023Z" fill="#B5D8F0"/>
<path d="M98.3228 58.5091C98.3228 60.5117 96.834 62.4037 95 62.4037C93.166 62.4037 91.6746 60.5117 91.6746 58.5091C91.6746 56.5065 93.1634 55.1494 95 55.1494C96.8366 55.1494 98.3228 56.5038 98.3228 58.5091Z" fill="#459ED9"/>
<path d="M95 51C89.4849 51 85 55.4848 85 61C85 66.5152 89.4849 71 95 71C100.515 71 105 66.5152 105 61C105 55.4848 100.515 51 95 51ZM100.905 67.3557C100.708 65.39 99.6245 63.6957 98.0777 62.7181C97.2978 63.6324 96.2332 64.2279 95.0606 64.2279C93.888 64.2279 92.7839 63.6113 92.0013 62.6706C90.4124 63.6403 89.2951 65.3557 89.0922 67.3531C87.3874 65.7668 86.3175 63.5059 86.3175 60.9974C86.3175 56.2095 90.2121 52.3149 95 52.3149C99.7879 52.3149 103.682 56.2095 103.682 60.9974C103.682 63.5059 102.613 65.7694 100.905 67.3557Z" fill="#459ED9"/>
<path d="M128.929 58H127L129.143 61L127 64H128.929L131.071 61L128.929 58Z" fill="#26B67F"/>
<path d="M135 58H133.071L135.214 61L133.071 64H135L137.143 61L135 58Z" fill="#26B67F"/>
<path d="M141.071 58H139.143L141.286 61L139.143 64H141.071L143.214 61L141.071 58Z" fill="#26B67F"/>
<path d="M147.143 58H145.214L147.357 61L145.214 64H147.143L149.286 61L147.143 58Z" fill="#26B67F"/>
<path d="M153.214 58H151.286L153.429 61L151.286 64H153.214L155.357 61L153.214 58Z" fill="#26B67F"/>
<path d="M159.286 58H157.357L159.5 61L157.357 64H159.286L161.429 61L159.286 58Z" fill="#26B67F"/>
<path d="M165.357 58H163.429L165.571 61L163.429 64H165.357L167.5 61L165.357 58Z" fill="#26B67F"/>
<path d="M171.429 58H169.5L171.643 61L169.5 64H171.429L173.571 61L171.429 58Z" fill="#26B67F"/>
<path d="M177.5 58H175.571L177.714 61L175.571 64H177.5L179.643 61L177.5 58Z" fill="#26B67F"/>
<path d="M183.571 58H181.643L183.786 61L181.643 64H183.571L185.714 61L183.571 58Z" fill="#26B67F"/>
<path d="M189.643 58H187.714L189.857 61L187.714 64H189.643L191.786 61L189.643 58Z" fill="#26B67F"/>
<path d="M195.714 58H193.786L195.929 61L193.786 64H195.714L197.857 61L195.714 58Z" fill="#26B67F"/>
<path d="M201.786 58H199.857L202 61L199.857 64H201.786L203.929 61L201.786 58Z" fill="#26B67F"/>
<circle cx="169" cy="61" r="12" fill="#1E9263"/>
<circle cx="169" cy="61.0001" r="9.17647" fill="#26B67F"/>
<path d="M169.339 60.2237C167.736 59.8072 167.221 59.3766 167.221 58.706C167.221 57.9366 167.934 57.4002 169.127 57.4002C170.384 57.4002 170.849 58.0002 170.892 58.8825H172.452C172.402 57.6684 171.661 56.5531 170.186 56.1931V54.6472H168.068V56.1719C166.699 56.4684 165.598 57.3578 165.598 58.7202C165.598 60.3507 166.946 61.1625 168.915 61.6355C170.68 62.059 171.033 62.6802 171.033 63.3366C171.033 63.8237 170.687 64.6002 169.127 64.6002C167.673 64.6002 167.101 63.9507 167.024 63.1178H165.471C165.555 64.6637 166.713 65.5319 168.068 65.8213V67.3531H170.186V65.8355C171.562 65.5743 172.656 64.7766 172.656 63.3296C172.656 61.3249 170.941 60.6402 169.339 60.2237Z" fill="white"/>
<path d="M315 39.5195H226.734V90.4282C226.734 92.6373 228.524 94.4282 230.734 94.4282H311C313.209 94.4282 315 92.6373 315 90.4282V39.5195Z" fill="#B5D8F0"/>
<path d="M226.734 29.9093V39.5191H315V29.9093C315 28 313.452 26.4524 311.543 26.4524H230.19C228.281 26.4526 226.734 28.0003 226.734 29.9093Z" fill="#ECF5FB"/>
<path d="M240.074 35.5475C241.204 35.5475 242.12 34.6316 242.12 33.5019C242.12 32.3721 241.204 31.4563 240.074 31.4563C238.944 31.4563 238.029 32.3721 238.029 33.5019C238.029 34.6316 238.944 35.5475 240.074 35.5475Z" fill="white"/>
<path d="M240.074 34.2706C239.427 34.2706 238.902 33.7457 238.902 33.0983V25.1725C238.902 24.5251 239.427 24 240.074 24C240.722 24 241.247 24.5249 241.247 25.1725V33.0981C241.246 33.7455 240.722 34.2706 240.074 34.2706Z" fill="#DAECF7"/>
<path d="M252.548 35.5475C253.678 35.5475 254.594 34.6316 254.594 33.5019C254.594 32.3721 253.678 31.4563 252.548 31.4563C251.418 31.4563 250.503 32.3721 250.503 33.5019C250.503 34.6316 251.418 35.5475 252.548 35.5475Z" fill="white"/>
<path d="M252.548 34.2706C251.901 34.2706 251.376 33.7457 251.376 33.0983V25.1725C251.376 24.5251 251.901 24 252.548 24C253.196 24 253.72 24.5249 253.72 25.1725V33.0981C253.721 33.7455 253.196 34.2706 252.548 34.2706Z" fill="#DAECF7"/>
<path d="M265.022 35.5475C266.152 35.5475 267.068 34.6316 267.068 33.5019C267.068 32.3721 266.152 31.4563 265.022 31.4563C263.893 31.4563 262.977 32.3721 262.977 33.5019C262.977 34.6316 263.893 35.5475 265.022 35.5475Z" fill="white"/>
<path d="M265.022 34.2706C264.375 34.2706 263.85 33.7457 263.85 33.0983V25.1725C263.85 24.5251 264.375 24 265.022 24C265.67 24 266.195 24.5249 266.195 25.1725V33.0981C266.195 33.7455 265.67 34.2706 265.022 34.2706Z" fill="#DAECF7"/>
<path d="M277.496 35.5475C278.626 35.5475 279.542 34.6316 279.542 33.5019C279.542 32.3721 278.626 31.4563 277.496 31.4563C276.366 31.4563 275.451 32.3721 275.451 33.5019C275.451 34.6316 276.366 35.5475 277.496 35.5475Z" fill="white"/>
<path d="M277.496 34.2706C276.849 34.2706 276.324 33.7457 276.324 33.0983V25.1725C276.324 24.5251 276.849 24 277.496 24C278.144 24 278.669 24.5249 278.669 25.1725V33.0981C278.669 33.7455 278.144 34.2706 277.496 34.2706Z" fill="#DAECF7"/>
<path d="M289.97 35.5475C291.1 35.5475 292.016 34.6316 292.016 33.5019C292.016 32.3721 291.1 31.4563 289.97 31.4563C288.841 31.4563 287.925 32.3721 287.925 33.5019C287.925 34.6316 288.841 35.5475 289.97 35.5475Z" fill="white"/>
<path d="M289.97 34.2706C289.323 34.2706 288.798 33.7457 288.798 33.0983V25.1725C288.798 24.5251 289.323 24 289.97 24C290.618 24 291.143 24.5249 291.143 25.1725V33.0981C291.143 33.7455 290.618 34.2706 289.97 34.2706Z" fill="#DAECF7"/>
<path d="M302.444 35.5475C303.574 35.5475 304.49 34.6316 304.49 33.5019C304.49 32.3721 303.574 31.4563 302.444 31.4563C301.315 31.4563 300.399 32.3721 300.399 33.5019C300.399 34.6316 301.315 35.5475 302.444 35.5475Z" fill="white"/>
<path d="M302.444 34.2706C301.797 34.2706 301.272 33.7457 301.272 33.0983V25.1725C301.272 24.5251 301.797 24 302.444 24C303.092 24 303.617 24.5249 303.617 25.1725V33.0981C303.617 33.7455 303.092 34.2706 302.444 34.2706Z" fill="#DAECF7"/>
<path d="M263.016 46.6035H251.437V58.1825H263.016V46.6035Z" fill="#DAECF7"/>
<path d="M278.422 46.6035H266.843V58.1825H278.422V46.6035Z" fill="#ECF5FB"/>
<path d="M293.827 46.6035H282.248V58.1825H293.827V46.6035Z" fill="#DAECF7"/>
<path d="M309.232 46.6035H297.653V58.1825H309.232V46.6035Z" fill="#DAECF7"/>
<path d="M263.016 61.3013H251.437V72.8803H263.016V61.3013Z" fill="#DAECF7"/>
<path d="M278.422 61.3013H266.843V72.8803H278.422V61.3013Z" fill="#DAECF7"/>
<path d="M293.827 61.3013H282.248V72.8803H293.827V61.3013Z" fill="#ECF5FB"/>
<path d="M309.232 61.3013H297.653V72.8803H309.232V61.3013Z" fill="#DAECF7"/>
<path d="M247.611 61.3011H236.032V72.8802H247.611V61.3011Z" fill="#DAECF7"/>
<path d="M263.016 75.9988H251.437V87.5778H263.016V75.9988Z" fill="#ECF5FB"/>
<path d="M278.422 75.9988H266.843V87.5778H278.422V75.9988Z" fill="#DAECF7"/>
<path d="M293.827 75.9988H282.248V87.5778H293.827V75.9988Z" fill="#DAECF7"/>
<path d="M309.232 75.9988H297.653V87.5778H309.232V75.9988Z" fill="#DAECF7"/>
<path d="M247.611 75.9988H236.032V87.5778H247.611V75.9988Z" fill="#DAECF7"/>
<circle cx="236" cy="61" r="31.5" fill="white" stroke="#B5D8F0"/>
<circle cx="235.573" cy="61.4267" r="17.0667" fill="#B5D8F0"/>
<circle cx="235.573" cy="61.4265" r="13.6533" fill="white"/>
<path d="M231.635 56.0408C230.787 55.2946 229.577 54.9158 228.044 54.9158H227.369C227.19 54.9158 227.045 55.0628 227.045 55.2437V56.5327C227.045 56.7136 227.19 56.8606 227.369 56.8606L227.971 56.8549C228.941 56.8549 229.683 57.0641 230.191 57.4712C230.687 57.8726 230.927 58.4605 230.927 59.2633C230.927 60.0887 230.687 60.6937 230.185 61.112C229.683 61.5304 228.936 61.7452 227.971 61.7452H227.363C227.185 61.7452 227.04 61.8922 227.04 62.0731V63.3508C227.04 63.5317 227.185 63.6787 227.363 63.6787H228.038C229.56 63.6787 230.771 63.283 231.624 62.5085C232.483 61.7283 232.923 60.6145 232.923 59.2125C232.929 57.8613 232.494 56.7984 231.635 56.0408Z" fill="#0A2E57"/>
<path d="M240.279 61.1744C240.781 60.756 241.528 60.5412 242.493 60.5412H243.1C243.279 60.5412 243.424 60.3942 243.424 60.2133V58.93C243.424 58.749 243.279 58.6021 243.1 58.6021H242.426C240.903 58.6021 239.693 58.9978 238.84 59.7723C237.981 60.5525 237.541 61.6663 237.541 63.0683C237.541 64.4195 237.976 65.4824 238.834 66.24C239.682 66.9862 240.892 67.365 242.426 67.365H243.1C243.279 67.365 243.424 67.218 243.424 67.0371V65.7481C243.424 65.5672 243.279 65.4202 243.1 65.4202L242.498 65.4259C241.528 65.4259 240.786 65.2167 240.279 64.8096C239.782 64.4082 239.543 63.8203 239.543 63.0175C239.537 62.1977 239.782 61.5928 240.279 61.1744Z" fill="#0A2E57"/>
<path d="M232.56 69.1177L233.921 69.4626C234.094 69.5078 234.261 69.4004 234.306 69.2251L238.137 53.6384C238.182 53.4631 238.076 53.2935 237.903 53.2483L236.542 52.9034C236.369 52.8582 236.202 52.9656 236.157 53.1409L232.326 68.7276C232.287 68.8972 232.393 69.0725 232.56 69.1177Z" fill="#26B67F"/>
</svg>
