<svg width="370" height="101" viewBox="0 0 370 101" fill="none" xmlns="http://www.w3.org/2000/svg">
<path d="M0 8C0 3.58172 3.58172 0 8 0H362C366.418 0 370 3.58172 370 8V100H0V8Z" fill="#0A2E57"/>
<path d="M24 15.7028C24 11.2845 27.5817 7.70276 32 7.70276H337C341.418 7.70276 345 11.2845 345 15.7028V99.7028H24V15.7028Z" fill="#1355A1"/>
<path d="M36 28.7297C36 24.3115 39.5817 20.7297 44 20.7297H325C329.418 20.7297 333 24.3115 333 28.7297V100.73H36V28.7297Z" fill="white"/>
<circle cx="115" cy="60" r="32" fill="#ECF5FB"/>
<circle cx="115" cy="60" r="20" fill="#B5D8F0"/>
<circle cx="115" cy="60" r="16" fill="white"/>
<path d="M110.385 53.6889C109.391 52.8144 107.973 52.3705 106.176 52.3705H105.386C105.176 52.3705 105.006 52.5427 105.006 52.7547V54.2653C105.006 54.4773 105.176 54.6496 105.386 54.6496L106.091 54.6429C107.228 54.6429 108.098 54.8881 108.692 55.3651C109.274 55.8355 109.555 56.5245 109.555 57.4653C109.555 58.4326 109.274 59.1415 108.686 59.6317C108.098 60.122 107.222 60.3738 106.091 60.3738H105.379C105.17 60.3738 105 60.546 105 60.758V62.2553C105 62.4673 105.17 62.6396 105.379 62.6396H106.17C107.954 62.6396 109.372 62.1758 110.372 61.2682C111.378 60.3539 111.894 59.0487 111.894 57.4057C111.901 55.8222 111.391 54.5767 110.385 53.6889Z" fill="#0A2E57"/>
<path d="M120.514 59.7045C121.102 59.2143 121.978 58.9625 123.109 58.9625H123.821C124.03 58.9625 124.2 58.7903 124.2 58.5783V57.0743C124.2 56.8623 124.03 56.6901 123.821 56.6901H123.03C121.246 56.6901 119.828 57.1538 118.828 58.0615C117.822 58.9758 117.305 60.2809 117.305 61.924C117.305 63.5074 117.815 64.753 118.822 65.6407C119.815 66.5153 121.233 66.9592 123.03 66.9592H123.821C124.03 66.9592 124.2 66.7869 124.2 66.5749V65.0643C124.2 64.8523 124.03 64.6801 123.821 64.6801L123.115 64.6867C121.978 64.6867 121.109 64.4416 120.514 63.9646C119.933 63.4942 119.652 62.8051 119.652 61.8644C119.645 60.9037 119.933 60.1948 120.514 59.7045Z" fill="#0A2E57"/>
<path d="M111.469 69.0133L113.064 69.4174C113.266 69.4704 113.463 69.3445 113.515 69.1391L118.004 50.8734C118.057 50.668 117.933 50.4693 117.73 50.4163L116.135 50.0121C115.933 49.9591 115.737 50.085 115.684 50.2904L111.195 68.5561C111.149 68.7549 111.273 68.9603 111.469 69.0133Z" fill="#26B67F"/>
<circle cx="256" cy="60" r="31" stroke="#FCF0D8" stroke-width="2"/>
<circle cx="256" cy="60" r="20" fill="#FAE0B1"/>
<circle cx="256" cy="60" r="16" fill="white"/>
<path d="M255.841 69.0023C260.9 69.0023 265.002 64.9004 265.002 59.8405C265.002 54.7805 260.9 50.6786 255.841 50.6786C250.781 50.6786 246.679 54.7805 246.679 59.8405C246.679 64.9004 250.781 69.0023 255.841 69.0023Z" fill="#FAE0B1"/>
<path d="M259.323 57.5091C259.323 59.5117 257.834 61.4037 256 61.4037C254.166 61.4037 252.675 59.5117 252.675 57.5091C252.675 55.5065 254.163 54.1494 256 54.1494C257.837 54.1494 259.323 55.5038 259.323 57.5091Z" fill="#F2B23D"/>
<path d="M256 50C250.485 50 246 54.4848 246 60C246 65.5152 250.485 70 256 70C261.515 70 266 65.5152 266 60C266 54.4848 261.515 50 256 50ZM261.905 66.3557C261.708 64.39 260.625 62.6957 259.078 61.7181C258.298 62.6324 257.233 63.2279 256.061 63.2279C254.888 63.2279 253.784 62.6113 253.001 61.6706C251.412 62.6403 250.295 64.3557 250.092 66.3531C248.387 64.7668 247.318 62.5059 247.318 59.9974C247.318 55.2095 251.212 51.3149 256 51.3149C260.788 51.3149 264.682 55.2095 264.682 59.9974C264.682 62.5059 263.613 64.7694 261.905 66.3557Z" fill="#F2B23D"/>
<path d="M148.929 59H147L149.143 62L147 65H148.929L151.071 62L148.929 59Z" fill="#26B67F"/>
<path d="M155 59H153.071L155.214 62L153.071 65H155L157.143 62L155 59Z" fill="#26B67F"/>
<path d="M161.071 59H159.143L161.286 62L159.143 65H161.071L163.214 62L161.071 59Z" fill="#26B67F"/>
<path d="M167.143 59H165.214L167.357 62L165.214 65H167.143L169.286 62L167.143 59Z" fill="#26B67F"/>
<path d="M173.214 59H171.286L173.429 62L171.286 65H173.214L175.357 62L173.214 59Z" fill="#26B67F"/>
<path d="M179.286 59H177.357L179.5 62L177.357 65H179.286L181.429 62L179.286 59Z" fill="#26B67F"/>
<path d="M185.357 59H183.429L185.571 62L183.429 65H185.357L187.5 62L185.357 59Z" fill="#26B67F"/>
<path d="M191.429 59H189.5L191.643 62L189.5 65H191.429L193.571 62L191.429 59Z" fill="#26B67F"/>
<path d="M197.5 59H195.571L197.714 62L195.571 65H197.5L199.643 62L197.5 59Z" fill="#26B67F"/>
<path d="M203.571 59H201.643L203.786 62L201.643 65H203.571L205.714 62L203.571 59Z" fill="#26B67F"/>
<path d="M209.643 59H207.714L209.857 62L207.714 65H209.643L211.786 62L209.643 59Z" fill="#26B67F"/>
<path d="M215.714 59H213.786L215.929 62L213.786 65H215.714L217.857 62L215.714 59Z" fill="#26B67F"/>
<path d="M221.786 59H219.857L222 62L219.857 65H221.786L223.929 62L221.786 59Z" fill="#26B67F"/>
<path d="M333 16L325 19.5556V24.8889C325 29.8222 328.413 34.4356 333 35.5556C337.587 34.4356 341 29.8222 341 24.8889V19.5556L333 16Z" fill="#26B67F"/>
<path d="M327.667 26.1512L328.92 24.8978L331.222 27.1912L337.08 21.3334L338.333 22.5956L331.222 29.7067L327.667 26.1512Z" fill="white"/>
<circle cx="186" cy="61" r="12" fill="#1E9263"/>
<circle cx="186" cy="61.0001" r="9.17647" fill="#26B67F"/>
<path d="M186.339 60.2237C184.736 59.8072 184.221 59.3766 184.221 58.706C184.221 57.9366 184.934 57.4002 186.127 57.4002C187.384 57.4002 187.849 58.0002 187.892 58.8825H189.452C189.402 57.6684 188.661 56.5531 187.186 56.1931V54.6472H185.068V56.1719C183.699 56.4684 182.598 57.3578 182.598 58.7202C182.598 60.3507 183.946 61.1625 185.915 61.6355C187.68 62.059 188.033 62.6802 188.033 63.3366C188.033 63.8237 187.687 64.6002 186.127 64.6002C184.673 64.6002 184.101 63.9507 184.024 63.1178H182.471C182.555 64.6637 183.713 65.5319 185.068 65.8213V67.3531H187.186V65.8355C188.562 65.5743 189.656 64.7766 189.656 63.3296C189.656 61.3249 187.941 60.6402 186.339 60.2237Z" fill="white"/>
</svg>
