<svg width="24" height="25" viewBox="0 0 24 25" fill="none" xmlns="http://www.w3.org/2000/svg">
<rect y="0.5" width="24" height="24" rx="2" fill="url(#paint0_linear_336_2207)"/>
<g clip-path="url(#clip0_336_2207)">
<path d="M20.25 9.5C20.25 10.325 19.575 11 18.75 11C18.615 11 18.4875 10.985 18.3675 10.9475L15.6975 13.61C15.735 13.73 15.75 13.865 15.75 14C15.75 14.825 15.075 15.5 14.25 15.5C13.425 15.5 12.75 14.825 12.75 14C12.75 13.865 12.765 13.73 12.8025 13.61L10.89 11.6975C10.77 11.735 10.635 11.75 10.5 11.75C10.365 11.75 10.23 11.735 10.11 11.6975L6.6975 15.1175C6.735 15.2375 6.75 15.365 6.75 15.5C6.75 16.325 6.075 17 5.25 17C4.425 17 3.75 16.325 3.75 15.5C3.75 14.675 4.425 14 5.25 14C5.385 14 5.5125 14.015 5.6325 14.0525L9.0525 10.64C9.015 10.52 9 10.385 9 10.25C9 9.425 9.675 8.75 10.5 8.75C11.325 8.75 12 9.425 12 10.25C12 10.385 11.985 10.52 11.9475 10.64L13.86 12.5525C13.98 12.515 14.115 12.5 14.25 12.5C14.385 12.5 14.52 12.515 14.64 12.5525L17.3025 9.8825C17.265 9.7625 17.25 9.635 17.25 9.5C17.25 8.675 17.925 8 18.75 8C19.575 8 20.25 8.675 20.25 9.5Z" fill="#26B67F"/>
</g>
<defs>
<linearGradient id="paint0_linear_336_2207" x1="22.65" y1="23.45" x2="-6.6" y2="-5.05" gradientUnits="userSpaceOnUse">
<stop stop-color="#0A2E57"/>
<stop offset="1" stop-color="#1355A1"/>
</linearGradient>
<clipPath id="clip0_336_2207">
<rect width="18" height="18" fill="white" transform="translate(3 3.5)"/>
</clipPath>
</defs>
</svg>
