<svg xmlns="http://www.w3.org/2000/svg" viewBox="0 0 228.2 77.19"><defs><style>.cls-1{fill:#fff}</style></defs><g id="Layer_1" data-name="Layer 1"><g id="Layer_1-2" data-name="Layer 1"><path class="cls-1" d="M66.3 53.8a30.82 30.82 0 0 0-15.2-3.7H29a1.54 1.54 0 0 0-1.5 1.5v54.7a1.54 1.54 0 0 0 1.5 1.5h21.9a32.34 32.34 0 0 0 15.3-3.7 28.06 28.06 0 0 0 14.7-25.2 27.92 27.92 0 0 0-14.6-25.1zM71.1 79a20.63 20.63 0 0 1-2.6 10.2 18.62 18.62 0 0 1-7.1 7.1 20.25 20.25 0 0 1-10.1 2.6H38.6a1.54 1.54 0 0 1-1.5-1.5V60.5a1.54 1.54 0 0 1 1.5-1.5H51a20.63 20.63 0 0 1 10.2 2.6 18.46 18.46 0 0 1 7.2 7.2A19.44 19.44 0 0 1 71.1 79zM129.4 81.8a20.59 20.59 0 0 0 3.3-11.9c0-6.3-2.1-11.2-6.1-14.6s-9.7-5.1-17-5.1H88.3a1.54 1.54 0 0 0-1.5 1.5v54.7a1.54 1.54 0 0 0 1.5 1.5h6.6a1.54 1.54 0 0 0 1.5-1.5V91.9a1.54 1.54 0 0 1 1.5-1.5h11.7a10.28 10.28 0 0 0 1.7-.1 1.62 1.62 0 0 1 1.4.7l10.1 16a1.71 1.71 0 0 0 1.3.7h7.5a1.46 1.46 0 0 0 1.2-2.3l-10.7-15.6a1.55 1.55 0 0 1 .6-2.2 17.05 17.05 0 0 0 6.7-5.8zm-6-11.7c0 3.8-1.1 6.6-3.5 8.5s-5.8 2.9-10.4 2.9H97.9a1.54 1.54 0 0 1-1.5-1.5V60.5a1.54 1.54 0 0 1 1.5-1.5h11.7c4.5 0 8 1 10.4 2.8s3.4 4.6 3.4 8.3zM142.9 107.8h6.6a1.54 1.54 0 0 0 1.5-1.5V51.6a1.54 1.54 0 0 0-1.5-1.5h-6.6a1.54 1.54 0 0 0-1.5 1.5v54.7a1.47 1.47 0 0 0 1.5 1.5zM200.2 55.3c-4-3.4-9.6-5.2-16.8-5.2h-3.1a1.54 1.54 0 0 0-1.5 1.5v5.9a1.54 1.54 0 0 0 1.5 1.5h2.8c4.5 0 8 1 10.4 2.8s3.4 4.6 3.4 8.3-1.1 6.6-3.5 8.5-5.8 2.9-10.4 2.9h-2.8a1.54 1.54 0 0 0-1.5 1.5v5.9a1.54 1.54 0 0 0 1.5 1.5h3.1c7.1 0 12.8-1.8 16.7-5.4s6.1-8.7 6.1-15.2c.1-6.2-1.9-11.1-5.9-14.5zM163.4 107.8h6.6a1.54 1.54 0 0 0 1.5-1.5V51.6a1.54 1.54 0 0 0-1.5-1.5h-6.6a1.54 1.54 0 0 0-1.5 1.5v54.7a1.54 1.54 0 0 0 1.5 1.5zM241 79.3c2.4-1.9 5.8-2.9 10.4-2.9h2.8a1.54 1.54 0 0 0 1.5-1.5V69a1.54 1.54 0 0 0-1.5-1.5H251c-7.1 0-12.8 1.8-16.7 5.4s-6.1 8.7-6.1 15.2c0 6.2 2 11.1 6 14.6s9.6 5.2 16.8 5.2h3.1a1.54 1.54 0 0 0 1.5-1.5v-5.9a1.54 1.54 0 0 0-1.5-1.5h-2.8c-4.5 0-8-1-10.4-2.8s-3.4-4.6-3.4-8.3c.1-3.9 1.2-6.7 3.5-8.6zM204.6 115.9l6.4 1.6a1.49 1.49 0 0 0 1.8-1.1L231 43.8a1.49 1.49 0 0 0-1.1-1.8l-6.4-1.6a1.49 1.49 0 0 0-1.8 1.1l-18.1 72.6a1.36 1.36 0 0 0 1 1.8z" transform="translate(-27.5 -40.36)"/></g></g></svg>