<svg id="Layer_1" data-name="Layer 1" xmlns="http://www.w3.org/2000/svg" viewBox="0 0 227.12 158.34"><defs><style>.cls-1{fill:#f47a5c;}.cls-2{fill:none;stroke:#322d59;stroke-linecap:round;stroke-miterlimit:10;stroke-width:5px;}.cls-3{fill:#f8a084;}.cls-4{fill:#fff;}.cls-5{fill:#322d59;}.cls-6{fill:#73c69c;}.cls-7{fill:#a6d8c0;}</style></defs><title>Website_LP</title><rect class="cls-1" x="26.67" y="52.58" width="48.11" height="90.1"/><rect class="cls-1" x="155.66" y="52.58" width="48.11" height="90.1"/><line class="cls-2" x1="21.36" y1="63.87" x2="108.69" y2="63.87"/><line class="cls-2" x1="23.45" y1="82.94" x2="110.78" y2="82.94"/><line class="cls-2" x1="121.35" y1="63.87" x2="208.68" y2="63.87"/><line class="cls-2" x1="123.44" y1="81.81" x2="210.77" y2="81.81"/><path class="cls-3" d="M92.82,142.67V111.8H95.1s-.48-10.23,9.44-19.49A13.8,13.8,0,0,1,115,87.84v54.83Z"/><rect class="cls-3" x="74.79" y="29.9" width="80.88" height="112.77"/><path class="cls-4" d="M135.09,111.8c.11,0,.07-.51,0-1.25a23.71,23.71,0,0,0-1-5.3l0-.06-.06-.19-.11-.34-.15-.43-.1-.27-.21-.55-.05-.13A29.14,29.14,0,0,0,124.25,91,13.88,13.88,0,0,0,117,87.92h-.13l-.62,0c-.33,0-.66,0-1,0h0c-.33,0-.66,0-1,0l-.62,0h-.13A13.88,13.88,0,0,0,106.2,91a29.14,29.14,0,0,0-9.05,12.29l-.05.13-.21.55-.1.27-.15.43-.11.34-.06.19,0,.06a23.72,23.72,0,0,0-1,5.3c-.11.74-.14,1.25,0,1.25H93.08v30.88h44.28V111.8Z"/><line class="cls-2" x1="71.56" y1="58.26" x2="158.89" y2="58.26"/><line class="cls-2" x1="73.46" y1="37.1" x2="156.99" y2="37.1"/><line class="cls-2" x1="71.56" y1="76.28" x2="158.89" y2="76.28"/><path class="cls-4" d="M57.88,130.1c0-.65,0-1.29,0-1.93-.13-3.79-.73-7.64-3.49-10.5a6.42,6.42,0,0,0-9,0c-2.76,2.86-3.37,6.71-3.49,10.5,0,.64,0,1.28,0,1.93,0,.1,0,.21,0,.31v12.26H57.88V130.41C57.88,130.31,57.88,130.21,57.88,130.1Z"/><path class="cls-4" d="M189.82,130.1c0-.65,0-1.29,0-1.93-.13-3.79-.73-7.64-3.49-10.5a6.42,6.42,0,0,0-9,0c-2.76,2.86-3.37,6.71-3.49,10.5,0,.64,0,1.28,0,1.93,0,.1,0,.21,0,.31v12.26h16.08V130.41C189.82,130.31,189.82,130.21,189.82,130.1Z"/><path class="cls-5" d="M85,16.44s-.46-5.13-4.38-7.8V7.22H79.14V8.64c-3.92,2.67-4.38,7.8-4.38,7.8h-.56v.94h.56V29.9H85V17.37h.56v-.94Z"/><rect class="cls-6" x="76.7" y="20.61" width="1.89" height="7.14"/><rect class="cls-6" x="81.16" y="20.61" width="1.89" height="7.14"/><path class="cls-5" d="M155.69,16.44s-.46-5.13-4.38-7.8V7.22h-1.46V8.64c-3.92,2.67-4.38,7.8-4.38,7.8h-.56v.94h.56V29.9h10.21V17.37h.56v-.94Z"/><rect class="cls-6" x="147.4" y="20.61" width="1.89" height="7.14"/><rect class="cls-6" x="151.86" y="20.61" width="1.89" height="7.14"/><rect class="cls-7" x="5.28" y="142.67" width="216.56" height="4.8"/></svg>
