<svg xmlns="http://www.w3.org/2000/svg" width="500.5" height="400.5"><g data-name="Component 36 – 1" transform="translate(0 .5)"><path data-name="Path 238" d="M97.814 309.744s181.306-151.316 285.727 0" fill="#f2f2f2"/><ellipse data-name="Ellipse 6" cx="83.973" cy="13.087" rx="83.973" ry="13.087" transform="translate(318.421 373.827)" fill="#f2f2f2"/><ellipse data-name="Ellipse 7" cx="83.973" cy="13.087" rx="83.973" ry="13.087" transform="translate(332.053 368.919)" fill="none" stroke="#3f3d56" stroke-miterlimit="10"/><path data-name="Path 249" d="M474.903 309.001c-8.436.068-19.6 1.384-21.849.015-1.712-1.043-2.394-4.784-2.622-6.51l-.249.01s.473 6.026 2.721 7.4 13.413.053 21.849-.015c2.435-.02 3.276-.886 3.23-2.169-.339.77-1.267 1.258-3.08 1.269z" opacity=".2"/><rect data-name="Rectangle 123" width="32.717" height="86.154" rx="11.851" transform="translate(89.181 223.885)" fill="#6c63ff"/><rect data-name="Rectangle 124" width="32.717" height="137.956" rx="11.851" transform="translate(153.122 172.166)" fill="#6c63ff"/><rect data-name="Rectangle 125" width="32.717" height="173.945" rx="11.851" transform="translate(217.063 136.256)" fill="#6c63ff"/><rect data-name="Rectangle 126" width="32.717" height="208.297" rx="11.851" transform="translate(281.004 102.007)" fill="#6c63ff"/><rect data-name="Rectangle 127" width="32.717" height="268.278" rx="11.851" transform="translate(344.944 42.805)" fill="#6c63ff"/><rect data-name="Rectangle 128" width="32.717" height="86.154" rx="11.851" transform="translate(93.668 219.542)" fill="none" stroke="#3f3d56" stroke-miterlimit="10"/><rect data-name="Rectangle 129" width="32.717" height="137.956" rx="11.851" transform="translate(157.609 167.827)" fill="none" stroke="#3f3d56" stroke-miterlimit="10"/><rect data-name="Rectangle 130" width="32.717" height="173.945" rx="11.851" transform="translate(221.55 131.922)" fill="none" stroke="#3f3d56" stroke-miterlimit="10"/><rect data-name="Rectangle 131" width="32.717" height="208.297" rx="11.851" transform="translate(285.491 97.678)" fill="none" stroke="#3f3d56" stroke-miterlimit="10"/><rect data-name="Rectangle 132" width="32.717" height="268.278" rx="11.851" transform="translate(349.432 38.442)" fill="none" stroke="#3f3d56" stroke-miterlimit="10"/><path data-name="Line 21" fill="none" stroke="#3f3d56" stroke-miterlimit="10" d="M482 309.866H0"/><path data-name="Path 250" d="M452.88 258.053s5.132 18.474-1.368 21.211-4.447-20.526-4.447-20.526z" fill="#a0616a"/><path data-name="Path 251" d="M403.835 375.954s-4.789-.342-6.5.684a4.128 4.128 0 0 1-3.421.342s-7.526-.684-4.789 3.079 5.474 5.132 5.474 6.842 11.289 1.711 11.632 0 .684-10.605 0-10.947a5.4 5.4 0 0 0-2.396 0z" fill="#575a89"/><path data-name="Path 252" d="M419.012 375.954s4.789-.342 6.5.684a4.128 4.128 0 0 0 3.421.342s7.526-.684 4.789 3.079-5.474 5.132-5.474 6.842-11.289 1.711-11.632 0-.684-10.605 0-10.947a5.4 5.4 0 0 1 2.396 0z" fill="#575a89"/><path data-name="Path 253" d="M392.328 253.823s-2.395 54.052-1.026 56.789 6.158 48.921 5.474 51.658-4.105 14.026 0 15.737 13 0 13 0 2.395-13.684 1.368-20.868-1.368-37.289-1.368-37.289l6.842-31.474 2.395 29.763s.684 40.71-4.105 48.921 1.711 11.632 1.711 11.632 13 1.711 14.368 1.368-1.026-13.684 0-19.5 3.421-38.316 5.474-46.184 13.684-51.658 5.131-60.552-49.264-.001-49.264-.001z" fill="#3f3d56"/><circle data-name="Ellipse 8" cx="11.974" cy="11.974" r="11.974" transform="translate(405.328 121.735)" fill="#a0616a"/><path data-name="Path 254" d="M408.407 139.127s2.053 16.421 1.026 16.763 18.132 0 18.132 0-3.763-9.921 0-17.789z" fill="#a0616a"/><path data-name="Path 255" d="M408.407 152.445s8.338-8.211 18.2 0l.638 2.447-5.149-.053h-13.689z" fill="#f2f2f2"/><path data-name="Path 256" d="M449.117 257.266c-.79.157-2.727.479-5.251.862-8.405 1.269-23.3 3.192-23.828 1.875-.684-1.711-3.079-7.868-4.789-5.132s-.684 5.132-7.868 5.474a59.076 59.076 0 0 1-15.928-1.615c-1.847-.53-3-1.149-2.887-1.806.342-2.053 4.105-41.052 4.105-44.816s1.368-21.895 1.368-21.895l-9.833-19.347-.773-1.522s1.026-3.763 4.105-4.447 17.789-9.237 17.789-9.237a10.415 10.415 0 0 1 8.895-4.447c5.816.342 7.184-2.053 15.053 4.447 0 0 9.579 4.105 13 6.158s7.184 2.053 7.526 5.474a10.472 10.472 0 0 1-.944 3.684c-2.343 6.13-8.265 16.979-9.192 18.669l-.127.226s-.178 6.151.01 13.352v.017c.185 6.907.7 14.779 2.042 19.13 2.737 8.896 10.948 34.21 7.527 34.896z" fill="#575a89"/><path data-name="Path 257" d="M432.846 128.813a8.156 8.156 0 0 0-1.353-3.024 16.339 16.339 0 0 0-2.439-7.037 7.383 7.383 0 0 0-2.185-2.522 6.451 6.451 0 0 0-3.438-.857c-.218 0-.611.063-.964.079-.226-.07-.454-.133-.683-.191-.134-.3-.4-1.163-.472-1.1l-1 .793c-.422-.073-.846-.13-1.271-.176l-.465-1.326a9.076 9.076 0 0 0-.658 1.235q-.635-.031-1.272-.022l-.848-.814a1.2 1.2 0 0 1-.935.916c-.39.04-.779.092-1.166.155h-.094c-2.088-.052-4.335-.146-6.081 1a5.992 5.992 0 0 0-1.936 2.2c-.214.145-.428.29-.636.444a6.95 6.95 0 0 0-1.791 1.776 7.529 7.529 0 0 0-.793 1.92 18.406 18.406 0 0 0-.912 6.289 9.333 9.333 0 0 0 2.294 5.825c.9.962 2.034 1.673 2.931 2.634 1.846 1.979 2.193 4.739 3.772 6.833a11.947 11.947 0 0 0 7.4 4.09 12.356 12.356 0 0 0 9.2-2.3 5.7 5.7 0 0 0 1.567-1.643c.929-1.608.535-3.628.88-5.452.649-3.421 3.912-6.291 3.348-9.725z" fill="#3f3d56"/><path data-name="Path 258" d="M384.186 259.075s5.132 18.474-1.368 21.21-4.447-20.526-4.447-20.526z" fill="#a0616a"/><path data-name="Path 259" d="M390.515 217.357s-2.244 33.307-1.9 41.333c-1.847-.53-3-1.149-2.887-1.806.342-2.053 4.105-41.052 4.105-44.816s1.368-21.895 1.368-21.895l-9.833-19.345c.157-.958.253-1.522.253-1.522l4.961 10.434 7.013 1.882z" opacity=".1"/><path data-name="Path 260" d="M382.926 167.244l-2.395 2.053s-3.079 18.132-2.737 22.579-7.184 71.842-1.368 71.842 12.316-1.026 11.289-3.421 1.709-42.948 1.709-42.948l3.081-35.736z" fill="#575a89"/><path data-name="Path 261" d="M448.856 171.088c-2.343 6.13-8.265 16.979-9.192 18.669.027-4.376.044-7.472.044-7.472l7.184-14.711 1.539-1.2s.166 1.813.425 4.714z" opacity=".1"/><path data-name="Path 262" d="M449.117 257.162c-.79.157-2.727.479-5.251.862-1.31-9.688-4.813-37.549-4.591-40.173.109-1.293.2-7.684.274-14.714.185 6.907.7 14.779 2.042 19.13 2.737 8.896 10.947 34.211 7.526 34.895z" opacity=".1"/><path data-name="Path 263" d="M444.67 164.86l5.132 1.368s3.421 37.974 3.763 44.474 4.447 46.526 3.763 48.237-11.289 4.105-11.632 2.395-5.315-40.308-5.052-43.417-1.448-35.267-1.448-35.267z" fill="#575a89"/><path data-name="Path 264" d="M113.005 187.577l62.162-51.8 62.707-35.443 62.162-34.353 62.163-59.983" fill="none" stroke="#3f3d56" stroke-miterlimit="10"/><circle data-name="Ellipse 9" cx="5.998" cy="5.998" r="5.998" transform="translate(102.237 183.613)" fill="#f2f2f2"/><circle data-name="Ellipse 10" cx="5.998" cy="5.998" r="5.998" transform="translate(166.101 132.005)" fill="#f2f2f2"/><circle data-name="Ellipse 11" cx="5.998" cy="5.998" r="5.998" transform="translate(230.524 96.695)" fill="#f2f2f2"/><circle data-name="Ellipse 12" cx="5.998" cy="5.998" r="5.998" transform="translate(294.388 62.708)" fill="#f2f2f2"/><circle data-name="Ellipse 13" cx="5.998" cy="5.998" r="5.998" transform="translate(358.251 2.727)" fill="#f2f2f2"/><circle data-name="Ellipse 14" cx="5.998" cy="5.998" r="5.998" transform="translate(103.918 180.896)" fill="none" stroke="#3f3d56" stroke-miterlimit="10"/><circle data-name="Ellipse 15" cx="5.998" cy="5.998" r="5.998" transform="translate(167.781 129.29)" fill="none" stroke="#3f3d56" stroke-miterlimit="10"/><circle data-name="Ellipse 16" cx="5.998" cy="5.998" r="5.998" transform="translate(232.205 93.979)" fill="none" stroke="#3f3d56" stroke-miterlimit="10"/><circle data-name="Ellipse 17" cx="5.998" cy="5.998" r="5.998" transform="translate(296.068 59.981)" fill="none" stroke="#3f3d56" stroke-miterlimit="10"/><circle data-name="Ellipse 18" cx="5.998" cy="5.998" r="5.998" transform="translate(359.931)" fill="none" stroke="#3f3d56" stroke-miterlimit="10"/></g></svg>