<svg id="Layer_1" data-name="Layer 1" xmlns="http://www.w3.org/2000/svg" xmlns:xlink="http://www.w3.org/1999/xlink" viewBox="0 0 227.12 158.34"><defs><style>.cls-1{fill:none;}.cls-2{fill:#f8a085;}.cls-3{fill:#f04f38;}.cls-4{fill:#74c69c;}.cls-5{fill:#7771ac;}.cls-6{clip-path:url(#clip-path);}.cls-7{fill:#f47b5c;}.cls-8{fill:#322d59;}</style><clipPath id="clip-path"><polygon class="cls-1" points="112.22 49.56 124.01 49.56 134.09 147.79 102.35 147.79 112.22 49.56"/></clipPath></defs><title>mexico.svg</title><rect class="cls-2" x="82.62" y="49.56" width="71.2" height="11.58"/><rect class="cls-3" x="82.62" y="61.14" width="71.2" height="2.57"/><rect class="cls-2" x="73.4" y="63.5" width="89.43" height="11.58"/><rect class="cls-3" x="73.4" y="75.08" width="89.43" height="2.57"/><rect class="cls-2" x="62.46" y="77.66" width="111.31" height="11.58"/><rect class="cls-3" x="62.46" y="89.24" width="111.31" height="2.57"/><rect class="cls-2" x="51.31" y="91.6" width="133.83" height="11.58"/><rect class="cls-3" x="51.31" y="103.18" width="133.83" height="2.57"/><rect class="cls-2" x="42.51" y="105.75" width="151.63" height="11.58"/><rect class="cls-3" x="42.51" y="117.33" width="151.63" height="2.57"/><rect class="cls-2" x="33.72" y="119.69" width="169.21" height="11.58"/><rect class="cls-3" x="33.72" y="131.27" width="169.21" height="2.57"/><rect class="cls-2" x="26" y="133.85" width="184.44" height="11.58"/><rect class="cls-4" x="26" y="145.43" width="184.44" height="2.57"/><path class="cls-2" d="M137.52,9.67H99.13A5.31,5.31,0,0,0,93.77,15V49.56h14.8V37.12a9.65,9.65,0,0,1,19.3,0V49.56h14.8V15A5.27,5.27,0,0,0,137.52,9.67Z"/><polygon class="cls-5" points="102.78 49.56 133.02 49.56 159.18 145.43 77.26 145.43 102.78 49.56"/><g class="cls-6"><rect class="cls-2" x="82.19" y="49.56" width="71.85" height="1.29"/><rect class="cls-7" x="82.19" y="50.63" width="71.85" height="1.29"/><rect class="cls-2" x="82.19" y="51.92" width="71.85" height="1.29"/><rect class="cls-7" x="82.19" y="53.21" width="71.85" height="1.5"/><rect class="cls-2" x="82.19" y="54.71" width="71.85" height="1.72"/><rect class="cls-7" x="82.19" y="56.42" width="71.85" height="1.5"/><rect class="cls-2" x="82.19" y="57.92" width="71.85" height="1.5"/><rect class="cls-7" x="82.19" y="59.43" width="71.85" height="1.72"/><rect class="cls-2" x="82.19" y="60.93" width="71.85" height="1.93"/><rect class="cls-7" x="82.19" y="62.86" width="71.85" height="2.14"/><rect class="cls-2" x="82.19" y="65" width="71.85" height="2.14"/><rect class="cls-7" x="82.19" y="67.15" width="71.85" height="1.93"/><rect class="cls-2" x="82.19" y="68.86" width="71.85" height="2.36"/><rect class="cls-7" x="82.19" y="71.22" width="71.85" height="2.36"/><rect class="cls-2" x="82.19" y="73.58" width="71.85" height="2.57"/><rect class="cls-7" x="82.19" y="87.31" width="71.85" height="3.86"/><rect class="cls-2" x="82.19" y="90.95" width="71.85" height="3.86"/><rect class="cls-7" x="82.19" y="95.03" width="71.85" height="3.86"/><rect class="cls-2" x="82.19" y="98.89" width="71.85" height="4.29"/><rect class="cls-7" x="82.19" y="103.39" width="71.85" height="4.72"/><rect class="cls-2" x="82.19" y="107.9" width="71.85" height="5.58"/><rect class="cls-7" x="82.19" y="113.47" width="71.85" height="5.36"/><rect class="cls-2" x="82.19" y="118.83" width="71.85" height="5.79"/><rect class="cls-7" x="82.19" y="124.84" width="71.85" height="7.08"/><rect class="cls-2" x="82.19" y="131.92" width="71.85" height="7.08"/><rect class="cls-7" x="82.19" y="138.99" width="71.85" height="6.22"/><rect class="cls-7" x="82.19" y="75.94" width="71.85" height="2.57"/><rect class="cls-2" x="82.19" y="78.51" width="71.85" height="2.79"/><rect class="cls-7" x="82.19" y="81.3" width="71.85" height="3"/><rect class="cls-2" x="82.19" y="84.3" width="71.85" height="3"/></g><path class="cls-8" d="M143.74,23.61h-51A1.69,1.69,0,0,1,91,21.89V19.11a1.7,1.7,0,0,1,1.72-1.72h51a1.69,1.69,0,0,1,1.72,1.72v3A1.66,1.66,0,0,1,143.74,23.61Z"/></svg>