<svg xmlns="http://www.w3.org/2000/svg" width="439" height="439" version="1"><path d="M414 24a79 79 0 0 0-58-24H82C60 0 40 8 24 24A79 79 0 0 0 0 82v274c0 23 8 42 24 58s36 25 58 25h274c23 0 42-9 58-25s25-35 25-58V82c0-22-9-42-25-58zM259 63h19v85c1 4 2 5 5 5 4 0 8-3 12-9V63h19v106h-19v-11c-8 8-15 12-22 12-6 0-10-2-12-7l-2-16V63zm-72 35c0-11 2-20 6-25 5-7 12-11 22-11 9 0 17 4 22 11 4 5 6 14 6 25v37c0 11-2 19-6 25-5 7-13 10-22 10-10 0-17-3-22-10-4-6-6-14-6-25V98zm-52-71l15 56 15-56h21l-25 85v57h-21v-57c-2-11-7-26-14-45l-6-20-7-20h22zm236 345a40 40 0 0 1-34 31c-26 2-65 4-118 4-52 0-91-2-117-4a40 40 0 0 1-34-31c-4-16-6-41-6-75 0-32 2-57 6-74a39 39 0 0 1 34-31c26-2 65-4 117-4 53 0 92 2 118 4 8 1 15 5 22 10 6 6 10 13 12 21 3 16 5 41 5 74 0 34-2 59-5 75z"/><path d="M86 245h22v120h21V245h23v-20H86zM190 341c-4 6-8 8-12 8-3 0-4-1-4-4v-84h-19v82l1 16c2 5 6 8 12 8 7 0 15-4 22-13v11h19V261h-19v80zM264 259c-7 0-13 4-19 12v-46h-19v140h19v-10c6 8 12 12 19 12 8 0 13-4 15-12 2-4 2-11 2-21v-42c0-10 0-17-2-21-2-8-7-12-15-12zm-2 76c0 10-2 14-8 14-3 0-6-1-9-4v-64c3-3 6-5 9-5 6 0 8 5 8 15v44zM333 335a64 64 0 0 1 0 7c-1 5-4 7-8 7-7 0-10-4-10-14v-19h38v-21c0-11-2-20-6-25-5-7-13-11-22-11s-18 4-23 11c-4 5-6 13-6 25v36c0 12 2 20 6 25 6 7 13 11 23 11a26 26 0 0 0 27-23l1-12v-3h-20v6zm-18-44c0-10 3-15 9-15 7 0 10 5 10 15v10h-19v-10zM215 153c6 0 9-5 9-15V94c0-10-3-15-9-15s-9 5-9 15v44c0 10 3 15 9 15z"/></svg>