<svg width="48" height="46" viewBox="0 0 48 46" fill="none" xmlns="http://www.w3.org/2000/svg">
<rect y="0.5" width="48" height="46" rx="4" fill="url(#paint0_linear_150_129)"/>
<path d="M6 19.7523C5.44772 19.7523 5 19.3046 5 18.7523L5 17.1923C5 16.64 5.44772 16.1923 6 16.1923H22.0955C20.5477 17.3531 19.9785 19.7523 19.9785 19.7523L6 19.7523ZM16.0932 33.9924C15.5409 33.9924 15.0932 33.5447 15.0932 32.9924V31.4323C15.0932 30.8801 15.5409 30.4323 16.0932 30.4323H21.1394C21.5264 31.2837 22.7356 33.399 24.2351 33.9924H16.0932ZM10.0953 26.8723C9.54303 26.8723 9.09531 26.4246 9.09531 25.8723V24.3123C9.09531 23.76 9.54303 23.3123 10.0953 23.3123H19.4368C19.2046 24.7054 19.3594 25.4793 19.7464 26.8723H10.0953Z" fill="#26B67F"/>
<path d="M32.5433 12.5C26.2421 12.5 21.1394 17.614 21.1394 23.9153C21.1394 30.2165 26.2421 35.3306 32.5433 35.3306C38.856 35.3306 43.97 30.2165 43.97 23.9153C43.97 17.614 38.856 12.5 32.5433 12.5ZM32.5547 33.0475C27.5092 33.0475 23.4225 28.9608 23.4225 23.9153C23.4225 18.8697 27.5092 14.7831 32.5547 14.7831C37.6003 14.7831 41.6869 18.8697 41.6869 23.9153C41.6869 28.9608 37.6003 33.0475 32.5547 33.0475ZM33.1255 18.2076H31.4132V25.0568L37.4062 28.6526L38.2624 27.2485L33.1255 24.2007V18.2076Z" fill="#26B67F"/>
<defs>
<linearGradient id="paint0_linear_150_129" x1="45.3" y1="46.4" x2="-13.2" y2="-10.6" gradientUnits="userSpaceOnUse">
<stop stop-color="#0A2E57"/>
<stop offset="1" stop-color="#1355A1"/>
</linearGradient>
</defs>
</svg>
