<svg width="48" height="49" viewBox="0 0 48 49" fill="none" xmlns="http://www.w3.org/2000/svg">
<rect y="0.5" width="48" height="48" rx="4" fill="url(#paint0_linear_565_3105)"/>
<path d="M16.1747 21.8495H19.2621V24.9368H16.1747V21.8495ZM37.7863 14.1311V35.7426C37.7863 37.4407 36.397 38.83 34.6989 38.83H13.0874C11.3739 38.83 10 37.4407 10 35.7426L10.0154 14.1311C10.0154 12.433 11.3739 11.0437 13.0874 11.0437H14.6311V9.5H17.7184V11.0437H30.0679V9.5H33.1553V11.0437H34.6989C36.397 11.0437 37.7863 12.433 37.7863 14.1311ZM13.0874 17.2184H34.6989V14.1311H13.0874V17.2184ZM34.6989 35.7426V18.7621H13.0874V35.7426H34.6989ZM28.5242 24.9368H31.6116V21.8495H28.5242V24.9368ZM22.3495 24.9368H25.4368V21.8495H22.3495V24.9368Z" fill="#26B67F"/>
<path d="M19.2622 28.0242H16.1748V31.1115H19.2622V28.0242Z" fill="#26B67F"/>
<path d="M25.4367 28.0242H22.3494V31.1115H25.4367V28.0242Z" fill="#26B67F"/>
<path d="M31.6115 28.0242H28.5242V31.1115H31.6115V28.0242Z" fill="#26B67F"/>
<defs>
<linearGradient id="paint0_linear_565_3105" x1="45.3" y1="46.4" x2="-13.2" y2="-10.6" gradientUnits="userSpaceOnUse">
<stop stop-color="#0A2E57"/>
<stop offset="1" stop-color="#1355A1"/>
</linearGradient>
</defs>
</svg>
