<svg width="326" height="106" viewBox="0 0 326 106" fill="none" xmlns="http://www.w3.org/2000/svg">
<g filter="url(#filter0_d_336_2301)">
<rect width="302" height="82" rx="8" transform="matrix(1 0 0 -1 12 88)" fill="white"/>
</g>
<path d="M22.904 24.812H20.144V23.54H27.212V24.812H24.452V32H22.904V24.812ZM29.8779 32.096C29.2779 32.096 28.7499 31.972 28.2939 31.724C27.8459 31.476 27.4979 31.12 27.2499 30.656C27.0019 30.192 26.8779 29.652 26.8779 29.036C26.8779 28.42 27.0019 27.884 27.2499 27.428C27.4979 26.964 27.8459 26.608 28.2939 26.36C28.7499 26.112 29.2779 25.988 29.8779 25.988C30.4779 25.988 31.0019 26.112 31.4499 26.36C31.9059 26.608 32.2539 26.964 32.4939 27.428C32.7419 27.884 32.8659 28.42 32.8659 29.036C32.8659 29.652 32.7419 30.192 32.4939 30.656C32.2539 31.12 31.9059 31.476 31.4499 31.724C31.0019 31.972 30.4779 32.096 29.8779 32.096ZM29.8659 30.932C30.3539 30.932 30.7259 30.772 30.9819 30.452C31.2379 30.132 31.3659 29.66 31.3659 29.036C31.3659 28.42 31.2379 27.952 30.9819 27.632C30.7259 27.304 30.3579 27.14 29.8779 27.14C29.3979 27.14 29.0259 27.304 28.7619 27.632C28.5059 27.952 28.3779 28.42 28.3779 29.036C28.3779 29.66 28.5059 30.132 28.7619 30.452C29.0179 30.772 29.3859 30.932 29.8659 30.932ZM37.0691 30.968C37.2451 30.968 37.4291 30.956 37.6211 30.932L37.5491 32.048C37.3091 32.072 37.0891 32.084 36.8891 32.084C36.0651 32.084 35.4571 31.896 35.0651 31.52C34.6731 31.136 34.4771 30.568 34.4771 29.816V27.26H33.3491V26.132H34.4771V24.38H35.9771V26.132H37.5251V27.26H35.9771V29.792C35.9771 30.576 36.3411 30.968 37.0691 30.968ZM41.0188 25.988C41.8428 25.988 42.4548 26.188 42.8548 26.588C43.2548 26.988 43.4548 27.604 43.4548 28.436V32H42.0268V31.1C41.8908 31.412 41.6748 31.656 41.3788 31.832C41.0908 32.008 40.7548 32.096 40.3708 32.096C39.9788 32.096 39.6228 32.016 39.3027 31.856C38.9828 31.696 38.7308 31.476 38.5468 31.196C38.3628 30.916 38.2708 30.604 38.2708 30.26C38.2708 29.828 38.3788 29.488 38.5948 29.24C38.8188 28.992 39.1788 28.812 39.6748 28.7C40.1708 28.588 40.8548 28.532 41.7268 28.532H42.0268V28.256C42.0268 27.856 41.9388 27.568 41.7628 27.392C41.5948 27.216 41.3108 27.128 40.9108 27.128C40.5988 27.128 40.2708 27.184 39.9268 27.296C39.5908 27.4 39.2588 27.548 38.9308 27.74L38.5107 26.708C38.8388 26.5 39.2348 26.328 39.6988 26.192C40.1628 26.056 40.6028 25.988 41.0188 25.988ZM40.6708 31.016C41.0708 31.016 41.3948 30.884 41.6428 30.62C41.8988 30.348 42.0268 30 42.0268 29.576V29.324H41.8108C41.2748 29.324 40.8588 29.348 40.5628 29.396C40.2668 29.444 40.0548 29.528 39.9268 29.648C39.7988 29.768 39.7348 29.932 39.7348 30.14C39.7348 30.396 39.8228 30.608 39.9988 30.776C40.1748 30.936 40.3988 31.016 40.6708 31.016ZM44.9792 23.54H46.4792V32H44.9792V23.54ZM55.2559 32.108C54.4239 32.108 53.6959 31.932 53.0719 31.58C52.4559 31.22 51.9799 30.712 51.6439 30.056C51.3159 29.4 51.1519 28.636 51.1519 27.764C51.1519 26.892 51.3159 26.132 51.6439 25.484C51.9799 24.828 52.4559 24.324 53.0719 23.972C53.6959 23.612 54.4239 23.432 55.2559 23.432C55.8239 23.432 56.3599 23.52 56.8639 23.696C57.3679 23.872 57.7919 24.12 58.1359 24.44L57.6199 25.568C57.2359 25.264 56.8559 25.044 56.4799 24.908C56.1039 24.764 55.7039 24.692 55.2799 24.692C54.4639 24.692 53.8319 24.956 53.3839 25.484C52.9439 26.012 52.7239 26.772 52.7239 27.764C52.7239 28.764 52.9439 29.528 53.3839 30.056C53.8319 30.584 54.4639 30.848 55.2799 30.848C55.7039 30.848 56.1039 30.78 56.4799 30.644C56.8559 30.5 57.2359 30.276 57.6199 29.972L58.1359 31.1C57.7919 31.42 57.3679 31.668 56.8639 31.844C56.3599 32.02 55.8239 32.108 55.2559 32.108ZM63.2807 27.236L62.4047 27.32C61.4127 27.424 60.9167 27.928 60.9167 28.832V32H59.4167V26.132H60.8447V27.164C61.1487 26.46 61.7767 26.076 62.7287 26.012L63.1847 25.976L63.2807 27.236ZM69.0413 29.336H65.0453C65.0933 29.88 65.2573 30.284 65.5373 30.548C65.8173 30.812 66.2173 30.944 66.7373 30.944C67.3853 30.944 67.9773 30.736 68.5133 30.32L68.9453 31.352C68.6733 31.576 68.3293 31.756 67.9133 31.892C67.5053 32.028 67.0933 32.096 66.6773 32.096C65.7173 32.096 64.9573 31.824 64.3973 31.28C63.8453 30.736 63.5693 29.992 63.5693 29.048C63.5693 28.448 63.6893 27.916 63.9293 27.452C64.1693 26.988 64.5053 26.628 64.9373 26.372C65.3773 26.116 65.8733 25.988 66.4253 25.988C67.2333 25.988 67.8693 26.248 68.3333 26.768C68.8053 27.288 69.0413 28.004 69.0413 28.916V29.336ZM66.4613 27.044C66.0613 27.044 65.7373 27.172 65.4893 27.428C65.2493 27.684 65.1013 28.052 65.0453 28.532H67.7573C67.7413 28.044 67.6213 27.676 67.3973 27.428C67.1733 27.172 66.8613 27.044 66.4613 27.044ZM75.9323 23.54V32H74.4443V31.052C74.2683 31.38 74.0123 31.636 73.6763 31.82C73.3483 32.004 72.9723 32.096 72.5483 32.096C72.0443 32.096 71.5923 31.968 71.1923 31.712C70.8003 31.456 70.4923 31.096 70.2683 30.632C70.0523 30.16 69.9443 29.62 69.9443 29.012C69.9443 28.404 70.0523 27.872 70.2683 27.416C70.4923 26.96 70.8003 26.608 71.1923 26.36C71.5843 26.112 72.0363 25.988 72.5483 25.988C72.9723 25.988 73.3483 26.076 73.6763 26.252C74.0043 26.428 74.2563 26.676 74.4323 26.996V23.54H75.9323ZM72.9443 30.932C73.4243 30.932 73.7923 30.768 74.0483 30.44C74.3123 30.112 74.4443 29.644 74.4443 29.036C74.4443 28.428 74.3123 27.964 74.0483 27.644C73.7923 27.316 73.4283 27.152 72.9563 27.152C72.4763 27.152 72.1043 27.312 71.8403 27.632C71.5763 27.952 71.4443 28.412 71.4443 29.012C71.4443 29.62 71.5763 30.092 71.8403 30.428C72.1043 30.764 72.4723 30.932 72.9443 30.932ZM77.4753 26.132H78.9753V32H77.4753V26.132ZM79.0473 23.408V24.884H77.3913V23.408H79.0473ZM83.5222 30.968C83.6982 30.968 83.8822 30.956 84.0742 30.932L84.0022 32.048C83.7622 32.072 83.5422 32.084 83.3422 32.084C82.5182 32.084 81.9102 31.896 81.5182 31.52C81.1262 31.136 80.9302 30.568 80.9302 29.816V27.26H79.8022V26.132H80.9302V24.38H82.4302V26.132H83.9782V27.26H82.4302V29.792C82.4302 30.576 82.7942 30.968 83.5222 30.968ZM86.535 26.132V27.788H84.855V26.132H86.535ZM86.535 30.344V32H84.855V30.344H86.535ZM97.2334 29.6C97.2334 30.24 97.0094 30.784 96.5614 31.232C96.1134 31.672 95.5174 31.948 94.7734 32.06V33.38H93.5494V32.084C93.0134 32.044 92.5174 31.94 92.0614 31.772C91.6134 31.604 91.2214 31.38 90.8854 31.1L91.4014 29.984C91.8094 30.288 92.2214 30.512 92.6374 30.656C93.0614 30.8 93.5174 30.872 94.0054 30.872C94.5494 30.872 94.9654 30.768 95.2534 30.56C95.5494 30.352 95.6974 30.052 95.6974 29.66C95.6974 29.428 95.6174 29.24 95.4574 29.096C95.2974 28.952 95.0974 28.84 94.8574 28.76C94.6254 28.672 94.2934 28.572 93.8614 28.46C93.2534 28.308 92.7614 28.156 92.3854 28.004C92.0094 27.844 91.6854 27.604 91.4134 27.284C91.1414 26.956 91.0054 26.52 91.0054 25.976C91.0054 25.336 91.2374 24.788 91.7014 24.332C92.1734 23.876 92.7814 23.592 93.5254 23.48V22.16H94.7494V23.468C95.2054 23.524 95.6374 23.636 96.0454 23.804C96.4614 23.972 96.8054 24.18 97.0774 24.428L96.5614 25.544C95.8174 24.96 95.0214 24.668 94.1734 24.668C93.6774 24.668 93.2814 24.776 92.9854 24.992C92.6974 25.208 92.5534 25.508 92.5534 25.892C92.5534 26.156 92.6374 26.372 92.8054 26.54C92.9734 26.7 93.1854 26.828 93.4414 26.924C93.7054 27.02 94.0574 27.12 94.4974 27.224C95.0814 27.368 95.5534 27.516 95.9134 27.668C96.2814 27.812 96.5934 28.04 96.8494 28.352C97.1054 28.664 97.2334 29.08 97.2334 29.6ZM102.545 27.656C103.041 27.784 103.421 28.028 103.685 28.388C103.957 28.74 104.093 29.18 104.093 29.708C104.093 30.444 103.821 31.028 103.277 31.46C102.741 31.884 102.009 32.096 101.081 32.096C100.513 32.096 99.9647 32.008 99.4367 31.832C98.9167 31.656 98.4847 31.416 98.1407 31.112L98.6567 29.984C99.3927 30.568 100.181 30.86 101.021 30.86C101.557 30.86 101.957 30.756 102.221 30.548C102.485 30.332 102.617 30.008 102.617 29.576C102.617 29.152 102.481 28.84 102.209 28.64C101.945 28.432 101.533 28.328 100.973 28.328H99.8567V27.104H100.769C101.865 27.104 102.413 26.692 102.413 25.868C102.413 25.484 102.293 25.188 102.053 24.98C101.821 24.772 101.489 24.668 101.057 24.668C100.681 24.668 100.297 24.744 99.9047 24.896C99.5207 25.04 99.1447 25.256 98.7767 25.544L98.2607 24.416C98.5967 24.112 99.0247 23.872 99.5447 23.696C100.073 23.52 100.609 23.432 101.153 23.432C101.985 23.432 102.649 23.636 103.145 24.044C103.641 24.444 103.889 24.988 103.889 25.676C103.881 26.148 103.757 26.56 103.517 26.912C103.285 27.256 102.961 27.504 102.545 27.656ZM107.16 30.344V31.436C107.16 31.852 107.088 32.228 106.944 32.564C106.8 32.908 106.556 33.252 106.212 33.596L105.6 33.116C105.976 32.716 106.192 32.344 106.248 32H105.48V30.344H107.16ZM111.409 32.108C110.409 32.108 109.645 31.74 109.117 31.004C108.589 30.26 108.325 29.18 108.325 27.764C108.325 26.364 108.589 25.296 109.117 24.56C109.645 23.824 110.409 23.456 111.409 23.456C112.409 23.456 113.173 23.824 113.701 24.56C114.229 25.296 114.493 26.364 114.493 27.764C114.493 29.172 114.229 30.248 113.701 30.992C113.173 31.736 112.409 32.108 111.409 32.108ZM111.409 30.896C111.953 30.896 112.349 30.648 112.597 30.152C112.845 29.648 112.969 28.852 112.969 27.764C112.969 26.684 112.845 25.9 112.597 25.412C112.349 24.916 111.953 24.668 111.409 24.668C110.865 24.668 110.469 24.916 110.221 25.412C109.973 25.9 109.849 26.684 109.849 27.764C109.849 28.852 109.973 29.648 110.221 30.152C110.469 30.648 110.865 30.896 111.409 30.896ZM118.604 32.108C117.604 32.108 116.84 31.74 116.312 31.004C115.784 30.26 115.52 29.18 115.52 27.764C115.52 26.364 115.784 25.296 116.312 24.56C116.84 23.824 117.604 23.456 118.604 23.456C119.604 23.456 120.368 23.824 120.896 24.56C121.424 25.296 121.688 26.364 121.688 27.764C121.688 29.172 121.424 30.248 120.896 30.992C120.368 31.736 119.604 32.108 118.604 32.108ZM118.604 30.896C119.148 30.896 119.544 30.648 119.792 30.152C120.04 29.648 120.164 28.852 120.164 27.764C120.164 26.684 120.04 25.9 119.792 25.412C119.544 24.916 119.148 24.668 118.604 24.668C118.06 24.668 117.664 24.916 117.416 25.412C117.168 25.9 117.044 26.684 117.044 27.764C117.044 28.852 117.168 29.648 117.416 30.152C117.664 30.648 118.06 30.896 118.604 30.896ZM125.799 32.108C124.799 32.108 124.035 31.74 123.507 31.004C122.979 30.26 122.715 29.18 122.715 27.764C122.715 26.364 122.979 25.296 123.507 24.56C124.035 23.824 124.799 23.456 125.799 23.456C126.799 23.456 127.563 23.824 128.091 24.56C128.619 25.296 128.883 26.364 128.883 27.764C128.883 29.172 128.619 30.248 128.091 30.992C127.563 31.736 126.799 32.108 125.799 32.108ZM125.799 30.896C126.343 30.896 126.739 30.648 126.987 30.152C127.235 29.648 127.359 28.852 127.359 27.764C127.359 26.684 127.235 25.9 126.987 25.412C126.739 24.916 126.343 24.668 125.799 24.668C125.255 24.668 124.859 24.916 124.611 25.412C124.363 25.9 124.239 26.684 124.239 27.764C124.239 28.852 124.363 29.648 124.611 30.152C124.859 30.648 125.255 30.896 125.799 30.896ZM131.723 30.344V31.436C131.723 31.852 131.651 32.228 131.507 32.564C131.363 32.908 131.119 33.252 130.775 33.596L130.163 33.116C130.539 32.716 130.755 32.344 130.811 32H130.043V30.344H131.723ZM135.971 32.108C134.971 32.108 134.207 31.74 133.679 31.004C133.151 30.26 132.887 29.18 132.887 27.764C132.887 26.364 133.151 25.296 133.679 24.56C134.207 23.824 134.971 23.456 135.971 23.456C136.971 23.456 137.735 23.824 138.263 24.56C138.791 25.296 139.055 26.364 139.055 27.764C139.055 29.172 138.791 30.248 138.263 30.992C137.735 31.736 136.971 32.108 135.971 32.108ZM135.971 30.896C136.515 30.896 136.911 30.648 137.159 30.152C137.407 29.648 137.531 28.852 137.531 27.764C137.531 26.684 137.407 25.9 137.159 25.412C136.911 24.916 136.515 24.668 135.971 24.668C135.427 24.668 135.031 24.916 134.783 25.412C134.535 25.9 134.411 26.684 134.411 27.764C134.411 28.852 134.535 29.648 134.783 30.152C135.031 30.648 135.427 30.896 135.971 30.896ZM143.166 32.108C142.166 32.108 141.402 31.74 140.874 31.004C140.346 30.26 140.082 29.18 140.082 27.764C140.082 26.364 140.346 25.296 140.874 24.56C141.402 23.824 142.166 23.456 143.166 23.456C144.166 23.456 144.93 23.824 145.458 24.56C145.986 25.296 146.25 26.364 146.25 27.764C146.25 29.172 145.986 30.248 145.458 30.992C144.93 31.736 144.166 32.108 143.166 32.108ZM143.166 30.896C143.71 30.896 144.106 30.648 144.354 30.152C144.602 29.648 144.726 28.852 144.726 27.764C144.726 26.684 144.602 25.9 144.354 25.412C144.106 24.916 143.71 24.668 143.166 24.668C142.622 24.668 142.226 24.916 141.978 25.412C141.73 25.9 141.606 26.684 141.606 27.764C141.606 28.852 141.73 29.648 141.978 30.152C142.226 30.648 142.622 30.896 143.166 30.896ZM150.362 32.108C149.362 32.108 148.598 31.74 148.07 31.004C147.542 30.26 147.278 29.18 147.278 27.764C147.278 26.364 147.542 25.296 148.07 24.56C148.598 23.824 149.362 23.456 150.362 23.456C151.362 23.456 152.126 23.824 152.654 24.56C153.182 25.296 153.446 26.364 153.446 27.764C153.446 29.172 153.182 30.248 152.654 30.992C152.126 31.736 151.362 32.108 150.362 32.108ZM150.362 30.896C150.906 30.896 151.302 30.648 151.55 30.152C151.798 29.648 151.922 28.852 151.922 27.764C151.922 26.684 151.798 25.9 151.55 25.412C151.302 24.916 150.906 24.668 150.362 24.668C149.818 24.668 149.422 24.916 149.174 25.412C148.926 25.9 148.802 26.684 148.802 27.764C148.802 28.852 148.926 29.648 149.174 30.152C149.422 30.648 149.818 30.896 150.362 30.896Z" fill="#0A2E57"/>
<path d="M23.0232 71.072C22.2498 71.072 21.6632 70.872 21.2632 70.472C20.8632 70.072 20.6632 69.488 20.6632 68.72V65.36H21.6712V68.776C21.6712 69.2613 21.7858 69.6293 22.0152 69.88C22.2445 70.1253 22.5805 70.248 23.0232 70.248C23.4605 70.248 23.7938 70.1227 24.0232 69.872C24.2525 69.6213 24.3672 69.256 24.3672 68.776V65.36H25.3752V68.72C25.3752 69.4827 25.1752 70.0667 24.7752 70.472C24.3752 70.872 23.7912 71.072 23.0232 71.072ZM27.9143 71.064C27.5677 71.064 27.2477 71.0213 26.9543 70.936C26.6663 70.8507 26.421 70.728 26.2183 70.568L26.4983 69.872C26.9143 70.176 27.3917 70.328 27.9303 70.328C28.1597 70.328 28.333 70.2907 28.4503 70.216C28.573 70.1413 28.6343 70.0347 28.6343 69.896C28.6343 69.7787 28.5917 69.688 28.5063 69.624C28.4263 69.56 28.2797 69.5013 28.0663 69.448L27.4263 69.304C27.0637 69.224 26.7943 69.0933 26.6183 68.912C26.4423 68.7307 26.3543 68.496 26.3543 68.208C26.3543 67.968 26.421 67.7573 26.5543 67.576C26.693 67.3893 26.8823 67.2453 27.1223 67.144C27.3677 67.0427 27.6503 66.992 27.9703 66.992C28.2477 66.992 28.5143 67.0347 28.7703 67.12C29.0317 67.2053 29.261 67.3253 29.4583 67.48L29.1783 68.16C28.773 67.8667 28.3677 67.72 27.9623 67.72C27.7437 67.72 27.573 67.76 27.4503 67.84C27.3277 67.92 27.2663 68.032 27.2663 68.176C27.2663 68.2827 27.3037 68.3707 27.3783 68.44C27.4583 68.5093 27.5837 68.5627 27.7543 68.6L28.4183 68.752C28.8077 68.8373 29.093 68.9733 29.2743 69.16C29.4557 69.3413 29.5463 69.5813 29.5463 69.88C29.5463 70.2427 29.3997 70.5307 29.1063 70.744C28.813 70.9573 28.4157 71.064 27.9143 71.064ZM33.7892 69.224H31.1252C31.1572 69.5867 31.2665 69.856 31.4532 70.032C31.6398 70.208 31.9065 70.296 32.2532 70.296C32.6852 70.296 33.0798 70.1573 33.4372 69.88L33.7252 70.568C33.5438 70.7173 33.3145 70.8373 33.0372 70.928C32.7652 71.0187 32.4905 71.064 32.2132 71.064C31.5732 71.064 31.0665 70.8827 30.6932 70.52C30.3252 70.1573 30.1412 69.6613 30.1412 69.032C30.1412 68.632 30.2212 68.2773 30.3812 67.968C30.5412 67.6587 30.7652 67.4187 31.0532 67.248C31.3465 67.0773 31.6772 66.992 32.0452 66.992C32.5838 66.992 33.0078 67.1653 33.3172 67.512C33.6318 67.8587 33.7892 68.336 33.7892 68.944V69.224ZM32.0692 67.696C31.8025 67.696 31.5865 67.7813 31.4212 67.952C31.2612 68.1227 31.1625 68.368 31.1252 68.688H32.9332C32.9225 68.3627 32.8425 68.1173 32.6932 67.952C32.5438 67.7813 32.3358 67.696 32.0692 67.696ZM38.3832 65.36V71H37.3912V70.368C37.2738 70.5867 37.1032 70.7573 36.8792 70.88C36.6605 71.0027 36.4098 71.064 36.1272 71.064C35.7912 71.064 35.4898 70.9787 35.2232 70.808C34.9618 70.6373 34.7565 70.3973 34.6072 70.088C34.4632 69.7733 34.3912 69.4133 34.3912 69.008C34.3912 68.6027 34.4632 68.248 34.6072 67.944C34.7565 67.64 34.9618 67.4053 35.2232 67.24C35.4845 67.0747 35.7858 66.992 36.1272 66.992C36.4098 66.992 36.6605 67.0507 36.8792 67.168C37.0978 67.2853 37.2658 67.4507 37.3832 67.664V65.36H38.3832ZM36.3912 70.288C36.7112 70.288 36.9565 70.1787 37.1272 69.96C37.3032 69.7413 37.3912 69.4293 37.3912 69.024C37.3912 68.6187 37.3032 68.3093 37.1272 68.096C36.9565 67.8773 36.7138 67.768 36.3992 67.768C36.0792 67.768 35.8312 67.8747 35.6552 68.088C35.4792 68.3013 35.3912 68.608 35.3912 69.008C35.3912 69.4133 35.4792 69.728 35.6552 69.952C35.8312 70.176 36.0765 70.288 36.3912 70.288ZM44.2317 71.072C43.6771 71.072 43.1917 70.9547 42.7757 70.72C42.3651 70.48 42.0477 70.1413 41.8237 69.704C41.6051 69.2667 41.4957 68.7573 41.4957 68.176C41.4957 67.5947 41.6051 67.088 41.8237 66.656C42.0477 66.2187 42.3651 65.8827 42.7757 65.648C43.1917 65.408 43.6771 65.288 44.2317 65.288C44.6104 65.288 44.9677 65.3467 45.3037 65.464C45.6397 65.5813 45.9224 65.7467 46.1517 65.96L45.8077 66.712C45.5517 66.5093 45.2984 66.3627 45.0477 66.272C44.7971 66.176 44.5304 66.128 44.2477 66.128C43.7037 66.128 43.2824 66.304 42.9837 66.656C42.6904 67.008 42.5437 67.5147 42.5437 68.176C42.5437 68.8427 42.6904 69.352 42.9837 69.704C43.2824 70.056 43.7037 70.232 44.2477 70.232C44.5304 70.232 44.7971 70.1867 45.0477 70.096C45.2984 70 45.5517 69.8507 45.8077 69.648L46.1517 70.4C45.9224 70.6133 45.6397 70.7787 45.3037 70.896C44.9677 71.0133 44.6104 71.072 44.2317 71.072ZM49.5816 67.824L48.9976 67.88C48.3363 67.9493 48.0056 68.2853 48.0056 68.888V71H47.0056V67.088H47.9576V67.776C48.1603 67.3067 48.5789 67.0507 49.2136 67.008L49.5176 66.984L49.5816 67.824ZM53.422 69.224H50.758C50.79 69.5867 50.8993 69.856 51.086 70.032C51.2726 70.208 51.5393 70.296 51.886 70.296C52.318 70.296 52.7126 70.1573 53.07 69.88L53.358 70.568C53.1766 70.7173 52.9473 70.8373 52.67 70.928C52.398 71.0187 52.1233 71.064 51.846 71.064C51.206 71.064 50.6993 70.8827 50.326 70.52C49.958 70.1573 49.774 69.6613 49.774 69.032C49.774 68.632 49.854 68.2773 50.014 67.968C50.174 67.6587 50.398 67.4187 50.686 67.248C50.9793 67.0773 51.31 66.992 51.678 66.992C52.2166 66.992 52.6406 67.1653 52.95 67.512C53.2646 67.8587 53.422 68.336 53.422 68.944V69.224ZM51.702 67.696C51.4353 67.696 51.2193 67.7813 51.054 67.952C50.894 68.1227 50.7953 68.368 50.758 68.688H52.566C52.5553 68.3627 52.4753 68.1173 52.326 67.952C52.1766 67.7813 51.9686 67.696 51.702 67.696ZM58.016 65.36V71H57.024V70.368C56.9066 70.5867 56.736 70.7573 56.512 70.88C56.2933 71.0027 56.0426 71.064 55.76 71.064C55.424 71.064 55.1226 70.9787 54.856 70.808C54.5946 70.6373 54.3893 70.3973 54.24 70.088C54.096 69.7733 54.024 69.4133 54.024 69.008C54.024 68.6027 54.096 68.248 54.24 67.944C54.3893 67.64 54.5946 67.4053 54.856 67.24C55.1173 67.0747 55.4186 66.992 55.76 66.992C56.0426 66.992 56.2933 67.0507 56.512 67.168C56.7306 67.2853 56.8986 67.4507 57.016 67.664V65.36H58.016ZM56.024 70.288C56.344 70.288 56.5893 70.1787 56.76 69.96C56.936 69.7413 57.024 69.4293 57.024 69.024C57.024 68.6187 56.936 68.3093 56.76 68.096C56.5893 67.8773 56.3466 67.768 56.032 67.768C55.712 67.768 55.464 67.8747 55.288 68.088C55.112 68.3013 55.024 68.608 55.024 69.008C55.024 69.4133 55.112 69.728 55.288 69.952C55.464 70.176 55.7093 70.288 56.024 70.288ZM59.0447 67.088H60.0447V71H59.0447V67.088ZM60.0927 65.272V66.256H58.9887V65.272H60.0927ZM63.0759 70.312C63.1932 70.312 63.3159 70.304 63.4439 70.288L63.3959 71.032C63.2359 71.048 63.0892 71.056 62.9559 71.056C62.4066 71.056 62.0012 70.9307 61.7399 70.68C61.4786 70.424 61.3479 70.0453 61.3479 69.544V67.84H60.5959V67.088H61.3479V65.92H62.3479V67.088H63.3799V67.84H62.3479V69.528C62.3479 70.0507 62.5906 70.312 63.0759 70.312ZM65.0845 67.088V68.192H63.9645V67.088H65.0845ZM65.0845 69.896V71H63.9645V69.896H65.0845ZM72.2167 69.4C72.2167 69.8267 72.0674 70.1893 71.7687 70.488C71.4701 70.7813 71.0727 70.9653 70.5767 71.04V71.92H69.7607V71.056C69.4034 71.0293 69.0727 70.96 68.7687 70.848C68.4701 70.736 68.2087 70.5867 67.9847 70.4L68.3287 69.656C68.6007 69.8587 68.8754 70.008 69.1527 70.104C69.4354 70.2 69.7394 70.248 70.0647 70.248C70.4274 70.248 70.7047 70.1787 70.8967 70.04C71.0941 69.9013 71.1927 69.7013 71.1927 69.44C71.1927 69.2853 71.1394 69.16 71.0327 69.064C70.9261 68.968 70.7927 68.8933 70.6327 68.84C70.4781 68.7813 70.2567 68.7147 69.9687 68.64C69.5634 68.5387 69.2354 68.4373 68.9847 68.336C68.7341 68.2293 68.5181 68.0693 68.3367 67.856C68.1554 67.6373 68.0647 67.3467 68.0647 66.984C68.0647 66.5573 68.2194 66.192 68.5287 65.888C68.8434 65.584 69.2487 65.3947 69.7447 65.32V64.44H70.5607V65.312C70.8647 65.3493 71.1527 65.424 71.4247 65.536C71.7021 65.648 71.9314 65.7867 72.1127 65.952L71.7687 66.696C71.2727 66.3067 70.7421 66.112 70.1767 66.112C69.8461 66.112 69.5821 66.184 69.3847 66.328C69.1927 66.472 69.0967 66.672 69.0967 66.928C69.0967 67.104 69.1527 67.248 69.2647 67.36C69.3767 67.4667 69.5181 67.552 69.6887 67.616C69.8647 67.68 70.0994 67.7467 70.3927 67.816C70.7821 67.912 71.0967 68.0107 71.3367 68.112C71.5821 68.208 71.7901 68.36 71.9607 68.568C72.1314 68.776 72.2167 69.0533 72.2167 69.4ZM76.8776 70.168V71H73.3976V70.168H74.6216V66.536L73.6536 67.12L73.2456 66.368L74.9176 65.36H75.6536V70.168H76.8776ZM78.8345 69.896V70.624C78.8345 70.9013 78.7865 71.152 78.6905 71.376C78.5945 71.6053 78.4318 71.8347 78.2025 72.064L77.7945 71.744C78.0451 71.4773 78.1891 71.2293 78.2265 71H77.7145V69.896H78.8345ZM81.9708 67.392C82.3228 67.392 82.6322 67.4693 82.8988 67.624C83.1708 67.7733 83.3788 67.984 83.5228 68.256C83.6722 68.528 83.7468 68.84 83.7468 69.192C83.7468 69.5653 83.6615 69.8933 83.4908 70.176C83.3202 70.4587 83.0775 70.6773 82.7628 70.832C82.4535 70.9867 82.0882 71.064 81.6668 71.064C81.3148 71.064 80.9655 71.0053 80.6188 70.888C80.2775 70.7653 79.9948 70.6053 79.7708 70.408L80.1148 69.656C80.6268 70.0453 81.1495 70.24 81.6828 70.24C82.0348 70.24 82.3042 70.152 82.4908 69.976C82.6775 69.8 82.7708 69.5493 82.7708 69.224C82.7708 68.9093 82.6748 68.6613 82.4828 68.48C82.2962 68.2933 82.0402 68.2 81.7148 68.2C81.4962 68.2 81.2882 68.2427 81.0908 68.328C80.8988 68.408 80.7255 68.5253 80.5708 68.68H79.9548V65.36H83.4908V66.16H80.9628V67.68C81.2348 67.488 81.5708 67.392 81.9708 67.392ZM86.4637 71.072C85.7971 71.072 85.2877 70.8267 84.9357 70.336C84.5837 69.84 84.4077 69.12 84.4077 68.176C84.4077 67.2427 84.5837 66.5307 84.9357 66.04C85.2877 65.5493 85.7971 65.304 86.4637 65.304C87.1304 65.304 87.6397 65.5493 87.9917 66.04C88.3437 66.5307 88.5197 67.2427 88.5197 68.176C88.5197 69.1147 88.3437 69.832 87.9917 70.328C87.6397 70.824 87.1304 71.072 86.4637 71.072ZM86.4637 70.264C86.8264 70.264 87.0904 70.0987 87.2557 69.768C87.4211 69.432 87.5037 68.9013 87.5037 68.176C87.5037 67.456 87.4211 66.9333 87.2557 66.608C87.0904 66.2773 86.8264 66.112 86.4637 66.112C86.1011 66.112 85.8371 66.2773 85.6717 66.608C85.5064 66.9333 85.4237 67.456 85.4237 68.176C85.4237 68.9013 85.5064 69.432 85.6717 69.768C85.8371 70.0987 86.1011 70.264 86.4637 70.264ZM91.2606 71.072C90.5939 71.072 90.0846 70.8267 89.7326 70.336C89.3806 69.84 89.2046 69.12 89.2046 68.176C89.2046 67.2427 89.3806 66.5307 89.7326 66.04C90.0846 65.5493 90.5939 65.304 91.2606 65.304C91.9273 65.304 92.4366 65.5493 92.7886 66.04C93.1406 66.5307 93.3166 67.2427 93.3166 68.176C93.3166 69.1147 93.1406 69.832 92.7886 70.328C92.4366 70.824 91.9273 71.072 91.2606 71.072ZM91.2606 70.264C91.6233 70.264 91.8873 70.0987 92.0526 69.768C92.2179 69.432 92.3006 68.9013 92.3006 68.176C92.3006 67.456 92.2179 66.9333 92.0526 66.608C91.8873 66.2773 91.6233 66.112 91.2606 66.112C90.8979 66.112 90.6339 66.2773 90.4686 66.608C90.3033 66.9333 90.2206 67.456 90.2206 68.176C90.2206 68.9013 90.3033 69.432 90.4686 69.768C90.6339 70.0987 90.8979 70.264 91.2606 70.264ZM95.2095 69.896V70.624C95.2095 70.9013 95.1615 71.152 95.0655 71.376C94.9695 71.6053 94.8068 71.8347 94.5775 72.064L94.1695 71.744C94.4201 71.4773 94.5641 71.2293 94.6015 71H94.0895V69.896H95.2095ZM98.0418 71.072C97.3752 71.072 96.8658 70.8267 96.5138 70.336C96.1618 69.84 95.9858 69.12 95.9858 68.176C95.9858 67.2427 96.1618 66.5307 96.5138 66.04C96.8658 65.5493 97.3752 65.304 98.0418 65.304C98.7085 65.304 99.2178 65.5493 99.5698 66.04C99.9218 66.5307 100.098 67.2427 100.098 68.176C100.098 69.1147 99.9218 69.832 99.5698 70.328C99.2178 70.824 98.7085 71.072 98.0418 71.072ZM98.0418 70.264C98.4045 70.264 98.6685 70.0987 98.8338 69.768C98.9992 69.432 99.0818 68.9013 99.0818 68.176C99.0818 67.456 98.9992 66.9333 98.8338 66.608C98.6685 66.2773 98.4045 66.112 98.0418 66.112C97.6792 66.112 97.4152 66.2773 97.2498 66.608C97.0845 66.9333 97.0018 67.456 97.0018 68.176C97.0018 68.9013 97.0845 69.432 97.2498 69.768C97.4152 70.0987 97.6792 70.264 98.0418 70.264ZM102.839 71.072C102.172 71.072 101.663 70.8267 101.311 70.336C100.959 69.84 100.783 69.12 100.783 68.176C100.783 67.2427 100.959 66.5307 101.311 66.04C101.663 65.5493 102.172 65.304 102.839 65.304C103.505 65.304 104.015 65.5493 104.367 66.04C104.719 66.5307 104.895 67.2427 104.895 68.176C104.895 69.1147 104.719 69.832 104.367 70.328C104.015 70.824 103.505 71.072 102.839 71.072ZM102.839 70.264C103.201 70.264 103.465 70.0987 103.631 69.768C103.796 69.432 103.879 68.9013 103.879 68.176C103.879 67.456 103.796 66.9333 103.631 66.608C103.465 66.2773 103.201 66.112 102.839 66.112C102.476 66.112 102.212 66.2773 102.047 66.608C101.881 66.9333 101.799 67.456 101.799 68.176C101.799 68.9013 101.881 69.432 102.047 69.768C102.212 70.0987 102.476 70.264 102.839 70.264ZM107.636 71.072C106.969 71.072 106.46 70.8267 106.108 70.336C105.756 69.84 105.58 69.12 105.58 68.176C105.58 67.2427 105.756 66.5307 106.108 66.04C106.46 65.5493 106.969 65.304 107.636 65.304C108.302 65.304 108.812 65.5493 109.164 66.04C109.516 66.5307 109.692 67.2427 109.692 68.176C109.692 69.1147 109.516 69.832 109.164 70.328C108.812 70.824 108.302 71.072 107.636 71.072ZM107.636 70.264C107.998 70.264 108.262 70.0987 108.428 69.768C108.593 69.432 108.676 68.9013 108.676 68.176C108.676 67.456 108.593 66.9333 108.428 66.608C108.262 66.2773 107.998 66.112 107.636 66.112C107.273 66.112 107.009 66.2773 106.844 66.608C106.678 66.9333 106.596 67.456 106.596 68.176C106.596 68.9013 106.678 69.432 106.844 69.768C107.009 70.0987 107.273 70.264 107.636 70.264Z" fill="#0A2E57"/>
<path d="M175.352 69.68H172.608L172.04 71H171L173.552 65.36H174.392L176.944 71H175.92L175.352 69.68ZM175.008 68.88L173.976 66.48L172.944 68.88H175.008ZM180.967 67.096L179.255 71H178.383L176.687 67.096H177.743L178.847 69.856L179.983 67.096H180.967ZM183.075 66.992C183.624 66.992 184.032 67.1253 184.299 67.392C184.566 67.6587 184.699 68.0693 184.699 68.624V71H183.747V70.4C183.656 70.608 183.512 70.7707 183.315 70.888C183.123 71.0053 182.899 71.064 182.643 71.064C182.382 71.064 182.144 71.0107 181.931 70.904C181.718 70.7973 181.55 70.6507 181.427 70.464C181.304 70.2773 181.243 70.0693 181.243 69.84C181.243 69.552 181.315 69.3253 181.459 69.16C181.608 68.9947 181.848 68.8747 182.179 68.8C182.51 68.7253 182.966 68.688 183.547 68.688H183.747V68.504C183.747 68.2373 183.688 68.0453 183.571 67.928C183.459 67.8107 183.27 67.752 183.003 67.752C182.795 67.752 182.576 67.7893 182.347 67.864C182.123 67.9333 181.902 68.032 181.683 68.16L181.403 67.472C181.622 67.3333 181.886 67.2187 182.195 67.128C182.504 67.0373 182.798 66.992 183.075 66.992ZM182.843 70.344C183.11 70.344 183.326 70.256 183.491 70.08C183.662 69.8987 183.747 69.6667 183.747 69.384V69.216H183.603C183.246 69.216 182.968 69.232 182.771 69.264C182.574 69.296 182.432 69.352 182.347 69.432C182.262 69.512 182.219 69.6213 182.219 69.76C182.219 69.9307 182.278 70.072 182.395 70.184C182.512 70.2907 182.662 70.344 182.843 70.344ZM185.715 67.088H186.715V71H185.715V67.088ZM186.763 65.272V66.256H185.659V65.272H186.763ZM187.747 65.36H188.747V71H187.747V65.36ZM191.458 66.992C192.007 66.992 192.415 67.1253 192.682 67.392C192.948 67.6587 193.082 68.0693 193.082 68.624V71H192.13V70.4C192.039 70.608 191.895 70.7707 191.698 70.888C191.506 71.0053 191.282 71.064 191.026 71.064C190.764 71.064 190.527 71.0107 190.314 70.904C190.1 70.7973 189.932 70.6507 189.81 70.464C189.687 70.2773 189.626 70.0693 189.626 69.84C189.626 69.552 189.698 69.3253 189.842 69.16C189.991 68.9947 190.231 68.8747 190.562 68.8C190.892 68.7253 191.348 68.688 191.93 68.688H192.13V68.504C192.13 68.2373 192.071 68.0453 191.954 67.928C191.842 67.8107 191.652 67.752 191.386 67.752C191.178 67.752 190.959 67.7893 190.73 67.864C190.506 67.9333 190.284 68.032 190.066 68.16L189.786 67.472C190.004 67.3333 190.268 67.2187 190.578 67.128C190.887 67.0373 191.18 66.992 191.458 66.992ZM191.226 70.344C191.492 70.344 191.708 70.256 191.874 70.08C192.044 69.8987 192.13 69.6667 192.13 69.384V69.216H191.986C191.628 69.216 191.351 69.232 191.154 69.264C190.956 69.296 190.815 69.352 190.73 69.432C190.644 69.512 190.602 69.6213 190.602 69.76C190.602 69.9307 190.66 70.072 190.778 70.184C190.895 70.2907 191.044 70.344 191.226 70.344ZM196.346 66.992C196.687 66.992 196.989 67.0747 197.25 67.24C197.511 67.4053 197.714 67.64 197.858 67.944C198.007 68.248 198.082 68.6027 198.082 69.008C198.082 69.4133 198.007 69.7733 197.858 70.088C197.714 70.3973 197.509 70.6373 197.242 70.808C196.981 70.9787 196.682 71.064 196.346 71.064C196.063 71.064 195.81 71.0027 195.586 70.88C195.367 70.7573 195.199 70.5867 195.082 70.368V71H194.098V65.36H195.098V67.656C195.215 67.4427 195.383 67.28 195.602 67.168C195.821 67.0507 196.069 66.992 196.346 66.992ZM196.082 70.288C196.397 70.288 196.642 70.176 196.818 69.952C196.994 69.728 197.082 69.4133 197.082 69.008C197.082 68.608 196.994 68.3013 196.818 68.088C196.647 67.8747 196.402 67.768 196.082 67.768C195.762 67.768 195.514 67.8773 195.338 68.096C195.167 68.3093 195.082 68.6187 195.082 69.024C195.082 69.4293 195.167 69.7413 195.338 69.96C195.514 70.1787 195.762 70.288 196.082 70.288ZM198.903 65.36H199.903V71H198.903V65.36ZM204.366 69.224H201.702C201.734 69.5867 201.843 69.856 202.03 70.032C202.217 70.208 202.483 70.296 202.83 70.296C203.262 70.296 203.657 70.1573 204.014 69.88L204.302 70.568C204.121 70.7173 203.891 70.8373 203.614 70.928C203.342 71.0187 203.067 71.064 202.79 71.064C202.15 71.064 201.643 70.8827 201.27 70.52C200.902 70.1573 200.718 69.6613 200.718 69.032C200.718 68.632 200.798 68.2773 200.958 67.968C201.118 67.6587 201.342 67.4187 201.63 67.248C201.923 67.0773 202.254 66.992 202.622 66.992C203.161 66.992 203.585 67.1653 203.894 67.512C204.209 67.8587 204.366 68.336 204.366 68.944V69.224ZM202.646 67.696C202.379 67.696 202.163 67.7813 201.998 67.952C201.838 68.1227 201.739 68.368 201.702 68.688H203.51C203.499 68.3627 203.419 68.1173 203.27 67.952C203.121 67.7813 202.913 67.696 202.646 67.696ZM210.004 71.072C209.449 71.072 208.964 70.9547 208.548 70.72C208.137 70.48 207.82 70.1413 207.596 69.704C207.377 69.2667 207.268 68.7573 207.268 68.176C207.268 67.5947 207.377 67.088 207.596 66.656C207.82 66.2187 208.137 65.8827 208.548 65.648C208.964 65.408 209.449 65.288 210.004 65.288C210.383 65.288 210.74 65.3467 211.076 65.464C211.412 65.5813 211.695 65.7467 211.924 65.96L211.58 66.712C211.324 66.5093 211.071 66.3627 210.82 66.272C210.569 66.176 210.303 66.128 210.02 66.128C209.476 66.128 209.055 66.304 208.756 66.656C208.463 67.008 208.316 67.5147 208.316 68.176C208.316 68.8427 208.463 69.352 208.756 69.704C209.055 70.056 209.476 70.232 210.02 70.232C210.303 70.232 210.569 70.1867 210.82 70.096C211.071 70 211.324 69.8507 211.58 69.648L211.924 70.4C211.695 70.6133 211.412 70.7787 211.076 70.896C210.74 71.0133 210.383 71.072 210.004 71.072ZM215.354 67.824L214.77 67.88C214.108 67.9493 213.778 68.2853 213.778 68.888V71H212.778V67.088H213.73V67.776C213.932 67.3067 214.351 67.0507 214.986 67.008L215.29 66.984L215.354 67.824ZM219.194 69.224H216.53C216.562 69.5867 216.672 69.856 216.858 70.032C217.045 70.208 217.312 70.296 217.658 70.296C218.09 70.296 218.485 70.1573 218.842 69.88L219.13 70.568C218.949 70.7173 218.72 70.8373 218.442 70.928C218.17 71.0187 217.896 71.064 217.618 71.064C216.978 71.064 216.472 70.8827 216.098 70.52C215.73 70.1573 215.546 69.6613 215.546 69.032C215.546 68.632 215.626 68.2773 215.786 67.968C215.946 67.6587 216.17 67.4187 216.458 67.248C216.752 67.0773 217.082 66.992 217.45 66.992C217.989 66.992 218.413 67.1653 218.722 67.512C219.037 67.8587 219.194 68.336 219.194 68.944V69.224ZM217.474 67.696C217.208 67.696 216.992 67.7813 216.826 67.952C216.666 68.1227 216.568 68.368 216.53 68.688H218.338C218.328 68.3627 218.248 68.1173 218.098 67.952C217.949 67.7813 217.741 67.696 217.474 67.696ZM223.788 65.36V71H222.796V70.368C222.679 70.5867 222.508 70.7573 222.284 70.88C222.066 71.0027 221.815 71.064 221.532 71.064C221.196 71.064 220.895 70.9787 220.628 70.808C220.367 70.6373 220.162 70.3973 220.012 70.088C219.868 69.7733 219.796 69.4133 219.796 69.008C219.796 68.6027 219.868 68.248 220.012 67.944C220.162 67.64 220.367 67.4053 220.628 67.24C220.89 67.0747 221.191 66.992 221.532 66.992C221.815 66.992 222.066 67.0507 222.284 67.168C222.503 67.2853 222.671 67.4507 222.788 67.664V65.36H223.788ZM221.796 70.288C222.116 70.288 222.362 70.1787 222.532 69.96C222.708 69.7413 222.796 69.4293 222.796 69.024C222.796 68.6187 222.708 68.3093 222.532 68.096C222.362 67.8773 222.119 67.768 221.804 67.768C221.484 67.768 221.236 67.8747 221.06 68.088C220.884 68.3013 220.796 68.608 220.796 69.008C220.796 69.4133 220.884 69.728 221.06 69.952C221.236 70.176 221.482 70.288 221.796 70.288ZM224.817 67.088H225.817V71H224.817V67.088ZM225.865 65.272V66.256H224.761V65.272H225.865ZM228.848 70.312C228.965 70.312 229.088 70.304 229.216 70.288L229.168 71.032C229.008 71.048 228.861 71.056 228.728 71.056C228.179 71.056 227.773 70.9307 227.512 70.68C227.251 70.424 227.12 70.0453 227.12 69.544V67.84H226.368V67.088H227.12V65.92H228.12V67.088H229.152V67.84H228.12V69.528C228.12 70.0507 228.363 70.312 228.848 70.312ZM230.857 67.088V68.192H229.737V67.088H230.857ZM230.857 69.896V71H229.737V69.896H230.857ZM237.989 69.4C237.989 69.8267 237.84 70.1893 237.541 70.488C237.242 70.7813 236.845 70.9653 236.349 71.04V71.92H235.533V71.056C235.176 71.0293 234.845 70.96 234.541 70.848C234.242 70.736 233.981 70.5867 233.757 70.4L234.101 69.656C234.373 69.8587 234.648 70.008 234.925 70.104C235.208 70.2 235.512 70.248 235.837 70.248C236.2 70.248 236.477 70.1787 236.669 70.04C236.866 69.9013 236.965 69.7013 236.965 69.44C236.965 69.2853 236.912 69.16 236.805 69.064C236.698 68.968 236.565 68.8933 236.405 68.84C236.25 68.7813 236.029 68.7147 235.741 68.64C235.336 68.5387 235.008 68.4373 234.757 68.336C234.506 68.2293 234.29 68.0693 234.109 67.856C233.928 67.6373 233.837 67.3467 233.837 66.984C233.837 66.5573 233.992 66.192 234.301 65.888C234.616 65.584 235.021 65.3947 235.517 65.32V64.44H236.333V65.312C236.637 65.3493 236.925 65.424 237.197 65.536C237.474 65.648 237.704 65.7867 237.885 65.952L237.541 66.696C237.045 66.3067 236.514 66.112 235.949 66.112C235.618 66.112 235.354 66.184 235.157 66.328C234.965 66.472 234.869 66.672 234.869 66.928C234.869 67.104 234.925 67.248 235.037 67.36C235.149 67.4667 235.29 67.552 235.461 67.616C235.637 67.68 235.872 67.7467 236.165 67.816C236.554 67.912 236.869 68.0107 237.109 68.112C237.354 68.208 237.562 68.36 237.733 68.568C237.904 68.776 237.989 69.0533 237.989 69.4ZM242.65 70.168V71H239.17V70.168H240.394V66.536L239.426 67.12L239.018 66.368L240.69 65.36H241.426V70.168H242.65ZM244.607 69.896V70.624C244.607 70.9013 244.559 71.152 244.463 71.376C244.367 71.6053 244.204 71.8347 243.975 72.064L243.567 71.744C243.817 71.4773 243.961 71.2293 243.999 71H243.487V69.896H244.607ZM247.743 67.392C248.095 67.392 248.404 67.4693 248.671 67.624C248.943 67.7733 249.151 67.984 249.295 68.256C249.444 68.528 249.519 68.84 249.519 69.192C249.519 69.5653 249.434 69.8933 249.263 70.176C249.092 70.4587 248.85 70.6773 248.535 70.832C248.226 70.9867 247.86 71.064 247.439 71.064C247.087 71.064 246.738 71.0053 246.391 70.888C246.05 70.7653 245.767 70.6053 245.543 70.408L245.887 69.656C246.399 70.0453 246.922 70.24 247.455 70.24C247.807 70.24 248.076 70.152 248.263 69.976C248.45 69.8 248.543 69.5493 248.543 69.224C248.543 68.9093 248.447 68.6613 248.255 68.48C248.068 68.2933 247.812 68.2 247.487 68.2C247.268 68.2 247.06 68.2427 246.863 68.328C246.671 68.408 246.498 68.5253 246.343 68.68H245.727V65.36H249.263V66.16H246.735V67.68C247.007 67.488 247.343 67.392 247.743 67.392ZM252.236 71.072C251.569 71.072 251.06 70.8267 250.708 70.336C250.356 69.84 250.18 69.12 250.18 68.176C250.18 67.2427 250.356 66.5307 250.708 66.04C251.06 65.5493 251.569 65.304 252.236 65.304C252.903 65.304 253.412 65.5493 253.764 66.04C254.116 66.5307 254.292 67.2427 254.292 68.176C254.292 69.1147 254.116 69.832 253.764 70.328C253.412 70.824 252.903 71.072 252.236 71.072ZM252.236 70.264C252.599 70.264 252.863 70.0987 253.028 69.768C253.193 69.432 253.276 68.9013 253.276 68.176C253.276 67.456 253.193 66.9333 253.028 66.608C252.863 66.2773 252.599 66.112 252.236 66.112C251.873 66.112 251.609 66.2773 251.444 66.608C251.279 66.9333 251.196 67.456 251.196 68.176C251.196 68.9013 251.279 69.432 251.444 69.768C251.609 70.0987 251.873 70.264 252.236 70.264ZM257.033 71.072C256.366 71.072 255.857 70.8267 255.505 70.336C255.153 69.84 254.977 69.12 254.977 68.176C254.977 67.2427 255.153 66.5307 255.505 66.04C255.857 65.5493 256.366 65.304 257.033 65.304C257.699 65.304 258.209 65.5493 258.561 66.04C258.913 66.5307 259.089 67.2427 259.089 68.176C259.089 69.1147 258.913 69.832 258.561 70.328C258.209 70.824 257.699 71.072 257.033 71.072ZM257.033 70.264C257.395 70.264 257.659 70.0987 257.825 69.768C257.99 69.432 258.073 68.9013 258.073 68.176C258.073 67.456 257.99 66.9333 257.825 66.608C257.659 66.2773 257.395 66.112 257.033 66.112C256.67 66.112 256.406 66.2773 256.241 66.608C256.075 66.9333 255.993 67.456 255.993 68.176C255.993 68.9013 256.075 69.432 256.241 69.768C256.406 70.0987 256.67 70.264 257.033 70.264ZM260.982 69.896V70.624C260.982 70.9013 260.934 71.152 260.838 71.376C260.742 71.6053 260.579 71.8347 260.35 72.064L259.942 71.744C260.192 71.4773 260.336 71.2293 260.374 71H259.862V69.896H260.982ZM263.814 71.072C263.147 71.072 262.638 70.8267 262.286 70.336C261.934 69.84 261.758 69.12 261.758 68.176C261.758 67.2427 261.934 66.5307 262.286 66.04C262.638 65.5493 263.147 65.304 263.814 65.304C264.481 65.304 264.99 65.5493 265.342 66.04C265.694 66.5307 265.87 67.2427 265.87 68.176C265.87 69.1147 265.694 69.832 265.342 70.328C264.99 70.824 264.481 71.072 263.814 71.072ZM263.814 70.264C264.177 70.264 264.441 70.0987 264.606 69.768C264.771 69.432 264.854 68.9013 264.854 68.176C264.854 67.456 264.771 66.9333 264.606 66.608C264.441 66.2773 264.177 66.112 263.814 66.112C263.451 66.112 263.187 66.2773 263.022 66.608C262.857 66.9333 262.774 67.456 262.774 68.176C262.774 68.9013 262.857 69.432 263.022 69.768C263.187 70.0987 263.451 70.264 263.814 70.264ZM268.611 71.072C267.944 71.072 267.435 70.8267 267.083 70.336C266.731 69.84 266.555 69.12 266.555 68.176C266.555 67.2427 266.731 66.5307 267.083 66.04C267.435 65.5493 267.944 65.304 268.611 65.304C269.278 65.304 269.787 65.5493 270.139 66.04C270.491 66.5307 270.667 67.2427 270.667 68.176C270.667 69.1147 270.491 69.832 270.139 70.328C269.787 70.824 269.278 71.072 268.611 71.072ZM268.611 70.264C268.974 70.264 269.238 70.0987 269.403 69.768C269.568 69.432 269.651 68.9013 269.651 68.176C269.651 67.456 269.568 66.9333 269.403 66.608C269.238 66.2773 268.974 66.112 268.611 66.112C268.248 66.112 267.984 66.2773 267.819 66.608C267.654 66.9333 267.571 67.456 267.571 68.176C267.571 68.9013 267.654 69.432 267.819 69.768C267.984 70.0987 268.248 70.264 268.611 70.264ZM273.408 71.072C272.741 71.072 272.232 70.8267 271.88 70.336C271.528 69.84 271.352 69.12 271.352 68.176C271.352 67.2427 271.528 66.5307 271.88 66.04C272.232 65.5493 272.741 65.304 273.408 65.304C274.074 65.304 274.584 65.5493 274.936 66.04C275.288 66.5307 275.464 67.2427 275.464 68.176C275.464 69.1147 275.288 69.832 274.936 70.328C274.584 70.824 274.074 71.072 273.408 71.072ZM273.408 70.264C273.77 70.264 274.034 70.0987 274.2 69.768C274.365 69.432 274.448 68.9013 274.448 68.176C274.448 67.456 274.365 66.9333 274.2 66.608C274.034 66.2773 273.77 66.112 273.408 66.112C273.045 66.112 272.781 66.2773 272.616 66.608C272.45 66.9333 272.368 67.456 272.368 68.176C272.368 68.9013 272.45 69.432 272.616 69.768C272.781 70.0987 273.045 70.264 273.408 70.264Z" fill="#0A2E57"/>
<rect x="20" y="41" width="143" height="16" fill="#1355A1"/>
<rect x="163" y="41" width="143" height="16" fill="#B5D4F6"/>
<path d="M163 41V74" stroke="#B5D4F6" stroke-width="2"/>
<defs>
<filter id="filter0_d_336_2301" x="0" y="0" width="326" height="106" filterUnits="userSpaceOnUse" color-interpolation-filters="sRGB">
<feFlood flood-opacity="0" result="BackgroundImageFix"/>
<feColorMatrix in="SourceAlpha" type="matrix" values="0 0 0 0 0 0 0 0 0 0 0 0 0 0 0 0 0 0 127 0" result="hardAlpha"/>
<feOffset dy="6"/>
<feGaussianBlur stdDeviation="6"/>
<feComposite in2="hardAlpha" operator="out"/>
<feColorMatrix type="matrix" values="0 0 0 0 0.0392157 0 0 0 0 0.180392 0 0 0 0 0.341176 0 0 0 0.1 0"/>
<feBlend mode="normal" in2="BackgroundImageFix" result="effect1_dropShadow_336_2301"/>
<feBlend mode="normal" in="SourceGraphic" in2="effect1_dropShadow_336_2301" result="shape"/>
</filter>
</defs>
</svg>
