<svg width="46" height="46" viewBox="0 0 46 46" fill="none" xmlns="http://www.w3.org/2000/svg">
<rect y="0.5" width="46" height="46" rx="4" fill="url(#paint0_linear_87_325)"/>
<g clip-path="url(#clip0_87_325)">
<path d="M23.7 22.85C20.295 21.965 19.2 21.05 19.2 19.625C19.2 17.99 20.715 16.85 23.25 16.85C25.92 16.85 26.91 18.125 27 20H30.315C30.21 17.42 28.635 15.05 25.5 14.285V11H21V14.24C18.09 14.87 15.75 16.76 15.75 19.655C15.75 23.12 18.615 24.845 22.8 25.85C26.55 26.75 27.3 28.07 27.3 29.465C27.3 30.5 26.565 32.15 23.25 32.15C20.16 32.15 18.945 30.77 18.78 29H15.48C15.66 32.285 18.12 34.13 21 34.745V38H25.5V34.775C28.425 34.22 30.75 32.525 30.75 29.45C30.75 25.19 27.105 23.735 23.7 22.85Z" fill="#26B67F"/>
</g>
<defs>
<linearGradient id="paint0_linear_87_325" x1="45.3" y1="46.4" x2="-13.2" y2="-10.6" gradientUnits="userSpaceOnUse">
<stop stop-color="#0A2E57"/>
<stop offset="1" stop-color="#1355A1"/>
</linearGradient>
<clipPath id="clip0_87_325">
<rect x="6" y="6.5" width="36" height="36" rx="4" fill="white"/>
</clipPath>
</defs>
</svg>
