<svg width="48" height="46" viewBox="0 0 46 46" fill="none" xmlns="http://www.w3.org/2000/svg">
<rect y="0.5" width="48" height="46" rx="4" fill="url(#paint0_linear_88_125)"/>
<path d="M20.0258 9.28043L29.453 9.15363L29.5798 18.5809L25.997 15.0932L21.3468 19.8702L18.9583 17.5451L23.6085 12.7681L20.0258 9.28043ZM15.4706 21.1279C14.8312 21.7847 14.8455 22.8453 15.5023 23.4847C16.1592 24.1241 17.2198 24.1098 17.8592 23.453C18.4986 22.7962 18.4843 21.7356 17.8275 21.0962C17.1706 20.4568 16.1101 20.471 15.4706 21.1279ZM10.8204 25.9049C10.181 26.5617 10.1953 27.6223 10.8521 28.2617C11.509 28.9011 12.5695 28.8869 13.2089 28.23C13.8483 27.5732 13.8341 26.5126 13.1772 25.8732C12.5204 25.2338 11.4598 25.2481 10.8204 25.9049ZM23.9255 36.3362L28.5758 31.5592L26.1872 29.2341L21.537 34.0111L17.9543 30.5234L18.0811 39.9507L27.5083 39.8239L23.9255 36.3362ZM32.0634 27.9764C32.7028 27.3196 32.6886 26.259 32.0317 25.6196C31.3749 24.9802 30.3143 24.9945 29.6749 25.6513C29.0355 26.3081 29.0498 27.3687 29.7066 28.0081C30.3634 28.6475 31.424 28.6333 32.0634 27.9764ZM36.7136 23.1994C37.353 22.5426 37.3388 21.482 36.6819 20.8426C36.0251 20.2032 34.9645 20.2174 34.3251 20.8743C33.6857 21.5311 33.7 22.5917 34.3568 23.2311C35.0137 23.8705 36.0742 23.8562 36.7136 23.1994Z" fill="#26B67F"/>
<defs>
<linearGradient id="paint0_linear_88_125" x1="45.3" y1="46.4" x2="-13.2" y2="-10.6" gradientUnits="userSpaceOnUse">
<stop stop-color="#0A2E57"/>
<stop offset="1" stop-color="#1355A1"/>
</linearGradient>
</defs>
</svg>
