<svg width="46" height="46" viewBox="0 0 46 46" fill="none" xmlns="http://www.w3.org/2000/svg">
<rect y="0.5" width="46" height="46" rx="4" fill="url(#paint0_linear_88_134)"/>
<path d="M13.4422 11.0008L12.0464 8.96084L9 15.6682H16.5L15 13.1682C20.3796 9.3102 29.642 10.7214 33.5 16.1011C38 23.1682 35.8796 30.8102 30.5 34.6682C24.5 39.6682 15.858 37.0478 12 31.6682L9.76469 33.3274C14.9165 40.511 24.9076 42.1567 32.0913 37.0049C39.2749 31.8531 40.9206 21.862 35.7688 14.6784C30.617 7.49473 20.6259 5.84903 13.4422 11.0008Z" fill="#26B67F"/>
<path d="M22.7276 22.3389C20.355 21.7161 19.5921 21.0722 19.5921 20.0694C19.5921 18.9189 20.6477 18.1167 22.4141 18.1167C24.2745 18.1167 24.9643 19.0139 25.027 20.3333H27.3369C27.2637 18.5178 26.1663 16.85 23.9818 16.3117V14H20.8463V16.28C18.8186 16.7233 17.1881 18.0533 17.1881 20.0906C17.1881 22.5289 19.1844 23.7428 22.1005 24.45C24.7135 25.0833 25.2361 26.0122 25.2361 26.9939C25.2361 27.7222 24.7239 28.8833 22.4141 28.8833C20.261 28.8833 19.4144 27.9122 19.2994 26.6667H17C17.1254 28.9783 18.8395 30.2767 20.8463 30.7094V33H23.9818V30.7306C26.02 30.34 27.64 29.1472 27.64 26.9833C27.64 23.9856 25.1002 22.9617 22.7276 22.3389Z" fill="#26B67F"/>
<defs>
<linearGradient id="paint0_linear_88_134" x1="45.3" y1="46.4" x2="-13.2" y2="-10.6" gradientUnits="userSpaceOnUse">
<stop stop-color="#0A2E57"/>
<stop offset="1" stop-color="#1355A1"/>
</linearGradient>
</defs>
</svg>
