<svg width="360" height="212" viewBox="0 0 360 212" fill="none" xmlns="http://www.w3.org/2000/svg">
<path d="M354.955 6.73705L6.88137 149.247C3.30072 150.713 0.646606 153.816 -0.247242 157.58L-9.49244 196.517C-11.2824 204.055 -5.56529 211.289 2.18295 211.289H360.438C367.09 211.289 372.472 205.878 372.438 199.227L371.501 17.7804C371.457 9.27584 362.825 3.51465 354.955 6.73705Z" fill="#0A2E57"/>
<g opacity="0.3">
<path fill-rule="evenodd" clip-rule="evenodd" d="M47.9095 138.725C46.9357 138.448 45.922 139.013 45.6453 139.987L26.2146 208.374C25.9379 209.348 26.5031 210.362 27.4769 210.638C28.4507 210.915 29.4644 210.35 29.7411 209.376L49.1718 140.989C49.4485 140.015 48.8834 139.002 47.9095 138.725Z" fill="#082546"/>
<path fill-rule="evenodd" clip-rule="evenodd" d="M272.557 63.4788C271.583 63.2021 270.57 63.7672 270.293 64.741L250.862 133.128C250.586 134.102 251.151 135.116 252.125 135.392C253.098 135.669 254.112 135.104 254.389 134.13L273.82 65.743C274.096 64.7692 273.531 63.7555 272.557 63.4788Z" fill="#082546"/>
<path fill-rule="evenodd" clip-rule="evenodd" d="M67.5509 130.676C66.5771 130.399 65.5634 130.964 65.2867 131.938L45.856 200.325C45.5793 201.299 46.1444 202.312 47.1182 202.589C48.092 202.866 49.1058 202.301 49.3825 201.327L68.8132 132.94C69.0898 131.966 68.5247 130.952 67.5509 130.676Z" fill="#082546"/>
<path fill-rule="evenodd" clip-rule="evenodd" d="M142.4 130.676C141.426 130.399 140.412 130.964 140.135 131.938L120.705 200.325C120.428 201.299 120.993 202.312 121.967 202.589C122.941 202.866 123.954 202.301 124.231 201.327L143.662 132.94C143.938 131.966 143.373 130.952 142.4 130.676Z" fill="#082546"/>
<path fill-rule="evenodd" clip-rule="evenodd" d="M342.092 118.776C343.504 119.177 344.324 120.648 343.923 122.06L331.994 164.042C331.593 165.455 330.123 166.274 328.71 165.873C327.298 165.472 326.478 164.001 326.879 162.589L338.808 120.607C339.209 119.194 340.679 118.375 342.092 118.776Z" fill="#1355A1"/>
<path fill-rule="evenodd" clip-rule="evenodd" d="M365.035 39.1615C366.447 39.5628 367.267 41.0332 366.866 42.4457L354.937 84.4279C354.536 85.8404 353.066 86.6601 351.653 86.2588C350.241 85.8574 349.421 84.3871 349.822 82.9746L361.751 40.9924C362.152 39.5799 363.622 38.7602 365.035 39.1615Z" fill="#1355A1"/>
<path fill-rule="evenodd" clip-rule="evenodd" d="M320.042 28.4497C320.812 28.6686 321.259 29.4706 321.04 30.2411L301.007 100.75C300.788 101.52 299.986 101.967 299.216 101.748C298.445 101.53 297.998 100.728 298.217 99.9571L318.25 29.4484C318.469 28.6779 319.271 28.2308 320.042 28.4497Z" fill="#1355A1"/>
<path fill-rule="evenodd" clip-rule="evenodd" d="M159.502 129.428C161.171 129.902 162.14 131.64 161.665 133.309L153.075 163.542C152.601 165.211 150.863 166.18 149.194 165.706C147.525 165.232 146.556 163.494 147.03 161.824L155.62 131.591C156.095 129.922 157.832 128.953 159.502 129.428Z" fill="#1355A1"/>
<path fill-rule="evenodd" clip-rule="evenodd" d="M298.056 129.428C299.726 129.902 300.695 131.64 300.22 133.309L291.63 163.542C291.156 165.211 289.418 166.18 287.749 165.706C286.08 165.232 285.111 163.494 285.585 161.824L294.175 131.591C294.649 129.922 296.387 128.953 298.056 129.428Z" fill="#1355A1"/>
<path fill-rule="evenodd" clip-rule="evenodd" d="M17.7786 163.619C19.4479 164.094 20.4167 165.832 19.9424 167.501L11.3523 197.734C10.878 199.403 9.14027 200.372 7.47097 199.898C5.80167 199.423 4.83292 197.686 5.30722 196.016L13.8973 165.783C14.3716 164.114 16.1093 163.145 17.7786 163.619Z" fill="#1355A1"/>
<path fill-rule="evenodd" clip-rule="evenodd" d="M79.3283 131.22C79.6493 131.311 79.8356 131.646 79.7444 131.967L58.6146 206.334C58.5234 206.655 58.1892 206.841 57.8682 206.75C57.5472 206.659 57.3609 206.324 57.4521 206.003L78.5819 131.636C78.6731 131.315 79.0073 131.129 79.3283 131.22Z" fill="#082546"/>
<path fill-rule="evenodd" clip-rule="evenodd" d="M271.847 168.311C275.121 169.242 277.021 172.65 276.091 175.925L268.862 201.368C267.932 204.642 264.523 206.543 261.249 205.612C257.974 204.682 256.074 201.273 257.004 197.999L264.233 172.556C265.164 169.281 268.572 167.381 271.847 168.311Z" fill="#082546"/>
<path fill-rule="evenodd" clip-rule="evenodd" d="M37.3503 181.131C39.1425 181.64 40.1826 183.506 39.6734 185.298L34.7616 202.585C34.2524 204.378 32.3867 205.418 30.5945 204.908C28.8023 204.399 27.7623 202.534 28.2715 200.741L33.1833 183.454C33.6925 181.662 35.5582 180.622 37.3503 181.131Z" fill="#1355A1"/>
<path fill-rule="evenodd" clip-rule="evenodd" d="M345.968 170.226C347.76 170.735 348.8 172.601 348.291 174.393L343.379 191.68C342.87 193.472 341.005 194.512 339.212 194.003C337.42 193.494 336.38 191.628 336.889 189.836L341.801 172.549C342.31 170.757 344.176 169.716 345.968 170.226Z" fill="#1355A1"/>
<path fill-rule="evenodd" clip-rule="evenodd" d="M199.707 177.269C201.499 177.778 202.539 179.644 202.03 181.436L197.118 198.724C196.609 200.516 194.743 201.556 192.951 201.047C191.159 200.537 190.119 198.672 190.628 196.88L195.54 179.592C196.049 177.8 197.914 176.76 199.707 177.269Z" fill="#1355A1"/>
<path fill-rule="evenodd" clip-rule="evenodd" d="M110.003 130.859C110.389 130.968 110.612 131.369 110.503 131.754L90.691 201.483C90.5815 201.868 90.1805 202.091 89.7953 201.982C89.41 201.872 89.1865 201.471 89.2959 201.086L109.108 131.358C109.217 130.973 109.618 130.749 110.003 130.859Z" fill="#082546"/>
<path fill-rule="evenodd" clip-rule="evenodd" d="M249.494 123.082C249.879 123.192 250.102 123.593 249.993 123.978L230.181 193.706C230.072 194.091 229.671 194.315 229.285 194.205C228.9 194.096 228.677 193.695 228.786 193.31L248.598 123.582C248.707 123.196 249.108 122.973 249.494 123.082Z" fill="#082546"/>
<path fill-rule="evenodd" clip-rule="evenodd" d="M340.109 16.576C340.237 16.6125 340.312 16.7462 340.275 16.8746L309.313 125.848C309.276 125.976 309.143 126.051 309.014 126.014C308.886 125.978 308.811 125.844 308.848 125.716L339.81 16.7425C339.847 16.6141 339.98 16.5395 340.109 16.576Z" fill="#1355A1"/>
<path fill-rule="evenodd" clip-rule="evenodd" d="M136.016 97.8114C136.144 97.8479 136.219 97.9815 136.182 98.1099L105.22 207.083C105.183 207.212 105.049 207.286 104.921 207.25C104.793 207.213 104.718 207.08 104.755 206.951L135.717 97.9778C135.754 97.8494 135.887 97.7749 136.016 97.8114Z" fill="#1355A1"/>
<path fill-rule="evenodd" clip-rule="evenodd" d="M252.76 65.0958C252.889 65.1323 252.963 65.266 252.927 65.3944L221.964 174.368C221.928 174.496 221.794 174.571 221.666 174.534C221.537 174.498 221.463 174.364 221.499 174.236L252.462 65.2622C252.498 65.1338 252.632 65.0593 252.76 65.0958Z" fill="#1355A1"/>
<path fill-rule="evenodd" clip-rule="evenodd" d="M174.851 139.464C174.979 139.5 175.066 139.59 175.045 139.663L157.31 202.082C157.289 202.156 157.168 202.186 157.04 202.15C156.912 202.113 156.824 202.024 156.845 201.95L174.58 139.531C174.601 139.457 174.722 139.427 174.851 139.464Z" fill="#1355A1"/>
<path fill-rule="evenodd" clip-rule="evenodd" d="M313.406 139.464C313.534 139.5 313.624 139.581 313.606 139.643L298.517 192.752C298.499 192.814 298.38 192.835 298.252 192.799C298.123 192.763 298.034 192.682 298.052 192.62L313.141 139.511C313.159 139.449 313.278 139.427 313.406 139.464Z" fill="#1355A1"/>
<path fill-rule="evenodd" clip-rule="evenodd" d="M199.8 100.937C200.634 101.174 201.119 102.043 200.882 102.877L177.273 185.969C177.036 186.804 176.167 187.288 175.332 187.051C174.498 186.814 174.013 185.945 174.25 185.11L197.859 102.019C198.096 101.184 198.965 100.7 199.8 100.937Z" fill="#082546"/>
<path fill-rule="evenodd" clip-rule="evenodd" d="M338.355 100.937C339.189 101.174 339.674 102.043 339.437 102.877L315.828 185.969C315.591 186.804 314.722 187.288 313.887 187.051C313.053 186.814 312.568 185.945 312.805 185.11L336.414 102.019C336.651 101.184 337.52 100.7 338.355 100.937Z" fill="#082546"/>
<path fill-rule="evenodd" clip-rule="evenodd" d="M281.289 82.4018C282.124 82.6389 282.608 83.5078 282.371 84.3424L258.762 167.434C258.525 168.269 257.656 168.753 256.822 168.516C255.987 168.279 255.503 167.41 255.74 166.575L279.349 83.4837C279.586 82.649 280.455 82.1646 281.289 82.4018Z" fill="#082546"/>
<path fill-rule="evenodd" clip-rule="evenodd" d="M273.069 95.0325C273.903 95.2697 274.388 96.1385 274.15 96.9732L250.542 180.065C250.305 180.899 249.436 181.384 248.601 181.147C247.766 180.91 247.282 180.041 247.519 179.206L271.128 96.1144C271.365 95.2797 272.234 94.7954 273.069 95.0325Z" fill="#1355A1"/>
<path fill-rule="evenodd" clip-rule="evenodd" d="M235.051 73.8913C235.886 74.1284 236.37 74.9973 236.133 75.8319L212.524 158.924C212.287 159.758 211.418 160.243 210.584 160.005C209.749 159.768 209.265 158.899 209.502 158.065L233.111 74.9732C233.348 74.1385 234.217 73.6541 235.051 73.8913Z" fill="#082546"/>
<path fill-rule="evenodd" clip-rule="evenodd" d="M105.753 123.766C106.266 123.912 106.564 124.447 106.419 124.96L84.5451 201.945C84.3991 202.459 83.8644 202.757 83.3508 202.611C82.8372 202.465 82.5391 201.93 82.685 201.417L104.559 124.432C104.704 123.918 105.239 123.62 105.753 123.766Z" fill="#1355A1"/>
</g>
<path d="M170.87 10.7993C171.963 10.6367 172.969 11.414 173.108 12.5099L176.978 43.0401C177.117 44.1358 176.338 45.1335 175.248 45.3103C148.145 49.7052 127.78 72.8556 126.834 100.352C126.796 101.456 125.904 102.354 124.799 102.354H94.0257C92.9211 102.354 92.0235 101.453 92.0473 100.349C93.0166 55.3831 126.44 17.4105 170.87 10.7993Z" fill="url(#paint0_linear_683_1127)"/>
<path d="M178.253 183.084C177.15 183.133 176.229 182.257 176.203 181.153L175.485 150.387C175.459 149.282 176.336 148.37 177.439 148.306C204.849 146.714 227.481 125.774 231.243 98.5203C231.394 97.4261 232.373 96.6242 233.472 96.7375L264.084 99.894C265.182 100.007 265.983 100.995 265.846 102.091C260.269 146.721 223.127 181.065 178.253 183.084Z" fill="url(#paint1_linear_683_1127)"/>
<ellipse cx="178.494" cy="95.4872" rx="44.891" ry="45.1923" fill="white"/>
<g filter="url(#filter0_d_683_1127)">
<path fill-rule="evenodd" clip-rule="evenodd" d="M178.795 153.333C210.742 153.333 236.641 127.435 236.641 95.4871C236.641 63.5396 210.742 37.641 178.795 37.641C146.847 37.641 120.949 63.5396 120.949 95.4871C120.949 127.435 146.847 153.333 178.795 153.333ZM178.69 123.694C194.416 123.694 207.164 111.088 207.164 95.537C207.164 79.9863 194.416 67.38 178.69 67.38C162.965 67.38 150.217 79.9863 150.217 95.537C150.217 111.088 162.965 123.694 178.69 123.694Z" fill="white"/>
</g>
<path fill-rule="evenodd" clip-rule="evenodd" d="M177.106 133.434C197.717 134.393 215.231 118.391 216.196 97.6611C216.924 82.0096 208.005 68.1537 194.706 61.8993C192.899 61.0496 192.123 58.8959 192.973 57.0891C193.823 55.2822 195.976 54.5063 197.783 55.3561C213.647 62.817 224.286 79.338 223.419 97.9971C222.27 122.689 201.398 141.803 176.77 140.657C174.776 140.565 173.234 138.872 173.327 136.878C173.42 134.883 175.112 133.342 177.106 133.434Z" fill="#1355A1"/>
<path fill-rule="evenodd" clip-rule="evenodd" d="M168.175 135.843C167.973 136.477 167.294 136.826 166.66 136.623C156.564 133.394 148.184 126.371 143.005 117.253C142.676 116.674 142.879 115.939 143.457 115.61C144.036 115.281 144.772 115.484 145.1 116.063C149.993 124.676 157.898 131.29 167.395 134.328C168.029 134.531 168.378 135.209 168.175 135.843Z" fill="#6AB1E1"/>
<path fill-rule="evenodd" clip-rule="evenodd" d="M140.622 110.987C139.357 111.404 137.995 110.716 137.578 109.452C135.984 104.611 135.231 99.4117 135.481 94.0349C136.596 70.0778 157.158 51.6235 181.348 52.7486C183.76 52.8608 186.119 53.1636 188.411 53.642C189.714 53.914 190.55 55.1909 190.278 56.4939C190.006 57.797 188.729 58.6328 187.426 58.3608C185.384 57.9345 183.279 57.6642 181.124 57.5639C159.536 56.5598 141.285 73.0189 140.297 94.2588C140.074 99.0389 140.743 103.652 142.157 107.944C142.573 109.208 141.886 110.571 140.622 110.987Z" fill="#B5D8F0"/>
<circle cx="179.096" cy="97.5961" r="79.4423" stroke="#1355A1" stroke-width="2" stroke-dasharray="6 4"/>
<path d="M196.269 187.077C200.928 182.418 200.928 174.864 196.269 170.205C191.61 165.546 184.056 165.546 179.397 170.205C174.738 174.864 174.738 182.418 179.397 187.077C184.056 191.736 191.61 191.736 196.269 187.077Z" fill="#1355A1"/>
<g opacity="0.7">
<path d="M192.362 175.267C192.362 177.987 190.34 180.557 187.849 180.557C185.358 180.557 183.332 177.987 183.332 175.267C183.332 172.547 185.354 170.704 187.849 170.704C190.343 170.704 192.362 172.544 192.362 175.267Z" fill="#6BA8EE"/>
<path d="M187.849 165.068C180.358 165.068 174.267 171.16 174.267 178.65C174.267 186.141 180.358 192.232 187.849 192.232C195.339 192.232 201.431 186.141 201.431 178.65C201.431 171.16 195.339 165.068 187.849 165.068ZM195.869 187.283C195.601 184.613 194.13 182.312 192.029 180.984C190.969 182.226 189.524 183.035 187.931 183.035C186.338 183.035 184.839 182.197 183.776 180.919C181.618 182.236 180.1 184.566 179.825 187.279C177.509 185.125 176.056 182.054 176.056 178.647C176.056 172.144 181.346 166.854 187.849 166.854C194.352 166.854 199.641 172.144 199.641 178.647C199.641 182.054 198.188 185.128 195.869 187.283Z" fill="#6BA8EE"/>
</g>
<path d="M266.769 118.987C270.763 114.994 270.763 108.519 266.769 104.526C262.776 100.532 256.301 100.532 252.308 104.526C248.314 108.519 248.314 114.994 252.308 118.987C256.301 122.981 262.776 122.981 266.769 118.987Z" fill="#26B67F"/>
<g opacity="0.7">
<path d="M263.419 108.87C263.419 111.202 261.686 113.404 259.551 113.404C257.416 113.404 255.68 111.202 255.68 108.87C255.68 106.539 257.413 104.959 259.551 104.959C261.689 104.959 263.419 106.536 263.419 108.87Z" fill="#CFF5E6"/>
<path d="M259.551 100.129C253.13 100.129 247.909 105.35 247.909 111.77C247.909 118.191 253.13 123.412 259.551 123.412C265.972 123.412 271.193 118.191 271.193 111.77C271.193 105.35 265.972 100.129 259.551 100.129ZM266.426 119.169C266.196 116.881 264.935 114.908 263.134 113.77C262.226 114.835 260.987 115.528 259.622 115.528C258.256 115.528 256.971 114.81 256.06 113.715C254.21 114.844 252.91 116.841 252.673 119.166C250.689 117.32 249.443 114.688 249.443 111.767C249.443 106.193 253.977 101.659 259.551 101.659C265.125 101.659 269.659 106.193 269.659 111.767C269.659 114.688 268.413 117.323 266.426 119.169Z" fill="#CFF5E6"/>
</g>
<path d="M172.099 23.1121C175.526 19.6857 175.526 14.1305 172.099 10.7041C168.673 7.27771 163.118 7.27771 159.691 10.7041C156.265 14.1305 156.265 19.6857 159.691 23.1121C163.118 26.5385 168.673 26.5385 172.099 23.1121Z" fill="#FCF0D8"/>
<g opacity="0.7">
<path d="M169.224 14.4329C169.224 16.4332 167.737 18.3231 165.905 18.3231C164.073 18.3231 162.583 16.4332 162.583 14.4329C162.583 12.4325 164.071 11.077 165.905 11.077C167.74 11.077 169.224 12.4299 169.224 14.4329Z" fill="#F5C164"/>
<path d="M165.905 6.93201C160.397 6.93201 155.917 11.4117 155.917 16.9206C155.917 22.4295 160.397 26.9092 165.905 26.9092C171.414 26.9092 175.894 22.4295 175.894 16.9206C175.894 11.4117 171.414 6.93201 165.905 6.93201ZM171.804 23.2691C171.606 21.3056 170.525 19.6132 168.98 18.6367C168.201 19.55 167.137 20.1449 165.966 20.1449C164.795 20.1449 163.692 19.529 162.91 18.5893C161.323 19.5579 160.207 21.2714 160.004 23.2665C158.302 21.682 157.233 19.4237 157.233 16.918C157.233 12.1356 161.123 8.2454 165.905 8.2454C170.688 8.2454 174.578 12.1356 174.578 16.918C174.578 19.4237 173.509 21.6846 171.804 23.2691Z" fill="#F2B23D"/>
</g>
<path d="M104.612 103.253C108.038 99.8267 108.038 94.2714 104.612 90.8451C101.186 87.4187 95.6304 87.4187 92.204 90.8451C88.7776 94.2714 88.7776 99.8267 92.204 103.253C95.6304 106.679 101.186 106.679 104.612 103.253Z" fill="#D68266"/>
<g opacity="0.7">
<path d="M101.737 94.574C101.737 96.5744 100.25 98.4642 98.4181 98.4642C96.5862 98.4642 95.0964 96.5744 95.0964 94.574C95.0964 92.5736 96.5835 91.2181 98.4181 91.2181C100.253 91.2181 101.737 92.571 101.737 94.574Z" fill="#EBC1B3"/>
<path d="M98.4184 87.0732C92.9096 87.0732 88.4298 91.553 88.4298 97.0619C88.4298 102.571 92.9096 107.05 98.4184 107.05C103.927 107.05 108.407 102.571 108.407 97.0619C108.407 91.553 103.927 87.0732 98.4184 87.0732ZM104.317 103.41C104.119 101.447 103.038 99.7544 101.493 98.778C100.714 99.6913 99.6502 100.286 98.479 100.286C97.3077 100.286 96.2049 99.6702 95.4232 98.7306C93.836 99.6992 92.7201 101.413 92.5174 103.408C90.8145 101.823 89.7458 99.5649 89.7458 97.0592C89.7458 92.2768 93.636 88.3866 98.4184 88.3866C103.201 88.3866 107.091 92.2768 107.091 97.0592C107.091 99.5649 106.022 101.826 104.317 103.41Z" fill="#EBC1B3"/>
</g>
<ellipse cx="178.192" cy="95.4872" rx="21.6923" ry="21.6923" fill="#B5D8F0"/>
<ellipse cx="178.192" cy="95.4872" rx="16.8718" ry="16.8718" fill="white"/>
<path d="M178.902 94.0143C175.862 93.2242 174.885 92.4074 174.885 91.1353C174.885 89.6758 176.237 88.6581 178.5 88.6581C180.884 88.6581 181.768 89.7963 181.848 91.4701H184.807C184.713 89.167 183.307 87.0513 180.509 86.3684V83.4359H176.492V86.3282C173.894 86.8906 171.805 88.5778 171.805 91.1621C171.805 94.2553 174.363 95.7952 178.099 96.6923C181.446 97.4957 182.116 98.6741 182.116 99.9194C182.116 100.843 181.46 102.316 178.5 102.316C175.742 102.316 174.657 101.084 174.51 99.5043H171.564C171.725 102.437 173.921 104.084 176.492 104.633V107.538H180.509V104.66C183.12 104.164 185.195 102.651 185.195 99.906C185.195 96.1032 181.942 94.8043 178.902 94.0143Z" fill="#0A2E57"/>
<defs>
<filter id="filter0_d_683_1127" x="108.949" y="31.641" width="139.692" height="139.692" filterUnits="userSpaceOnUse" color-interpolation-filters="sRGB">
<feFlood flood-opacity="0" result="BackgroundImageFix"/>
<feColorMatrix in="SourceAlpha" type="matrix" values="0 0 0 0 0 0 0 0 0 0 0 0 0 0 0 0 0 0 127 0" result="hardAlpha"/>
<feOffset dy="6"/>
<feGaussianBlur stdDeviation="6"/>
<feComposite in2="hardAlpha" operator="out"/>
<feColorMatrix type="matrix" values="0 0 0 0 0.0392157 0 0 0 0 0.180392 0 0 0 0 0.341176 0 0 0 0.1 0"/>
<feBlend mode="normal" in2="BackgroundImageFix" result="effect1_dropShadow_683_1127"/>
<feBlend mode="normal" in="SourceGraphic" in2="effect1_dropShadow_683_1127" result="shape"/>
</filter>
<linearGradient id="paint0_linear_683_1127" x1="113.115" y1="15.0449" x2="193.859" y2="106.635" gradientUnits="userSpaceOnUse">
<stop offset="0.09375" stop-color="white"/>
<stop offset="1" stop-color="#B5D8F0"/>
</linearGradient>
<linearGradient id="paint1_linear_683_1127" x1="323.199" y1="142.941" x2="38.9862" y2="79.4088" gradientUnits="userSpaceOnUse">
<stop stop-color="#0A2E57"/>
<stop offset="1" stop-color="#26B67F"/>
</linearGradient>
</defs>
</svg>
