<svg width="707" height="388" viewBox="0 0 707 388" fill="none" xmlns="http://www.w3.org/2000/svg">
<path d="M688.545 7.23702L31.7046 276.164C28.1239 277.63 25.4698 280.733 24.576 284.497L3.50756 373.228C1.71757 380.766 7.43472 388 15.183 388H694.938C701.59 388 706.972 382.59 706.938 375.938L705.092 18.2804C705.048 9.77584 696.416 4.01463 688.545 7.23702Z" fill="#0A2E57"/>
<g opacity="0.3">
<path fill-rule="evenodd" clip-rule="evenodd" d="M111.707 254.919C109.921 254.411 108.062 255.448 107.554 257.234L71.9188 382.654C71.4113 384.44 72.4478 386.3 74.2337 386.807C76.0197 387.314 77.8789 386.278 78.3863 384.492L114.022 259.071C114.529 257.285 113.493 255.426 111.707 254.919Z" fill="#082546"/>
<path fill-rule="evenodd" clip-rule="evenodd" d="M523.707 116.919C521.921 116.411 520.062 117.448 519.554 119.234L483.919 244.654C483.411 246.44 484.448 248.3 486.234 248.807C488.02 249.314 489.879 248.278 490.386 246.492L526.022 121.071C526.529 119.285 525.493 117.426 523.707 116.919Z" fill="#082546"/>
<path fill-rule="evenodd" clip-rule="evenodd" d="M147.729 240.157C145.943 239.649 144.084 240.686 143.576 242.472L107.941 367.892C107.433 369.678 108.47 371.537 110.256 372.045C112.042 372.552 113.901 371.516 114.408 369.73L150.044 244.309C150.551 242.523 149.515 240.664 147.729 240.157Z" fill="#082546"/>
<path fill-rule="evenodd" clip-rule="evenodd" d="M285 240.157C283.214 239.649 281.355 240.686 280.847 242.472L245.212 367.892C244.704 369.678 245.741 371.537 247.527 372.045C249.313 372.552 251.172 371.516 251.679 369.73L287.315 244.309C287.822 242.523 286.786 240.664 285 240.157Z" fill="#082546"/>
<path fill-rule="evenodd" clip-rule="evenodd" d="M651.232 218.333C653.823 219.069 655.326 221.766 654.59 224.356L632.714 301.351C631.978 303.941 629.281 305.444 626.69 304.708C624.1 303.972 622.597 301.276 623.333 298.685L645.209 221.691C645.945 219.1 648.642 217.597 651.232 218.333Z" fill="#1355A1"/>
<path fill-rule="evenodd" clip-rule="evenodd" d="M693.309 72.3216C695.9 73.0576 697.403 75.7543 696.667 78.3448L674.791 155.339C674.055 157.93 671.358 159.433 668.767 158.697C666.177 157.961 664.674 155.264 665.41 152.674L687.286 75.6794C688.022 73.0889 690.719 71.5856 693.309 72.3216Z" fill="#1355A1"/>
<path fill-rule="evenodd" clip-rule="evenodd" d="M610.793 52.6763C612.205 53.0777 613.025 54.5487 612.624 55.9616L575.883 185.273C575.481 186.686 574.011 187.506 572.598 187.105C571.185 186.703 570.365 185.232 570.766 183.819L607.507 54.5078C607.909 53.0948 609.38 52.2748 610.793 52.6763Z" fill="#1355A1"/>
<path fill-rule="evenodd" clip-rule="evenodd" d="M316.365 237.868C319.426 238.738 321.203 241.925 320.333 244.986L304.579 300.433C303.709 303.495 300.522 305.271 297.461 304.402C294.399 303.532 292.622 300.345 293.492 297.283L309.246 241.836C310.116 238.775 313.303 236.998 316.365 237.868Z" fill="#1355A1"/>
<path fill-rule="evenodd" clip-rule="evenodd" d="M570.472 237.868C573.533 238.738 575.31 241.925 574.44 244.986L558.686 300.433C557.816 303.495 554.629 305.271 551.568 304.402C548.506 303.532 546.73 300.345 547.6 297.283L563.354 241.836C564.224 238.775 567.41 236.998 570.472 237.868Z" fill="#1355A1"/>
<path fill-rule="evenodd" clip-rule="evenodd" d="M56.4474 300.575C59.5089 301.445 61.2856 304.632 60.4157 307.693L44.6617 363.14C43.7919 366.202 40.6049 367.978 37.5434 367.109C34.4819 366.239 32.7053 363.052 33.5751 359.99L49.3291 304.543C50.199 301.482 53.386 299.705 56.4474 300.575Z" fill="#1355A1"/>
<path fill-rule="evenodd" clip-rule="evenodd" d="M169.328 241.156C169.917 241.323 170.259 241.936 170.092 242.525L131.34 378.912C131.173 379.501 130.56 379.843 129.971 379.676C129.382 379.508 129.041 378.895 129.208 378.307L167.959 241.919C168.127 241.33 168.74 240.988 169.328 241.156Z" fill="#082546"/>
<path fill-rule="evenodd" clip-rule="evenodd" d="M522.404 309.18C528.409 310.886 531.894 317.137 530.188 323.143L516.93 369.805C515.223 375.81 508.972 379.295 502.967 377.589C496.962 375.883 493.477 369.631 495.183 363.626L508.441 316.964C510.147 310.958 516.399 307.473 522.404 309.18Z" fill="#082546"/>
<path fill-rule="evenodd" clip-rule="evenodd" d="M92.3414 332.691C95.6282 333.625 97.5357 337.046 96.6018 340.333L87.5937 372.038C86.6598 375.325 83.2382 377.232 79.9513 376.298C76.6645 375.364 74.757 371.943 75.6909 368.656L84.699 336.951C85.6329 333.665 89.0545 331.757 92.3414 332.691Z" fill="#1355A1"/>
<path fill-rule="evenodd" clip-rule="evenodd" d="M658.341 312.691C661.628 313.625 663.535 317.046 662.601 320.333L653.593 352.038C652.659 355.325 649.238 357.232 645.951 356.298C642.664 355.364 640.757 351.943 641.691 348.656L650.699 316.951C651.633 313.665 655.054 311.757 658.341 312.691Z" fill="#1355A1"/>
<path fill-rule="evenodd" clip-rule="evenodd" d="M390.1 325.609C393.387 326.542 395.294 329.964 394.361 333.251L385.352 364.955C384.419 368.242 380.997 370.15 377.71 369.216C374.423 368.282 372.516 364.86 373.45 361.573L382.458 329.869C383.392 326.582 386.813 324.675 390.1 325.609Z" fill="#1355A1"/>
<path fill-rule="evenodd" clip-rule="evenodd" d="M225.586 240.492C226.292 240.693 226.702 241.429 226.502 242.135L190.167 370.015C189.966 370.722 189.231 371.132 188.524 370.931C187.818 370.73 187.408 369.995 187.609 369.288L223.943 241.408C224.144 240.702 224.879 240.292 225.586 240.492Z" fill="#082546"/>
<path fill-rule="evenodd" clip-rule="evenodd" d="M481.409 226.231C482.115 226.431 482.525 227.167 482.324 227.873L445.99 355.753C445.789 356.46 445.054 356.87 444.347 356.669C443.641 356.469 443.231 355.733 443.431 355.027L479.766 227.146C479.967 226.44 480.702 226.03 481.409 226.231Z" fill="#082546"/>
<path fill-rule="evenodd" clip-rule="evenodd" d="M647.595 30.9002C647.83 30.9671 647.967 31.2123 647.9 31.4478L591.116 231.303C591.049 231.539 590.804 231.675 590.568 231.608C590.333 231.541 590.196 231.296 590.263 231.061L647.047 31.2055C647.114 30.97 647.359 30.8333 647.595 30.9002Z" fill="#1355A1"/>
<path fill-rule="evenodd" clip-rule="evenodd" d="M273.292 179.884C273.527 179.951 273.664 180.196 273.597 180.432L216.813 380.287C216.746 380.523 216.501 380.659 216.265 380.592C216.03 380.526 215.893 380.28 215.96 380.045L272.744 180.19C272.811 179.954 273.056 179.817 273.292 179.884Z" fill="#1355A1"/>
<path fill-rule="evenodd" clip-rule="evenodd" d="M487.4 119.884C487.635 119.951 487.772 120.196 487.705 120.432L430.92 320.287C430.854 320.523 430.608 320.659 430.373 320.592C430.137 320.526 430.001 320.28 430.068 320.045L486.852 120.19C486.919 119.954 487.164 119.817 487.4 119.884Z" fill="#1355A1"/>
<path fill-rule="evenodd" clip-rule="evenodd" d="M344.515 256.274C344.75 256.341 344.91 256.505 344.872 256.64L312.346 371.115C312.308 371.25 312.086 371.305 311.85 371.238C311.615 371.172 311.455 371.008 311.493 370.873L344.019 256.397C344.058 256.262 344.28 256.207 344.515 256.274Z" fill="#1355A1"/>
<path fill-rule="evenodd" clip-rule="evenodd" d="M598.623 256.274C598.858 256.341 599.023 256.488 598.99 256.603L571.316 354.003C571.283 354.118 571.066 354.157 570.83 354.09C570.595 354.023 570.43 353.876 570.463 353.761L598.137 256.361C598.17 256.246 598.387 256.207 598.623 256.274Z" fill="#1355A1"/>
<path fill-rule="evenodd" clip-rule="evenodd" d="M390.271 185.616C391.801 186.051 392.69 187.645 392.255 189.175L348.957 341.564C348.522 343.095 346.929 343.983 345.398 343.548C343.867 343.113 342.979 341.52 343.414 339.989L386.712 187.6C387.146 186.07 388.74 185.181 390.271 185.616Z" fill="#082546"/>
<path fill-rule="evenodd" clip-rule="evenodd" d="M644.378 185.616C645.909 186.051 646.797 187.645 646.363 189.175L603.065 341.564C602.63 343.095 601.036 343.983 599.505 343.548C597.975 343.113 597.086 341.52 597.521 339.989L640.819 187.6C641.254 186.07 642.848 185.181 644.378 185.616Z" fill="#082546"/>
<path fill-rule="evenodd" clip-rule="evenodd" d="M539.721 151.623C541.252 152.058 542.14 153.652 541.705 155.182L498.407 307.571C497.972 309.102 496.379 309.99 494.848 309.555C493.318 309.12 492.429 307.527 492.864 305.996L536.162 153.607C536.597 152.077 538.19 151.188 539.721 151.623Z" fill="#082546"/>
<path fill-rule="evenodd" clip-rule="evenodd" d="M524.644 174.788C526.175 175.223 527.064 176.816 526.629 178.347L483.331 330.736C482.896 332.266 481.302 333.155 479.772 332.72C478.241 332.285 477.353 330.691 477.787 329.161L521.085 176.772C521.52 175.241 523.114 174.353 524.644 174.788Z" fill="#1355A1"/>
<path fill-rule="evenodd" clip-rule="evenodd" d="M454.922 136.015C456.452 136.45 457.341 138.044 456.906 139.574L413.608 291.963C413.173 293.494 411.579 294.382 410.049 293.947C408.518 293.512 407.63 291.919 408.065 290.388L451.362 137.999C451.797 136.469 453.391 135.58 454.922 136.015Z" fill="#082546"/>
<path fill-rule="evenodd" clip-rule="evenodd" d="M217.79 227.485C218.732 227.753 219.279 228.733 219.011 229.675L178.896 370.864C178.628 371.806 177.648 372.352 176.706 372.085C175.764 371.817 175.217 370.836 175.485 369.894L215.6 228.706C215.868 227.764 216.848 227.217 217.79 227.485Z" fill="#1355A1"/>
</g>
<path d="M349.156 51.2654C350.25 51.1122 351.258 51.8884 351.397 52.9842L358.15 106.269C358.289 107.364 357.508 108.364 356.416 108.526C310.355 115.347 275.698 154.742 274.731 201.391C274.708 202.495 273.814 203.396 272.71 203.396H219C217.896 203.396 216.999 202.494 217.013 201.389C217.997 125.748 274.334 61.7437 349.156 51.2654Z" fill="url(#paint0_linear_656_89)"/>
<path d="M358.782 337.426C357.678 337.467 356.755 336.591 356.729 335.487L355.476 281.791C355.451 280.687 356.33 279.772 357.433 279.724C403.951 277.663 442.466 242.031 448.213 195.727C448.349 194.631 449.33 193.826 450.429 193.94L503.855 199.449C504.954 199.562 505.753 200.551 505.626 201.649C496.888 276.79 434.283 334.678 358.782 337.426Z" fill="url(#paint1_linear_656_89)"/>
<ellipse cx="360.5" cy="192" rx="74.5" ry="75" fill="white"/>
<g filter="url(#filter0_d_656_89)">
<path fill-rule="evenodd" clip-rule="evenodd" d="M361 288C414.019 288 457 245.019 457 192C457 138.981 414.019 96 361 96C307.981 96 265 138.981 265 192C265 245.019 307.981 288 361 288ZM360.827 238.811C386.924 238.811 408.08 217.89 408.08 192.083C408.08 166.275 386.924 145.354 360.827 145.354C334.729 145.354 313.573 166.275 313.573 192.083C313.573 217.89 334.729 238.811 360.827 238.811Z" fill="white"/>
</g>
<path d="M357.919 260.97C395.458 262.716 427.31 233.577 429.063 195.887C430.387 167.416 414.158 142.21 389.959 130.829" stroke="#1355A1" stroke-width="12" stroke-linecap="round"/>
<path d="M303.343 227.134C311.7 241.848 325.213 253.163 341.471 258.364" stroke="#6AB1E1" stroke-width="4" stroke-linecap="round"/>
<path d="M376.141 126.471C372.545 125.72 368.841 125.244 365.051 125.068C327.065 123.301 294.858 152.272 293.114 189.776C292.722 198.204 293.901 206.346 296.397 213.924" stroke="#B5D8F0" stroke-width="8" stroke-linecap="round"/>
<circle cx="361.5" cy="195.5" r="132.5" stroke="#1355A1" stroke-width="2" stroke-dasharray="6 4"/>
<path d="M390 344C397.732 336.268 397.732 323.732 390 316C382.268 308.268 369.732 308.268 362 316C354.268 323.732 354.268 336.268 362 344C369.732 351.732 382.268 351.732 390 344Z" fill="#1355A1"/>
<g opacity="0.7">
<path d="M383.515 324.401C383.515 328.915 380.159 333.179 376.026 333.179C371.892 333.179 368.53 328.915 368.53 324.401C368.53 319.887 371.886 316.828 376.026 316.828C380.165 316.828 383.515 319.881 383.515 324.401Z" fill="#6BA8EE"/>
<path d="M376.025 307.475C363.594 307.475 353.485 317.584 353.485 330.016C353.485 342.447 363.594 352.556 376.025 352.556C388.457 352.556 398.566 342.447 398.566 330.016C398.566 317.584 388.457 307.475 376.025 307.475ZM389.336 344.342C388.89 339.911 386.449 336.092 382.963 333.888C381.205 335.949 378.805 337.292 376.162 337.292C373.519 337.292 371.03 335.902 369.266 333.781C365.685 335.967 363.166 339.834 362.709 344.336C358.866 340.76 356.455 335.664 356.455 330.01C356.455 319.218 365.233 310.439 376.025 310.439C386.817 310.439 395.596 319.218 395.596 330.01C395.596 335.664 393.185 340.766 389.336 344.342Z" fill="#6BA8EE"/>
</g>
<path d="M507 231C513.627 224.373 513.627 213.627 507 207C500.373 200.373 489.627 200.373 483 207C476.373 213.627 476.373 224.373 483 231C489.627 237.627 500.373 237.627 507 231Z" fill="#26B67F"/>
<g opacity="0.7">
<path d="M501.441 214.21C501.441 218.079 498.564 221.735 495.021 221.735C491.478 221.735 488.596 218.079 488.596 214.21C488.596 210.341 491.472 207.719 495.021 207.719C498.569 207.719 501.441 210.336 501.441 214.21Z" fill="#CFF5E6"/>
<path d="M495.021 199.703C484.365 199.703 475.701 208.368 475.701 219.023C475.701 229.679 484.365 238.343 495.021 238.343C505.676 238.343 514.341 229.679 514.341 219.023C514.341 208.368 505.676 199.703 495.021 199.703ZM506.43 231.303C506.048 227.505 503.956 224.231 500.967 222.342C499.46 224.109 497.403 225.26 495.138 225.26C492.872 225.26 490.739 224.068 489.227 222.251C486.157 224.124 483.999 227.439 483.607 231.297C480.313 228.233 478.246 223.865 478.246 219.018C478.246 209.768 485.771 202.243 495.021 202.243C504.271 202.243 511.796 209.768 511.796 219.018C511.796 223.865 509.729 228.238 506.43 231.303Z" fill="#CFF5E6"/>
</g>
<path d="M349.888 71.888C355.574 66.2017 355.574 56.9824 349.888 51.296C344.202 45.6097 334.982 45.6097 329.296 51.296C323.61 56.9824 323.61 66.2017 329.296 71.888C334.982 77.5744 344.202 77.5744 349.888 71.888Z" fill="#FCF0D8"/>
<g opacity="0.7">
<path d="M345.117 57.4845C345.117 60.8042 342.649 63.9405 339.609 63.9405C336.568 63.9405 334.096 60.8042 334.096 57.4845C334.096 54.1647 336.564 51.9152 339.609 51.9152C342.653 51.9152 345.117 54.1604 345.117 57.4845Z" fill="#F5C164"/>
<path d="M339.609 45.0363C330.467 45.0363 323.032 52.4707 323.032 61.6131C323.032 70.7555 330.467 78.19 339.609 78.19C348.751 78.19 356.186 70.7555 356.186 61.6131C356.186 52.4707 348.751 45.0363 339.609 45.0363ZM349.398 72.1489C349.07 68.8903 347.275 66.0816 344.711 64.4611C343.418 65.9768 341.653 66.964 339.71 66.964C337.766 66.964 335.936 65.9419 334.638 64.3825C332.004 65.9899 330.152 68.8335 329.816 72.1445C326.99 69.515 325.216 65.7671 325.216 61.6087C325.216 53.6719 331.672 47.2159 339.609 47.2159C347.546 47.2159 354.002 53.6719 354.002 61.6087C354.002 65.7671 352.228 69.5193 349.398 72.1489Z" fill="#F2B23D"/>
</g>
<path d="M237.888 204.888C243.574 199.202 243.574 189.982 237.888 184.296C232.202 178.61 222.982 178.61 217.296 184.296C211.61 189.982 211.61 199.202 217.296 204.888C222.982 210.574 232.202 210.574 237.888 204.888Z" fill="#D68266"/>
<g opacity="0.7">
<path d="M233.117 190.485C233.117 193.804 230.649 196.941 227.609 196.941C224.569 196.941 222.096 193.804 222.096 190.485C222.096 187.165 224.564 184.915 227.609 184.915C230.653 184.915 233.117 187.16 233.117 190.485Z" fill="#EBC1B3"/>
<path d="M227.609 178.036C218.467 178.036 211.032 185.471 211.032 194.613C211.032 203.756 218.467 211.19 227.609 211.19C236.752 211.19 244.186 203.756 244.186 194.613C244.186 185.471 236.752 178.036 227.609 178.036ZM237.398 205.149C237.071 201.89 235.275 199.082 232.711 197.461C231.418 198.977 229.654 199.964 227.71 199.964C225.766 199.964 223.936 198.942 222.638 197.383C220.005 198.99 218.152 201.834 217.816 205.145C214.99 202.515 213.217 198.767 213.217 194.609C213.217 186.672 219.673 180.216 227.609 180.216C235.546 180.216 242.002 186.672 242.002 194.609C242.002 198.767 240.229 202.519 237.398 205.149Z" fill="#EBC1B3"/>
</g>
<circle cx="360" cy="192" r="36" fill="#B5D8F0"/>
<circle cx="360" cy="192" r="28" fill="white"/>
<path d="M361.178 189.556C356.133 188.244 354.511 186.889 354.511 184.778C354.511 182.356 356.756 180.667 360.511 180.667C364.467 180.667 365.933 182.556 366.067 185.333H370.978C370.822 181.511 368.489 178 363.844 176.867V172H357.178V176.8C352.867 177.733 349.4 180.533 349.4 184.822C349.4 189.956 353.644 192.511 359.844 194C365.4 195.333 366.511 197.289 366.511 199.356C366.511 200.889 365.422 203.333 360.511 203.333C355.933 203.333 354.133 201.289 353.889 198.667H349C349.267 203.533 352.911 206.267 357.178 207.178V212H363.844V207.222C368.178 206.4 371.622 203.889 371.622 199.333C371.622 193.022 366.222 190.867 361.178 189.556Z" fill="#0A2E57"/>
<defs>
<filter id="filter0_d_656_89" x="253" y="90" width="216" height="216" filterUnits="userSpaceOnUse" color-interpolation-filters="sRGB">
<feFlood flood-opacity="0" result="BackgroundImageFix"/>
<feColorMatrix in="SourceAlpha" type="matrix" values="0 0 0 0 0 0 0 0 0 0 0 0 0 0 0 0 0 0 127 0" result="hardAlpha"/>
<feOffset dy="6"/>
<feGaussianBlur stdDeviation="6"/>
<feComposite in2="hardAlpha" operator="out"/>
<feColorMatrix type="matrix" values="0 0 0 0 0.0392157 0 0 0 0 0.180392 0 0 0 0 0.341176 0 0 0 0.1 0"/>
<feBlend mode="normal" in2="BackgroundImageFix" result="effect1_dropShadow_656_89"/>
<feBlend mode="normal" in="SourceGraphic" in2="effect1_dropShadow_656_89" result="shape"/>
</filter>
<linearGradient id="paint0_linear_656_89" x1="252" y1="58.5" x2="386" y2="210.5" gradientUnits="userSpaceOnUse">
<stop offset="0.09375" stop-color="white"/>
<stop offset="1" stop-color="#B5D8F0"/>
</linearGradient>
<linearGradient id="paint1_linear_656_89" x1="600.65" y1="270.753" x2="128.977" y2="165.317" gradientUnits="userSpaceOnUse">
<stop stop-color="#0A2E57"/>
<stop offset="1" stop-color="#26B67F"/>
</linearGradient>
</defs>
</svg>
