<svg width="682" height="160" viewBox="0 0 682 160" fill="none" xmlns="http://www.w3.org/2000/svg">
<g filter="url(#filter0_d_30_233)">
<rect width="599" height="136" rx="8" transform="matrix(1 0 0 -1 12 142)" fill="white"/>
</g>
<path d="M28.5381 25.54H30.0861V34H28.5381V25.54ZM35.1891 27.988C35.8931 27.988 36.4171 28.188 36.7611 28.588C37.1051 28.988 37.2771 29.592 37.2771 30.4V34H35.7771V30.484C35.7771 30.028 35.6891 29.696 35.5131 29.488C35.3451 29.28 35.0771 29.176 34.7091 29.176C34.2771 29.176 33.9291 29.312 33.6651 29.584C33.4091 29.856 33.2811 30.22 33.2811 30.676V34H31.7811V28.132H33.2451V29.008C33.4451 28.68 33.7131 28.428 34.0491 28.252C34.3851 28.076 34.7651 27.988 35.1891 27.988ZM44.3926 28.144L41.8246 34H40.5166L37.9726 28.144H39.5566L41.2126 32.284L42.9166 28.144H44.3926ZM47.6993 34.096C47.0993 34.096 46.5713 33.972 46.1153 33.724C45.6673 33.476 45.3193 33.12 45.0713 32.656C44.8233 32.192 44.6993 31.652 44.6993 31.036C44.6993 30.42 44.8233 29.884 45.0713 29.428C45.3193 28.964 45.6673 28.608 46.1153 28.36C46.5713 28.112 47.0993 27.988 47.6993 27.988C48.2993 27.988 48.8233 28.112 49.2713 28.36C49.7273 28.608 50.0753 28.964 50.3153 29.428C50.5633 29.884 50.6873 30.42 50.6873 31.036C50.6873 31.652 50.5633 32.192 50.3153 32.656C50.0753 33.12 49.7273 33.476 49.2713 33.724C48.8233 33.972 48.2993 34.096 47.6993 34.096ZM47.6873 32.932C48.1753 32.932 48.5473 32.772 48.8033 32.452C49.0593 32.132 49.1873 31.66 49.1873 31.036C49.1873 30.42 49.0593 29.952 48.8033 29.632C48.5473 29.304 48.1793 29.14 47.6993 29.14C47.2193 29.14 46.8473 29.304 46.5833 29.632C46.3273 29.952 46.1993 30.42 46.1993 31.036C46.1993 31.66 46.3273 32.132 46.5833 32.452C46.8393 32.772 47.2073 32.932 47.6873 32.932ZM51.9256 28.132H53.4256V34H51.9256V28.132ZM53.4976 25.408V26.884H51.8416V25.408H53.4976ZM57.6485 34.096C57.0325 34.096 56.4965 33.972 56.0405 33.724C55.5925 33.476 55.2485 33.124 55.0085 32.668C54.7685 32.212 54.6485 31.68 54.6485 31.072C54.6485 30.464 54.7725 29.928 55.0205 29.464C55.2765 28.992 55.6365 28.628 56.1005 28.372C56.5645 28.116 57.1005 27.988 57.7085 27.988C58.1245 27.988 58.5285 28.056 58.9205 28.192C59.3205 28.32 59.6405 28.496 59.8805 28.72L59.4485 29.776C59.2005 29.576 58.9365 29.424 58.6565 29.32C58.3845 29.216 58.1125 29.164 57.8405 29.164C57.3205 29.164 56.9165 29.328 56.6285 29.656C56.3405 29.976 56.1965 30.44 56.1965 31.048C56.1965 31.648 56.3405 32.112 56.6285 32.44C56.9165 32.76 57.3205 32.92 57.8405 32.92C58.1125 32.92 58.3845 32.868 58.6565 32.764C58.9365 32.66 59.2005 32.508 59.4485 32.308L59.8805 33.352C59.6245 33.584 59.2965 33.768 58.8965 33.904C58.4965 34.032 58.0805 34.096 57.6485 34.096ZM65.9799 31.336H61.9839C62.0319 31.88 62.1959 32.284 62.4759 32.548C62.7559 32.812 63.1559 32.944 63.6759 32.944C64.3239 32.944 64.9159 32.736 65.4519 32.32L65.8839 33.352C65.6119 33.576 65.2679 33.756 64.8519 33.892C64.4439 34.028 64.0319 34.096 63.6159 34.096C62.6559 34.096 61.8959 33.824 61.3359 33.28C60.7839 32.736 60.5079 31.992 60.5079 31.048C60.5079 30.448 60.6279 29.916 60.8679 29.452C61.1079 28.988 61.4439 28.628 61.8759 28.372C62.3159 28.116 62.8119 27.988 63.3639 27.988C64.1719 27.988 64.8079 28.248 65.2719 28.768C65.7439 29.288 65.9799 30.004 65.9799 30.916V31.336ZM63.3999 29.044C62.9999 29.044 62.6759 29.172 62.4279 29.428C62.1879 29.684 62.0399 30.052 61.9839 30.532H64.6959C64.6799 30.044 64.5599 29.676 64.3359 29.428C64.1119 29.172 63.7999 29.044 63.3999 29.044ZM77.7367 25.54V34H76.5727L72.0367 28.096V34H70.5967V25.54H71.7487L76.2847 31.432V25.54H77.7367ZM84.8175 28.132V34H83.3535V33.1C83.1695 33.42 82.9215 33.668 82.6095 33.844C82.2975 34.012 81.9455 34.096 81.5535 34.096C80.1135 34.096 79.3935 33.288 79.3935 31.672V28.132H80.8935V31.684C80.8935 32.1 80.9775 32.408 81.1455 32.608C81.3135 32.808 81.5775 32.908 81.9375 32.908C82.3535 32.908 82.6855 32.772 82.9335 32.5C83.1895 32.22 83.3175 31.852 83.3175 31.396V28.132H84.8175ZM93.3508 27.988C94.0148 27.988 94.5108 28.188 94.8388 28.588C95.1668 28.98 95.3308 29.584 95.3308 30.4V34H93.8308V30.46C93.8308 30.012 93.7548 29.688 93.6028 29.488C93.4508 29.28 93.2068 29.176 92.8708 29.176C92.4708 29.176 92.1588 29.312 91.9348 29.584C91.7108 29.856 91.5988 30.236 91.5988 30.724V34H90.0988V30.46C90.0988 30.012 90.0228 29.688 89.8708 29.488C89.7268 29.28 89.4828 29.176 89.1388 29.176C88.7468 29.176 88.4388 29.312 88.2148 29.584C87.9908 29.856 87.8788 30.236 87.8788 30.724V34H86.3788V28.132H87.8428V28.96C88.0188 28.64 88.2628 28.4 88.5748 28.24C88.8868 28.072 89.2428 27.988 89.6428 27.988C90.5308 27.988 91.1188 28.356 91.4068 29.092C91.5908 28.748 91.8548 28.48 92.1988 28.288C92.5428 28.088 92.9268 27.988 93.3508 27.988ZM100.227 27.988C100.739 27.988 101.191 28.112 101.583 28.36C101.975 28.608 102.279 28.96 102.495 29.416C102.719 29.872 102.831 30.404 102.831 31.012C102.831 31.62 102.719 32.16 102.495 32.632C102.279 33.096 101.971 33.456 101.571 33.712C101.179 33.968 100.731 34.096 100.227 34.096C99.8033 34.096 99.4233 34.004 99.0873 33.82C98.7593 33.636 98.5073 33.38 98.3313 33.052V34H96.8553V25.54H98.3553V28.984C98.5313 28.664 98.7833 28.42 99.1113 28.252C99.4393 28.076 99.8113 27.988 100.227 27.988ZM99.8313 32.932C100.303 32.932 100.671 32.764 100.935 32.428C101.199 32.092 101.331 31.62 101.331 31.012C101.331 30.412 101.199 29.952 100.935 29.632C100.679 29.312 100.311 29.152 99.8313 29.152C99.3513 29.152 98.9793 29.316 98.7153 29.644C98.4593 29.964 98.3313 30.428 98.3313 31.036C98.3313 31.644 98.4593 32.112 98.7153 32.44C98.9793 32.768 99.3513 32.932 99.8313 32.932ZM109.21 31.336H105.214C105.262 31.88 105.426 32.284 105.706 32.548C105.986 32.812 106.386 32.944 106.906 32.944C107.554 32.944 108.146 32.736 108.682 32.32L109.114 33.352C108.842 33.576 108.498 33.756 108.082 33.892C107.674 34.028 107.262 34.096 106.846 34.096C105.886 34.096 105.126 33.824 104.566 33.28C104.014 32.736 103.738 31.992 103.738 31.048C103.738 30.448 103.858 29.916 104.098 29.452C104.338 28.988 104.674 28.628 105.106 28.372C105.546 28.116 106.042 27.988 106.594 27.988C107.402 27.988 108.038 28.248 108.502 28.768C108.974 29.288 109.21 30.004 109.21 30.916V31.336ZM106.63 29.044C106.23 29.044 105.906 29.172 105.658 29.428C105.418 29.684 105.27 30.052 105.214 30.532H107.926C107.91 30.044 107.79 29.676 107.566 29.428C107.342 29.172 107.03 29.044 106.63 29.044ZM114.301 29.236L113.425 29.32C112.433 29.424 111.937 29.928 111.937 30.832V34H110.437V28.132H111.865V29.164C112.169 28.46 112.797 28.076 113.749 28.012L114.205 27.976L114.301 29.236Z" fill="#0A2E57"/>
<path d="M246.538 25.54H249.658C251.042 25.54 252.114 25.912 252.874 26.656C253.642 27.392 254.026 28.428 254.026 29.764C254.026 31.1 253.642 32.14 252.874 32.884C252.114 33.628 251.042 34 249.658 34H246.538V25.54ZM249.562 32.74C251.506 32.74 252.478 31.748 252.478 29.764C252.478 27.788 251.506 26.8 249.562 26.8H248.086V32.74H249.562ZM260.841 28.132V34H259.377V33.1C259.193 33.42 258.945 33.668 258.633 33.844C258.321 34.012 257.969 34.096 257.577 34.096C256.137 34.096 255.417 33.288 255.417 31.672V28.132H256.917V31.684C256.917 32.1 257.001 32.408 257.169 32.608C257.337 32.808 257.601 32.908 257.961 32.908C258.377 32.908 258.709 32.772 258.957 32.5C259.213 32.22 259.341 31.852 259.341 31.396V28.132H260.841ZM267.55 31.336H263.554C263.602 31.88 263.766 32.284 264.046 32.548C264.326 32.812 264.726 32.944 265.246 32.944C265.894 32.944 266.486 32.736 267.022 32.32L267.454 33.352C267.182 33.576 266.838 33.756 266.422 33.892C266.014 34.028 265.602 34.096 265.186 34.096C264.226 34.096 263.466 33.824 262.906 33.28C262.354 32.736 262.078 31.992 262.078 31.048C262.078 30.448 262.198 29.916 262.438 29.452C262.678 28.988 263.014 28.628 263.446 28.372C263.886 28.116 264.382 27.988 264.934 27.988C265.742 27.988 266.378 28.248 266.842 28.768C267.314 29.288 267.55 30.004 267.55 30.916V31.336ZM264.97 29.044C264.57 29.044 264.246 29.172 263.998 29.428C263.758 29.684 263.61 30.052 263.554 30.532H266.266C266.25 30.044 266.13 29.676 265.906 29.428C265.682 29.172 265.37 29.044 264.97 29.044ZM272.167 25.54H275.287C276.671 25.54 277.743 25.912 278.503 26.656C279.271 27.392 279.655 28.428 279.655 29.764C279.655 31.1 279.271 32.14 278.503 32.884C277.743 33.628 276.671 34 275.287 34H272.167V25.54ZM275.191 32.74C277.135 32.74 278.107 31.748 278.107 29.764C278.107 27.788 277.135 26.8 275.191 26.8H273.715V32.74H275.191ZM283.602 27.988C284.426 27.988 285.038 28.188 285.438 28.588C285.838 28.988 286.038 29.604 286.038 30.436V34H284.61V33.1C284.474 33.412 284.258 33.656 283.962 33.832C283.674 34.008 283.338 34.096 282.954 34.096C282.562 34.096 282.206 34.016 281.886 33.856C281.566 33.696 281.314 33.476 281.13 33.196C280.946 32.916 280.854 32.604 280.854 32.26C280.854 31.828 280.962 31.488 281.178 31.24C281.402 30.992 281.762 30.812 282.258 30.7C282.754 30.588 283.438 30.532 284.31 30.532H284.61V30.256C284.61 29.856 284.522 29.568 284.346 29.392C284.178 29.216 283.894 29.128 283.494 29.128C283.182 29.128 282.854 29.184 282.51 29.296C282.174 29.4 281.842 29.548 281.514 29.74L281.094 28.708C281.422 28.5 281.818 28.328 282.282 28.192C282.746 28.056 283.186 27.988 283.602 27.988ZM283.254 33.016C283.654 33.016 283.978 32.884 284.226 32.62C284.482 32.348 284.61 32 284.61 31.576V31.324H284.394C283.858 31.324 283.442 31.348 283.146 31.396C282.85 31.444 282.638 31.528 282.51 31.648C282.382 31.768 282.318 31.932 282.318 32.14C282.318 32.396 282.406 32.608 282.582 32.776C282.758 32.936 282.982 33.016 283.254 33.016ZM290.562 32.968C290.738 32.968 290.922 32.956 291.114 32.932L291.042 34.048C290.802 34.072 290.582 34.084 290.382 34.084C289.558 34.084 288.95 33.896 288.558 33.52C288.166 33.136 287.97 32.568 287.97 31.816V29.26H286.842V28.132H287.97V26.38H289.47V28.132H291.018V29.26H289.47V31.792C289.47 32.576 289.834 32.968 290.562 32.968ZM297.14 31.336H293.144C293.192 31.88 293.356 32.284 293.636 32.548C293.916 32.812 294.316 32.944 294.836 32.944C295.484 32.944 296.076 32.736 296.612 32.32L297.044 33.352C296.772 33.576 296.428 33.756 296.012 33.892C295.604 34.028 295.192 34.096 294.776 34.096C293.816 34.096 293.056 33.824 292.496 33.28C291.944 32.736 291.668 31.992 291.668 31.048C291.668 30.448 291.788 29.916 292.028 29.452C292.268 28.988 292.604 28.628 293.036 28.372C293.476 28.116 293.972 27.988 294.524 27.988C295.332 27.988 295.968 28.248 296.432 28.768C296.904 29.288 297.14 30.004 297.14 30.916V31.336ZM294.56 29.044C294.16 29.044 293.836 29.172 293.588 29.428C293.348 29.684 293.2 30.052 293.144 30.532H295.856C295.84 30.044 295.72 29.676 295.496 29.428C295.272 29.172 294.96 29.044 294.56 29.044Z" fill="#0A2E57"/>
<path d="M470.154 32.02H466.038L465.186 34H463.626L467.454 25.54H468.714L472.542 34H471.006L470.154 32.02ZM469.638 30.82L468.09 27.22L466.542 30.82H469.638ZM480.284 27.988C480.948 27.988 481.444 28.188 481.772 28.588C482.1 28.98 482.264 29.584 482.264 30.4V34H480.764V30.46C480.764 30.012 480.688 29.688 480.536 29.488C480.384 29.28 480.14 29.176 479.804 29.176C479.404 29.176 479.092 29.312 478.868 29.584C478.644 29.856 478.532 30.236 478.532 30.724V34H477.032V30.46C477.032 30.012 476.956 29.688 476.804 29.488C476.66 29.28 476.416 29.176 476.072 29.176C475.68 29.176 475.372 29.312 475.148 29.584C474.924 29.856 474.812 30.236 474.812 30.724V34H473.312V28.132H474.776V28.96C474.952 28.64 475.196 28.4 475.508 28.24C475.82 28.072 476.176 27.988 476.576 27.988C477.464 27.988 478.052 28.356 478.34 29.092C478.524 28.748 478.788 28.48 479.132 28.288C479.476 28.088 479.86 27.988 480.284 27.988ZM486.465 34.096C485.865 34.096 485.337 33.972 484.881 33.724C484.433 33.476 484.085 33.12 483.837 32.656C483.589 32.192 483.465 31.652 483.465 31.036C483.465 30.42 483.589 29.884 483.837 29.428C484.085 28.964 484.433 28.608 484.881 28.36C485.337 28.112 485.865 27.988 486.465 27.988C487.065 27.988 487.589 28.112 488.037 28.36C488.493 28.608 488.841 28.964 489.081 29.428C489.329 29.884 489.453 30.42 489.453 31.036C489.453 31.652 489.329 32.192 489.081 32.656C488.841 33.12 488.493 33.476 488.037 33.724C487.589 33.972 487.065 34.096 486.465 34.096ZM486.453 32.932C486.941 32.932 487.313 32.772 487.569 32.452C487.825 32.132 487.953 31.66 487.953 31.036C487.953 30.42 487.825 29.952 487.569 29.632C487.313 29.304 486.945 29.14 486.465 29.14C485.985 29.14 485.613 29.304 485.349 29.632C485.093 29.952 484.965 30.42 484.965 31.036C484.965 31.66 485.093 32.132 485.349 32.452C485.605 32.772 485.973 32.932 486.453 32.932ZM496.079 28.132V34H494.615V33.1C494.431 33.42 494.183 33.668 493.871 33.844C493.559 34.012 493.207 34.096 492.815 34.096C491.375 34.096 490.655 33.288 490.655 31.672V28.132H492.155V31.684C492.155 32.1 492.239 32.408 492.407 32.608C492.575 32.808 492.839 32.908 493.199 32.908C493.615 32.908 493.947 32.772 494.195 32.5C494.451 32.22 494.579 31.852 494.579 31.396V28.132H496.079ZM501.048 27.988C501.752 27.988 502.276 28.188 502.62 28.588C502.964 28.988 503.136 29.592 503.136 30.4V34H501.636V30.484C501.636 30.028 501.548 29.696 501.372 29.488C501.204 29.28 500.936 29.176 500.568 29.176C500.136 29.176 499.788 29.312 499.524 29.584C499.268 29.856 499.14 30.22 499.14 30.676V34H497.64V28.132H499.104V29.008C499.304 28.68 499.572 28.428 499.908 28.252C500.244 28.076 500.624 27.988 501.048 27.988ZM507.66 32.968C507.836 32.968 508.02 32.956 508.212 32.932L508.14 34.048C507.9 34.072 507.68 34.084 507.48 34.084C506.656 34.084 506.048 33.896 505.656 33.52C505.264 33.136 505.068 32.568 505.068 31.816V29.26H503.94V28.132H505.068V26.38H506.568V28.132H508.116V29.26H506.568V31.792C506.568 32.576 506.932 32.968 507.66 32.968ZM512.48 25.54H515.6C516.984 25.54 518.056 25.912 518.816 26.656C519.584 27.392 519.968 28.428 519.968 29.764C519.968 31.1 519.584 32.14 518.816 32.884C518.056 33.628 516.984 34 515.6 34H512.48V25.54ZM515.504 32.74C517.448 32.74 518.42 31.748 518.42 29.764C518.42 27.788 517.448 26.8 515.504 26.8H514.028V32.74H515.504ZM526.782 28.132V34H525.318V33.1C525.134 33.42 524.886 33.668 524.574 33.844C524.262 34.012 523.91 34.096 523.518 34.096C522.078 34.096 521.358 33.288 521.358 31.672V28.132H522.858V31.684C522.858 32.1 522.942 32.408 523.11 32.608C523.278 32.808 523.542 32.908 523.902 32.908C524.318 32.908 524.65 32.772 524.898 32.5C525.154 32.22 525.282 31.852 525.282 31.396V28.132H526.782ZM533.492 31.336H529.496C529.544 31.88 529.708 32.284 529.988 32.548C530.268 32.812 530.668 32.944 531.188 32.944C531.836 32.944 532.428 32.736 532.964 32.32L533.396 33.352C533.124 33.576 532.78 33.756 532.364 33.892C531.956 34.028 531.544 34.096 531.128 34.096C530.168 34.096 529.408 33.824 528.848 33.28C528.296 32.736 528.02 31.992 528.02 31.048C528.02 30.448 528.14 29.916 528.38 29.452C528.62 28.988 528.956 28.628 529.388 28.372C529.828 28.116 530.324 27.988 530.876 27.988C531.684 27.988 532.32 28.248 532.784 28.768C533.256 29.288 533.492 30.004 533.492 30.916V31.336ZM530.912 29.044C530.512 29.044 530.188 29.172 529.94 29.428C529.7 29.684 529.552 30.052 529.496 30.532H532.208C532.192 30.044 532.072 29.676 531.848 29.428C531.624 29.172 531.312 29.044 530.912 29.044Z" fill="#0A2E57"/>
<path d="M33.2181 56.336L32.6781 59.108H34.1661V59.816H32.5461L32.1141 62H31.3581L31.7781 59.816H29.8701L29.4501 62H28.6821L29.1141 59.816H28.0461V59.108H29.2461L29.7861 56.336H28.2861V55.628H29.9301L30.3381 53.54H31.0941L30.6861 55.628H32.5941L33.0021 53.54H33.7701L33.3621 55.628H34.4061V56.336H33.2181ZM32.4621 56.336H30.5541L30.0141 59.108H31.9221L32.4621 56.336ZM38.4214 62.096C37.4534 62.096 36.7174 61.728 36.2134 60.992C35.7094 60.256 35.4574 59.184 35.4574 57.776C35.4574 56.36 35.7094 55.284 36.2134 54.548C36.7174 53.812 37.4534 53.444 38.4214 53.444C39.3894 53.444 40.1254 53.812 40.6294 54.548C41.1334 55.276 41.3854 56.348 41.3854 57.764C41.3854 59.18 41.1334 60.256 40.6294 60.992C40.1254 61.728 39.3894 62.096 38.4214 62.096ZM38.4214 61.268C39.0934 61.268 39.5894 60.984 39.9094 60.416C40.2294 59.848 40.3894 58.964 40.3894 57.764C40.3894 56.556 40.2294 55.676 39.9094 55.124C39.5974 54.564 39.1014 54.284 38.4214 54.284C37.7494 54.284 37.2534 54.564 36.9334 55.124C36.6134 55.684 36.4534 56.564 36.4534 57.764C36.4534 58.964 36.6134 59.848 36.9334 60.416C37.2534 60.984 37.7494 61.268 38.4214 61.268ZM45.6167 62.096C44.6487 62.096 43.9127 61.728 43.4087 60.992C42.9047 60.256 42.6527 59.184 42.6527 57.776C42.6527 56.36 42.9047 55.284 43.4087 54.548C43.9127 53.812 44.6487 53.444 45.6167 53.444C46.5847 53.444 47.3207 53.812 47.8247 54.548C48.3287 55.276 48.5807 56.348 48.5807 57.764C48.5807 59.18 48.3287 60.256 47.8247 60.992C47.3207 61.728 46.5847 62.096 45.6167 62.096ZM45.6167 61.268C46.2887 61.268 46.7847 60.984 47.1047 60.416C47.4247 59.848 47.5847 58.964 47.5847 57.764C47.5847 56.556 47.4247 55.676 47.1047 55.124C46.7927 54.564 46.2967 54.284 45.6167 54.284C44.9447 54.284 44.4487 54.564 44.1287 55.124C43.8087 55.684 43.6487 56.564 43.6487 57.764C43.6487 58.964 43.8087 59.848 44.1287 60.416C44.4487 60.984 44.9447 61.268 45.6167 61.268ZM52.812 62.096C51.844 62.096 51.108 61.728 50.604 60.992C50.1 60.256 49.848 59.184 49.848 57.776C49.848 56.36 50.1 55.284 50.604 54.548C51.108 53.812 51.844 53.444 52.812 53.444C53.78 53.444 54.516 53.812 55.02 54.548C55.524 55.276 55.776 56.348 55.776 57.764C55.776 59.18 55.524 60.256 55.02 60.992C54.516 61.728 53.78 62.096 52.812 62.096ZM52.812 61.268C53.484 61.268 53.98 60.984 54.3 60.416C54.62 59.848 54.78 58.964 54.78 57.764C54.78 56.556 54.62 55.676 54.3 55.124C53.988 54.564 53.492 54.284 52.812 54.284C52.14 54.284 51.644 54.564 51.324 55.124C51.004 55.684 50.844 56.564 50.844 57.764C50.844 58.964 51.004 59.848 51.324 60.416C51.644 60.984 52.14 61.268 52.812 61.268ZM62.6713 61.172V62H57.9673V61.172H59.8273V54.764L58.3393 55.7L57.8833 54.944L60.1033 53.54H60.8113V61.172H62.6713ZM70.0707 61.172V62H64.6227V61.256L67.5867 57.992C67.9867 57.544 68.2747 57.144 68.4507 56.792C68.6347 56.432 68.7267 56.072 68.7267 55.712C68.7267 55.248 68.5907 54.892 68.3187 54.644C68.0467 54.396 67.6627 54.272 67.1667 54.272C66.3507 54.272 65.5507 54.596 64.7667 55.244L64.3947 54.488C64.7307 54.168 65.1507 53.916 65.6547 53.732C66.1667 53.54 66.6787 53.444 67.1907 53.444C67.9667 53.444 68.5787 53.644 69.0267 54.044C69.4827 54.444 69.7107 54.984 69.7107 55.664C69.7107 56.152 69.5987 56.62 69.3747 57.068C69.1587 57.516 68.7987 58.016 68.2947 58.568L65.8947 61.172H70.0707Z" fill="#26B67F"/>
<path d="M27.6261 63.2H70.8027V63.8H27.6261V63.2Z" fill="#26B67F"/>
<path d="M252.094 61.172V62H246.646V61.256L249.61 57.992C250.01 57.544 250.298 57.144 250.474 56.792C250.658 56.432 250.75 56.072 250.75 55.712C250.75 55.248 250.614 54.892 250.342 54.644C250.07 54.396 249.686 54.272 249.19 54.272C248.374 54.272 247.574 54.596 246.79 55.244L246.418 54.488C246.754 54.168 247.174 53.916 247.678 53.732C248.19 53.54 248.702 53.444 249.214 53.444C249.99 53.444 250.602 53.644 251.05 54.044C251.506 54.444 251.734 54.984 251.734 55.664C251.734 56.152 251.622 56.62 251.398 57.068C251.182 57.516 250.822 58.016 250.318 58.568L247.918 61.172H252.094ZM256.421 62.096C255.453 62.096 254.717 61.728 254.213 60.992C253.709 60.256 253.457 59.184 253.457 57.776C253.457 56.36 253.709 55.284 254.213 54.548C254.717 53.812 255.453 53.444 256.421 53.444C257.389 53.444 258.125 53.812 258.629 54.548C259.133 55.276 259.385 56.348 259.385 57.764C259.385 59.18 259.133 60.256 258.629 60.992C258.125 61.728 257.389 62.096 256.421 62.096ZM256.421 61.268C257.093 61.268 257.589 60.984 257.909 60.416C258.229 59.848 258.389 58.964 258.389 57.764C258.389 56.556 258.229 55.676 257.909 55.124C257.597 54.564 257.101 54.284 256.421 54.284C255.749 54.284 255.253 54.564 254.933 55.124C254.613 55.684 254.453 56.564 254.453 57.764C254.453 58.964 254.613 59.848 254.933 60.416C255.253 60.984 255.749 61.268 256.421 61.268ZM263.485 61.304C263.661 61.304 263.837 61.292 264.013 61.268L263.965 62.036C263.781 62.068 263.581 62.084 263.365 62.084C262.661 62.084 262.129 61.9 261.769 61.532C261.417 61.164 261.241 60.652 261.241 59.996V56.924H260.101V56.156H261.241V54.38H262.213V56.156H263.869V56.924H262.213V59.924C262.213 60.844 262.637 61.304 263.485 61.304ZM267.935 56.012C269.335 56.012 270.035 56.784 270.035 58.328V62H269.063V58.388C269.063 57.844 268.955 57.448 268.739 57.2C268.531 56.952 268.195 56.828 267.731 56.828C267.195 56.828 266.767 56.992 266.447 57.32C266.127 57.648 265.967 58.092 265.967 58.652V62H264.995V53.54H265.967V57.092C266.159 56.74 266.423 56.472 266.759 56.288C267.103 56.104 267.495 56.012 267.935 56.012ZM275.053 53.54H277.897C279.249 53.54 280.293 53.908 281.029 54.644C281.773 55.372 282.145 56.412 282.145 57.764C282.145 59.116 281.773 60.16 281.029 60.896C280.293 61.632 279.249 62 277.897 62H275.053V53.54ZM277.837 61.16C280.029 61.16 281.125 60.028 281.125 57.764C281.125 55.508 280.029 54.38 277.837 54.38H276.037V61.16H277.837ZM288.676 59.228H284.404C284.436 59.908 284.62 60.424 284.956 60.776C285.292 61.12 285.768 61.292 286.384 61.292C287.064 61.292 287.688 61.06 288.256 60.596L288.58 61.304C288.324 61.544 287.996 61.736 287.596 61.88C287.196 62.016 286.788 62.084 286.372 62.084C285.46 62.084 284.74 61.816 284.212 61.28C283.692 60.744 283.432 60.004 283.432 59.06C283.432 58.46 283.548 57.932 283.78 57.476C284.012 57.012 284.336 56.652 284.752 56.396C285.176 56.14 285.656 56.012 286.192 56.012C286.968 56.012 287.576 56.268 288.016 56.78C288.456 57.284 288.676 57.98 288.676 58.868V59.228ZM286.204 56.768C285.692 56.768 285.28 56.928 284.968 57.248C284.664 57.568 284.484 58.02 284.428 58.604H287.824C287.808 58.012 287.66 57.56 287.38 57.248C287.1 56.928 286.708 56.768 286.204 56.768ZM292.58 62.084C292.004 62.084 291.504 61.96 291.08 61.712C290.656 61.464 290.328 61.116 290.096 60.668C289.872 60.212 289.76 59.68 289.76 59.072C289.76 58.464 289.876 57.932 290.108 57.476C290.348 57.012 290.68 56.652 291.104 56.396C291.536 56.14 292.04 56.012 292.616 56.012C293.008 56.012 293.392 56.084 293.768 56.228C294.144 56.364 294.448 56.548 294.68 56.78L294.356 57.5C293.804 57.052 293.244 56.828 292.676 56.828C292.076 56.828 291.608 57.024 291.272 57.416C290.936 57.808 290.768 58.36 290.768 59.072C290.768 59.776 290.936 60.32 291.272 60.704C291.608 61.088 292.076 61.28 292.676 61.28C293.244 61.28 293.804 61.056 294.356 60.608L294.68 61.328C294.432 61.56 294.12 61.744 293.744 61.88C293.368 62.016 292.98 62.084 292.58 62.084ZM297.048 60.776V61.64C297.048 61.976 296.992 62.28 296.88 62.552C296.776 62.832 296.592 63.104 296.328 63.368L295.872 63.02C296.184 62.676 296.36 62.336 296.4 62H295.824V60.776H297.048ZM307.371 61.172V62H301.923V61.256L304.887 57.992C305.287 57.544 305.575 57.144 305.751 56.792C305.935 56.432 306.027 56.072 306.027 55.712C306.027 55.248 305.891 54.892 305.619 54.644C305.347 54.396 304.963 54.272 304.467 54.272C303.651 54.272 302.851 54.596 302.067 55.244L301.695 54.488C302.031 54.168 302.451 53.916 302.955 53.732C303.467 53.54 303.979 53.444 304.491 53.444C305.267 53.444 305.879 53.644 306.327 54.044C306.783 54.444 307.011 54.984 307.011 55.664C307.011 56.152 306.899 56.62 306.675 57.068C306.459 57.516 306.099 58.016 305.595 58.568L303.195 61.172H307.371ZM311.699 62.096C310.731 62.096 309.995 61.728 309.491 60.992C308.987 60.256 308.735 59.184 308.735 57.776C308.735 56.36 308.987 55.284 309.491 54.548C309.995 53.812 310.731 53.444 311.699 53.444C312.667 53.444 313.403 53.812 313.907 54.548C314.411 55.276 314.663 56.348 314.663 57.764C314.663 59.18 314.411 60.256 313.907 60.992C313.403 61.728 312.667 62.096 311.699 62.096ZM311.699 61.268C312.371 61.268 312.867 60.984 313.187 60.416C313.507 59.848 313.667 58.964 313.667 57.764C313.667 56.556 313.507 55.676 313.187 55.124C312.875 54.564 312.379 54.284 311.699 54.284C311.027 54.284 310.531 54.564 310.211 55.124C309.891 55.684 309.731 56.564 309.731 57.764C309.731 58.964 309.891 59.848 310.211 60.416C310.531 60.984 311.027 61.268 311.699 61.268ZM321.762 61.172V62H316.314V61.256L319.278 57.992C319.678 57.544 319.966 57.144 320.142 56.792C320.326 56.432 320.418 56.072 320.418 55.712C320.418 55.248 320.282 54.892 320.01 54.644C319.738 54.396 319.354 54.272 318.858 54.272C318.042 54.272 317.242 54.596 316.458 55.244L316.086 54.488C316.422 54.168 316.842 53.916 317.346 53.732C317.858 53.54 318.37 53.444 318.882 53.444C319.658 53.444 320.27 53.644 320.718 54.044C321.174 54.444 321.402 54.984 321.402 55.664C321.402 56.152 321.29 56.62 321.066 57.068C320.85 57.516 320.49 58.016 319.986 58.568L317.586 61.172H321.762ZM327.253 57.656C327.749 57.8 328.129 58.048 328.393 58.4C328.657 58.744 328.789 59.18 328.789 59.708C328.789 60.444 328.537 61.024 328.033 61.448C327.537 61.872 326.861 62.084 326.005 62.084C325.461 62.084 324.937 61.992 324.433 61.808C323.929 61.624 323.505 61.368 323.161 61.04L323.533 60.284C324.301 60.932 325.117 61.256 325.981 61.256C326.581 61.256 327.037 61.124 327.349 60.86C327.661 60.588 327.817 60.192 327.817 59.672C327.817 58.64 327.169 58.124 325.873 58.124H324.901V57.296H325.681C326.305 57.296 326.785 57.16 327.121 56.888C327.457 56.608 327.625 56.208 327.625 55.688C327.625 55.232 327.489 54.884 327.217 54.644C326.945 54.396 326.557 54.272 326.053 54.272C325.237 54.272 324.437 54.596 323.653 55.244L323.281 54.488C323.625 54.16 324.045 53.904 324.541 53.72C325.037 53.536 325.553 53.444 326.089 53.444C326.857 53.444 327.465 53.64 327.913 54.032C328.369 54.416 328.597 54.936 328.597 55.592C328.597 56.08 328.477 56.508 328.237 56.876C328.005 57.236 327.677 57.496 327.253 57.656Z" fill="#0A2E57"/>
<path d="M470.238 59.708C470.238 60.34 470.014 60.872 469.566 61.304C469.118 61.728 468.518 61.984 467.766 62.072V63.38H466.926V62.084C466.382 62.052 465.878 61.948 465.414 61.772C464.95 61.588 464.542 61.332 464.19 61.004L464.562 60.248C464.978 60.6 465.398 60.856 465.822 61.016C466.254 61.176 466.726 61.256 467.238 61.256C467.87 61.256 468.362 61.124 468.714 60.86C469.066 60.596 469.242 60.22 469.242 59.732C469.242 59.444 469.15 59.212 468.966 59.036C468.79 58.852 468.562 58.712 468.282 58.616C468.01 58.512 467.638 58.404 467.166 58.292C466.558 58.14 466.066 57.988 465.69 57.836C465.322 57.684 465.006 57.452 464.742 57.14C464.478 56.828 464.346 56.408 464.346 55.88C464.346 55.448 464.454 55.06 464.67 54.716C464.886 54.364 465.186 54.08 465.57 53.864C465.962 53.648 466.41 53.516 466.914 53.468V52.16H467.754V53.468C468.21 53.508 468.646 53.62 469.062 53.804C469.486 53.988 469.846 54.224 470.142 54.512L469.77 55.268C469.066 54.612 468.25 54.284 467.322 54.284C466.714 54.284 466.234 54.424 465.882 54.704C465.53 54.976 465.354 55.356 465.354 55.844C465.354 56.18 465.45 56.448 465.642 56.648C465.842 56.848 466.086 57.004 466.374 57.116C466.662 57.22 467.058 57.336 467.562 57.464C468.146 57.616 468.614 57.76 468.966 57.896C469.318 58.032 469.618 58.248 469.866 58.544C470.114 58.832 470.238 59.22 470.238 59.708ZM477.085 61.172V62H472.381V61.172H474.241V54.764L472.753 55.7L472.297 54.944L474.517 53.54H475.225V61.172H477.085ZM481.617 62.096C480.649 62.096 479.913 61.728 479.409 60.992C478.905 60.256 478.653 59.184 478.653 57.776C478.653 56.36 478.905 55.284 479.409 54.548C479.913 53.812 480.649 53.444 481.617 53.444C482.585 53.444 483.321 53.812 483.825 54.548C484.329 55.276 484.581 56.348 484.581 57.764C484.581 59.18 484.329 60.256 483.825 60.992C483.321 61.728 482.585 62.096 481.617 62.096ZM481.617 61.268C482.289 61.268 482.785 60.984 483.105 60.416C483.425 59.848 483.585 58.964 483.585 57.764C483.585 56.556 483.425 55.676 483.105 55.124C482.793 54.564 482.297 54.284 481.617 54.284C480.945 54.284 480.449 54.564 480.129 55.124C479.809 55.684 479.649 56.564 479.649 57.764C479.649 58.964 479.809 59.848 480.129 60.416C480.449 60.984 480.945 61.268 481.617 61.268ZM487.192 60.776V61.64C487.192 61.976 487.136 62.28 487.024 62.552C486.92 62.832 486.736 63.104 486.472 63.368L486.016 63.02C486.328 62.676 486.504 62.336 486.544 62H485.968V60.776H487.192ZM491.554 62.096C490.586 62.096 489.85 61.728 489.346 60.992C488.842 60.256 488.59 59.184 488.59 57.776C488.59 56.36 488.842 55.284 489.346 54.548C489.85 53.812 490.586 53.444 491.554 53.444C492.522 53.444 493.258 53.812 493.762 54.548C494.266 55.276 494.518 56.348 494.518 57.764C494.518 59.18 494.266 60.256 493.762 60.992C493.258 61.728 492.522 62.096 491.554 62.096ZM491.554 61.268C492.226 61.268 492.722 60.984 493.042 60.416C493.362 59.848 493.522 58.964 493.522 57.764C493.522 56.556 493.362 55.676 493.042 55.124C492.73 54.564 492.234 54.284 491.554 54.284C490.882 54.284 490.386 54.564 490.066 55.124C489.746 55.684 489.586 56.564 489.586 57.764C489.586 58.964 489.746 59.848 490.066 60.416C490.386 60.984 490.882 61.268 491.554 61.268ZM498.75 62.096C497.782 62.096 497.046 61.728 496.542 60.992C496.038 60.256 495.786 59.184 495.786 57.776C495.786 56.36 496.038 55.284 496.542 54.548C497.046 53.812 497.782 53.444 498.75 53.444C499.718 53.444 500.454 53.812 500.958 54.548C501.462 55.276 501.714 56.348 501.714 57.764C501.714 59.18 501.462 60.256 500.958 60.992C500.454 61.728 499.718 62.096 498.75 62.096ZM498.75 61.268C499.422 61.268 499.918 60.984 500.238 60.416C500.558 59.848 500.718 58.964 500.718 57.764C500.718 56.556 500.558 55.676 500.238 55.124C499.926 54.564 499.43 54.284 498.75 54.284C498.078 54.284 497.582 54.564 497.262 55.124C496.942 55.684 496.782 56.564 496.782 57.764C496.782 58.964 496.942 59.848 497.262 60.416C497.582 60.984 498.078 61.268 498.75 61.268ZM505.945 62.096C504.977 62.096 504.241 61.728 503.737 60.992C503.233 60.256 502.981 59.184 502.981 57.776C502.981 56.36 503.233 55.284 503.737 54.548C504.241 53.812 504.977 53.444 505.945 53.444C506.913 53.444 507.649 53.812 508.153 54.548C508.657 55.276 508.909 56.348 508.909 57.764C508.909 59.18 508.657 60.256 508.153 60.992C507.649 61.728 506.913 62.096 505.945 62.096ZM505.945 61.268C506.617 61.268 507.113 60.984 507.433 60.416C507.753 59.848 507.913 58.964 507.913 57.764C507.913 56.556 507.753 55.676 507.433 55.124C507.121 54.564 506.625 54.284 505.945 54.284C505.273 54.284 504.777 54.564 504.457 55.124C504.137 55.684 503.977 56.564 503.977 57.764C503.977 58.964 504.137 59.848 504.457 60.416C504.777 60.984 505.273 61.268 505.945 61.268Z" fill="#0A2E57"/>
<path d="M33.2181 76.336L32.6781 79.108H34.1661V79.816H32.5461L32.1141 82H31.3581L31.7781 79.816H29.8701L29.4501 82H28.6821L29.1141 79.816H28.0461V79.108H29.2461L29.7861 76.336H28.2861V75.628H29.9301L30.3381 73.54H31.0941L30.6861 75.628H32.5941L33.0021 73.54H33.7701L33.3621 75.628H34.4061V76.336H33.2181ZM32.4621 76.336H30.5541L30.0141 79.108H31.9221L32.4621 76.336ZM38.4214 82.096C37.4534 82.096 36.7174 81.728 36.2134 80.992C35.7094 80.256 35.4574 79.184 35.4574 77.776C35.4574 76.36 35.7094 75.284 36.2134 74.548C36.7174 73.812 37.4534 73.444 38.4214 73.444C39.3894 73.444 40.1254 73.812 40.6294 74.548C41.1334 75.276 41.3854 76.348 41.3854 77.764C41.3854 79.18 41.1334 80.256 40.6294 80.992C40.1254 81.728 39.3894 82.096 38.4214 82.096ZM38.4214 81.268C39.0934 81.268 39.5894 80.984 39.9094 80.416C40.2294 79.848 40.3894 78.964 40.3894 77.764C40.3894 76.556 40.2294 75.676 39.9094 75.124C39.5974 74.564 39.1014 74.284 38.4214 74.284C37.7494 74.284 37.2534 74.564 36.9334 75.124C36.6134 75.684 36.4534 76.564 36.4534 77.764C36.4534 78.964 36.6134 79.848 36.9334 80.416C37.2534 80.984 37.7494 81.268 38.4214 81.268ZM45.6167 82.096C44.6487 82.096 43.9127 81.728 43.4087 80.992C42.9047 80.256 42.6527 79.184 42.6527 77.776C42.6527 76.36 42.9047 75.284 43.4087 74.548C43.9127 73.812 44.6487 73.444 45.6167 73.444C46.5847 73.444 47.3207 73.812 47.8247 74.548C48.3287 75.276 48.5807 76.348 48.5807 77.764C48.5807 79.18 48.3287 80.256 47.8247 80.992C47.3207 81.728 46.5847 82.096 45.6167 82.096ZM45.6167 81.268C46.2887 81.268 46.7847 80.984 47.1047 80.416C47.4247 79.848 47.5847 78.964 47.5847 77.764C47.5847 76.556 47.4247 75.676 47.1047 75.124C46.7927 74.564 46.2967 74.284 45.6167 74.284C44.9447 74.284 44.4487 74.564 44.1287 75.124C43.8087 75.684 43.6487 76.564 43.6487 77.764C43.6487 78.964 43.8087 79.848 44.1287 80.416C44.4487 80.984 44.9447 81.268 45.6167 81.268ZM52.812 82.096C51.844 82.096 51.108 81.728 50.604 80.992C50.1 80.256 49.848 79.184 49.848 77.776C49.848 76.36 50.1 75.284 50.604 74.548C51.108 73.812 51.844 73.444 52.812 73.444C53.78 73.444 54.516 73.812 55.02 74.548C55.524 75.276 55.776 76.348 55.776 77.764C55.776 79.18 55.524 80.256 55.02 80.992C54.516 81.728 53.78 82.096 52.812 82.096ZM52.812 81.268C53.484 81.268 53.98 80.984 54.3 80.416C54.62 79.848 54.78 78.964 54.78 77.764C54.78 76.556 54.62 75.676 54.3 75.124C53.988 74.564 53.492 74.284 52.812 74.284C52.14 74.284 51.644 74.564 51.324 75.124C51.004 75.684 50.844 76.564 50.844 77.764C50.844 78.964 51.004 79.848 51.324 80.416C51.644 80.984 52.14 81.268 52.812 81.268ZM62.6713 81.172V82H57.9673V81.172H59.8273V74.764L58.3393 75.7L57.8833 74.944L60.1033 73.54H60.8113V81.172H62.6713ZM68.3667 77.656C68.8627 77.8 69.2427 78.048 69.5067 78.4C69.7707 78.744 69.9027 79.18 69.9027 79.708C69.9027 80.444 69.6507 81.024 69.1467 81.448C68.6507 81.872 67.9747 82.084 67.1187 82.084C66.5747 82.084 66.0507 81.992 65.5467 81.808C65.0427 81.624 64.6187 81.368 64.2747 81.04L64.6467 80.284C65.4147 80.932 66.2307 81.256 67.0947 81.256C67.6947 81.256 68.1507 81.124 68.4627 80.86C68.7747 80.588 68.9307 80.192 68.9307 79.672C68.9307 78.64 68.2827 78.124 66.9867 78.124H66.0147V77.296H66.7947C67.4187 77.296 67.8987 77.16 68.2347 76.888C68.5707 76.608 68.7387 76.208 68.7387 75.688C68.7387 75.232 68.6027 74.884 68.3307 74.644C68.0587 74.396 67.6707 74.272 67.1667 74.272C66.3507 74.272 65.5507 74.596 64.7667 75.244L64.3947 74.488C64.7387 74.16 65.1587 73.904 65.6547 73.72C66.1507 73.536 66.6667 73.444 67.2027 73.444C67.9707 73.444 68.5787 73.64 69.0267 74.032C69.4827 74.416 69.7107 74.936 69.7107 75.592C69.7107 76.08 69.5907 76.508 69.3507 76.876C69.1187 77.236 68.7907 77.496 68.3667 77.656Z" fill="#26B67F"/>
<path d="M27.6261 83.2H70.8027V83.8H27.6261V83.2Z" fill="#26B67F"/>
<path d="M250.39 77.656C250.886 77.8 251.266 78.048 251.53 78.4C251.794 78.744 251.926 79.18 251.926 79.708C251.926 80.444 251.674 81.024 251.17 81.448C250.674 81.872 249.998 82.084 249.142 82.084C248.598 82.084 248.074 81.992 247.57 81.808C247.066 81.624 246.642 81.368 246.298 81.04L246.67 80.284C247.438 80.932 248.254 81.256 249.118 81.256C249.718 81.256 250.174 81.124 250.486 80.86C250.798 80.588 250.954 80.192 250.954 79.672C250.954 78.64 250.306 78.124 249.01 78.124H248.038V77.296H248.818C249.442 77.296 249.922 77.16 250.258 76.888C250.594 76.608 250.762 76.208 250.762 75.688C250.762 75.232 250.626 74.884 250.354 74.644C250.082 74.396 249.694 74.272 249.19 74.272C248.374 74.272 247.574 74.596 246.79 75.244L246.418 74.488C246.762 74.16 247.182 73.904 247.678 73.72C248.174 73.536 248.69 73.444 249.226 73.444C249.994 73.444 250.602 73.64 251.05 74.032C251.506 74.416 251.734 74.936 251.734 75.592C251.734 76.08 251.614 76.508 251.374 76.876C251.142 77.236 250.814 77.496 250.39 77.656ZM259.085 81.172V82H254.381V81.172H256.241V74.764L254.753 75.7L254.297 74.944L256.517 73.54H257.225V81.172H259.085ZM262.897 82.084C261.913 82.084 261.133 81.832 260.557 81.328L260.881 80.608C261.193 80.856 261.509 81.036 261.829 81.148C262.157 81.252 262.525 81.304 262.933 81.304C263.365 81.304 263.693 81.232 263.917 81.088C264.149 80.936 264.265 80.72 264.265 80.44C264.265 80.208 264.189 80.024 264.037 79.888C263.885 79.752 263.633 79.644 263.281 79.564L262.297 79.336C261.801 79.224 261.421 79.032 261.157 78.76C260.893 78.488 260.761 78.152 260.761 77.752C260.761 77.232 260.965 76.812 261.373 76.492C261.781 76.172 262.325 76.012 263.005 76.012C263.413 76.012 263.801 76.08 264.169 76.216C264.537 76.344 264.845 76.532 265.093 76.78L264.769 77.488C264.233 77.032 263.645 76.804 263.005 76.804C262.597 76.804 262.277 76.884 262.045 77.044C261.821 77.196 261.709 77.412 261.709 77.692C261.709 77.924 261.777 78.112 261.913 78.256C262.057 78.392 262.285 78.496 262.597 78.568L263.593 78.808C264.137 78.936 264.541 79.132 264.805 79.396C265.069 79.652 265.201 79.988 265.201 80.404C265.201 80.916 264.993 81.324 264.577 81.628C264.169 81.932 263.609 82.084 262.897 82.084ZM269.192 81.304C269.368 81.304 269.544 81.292 269.72 81.268L269.672 82.036C269.488 82.068 269.288 82.084 269.072 82.084C268.368 82.084 267.836 81.9 267.476 81.532C267.124 81.164 266.948 80.652 266.948 79.996V76.924H265.808V76.156H266.948V74.38H267.92V76.156H269.576V76.924H267.92V79.924C267.92 80.844 268.344 81.304 269.192 81.304ZM273.94 73.54H276.784C278.136 73.54 279.18 73.908 279.916 74.644C280.66 75.372 281.032 76.412 281.032 77.764C281.032 79.116 280.66 80.16 279.916 80.896C279.18 81.632 278.136 82 276.784 82H273.94V73.54ZM276.724 81.16C278.916 81.16 280.012 80.028 280.012 77.764C280.012 75.508 278.916 74.38 276.724 74.38H274.924V81.16H276.724ZM287.563 79.228H283.291C283.323 79.908 283.507 80.424 283.843 80.776C284.179 81.12 284.655 81.292 285.271 81.292C285.951 81.292 286.575 81.06 287.143 80.596L287.467 81.304C287.211 81.544 286.883 81.736 286.483 81.88C286.083 82.016 285.675 82.084 285.259 82.084C284.347 82.084 283.627 81.816 283.099 81.28C282.579 80.744 282.319 80.004 282.319 79.06C282.319 78.46 282.435 77.932 282.667 77.476C282.899 77.012 283.223 76.652 283.639 76.396C284.063 76.14 284.543 76.012 285.079 76.012C285.855 76.012 286.463 76.268 286.903 76.78C287.343 77.284 287.563 77.98 287.563 78.868V79.228ZM285.091 76.768C284.579 76.768 284.167 76.928 283.855 77.248C283.551 77.568 283.371 78.02 283.315 78.604H286.711C286.695 78.012 286.547 77.56 286.267 77.248C285.987 76.928 285.595 76.768 285.091 76.768ZM291.467 82.084C290.891 82.084 290.391 81.96 289.967 81.712C289.543 81.464 289.215 81.116 288.983 80.668C288.759 80.212 288.647 79.68 288.647 79.072C288.647 78.464 288.763 77.932 288.995 77.476C289.235 77.012 289.567 76.652 289.991 76.396C290.423 76.14 290.927 76.012 291.503 76.012C291.895 76.012 292.279 76.084 292.655 76.228C293.031 76.364 293.335 76.548 293.567 76.78L293.243 77.5C292.691 77.052 292.131 76.828 291.563 76.828C290.963 76.828 290.495 77.024 290.159 77.416C289.823 77.808 289.655 78.36 289.655 79.072C289.655 79.776 289.823 80.32 290.159 80.704C290.495 81.088 290.963 81.28 291.563 81.28C292.131 81.28 292.691 81.056 293.243 80.608L293.567 81.328C293.319 81.56 293.007 81.744 292.631 81.88C292.255 82.016 291.867 82.084 291.467 82.084ZM295.934 80.776V81.64C295.934 81.976 295.878 82.28 295.766 82.552C295.662 82.832 295.478 83.104 295.214 83.368L294.758 83.02C295.07 82.676 295.246 82.336 295.286 82H294.71V80.776H295.934ZM306.258 81.172V82H300.81V81.256L303.774 77.992C304.174 77.544 304.462 77.144 304.638 76.792C304.822 76.432 304.914 76.072 304.914 75.712C304.914 75.248 304.778 74.892 304.506 74.644C304.234 74.396 303.85 74.272 303.354 74.272C302.538 74.272 301.738 74.596 300.954 75.244L300.582 74.488C300.918 74.168 301.338 73.916 301.842 73.732C302.354 73.54 302.866 73.444 303.378 73.444C304.154 73.444 304.766 73.644 305.214 74.044C305.67 74.444 305.898 74.984 305.898 75.664C305.898 76.152 305.786 76.62 305.562 77.068C305.346 77.516 304.986 78.016 304.482 78.568L302.082 81.172H306.258ZM310.585 82.096C309.617 82.096 308.881 81.728 308.377 80.992C307.873 80.256 307.621 79.184 307.621 77.776C307.621 76.36 307.873 75.284 308.377 74.548C308.881 73.812 309.617 73.444 310.585 73.444C311.553 73.444 312.289 73.812 312.793 74.548C313.297 75.276 313.549 76.348 313.549 77.764C313.549 79.18 313.297 80.256 312.793 80.992C312.289 81.728 311.553 82.096 310.585 82.096ZM310.585 81.268C311.257 81.268 311.753 80.984 312.073 80.416C312.393 79.848 312.553 78.964 312.553 77.764C312.553 76.556 312.393 75.676 312.073 75.124C311.761 74.564 311.265 74.284 310.585 74.284C309.913 74.284 309.417 74.564 309.097 75.124C308.777 75.684 308.617 76.564 308.617 77.764C308.617 78.964 308.777 79.848 309.097 80.416C309.417 80.984 309.913 81.268 310.585 81.268ZM320.649 81.172V82H315.201V81.256L318.165 77.992C318.565 77.544 318.853 77.144 319.029 76.792C319.213 76.432 319.305 76.072 319.305 75.712C319.305 75.248 319.169 74.892 318.897 74.644C318.625 74.396 318.241 74.272 317.745 74.272C316.929 74.272 316.129 74.596 315.345 75.244L314.973 74.488C315.309 74.168 315.729 73.916 316.233 73.732C316.745 73.54 317.257 73.444 317.769 73.444C318.545 73.444 319.157 73.644 319.605 74.044C320.061 74.444 320.289 74.984 320.289 75.664C320.289 76.152 320.177 76.62 319.953 77.068C319.737 77.516 319.377 78.016 318.873 78.568L316.473 81.172H320.649ZM326.14 77.656C326.636 77.8 327.016 78.048 327.28 78.4C327.544 78.744 327.676 79.18 327.676 79.708C327.676 80.444 327.424 81.024 326.92 81.448C326.424 81.872 325.748 82.084 324.892 82.084C324.348 82.084 323.824 81.992 323.32 81.808C322.816 81.624 322.392 81.368 322.048 81.04L322.42 80.284C323.188 80.932 324.004 81.256 324.868 81.256C325.468 81.256 325.924 81.124 326.236 80.86C326.548 80.588 326.704 80.192 326.704 79.672C326.704 78.64 326.056 78.124 324.76 78.124H323.788V77.296H324.568C325.192 77.296 325.672 77.16 326.008 76.888C326.344 76.608 326.512 76.208 326.512 75.688C326.512 75.232 326.376 74.884 326.104 74.644C325.832 74.396 325.444 74.272 324.94 74.272C324.124 74.272 323.324 74.596 322.54 75.244L322.168 74.488C322.512 74.16 322.932 73.904 323.428 73.72C323.924 73.536 324.44 73.444 324.976 73.444C325.744 73.444 326.352 73.64 326.8 74.032C327.256 74.416 327.484 74.936 327.484 75.592C327.484 76.08 327.364 76.508 327.124 76.876C326.892 77.236 326.564 77.496 326.14 77.656Z" fill="#0A2E57"/>
<path d="M470.238 79.708C470.238 80.34 470.014 80.872 469.566 81.304C469.118 81.728 468.518 81.984 467.766 82.072V83.38H466.926V82.084C466.382 82.052 465.878 81.948 465.414 81.772C464.95 81.588 464.542 81.332 464.19 81.004L464.562 80.248C464.978 80.6 465.398 80.856 465.822 81.016C466.254 81.176 466.726 81.256 467.238 81.256C467.87 81.256 468.362 81.124 468.714 80.86C469.066 80.596 469.242 80.22 469.242 79.732C469.242 79.444 469.15 79.212 468.966 79.036C468.79 78.852 468.562 78.712 468.282 78.616C468.01 78.512 467.638 78.404 467.166 78.292C466.558 78.14 466.066 77.988 465.69 77.836C465.322 77.684 465.006 77.452 464.742 77.14C464.478 76.828 464.346 76.408 464.346 75.88C464.346 75.448 464.454 75.06 464.67 74.716C464.886 74.364 465.186 74.08 465.57 73.864C465.962 73.648 466.41 73.516 466.914 73.468V72.16H467.754V73.468C468.21 73.508 468.646 73.62 469.062 73.804C469.486 73.988 469.846 74.224 470.142 74.512L469.77 75.268C469.066 74.612 468.25 74.284 467.322 74.284C466.714 74.284 466.234 74.424 465.882 74.704C465.53 74.976 465.354 75.356 465.354 75.844C465.354 76.18 465.45 76.448 465.642 76.648C465.842 76.848 466.086 77.004 466.374 77.116C466.662 77.22 467.058 77.336 467.562 77.464C468.146 77.616 468.614 77.76 468.966 77.896C469.318 78.032 469.618 78.248 469.866 78.544C470.114 78.832 470.238 79.22 470.238 79.708ZM474.781 76.696C475.317 76.696 475.781 76.808 476.173 77.032C476.573 77.256 476.881 77.572 477.097 77.98C477.313 78.38 477.421 78.844 477.421 79.372C477.421 79.908 477.301 80.38 477.061 80.788C476.829 81.196 476.497 81.516 476.065 81.748C475.633 81.972 475.129 82.084 474.553 82.084C474.041 82.084 473.533 81.992 473.029 81.808C472.533 81.616 472.113 81.36 471.769 81.04L472.141 80.284C472.925 80.932 473.729 81.256 474.553 81.256C475.145 81.256 475.609 81.088 475.945 80.752C476.281 80.416 476.449 79.96 476.449 79.384C476.449 78.824 476.281 78.372 475.945 78.028C475.617 77.684 475.177 77.512 474.625 77.512C473.817 77.512 473.173 77.84 472.693 78.496H472.009V73.54H477.085V74.356H472.981V77.368C473.205 77.152 473.469 76.988 473.773 76.876C474.085 76.756 474.421 76.696 474.781 76.696ZM479.997 80.776V81.64C479.997 81.976 479.941 82.28 479.829 82.552C479.725 82.832 479.541 83.104 479.277 83.368L478.821 83.02C479.133 82.676 479.309 82.336 479.349 82H478.773V80.776H479.997ZM484.359 82.096C483.391 82.096 482.655 81.728 482.151 80.992C481.647 80.256 481.395 79.184 481.395 77.776C481.395 76.36 481.647 75.284 482.151 74.548C482.655 73.812 483.391 73.444 484.359 73.444C485.327 73.444 486.063 73.812 486.567 74.548C487.071 75.276 487.323 76.348 487.323 77.764C487.323 79.18 487.071 80.256 486.567 80.992C486.063 81.728 485.327 82.096 484.359 82.096ZM484.359 81.268C485.031 81.268 485.527 80.984 485.847 80.416C486.167 79.848 486.327 78.964 486.327 77.764C486.327 76.556 486.167 75.676 485.847 75.124C485.535 74.564 485.039 74.284 484.359 74.284C483.687 74.284 483.191 74.564 482.871 75.124C482.551 75.684 482.391 76.564 482.391 77.764C482.391 78.964 482.551 79.848 482.871 80.416C483.191 80.984 483.687 81.268 484.359 81.268ZM491.554 82.096C490.586 82.096 489.85 81.728 489.346 80.992C488.842 80.256 488.59 79.184 488.59 77.776C488.59 76.36 488.842 75.284 489.346 74.548C489.85 73.812 490.586 73.444 491.554 73.444C492.522 73.444 493.258 73.812 493.762 74.548C494.266 75.276 494.518 76.348 494.518 77.764C494.518 79.18 494.266 80.256 493.762 80.992C493.258 81.728 492.522 82.096 491.554 82.096ZM491.554 81.268C492.226 81.268 492.722 80.984 493.042 80.416C493.362 79.848 493.522 78.964 493.522 77.764C493.522 76.556 493.362 75.676 493.042 75.124C492.73 74.564 492.234 74.284 491.554 74.284C490.882 74.284 490.386 74.564 490.066 75.124C489.746 75.684 489.586 76.564 489.586 77.764C489.586 78.964 489.746 79.848 490.066 80.416C490.386 80.984 490.882 81.268 491.554 81.268ZM498.75 82.096C497.782 82.096 497.046 81.728 496.542 80.992C496.038 80.256 495.786 79.184 495.786 77.776C495.786 76.36 496.038 75.284 496.542 74.548C497.046 73.812 497.782 73.444 498.75 73.444C499.718 73.444 500.454 73.812 500.958 74.548C501.462 75.276 501.714 76.348 501.714 77.764C501.714 79.18 501.462 80.256 500.958 80.992C500.454 81.728 499.718 82.096 498.75 82.096ZM498.75 81.268C499.422 81.268 499.918 80.984 500.238 80.416C500.558 79.848 500.718 78.964 500.718 77.764C500.718 76.556 500.558 75.676 500.238 75.124C499.926 74.564 499.43 74.284 498.75 74.284C498.078 74.284 497.582 74.564 497.262 75.124C496.942 75.684 496.782 76.564 496.782 77.764C496.782 78.964 496.942 79.848 497.262 80.416C497.582 80.984 498.078 81.268 498.75 81.268Z" fill="#0A2E57"/>
<path d="M33.2181 96.336L32.6781 99.108H34.1661V99.816H32.5461L32.1141 102H31.3581L31.7781 99.816H29.8701L29.4501 102H28.6821L29.1141 99.816H28.0461V99.108H29.2461L29.7861 96.336H28.2861V95.628H29.9301L30.3381 93.54H31.0941L30.6861 95.628H32.5941L33.0021 93.54H33.7701L33.3621 95.628H34.4061V96.336H33.2181ZM32.4621 96.336H30.5541L30.0141 99.108H31.9221L32.4621 96.336ZM38.4214 102.096C37.4534 102.096 36.7174 101.728 36.2134 100.992C35.7094 100.256 35.4574 99.184 35.4574 97.776C35.4574 96.36 35.7094 95.284 36.2134 94.548C36.7174 93.812 37.4534 93.444 38.4214 93.444C39.3894 93.444 40.1254 93.812 40.6294 94.548C41.1334 95.276 41.3854 96.348 41.3854 97.764C41.3854 99.18 41.1334 100.256 40.6294 100.992C40.1254 101.728 39.3894 102.096 38.4214 102.096ZM38.4214 101.268C39.0934 101.268 39.5894 100.984 39.9094 100.416C40.2294 99.848 40.3894 98.964 40.3894 97.764C40.3894 96.556 40.2294 95.676 39.9094 95.124C39.5974 94.564 39.1014 94.284 38.4214 94.284C37.7494 94.284 37.2534 94.564 36.9334 95.124C36.6134 95.684 36.4534 96.564 36.4534 97.764C36.4534 98.964 36.6134 99.848 36.9334 100.416C37.2534 100.984 37.7494 101.268 38.4214 101.268ZM45.6167 102.096C44.6487 102.096 43.9127 101.728 43.4087 100.992C42.9047 100.256 42.6527 99.184 42.6527 97.776C42.6527 96.36 42.9047 95.284 43.4087 94.548C43.9127 93.812 44.6487 93.444 45.6167 93.444C46.5847 93.444 47.3207 93.812 47.8247 94.548C48.3287 95.276 48.5807 96.348 48.5807 97.764C48.5807 99.18 48.3287 100.256 47.8247 100.992C47.3207 101.728 46.5847 102.096 45.6167 102.096ZM45.6167 101.268C46.2887 101.268 46.7847 100.984 47.1047 100.416C47.4247 99.848 47.5847 98.964 47.5847 97.764C47.5847 96.556 47.4247 95.676 47.1047 95.124C46.7927 94.564 46.2967 94.284 45.6167 94.284C44.9447 94.284 44.4487 94.564 44.1287 95.124C43.8087 95.684 43.6487 96.564 43.6487 97.764C43.6487 98.964 43.8087 99.848 44.1287 100.416C44.4487 100.984 44.9447 101.268 45.6167 101.268ZM52.812 102.096C51.844 102.096 51.108 101.728 50.604 100.992C50.1 100.256 49.848 99.184 49.848 97.776C49.848 96.36 50.1 95.284 50.604 94.548C51.108 93.812 51.844 93.444 52.812 93.444C53.78 93.444 54.516 93.812 55.02 94.548C55.524 95.276 55.776 96.348 55.776 97.764C55.776 99.18 55.524 100.256 55.02 100.992C54.516 101.728 53.78 102.096 52.812 102.096ZM52.812 101.268C53.484 101.268 53.98 100.984 54.3 100.416C54.62 99.848 54.78 98.964 54.78 97.764C54.78 96.556 54.62 95.676 54.3 95.124C53.988 94.564 53.492 94.284 52.812 94.284C52.14 94.284 51.644 94.564 51.324 95.124C51.004 95.684 50.844 96.564 50.844 97.764C50.844 98.964 51.004 99.848 51.324 100.416C51.644 100.984 52.14 101.268 52.812 101.268ZM62.6713 101.172V102H57.9673V101.172H59.8273V94.764L58.3393 95.7L57.8833 94.944L60.1033 93.54H60.8113V101.172H62.6713ZM67.5627 96.696C68.0987 96.696 68.5627 96.808 68.9547 97.032C69.3547 97.256 69.6627 97.572 69.8787 97.98C70.0947 98.38 70.2027 98.844 70.2027 99.372C70.2027 99.908 70.0827 100.38 69.8427 100.788C69.6107 101.196 69.2787 101.516 68.8467 101.748C68.4147 101.972 67.9107 102.084 67.3347 102.084C66.8227 102.084 66.3147 101.992 65.8107 101.808C65.3147 101.616 64.8947 101.36 64.5507 101.04L64.9227 100.284C65.7067 100.932 66.5107 101.256 67.3347 101.256C67.9267 101.256 68.3907 101.088 68.7267 100.752C69.0627 100.416 69.2307 99.96 69.2307 99.384C69.2307 98.824 69.0627 98.372 68.7267 98.028C68.3987 97.684 67.9587 97.512 67.4067 97.512C66.5987 97.512 65.9547 97.84 65.4747 98.496H64.7907V93.54H69.8667V94.356H65.7627V97.368C65.9867 97.152 66.2507 96.988 66.5547 96.876C66.8667 96.756 67.2027 96.696 67.5627 96.696Z" fill="#26B67F"/>
<path d="M27.6261 103.2H70.8027V103.8H27.6261V103.2Z" fill="#26B67F"/>
<path d="M252.094 101.172V102H246.646V101.256L249.61 97.992C250.01 97.544 250.298 97.144 250.474 96.792C250.658 96.432 250.75 96.072 250.75 95.712C250.75 95.248 250.614 94.892 250.342 94.644C250.07 94.396 249.686 94.272 249.19 94.272C248.374 94.272 247.574 94.596 246.79 95.244L246.418 94.488C246.754 94.168 247.174 93.916 247.678 93.732C248.19 93.54 248.702 93.444 249.214 93.444C249.99 93.444 250.602 93.644 251.05 94.044C251.506 94.444 251.734 94.984 251.734 95.664C251.734 96.152 251.622 96.62 251.398 97.068C251.182 97.516 250.822 98.016 250.318 98.568L247.918 101.172H252.094ZM256.661 96.012C258.061 96.012 258.761 96.784 258.761 98.328V102H257.789V98.388C257.789 97.844 257.681 97.448 257.465 97.2C257.257 96.952 256.921 96.828 256.457 96.828C255.921 96.828 255.493 96.992 255.173 97.32C254.853 97.648 254.693 98.092 254.693 98.652V102H253.721V96.156H254.681V97.116C254.873 96.756 255.141 96.484 255.485 96.3C255.829 96.108 256.221 96.012 256.661 96.012ZM265.726 93.54V102H264.754V100.932C264.578 101.3 264.318 101.584 263.974 101.784C263.638 101.984 263.242 102.084 262.786 102.084C262.274 102.084 261.822 101.956 261.43 101.7C261.038 101.444 260.734 101.088 260.518 100.632C260.302 100.168 260.194 99.632 260.194 99.024C260.194 98.424 260.302 97.896 260.518 97.44C260.734 96.984 261.038 96.632 261.43 96.384C261.822 96.136 262.274 96.012 262.786 96.012C263.242 96.012 263.638 96.112 263.974 96.312C264.318 96.512 264.578 96.796 264.754 97.164V93.54H265.726ZM262.978 101.28C263.546 101.28 263.982 101.088 264.286 100.704C264.598 100.312 264.754 99.76 264.754 99.048C264.754 98.336 264.598 97.788 264.286 97.404C263.982 97.02 263.546 96.828 262.978 96.828C262.41 96.828 261.966 97.02 261.646 97.404C261.334 97.788 261.178 98.328 261.178 99.024C261.178 99.736 261.334 100.292 261.646 100.692C261.966 101.084 262.41 101.28 262.978 101.28ZM269.624 101.256L270.344 101.208C270.744 101.176 271.052 101.036 271.268 100.788C271.492 100.532 271.604 100.184 271.604 99.744V93.54H272.588V99.756C272.588 100.452 272.408 100.996 272.048 101.388C271.688 101.78 271.164 101.996 270.476 102.036L269.696 102.084L269.624 101.256ZM276.91 96.012C277.654 96.012 278.206 96.204 278.566 96.588C278.934 96.964 279.118 97.54 279.118 98.316V102H278.17V101.004C278.018 101.348 277.786 101.616 277.474 101.808C277.162 101.992 276.802 102.084 276.394 102.084C276.018 102.084 275.67 102.008 275.35 101.856C275.038 101.704 274.79 101.492 274.606 101.22C274.422 100.948 274.33 100.648 274.33 100.32C274.33 99.88 274.442 99.54 274.666 99.3C274.89 99.052 275.258 98.876 275.77 98.772C276.282 98.66 276.994 98.604 277.906 98.604H278.17V98.208C278.17 97.72 278.07 97.368 277.87 97.152C277.67 96.928 277.346 96.816 276.898 96.816C276.226 96.816 275.558 97.024 274.894 97.44L274.57 96.732C274.874 96.516 275.238 96.344 275.662 96.216C276.094 96.08 276.51 96.012 276.91 96.012ZM276.526 101.316C277.006 101.316 277.398 101.156 277.702 100.836C278.014 100.508 278.17 100.088 278.17 99.576V99.228H277.954C277.25 99.228 276.714 99.26 276.346 99.324C275.978 99.38 275.714 99.48 275.554 99.624C275.402 99.76 275.326 99.964 275.326 100.236C275.326 100.548 275.438 100.808 275.662 101.016C275.894 101.216 276.182 101.316 276.526 101.316ZM283.837 96.012C285.237 96.012 285.937 96.784 285.937 98.328V102H284.965V98.388C284.965 97.844 284.857 97.448 284.641 97.2C284.433 96.952 284.097 96.828 283.633 96.828C283.097 96.828 282.669 96.992 282.349 97.32C282.029 97.648 281.869 98.092 281.869 98.652V102H280.897V96.156H281.857V97.116C282.049 96.756 282.317 96.484 282.661 96.3C283.005 96.108 283.397 96.012 283.837 96.012ZM288.798 100.776V101.64C288.798 101.976 288.742 102.28 288.63 102.552C288.526 102.832 288.342 103.104 288.078 103.368L287.622 103.02C287.934 102.676 288.11 102.336 288.15 102H287.574V100.776H288.798ZM299.121 101.172V102H293.673V101.256L296.637 97.992C297.037 97.544 297.325 97.144 297.501 96.792C297.685 96.432 297.777 96.072 297.777 95.712C297.777 95.248 297.641 94.892 297.369 94.644C297.097 94.396 296.713 94.272 296.217 94.272C295.401 94.272 294.601 94.596 293.817 95.244L293.445 94.488C293.781 94.168 294.201 93.916 294.705 93.732C295.217 93.54 295.729 93.444 296.241 93.444C297.017 93.444 297.629 93.644 298.077 94.044C298.533 94.444 298.761 94.984 298.761 95.664C298.761 96.152 298.649 96.62 298.425 97.068C298.209 97.516 297.849 98.016 297.345 98.568L294.945 101.172H299.121ZM303.449 102.096C302.481 102.096 301.745 101.728 301.241 100.992C300.737 100.256 300.485 99.184 300.485 97.776C300.485 96.36 300.737 95.284 301.241 94.548C301.745 93.812 302.481 93.444 303.449 93.444C304.417 93.444 305.153 93.812 305.657 94.548C306.161 95.276 306.413 96.348 306.413 97.764C306.413 99.18 306.161 100.256 305.657 100.992C305.153 101.728 304.417 102.096 303.449 102.096ZM303.449 101.268C304.121 101.268 304.617 100.984 304.937 100.416C305.257 99.848 305.417 98.964 305.417 97.764C305.417 96.556 305.257 95.676 304.937 95.124C304.625 94.564 304.129 94.284 303.449 94.284C302.777 94.284 302.281 94.564 301.961 95.124C301.641 95.684 301.481 96.564 301.481 97.764C301.481 98.964 301.641 99.848 301.961 100.416C302.281 100.984 302.777 101.268 303.449 101.268ZM313.512 101.172V102H308.064V101.256L311.028 97.992C311.428 97.544 311.716 97.144 311.892 96.792C312.076 96.432 312.168 96.072 312.168 95.712C312.168 95.248 312.032 94.892 311.76 94.644C311.488 94.396 311.104 94.272 310.608 94.272C309.792 94.272 308.992 94.596 308.208 95.244L307.836 94.488C308.172 94.168 308.592 93.916 309.096 93.732C309.608 93.54 310.12 93.444 310.632 93.444C311.408 93.444 312.02 93.644 312.468 94.044C312.924 94.444 313.152 94.984 313.152 95.664C313.152 96.152 313.04 96.62 312.816 97.068C312.6 97.516 312.24 98.016 311.736 98.568L309.336 101.172H313.512ZM319.003 97.656C319.499 97.8 319.879 98.048 320.143 98.4C320.407 98.744 320.539 99.18 320.539 99.708C320.539 100.444 320.287 101.024 319.783 101.448C319.287 101.872 318.611 102.084 317.755 102.084C317.211 102.084 316.687 101.992 316.183 101.808C315.679 101.624 315.255 101.368 314.911 101.04L315.283 100.284C316.051 100.932 316.867 101.256 317.731 101.256C318.331 101.256 318.787 101.124 319.099 100.86C319.411 100.588 319.567 100.192 319.567 99.672C319.567 98.64 318.919 98.124 317.623 98.124H316.651V97.296H317.431C318.055 97.296 318.535 97.16 318.871 96.888C319.207 96.608 319.375 96.208 319.375 95.688C319.375 95.232 319.239 94.884 318.967 94.644C318.695 94.396 318.307 94.272 317.803 94.272C316.987 94.272 316.187 94.596 315.403 95.244L315.031 94.488C315.375 94.16 315.795 93.904 316.291 93.72C316.787 93.536 317.303 93.444 317.839 93.444C318.607 93.444 319.215 93.64 319.663 94.032C320.119 94.416 320.347 94.936 320.347 95.592C320.347 96.08 320.227 96.508 319.987 96.876C319.755 97.236 319.427 97.496 319.003 97.656Z" fill="#0A2E57"/>
<path d="M470.238 99.708C470.238 100.34 470.014 100.872 469.566 101.304C469.118 101.728 468.518 101.984 467.766 102.072V103.38H466.926V102.084C466.382 102.052 465.878 101.948 465.414 101.772C464.95 101.588 464.542 101.332 464.19 101.004L464.562 100.248C464.978 100.6 465.398 100.856 465.822 101.016C466.254 101.176 466.726 101.256 467.238 101.256C467.87 101.256 468.362 101.124 468.714 100.86C469.066 100.596 469.242 100.22 469.242 99.732C469.242 99.444 469.15 99.212 468.966 99.036C468.79 98.852 468.562 98.712 468.282 98.616C468.01 98.512 467.638 98.404 467.166 98.292C466.558 98.14 466.066 97.988 465.69 97.836C465.322 97.684 465.006 97.452 464.742 97.14C464.478 96.828 464.346 96.408 464.346 95.88C464.346 95.448 464.454 95.06 464.67 94.716C464.886 94.364 465.186 94.08 465.57 93.864C465.962 93.648 466.41 93.516 466.914 93.468V92.16H467.754V93.468C468.21 93.508 468.646 93.62 469.062 93.804C469.486 93.988 469.846 94.224 470.142 94.512L469.77 95.268C469.066 94.612 468.25 94.284 467.322 94.284C466.714 94.284 466.234 94.424 465.882 94.704C465.53 94.976 465.354 95.356 465.354 95.844C465.354 96.18 465.45 96.448 465.642 96.648C465.842 96.848 466.086 97.004 466.374 97.116C466.662 97.22 467.058 97.336 467.562 97.464C468.146 97.616 468.614 97.76 468.966 97.896C469.318 98.032 469.618 98.248 469.866 98.544C470.114 98.832 470.238 99.22 470.238 99.708ZM477.289 101.172V102H471.841V101.256L474.805 97.992C475.205 97.544 475.493 97.144 475.669 96.792C475.853 96.432 475.945 96.072 475.945 95.712C475.945 95.248 475.809 94.892 475.537 94.644C475.265 94.396 474.881 94.272 474.385 94.272C473.569 94.272 472.769 94.596 471.985 95.244L471.613 94.488C471.949 94.168 472.369 93.916 472.873 93.732C473.385 93.54 473.897 93.444 474.409 93.444C475.185 93.444 475.797 93.644 476.245 94.044C476.701 94.444 476.929 94.984 476.929 95.664C476.929 96.152 476.817 96.62 476.593 97.068C476.377 97.516 476.017 98.016 475.513 98.568L473.113 101.172H477.289ZM481.977 96.696C482.513 96.696 482.977 96.808 483.369 97.032C483.769 97.256 484.077 97.572 484.293 97.98C484.509 98.38 484.617 98.844 484.617 99.372C484.617 99.908 484.497 100.38 484.257 100.788C484.025 101.196 483.693 101.516 483.261 101.748C482.829 101.972 482.325 102.084 481.749 102.084C481.237 102.084 480.729 101.992 480.225 101.808C479.729 101.616 479.309 101.36 478.965 101.04L479.337 100.284C480.121 100.932 480.925 101.256 481.749 101.256C482.341 101.256 482.805 101.088 483.141 100.752C483.477 100.416 483.645 99.96 483.645 99.384C483.645 98.824 483.477 98.372 483.141 98.028C482.813 97.684 482.373 97.512 481.821 97.512C481.013 97.512 480.369 97.84 479.889 98.496H479.205V93.54H484.281V94.356H480.177V97.368C480.401 97.152 480.665 96.988 480.969 96.876C481.281 96.756 481.617 96.696 481.977 96.696ZM487.192 100.776V101.64C487.192 101.976 487.136 102.28 487.024 102.552C486.92 102.832 486.736 103.104 486.472 103.368L486.016 103.02C486.328 102.676 486.504 102.336 486.544 102H485.968V100.776H487.192ZM491.554 102.096C490.586 102.096 489.85 101.728 489.346 100.992C488.842 100.256 488.59 99.184 488.59 97.776C488.59 96.36 488.842 95.284 489.346 94.548C489.85 93.812 490.586 93.444 491.554 93.444C492.522 93.444 493.258 93.812 493.762 94.548C494.266 95.276 494.518 96.348 494.518 97.764C494.518 99.18 494.266 100.256 493.762 100.992C493.258 101.728 492.522 102.096 491.554 102.096ZM491.554 101.268C492.226 101.268 492.722 100.984 493.042 100.416C493.362 99.848 493.522 98.964 493.522 97.764C493.522 96.556 493.362 95.676 493.042 95.124C492.73 94.564 492.234 94.284 491.554 94.284C490.882 94.284 490.386 94.564 490.066 95.124C489.746 95.684 489.586 96.564 489.586 97.764C489.586 98.964 489.746 99.848 490.066 100.416C490.386 100.984 490.882 101.268 491.554 101.268ZM498.75 102.096C497.782 102.096 497.046 101.728 496.542 100.992C496.038 100.256 495.786 99.184 495.786 97.776C495.786 96.36 496.038 95.284 496.542 94.548C497.046 93.812 497.782 93.444 498.75 93.444C499.718 93.444 500.454 93.812 500.958 94.548C501.462 95.276 501.714 96.348 501.714 97.764C501.714 99.18 501.462 100.256 500.958 100.992C500.454 101.728 499.718 102.096 498.75 102.096ZM498.75 101.268C499.422 101.268 499.918 100.984 500.238 100.416C500.558 99.848 500.718 98.964 500.718 97.764C500.718 96.556 500.558 95.676 500.238 95.124C499.926 94.564 499.43 94.284 498.75 94.284C498.078 94.284 497.582 94.564 497.262 95.124C496.942 95.684 496.782 96.564 496.782 97.764C496.782 98.964 496.942 99.848 497.262 100.416C497.582 100.984 498.078 101.268 498.75 101.268ZM505.945 102.096C504.977 102.096 504.241 101.728 503.737 100.992C503.233 100.256 502.981 99.184 502.981 97.776C502.981 96.36 503.233 95.284 503.737 94.548C504.241 93.812 504.977 93.444 505.945 93.444C506.913 93.444 507.649 93.812 508.153 94.548C508.657 95.276 508.909 96.348 508.909 97.764C508.909 99.18 508.657 100.256 508.153 100.992C507.649 101.728 506.913 102.096 505.945 102.096ZM505.945 101.268C506.617 101.268 507.113 100.984 507.433 100.416C507.753 99.848 507.913 98.964 507.913 97.764C507.913 96.556 507.753 95.676 507.433 95.124C507.121 94.564 506.625 94.284 505.945 94.284C505.273 94.284 504.777 94.564 504.457 95.124C504.137 95.684 503.977 96.564 503.977 97.764C503.977 98.964 504.137 99.848 504.457 100.416C504.777 100.984 505.273 101.268 505.945 101.268Z" fill="#0A2E57"/>
<path d="M33.2181 116.336L32.6781 119.108H34.1661V119.816H32.5461L32.1141 122H31.3581L31.7781 119.816H29.8701L29.4501 122H28.6821L29.1141 119.816H28.0461V119.108H29.2461L29.7861 116.336H28.2861V115.628H29.9301L30.3381 113.54H31.0941L30.6861 115.628H32.5941L33.0021 113.54H33.7701L33.3621 115.628H34.4061V116.336H33.2181ZM32.4621 116.336H30.5541L30.0141 119.108H31.9221L32.4621 116.336ZM38.4214 122.096C37.4534 122.096 36.7174 121.728 36.2134 120.992C35.7094 120.256 35.4574 119.184 35.4574 117.776C35.4574 116.36 35.7094 115.284 36.2134 114.548C36.7174 113.812 37.4534 113.444 38.4214 113.444C39.3894 113.444 40.1254 113.812 40.6294 114.548C41.1334 115.276 41.3854 116.348 41.3854 117.764C41.3854 119.18 41.1334 120.256 40.6294 120.992C40.1254 121.728 39.3894 122.096 38.4214 122.096ZM38.4214 121.268C39.0934 121.268 39.5894 120.984 39.9094 120.416C40.2294 119.848 40.3894 118.964 40.3894 117.764C40.3894 116.556 40.2294 115.676 39.9094 115.124C39.5974 114.564 39.1014 114.284 38.4214 114.284C37.7494 114.284 37.2534 114.564 36.9334 115.124C36.6134 115.684 36.4534 116.564 36.4534 117.764C36.4534 118.964 36.6134 119.848 36.9334 120.416C37.2534 120.984 37.7494 121.268 38.4214 121.268ZM45.6167 122.096C44.6487 122.096 43.9127 121.728 43.4087 120.992C42.9047 120.256 42.6527 119.184 42.6527 117.776C42.6527 116.36 42.9047 115.284 43.4087 114.548C43.9127 113.812 44.6487 113.444 45.6167 113.444C46.5847 113.444 47.3207 113.812 47.8247 114.548C48.3287 115.276 48.5807 116.348 48.5807 117.764C48.5807 119.18 48.3287 120.256 47.8247 120.992C47.3207 121.728 46.5847 122.096 45.6167 122.096ZM45.6167 121.268C46.2887 121.268 46.7847 120.984 47.1047 120.416C47.4247 119.848 47.5847 118.964 47.5847 117.764C47.5847 116.556 47.4247 115.676 47.1047 115.124C46.7927 114.564 46.2967 114.284 45.6167 114.284C44.9447 114.284 44.4487 114.564 44.1287 115.124C43.8087 115.684 43.6487 116.564 43.6487 117.764C43.6487 118.964 43.8087 119.848 44.1287 120.416C44.4487 120.984 44.9447 121.268 45.6167 121.268ZM52.812 122.096C51.844 122.096 51.108 121.728 50.604 120.992C50.1 120.256 49.848 119.184 49.848 117.776C49.848 116.36 50.1 115.284 50.604 114.548C51.108 113.812 51.844 113.444 52.812 113.444C53.78 113.444 54.516 113.812 55.02 114.548C55.524 115.276 55.776 116.348 55.776 117.764C55.776 119.18 55.524 120.256 55.02 120.992C54.516 121.728 53.78 122.096 52.812 122.096ZM52.812 121.268C53.484 121.268 53.98 120.984 54.3 120.416C54.62 119.848 54.78 118.964 54.78 117.764C54.78 116.556 54.62 115.676 54.3 115.124C53.988 114.564 53.492 114.284 52.812 114.284C52.14 114.284 51.644 114.564 51.324 115.124C51.004 115.684 50.844 116.564 50.844 117.764C50.844 118.964 51.004 119.848 51.324 120.416C51.644 120.984 52.14 121.268 52.812 121.268ZM62.6713 121.172V122H57.9673V121.172H59.8273V114.764L58.3393 115.7L57.8833 114.944L60.1033 113.54H60.8113V121.172H62.6713ZM68.6667 117.656C69.1627 117.808 69.5467 118.068 69.8187 118.436C70.0987 118.804 70.2387 119.244 70.2387 119.756C70.2387 120.484 69.9747 121.056 69.4467 121.472C68.9187 121.88 68.1707 122.084 67.2027 122.084C66.2347 122.084 65.4867 121.88 64.9587 121.472C64.4307 121.056 64.1667 120.484 64.1667 119.756C64.1667 119.236 64.3067 118.792 64.5867 118.424C64.8667 118.056 65.2547 117.8 65.7507 117.656C65.3267 117.496 64.9907 117.244 64.7427 116.9C64.4947 116.556 64.3707 116.152 64.3707 115.688C64.3707 115 64.6187 114.456 65.1147 114.056C65.6187 113.648 66.3147 113.444 67.2027 113.444C68.0907 113.444 68.7827 113.648 69.2787 114.056C69.7827 114.456 70.0347 115 70.0347 115.688C70.0347 116.152 69.9107 116.56 69.6627 116.912C69.4147 117.256 69.0827 117.504 68.6667 117.656ZM65.3427 115.76C65.3427 116.256 65.4987 116.636 65.8107 116.9C66.1307 117.164 66.5947 117.296 67.2027 117.296C67.8107 117.296 68.2707 117.164 68.5827 116.9C68.9027 116.636 69.0627 116.256 69.0627 115.76C69.0627 115.288 68.9027 114.92 68.5827 114.656C68.2707 114.392 67.8107 114.26 67.2027 114.26C66.5947 114.26 66.1307 114.392 65.8107 114.656C65.4987 114.92 65.3427 115.288 65.3427 115.76ZM67.2027 121.268C68.5787 121.268 69.2667 120.744 69.2667 119.696C69.2667 118.648 68.5787 118.124 67.2027 118.124C65.8267 118.124 65.1387 118.648 65.1387 119.696C65.1387 120.744 65.8267 121.268 67.2027 121.268Z" fill="#26B67F"/>
<path d="M27.6261 123.2H70.8027V123.8H27.6261V123.2Z" fill="#26B67F"/>
<path d="M251.89 121.172V122H247.186V121.172H249.046V114.764L247.558 115.7L247.102 114.944L249.322 113.54H250.03V121.172H251.89ZM256.421 122.096C255.453 122.096 254.717 121.728 254.213 120.992C253.709 120.256 253.457 119.184 253.457 117.776C253.457 116.36 253.709 115.284 254.213 114.548C254.717 113.812 255.453 113.444 256.421 113.444C257.389 113.444 258.125 113.812 258.629 114.548C259.133 115.276 259.385 116.348 259.385 117.764C259.385 119.18 259.133 120.256 258.629 120.992C258.125 121.728 257.389 122.096 256.421 122.096ZM256.421 121.268C257.093 121.268 257.589 120.984 257.909 120.416C258.229 119.848 258.389 118.964 258.389 117.764C258.389 116.556 258.229 115.676 257.909 115.124C257.597 114.564 257.101 114.284 256.421 114.284C255.749 114.284 255.253 114.564 254.933 115.124C254.613 115.684 254.453 116.564 254.453 117.764C254.453 118.964 254.613 119.848 254.933 120.416C255.253 120.984 255.749 121.268 256.421 121.268ZM263.485 121.304C263.661 121.304 263.837 121.292 264.013 121.268L263.965 122.036C263.781 122.068 263.581 122.084 263.365 122.084C262.661 122.084 262.129 121.9 261.769 121.532C261.417 121.164 261.241 120.652 261.241 119.996V116.924H260.101V116.156H261.241V114.38H262.213V116.156H263.869V116.924H262.213V119.924C262.213 120.844 262.637 121.304 263.485 121.304ZM267.935 116.012C269.335 116.012 270.035 116.784 270.035 118.328V122H269.063V118.388C269.063 117.844 268.955 117.448 268.739 117.2C268.531 116.952 268.195 116.828 267.731 116.828C267.195 116.828 266.767 116.992 266.447 117.32C266.127 117.648 265.967 118.092 265.967 118.652V122H264.995V113.54H265.967V117.092C266.159 116.74 266.423 116.472 266.759 116.288C267.103 116.104 267.495 116.012 267.935 116.012ZM273.913 121.256L274.633 121.208C275.033 121.176 275.341 121.036 275.557 120.788C275.781 120.532 275.893 120.184 275.893 119.744V113.54H276.877V119.756C276.877 120.452 276.697 120.996 276.337 121.388C275.977 121.78 275.453 121.996 274.765 122.036L273.985 122.084L273.913 121.256ZM281.199 116.012C281.943 116.012 282.495 116.204 282.855 116.588C283.223 116.964 283.407 117.54 283.407 118.316V122H282.459V121.004C282.307 121.348 282.075 121.616 281.763 121.808C281.451 121.992 281.091 122.084 280.683 122.084C280.307 122.084 279.959 122.008 279.639 121.856C279.327 121.704 279.079 121.492 278.895 121.22C278.711 120.948 278.619 120.648 278.619 120.32C278.619 119.88 278.731 119.54 278.955 119.3C279.179 119.052 279.547 118.876 280.059 118.772C280.571 118.66 281.283 118.604 282.195 118.604H282.459V118.208C282.459 117.72 282.359 117.368 282.159 117.152C281.959 116.928 281.635 116.816 281.187 116.816C280.515 116.816 279.847 117.024 279.183 117.44L278.859 116.732C279.163 116.516 279.527 116.344 279.951 116.216C280.383 116.08 280.799 116.012 281.199 116.012ZM280.815 121.316C281.295 121.316 281.687 121.156 281.991 120.836C282.303 120.508 282.459 120.088 282.459 119.576V119.228H282.243C281.539 119.228 281.003 119.26 280.635 119.324C280.267 119.38 280.003 119.48 279.843 119.624C279.691 119.76 279.615 119.964 279.615 120.236C279.615 120.548 279.727 120.808 279.951 121.016C280.183 121.216 280.471 121.316 280.815 121.316ZM288.126 116.012C289.526 116.012 290.226 116.784 290.226 118.328V122H289.254V118.388C289.254 117.844 289.146 117.448 288.93 117.2C288.722 116.952 288.386 116.828 287.922 116.828C287.386 116.828 286.958 116.992 286.638 117.32C286.318 117.648 286.158 118.092 286.158 118.652V122H285.186V116.156H286.146V117.116C286.338 116.756 286.606 116.484 286.95 116.3C287.294 116.108 287.686 116.012 288.126 116.012ZM293.087 120.776V121.64C293.087 121.976 293.031 122.28 292.919 122.552C292.815 122.832 292.631 123.104 292.367 123.368L291.911 123.02C292.223 122.676 292.399 122.336 292.439 122H291.863V120.776H293.087ZM303.411 121.172V122H297.963V121.256L300.927 117.992C301.327 117.544 301.615 117.144 301.791 116.792C301.975 116.432 302.067 116.072 302.067 115.712C302.067 115.248 301.931 114.892 301.659 114.644C301.387 114.396 301.003 114.272 300.507 114.272C299.691 114.272 298.891 114.596 298.107 115.244L297.735 114.488C298.071 114.168 298.491 113.916 298.995 113.732C299.507 113.54 300.019 113.444 300.531 113.444C301.307 113.444 301.919 113.644 302.367 114.044C302.823 114.444 303.051 114.984 303.051 115.664C303.051 116.152 302.939 116.62 302.715 117.068C302.499 117.516 302.139 118.016 301.635 118.568L299.235 121.172H303.411ZM307.738 122.096C306.77 122.096 306.034 121.728 305.53 120.992C305.026 120.256 304.774 119.184 304.774 117.776C304.774 116.36 305.026 115.284 305.53 114.548C306.034 113.812 306.77 113.444 307.738 113.444C308.706 113.444 309.442 113.812 309.946 114.548C310.45 115.276 310.702 116.348 310.702 117.764C310.702 119.18 310.45 120.256 309.946 120.992C309.442 121.728 308.706 122.096 307.738 122.096ZM307.738 121.268C308.41 121.268 308.906 120.984 309.226 120.416C309.546 119.848 309.706 118.964 309.706 117.764C309.706 116.556 309.546 115.676 309.226 115.124C308.914 114.564 308.418 114.284 307.738 114.284C307.066 114.284 306.57 114.564 306.25 115.124C305.93 115.684 305.77 116.564 305.77 117.764C305.77 118.964 305.93 119.848 306.25 120.416C306.57 120.984 307.066 121.268 307.738 121.268ZM317.801 121.172V122H312.353V121.256L315.317 117.992C315.717 117.544 316.005 117.144 316.181 116.792C316.365 116.432 316.457 116.072 316.457 115.712C316.457 115.248 316.321 114.892 316.049 114.644C315.777 114.396 315.393 114.272 314.897 114.272C314.081 114.272 313.281 114.596 312.497 115.244L312.125 114.488C312.461 114.168 312.881 113.916 313.385 113.732C313.897 113.54 314.409 113.444 314.921 113.444C315.697 113.444 316.309 113.644 316.757 114.044C317.213 114.444 317.441 114.984 317.441 115.664C317.441 116.152 317.329 116.62 317.105 117.068C316.889 117.516 316.529 118.016 316.025 118.568L313.625 121.172H317.801ZM323.292 117.656C323.788 117.8 324.168 118.048 324.432 118.4C324.696 118.744 324.828 119.18 324.828 119.708C324.828 120.444 324.576 121.024 324.072 121.448C323.576 121.872 322.9 122.084 322.044 122.084C321.5 122.084 320.976 121.992 320.472 121.808C319.968 121.624 319.544 121.368 319.2 121.04L319.572 120.284C320.34 120.932 321.156 121.256 322.02 121.256C322.62 121.256 323.076 121.124 323.388 120.86C323.7 120.588 323.856 120.192 323.856 119.672C323.856 118.64 323.208 118.124 321.912 118.124H320.94V117.296H321.72C322.344 117.296 322.824 117.16 323.16 116.888C323.496 116.608 323.664 116.208 323.664 115.688C323.664 115.232 323.528 114.884 323.256 114.644C322.984 114.396 322.596 114.272 322.092 114.272C321.276 114.272 320.476 114.596 319.692 115.244L319.32 114.488C319.664 114.16 320.084 113.904 320.58 113.72C321.076 113.536 321.592 113.444 322.128 113.444C322.896 113.444 323.504 113.64 323.952 114.032C324.408 114.416 324.636 114.936 324.636 115.592C324.636 116.08 324.516 116.508 324.276 116.876C324.044 117.236 323.716 117.496 323.292 117.656Z" fill="#0A2E57"/>
<path d="M470.238 119.708C470.238 120.34 470.014 120.872 469.566 121.304C469.118 121.728 468.518 121.984 467.766 122.072V123.38H466.926V122.084C466.382 122.052 465.878 121.948 465.414 121.772C464.95 121.588 464.542 121.332 464.19 121.004L464.562 120.248C464.978 120.6 465.398 120.856 465.822 121.016C466.254 121.176 466.726 121.256 467.238 121.256C467.87 121.256 468.362 121.124 468.714 120.86C469.066 120.596 469.242 120.22 469.242 119.732C469.242 119.444 469.15 119.212 468.966 119.036C468.79 118.852 468.562 118.712 468.282 118.616C468.01 118.512 467.638 118.404 467.166 118.292C466.558 118.14 466.066 117.988 465.69 117.836C465.322 117.684 465.006 117.452 464.742 117.14C464.478 116.828 464.346 116.408 464.346 115.88C464.346 115.448 464.454 115.06 464.67 114.716C464.886 114.364 465.186 114.08 465.57 113.864C465.962 113.648 466.41 113.516 466.914 113.468V112.16H467.754V113.468C468.21 113.508 468.646 113.62 469.062 113.804C469.486 113.988 469.846 114.224 470.142 114.512L469.77 115.268C469.066 114.612 468.25 114.284 467.322 114.284C466.714 114.284 466.234 114.424 465.882 114.704C465.53 114.976 465.354 115.356 465.354 115.844C465.354 116.18 465.45 116.448 465.642 116.648C465.842 116.848 466.086 117.004 466.374 117.116C466.662 117.22 467.058 117.336 467.562 117.464C468.146 117.616 468.614 117.76 468.966 117.896C469.318 118.032 469.618 118.248 469.866 118.544C470.114 118.832 470.238 119.22 470.238 119.708ZM477.289 121.172V122H471.841V121.256L474.805 117.992C475.205 117.544 475.493 117.144 475.669 116.792C475.853 116.432 475.945 116.072 475.945 115.712C475.945 115.248 475.809 114.892 475.537 114.644C475.265 114.396 474.881 114.272 474.385 114.272C473.569 114.272 472.769 114.596 471.985 115.244L471.613 114.488C471.949 114.168 472.369 113.916 472.873 113.732C473.385 113.54 473.897 113.444 474.409 113.444C475.185 113.444 475.797 113.644 476.245 114.044C476.701 114.444 476.929 114.984 476.929 115.664C476.929 116.152 476.817 116.62 476.593 117.068C476.377 117.516 476.017 118.016 475.513 118.568L473.113 121.172H477.289ZM481.617 122.096C480.649 122.096 479.913 121.728 479.409 120.992C478.905 120.256 478.653 119.184 478.653 117.776C478.653 116.36 478.905 115.284 479.409 114.548C479.913 113.812 480.649 113.444 481.617 113.444C482.585 113.444 483.321 113.812 483.825 114.548C484.329 115.276 484.581 116.348 484.581 117.764C484.581 119.18 484.329 120.256 483.825 120.992C483.321 121.728 482.585 122.096 481.617 122.096ZM481.617 121.268C482.289 121.268 482.785 120.984 483.105 120.416C483.425 119.848 483.585 118.964 483.585 117.764C483.585 116.556 483.425 115.676 483.105 115.124C482.793 114.564 482.297 114.284 481.617 114.284C480.945 114.284 480.449 114.564 480.129 115.124C479.809 115.684 479.649 116.564 479.649 117.764C479.649 118.964 479.809 119.848 480.129 120.416C480.449 120.984 480.945 121.268 481.617 121.268ZM487.192 120.776V121.64C487.192 121.976 487.136 122.28 487.024 122.552C486.92 122.832 486.736 123.104 486.472 123.368L486.016 123.02C486.328 122.676 486.504 122.336 486.544 122H485.968V120.776H487.192ZM491.554 122.096C490.586 122.096 489.85 121.728 489.346 120.992C488.842 120.256 488.59 119.184 488.59 117.776C488.59 116.36 488.842 115.284 489.346 114.548C489.85 113.812 490.586 113.444 491.554 113.444C492.522 113.444 493.258 113.812 493.762 114.548C494.266 115.276 494.518 116.348 494.518 117.764C494.518 119.18 494.266 120.256 493.762 120.992C493.258 121.728 492.522 122.096 491.554 122.096ZM491.554 121.268C492.226 121.268 492.722 120.984 493.042 120.416C493.362 119.848 493.522 118.964 493.522 117.764C493.522 116.556 493.362 115.676 493.042 115.124C492.73 114.564 492.234 114.284 491.554 114.284C490.882 114.284 490.386 114.564 490.066 115.124C489.746 115.684 489.586 116.564 489.586 117.764C489.586 118.964 489.746 119.848 490.066 120.416C490.386 120.984 490.882 121.268 491.554 121.268ZM498.75 122.096C497.782 122.096 497.046 121.728 496.542 120.992C496.038 120.256 495.786 119.184 495.786 117.776C495.786 116.36 496.038 115.284 496.542 114.548C497.046 113.812 497.782 113.444 498.75 113.444C499.718 113.444 500.454 113.812 500.958 114.548C501.462 115.276 501.714 116.348 501.714 117.764C501.714 119.18 501.462 120.256 500.958 120.992C500.454 121.728 499.718 122.096 498.75 122.096ZM498.75 121.268C499.422 121.268 499.918 120.984 500.238 120.416C500.558 119.848 500.718 118.964 500.718 117.764C500.718 116.556 500.558 115.676 500.238 115.124C499.926 114.564 499.43 114.284 498.75 114.284C498.078 114.284 497.582 114.564 497.262 115.124C496.942 115.684 496.782 116.564 496.782 117.764C496.782 118.964 496.942 119.848 497.262 120.416C497.582 120.984 498.078 121.268 498.75 121.268ZM505.945 122.096C504.977 122.096 504.241 121.728 503.737 120.992C503.233 120.256 502.981 119.184 502.981 117.776C502.981 116.36 503.233 115.284 503.737 114.548C504.241 113.812 504.977 113.444 505.945 113.444C506.913 113.444 507.649 113.812 508.153 114.548C508.657 115.276 508.909 116.348 508.909 117.764C508.909 119.18 508.657 120.256 508.153 120.992C507.649 121.728 506.913 122.096 505.945 122.096ZM505.945 121.268C506.617 121.268 507.113 120.984 507.433 120.416C507.753 119.848 507.913 118.964 507.913 117.764C507.913 116.556 507.753 115.676 507.433 115.124C507.121 114.564 506.625 114.284 505.945 114.284C505.273 114.284 504.777 114.564 504.457 115.124C504.137 115.684 503.977 116.564 503.977 117.764C503.977 118.964 504.137 119.848 504.457 120.416C504.777 120.984 505.273 121.268 505.945 121.268Z" fill="#0A2E57"/>
<defs>
<filter id="filter0_d_30_233" x="0" y="0" width="623" height="160" filterUnits="userSpaceOnUse" color-interpolation-filters="sRGB">
<feFlood flood-opacity="0" result="BackgroundImageFix"/>
<feColorMatrix in="SourceAlpha" type="matrix" values="0 0 0 0 0 0 0 0 0 0 0 0 0 0 0 0 0 0 127 0" result="hardAlpha"/>
<feOffset dy="6"/>
<feGaussianBlur stdDeviation="6"/>
<feComposite in2="hardAlpha" operator="out"/>
<feColorMatrix type="matrix" values="0 0 0 0 0.0392157 0 0 0 0 0.180392 0 0 0 0 0.341176 0 0 0 0.1 0"/>
<feBlend mode="normal" in2="BackgroundImageFix" result="effect1_dropShadow_30_233"/>
<feBlend mode="normal" in="SourceGraphic" in2="effect1_dropShadow_30_233" result="shape"/>
</filter>
</defs>
</svg>
