<svg width="311" height="106" viewBox="0 0 311 106" fill="none" xmlns="http://www.w3.org/2000/svg">
<g filter="url(#filter0_d_30_177)">
<rect width="287" height="82" rx="8" transform="matrix(1 0 0 -1 12 88)" fill="white"/>
</g>
<rect x="22" y="16" width="16" height="16" rx="7.99999" fill="#26B67F"/>
<g clip-path="url(#clip0_30_177)">
<path d="M30 20.6667C28.16 20.6667 26.6667 22.16 26.6667 24C26.6667 25.84 28.16 27.3333 30 27.3333C31.84 27.3333 33.3333 25.84 33.3333 24C33.3333 22.16 31.84 20.6667 30 20.6667ZM30 26.6667C28.53 26.6667 27.3334 25.47 27.3334 24C27.3334 22.53 28.53 21.3333 30 21.3333C31.47 21.3333 32.6667 22.53 32.6667 24C32.6667 25.47 31.47 26.6667 30 26.6667ZM31.53 22.5267L29.3334 24.7233L28.47 23.8633L28 24.3333L29.3334 25.6667L32 23L31.53 22.5267Z" fill="white"/>
</g>
<path d="M42.912 19.54H44.46V28H42.912V19.54ZM49.563 21.988C50.267 21.988 50.791 22.188 51.135 22.588C51.479 22.988 51.651 23.592 51.651 24.4V28H50.151V24.484C50.151 24.028 50.063 23.696 49.887 23.488C49.719 23.28 49.451 23.176 49.083 23.176C48.651 23.176 48.303 23.312 48.039 23.584C47.783 23.856 47.655 24.22 47.655 24.676V28H46.155V22.132H47.619V23.008C47.819 22.68 48.087 22.428 48.423 22.252C48.759 22.076 49.139 21.988 49.563 21.988ZM58.7665 22.144L56.1985 28H54.8905L52.3465 22.144H53.9305L55.5865 26.284L57.2905 22.144H58.7665ZM62.0732 28.096C61.4732 28.096 60.9452 27.972 60.4892 27.724C60.0412 27.476 59.6932 27.12 59.4452 26.656C59.1972 26.192 59.0732 25.652 59.0732 25.036C59.0732 24.42 59.1972 23.884 59.4452 23.428C59.6932 22.964 60.0412 22.608 60.4892 22.36C60.9452 22.112 61.4732 21.988 62.0732 21.988C62.6732 21.988 63.1972 22.112 63.6452 22.36C64.1012 22.608 64.4492 22.964 64.6892 23.428C64.9372 23.884 65.0612 24.42 65.0612 25.036C65.0612 25.652 64.9372 26.192 64.6892 26.656C64.4492 27.12 64.1012 27.476 63.6452 27.724C63.1972 27.972 62.6732 28.096 62.0732 28.096ZM62.0612 26.932C62.5492 26.932 62.9212 26.772 63.1772 26.452C63.4332 26.132 63.5612 25.66 63.5612 25.036C63.5612 24.42 63.4332 23.952 63.1772 23.632C62.9212 23.304 62.5532 23.14 62.0732 23.14C61.5932 23.14 61.2212 23.304 60.9572 23.632C60.7012 23.952 60.5732 24.42 60.5732 25.036C60.5732 25.66 60.7012 26.132 60.9572 26.452C61.2132 26.772 61.5812 26.932 62.0612 26.932ZM66.2995 22.132H67.7995V28H66.2995V22.132ZM67.8715 19.408V20.884H66.2155V19.408H67.8715ZM72.0224 28.096C71.4064 28.096 70.8704 27.972 70.4144 27.724C69.9664 27.476 69.6224 27.124 69.3824 26.668C69.1424 26.212 69.0224 25.68 69.0224 25.072C69.0224 24.464 69.1464 23.928 69.3944 23.464C69.6504 22.992 70.0104 22.628 70.4744 22.372C70.9384 22.116 71.4744 21.988 72.0824 21.988C72.4984 21.988 72.9024 22.056 73.2944 22.192C73.6944 22.32 74.0144 22.496 74.2544 22.72L73.8224 23.776C73.5744 23.576 73.3104 23.424 73.0304 23.32C72.7584 23.216 72.4864 23.164 72.2144 23.164C71.6944 23.164 71.2904 23.328 71.0024 23.656C70.7144 23.976 70.5704 24.44 70.5704 25.048C70.5704 25.648 70.7144 26.112 71.0024 26.44C71.2904 26.76 71.6944 26.92 72.2144 26.92C72.4864 26.92 72.7584 26.868 73.0304 26.764C73.3104 26.66 73.5744 26.508 73.8224 26.308L74.2544 27.352C73.9984 27.584 73.6704 27.768 73.2704 27.904C72.8704 28.032 72.4544 28.096 72.0224 28.096ZM80.3538 25.336H76.3578C76.4058 25.88 76.5698 26.284 76.8498 26.548C77.1298 26.812 77.5298 26.944 78.0498 26.944C78.6978 26.944 79.2898 26.736 79.8258 26.32L80.2578 27.352C79.9858 27.576 79.6418 27.756 79.2258 27.892C78.8178 28.028 78.4058 28.096 77.9898 28.096C77.0298 28.096 76.2698 27.824 75.7098 27.28C75.1578 26.736 74.8818 25.992 74.8818 25.048C74.8818 24.448 75.0018 23.916 75.2418 23.452C75.4818 22.988 75.8178 22.628 76.2498 22.372C76.6898 22.116 77.1858 21.988 77.7378 21.988C78.5458 21.988 79.1818 22.248 79.6458 22.768C80.1178 23.288 80.3538 24.004 80.3538 24.916V25.336ZM77.7738 23.044C77.3738 23.044 77.0498 23.172 76.8018 23.428C76.5618 23.684 76.4138 24.052 76.3578 24.532H79.0698C79.0538 24.044 78.9338 23.676 78.7098 23.428C78.4858 23.172 78.1738 23.044 77.7738 23.044ZM84.9706 19.54H90.5146V20.776H86.4946V23.08H90.2746V24.316H86.4946V28H84.9706V19.54ZM96.9063 22.132V28H95.4423V27.1C95.2583 27.42 95.0103 27.668 94.6983 27.844C94.3863 28.012 94.0343 28.096 93.6423 28.096C92.2023 28.096 91.4823 27.288 91.4823 25.672V22.132H92.9823V25.684C92.9823 26.1 93.0663 26.408 93.2343 26.608C93.4023 26.808 93.6663 26.908 94.0263 26.908C94.4423 26.908 94.7743 26.772 95.0223 26.5C95.2783 26.22 95.4063 25.852 95.4063 25.396V22.132H96.9063ZM101.876 21.988C102.58 21.988 103.104 22.188 103.448 22.588C103.792 22.988 103.964 23.592 103.964 24.4V28H102.464V24.484C102.464 24.028 102.376 23.696 102.2 23.488C102.032 23.28 101.764 23.176 101.396 23.176C100.964 23.176 100.616 23.312 100.352 23.584C100.096 23.856 99.9675 24.22 99.9675 24.676V28H98.4675V22.132H99.9315V23.008C100.132 22.68 100.4 22.428 100.736 22.252C101.072 22.076 101.452 21.988 101.876 21.988ZM111.151 19.54V28H109.663V27.052C109.487 27.38 109.231 27.636 108.895 27.82C108.567 28.004 108.191 28.096 107.767 28.096C107.263 28.096 106.811 27.968 106.411 27.712C106.019 27.456 105.711 27.096 105.487 26.632C105.271 26.16 105.163 25.62 105.163 25.012C105.163 24.404 105.271 23.872 105.487 23.416C105.711 22.96 106.019 22.608 106.411 22.36C106.803 22.112 107.255 21.988 107.767 21.988C108.191 21.988 108.567 22.076 108.895 22.252C109.223 22.428 109.475 22.676 109.651 22.996V19.54H111.151ZM108.163 26.932C108.643 26.932 109.011 26.768 109.267 26.44C109.531 26.112 109.663 25.644 109.663 25.036C109.663 24.428 109.531 23.964 109.267 23.644C109.011 23.316 108.647 23.152 108.175 23.152C107.695 23.152 107.323 23.312 107.059 23.632C106.795 23.952 106.663 24.412 106.663 25.012C106.663 25.62 106.795 26.092 107.059 26.428C107.323 26.764 107.691 26.932 108.163 26.932ZM117.842 25.336H113.846C113.894 25.88 114.058 26.284 114.338 26.548C114.618 26.812 115.018 26.944 115.538 26.944C116.186 26.944 116.778 26.736 117.314 26.32L117.746 27.352C117.474 27.576 117.13 27.756 116.714 27.892C116.306 28.028 115.894 28.096 115.478 28.096C114.518 28.096 113.758 27.824 113.198 27.28C112.646 26.736 112.37 25.992 112.37 25.048C112.37 24.448 112.49 23.916 112.73 23.452C112.97 22.988 113.306 22.628 113.738 22.372C114.178 22.116 114.674 21.988 115.226 21.988C116.034 21.988 116.67 22.248 117.134 22.768C117.606 23.288 117.842 24.004 117.842 24.916V25.336ZM115.262 23.044C114.862 23.044 114.538 23.172 114.29 23.428C114.05 23.684 113.902 24.052 113.846 24.532H116.558C116.542 24.044 116.422 23.676 116.198 23.428C115.974 23.172 115.662 23.044 115.262 23.044ZM124.733 19.54V28H123.245V27.052C123.069 27.38 122.813 27.636 122.477 27.82C122.149 28.004 121.773 28.096 121.349 28.096C120.845 28.096 120.393 27.968 119.993 27.712C119.601 27.456 119.293 27.096 119.069 26.632C118.853 26.16 118.745 25.62 118.745 25.012C118.745 24.404 118.853 23.872 119.069 23.416C119.293 22.96 119.601 22.608 119.993 22.36C120.385 22.112 120.837 21.988 121.349 21.988C121.773 21.988 122.149 22.076 122.477 22.252C122.805 22.428 123.057 22.676 123.233 22.996V19.54H124.733ZM121.745 26.932C122.225 26.932 122.593 26.768 122.849 26.44C123.113 26.112 123.245 25.644 123.245 25.036C123.245 24.428 123.113 23.964 122.849 23.644C122.593 23.316 122.229 23.152 121.757 23.152C121.277 23.152 120.905 23.312 120.641 23.632C120.377 23.952 120.245 24.412 120.245 25.012C120.245 25.62 120.377 26.092 120.641 26.428C120.905 26.764 121.273 26.932 121.745 26.932Z" fill="#0A2E57"/>
<path d="M25.88 46.08C25.2133 46.08 24.6333 45.9367 24.14 45.65C23.6467 45.3567 23.2667 44.94 23 44.4C22.74 43.8533 22.61 43.21 22.61 42.47C22.61 41.73 22.74 41.09 23 40.55C23.2667 40.01 23.6467 39.5967 24.14 39.31C24.6333 39.0167 25.2133 38.87 25.88 38.87C26.3667 38.87 26.8133 38.9467 27.22 39.1C27.6267 39.2467 27.98 39.4667 28.28 39.76L27.97 40.39C27.63 40.1033 27.2967 39.8967 26.97 39.77C26.6433 39.6433 26.2833 39.58 25.89 39.58C25.1167 39.58 24.5167 39.8333 24.09 40.34C23.67 40.84 23.46 41.55 23.46 42.47C23.46 43.3967 23.67 44.1133 24.09 44.62C24.5167 45.12 25.1167 45.37 25.89 45.37C26.2833 45.37 26.6433 45.3067 26.97 45.18C27.2967 45.0533 27.63 44.8467 27.97 44.56L28.28 45.19C27.98 45.4833 27.6267 45.7067 27.22 45.86C26.8133 46.0067 26.3667 46.08 25.88 46.08ZM31.4399 46.07C30.9799 46.07 30.5733 45.9667 30.2199 45.76C29.8733 45.5533 29.6033 45.26 29.4099 44.88C29.2233 44.4933 29.1299 44.0467 29.1299 43.54C29.1299 43.0333 29.2233 42.59 29.4099 42.21C29.6033 41.8233 29.8733 41.5267 30.2199 41.32C30.5733 41.1133 30.9799 41.01 31.4399 41.01C31.8999 41.01 32.3066 41.1133 32.6599 41.32C33.0133 41.5267 33.2833 41.8233 33.4699 42.21C33.6633 42.59 33.7599 43.0333 33.7599 43.54C33.7599 44.0467 33.6633 44.4933 33.4699 44.88C33.2833 45.26 33.0133 45.5533 32.6599 45.76C32.3066 45.9667 31.8999 46.07 31.4399 46.07ZM31.4399 45.4C31.9199 45.4 32.2866 45.2433 32.5399 44.93C32.7999 44.61 32.9299 44.1467 32.9299 43.54C32.9299 42.9467 32.7999 42.49 32.5399 42.17C32.2799 41.8433 31.9133 41.68 31.4399 41.68C30.9666 41.68 30.5999 41.8433 30.3399 42.17C30.0799 42.49 29.9499 42.9467 29.9499 43.54C29.9499 44.14 30.0766 44.6 30.3299 44.92C30.5899 45.24 30.9599 45.4 31.4399 45.4ZM37.4168 41.01C38.5835 41.01 39.1668 41.6533 39.1668 42.94V46H38.3568V42.99C38.3568 42.5367 38.2668 42.2067 38.0868 42C37.9135 41.7933 37.6335 41.69 37.2468 41.69C36.8001 41.69 36.4435 41.8267 36.1768 42.1C35.9101 42.3733 35.7768 42.7433 35.7768 43.21V46H34.9668V41.13H35.7668V41.93C35.9268 41.63 36.1501 41.4033 36.4368 41.25C36.7235 41.09 37.0501 41.01 37.4168 41.01ZM45.0104 41.13V45.67C45.0104 46.3967 44.8237 46.9433 44.4504 47.31C44.0771 47.6833 43.5237 47.87 42.7904 47.87C41.9371 47.87 41.2204 47.65 40.6404 47.21L40.9104 46.61C41.2371 46.8233 41.5437 46.9767 41.8304 47.07C42.1171 47.1633 42.4371 47.21 42.7904 47.21C43.2571 47.21 43.6104 47.0833 43.8504 46.83C44.0904 46.5833 44.2104 46.22 44.2104 45.74V44.88C44.0704 45.1933 43.8537 45.4333 43.5604 45.6C43.2737 45.7667 42.9337 45.85 42.5404 45.85C42.1137 45.85 41.7337 45.75 41.4004 45.55C41.0737 45.35 40.8171 45.0667 40.6304 44.7C40.4504 44.3333 40.3604 43.91 40.3604 43.43C40.3604 42.95 40.4504 42.5267 40.6304 42.16C40.8171 41.7933 41.0737 41.51 41.4004 41.31C41.7337 41.11 42.1137 41.01 42.5404 41.01C42.9271 41.01 43.2637 41.0933 43.5504 41.26C43.8371 41.4267 44.0537 41.6633 44.2004 41.97V41.13H45.0104ZM42.7004 45.18C43.1671 45.18 43.5337 45.0267 43.8004 44.72C44.0671 44.4067 44.2004 43.9767 44.2004 43.43C44.2004 42.89 44.0671 42.4667 43.8004 42.16C43.5404 41.8467 43.1737 41.69 42.7004 41.69C42.2271 41.69 41.8537 41.8467 41.5804 42.16C41.3137 42.4667 41.1804 42.89 41.1804 43.43C41.1804 43.9767 41.3137 44.4067 41.5804 44.72C41.8537 45.0267 42.2271 45.18 42.7004 45.18ZM49.2698 41.71L48.7398 41.76C48.2398 41.8067 47.8764 41.9633 47.6498 42.23C47.4298 42.4967 47.3198 42.8267 47.3198 43.22V46H46.5098V41.13H47.2998V41.98C47.5731 41.4133 48.1098 41.0967 48.9098 41.03L49.1998 41.01L49.2698 41.71ZM51.9761 41.01C52.5961 41.01 53.0561 41.17 53.3561 41.49C53.6628 41.8033 53.8161 42.2833 53.8161 42.93V46H53.0261V45.17C52.8994 45.4567 52.7061 45.68 52.4461 45.84C52.1861 45.9933 51.8861 46.07 51.5461 46.07C51.2328 46.07 50.9428 46.0067 50.6761 45.88C50.4161 45.7533 50.2094 45.5767 50.0561 45.35C49.9028 45.1233 49.8261 44.8733 49.8261 44.6C49.8261 44.2333 49.9194 43.95 50.1061 43.75C50.2928 43.5433 50.5994 43.3967 51.0261 43.31C51.4528 43.2167 52.0461 43.17 52.8061 43.17H53.0261V42.84C53.0261 42.4333 52.9428 42.14 52.7761 41.96C52.6094 41.7733 52.3394 41.68 51.9661 41.68C51.4061 41.68 50.8494 41.8533 50.2961 42.2L50.0261 41.61C50.2794 41.43 50.5828 41.2867 50.9361 41.18C51.2961 41.0667 51.6428 41.01 51.9761 41.01ZM51.6561 45.43C52.0561 45.43 52.3828 45.2967 52.6361 45.03C52.8961 44.7567 53.0261 44.4067 53.0261 43.98V43.69H52.8461C52.2594 43.69 51.8128 43.7167 51.5061 43.77C51.1994 43.8167 50.9794 43.9 50.8461 44.02C50.7194 44.1333 50.6561 44.3033 50.6561 44.53C50.6561 44.79 50.7494 45.0067 50.9361 45.18C51.1294 45.3467 51.3694 45.43 51.6561 45.43ZM57.4388 45.42C57.5855 45.42 57.7322 45.41 57.8788 45.39L57.8388 46.03C57.6855 46.0567 57.5188 46.07 57.3388 46.07C56.7522 46.07 56.3088 45.9167 56.0088 45.61C55.7155 45.3033 55.5688 44.8767 55.5688 44.33V41.77H54.6188V41.13H55.5688V39.65H56.3788V41.13H57.7588V41.77H56.3788V44.27C56.3788 45.0367 56.7322 45.42 57.4388 45.42ZM62.7973 41.13V46H62.0073V45.17C61.8539 45.4633 61.6373 45.6867 61.3573 45.84C61.0839 45.9933 60.7739 46.07 60.4273 46.07C59.8473 46.07 59.4106 45.91 59.1173 45.59C58.8239 45.2633 58.6773 44.7833 58.6773 44.15V41.13H59.4873V44.13C59.4873 44.5633 59.5739 44.8833 59.7473 45.09C59.9206 45.29 60.1939 45.39 60.5673 45.39C60.9939 45.39 61.3373 45.2533 61.5973 44.98C61.8573 44.7 61.9873 44.3333 61.9873 43.88V41.13H62.7973ZM64.3027 38.95H65.1127V46H64.3027V38.95ZM68.607 41.01C69.227 41.01 69.687 41.17 69.987 41.49C70.2936 41.8033 70.447 42.2833 70.447 42.93V46H69.657V45.17C69.5303 45.4567 69.337 45.68 69.077 45.84C68.817 45.9933 68.517 46.07 68.177 46.07C67.8636 46.07 67.5736 46.0067 67.307 45.88C67.047 45.7533 66.8403 45.5767 66.687 45.35C66.5336 45.1233 66.457 44.8733 66.457 44.6C66.457 44.2333 66.5503 43.95 66.737 43.75C66.9236 43.5433 67.2303 43.3967 67.657 43.31C68.0836 43.2167 68.677 43.17 69.437 43.17H69.657V42.84C69.657 42.4333 69.5736 42.14 69.407 41.96C69.2403 41.7733 68.9703 41.68 68.597 41.68C68.037 41.68 67.4803 41.8533 66.927 42.2L66.657 41.61C66.9103 41.43 67.2136 41.2867 67.567 41.18C67.927 41.0667 68.2736 41.01 68.607 41.01ZM68.287 45.43C68.687 45.43 69.0136 45.2967 69.267 45.03C69.527 44.7567 69.657 44.4067 69.657 43.98V43.69H69.477C68.8903 43.69 68.4436 43.7167 68.137 43.77C67.8303 43.8167 67.6103 43.9 67.477 44.02C67.3503 44.1333 67.287 44.3033 67.287 44.53C67.287 44.79 67.3803 45.0067 67.567 45.18C67.7603 45.3467 68.0003 45.43 68.287 45.43ZM74.0697 45.42C74.2164 45.42 74.363 45.41 74.5097 45.39L74.4697 46.03C74.3164 46.0567 74.1497 46.07 73.9697 46.07C73.383 46.07 72.9397 45.9167 72.6397 45.61C72.3464 45.3033 72.1997 44.8767 72.1997 44.33V41.77H71.2497V41.13H72.1997V39.65H73.0097V41.13H74.3897V41.77H73.0097V44.27C73.0097 45.0367 73.363 45.42 74.0697 45.42ZM75.3281 41.13H76.1381V46H75.3281V41.13ZM76.2281 39.02V39.93H75.2481V39.02H76.2281ZM79.6723 46.07C79.2123 46.07 78.8057 45.9667 78.4523 45.76C78.1057 45.5533 77.8357 45.26 77.6423 44.88C77.4557 44.4933 77.3623 44.0467 77.3623 43.54C77.3623 43.0333 77.4557 42.59 77.6423 42.21C77.8357 41.8233 78.1057 41.5267 78.4523 41.32C78.8057 41.1133 79.2123 41.01 79.6723 41.01C80.1323 41.01 80.539 41.1133 80.8923 41.32C81.2457 41.5267 81.5157 41.8233 81.7023 42.21C81.8957 42.59 81.9923 43.0333 81.9923 43.54C81.9923 44.0467 81.8957 44.4933 81.7023 44.88C81.5157 45.26 81.2457 45.5533 80.8923 45.76C80.539 45.9667 80.1323 46.07 79.6723 46.07ZM79.6723 45.4C80.1523 45.4 80.519 45.2433 80.7723 44.93C81.0323 44.61 81.1623 44.1467 81.1623 43.54C81.1623 42.9467 81.0323 42.49 80.7723 42.17C80.5123 41.8433 80.1457 41.68 79.6723 41.68C79.199 41.68 78.8323 41.8433 78.5723 42.17C78.3123 42.49 78.1823 42.9467 78.1823 43.54C78.1823 44.14 78.309 44.6 78.5623 44.92C78.8223 45.24 79.1923 45.4 79.6723 45.4ZM85.6492 41.01C86.8159 41.01 87.3992 41.6533 87.3992 42.94V46H86.5892V42.99C86.5892 42.5367 86.4992 42.2067 86.3192 42C86.1459 41.7933 85.8659 41.69 85.4792 41.69C85.0326 41.69 84.6759 41.8267 84.4092 42.1C84.1426 42.3733 84.0092 42.7433 84.0092 43.21V46H83.1992V41.13H83.9992V41.93C84.1592 41.63 84.3826 41.4033 84.6692 41.25C84.9559 41.09 85.2826 41.01 85.6492 41.01ZM90.5328 46.07C89.7128 46.07 89.0628 45.86 88.5828 45.44L88.8528 44.84C89.1128 45.0467 89.3761 45.1967 89.6428 45.29C89.9161 45.3767 90.2228 45.42 90.5628 45.42C90.9228 45.42 91.1961 45.36 91.3828 45.24C91.5761 45.1133 91.6728 44.9333 91.6728 44.7C91.6728 44.5067 91.6095 44.3533 91.4828 44.24C91.3561 44.1267 91.1461 44.0367 90.8528 43.97L90.0328 43.78C89.6195 43.6867 89.3028 43.5267 89.0828 43.3C88.8628 43.0733 88.7528 42.7933 88.7528 42.46C88.7528 42.0267 88.9228 41.6767 89.2628 41.41C89.6028 41.1433 90.0561 41.01 90.6228 41.01C90.9628 41.01 91.2861 41.0667 91.5928 41.18C91.8995 41.2867 92.1561 41.4433 92.3628 41.65L92.0928 42.24C91.6461 41.86 91.1561 41.67 90.6228 41.67C90.2828 41.67 90.0161 41.7367 89.8228 41.87C89.6361 41.9967 89.5428 42.1767 89.5428 42.41C89.5428 42.6033 89.5995 42.76 89.7128 42.88C89.8328 42.9933 90.0228 43.08 90.2828 43.14L91.1128 43.34C91.5661 43.4467 91.9028 43.61 92.1228 43.83C92.3428 44.0433 92.4528 44.3233 92.4528 44.67C92.4528 45.0967 92.2795 45.4367 91.9328 45.69C91.5928 45.9433 91.1261 46.07 90.5328 46.07ZM93.5775 38.95H94.5875L94.3275 44.15H93.8275L93.5775 38.95ZM94.5875 44.98V46H93.5675V44.98H94.5875ZM101.771 42.38C102.184 42.5 102.501 42.7067 102.721 43C102.941 43.2867 103.051 43.65 103.051 44.09C103.051 44.7033 102.841 45.1867 102.421 45.54C102.007 45.8933 101.444 46.07 100.731 46.07C100.277 46.07 99.8408 45.9933 99.4208 45.84C99.0008 45.6867 98.6474 45.4733 98.3608 45.2L98.6708 44.57C99.3108 45.11 99.9908 45.38 100.711 45.38C101.211 45.38 101.591 45.27 101.851 45.05C102.111 44.8233 102.241 44.4933 102.241 44.06C102.241 43.2 101.701 42.77 100.621 42.77H99.8108V42.08H100.461C100.981 42.08 101.381 41.9667 101.661 41.74C101.941 41.5067 102.081 41.1733 102.081 40.74C102.081 40.36 101.967 40.07 101.741 39.87C101.514 39.6633 101.191 39.56 100.771 39.56C100.091 39.56 99.4241 39.83 98.7708 40.37L98.4608 39.74C98.7474 39.4667 99.0974 39.2533 99.5108 39.1C99.9241 38.9467 100.354 38.87 100.801 38.87C101.441 38.87 101.947 39.0333 102.321 39.36C102.701 39.68 102.891 40.1133 102.891 40.66C102.891 41.0667 102.791 41.4233 102.591 41.73C102.397 42.03 102.124 42.2467 101.771 42.38ZM109.187 45.31V46H104.647V45.38L107.117 42.66C107.45 42.2867 107.69 41.9533 107.837 41.66C107.99 41.36 108.067 41.06 108.067 40.76C108.067 40.3733 107.954 40.0767 107.727 39.87C107.5 39.6633 107.18 39.56 106.767 39.56C106.087 39.56 105.42 39.83 104.767 40.37L104.457 39.74C104.737 39.4733 105.087 39.2633 105.507 39.11C105.934 38.95 106.36 38.87 106.787 38.87C107.434 38.87 107.944 39.0367 108.317 39.37C108.697 39.7033 108.887 40.1533 108.887 40.72C108.887 41.1267 108.794 41.5167 108.607 41.89C108.427 42.2633 108.127 42.68 107.707 43.14L105.707 45.31H109.187ZM113.241 38.95H114.061V46H113.241V38.95ZM118.13 41.01C119.296 41.01 119.88 41.6533 119.88 42.94V46H119.07V42.99C119.07 42.5367 118.98 42.2067 118.8 42C118.626 41.7933 118.346 41.69 117.96 41.69C117.513 41.69 117.156 41.8267 116.89 42.1C116.623 42.3733 116.49 42.7433 116.49 43.21V46H115.68V41.13H116.48V41.93C116.64 41.63 116.863 41.4033 117.15 41.25C117.436 41.09 117.763 41.01 118.13 41.01ZM125.663 41.14L123.563 46H122.803L120.713 41.14H121.573L123.203 45.12L124.853 41.14H125.663ZM128.461 46.07C128.001 46.07 127.595 45.9667 127.241 45.76C126.895 45.5533 126.625 45.26 126.431 44.88C126.245 44.4933 126.151 44.0467 126.151 43.54C126.151 43.0333 126.245 42.59 126.431 42.21C126.625 41.8233 126.895 41.5267 127.241 41.32C127.595 41.1133 128.001 41.01 128.461 41.01C128.921 41.01 129.328 41.1133 129.681 41.32C130.035 41.5267 130.305 41.8233 130.491 42.21C130.685 42.59 130.781 43.0333 130.781 43.54C130.781 44.0467 130.685 44.4933 130.491 44.88C130.305 45.26 130.035 45.5533 129.681 45.76C129.328 45.9667 128.921 46.07 128.461 46.07ZM128.461 45.4C128.941 45.4 129.308 45.2433 129.561 44.93C129.821 44.61 129.951 44.1467 129.951 43.54C129.951 42.9467 129.821 42.49 129.561 42.17C129.301 41.8433 128.935 41.68 128.461 41.68C127.988 41.68 127.621 41.8433 127.361 42.17C127.101 42.49 126.971 42.9467 126.971 43.54C126.971 44.14 127.098 44.6 127.351 44.92C127.611 45.24 127.981 45.4 128.461 45.4ZM131.988 41.13H132.798V46H131.988V41.13ZM132.888 39.02V39.93H131.908V39.02H132.888ZM136.373 46.07C135.893 46.07 135.476 45.9667 135.123 45.76C134.769 45.5533 134.496 45.2633 134.303 44.89C134.116 44.51 134.023 44.0667 134.023 43.56C134.023 43.0533 134.119 42.61 134.313 42.23C134.513 41.8433 134.789 41.5433 135.143 41.33C135.503 41.1167 135.923 41.01 136.403 41.01C136.729 41.01 137.049 41.07 137.363 41.19C137.676 41.3033 137.929 41.4567 138.123 41.65L137.853 42.25C137.393 41.8767 136.926 41.69 136.453 41.69C135.953 41.69 135.563 41.8533 135.283 42.18C135.003 42.5067 134.863 42.9667 134.863 43.56C134.863 44.1467 135.003 44.6 135.283 44.92C135.563 45.24 135.953 45.4 136.453 45.4C136.926 45.4 137.393 45.2133 137.853 44.84L138.123 45.44C137.916 45.6333 137.656 45.7867 137.343 45.9C137.029 46.0133 136.706 46.07 136.373 46.07ZM143.178 43.69H139.618C139.644 44.2567 139.798 44.6867 140.078 44.98C140.358 45.2667 140.754 45.41 141.268 45.41C141.834 45.41 142.354 45.2167 142.828 44.83L143.098 45.42C142.884 45.62 142.611 45.78 142.278 45.9C141.944 46.0133 141.604 46.07 141.258 46.07C140.498 46.07 139.898 45.8467 139.458 45.4C139.024 44.9533 138.808 44.3367 138.808 43.55C138.808 43.05 138.904 42.61 139.098 42.23C139.291 41.8433 139.561 41.5433 139.908 41.33C140.261 41.1167 140.661 41.01 141.108 41.01C141.754 41.01 142.261 41.2233 142.628 41.65C142.994 42.07 143.178 42.65 143.178 43.39V43.69ZM141.118 41.64C140.691 41.64 140.348 41.7733 140.088 42.04C139.834 42.3067 139.684 42.6833 139.638 43.17H142.468C142.454 42.6767 142.331 42.3 142.098 42.04C141.864 41.7733 141.538 41.64 141.118 41.64ZM146.021 46.07C145.201 46.07 144.551 45.86 144.071 45.44L144.341 44.84C144.601 45.0467 144.864 45.1967 145.131 45.29C145.404 45.3767 145.711 45.42 146.051 45.42C146.411 45.42 146.684 45.36 146.871 45.24C147.064 45.1133 147.161 44.9333 147.161 44.7C147.161 44.5067 147.098 44.3533 146.971 44.24C146.844 44.1267 146.634 44.0367 146.341 43.97L145.521 43.78C145.108 43.6867 144.791 43.5267 144.571 43.3C144.351 43.0733 144.241 42.7933 144.241 42.46C144.241 42.0267 144.411 41.6767 144.751 41.41C145.091 41.1433 145.544 41.01 146.111 41.01C146.451 41.01 146.774 41.0667 147.081 41.18C147.388 41.2867 147.644 41.4433 147.851 41.65L147.581 42.24C147.134 41.86 146.644 41.67 146.111 41.67C145.771 41.67 145.504 41.7367 145.311 41.87C145.124 41.9967 145.031 42.1767 145.031 42.41C145.031 42.6033 145.088 42.76 145.201 42.88C145.321 42.9933 145.511 43.08 145.771 43.14L146.601 43.34C147.054 43.4467 147.391 43.61 147.611 43.83C147.831 44.0433 147.941 44.3233 147.941 44.67C147.941 45.0967 147.768 45.4367 147.421 45.69C147.081 45.9433 146.614 46.07 146.021 46.07ZM154.204 41.01C155.371 41.01 155.954 41.6533 155.954 42.94V46H155.144V42.99C155.144 42.5367 155.054 42.2067 154.874 42C154.701 41.7933 154.421 41.69 154.034 41.69C153.587 41.69 153.231 41.8267 152.964 42.1C152.697 42.3733 152.564 42.7433 152.564 43.21V46H151.754V38.95H152.564V41.91C152.724 41.6167 152.944 41.3933 153.224 41.24C153.511 41.0867 153.837 41.01 154.204 41.01ZM159.418 41.01C160.038 41.01 160.498 41.17 160.798 41.49C161.104 41.8033 161.258 42.2833 161.258 42.93V46H160.468V45.17C160.341 45.4567 160.148 45.68 159.888 45.84C159.628 45.9933 159.328 46.07 158.988 46.07C158.674 46.07 158.384 46.0067 158.118 45.88C157.858 45.7533 157.651 45.5767 157.498 45.35C157.344 45.1233 157.268 44.8733 157.268 44.6C157.268 44.2333 157.361 43.95 157.548 43.75C157.734 43.5433 158.041 43.3967 158.468 43.31C158.894 43.2167 159.488 43.17 160.248 43.17H160.468V42.84C160.468 42.4333 160.384 42.14 160.218 41.96C160.051 41.7733 159.781 41.68 159.408 41.68C158.848 41.68 158.291 41.8533 157.738 42.2L157.468 41.61C157.721 41.43 158.024 41.2867 158.378 41.18C158.738 41.0667 159.084 41.01 159.418 41.01ZM159.098 45.43C159.498 45.43 159.824 45.2967 160.078 45.03C160.338 44.7567 160.468 44.4067 160.468 43.98V43.69H160.288C159.701 43.69 159.254 43.7167 158.948 43.77C158.641 43.8167 158.421 43.9 158.288 44.02C158.161 44.1333 158.098 44.3033 158.098 44.53C158.098 44.79 158.191 45.0067 158.378 45.18C158.571 45.3467 158.811 45.43 159.098 45.43ZM167.04 41.14L164.94 46H164.18L162.09 41.14H162.95L164.58 45.12L166.23 41.14H167.04ZM171.898 43.69H168.338C168.365 44.2567 168.518 44.6867 168.798 44.98C169.078 45.2667 169.475 45.41 169.988 45.41C170.555 45.41 171.075 45.2167 171.548 44.83L171.818 45.42C171.605 45.62 171.332 45.78 170.998 45.9C170.665 46.0133 170.325 46.07 169.978 46.07C169.218 46.07 168.618 45.8467 168.178 45.4C167.745 44.9533 167.528 44.3367 167.528 43.55C167.528 43.05 167.625 42.61 167.818 42.23C168.012 41.8433 168.282 41.5433 168.628 41.33C168.982 41.1167 169.382 41.01 169.828 41.01C170.475 41.01 170.982 41.2233 171.348 41.65C171.715 42.07 171.898 42.65 171.898 43.39V43.69ZM169.838 41.64C169.412 41.64 169.068 41.7733 168.808 42.04C168.555 42.3067 168.405 42.6833 168.358 43.17H171.188C171.175 42.6767 171.052 42.3 170.818 42.04C170.585 41.7733 170.258 41.64 169.838 41.64ZM178.12 41.01C178.547 41.01 178.923 41.1133 179.25 41.32C179.577 41.5267 179.83 41.82 180.01 42.2C180.19 42.58 180.28 43.02 180.28 43.52C180.28 44.0267 180.19 44.4733 180.01 44.86C179.83 45.24 179.577 45.5367 179.25 45.75C178.923 45.9633 178.547 46.07 178.12 46.07C177.74 46.07 177.407 45.9867 177.12 45.82C176.84 45.6533 176.627 45.4167 176.48 45.11V46H175.67V38.95H176.48V41.97C176.627 41.6633 176.84 41.4267 177.12 41.26C177.407 41.0933 177.74 41.01 178.12 41.01ZM177.96 45.4C178.433 45.4 178.8 45.2367 179.06 44.91C179.32 44.5767 179.45 44.1133 179.45 43.52C179.45 42.94 179.32 42.49 179.06 42.17C178.8 41.85 178.433 41.69 177.96 41.69C177.487 41.69 177.12 41.85 176.86 42.17C176.607 42.49 176.48 42.9467 176.48 43.54C176.48 44.1333 176.607 44.5933 176.86 44.92C177.12 45.24 177.487 45.4 177.96 45.4ZM185.57 43.69H182.01C182.037 44.2567 182.19 44.6867 182.47 44.98C182.75 45.2667 183.147 45.41 183.66 45.41C184.227 45.41 184.747 45.2167 185.22 44.83L185.49 45.42C185.277 45.62 185.004 45.78 184.67 45.9C184.337 46.0133 183.997 46.07 183.65 46.07C182.89 46.07 182.29 45.8467 181.85 45.4C181.417 44.9533 181.2 44.3367 181.2 43.55C181.2 43.05 181.297 42.61 181.49 42.23C181.684 41.8433 181.954 41.5433 182.3 41.33C182.654 41.1167 183.054 41.01 183.5 41.01C184.147 41.01 184.654 41.2233 185.02 41.65C185.387 42.07 185.57 42.65 185.57 43.39V43.69ZM183.51 41.64C183.084 41.64 182.74 41.7733 182.48 42.04C182.227 42.3067 182.077 42.6833 182.03 43.17H184.86C184.847 42.6767 184.724 42.3 184.49 42.04C184.257 41.7733 183.93 41.64 183.51 41.64ZM190.844 43.69H187.284C187.31 44.2567 187.464 44.6867 187.744 44.98C188.024 45.2667 188.42 45.41 188.934 45.41C189.5 45.41 190.02 45.2167 190.494 44.83L190.764 45.42C190.55 45.62 190.277 45.78 189.944 45.9C189.61 46.0133 189.27 46.07 188.924 46.07C188.164 46.07 187.564 45.8467 187.124 45.4C186.69 44.9533 186.474 44.3367 186.474 43.55C186.474 43.05 186.57 42.61 186.764 42.23C186.957 41.8433 187.227 41.5433 187.574 41.33C187.927 41.1167 188.327 41.01 188.774 41.01C189.42 41.01 189.927 41.2233 190.294 41.65C190.66 42.07 190.844 42.65 190.844 43.39V43.69ZM188.784 41.64C188.357 41.64 188.014 41.7733 187.754 42.04C187.5 42.3067 187.35 42.6833 187.304 43.17H190.134C190.12 42.6767 189.997 42.3 189.764 42.04C189.53 41.7733 189.204 41.64 188.784 41.64ZM194.487 41.01C195.654 41.01 196.237 41.6533 196.237 42.94V46H195.427V42.99C195.427 42.5367 195.337 42.2067 195.157 42C194.984 41.7933 194.704 41.69 194.317 41.69C193.87 41.69 193.514 41.8267 193.247 42.1C192.98 42.3733 192.847 42.7433 192.847 43.21V46H192.037V41.13H192.837V41.93C192.997 41.63 193.22 41.4033 193.507 41.25C193.794 41.09 194.12 41.01 194.487 41.01ZM201.379 41.13H202.759V41.77H201.379V46H200.569V41.77H199.619V41.13H200.569V40.97C200.569 40.3233 200.729 39.8333 201.049 39.5C201.375 39.1667 201.875 38.98 202.549 38.94L202.949 38.92L203.009 39.55L202.549 39.58C202.142 39.6067 201.845 39.7233 201.659 39.93C201.472 40.13 201.379 40.44 201.379 40.86V41.13ZM207.68 41.13V46H206.89V45.17C206.737 45.4633 206.52 45.6867 206.24 45.84C205.967 45.9933 205.657 46.07 205.31 46.07C204.73 46.07 204.293 45.91 204 45.59C203.707 45.2633 203.56 44.7833 203.56 44.15V41.13H204.37V44.13C204.37 44.5633 204.457 44.8833 204.63 45.09C204.803 45.29 205.077 45.39 205.45 45.39C205.877 45.39 206.22 45.2533 206.48 44.98C206.74 44.7 206.87 44.3333 206.87 43.88V41.13H207.68ZM211.636 41.01C212.802 41.01 213.386 41.6533 213.386 42.94V46H212.576V42.99C212.576 42.5367 212.486 42.2067 212.306 42C212.132 41.7933 211.852 41.69 211.466 41.69C211.019 41.69 210.662 41.8267 210.396 42.1C210.129 42.3733 209.996 42.7433 209.996 43.21V46H209.186V41.13H209.986V41.93C210.146 41.63 210.369 41.4033 210.656 41.25C210.942 41.09 211.269 41.01 211.636 41.01ZM219.189 38.95V46H218.379V45.11C218.232 45.4167 218.016 45.6533 217.729 45.82C217.449 45.9867 217.119 46.07 216.739 46.07C216.312 46.07 215.936 45.9633 215.609 45.75C215.282 45.5367 215.029 45.24 214.849 44.86C214.669 44.4733 214.579 44.0267 214.579 43.52C214.579 43.02 214.669 42.58 214.849 42.2C215.029 41.82 215.282 41.5267 215.609 41.32C215.936 41.1133 216.312 41.01 216.739 41.01C217.119 41.01 217.449 41.0933 217.729 41.26C218.016 41.4267 218.232 41.6633 218.379 41.97V38.95H219.189ZM216.899 45.4C217.372 45.4 217.736 45.24 217.989 44.92C218.249 44.5933 218.379 44.1333 218.379 43.54C218.379 42.9467 218.249 42.49 217.989 42.17C217.736 41.85 217.372 41.69 216.899 41.69C216.426 41.69 216.056 41.85 215.789 42.17C215.529 42.49 215.399 42.94 215.399 43.52C215.399 44.1133 215.529 44.5767 215.789 44.91C216.056 45.2367 216.426 45.4 216.899 45.4ZM224.769 43.69H221.209C221.236 44.2567 221.389 44.6867 221.669 44.98C221.949 45.2667 222.346 45.41 222.859 45.41C223.426 45.41 223.946 45.2167 224.419 44.83L224.689 45.42C224.476 45.62 224.203 45.78 223.869 45.9C223.536 46.0133 223.196 46.07 222.849 46.07C222.089 46.07 221.489 45.8467 221.049 45.4C220.616 44.9533 220.399 44.3367 220.399 43.55C220.399 43.05 220.496 42.61 220.689 42.23C220.883 41.8433 221.153 41.5433 221.499 41.33C221.853 41.1167 222.253 41.01 222.699 41.01C223.346 41.01 223.853 41.2233 224.219 41.65C224.586 42.07 224.769 42.65 224.769 43.39V43.69ZM222.709 41.64C222.283 41.64 221.939 41.7733 221.679 42.04C221.426 42.3067 221.276 42.6833 221.229 43.17H224.059C224.046 42.6767 223.923 42.3 223.689 42.04C223.456 41.7733 223.129 41.64 222.709 41.64ZM230.283 38.95V46H229.473V45.11C229.326 45.4167 229.11 45.6533 228.823 45.82C228.543 45.9867 228.213 46.07 227.833 46.07C227.406 46.07 227.03 45.9633 226.703 45.75C226.376 45.5367 226.123 45.24 225.943 44.86C225.763 44.4733 225.673 44.0267 225.673 43.52C225.673 43.02 225.763 42.58 225.943 42.2C226.123 41.82 226.376 41.5267 226.703 41.32C227.03 41.1133 227.406 41.01 227.833 41.01C228.213 41.01 228.543 41.0933 228.823 41.26C229.11 41.4267 229.326 41.6633 229.473 41.97V38.95H230.283ZM227.993 45.4C228.466 45.4 228.83 45.24 229.083 44.92C229.343 44.5933 229.473 44.1333 229.473 43.54C229.473 42.9467 229.343 42.49 229.083 42.17C228.83 41.85 228.466 41.69 227.993 41.69C227.52 41.69 227.15 41.85 226.883 42.17C226.623 42.49 226.493 42.94 226.493 43.52C226.493 44.1133 226.623 44.5767 226.883 44.91C227.15 45.2367 227.52 45.4 227.993 45.4ZM235.441 41.13H236.821V41.77H235.441V46H234.631V41.77H233.681V41.13H234.631V40.97C234.631 40.3233 234.791 39.8333 235.111 39.5C235.438 39.1667 235.938 38.98 236.611 38.94L237.011 38.92L237.071 39.55L236.611 39.58C236.205 39.6067 235.908 39.7233 235.721 39.93C235.535 40.13 235.441 40.44 235.441 40.86V41.13ZM239.614 46.07C239.154 46.07 238.747 45.9667 238.394 45.76C238.047 45.5533 237.777 45.26 237.584 44.88C237.397 44.4933 237.304 44.0467 237.304 43.54C237.304 43.0333 237.397 42.59 237.584 42.21C237.777 41.8233 238.047 41.5267 238.394 41.32C238.747 41.1133 239.154 41.01 239.614 41.01C240.074 41.01 240.48 41.1133 240.834 41.32C241.187 41.5267 241.457 41.8233 241.644 42.21C241.837 42.59 241.934 43.0333 241.934 43.54C241.934 44.0467 241.837 44.4933 241.644 44.88C241.457 45.26 241.187 45.5533 240.834 45.76C240.48 45.9667 240.074 46.07 239.614 46.07ZM239.614 45.4C240.094 45.4 240.46 45.2433 240.714 44.93C240.974 44.61 241.104 44.1467 241.104 43.54C241.104 42.9467 240.974 42.49 240.714 42.17C240.454 41.8433 240.087 41.68 239.614 41.68C239.14 41.68 238.774 41.8433 238.514 42.17C238.254 42.49 238.124 42.9467 238.124 43.54C238.124 44.14 238.25 44.6 238.504 44.92C238.764 45.24 239.134 45.4 239.614 45.4ZM245.901 41.71L245.371 41.76C244.871 41.8067 244.507 41.9633 244.281 42.23C244.061 42.4967 243.951 42.8267 243.951 43.22V46H243.141V41.13H243.931V41.98C244.204 41.4133 244.741 41.0967 245.541 41.03L245.831 41.01L245.901 41.71ZM253.544 41.14L250.664 47.8H249.834L250.654 45.94L248.594 41.14H249.454L251.084 45.12L252.734 41.14H253.544ZM256.342 46.07C255.882 46.07 255.476 45.9667 255.122 45.76C254.776 45.5533 254.506 45.26 254.312 44.88C254.126 44.4933 254.032 44.0467 254.032 43.54C254.032 43.0333 254.126 42.59 254.312 42.21C254.506 41.8233 254.776 41.5267 255.122 41.32C255.476 41.1133 255.882 41.01 256.342 41.01C256.802 41.01 257.209 41.1133 257.562 41.32C257.916 41.5267 258.186 41.8233 258.372 42.21C258.566 42.59 258.662 43.0333 258.662 43.54C258.662 44.0467 258.566 44.4933 258.372 44.88C258.186 45.26 257.916 45.5533 257.562 45.76C257.209 45.9667 256.802 46.07 256.342 46.07ZM256.342 45.4C256.822 45.4 257.189 45.2433 257.442 44.93C257.702 44.61 257.832 44.1467 257.832 43.54C257.832 42.9467 257.702 42.49 257.442 42.17C257.182 41.8433 256.816 41.68 256.342 41.68C255.869 41.68 255.502 41.8433 255.242 42.17C254.982 42.49 254.852 42.9467 254.852 43.54C254.852 44.14 254.979 44.6 255.232 44.92C255.492 45.24 255.862 45.4 256.342 45.4ZM263.969 41.13V46H263.179V45.17C263.026 45.4633 262.809 45.6867 262.529 45.84C262.256 45.9933 261.946 46.07 261.599 46.07C261.019 46.07 260.582 45.91 260.289 45.59C259.996 45.2633 259.849 44.7833 259.849 44.15V41.13H260.659V44.13C260.659 44.5633 260.746 44.8833 260.919 45.09C261.092 45.29 261.366 45.39 261.739 45.39C262.166 45.39 262.509 45.2533 262.769 44.98C263.029 44.7 263.159 44.3333 263.159 43.88V41.13H263.969ZM266.375 44.98V46H265.355V44.98H266.375Z" fill="#0A2E57"/>
<rect x="22.25" y="58.25" width="82.5" height="18.5" rx="1.75" fill="white"/>
<rect x="22.25" y="58.25" width="82.5" height="18.5" rx="1.75" stroke="#26B67F" stroke-width="0.5"/>
<path d="M35.792 64.36L33.28 70H32.44L29.928 64.36H30.992L32.864 68.72L34.744 64.36H35.792ZM36.2309 66.088H37.2309V70H36.2309V66.088ZM37.2789 64.272V65.256H36.1749V64.272H37.2789ZM41.6942 68.224H39.0302C39.0622 68.5867 39.1715 68.856 39.3582 69.032C39.5449 69.208 39.8115 69.296 40.1582 69.296C40.5902 69.296 40.9849 69.1573 41.3422 68.88L41.6302 69.568C41.4489 69.7173 41.2195 69.8373 40.9422 69.928C40.6702 70.0187 40.3955 70.064 40.1182 70.064C39.4782 70.064 38.9715 69.8827 38.5982 69.52C38.2302 69.1573 38.0462 68.6613 38.0462 68.032C38.0462 67.632 38.1262 67.2773 38.2862 66.968C38.4462 66.6587 38.6702 66.4187 38.9582 66.248C39.2515 66.0773 39.5822 65.992 39.9502 65.992C40.4889 65.992 40.9129 66.1653 41.2222 66.512C41.5369 66.8587 41.6942 67.336 41.6942 67.944V68.224ZM39.9742 66.696C39.7075 66.696 39.4915 66.7813 39.3262 66.952C39.1662 67.1227 39.0675 67.368 39.0302 67.688H40.8382C40.8275 67.3627 40.7475 67.1173 40.5982 66.952C40.4489 66.7813 40.2409 66.696 39.9742 66.696ZM48.7057 66.088L47.1697 70H46.2977L45.3377 67.48L44.4017 70H43.5377L41.9937 66.088H43.0177L44.0177 68.808L45.0177 66.088H45.7377L46.7377 68.824L47.7297 66.088H48.7057ZM51.5611 64.36H52.5931V70H51.5611V64.36ZM55.9951 65.992C56.4645 65.992 56.8138 66.1253 57.0431 66.392C57.2725 66.6587 57.3871 67.0613 57.3871 67.6V70H56.3871V67.656C56.3871 67.352 56.3285 67.1307 56.2111 66.992C56.0991 66.8533 55.9205 66.784 55.6751 66.784C55.3871 66.784 55.1551 66.8747 54.9791 67.056C54.8085 67.2373 54.7231 67.48 54.7231 67.784V70H53.7231V66.088H54.6991V66.672C54.8325 66.4533 55.0111 66.2853 55.2351 66.168C55.4591 66.0507 55.7125 65.992 55.9951 65.992ZM62.1308 66.096L60.4188 70H59.5468L57.8508 66.096H58.9068L60.0108 68.856L61.1468 66.096H62.1308ZM64.3353 70.064C63.9353 70.064 63.5833 69.9813 63.2793 69.816C62.9806 69.6507 62.7486 69.4133 62.5833 69.104C62.4179 68.7947 62.3353 68.4347 62.3353 68.024C62.3353 67.6133 62.4179 67.256 62.5833 66.952C62.7486 66.6427 62.9806 66.4053 63.2793 66.24C63.5833 66.0747 63.9353 65.992 64.3353 65.992C64.7353 65.992 65.0846 66.0747 65.3833 66.24C65.6873 66.4053 65.9193 66.6427 66.0793 66.952C66.2446 67.256 66.3273 67.6133 66.3273 68.024C66.3273 68.4347 66.2446 68.7947 66.0793 69.104C65.9193 69.4133 65.6873 69.6507 65.3833 69.816C65.0846 69.9813 64.7353 70.064 64.3353 70.064ZM64.3273 69.288C64.6526 69.288 64.9006 69.1813 65.0713 68.968C65.2419 68.7547 65.3273 68.44 65.3273 68.024C65.3273 67.6133 65.2419 67.3013 65.0713 67.088C64.9006 66.8693 64.6553 66.76 64.3353 66.76C64.0153 66.76 63.7673 66.8693 63.5913 67.088C63.4206 67.3013 63.3353 67.6133 63.3353 68.024C63.3353 68.44 63.4206 68.7547 63.5913 68.968C63.7619 69.1813 64.0073 69.288 64.3273 69.288ZM67.1528 66.088H68.1528V70H67.1528V66.088ZM68.2008 64.272V65.256H67.0968V64.272H68.2008ZM70.9681 70.064C70.5574 70.064 70.2001 69.9813 69.8961 69.816C69.5974 69.6507 69.3681 69.416 69.2081 69.112C69.0481 68.808 68.9681 68.4533 68.9681 68.048C68.9681 67.6427 69.0507 67.2853 69.2161 66.976C69.3867 66.6613 69.6267 66.4187 69.9361 66.248C70.2454 66.0773 70.6027 65.992 71.0081 65.992C71.2854 65.992 71.5547 66.0373 71.8161 66.128C72.0827 66.2133 72.2961 66.3307 72.4561 66.48L72.1681 67.184C72.0027 67.0507 71.8267 66.9493 71.6401 66.88C71.4587 66.8107 71.2774 66.776 71.0961 66.776C70.7494 66.776 70.4801 66.8853 70.2881 67.104C70.0961 67.3173 70.0001 67.6267 70.0001 68.032C70.0001 68.432 70.0961 68.7413 70.2881 68.96C70.4801 69.1733 70.7494 69.28 71.0961 69.28C71.2774 69.28 71.4587 69.2453 71.6401 69.176C71.8267 69.1067 72.0027 69.0053 72.1681 68.872L72.4561 69.568C72.2854 69.7227 72.0667 69.8453 71.8001 69.936C71.5334 70.0213 71.2561 70.064 70.9681 70.064ZM76.5223 68.224H73.8583C73.8903 68.5867 73.9996 68.856 74.1863 69.032C74.373 69.208 74.6396 69.296 74.9863 69.296C75.4183 69.296 75.813 69.1573 76.1703 68.88L76.4583 69.568C76.277 69.7173 76.0476 69.8373 75.7703 69.928C75.4983 70.0187 75.2236 70.064 74.9463 70.064C74.3063 70.064 73.7996 69.8827 73.4263 69.52C73.0583 69.1573 72.8743 68.6613 72.8743 68.032C72.8743 67.632 72.9543 67.2773 73.1143 66.968C73.2743 66.6587 73.4983 66.4187 73.7863 66.248C74.0796 66.0773 74.4103 65.992 74.7783 65.992C75.317 65.992 75.741 66.1653 76.0503 66.512C76.365 66.8587 76.5223 67.336 76.5223 67.944V68.224ZM74.8023 66.696C74.5356 66.696 74.3196 66.7813 74.1543 66.952C73.9943 67.1227 73.8956 67.368 73.8583 67.688H75.6663C75.6556 67.3627 75.5756 67.1173 75.4263 66.952C75.277 66.7813 75.069 66.696 74.8023 66.696ZM78.7803 70.064C78.4336 70.064 78.1136 70.0213 77.8203 69.936C77.5323 69.8507 77.287 69.728 77.0843 69.568L77.3643 68.872C77.7803 69.176 78.2576 69.328 78.7963 69.328C79.0256 69.328 79.199 69.2907 79.3163 69.216C79.439 69.1413 79.5003 69.0347 79.5003 68.896C79.5003 68.7787 79.4576 68.688 79.3723 68.624C79.2923 68.56 79.1456 68.5013 78.9323 68.448L78.2923 68.304C77.9296 68.224 77.6603 68.0933 77.4843 67.912C77.3083 67.7307 77.2203 67.496 77.2203 67.208C77.2203 66.968 77.287 66.7573 77.4203 66.576C77.559 66.3893 77.7483 66.2453 77.9883 66.144C78.2336 66.0427 78.5163 65.992 78.8363 65.992C79.1136 65.992 79.3803 66.0347 79.6363 66.12C79.8976 66.2053 80.127 66.3253 80.3243 66.48L80.0443 67.16C79.639 66.8667 79.2336 66.72 78.8283 66.72C78.6096 66.72 78.439 66.76 78.3163 66.84C78.1936 66.92 78.1323 67.032 78.1323 67.176C78.1323 67.2827 78.1696 67.3707 78.2443 67.44C78.3243 67.5093 78.4496 67.5627 78.6203 67.6L79.2843 67.752C79.6736 67.8373 79.959 67.9733 80.1403 68.16C80.3216 68.3413 80.4123 68.5813 80.4123 68.88C80.4123 69.2427 80.2656 69.5307 79.9723 69.744C79.679 69.9573 79.2816 70.064 78.7803 70.064Z" fill="#26B67F"/>
<g clip-path="url(#clip1_30_177)">
<path d="M92.3333 65.5L91.8633 65.97L93.39 67.5L91.8633 69.03L92.3333 69.5L94.3333 67.5L92.3333 65.5Z" fill="#26B67F"/>
</g>
<defs>
<filter id="filter0_d_30_177" x="0" y="0" width="311" height="106" filterUnits="userSpaceOnUse" color-interpolation-filters="sRGB">
<feFlood flood-opacity="0" result="BackgroundImageFix"/>
<feColorMatrix in="SourceAlpha" type="matrix" values="0 0 0 0 0 0 0 0 0 0 0 0 0 0 0 0 0 0 127 0" result="hardAlpha"/>
<feOffset dy="6"/>
<feGaussianBlur stdDeviation="6"/>
<feComposite in2="hardAlpha" operator="out"/>
<feColorMatrix type="matrix" values="0 0 0 0 0.0392157 0 0 0 0 0.180392 0 0 0 0 0.341176 0 0 0 0.1 0"/>
<feBlend mode="normal" in2="BackgroundImageFix" result="effect1_dropShadow_30_177"/>
<feBlend mode="normal" in="SourceGraphic" in2="effect1_dropShadow_30_177" result="shape"/>
</filter>
<clipPath id="clip0_30_177">
<rect width="7.99999" height="7.99999" fill="white" transform="translate(26 20)"/>
</clipPath>
<clipPath id="clip1_30_177">
<rect width="8" height="8" fill="white" transform="translate(89 63.5)"/>
</clipPath>
</defs>
</svg>
