<svg width="48" height="49" viewBox="0 0 48 49" fill="none" xmlns="http://www.w3.org/2000/svg">
<rect y="0.5" width="48" height="48" rx="4" fill="url(#paint0_linear_550_1007)"/>
<rect x="17.6226" y="15.4608" width="13.075" height="16.9975" rx="1" fill="#26B67F"/>
<rect x="19.2527" y="19.535" width="9.98684" height="0.739766" rx="0.369883" fill="#0A2E57"/>
<rect x="19.2527" y="22.4939" width="9.98684" height="0.739766" rx="0.369883" fill="#0A2E57"/>
<rect x="19.2527" y="25.4531" width="9.98684" height="0.739766" rx="0.369883" fill="#0A2E57"/>
<rect x="19.2527" y="28.4125" width="9.98684" height="0.739766" rx="0.369883" fill="#0A2E57"/>
<path d="M9.38549 30.5065C12.9771 38.5737 22.4392 42.2061 30.5065 38.6145C38.5737 35.0229 42.2061 25.5608 38.6145 17.4935C35.0229 9.42633 25.5608 5.79392 17.4935 9.38549C9.42633 12.9771 5.79392 22.4392 9.38549 30.5065ZM35.6916 18.7948C38.5675 25.2544 35.6648 32.8158 29.2052 35.6916C26.5015 36.8953 22.8457 36.9597 20.183 36.2889L29.3868 12.3137C31.8143 13.597 34.4879 16.0911 35.6916 18.7948ZM27.0555 11.5901L17.9664 35.2667C15.5389 33.9834 13.5121 31.9089 12.3084 29.2052C9.43253 22.7456 12.3352 15.1842 18.7948 12.3084C21.4985 11.1047 24.3929 10.9193 27.0555 11.5901Z" fill="#26B67F"/>
<defs>
<linearGradient id="paint0_linear_550_1007" x1="45.3" y1="46.4" x2="-13.2" y2="-10.6" gradientUnits="userSpaceOnUse">
<stop stop-color="#0A2E57"/>
<stop offset="1" stop-color="#1355A1"/>
</linearGradient>
</defs>
</svg>
