<svg width="707" height="480" viewBox="0 0 707 480" fill="none" xmlns="http://www.w3.org/2000/svg">
<path d="M131.5 0L0 480H712V0H131.5Z" fill="#0A2E57"/>
<path fill-rule="evenodd" clip-rule="evenodd" d="M286.496 32.7207C284.641 32.1938 282.711 33.27 282.184 35.1245L245.18 165.361C244.653 167.215 245.729 169.146 247.584 169.673C249.438 170.199 251.369 169.123 251.896 167.269L288.899 37.0327C289.426 35.1782 288.35 33.2476 286.496 32.7207Z" fill="#0A2E57"/>
<path fill-rule="evenodd" clip-rule="evenodd" d="M550.359 32.7207C548.505 32.1938 546.574 33.27 546.047 35.1246L509.044 165.361C508.517 167.215 509.593 169.146 511.448 169.673C513.302 170.199 515.233 169.123 515.759 167.269L552.763 37.0327C553.29 35.1782 552.214 33.2476 550.359 32.7207Z" fill="#0A2E57"/>
<path fill-rule="evenodd" clip-rule="evenodd" d="M167.522 329.908C165.667 329.381 163.737 330.458 163.21 332.312L126.206 462.548C125.679 464.403 126.756 466.333 128.61 466.86C130.465 467.387 132.395 466.311 132.922 464.456L169.926 334.22C170.453 332.366 169.376 330.435 167.522 329.908Z" fill="#0A2E57"/>
<path fill-rule="evenodd" clip-rule="evenodd" d="M431.386 329.908C429.531 329.381 427.601 330.458 427.074 332.312L390.07 462.548C389.543 464.403 390.619 466.333 392.474 466.86C394.329 467.387 396.259 466.311 396.786 464.456L433.79 334.22C434.317 332.366 433.24 330.435 431.386 329.908Z" fill="#0A2E57"/>
<path fill-rule="evenodd" clip-rule="evenodd" d="M443.263 69.9457C445.953 70.71 447.514 73.5102 446.75 76.2001L424.034 156.151C423.27 158.841 420.469 160.402 417.779 159.637C415.09 158.873 413.528 156.073 414.293 153.383L437.009 73.4324C437.773 70.7424 440.573 69.1814 443.263 69.9457Z" fill="#1355A1"/>
<path fill-rule="evenodd" clip-rule="evenodd" d="M707.127 69.9457C709.817 70.71 711.378 73.5102 710.614 76.2001L687.897 156.151C687.133 158.841 684.333 160.402 681.643 159.637C678.953 158.873 677.392 156.073 678.156 153.383L700.873 73.4324C701.637 70.7424 704.437 69.1814 707.127 69.9457Z" fill="#1355A1"/>
<path fill-rule="evenodd" clip-rule="evenodd" d="M357.578 49.5456C359.046 49.9625 359.897 51.4898 359.48 52.9571L321.329 187.233C320.912 188.701 319.384 189.552 317.917 189.135C316.45 188.718 315.598 187.191 316.015 185.724L354.167 51.4474C354.584 49.9802 356.111 49.1287 357.578 49.5456Z" fill="#1355A1"/>
<path fill-rule="evenodd" clip-rule="evenodd" d="M621.442 49.5456C622.909 49.9625 623.761 51.4899 623.344 52.9571L585.192 187.233C584.775 188.701 583.248 189.552 581.781 189.135C580.314 188.718 579.462 187.191 579.879 185.724L618.031 51.4474C618.448 49.9802 619.975 49.1287 621.442 49.5456Z" fill="#1355A1"/>
<path fill-rule="evenodd" clip-rule="evenodd" d="M315.71 241.848C318.889 242.751 320.734 246.06 319.831 249.239L303.472 306.815C302.569 309.994 299.259 311.839 296.08 310.935C292.901 310.032 291.056 306.723 291.96 303.544L308.318 245.968C309.222 242.789 312.531 240.944 315.71 241.848Z" fill="#1355A1"/>
<path fill-rule="evenodd" clip-rule="evenodd" d="M579.574 241.848C582.753 242.751 584.598 246.06 583.694 249.239L567.336 306.815C566.432 309.994 563.123 311.839 559.944 310.935C556.765 310.032 554.92 306.723 555.823 303.544L572.182 245.968C573.085 242.789 576.395 240.944 579.574 241.848Z" fill="#1355A1"/>
<path fill-rule="evenodd" clip-rule="evenodd" d="M115.386 230.174C118.565 231.077 120.41 234.387 119.507 237.566L103.148 295.141C102.245 298.32 98.9352 300.165 95.7562 299.262C92.5772 298.359 90.7323 295.049 91.6355 291.87L107.994 234.295C108.898 231.116 112.207 229.271 115.386 230.174Z" fill="#1355A1"/>
<path fill-rule="evenodd" clip-rule="evenodd" d="M163.029 245.261C163.64 245.435 163.995 246.071 163.821 246.683L123.582 388.307C123.408 388.918 122.772 389.273 122.161 389.099C121.549 388.926 121.194 388.289 121.368 387.678L161.608 246.054C161.781 245.442 162.418 245.088 163.029 245.261Z" fill="#0A2E57"/>
<path fill-rule="evenodd" clip-rule="evenodd" d="M506.068 348.048C512.304 349.819 515.923 356.311 514.151 362.547L500.384 411.001C498.612 417.236 492.121 420.855 485.885 419.083C479.65 417.312 476.031 410.82 477.802 404.584L491.57 356.13C493.341 349.895 499.833 346.276 506.068 348.048Z" fill="#0A2E57"/>
<path fill-rule="evenodd" clip-rule="evenodd" d="M328.656 18.2558C332.069 19.2255 334.049 22.7785 333.08 26.1915L323.726 59.1132C322.756 62.5262 319.203 64.5069 315.79 63.5372C312.377 62.5674 310.396 59.0145 311.366 55.6014L320.72 22.6798C321.69 19.2667 325.243 17.286 328.656 18.2558Z" fill="#1355A1"/>
<path fill-rule="evenodd" clip-rule="evenodd" d="M494.221 22.0309C497.634 23.0007 499.615 26.5536 498.645 29.9666L489.291 62.8883C488.321 66.3013 484.768 68.282 481.355 67.3123C477.942 66.3425 475.961 62.7896 476.931 59.3766L486.285 26.4549C487.255 23.0419 490.808 21.0612 494.221 22.0309Z" fill="#6BA8EE"/>
<path fill-rule="evenodd" clip-rule="evenodd" d="M389.687 351.65C393.1 352.619 395.081 356.172 394.111 359.585L384.757 392.507C383.787 395.92 380.234 397.901 376.821 396.931C373.408 395.961 371.428 392.408 372.397 388.995L381.751 356.074C382.721 352.661 386.274 350.68 389.687 351.65Z" fill="#1355A1"/>
<path fill-rule="evenodd" clip-rule="evenodd" d="M217.785 270.236C218.519 270.445 218.945 271.208 218.736 271.942L181.007 404.732C180.798 405.465 180.035 405.891 179.301 405.683C178.567 405.474 178.142 404.711 178.35 403.977L216.08 271.187C216.288 270.454 217.052 270.028 217.785 270.236Z" fill="#0A2E57"/>
<path fill-rule="evenodd" clip-rule="evenodd" d="M481.649 270.236C482.382 270.445 482.808 271.208 482.6 271.942L444.87 404.732C444.662 405.465 443.898 405.891 443.165 405.683C442.431 405.474 442.005 404.711 442.214 403.977L479.943 271.187C480.151 270.454 480.915 270.028 481.649 270.236Z" fill="#0A2E57"/>
<path fill-rule="evenodd" clip-rule="evenodd" d="M395.794 26.934C396.038 27.0035 396.18 27.2581 396.111 27.5026L337.146 235.031C337.077 235.276 336.822 235.417 336.578 235.348C336.333 235.278 336.191 235.024 336.261 234.779L395.225 27.251C395.295 27.0064 395.549 26.8645 395.794 26.934Z" fill="#1355A1"/>
<path fill-rule="evenodd" clip-rule="evenodd" d="M659.658 26.934C659.902 27.0035 660.044 27.2581 659.975 27.5026L601.01 235.031C600.941 235.276 600.686 235.417 600.442 235.348C600.197 235.278 600.055 235.024 600.125 234.779L659.089 27.251C659.159 27.0064 659.413 26.8645 659.658 26.934Z" fill="#6BA8EE"/>
<path fill-rule="evenodd" clip-rule="evenodd" d="M229.448 119.334C229.693 119.404 229.835 119.658 229.765 119.903L170.801 327.431C170.731 327.676 170.477 327.817 170.232 327.748C169.987 327.678 169.846 327.424 169.915 327.179L228.88 119.651C228.949 119.406 229.204 119.265 229.448 119.334Z" fill="#1355A1"/>
<path fill-rule="evenodd" clip-rule="evenodd" d="M493.312 119.334C493.557 119.404 493.699 119.658 493.629 119.903L434.664 327.431C434.595 327.676 434.34 327.817 434.096 327.748C433.851 327.678 433.709 327.424 433.779 327.179L492.744 119.651C492.813 119.406 493.068 119.265 493.312 119.334Z" fill="#1355A1"/>
<path fill-rule="evenodd" clip-rule="evenodd" d="M344.941 260.96C345.186 261.03 345.328 261.285 345.258 261.529L286.294 469.057C286.224 469.302 285.97 469.444 285.725 469.374C285.481 469.305 285.339 469.05 285.408 468.806L344.373 261.277C344.442 261.033 344.697 260.891 344.941 260.96Z" fill="#1355A1"/>
<path fill-rule="evenodd" clip-rule="evenodd" d="M608.805 260.96C609.05 261.03 609.191 261.285 609.122 261.529L550.157 469.057C550.088 469.302 549.833 469.444 549.589 469.374C549.344 469.305 549.202 469.05 549.272 468.806L608.236 261.277C608.306 261.033 608.56 260.891 608.805 260.96Z" fill="#1355A1"/>
<path fill-rule="evenodd" clip-rule="evenodd" d="M392.454 187.59C394.043 188.041 394.966 189.696 394.514 191.285L349.554 349.525C349.102 351.114 347.448 352.037 345.858 351.585C344.269 351.133 343.346 349.479 343.798 347.889L388.758 189.65C389.21 188.06 390.864 187.138 392.454 187.59Z" fill="#0A2E57"/>
<path fill-rule="evenodd" clip-rule="evenodd" d="M656.318 187.59C657.907 188.041 658.83 189.696 658.378 191.285L613.418 349.525C612.966 351.114 611.311 352.037 609.722 351.585C608.132 351.133 607.21 349.479 607.662 347.889L652.622 189.65C653.073 188.06 654.728 187.138 656.318 187.59Z" fill="#0A2E57"/>
<path fill-rule="evenodd" clip-rule="evenodd" d="M283.778 152.291C285.368 152.743 286.29 154.398 285.839 155.987L240.878 314.226C240.427 315.816 238.772 316.738 237.183 316.287C235.593 315.835 234.671 314.181 235.122 312.591L280.083 154.352C280.534 152.762 282.189 151.84 283.778 152.291Z" fill="#0A2E57"/>
<path fill-rule="evenodd" clip-rule="evenodd" d="M547.642 152.292C549.232 152.743 550.154 154.398 549.703 155.987L504.742 314.227C504.291 315.816 502.636 316.738 501.047 316.287C499.457 315.835 498.535 314.181 498.986 312.591L543.946 154.352C544.398 152.762 546.053 151.84 547.642 152.292Z" fill="#0A2E57"/>
<path fill-rule="evenodd" clip-rule="evenodd" d="M210.996 78.7592C212.585 79.2108 213.508 80.8654 213.056 82.4549L168.096 240.694C167.644 242.284 165.99 243.206 164.4 242.754C162.811 242.303 161.888 240.648 162.34 239.059L207.3 80.8195C207.752 79.23 209.406 78.3075 210.996 78.7592Z" fill="#6BA8EE"/>
<path fill-rule="evenodd" clip-rule="evenodd" d="M459.587 136.084C461.177 136.536 462.099 138.19 461.647 139.78L416.687 298.019C416.236 299.609 414.581 300.531 412.991 300.08C411.402 299.628 410.479 297.973 410.931 296.384L455.891 138.145C456.343 136.555 457.998 135.633 459.587 136.084Z" fill="#0A2E57"/>
<path fill-rule="evenodd" clip-rule="evenodd" d="M164.894 38.8579C165.872 39.1358 166.44 40.1541 166.162 41.1322L124.506 187.741C124.228 188.719 123.21 189.287 122.232 189.009C121.254 188.731 120.686 187.713 120.964 186.735L162.62 40.1258C162.898 39.1476 163.916 38.58 164.894 38.8579Z" fill="#1355A1"/>
<path fill-rule="evenodd" clip-rule="evenodd" d="M133.638 48.9843C134.617 49.2622 135.184 50.2805 134.906 51.2586L100.903 170.935C100.625 171.913 99.6067 172.481 98.6286 172.203C97.6504 171.925 97.0828 170.907 97.3607 169.929L131.364 50.2522C131.642 49.274 132.66 48.7064 133.638 48.9843Z" fill="#0A2E57"/>
<mask id="mask0_50_1172" style="mask-type:alpha" maskUnits="userSpaceOnUse" x="43" y="160" width="536" height="320">
<path d="M43 184C43 170.745 53.7452 160 67 160H555C568.255 160 579 170.745 579 184V480H43V184Z" fill="white"/>
</mask>
<g mask="url(#mask0_50_1172)">
<g filter="url(#filter0_ddii_50_1172)">
<g clip-path="url(#clip0_50_1172)">
<rect x="43" y="535" width="375" height="536" rx="24" transform="rotate(-90 43 535)" fill="white"/>
<path d="M43 482H579V182C579 169.85 569.15 160 557 160H65C52.8497 160 43 169.85 43 182V482Z" fill="url(#paint0_linear_50_1172)"/>
<path d="M43 184C43 170.745 53.7452 160 67 160H555C568.255 160 579 170.745 579 184V196H43V184Z" fill="white"/>
<path d="M66.7949 179.77H68.3549C69.0469 179.77 69.5829 179.956 69.9629 180.328C70.3469 180.696 70.5389 181.214 70.5389 181.882C70.5389 182.55 70.3469 183.07 69.9629 183.442C69.5829 183.814 69.0469 184 68.3549 184H66.7949V179.77ZM68.3069 183.37C69.2789 183.37 69.7649 182.874 69.7649 181.882C69.7649 180.894 69.2789 180.4 68.3069 180.4H67.5689V183.37H68.3069ZM72.5123 180.994C72.9243 180.994 73.2303 181.094 73.4303 181.294C73.6303 181.494 73.7303 181.802 73.7303 182.218V184H73.0163V183.55C72.9483 183.706 72.8403 183.828 72.6923 183.916C72.5483 184.004 72.3803 184.048 72.1883 184.048C71.9923 184.048 71.8143 184.008 71.6543 183.928C71.4943 183.848 71.3683 183.738 71.2763 183.598C71.1843 183.458 71.1383 183.302 71.1383 183.13C71.1383 182.914 71.1923 182.744 71.3003 182.62C71.4123 182.496 71.5923 182.406 71.8403 182.35C72.0883 182.294 72.4303 182.266 72.8663 182.266H73.0163V182.128C73.0163 181.928 72.9723 181.784 72.8843 181.696C72.8003 181.608 72.6583 181.564 72.4583 181.564C72.3023 181.564 72.1383 181.592 71.9663 181.648C71.7983 181.7 71.6323 181.774 71.4683 181.87L71.2583 181.354C71.4223 181.25 71.6203 181.164 71.8523 181.096C72.0843 181.028 72.3043 180.994 72.5123 180.994ZM72.3383 183.508C72.5383 183.508 72.7003 183.442 72.8243 183.31C72.9523 183.174 73.0163 183 73.0163 182.788V182.662H72.9083C72.6403 182.662 72.4323 182.674 72.2843 182.698C72.1363 182.722 72.0303 182.764 71.9663 182.824C71.9023 182.884 71.8703 182.966 71.8703 183.07C71.8703 183.198 71.9143 183.304 72.0023 183.388C72.0903 183.468 72.2023 183.508 72.3383 183.508ZM75.5725 184.048C75.3125 184.048 75.0725 184.016 74.8525 183.952C74.6365 183.888 74.4525 183.796 74.3005 183.676L74.5105 183.154C74.8225 183.382 75.1805 183.496 75.5845 183.496C75.7565 183.496 75.8865 183.468 75.9745 183.412C76.0665 183.356 76.1125 183.276 76.1125 183.172C76.1125 183.084 76.0805 183.016 76.0165 182.968C75.9565 182.92 75.8465 182.876 75.6865 182.836L75.2065 182.728C74.9345 182.668 74.7325 182.57 74.6005 182.434C74.4685 182.298 74.4025 182.122 74.4025 181.906C74.4025 181.726 74.4525 181.568 74.5525 181.432C74.6565 181.292 74.7985 181.184 74.9785 181.108C75.1625 181.032 75.3745 180.994 75.6145 180.994C75.8225 180.994 76.0225 181.026 76.2145 181.09C76.4105 181.154 76.5825 181.244 76.7305 181.36L76.5205 181.87C76.2165 181.65 75.9125 181.54 75.6085 181.54C75.4445 181.54 75.3165 181.57 75.2245 181.63C75.1325 181.69 75.0865 181.774 75.0865 181.882C75.0865 181.962 75.1145 182.028 75.1705 182.08C75.2305 182.132 75.3245 182.172 75.4525 182.2L75.9505 182.314C76.2425 182.378 76.4565 182.48 76.5925 182.62C76.7285 182.756 76.7965 182.936 76.7965 183.16C76.7965 183.432 76.6865 183.648 76.4665 183.808C76.2465 183.968 75.9485 184.048 75.5725 184.048ZM79.1086 180.994C79.4606 180.994 79.7226 181.094 79.8946 181.294C80.0666 181.494 80.1526 181.796 80.1526 182.2V184H79.4026V182.242C79.4026 182.014 79.3586 181.848 79.2706 181.744C79.1866 181.64 79.0526 181.588 78.8686 181.588C78.6526 181.588 78.4786 181.656 78.3466 181.792C78.2186 181.928 78.1546 182.11 78.1546 182.338V184H77.4046V179.77H78.1546V181.474C78.2546 181.318 78.3866 181.2 78.5506 181.12C78.7186 181.036 78.9046 180.994 79.1086 180.994ZM82.6004 180.994C82.8564 180.994 83.0824 181.056 83.2784 181.18C83.4744 181.304 83.6264 181.48 83.7344 181.708C83.8464 181.936 83.9024 182.202 83.9024 182.506C83.9024 182.81 83.8464 183.08 83.7344 183.316C83.6264 183.548 83.4724 183.728 83.2724 183.856C83.0764 183.984 82.8524 184.048 82.6004 184.048C82.3884 184.048 82.1984 184.002 82.0304 183.91C81.8664 183.818 81.7404 183.69 81.6524 183.526V184H80.9144V179.77H81.6644V181.492C81.7524 181.332 81.8784 181.21 82.0424 181.126C82.2064 181.038 82.3924 180.994 82.6004 180.994ZM82.4024 183.466C82.6384 183.466 82.8224 183.382 82.9544 183.214C83.0864 183.046 83.1524 182.81 83.1524 182.506C83.1524 182.206 83.0864 181.976 82.9544 181.816C82.8264 181.656 82.6424 181.576 82.4024 181.576C82.1624 181.576 81.9764 181.658 81.8444 181.822C81.7164 181.982 81.6524 182.214 81.6524 182.518C81.6524 182.822 81.7164 183.056 81.8444 183.22C81.9764 183.384 82.1624 183.466 82.4024 183.466ZM85.8559 184.048C85.5559 184.048 85.2919 183.986 85.0639 183.862C84.8399 183.738 84.6659 183.56 84.5419 183.328C84.4179 183.096 84.3559 182.826 84.3559 182.518C84.3559 182.21 84.4179 181.942 84.5419 181.714C84.6659 181.482 84.8399 181.304 85.0639 181.18C85.2919 181.056 85.5559 180.994 85.8559 180.994C86.1559 180.994 86.4179 181.056 86.6419 181.18C86.8699 181.304 87.0439 181.482 87.1639 181.714C87.2879 181.942 87.3499 182.21 87.3499 182.518C87.3499 182.826 87.2879 183.096 87.1639 183.328C87.0439 183.56 86.8699 183.738 86.6419 183.862C86.4179 183.986 86.1559 184.048 85.8559 184.048ZM85.8499 183.466C86.0939 183.466 86.2799 183.386 86.4079 183.226C86.5359 183.066 86.5999 182.83 86.5999 182.518C86.5999 182.21 86.5359 181.976 86.4079 181.816C86.2799 181.652 86.0959 181.57 85.8559 181.57C85.6159 181.57 85.4299 181.652 85.2979 181.816C85.1699 181.976 85.1059 182.21 85.1059 182.518C85.1059 182.83 85.1699 183.066 85.2979 183.226C85.4259 183.386 85.6099 183.466 85.8499 183.466ZM89.2291 180.994C89.6411 180.994 89.9471 181.094 90.1471 181.294C90.3471 181.494 90.4471 181.802 90.4471 182.218V184H89.7331V183.55C89.6651 183.706 89.5571 183.828 89.4091 183.916C89.2651 184.004 89.0971 184.048 88.9051 184.048C88.7091 184.048 88.5311 184.008 88.3711 183.928C88.2111 183.848 88.0851 183.738 87.9931 183.598C87.9011 183.458 87.8551 183.302 87.8551 183.13C87.8551 182.914 87.9091 182.744 88.0171 182.62C88.1291 182.496 88.3091 182.406 88.5571 182.35C88.8051 182.294 89.1471 182.266 89.5831 182.266H89.7331V182.128C89.7331 181.928 89.6891 181.784 89.6011 181.696C89.5171 181.608 89.3751 181.564 89.1751 181.564C89.0191 181.564 88.8551 181.592 88.6831 181.648C88.5151 181.7 88.3491 181.774 88.1851 181.87L87.9751 181.354C88.1391 181.25 88.3371 181.164 88.5691 181.096C88.8011 181.028 89.0211 180.994 89.2291 180.994ZM89.0551 183.508C89.2551 183.508 89.4171 183.442 89.5411 183.31C89.6691 183.174 89.7331 183 89.7331 182.788V182.662H89.6251C89.3571 182.662 89.1491 182.674 89.0011 182.698C88.8531 182.722 88.7471 182.764 88.6831 182.824C88.6191 182.884 88.5871 182.966 88.5871 183.07C88.5871 183.198 88.6311 183.304 88.7191 183.388C88.8071 183.468 88.9191 183.508 89.0551 183.508ZM93.1413 181.618L92.7033 181.66C92.2073 181.712 91.9593 181.964 91.9593 182.416V184H91.2093V181.066H91.9233V181.582C92.0753 181.23 92.3893 181.038 92.8653 181.006L93.0933 180.988L93.1413 181.618ZM96.2796 179.77V184H95.5356V183.526C95.4476 183.69 95.3196 183.818 95.1516 183.91C94.9876 184.002 94.7996 184.048 94.5876 184.048C94.3356 184.048 94.1096 183.984 93.9096 183.856C93.7136 183.728 93.5596 183.548 93.4476 183.316C93.3396 183.08 93.2856 182.81 93.2856 182.506C93.2856 182.202 93.3396 181.936 93.4476 181.708C93.5596 181.48 93.7136 181.304 93.9096 181.18C94.1056 181.056 94.3316 180.994 94.5876 180.994C94.7996 180.994 94.9876 181.038 95.1516 181.126C95.3156 181.214 95.4416 181.338 95.5296 181.498V179.77H96.2796ZM94.7856 183.466C95.0256 183.466 95.2096 183.384 95.3376 183.22C95.4696 183.056 95.5356 182.822 95.5356 182.518C95.5356 182.214 95.4696 181.982 95.3376 181.822C95.2096 181.658 95.0276 181.576 94.7916 181.576C94.5516 181.576 94.3656 181.656 94.2336 181.816C94.1016 181.976 94.0356 182.206 94.0356 182.506C94.0356 182.81 94.1016 183.046 94.2336 183.214C94.3656 183.382 94.5496 183.466 94.7856 183.466Z" fill="#26B67F"/>
<path d="M62 196C62 194.895 62.8954 194 64 194H99C100.105 194 101 194.895 101 196H62Z" fill="#26B67F"/>
<path d="M107.8 180.77H108.574V185H107.8V180.77ZM111.125 181.994C111.477 181.994 111.739 182.094 111.911 182.294C112.083 182.494 112.169 182.796 112.169 183.2V185H111.419V183.242C111.419 183.014 111.375 182.848 111.287 182.744C111.203 182.64 111.069 182.588 110.885 182.588C110.669 182.588 110.495 182.656 110.363 182.792C110.235 182.928 110.171 183.11 110.171 183.338V185H109.421V182.066H110.153V182.504C110.253 182.34 110.387 182.214 110.555 182.126C110.723 182.038 110.913 181.994 111.125 181.994ZM115.727 182.072L114.443 185H113.789L112.517 182.072H113.309L114.137 184.142L114.989 182.072H115.727ZM117.38 185.048C117.08 185.048 116.816 184.986 116.588 184.862C116.364 184.738 116.19 184.56 116.066 184.328C115.942 184.096 115.88 183.826 115.88 183.518C115.88 183.21 115.942 182.942 116.066 182.714C116.19 182.482 116.364 182.304 116.588 182.18C116.816 182.056 117.08 181.994 117.38 181.994C117.68 181.994 117.942 182.056 118.166 182.18C118.394 182.304 118.568 182.482 118.688 182.714C118.812 182.942 118.874 183.21 118.874 183.518C118.874 183.826 118.812 184.096 118.688 184.328C118.568 184.56 118.394 184.738 118.166 184.862C117.942 184.986 117.68 185.048 117.38 185.048ZM117.374 184.466C117.618 184.466 117.804 184.386 117.932 184.226C118.06 184.066 118.124 183.83 118.124 183.518C118.124 183.21 118.06 182.976 117.932 182.816C117.804 182.652 117.62 182.57 117.38 182.57C117.14 182.57 116.954 182.652 116.822 182.816C116.694 182.976 116.63 183.21 116.63 183.518C116.63 183.83 116.694 184.066 116.822 184.226C116.95 184.386 117.134 184.466 117.374 184.466ZM119.494 182.066H120.244V185H119.494V182.066ZM120.28 180.704V181.442H119.452V180.704H120.28ZM122.355 185.048C122.047 185.048 121.779 184.986 121.551 184.862C121.327 184.738 121.155 184.562 121.035 184.334C120.915 184.106 120.855 183.84 120.855 183.536C120.855 183.232 120.917 182.964 121.041 182.732C121.169 182.496 121.349 182.314 121.581 182.186C121.813 182.058 122.081 181.994 122.385 181.994C122.593 181.994 122.795 182.028 122.991 182.096C123.191 182.16 123.351 182.248 123.471 182.36L123.255 182.888C123.131 182.788 122.999 182.712 122.859 182.66C122.723 182.608 122.587 182.582 122.451 182.582C122.191 182.582 121.989 182.664 121.845 182.828C121.701 182.988 121.629 183.22 121.629 183.524C121.629 183.824 121.701 184.056 121.845 184.22C121.989 184.38 122.191 184.46 122.451 184.46C122.587 184.46 122.723 184.434 122.859 184.382C122.999 184.33 123.131 184.254 123.255 184.154L123.471 184.676C123.343 184.792 123.179 184.884 122.979 184.952C122.779 185.016 122.571 185.048 122.355 185.048ZM126.521 183.668H124.523C124.547 183.94 124.629 184.142 124.769 184.274C124.909 184.406 125.109 184.472 125.369 184.472C125.693 184.472 125.989 184.368 126.257 184.16L126.473 184.676C126.337 184.788 126.165 184.878 125.957 184.946C125.753 185.014 125.547 185.048 125.339 185.048C124.859 185.048 124.479 184.912 124.199 184.64C123.923 184.368 123.785 183.996 123.785 183.524C123.785 183.224 123.845 182.958 123.965 182.726C124.085 182.494 124.253 182.314 124.469 182.186C124.689 182.058 124.937 181.994 125.213 181.994C125.617 181.994 125.935 182.124 126.167 182.384C126.403 182.644 126.521 183.002 126.521 183.458V183.668ZM125.231 182.522C125.031 182.522 124.869 182.586 124.745 182.714C124.625 182.842 124.551 183.026 124.523 183.266H125.879C125.871 183.022 125.811 182.838 125.699 182.714C125.587 182.586 125.431 182.522 125.231 182.522ZM128.214 185.048C127.954 185.048 127.714 185.016 127.494 184.952C127.278 184.888 127.094 184.796 126.942 184.676L127.152 184.154C127.464 184.382 127.822 184.496 128.226 184.496C128.398 184.496 128.528 184.468 128.616 184.412C128.708 184.356 128.754 184.276 128.754 184.172C128.754 184.084 128.722 184.016 128.658 183.968C128.598 183.92 128.488 183.876 128.328 183.836L127.848 183.728C127.576 183.668 127.374 183.57 127.242 183.434C127.11 183.298 127.044 183.122 127.044 182.906C127.044 182.726 127.094 182.568 127.194 182.432C127.298 182.292 127.44 182.184 127.62 182.108C127.804 182.032 128.016 181.994 128.256 181.994C128.464 181.994 128.664 182.026 128.856 182.09C129.052 182.154 129.224 182.244 129.372 182.36L129.162 182.87C128.858 182.65 128.554 182.54 128.25 182.54C128.086 182.54 127.958 182.57 127.866 182.63C127.774 182.69 127.728 182.774 127.728 182.882C127.728 182.962 127.756 183.028 127.812 183.08C127.872 183.132 127.966 183.172 128.094 183.2L128.592 183.314C128.884 183.378 129.098 183.48 129.234 183.62C129.37 183.756 129.438 183.936 129.438 184.16C129.438 184.432 129.328 184.648 129.108 184.808C128.888 184.968 128.59 185.048 128.214 185.048Z" fill="#0A2E57"/>
<path d="M141.929 185.054C141.605 185.054 141.301 185.01 141.017 184.922C140.733 184.834 140.493 184.71 140.297 184.55L140.555 183.986C140.759 184.142 140.973 184.256 141.197 184.328C141.425 184.4 141.671 184.436 141.935 184.436C142.227 184.436 142.451 184.386 142.607 184.286C142.767 184.182 142.847 184.038 142.847 183.854C142.847 183.694 142.773 183.572 142.625 183.488C142.481 183.404 142.239 183.324 141.899 183.248C141.547 183.172 141.261 183.084 141.041 182.984C140.821 182.884 140.655 182.756 140.543 182.6C140.431 182.444 140.375 182.246 140.375 182.006C140.375 181.758 140.443 181.536 140.579 181.34C140.715 181.144 140.907 180.992 141.155 180.884C141.403 180.772 141.689 180.716 142.013 180.716C142.309 180.716 142.591 180.762 142.859 180.854C143.127 180.942 143.347 181.064 143.519 181.22L143.261 181.784C142.885 181.484 142.469 181.334 142.013 181.334C141.741 181.334 141.525 181.39 141.365 181.502C141.209 181.61 141.131 181.762 141.131 181.958C141.131 182.122 141.201 182.248 141.341 182.336C141.481 182.424 141.719 182.506 142.055 182.582C142.411 182.662 142.699 182.752 142.919 182.852C143.143 182.948 143.313 183.072 143.429 183.224C143.549 183.376 143.609 183.568 143.609 183.8C143.609 184.052 143.541 184.274 143.405 184.466C143.273 184.654 143.079 184.8 142.823 184.904C142.571 185.004 142.273 185.054 141.929 185.054ZM146.949 182.066V185H146.217V184.55C146.125 184.71 146.001 184.834 145.845 184.922C145.689 185.006 145.513 185.048 145.317 185.048C144.597 185.048 144.237 184.644 144.237 183.836V182.066H144.987V183.842C144.987 184.05 145.029 184.204 145.113 184.304C145.197 184.404 145.329 184.454 145.509 184.454C145.717 184.454 145.883 184.386 146.007 184.25C146.135 184.11 146.199 183.926 146.199 183.698V182.066H146.949ZM149.416 181.994C149.668 181.994 149.892 182.058 150.088 182.186C150.288 182.314 150.442 182.496 150.55 182.732C150.662 182.964 150.718 183.232 150.718 183.536C150.718 183.84 150.662 184.106 150.55 184.334C150.442 184.562 150.29 184.738 150.094 184.862C149.898 184.986 149.672 185.048 149.416 185.048C149.208 185.048 149.022 185.004 148.858 184.916C148.694 184.828 148.568 184.706 148.48 184.55V186.08H147.73V182.066H148.468V182.51C148.556 182.346 148.682 182.22 148.846 182.132C149.014 182.04 149.204 181.994 149.416 181.994ZM149.218 184.466C149.454 184.466 149.638 184.386 149.77 184.226C149.902 184.062 149.968 183.832 149.968 183.536C149.968 183.232 149.902 182.996 149.77 182.828C149.638 182.66 149.454 182.576 149.218 182.576C148.978 182.576 148.792 182.658 148.66 182.822C148.532 182.986 148.468 183.22 148.468 183.524C148.468 183.824 148.532 184.056 148.66 184.22C148.792 184.384 148.978 184.466 149.218 184.466ZM153.019 181.994C153.271 181.994 153.495 182.058 153.691 182.186C153.891 182.314 154.045 182.496 154.153 182.732C154.265 182.964 154.321 183.232 154.321 183.536C154.321 183.84 154.265 184.106 154.153 184.334C154.045 184.562 153.893 184.738 153.697 184.862C153.501 184.986 153.275 185.048 153.019 185.048C152.811 185.048 152.625 185.004 152.461 184.916C152.297 184.828 152.171 184.706 152.083 184.55V186.08H151.333V182.066H152.071V182.51C152.159 182.346 152.285 182.22 152.449 182.132C152.617 182.04 152.807 181.994 153.019 181.994ZM152.821 184.466C153.057 184.466 153.241 184.386 153.373 184.226C153.505 184.062 153.571 183.832 153.571 183.536C153.571 183.232 153.505 182.996 153.373 182.828C153.241 182.66 153.057 182.576 152.821 182.576C152.581 182.576 152.395 182.658 152.263 182.822C152.135 182.986 152.071 183.22 152.071 183.524C152.071 183.824 152.135 184.056 152.263 184.22C152.395 184.384 152.581 184.466 152.821 184.466ZM154.937 180.77H155.687V185H154.937V180.77ZM156.46 182.066H157.21V185H156.46V182.066ZM157.246 180.704V181.442H156.418V180.704H157.246ZM160.558 183.668H158.56C158.584 183.94 158.666 184.142 158.806 184.274C158.946 184.406 159.146 184.472 159.406 184.472C159.73 184.472 160.026 184.368 160.294 184.16L160.51 184.676C160.374 184.788 160.202 184.878 159.994 184.946C159.79 185.014 159.584 185.048 159.376 185.048C158.896 185.048 158.516 184.912 158.236 184.64C157.96 184.368 157.822 183.996 157.822 183.524C157.822 183.224 157.882 182.958 158.002 182.726C158.122 182.494 158.29 182.314 158.506 182.186C158.726 182.058 158.974 181.994 159.25 181.994C159.654 181.994 159.972 182.124 160.204 182.384C160.44 182.644 160.558 183.002 160.558 183.458V183.668ZM159.268 182.522C159.068 182.522 158.906 182.586 158.782 182.714C158.662 182.842 158.588 183.026 158.56 183.266H159.916C159.908 183.022 159.848 182.838 159.736 182.714C159.624 182.586 159.468 182.522 159.268 182.522ZM163.103 182.618L162.665 182.66C162.169 182.712 161.921 182.964 161.921 183.416V185H161.171V182.066H161.885V182.582C162.037 182.23 162.351 182.038 162.827 182.006L163.055 181.988L163.103 182.618ZM164.519 185.048C164.259 185.048 164.019 185.016 163.799 184.952C163.583 184.888 163.399 184.796 163.247 184.676L163.457 184.154C163.769 184.382 164.127 184.496 164.531 184.496C164.703 184.496 164.833 184.468 164.921 184.412C165.013 184.356 165.059 184.276 165.059 184.172C165.059 184.084 165.027 184.016 164.963 183.968C164.903 183.92 164.793 183.876 164.633 183.836L164.153 183.728C163.881 183.668 163.679 183.57 163.547 183.434C163.415 183.298 163.349 183.122 163.349 182.906C163.349 182.726 163.399 182.568 163.499 182.432C163.603 182.292 163.745 182.184 163.925 182.108C164.109 182.032 164.321 181.994 164.561 181.994C164.769 181.994 164.969 182.026 165.161 182.09C165.357 182.154 165.529 182.244 165.677 182.36L165.467 182.87C165.163 182.65 164.859 182.54 164.555 182.54C164.391 182.54 164.263 182.57 164.171 182.63C164.079 182.69 164.033 182.774 164.033 182.882C164.033 182.962 164.061 183.028 164.117 183.08C164.177 183.132 164.271 183.172 164.399 183.2L164.897 183.314C165.189 183.378 165.403 183.48 165.539 183.62C165.675 183.756 165.743 183.936 165.743 184.16C165.743 184.432 165.633 184.648 165.413 184.808C165.193 184.968 164.895 185.048 164.519 185.048Z" fill="#0A2E57"/>
<path d="M177.473 181.406H176.093V180.77H179.627V181.406H178.247V185H177.473V181.406ZM181.554 182.618L181.116 182.66C180.62 182.712 180.372 182.964 180.372 183.416V185H179.622V182.066H180.336V182.582C180.488 182.23 180.802 182.038 181.278 182.006L181.506 181.988L181.554 182.618ZM183.168 181.994C183.58 181.994 183.886 182.094 184.086 182.294C184.286 182.494 184.386 182.802 184.386 183.218V185H183.672V184.55C183.604 184.706 183.496 184.828 183.348 184.916C183.204 185.004 183.036 185.048 182.844 185.048C182.648 185.048 182.47 185.008 182.31 184.928C182.15 184.848 182.024 184.738 181.932 184.598C181.84 184.458 181.794 184.302 181.794 184.13C181.794 183.914 181.848 183.744 181.956 183.62C182.068 183.496 182.248 183.406 182.496 183.35C182.744 183.294 183.086 183.266 183.522 183.266H183.672V183.128C183.672 182.928 183.628 182.784 183.54 182.696C183.456 182.608 183.314 182.564 183.114 182.564C182.958 182.564 182.794 182.592 182.622 182.648C182.454 182.7 182.288 182.774 182.124 182.87L181.914 182.354C182.078 182.25 182.276 182.164 182.508 182.096C182.74 182.028 182.96 181.994 183.168 181.994ZM182.994 184.508C183.194 184.508 183.356 184.442 183.48 184.31C183.608 184.174 183.672 184 183.672 183.788V183.662H183.564C183.296 183.662 183.088 183.674 182.94 183.698C182.792 183.722 182.686 183.764 182.622 183.824C182.558 183.884 182.526 183.966 182.526 184.07C182.526 184.198 182.57 184.304 182.658 184.388C182.746 184.468 182.858 184.508 182.994 184.508ZM186.852 181.994C187.204 181.994 187.466 182.094 187.638 182.294C187.81 182.494 187.896 182.796 187.896 183.2V185H187.146V183.242C187.146 183.014 187.102 182.848 187.014 182.744C186.93 182.64 186.796 182.588 186.612 182.588C186.396 182.588 186.222 182.656 186.09 182.792C185.962 182.928 185.898 183.11 185.898 183.338V185H185.148V182.066H185.88V182.504C185.98 182.34 186.114 182.214 186.282 182.126C186.45 182.038 186.64 181.994 186.852 181.994ZM189.738 185.048C189.478 185.048 189.238 185.016 189.018 184.952C188.802 184.888 188.618 184.796 188.466 184.676L188.676 184.154C188.988 184.382 189.346 184.496 189.75 184.496C189.922 184.496 190.052 184.468 190.14 184.412C190.232 184.356 190.278 184.276 190.278 184.172C190.278 184.084 190.246 184.016 190.182 183.968C190.122 183.92 190.012 183.876 189.852 183.836L189.372 183.728C189.1 183.668 188.898 183.57 188.766 183.434C188.634 183.298 188.568 183.122 188.568 182.906C188.568 182.726 188.618 182.568 188.718 182.432C188.822 182.292 188.964 182.184 189.144 182.108C189.328 182.032 189.54 181.994 189.78 181.994C189.988 181.994 190.188 182.026 190.38 182.09C190.576 182.154 190.748 182.244 190.896 182.36L190.686 182.87C190.382 182.65 190.078 182.54 189.774 182.54C189.61 182.54 189.482 182.57 189.39 182.63C189.298 182.69 189.252 182.774 189.252 182.882C189.252 182.962 189.28 183.028 189.336 183.08C189.396 183.132 189.49 183.172 189.618 183.2L190.116 183.314C190.408 183.378 190.622 183.48 190.758 183.62C190.894 183.756 190.962 183.936 190.962 184.16C190.962 184.432 190.852 184.648 190.632 184.808C190.412 184.968 190.114 185.048 189.738 185.048ZM192.83 181.994C193.242 181.994 193.548 182.094 193.748 182.294C193.948 182.494 194.048 182.802 194.048 183.218V185H193.334V184.55C193.266 184.706 193.158 184.828 193.01 184.916C192.866 185.004 192.698 185.048 192.506 185.048C192.31 185.048 192.132 185.008 191.972 184.928C191.812 184.848 191.686 184.738 191.594 184.598C191.502 184.458 191.456 184.302 191.456 184.13C191.456 183.914 191.51 183.744 191.618 183.62C191.73 183.496 191.91 183.406 192.158 183.35C192.406 183.294 192.748 183.266 193.184 183.266H193.334V183.128C193.334 182.928 193.29 182.784 193.202 182.696C193.118 182.608 192.976 182.564 192.776 182.564C192.62 182.564 192.456 182.592 192.284 182.648C192.116 182.7 191.95 182.774 191.786 182.87L191.576 182.354C191.74 182.25 191.938 182.164 192.17 182.096C192.402 182.028 192.622 181.994 192.83 181.994ZM192.656 184.508C192.856 184.508 193.018 184.442 193.142 184.31C193.27 184.174 193.334 184 193.334 183.788V183.662H193.226C192.958 183.662 192.75 183.674 192.602 183.698C192.454 183.722 192.348 183.764 192.284 183.824C192.22 183.884 192.188 183.966 192.188 184.07C192.188 184.198 192.232 184.304 192.32 184.388C192.408 184.468 192.52 184.508 192.656 184.508ZM196.148 185.048C195.84 185.048 195.572 184.986 195.344 184.862C195.12 184.738 194.948 184.562 194.828 184.334C194.708 184.106 194.648 183.84 194.648 183.536C194.648 183.232 194.71 182.964 194.834 182.732C194.962 182.496 195.142 182.314 195.374 182.186C195.606 182.058 195.874 181.994 196.178 181.994C196.386 181.994 196.588 182.028 196.784 182.096C196.984 182.16 197.144 182.248 197.264 182.36L197.048 182.888C196.924 182.788 196.792 182.712 196.652 182.66C196.516 182.608 196.38 182.582 196.244 182.582C195.984 182.582 195.782 182.664 195.638 182.828C195.494 182.988 195.422 183.22 195.422 183.524C195.422 183.824 195.494 184.056 195.638 184.22C195.782 184.38 195.984 184.46 196.244 184.46C196.38 184.46 196.516 184.434 196.652 184.382C196.792 184.33 196.924 184.254 197.048 184.154L197.264 184.676C197.136 184.792 196.972 184.884 196.772 184.952C196.572 185.016 196.364 185.048 196.148 185.048ZM199.257 184.484C199.345 184.484 199.437 184.478 199.533 184.466L199.497 185.024C199.377 185.036 199.267 185.042 199.167 185.042C198.755 185.042 198.451 184.948 198.255 184.76C198.059 184.568 197.961 184.284 197.961 183.908V182.63H197.397V182.066H197.961V181.19H198.711V182.066H199.485V182.63H198.711V183.896C198.711 184.288 198.893 184.484 199.257 184.484ZM199.972 182.066H200.722V185H199.972V182.066ZM200.758 180.704V181.442H199.93V180.704H200.758ZM202.833 185.048C202.533 185.048 202.269 184.986 202.041 184.862C201.817 184.738 201.643 184.56 201.519 184.328C201.395 184.096 201.333 183.826 201.333 183.518C201.333 183.21 201.395 182.942 201.519 182.714C201.643 182.482 201.817 182.304 202.041 182.18C202.269 182.056 202.533 181.994 202.833 181.994C203.133 181.994 203.395 182.056 203.619 182.18C203.847 182.304 204.021 182.482 204.141 182.714C204.265 182.942 204.327 183.21 204.327 183.518C204.327 183.826 204.265 184.096 204.141 184.328C204.021 184.56 203.847 184.738 203.619 184.862C203.395 184.986 203.133 185.048 202.833 185.048ZM202.827 184.466C203.071 184.466 203.257 184.386 203.385 184.226C203.513 184.066 203.577 183.83 203.577 183.518C203.577 183.21 203.513 182.976 203.385 182.816C203.257 182.652 203.073 182.57 202.833 182.57C202.593 182.57 202.407 182.652 202.275 182.816C202.147 182.976 202.083 183.21 202.083 183.518C202.083 183.83 202.147 184.066 202.275 184.226C202.403 184.386 202.587 184.466 202.827 184.466ZM206.651 181.994C207.003 181.994 207.265 182.094 207.437 182.294C207.609 182.494 207.695 182.796 207.695 183.2V185H206.945V183.242C206.945 183.014 206.901 182.848 206.813 182.744C206.729 182.64 206.595 182.588 206.411 182.588C206.195 182.588 206.021 182.656 205.889 182.792C205.761 182.928 205.697 183.11 205.697 183.338V185H204.947V182.066H205.679V182.504C205.779 182.34 205.913 182.214 206.081 182.126C206.249 182.038 206.439 181.994 206.651 181.994ZM209.536 185.048C209.276 185.048 209.036 185.016 208.816 184.952C208.6 184.888 208.416 184.796 208.264 184.676L208.474 184.154C208.786 184.382 209.144 184.496 209.548 184.496C209.72 184.496 209.85 184.468 209.938 184.412C210.03 184.356 210.076 184.276 210.076 184.172C210.076 184.084 210.044 184.016 209.98 183.968C209.92 183.92 209.81 183.876 209.65 183.836L209.17 183.728C208.898 183.668 208.696 183.57 208.564 183.434C208.432 183.298 208.366 183.122 208.366 182.906C208.366 182.726 208.416 182.568 208.516 182.432C208.62 182.292 208.762 182.184 208.942 182.108C209.126 182.032 209.338 181.994 209.578 181.994C209.786 181.994 209.986 182.026 210.178 182.09C210.374 182.154 210.546 182.244 210.694 182.36L210.484 182.87C210.18 182.65 209.876 182.54 209.572 182.54C209.408 182.54 209.28 182.57 209.188 182.63C209.096 182.69 209.05 182.774 209.05 182.882C209.05 182.962 209.078 183.028 209.134 183.08C209.194 183.132 209.288 183.172 209.416 183.2L209.914 183.314C210.206 183.378 210.42 183.48 210.556 183.62C210.692 183.756 210.76 183.936 210.76 184.16C210.76 184.432 210.65 184.648 210.43 184.808C210.21 184.968 209.912 185.048 209.536 185.048Z" fill="#0A2E57"/>
<path d="M225.27 185H224.43L223.704 183.65C223.636 183.522 223.552 183.432 223.452 183.38C223.352 183.328 223.226 183.302 223.074 183.302H222.486V185H221.724V180.77H223.596C224.076 180.77 224.44 180.878 224.688 181.094C224.94 181.306 225.066 181.614 225.066 182.018C225.066 182.342 224.974 182.61 224.79 182.822C224.61 183.03 224.354 183.166 224.022 183.23C224.246 183.29 224.426 183.448 224.562 183.704L225.27 185ZM223.488 182.708C223.78 182.708 223.994 182.654 224.13 182.546C224.266 182.434 224.334 182.264 224.334 182.036C224.334 181.804 224.266 181.636 224.13 181.532C223.994 181.424 223.78 181.37 223.488 181.37H222.48V182.708H223.488ZM228.403 183.668H226.405C226.429 183.94 226.511 184.142 226.651 184.274C226.791 184.406 226.991 184.472 227.251 184.472C227.575 184.472 227.871 184.368 228.139 184.16L228.355 184.676C228.219 184.788 228.047 184.878 227.839 184.946C227.635 185.014 227.429 185.048 227.221 185.048C226.741 185.048 226.361 184.912 226.081 184.64C225.805 184.368 225.667 183.996 225.667 183.524C225.667 183.224 225.727 182.958 225.847 182.726C225.967 182.494 226.135 182.314 226.351 182.186C226.571 182.058 226.819 181.994 227.095 181.994C227.499 181.994 227.817 182.124 228.049 182.384C228.285 182.644 228.403 183.002 228.403 183.458V183.668ZM227.113 182.522C226.913 182.522 226.751 182.586 226.627 182.714C226.507 182.842 226.433 183.026 226.405 183.266H227.761C227.753 183.022 227.693 182.838 227.581 182.714C227.469 182.586 227.313 182.522 227.113 182.522ZM230.097 185.048C229.837 185.048 229.597 185.016 229.377 184.952C229.161 184.888 228.977 184.796 228.825 184.676L229.035 184.154C229.347 184.382 229.705 184.496 230.109 184.496C230.281 184.496 230.411 184.468 230.499 184.412C230.591 184.356 230.637 184.276 230.637 184.172C230.637 184.084 230.605 184.016 230.541 183.968C230.481 183.92 230.371 183.876 230.211 183.836L229.731 183.728C229.459 183.668 229.257 183.57 229.125 183.434C228.993 183.298 228.927 183.122 228.927 182.906C228.927 182.726 228.977 182.568 229.077 182.432C229.181 182.292 229.323 182.184 229.503 182.108C229.687 182.032 229.899 181.994 230.139 181.994C230.347 181.994 230.547 182.026 230.739 182.09C230.935 182.154 231.107 182.244 231.255 182.36L231.045 182.87C230.741 182.65 230.437 182.54 230.133 182.54C229.969 182.54 229.841 182.57 229.749 182.63C229.657 182.69 229.611 182.774 229.611 182.882C229.611 182.962 229.639 183.028 229.695 183.08C229.755 183.132 229.849 183.172 229.977 183.2L230.475 183.314C230.767 183.378 230.981 183.48 231.117 183.62C231.253 183.756 231.321 183.936 231.321 184.16C231.321 184.432 231.211 184.648 230.991 184.808C230.771 184.968 230.473 185.048 230.097 185.048ZM233.267 185.048C232.967 185.048 232.703 184.986 232.475 184.862C232.251 184.738 232.077 184.56 231.953 184.328C231.829 184.096 231.767 183.826 231.767 183.518C231.767 183.21 231.829 182.942 231.953 182.714C232.077 182.482 232.251 182.304 232.475 182.18C232.703 182.056 232.967 181.994 233.267 181.994C233.567 181.994 233.829 182.056 234.053 182.18C234.281 182.304 234.455 182.482 234.575 182.714C234.699 182.942 234.761 183.21 234.761 183.518C234.761 183.826 234.699 184.096 234.575 184.328C234.455 184.56 234.281 184.738 234.053 184.862C233.829 184.986 233.567 185.048 233.267 185.048ZM233.261 184.466C233.505 184.466 233.691 184.386 233.819 184.226C233.947 184.066 234.011 183.83 234.011 183.518C234.011 183.21 233.947 182.976 233.819 182.816C233.691 182.652 233.507 182.57 233.267 182.57C233.027 182.57 232.841 182.652 232.709 182.816C232.581 182.976 232.517 183.21 232.517 183.518C232.517 183.83 232.581 184.066 232.709 184.226C232.837 184.386 233.021 184.466 233.261 184.466ZM238.074 182.066V185H237.342V184.55C237.25 184.71 237.126 184.834 236.97 184.922C236.814 185.006 236.638 185.048 236.442 185.048C235.722 185.048 235.362 184.644 235.362 183.836V182.066H236.112V183.842C236.112 184.05 236.154 184.204 236.238 184.304C236.322 184.404 236.454 184.454 236.634 184.454C236.842 184.454 237.008 184.386 237.132 184.25C237.26 184.11 237.324 183.926 237.324 183.698V182.066H238.074ZM240.787 182.618L240.349 182.66C239.853 182.712 239.605 182.964 239.605 183.416V185H238.855V182.066H239.569V182.582C239.721 182.23 240.035 182.038 240.511 182.006L240.739 181.988L240.787 182.618ZM242.431 185.048C242.123 185.048 241.855 184.986 241.627 184.862C241.403 184.738 241.231 184.562 241.111 184.334C240.991 184.106 240.931 183.84 240.931 183.536C240.931 183.232 240.993 182.964 241.117 182.732C241.245 182.496 241.425 182.314 241.657 182.186C241.889 182.058 242.157 181.994 242.461 181.994C242.669 181.994 242.871 182.028 243.067 182.096C243.267 182.16 243.427 182.248 243.547 182.36L243.331 182.888C243.207 182.788 243.075 182.712 242.935 182.66C242.799 182.608 242.663 182.582 242.527 182.582C242.267 182.582 242.065 182.664 241.921 182.828C241.777 182.988 241.705 183.22 241.705 183.524C241.705 183.824 241.777 184.056 241.921 184.22C242.065 184.38 242.267 184.46 242.527 184.46C242.663 184.46 242.799 184.434 242.935 184.382C243.075 184.33 243.207 184.254 243.331 184.154L243.547 184.676C243.419 184.792 243.255 184.884 243.055 184.952C242.855 185.016 242.647 185.048 242.431 185.048ZM246.597 183.668H244.599C244.623 183.94 244.705 184.142 244.845 184.274C244.985 184.406 245.185 184.472 245.445 184.472C245.769 184.472 246.065 184.368 246.333 184.16L246.549 184.676C246.413 184.788 246.241 184.878 246.033 184.946C245.829 185.014 245.623 185.048 245.415 185.048C244.935 185.048 244.555 184.912 244.275 184.64C243.999 184.368 243.861 183.996 243.861 183.524C243.861 183.224 243.921 182.958 244.041 182.726C244.161 182.494 244.329 182.314 244.545 182.186C244.765 182.058 245.013 181.994 245.289 181.994C245.693 181.994 246.011 182.124 246.243 182.384C246.479 182.644 246.597 183.002 246.597 183.458V183.668ZM245.307 182.522C245.107 182.522 244.945 182.586 244.821 182.714C244.701 182.842 244.627 183.026 244.599 183.266H245.955C245.947 183.022 245.887 182.838 245.775 182.714C245.663 182.586 245.507 182.522 245.307 182.522ZM248.29 185.048C248.03 185.048 247.79 185.016 247.57 184.952C247.354 184.888 247.17 184.796 247.018 184.676L247.228 184.154C247.54 184.382 247.898 184.496 248.302 184.496C248.474 184.496 248.604 184.468 248.692 184.412C248.784 184.356 248.83 184.276 248.83 184.172C248.83 184.084 248.798 184.016 248.734 183.968C248.674 183.92 248.564 183.876 248.404 183.836L247.924 183.728C247.652 183.668 247.45 183.57 247.318 183.434C247.186 183.298 247.12 183.122 247.12 182.906C247.12 182.726 247.17 182.568 247.27 182.432C247.374 182.292 247.516 182.184 247.696 182.108C247.88 182.032 248.092 181.994 248.332 181.994C248.54 181.994 248.74 182.026 248.932 182.09C249.128 182.154 249.3 182.244 249.448 182.36L249.238 182.87C248.934 182.65 248.63 182.54 248.326 182.54C248.162 182.54 248.034 182.57 247.942 182.63C247.85 182.69 247.804 182.774 247.804 182.882C247.804 182.962 247.832 183.028 247.888 183.08C247.948 183.132 248.042 183.172 248.17 183.2L248.668 183.314C248.96 183.378 249.174 183.48 249.31 183.62C249.446 183.756 249.514 183.936 249.514 184.16C249.514 184.432 249.404 184.648 249.184 184.808C248.964 184.968 248.666 185.048 248.29 185.048Z" fill="#0A2E57"/>
<rect x="394" y="173.5" width="78" height="19" rx="2" fill="#26B67F"/>
<path d="M406.352 184.18H403.608L403.04 185.5H402L404.552 179.86H405.392L407.944 185.5H406.92L406.352 184.18ZM406.008 183.38L404.976 180.98L403.944 183.38H406.008ZM412.234 179.86V185.5H411.242V184.868C411.124 185.087 410.954 185.257 410.73 185.38C410.511 185.503 410.26 185.564 409.978 185.564C409.642 185.564 409.34 185.479 409.074 185.308C408.812 185.137 408.607 184.897 408.458 184.588C408.314 184.273 408.242 183.913 408.242 183.508C408.242 183.103 408.314 182.748 408.458 182.444C408.607 182.14 408.812 181.905 409.074 181.74C409.335 181.575 409.636 181.492 409.978 181.492C410.26 181.492 410.511 181.551 410.73 181.668C410.948 181.785 411.116 181.951 411.234 182.164V179.86H412.234ZM410.242 184.788C410.562 184.788 410.807 184.679 410.978 184.46C411.154 184.241 411.242 183.929 411.242 183.524C411.242 183.119 411.154 182.809 410.978 182.596C410.807 182.377 410.564 182.268 410.25 182.268C409.93 182.268 409.682 182.375 409.506 182.588C409.33 182.801 409.242 183.108 409.242 183.508C409.242 183.913 409.33 184.228 409.506 184.452C409.682 184.676 409.927 184.788 410.242 184.788ZM417.038 179.86V185.5H416.046V184.868C415.929 185.087 415.758 185.257 415.534 185.38C415.316 185.503 415.065 185.564 414.782 185.564C414.446 185.564 414.145 185.479 413.878 185.308C413.617 185.137 413.412 184.897 413.262 184.588C413.118 184.273 413.046 183.913 413.046 183.508C413.046 183.103 413.118 182.748 413.262 182.444C413.412 182.14 413.617 181.905 413.878 181.74C414.14 181.575 414.441 181.492 414.782 181.492C415.065 181.492 415.316 181.551 415.534 181.668C415.753 181.785 415.921 181.951 416.038 182.164V179.86H417.038ZM415.046 184.788C415.366 184.788 415.612 184.679 415.782 184.46C415.958 184.241 416.046 183.929 416.046 183.524C416.046 183.119 415.958 182.809 415.782 182.596C415.612 182.377 415.369 182.268 415.054 182.268C414.734 182.268 414.486 182.375 414.31 182.588C414.134 182.801 414.046 183.108 414.046 183.508C414.046 183.913 414.134 184.228 414.31 184.452C414.486 184.676 414.732 184.788 415.046 184.788ZM422.511 181.492C422.98 181.492 423.329 181.625 423.559 181.892C423.788 182.159 423.903 182.561 423.903 183.1V185.5H422.903V183.156C422.903 182.852 422.844 182.631 422.727 182.492C422.615 182.353 422.436 182.284 422.191 182.284C421.903 182.284 421.671 182.375 421.495 182.556C421.324 182.737 421.239 182.98 421.239 183.284V185.5H420.239V181.588H421.215V182.172C421.348 181.953 421.527 181.785 421.751 181.668C421.975 181.551 422.228 181.492 422.511 181.492ZM428.35 183.724H425.686C425.718 184.087 425.828 184.356 426.014 184.532C426.201 184.708 426.468 184.796 426.814 184.796C427.246 184.796 427.641 184.657 427.998 184.38L428.286 185.068C428.105 185.217 427.876 185.337 427.598 185.428C427.326 185.519 427.052 185.564 426.774 185.564C426.134 185.564 425.628 185.383 425.254 185.02C424.886 184.657 424.702 184.161 424.702 183.532C424.702 183.132 424.782 182.777 424.942 182.468C425.102 182.159 425.326 181.919 425.614 181.748C425.908 181.577 426.238 181.492 426.606 181.492C427.145 181.492 427.569 181.665 427.878 182.012C428.193 182.359 428.35 182.836 428.35 183.444V183.724ZM426.63 182.196C426.364 182.196 426.148 182.281 425.982 182.452C425.822 182.623 425.724 182.868 425.686 183.188H427.494C427.484 182.863 427.404 182.617 427.254 182.452C427.105 182.281 426.897 182.196 426.63 182.196ZM435.362 181.588L433.826 185.5H432.954L431.994 182.98L431.058 185.5H430.194L428.65 181.588H429.674L430.674 184.308L431.674 181.588H432.394L433.394 184.324L434.386 181.588H435.362ZM438.129 181.588H439.129V185.5H438.129V181.588ZM439.177 179.772V180.756H438.073V179.772H439.177ZM442.433 181.492C442.902 181.492 443.251 181.625 443.481 181.892C443.71 182.159 443.825 182.561 443.825 183.1V185.5H442.825V183.156C442.825 182.852 442.766 182.631 442.649 182.492C442.537 182.353 442.358 182.284 442.113 182.284C441.825 182.284 441.593 182.375 441.417 182.556C441.246 182.737 441.161 182.98 441.161 183.284V185.5H440.161V181.588H441.137V182.172C441.27 181.953 441.449 181.785 441.673 181.668C441.897 181.551 442.15 181.492 442.433 181.492ZM448.568 181.596L446.856 185.5H445.984L444.288 181.596H445.344L446.448 184.356L447.584 181.596H448.568ZM450.773 185.564C450.373 185.564 450.021 185.481 449.717 185.316C449.418 185.151 449.186 184.913 449.021 184.604C448.855 184.295 448.773 183.935 448.773 183.524C448.773 183.113 448.855 182.756 449.021 182.452C449.186 182.143 449.418 181.905 449.717 181.74C450.021 181.575 450.373 181.492 450.773 181.492C451.173 181.492 451.522 181.575 451.821 181.74C452.125 181.905 452.357 182.143 452.517 182.452C452.682 182.756 452.765 183.113 452.765 183.524C452.765 183.935 452.682 184.295 452.517 184.604C452.357 184.913 452.125 185.151 451.821 185.316C451.522 185.481 451.173 185.564 450.773 185.564ZM450.765 184.788C451.09 184.788 451.338 184.681 451.509 184.468C451.679 184.255 451.765 183.94 451.765 183.524C451.765 183.113 451.679 182.801 451.509 182.588C451.338 182.369 451.093 182.26 450.773 182.26C450.453 182.26 450.205 182.369 450.029 182.588C449.858 182.801 449.773 183.113 449.773 183.524C449.773 183.94 449.858 184.255 450.029 184.468C450.199 184.681 450.445 184.788 450.765 184.788ZM453.59 181.588H454.59V185.5H453.59V181.588ZM454.638 179.772V180.756H453.534V179.772H454.638ZM457.406 185.564C456.995 185.564 456.638 185.481 456.334 185.316C456.035 185.151 455.806 184.916 455.646 184.612C455.486 184.308 455.406 183.953 455.406 183.548C455.406 183.143 455.488 182.785 455.654 182.476C455.824 182.161 456.064 181.919 456.374 181.748C456.683 181.577 457.04 181.492 457.446 181.492C457.723 181.492 457.992 181.537 458.254 181.628C458.52 181.713 458.734 181.831 458.894 181.98L458.606 182.684C458.44 182.551 458.264 182.449 458.078 182.38C457.896 182.311 457.715 182.276 457.534 182.276C457.187 182.276 456.918 182.385 456.726 182.604C456.534 182.817 456.438 183.127 456.438 183.532C456.438 183.932 456.534 184.241 456.726 184.46C456.918 184.673 457.187 184.78 457.534 184.78C457.715 184.78 457.896 184.745 458.078 184.676C458.264 184.607 458.44 184.505 458.606 184.372L458.894 185.068C458.723 185.223 458.504 185.345 458.238 185.436C457.971 185.521 457.694 185.564 457.406 185.564ZM462.96 183.724H460.296C460.328 184.087 460.437 184.356 460.624 184.532C460.81 184.708 461.077 184.796 461.424 184.796C461.856 184.796 462.25 184.657 462.608 184.38L462.896 185.068C462.714 185.217 462.485 185.337 462.208 185.428C461.936 185.519 461.661 185.564 461.384 185.564C460.744 185.564 460.237 185.383 459.864 185.02C459.496 184.657 459.312 184.161 459.312 183.532C459.312 183.132 459.392 182.777 459.552 182.468C459.712 182.159 459.936 181.919 460.224 181.748C460.517 181.577 460.848 181.492 461.216 181.492C461.754 181.492 462.178 181.665 462.488 182.012C462.802 182.359 462.96 182.836 462.96 183.444V183.724ZM461.24 182.196C460.973 182.196 460.757 182.281 460.592 182.452C460.432 182.623 460.333 182.868 460.296 183.188H462.104C462.093 182.863 462.013 182.617 461.864 182.452C461.714 182.281 461.506 182.196 461.24 182.196Z" fill="white"/>
<path d="M487.104 185.564C486.571 185.564 486.107 185.449 485.712 185.22C485.317 184.985 485.013 184.652 484.8 184.22C484.592 183.783 484.488 183.268 484.488 182.676C484.488 182.084 484.592 181.572 484.8 181.14C485.013 180.708 485.317 180.377 485.712 180.148C486.107 179.913 486.571 179.796 487.104 179.796C487.493 179.796 487.851 179.857 488.176 179.98C488.501 180.097 488.784 180.273 489.024 180.508L488.776 181.012C488.504 180.783 488.237 180.617 487.976 180.516C487.715 180.415 487.427 180.364 487.112 180.364C486.493 180.364 486.013 180.567 485.672 180.972C485.336 181.372 485.168 181.94 485.168 182.676C485.168 183.417 485.336 183.991 485.672 184.396C486.013 184.796 486.493 184.996 487.112 184.996C487.427 184.996 487.715 184.945 487.976 184.844C488.237 184.743 488.504 184.577 488.776 184.348L489.024 184.852C488.784 185.087 488.501 185.265 488.176 185.388C487.851 185.505 487.493 185.564 487.104 185.564ZM491.552 185.556C491.184 185.556 490.859 185.473 490.576 185.308C490.299 185.143 490.083 184.908 489.928 184.604C489.779 184.295 489.704 183.937 489.704 183.532C489.704 183.127 489.779 182.772 489.928 182.468C490.083 182.159 490.299 181.921 490.576 181.756C490.859 181.591 491.184 181.508 491.552 181.508C491.92 181.508 492.245 181.591 492.528 181.756C492.811 181.921 493.027 182.159 493.176 182.468C493.331 182.772 493.408 183.127 493.408 183.532C493.408 183.937 493.331 184.295 493.176 184.604C493.027 184.908 492.811 185.143 492.528 185.308C492.245 185.473 491.92 185.556 491.552 185.556ZM491.552 185.02C491.936 185.02 492.229 184.895 492.432 184.644C492.64 184.388 492.744 184.017 492.744 183.532C492.744 183.057 492.64 182.692 492.432 182.436C492.224 182.175 491.931 182.044 491.552 182.044C491.173 182.044 490.88 182.175 490.672 182.436C490.464 182.692 490.36 183.057 490.36 183.532C490.36 184.012 490.461 184.38 490.664 184.636C490.872 184.892 491.168 185.02 491.552 185.02ZM498.709 181.508C499.573 181.508 500.005 182.023 500.005 183.052V185.5H499.357V183.084C499.357 182.727 499.293 182.465 499.165 182.3C499.043 182.135 498.843 182.052 498.565 182.052C498.24 182.052 497.984 182.161 497.797 182.38C497.611 182.599 497.517 182.897 497.517 183.276V185.5H496.869V183.084C496.869 182.721 496.805 182.46 496.677 182.3C496.549 182.135 496.347 182.052 496.069 182.052C495.744 182.052 495.488 182.161 495.301 182.38C495.115 182.599 495.021 182.897 495.021 183.276V185.5H494.373V181.604H495.013V182.22C495.131 181.991 495.293 181.815 495.501 181.692C495.709 181.569 495.949 181.508 496.221 181.508C496.824 181.508 497.221 181.764 497.413 182.276C497.525 182.036 497.696 181.849 497.925 181.716C498.155 181.577 498.416 181.508 498.709 181.508ZM503.146 181.508C503.487 181.508 503.789 181.593 504.05 181.764C504.311 181.935 504.514 182.175 504.658 182.484C504.802 182.788 504.874 183.143 504.874 183.548C504.874 183.953 504.802 184.308 504.658 184.612C504.514 184.911 504.311 185.143 504.05 185.308C503.794 185.473 503.493 185.556 503.146 185.556C502.842 185.556 502.575 185.489 502.346 185.356C502.122 185.223 501.951 185.033 501.834 184.788V186.94H501.186V181.604H501.834V182.276C501.951 182.031 502.122 181.841 502.346 181.708C502.575 181.575 502.842 181.508 503.146 181.508ZM503.018 185.02C503.397 185.02 503.69 184.892 503.898 184.636C504.106 184.38 504.21 184.017 504.21 183.548C504.21 183.079 504.106 182.713 503.898 182.452C503.69 182.185 503.397 182.052 503.018 182.052C502.639 182.052 502.346 182.18 502.138 182.436C501.935 182.692 501.834 183.057 501.834 183.532C501.834 184.007 501.935 184.375 502.138 184.636C502.346 184.892 502.639 185.02 503.018 185.02ZM507.426 181.508C507.922 181.508 508.29 181.636 508.53 181.892C508.776 182.143 508.898 182.527 508.898 183.044V185.5H508.266V184.836C508.165 185.065 508.01 185.244 507.802 185.372C507.594 185.495 507.354 185.556 507.082 185.556C506.832 185.556 506.6 185.505 506.386 185.404C506.178 185.303 506.013 185.161 505.89 184.98C505.768 184.799 505.706 184.599 505.706 184.38C505.706 184.087 505.781 183.86 505.93 183.7C506.08 183.535 506.325 183.417 506.666 183.348C507.008 183.273 507.482 183.236 508.09 183.236H508.266V182.972C508.266 182.647 508.2 182.412 508.066 182.268C507.933 182.119 507.717 182.044 507.418 182.044C506.97 182.044 506.525 182.183 506.082 182.46L505.866 181.988C506.069 181.844 506.312 181.729 506.594 181.644C506.882 181.553 507.16 181.508 507.426 181.508ZM507.17 185.044C507.49 185.044 507.752 184.937 507.954 184.724C508.162 184.505 508.266 184.225 508.266 183.884V183.652H508.122C507.653 183.652 507.296 183.673 507.05 183.716C506.805 183.753 506.629 183.82 506.522 183.916C506.421 184.007 506.37 184.143 506.37 184.324C506.37 184.532 506.445 184.705 506.594 184.844C506.749 184.977 506.941 185.044 507.17 185.044ZM512.044 181.508C512.978 181.508 513.444 182.023 513.444 183.052V185.5H512.796V183.092C512.796 182.729 512.724 182.465 512.58 182.3C512.442 182.135 512.218 182.052 511.908 182.052C511.551 182.052 511.266 182.161 511.052 182.38C510.839 182.599 510.732 182.895 510.732 183.268V185.5H510.084V181.604H510.724V182.244C510.852 182.004 511.031 181.823 511.26 181.7C511.49 181.572 511.751 181.508 512.044 181.508ZM518.071 181.612L515.767 186.94H515.103L515.759 185.452L514.111 181.612H514.799L516.103 184.796L517.423 181.612H518.071ZM525.419 179.86V185.5H524.915L521.515 180.964V185.5H520.899V179.86H521.403L524.803 184.396V179.86H525.419ZM528.301 181.508C528.797 181.508 529.165 181.636 529.405 181.892C529.651 182.143 529.773 182.527 529.773 183.044V185.5H529.141V184.836C529.04 185.065 528.885 185.244 528.677 185.372C528.469 185.495 528.229 185.556 527.957 185.556C527.707 185.556 527.475 185.505 527.261 185.404C527.053 185.303 526.888 185.161 526.765 184.98C526.643 184.799 526.581 184.599 526.581 184.38C526.581 184.087 526.656 183.86 526.805 183.7C526.955 183.535 527.2 183.417 527.541 183.348C527.883 183.273 528.357 183.236 528.965 183.236H529.141V182.972C529.141 182.647 529.075 182.412 528.941 182.268C528.808 182.119 528.592 182.044 528.293 182.044C527.845 182.044 527.4 182.183 526.957 182.46L526.741 181.988C526.944 181.844 527.187 181.729 527.469 181.644C527.757 181.553 528.035 181.508 528.301 181.508ZM528.045 185.044C528.365 185.044 528.627 184.937 528.829 184.724C529.037 184.505 529.141 184.225 529.141 183.884V183.652H528.997C528.528 183.652 528.171 183.673 527.925 183.716C527.68 183.753 527.504 183.82 527.397 183.916C527.296 184.007 527.245 184.143 527.245 184.324C527.245 184.532 527.32 184.705 527.469 184.844C527.624 184.977 527.816 185.044 528.045 185.044ZM535.295 181.508C536.159 181.508 536.591 182.023 536.591 183.052V185.5H535.943V183.084C535.943 182.727 535.879 182.465 535.751 182.3C535.629 182.135 535.429 182.052 535.151 182.052C534.826 182.052 534.57 182.161 534.383 182.38C534.197 182.599 534.103 182.897 534.103 183.276V185.5H533.455V183.084C533.455 182.721 533.391 182.46 533.263 182.3C533.135 182.135 532.933 182.052 532.655 182.052C532.33 182.052 532.074 182.161 531.887 182.38C531.701 182.599 531.607 182.897 531.607 183.276V185.5H530.959V181.604H531.599V182.22C531.717 181.991 531.879 181.815 532.087 181.692C532.295 181.569 532.535 181.508 532.807 181.508C533.41 181.508 533.807 181.764 533.999 182.276C534.111 182.036 534.282 181.849 534.511 181.716C534.741 181.577 535.002 181.508 535.295 181.508ZM541.036 183.652H538.188C538.209 184.105 538.332 184.449 538.556 184.684C538.78 184.913 539.097 185.028 539.508 185.028C539.961 185.028 540.377 184.873 540.756 184.564L540.972 185.036C540.801 185.196 540.583 185.324 540.316 185.42C540.049 185.511 539.777 185.556 539.5 185.556C538.892 185.556 538.412 185.377 538.06 185.02C537.713 184.663 537.54 184.169 537.54 183.54C537.54 183.14 537.617 182.788 537.772 182.484C537.927 182.175 538.143 181.935 538.42 181.764C538.703 181.593 539.023 181.508 539.38 181.508C539.897 181.508 540.303 181.679 540.596 182.02C540.889 182.356 541.036 182.82 541.036 183.412V183.652ZM539.388 182.012C539.047 182.012 538.772 182.119 538.564 182.332C538.361 182.545 538.241 182.847 538.204 183.236H540.468C540.457 182.841 540.359 182.54 540.172 182.332C539.985 182.119 539.724 182.012 539.388 182.012Z" fill="#0A2E57"/>
<g clip-path="url(#clip1_50_1172)">
<path d="M552.295 181.295L550 183.585L547.705 181.295L547 182L550 185L553 182L552.295 181.295Z" fill="#0A2E57"/>
</g>
</g>
</g>
</g>
<defs>
<filter id="filter0_ddii_50_1172" x="31" y="148" width="576" height="415" filterUnits="userSpaceOnUse" color-interpolation-filters="sRGB">
<feFlood flood-opacity="0" result="BackgroundImageFix"/>
<feColorMatrix in="SourceAlpha" type="matrix" values="0 0 0 0 0 0 0 0 0 0 0 0 0 0 0 0 0 0 127 0" result="hardAlpha"/>
<feOffset dx="8" dy="8"/>
<feGaussianBlur stdDeviation="10"/>
<feComposite in2="hardAlpha" operator="out"/>
<feColorMatrix type="matrix" values="0 0 0 0 0.313726 0 0 0 0 0.345098 0 0 0 0 0.443137 0 0 0 0.08 0"/>
<feBlend mode="normal" in2="BackgroundImageFix" result="effect1_dropShadow_50_1172"/>
<feColorMatrix in="SourceAlpha" type="matrix" values="0 0 0 0 0 0 0 0 0 0 0 0 0 0 0 0 0 0 127 0" result="hardAlpha"/>
<feOffset dx="2" dy="2"/>
<feGaussianBlur stdDeviation="3"/>
<feComposite in2="hardAlpha" operator="out"/>
<feColorMatrix type="matrix" values="0 0 0 0 0.314687 0 0 0 0 0.345997 0 0 0 0 0.441667 0 0 0 0.25 0"/>
<feBlend mode="normal" in2="effect1_dropShadow_50_1172" result="effect2_dropShadow_50_1172"/>
<feBlend mode="normal" in="SourceGraphic" in2="effect2_dropShadow_50_1172" result="shape"/>
<feColorMatrix in="SourceAlpha" type="matrix" values="0 0 0 0 0 0 0 0 0 0 0 0 0 0 0 0 0 0 127 0" result="hardAlpha"/>
<feOffset dx="-8" dy="-8"/>
<feGaussianBlur stdDeviation="15"/>
<feComposite in2="hardAlpha" operator="arithmetic" k2="-1" k3="1"/>
<feColorMatrix type="matrix" values="0 0 0 0 0.475521 0 0 0 0 0.528817 0 0 0 0 0.691667 0 0 0 0.25 0"/>
<feBlend mode="normal" in2="shape" result="effect3_innerShadow_50_1172"/>
<feColorMatrix in="SourceAlpha" type="matrix" values="0 0 0 0 0 0 0 0 0 0 0 0 0 0 0 0 0 0 127 0" result="hardAlpha"/>
<feOffset dx="6" dy="6"/>
<feGaussianBlur stdDeviation="6"/>
<feComposite in2="hardAlpha" operator="arithmetic" k2="-1" k3="1"/>
<feColorMatrix type="matrix" values="0 0 0 0 0.47451 0 0 0 0 0.529412 0 0 0 0 0.690196 0 0 0 0.08 0"/>
<feBlend mode="normal" in2="effect3_innerShadow_50_1172" result="effect4_innerShadow_50_1172"/>
</filter>
<linearGradient id="paint0_linear_50_1172" x1="311" y1="482" x2="311" y2="160" gradientUnits="userSpaceOnUse">
<stop stop-color="#DAE9FB"/>
<stop offset="1" stop-color="#DAE9FB" stop-opacity="0"/>
</linearGradient>
<clipPath id="clip0_50_1172">
<rect x="43" y="535" width="375" height="536" rx="24" transform="rotate(-90 43 535)" fill="white"/>
</clipPath>
<clipPath id="clip1_50_1172">
<rect width="12" height="12" fill="white" transform="translate(544 177)"/>
</clipPath>
</defs>
</svg>
