<svg xmlns="http://www.w3.org/2000/svg" width="694" height="290" viewBox="0 0 694 290" fill="none">
  <script xmlns="" />
  <path
    d="M122.8 286V232.4H0V194.8L131.6 4H174V190H213.6V232.4H174V286H122.8ZM122.8 190V65.2H134.4L40 203.6V190H122.8Z"
    fill="#0A2E57" />
  <path
    d="M343.044 290C320.91 290 302.11 284.4 286.644 273.2C271.444 261.733 259.844 245.2 251.844 223.6C244.11 202 240.244 175.6 240.244 144.4C240.244 112.933 244.11 86.5333 251.844 65.2C259.844 43.6 271.444 27.3333 286.644 16.4C302.11 5.46667 320.91 0 343.044 0C365.444 0 384.244 5.46667 399.444 16.4C414.91 27.3333 426.51 43.4667 434.244 64.8C441.977 86.1333 445.844 112.533 445.844 144C445.844 175.2 441.844 201.733 433.844 223.6C426.11 245.2 414.644 261.733 399.444 273.2C384.244 284.4 365.444 290 343.044 290ZM343.044 248C361.177 248 374.51 239.733 383.044 223.2C391.844 206.4 396.244 180 396.244 144C396.244 108.267 391.844 82.4 383.044 66.4C374.51 50.1333 361.177 42 343.044 42C325.177 42 311.844 50.1333 303.044 66.4C294.244 82.4 289.844 108.4 289.844 144.4C289.844 180.133 294.244 206.4 303.044 223.2C311.844 239.733 325.177 248 343.044 248Z"
    fill="#0A2E57" />
  <path
    d="M602.487 286V232.4H479.688V194.8L611.288 4H653.688V190H693.288V232.4H653.688V286H602.487ZM602.487 190V65.2H614.088L519.688 203.6V190H602.487Z"
    fill="#0A2E57" />
  <script xmlns="" />
</svg>