<svg xmlns="http://www.w3.org/2000/svg" width="400" height="229" viewBox="0 0 400 229" fill="none">
  <script xmlns="" />
  <path d="M0 223.339H383.483L376.775 228.366H0V223.339Z" fill="#6F8298" />
  <path d="M76.5531 131.993H43.2317V134.794H76.5531V131.993Z" fill="#4873A8" />
  <path
    d="M41.7236 213.645L44.6679 67.2893H75.1168L77.9893 213.645L80.9337 213.501L77.9175 63.1241H41.7954L38.8511 213.501L41.7236 213.645Z"
    fill="#1355A1" />
  <path
    d="M39.1383 173.716L74.1831 138.097L41.4363 103.842C41.0772 103.483 40.8618 102.908 40.8618 102.334C40.8618 101.759 41.0772 101.185 41.4363 100.826L75.9067 63.2672L76.3375 63.6981C77.7738 65.1344 77.7738 67.4324 76.4094 68.8686L44.8833 102.262L77.8456 135.727C78.5638 136.445 78.9228 137.379 78.9228 138.312C78.9228 138.958 78.7074 139.605 78.3483 140.179C78.2765 141.687 77.702 143.052 76.4812 144.344L45.386 175.942C45.3142 176.014 45.3142 176.158 45.386 176.301L79.2101 212.064C79.2819 212.136 79.2819 212.28 79.2819 212.352L76.553 217.522C76.4812 217.666 76.2657 217.666 76.1939 217.594L39.2101 178.528C38.6356 177.953 38.2765 177.019 38.3483 176.158C38.2047 175.152 38.5638 174.291 39.1383 173.716Z"
    fill="#1355A1" />
  <path
    d="M77.8456 6.67814C77.9174 6.60633 77.9174 6.60632 77.9893 6.60632H85.5297H85.6015L185.709 51.4896C186.212 51.7051 186.499 52.2078 186.499 52.7104L185.996 73.9677L185.206 73.8959L184.488 53.5722C184.488 53.0695 184.201 52.6386 183.698 52.4232L85.4578 8.68891H78.0611L39.1383 51.9205L37.4866 51.346L77.8456 6.67814Z"
    fill="#1355A1" />
  <path
    d="M86.463 2.80072C86.463 2.1544 85.8885 1.57989 85.2422 1.57989H78.4918C77.8455 1.57989 77.2709 2.1544 77.2709 2.80072V3.73429C77.2709 4.38061 77.8455 4.95512 78.4918 4.95512H85.2422C85.8885 4.95512 86.463 4.38061 86.463 3.73429V2.80072ZM77.1273 6.60682C76.481 6.60682 75.9065 6.03232 75.9065 5.386V1.22082C75.9065 0.574504 76.481 0 77.1273 0H86.6067C87.253 0 87.8275 0.574504 87.8275 1.22082V5.386C87.8275 6.03232 87.253 6.60682 86.6067 6.60682H77.1273Z"
    fill="#1355A1" />
  <path
    d="M41.7236 213.645L44.6679 67.2893H75.1168L77.9893 213.645L80.9337 213.501L77.9175 63.1241H41.7954L38.8511 213.501L41.7236 213.645Z"
    fill="#1355A1" />
  <path
    d="M37.5583 63.4119H158.492C159.21 63.4119 159.856 62.8374 159.856 62.0475V53.9326C159.856 53.2144 159.282 52.5681 158.492 52.5681H37.5583C36.8402 52.5681 36.1938 53.1426 36.1938 53.9326V62.0475C36.1938 62.7656 36.8402 63.4119 37.5583 63.4119Z"
    fill="#1355A1" />
  <path
    d="M67.8858 58.8868C67.5203 58.8868 67.2279 58.6526 67.0086 58.1841C66.7893 57.7937 66.7162 57.1691 66.8624 56.7006L77.1687 9.07064C77.3149 8.36791 77.7535 7.89941 78.1921 7.89941H85.6477C86.0863 7.89941 86.5248 8.36791 86.671 9.07064L96.9042 56.7006C96.9773 57.1691 96.9773 57.7156 96.758 58.1841C96.5388 58.5745 96.2464 58.8868 95.8809 58.8868H67.8858ZM84.9168 11.335H78.9961L69.4207 55.6074H94.4921L84.9168 11.335Z"
    fill="#1355A1" />
  <path
    d="M185.796 88.8333C186.945 88.8333 187.878 87.9715 187.878 86.8943H187.088C187.088 87.5406 186.514 88.1151 185.867 88.1151C185.149 88.1151 184.647 87.6125 184.647 86.8943C184.647 86.248 185.221 85.6735 185.867 85.6735H186.298V80.0002H185.508V84.9554C184.575 85.099 183.857 85.8889 183.857 86.8943C183.713 87.9715 184.647 88.8333 185.796 88.8333Z"
    fill="#1355A1" />
  <path
    d="M181.328 76.0505C181.328 78.4203 183.267 80.3593 185.637 80.3593C188.007 80.3593 189.946 78.4203 189.946 76.0505C189.946 73.6807 188.007 71.7417 185.637 71.7417C183.267 71.7417 181.328 73.6807 181.328 76.0505Z"
    fill="#1355A1" />
  <path
    d="M33.1779 223.196C33.1779 223.196 33.2497 223.196 33.1779 223.196H86.4633V209.982C86.4633 208.618 85.3861 207.54 84.0217 207.54H35.6195C34.2551 207.54 33.1779 208.618 33.1779 209.982V223.196Z"
    fill="#1355A1" />
  <path
    d="M76.6248 75.3327L190.736 69.3004C191.526 69.2286 192.101 68.6541 192.101 68.0077V59.0311C192.101 58.313 191.454 57.6666 190.664 57.6666H76.553C75.763 57.6666 75.1167 58.2411 75.1167 59.0311V74.1119C75.1167 74.7582 75.763 75.4045 76.6248 75.3327Z"
    fill="#B5D4F6" />
  <path
    d="M84.4526 200.503V207.469H35.3323V200.503C35.3323 199.856 35.9068 199.282 36.5531 199.282H83.2317C83.878 199.282 84.4526 199.856 84.4526 200.503Z"
    fill="#B5D4F6" />
  <path
    d="M144.721 219.726L138.356 188.151H135.927L129.645 219.726L124.955 222.574V223.411H149.244V222.574L144.721 219.726Z"
    fill="#E0A18C" />
  <path d="M138.356 188.151H135.927L129.562 219.642H144.637L138.356 188.151Z" fill="#CC6340" />
  <path d="M142.627 209.424L141.203 202.137H133.079L131.656 209.424H142.627Z" fill="#EBC1B3" />
  <path
    d="M117.704 221.014L113.564 200.475H111.984L107.898 221.014L104.847 222.866V223.411H120.646V222.866L117.704 221.014Z"
    fill="#E0A18C" />
  <path d="M113.564 200.475H111.984L107.844 220.96H117.65L113.564 200.475Z" fill="#CC6340" />
  <path d="M116.343 214.313L115.416 209.573H110.132L109.206 214.313H116.343Z" fill="#EBC1B3" />
  <path
    d="M164.524 221.185V174.722H162.442V221.185L159.713 222.263V223.053H163.232H163.734H167.181V222.263L164.524 221.185Z"
    fill="#1E9263" />
  <path
    d="M203.375 221.185V174.722H201.292V221.185L198.635 222.263V223.053H202.082H202.585H206.104V222.263L203.375 221.185Z"
    fill="#1E9263" />
  <path opacity="0.5"
    d="M167.181 222.263V223.053H159.713V222.263L162.442 221.185V174.722H164.524V221.185L167.181 222.263Z"
    fill="#1E9263" />
  <path opacity="0.5"
    d="M206.104 222.263V223.053H198.635V222.263L201.292 221.185V174.722H203.375V221.185L206.104 222.263Z"
    fill="#1E9263" />
  <path opacity="0.2" d="M162.442 174.722H164.524V179.175L162.442 178.959V174.722Z" fill="#1E9263" />
  <path opacity="0.2" d="M203.375 174.722V183.555L201.292 183.268V174.722H203.375Z" fill="#1E9263" />
  <path d="M209.767 132.136H156.05V177.522H209.767V132.136Z" fill="#26B67F" />
  <path d="M209.839 171.921H155.979V177.523H209.839V171.921Z" fill="#59B280" />
  <path d="M209.838 132.136H155.978V137.738H209.838V132.136Z" fill="#59B280" />
  <path d="M161.436 132.136L157.415 137.738H156.05V135.727L158.564 132.136H161.436Z" fill="#CFF5E6" />
  <path d="M162.944 137.738H160.072L164.093 132.136H166.966L162.944 137.738Z" fill="#CFF5E6" />
  <path d="M168.474 137.738H165.601L169.623 132.136H172.496L168.474 137.738Z" fill="#CFF5E6" />
  <path d="M174.003 137.738H171.203L175.152 132.136H178.025L174.003 137.738Z" fill="#CFF5E6" />
  <path d="M179.605 137.738H176.733L180.682 132.136H183.555L179.605 137.738Z" fill="#CFF5E6" />
  <path d="M185.135 137.738H182.262L186.212 132.136H189.084L185.135 137.738Z" fill="#CFF5E6" />
  <path d="M190.664 137.738H187.792L191.741 132.136H194.614L190.664 137.738Z" fill="#CFF5E6" />
  <path d="M196.194 137.738H193.321L197.271 132.136H200.143L196.194 137.738Z" fill="#CFF5E6" />
  <path d="M201.724 137.738H198.851L202.873 132.136H205.673L201.724 137.738Z" fill="#CFF5E6" />
  <path d="M209.767 132.136V134.219L207.253 137.738H204.381L208.402 132.136H209.767Z" fill="#CFF5E6" />
  <path d="M161.221 171.634L157.199 177.235H155.835V175.224L158.348 171.634H161.221Z" fill="#CFF5E6" />
  <path d="M162.729 177.235H159.856L163.878 171.634H166.751L162.729 177.235Z" fill="#CFF5E6" />
  <path d="M168.259 177.235H165.386L169.408 171.634H172.28L168.259 177.235Z" fill="#CFF5E6" />
  <path d="M173.788 177.235H170.988L174.937 171.634H177.81L173.788 177.235Z" fill="#CFF5E6" />
  <path d="M179.39 177.235H176.517L180.467 171.634H183.339L179.39 177.235Z" fill="#CFF5E6" />
  <path d="M184.919 177.235H182.047L185.996 171.634H188.869L184.919 177.235Z" fill="#CFF5E6" />
  <path d="M190.449 177.235H187.576L191.526 171.634H194.399L190.449 177.235Z" fill="#CFF5E6" />
  <path d="M195.978 177.235H193.106L197.056 171.634H199.928L195.978 177.235Z" fill="#CFF5E6" />
  <path d="M201.508 177.235H198.636L202.657 171.634H205.458L201.508 177.235Z" fill="#CFF5E6" />
  <path d="M209.551 171.634V173.716L207.038 177.235H204.165L208.187 171.634H209.551Z" fill="#CFF5E6" />
  <path
    d="M181.692 143.196L182.554 156.554C182.626 157.631 183.487 158.492 184.565 158.564C185.714 158.636 186.719 157.774 186.863 156.625L188.371 143.196C188.514 142.191 187.653 141.329 186.647 141.329L183.416 141.401C182.41 141.401 181.62 142.263 181.692 143.196Z"
    fill="#E7FAF2" />
  <path
    d="M188.155 166.105C187.581 167.829 185.714 168.762 184.062 168.188C182.338 167.613 181.405 165.746 181.979 164.094C182.554 162.371 184.421 161.437 186.073 162.012C187.796 162.586 188.73 164.381 188.155 166.105Z"
    fill="#E7FAF2" />
  <path d="M335.727 176.924H361.652L356.984 85.4784H340.395L335.727 176.924Z" fill="#0A2E57" />
  <path d="M337.222 87.3446H360.13V76.8403H337.222V87.3446Z" fill="#459ED9" />
  <path
    d="M307.72 228.366V147.281C297.522 147.281 215.44 165.628 215.44 182.248C215.44 195.486 222.621 212.754 234.829 228.366H307.72Z"
    fill="#0A2E57" />
  <path
    d="M307.72 228.366V147.281C317.917 147.281 400 165.628 400 182.248C400 195.486 392.819 212.754 380.61 228.366H307.72Z"
    fill="#0A2E57" />
  <path
    d="M307.72 154.187V147.208C297.522 147.208 215.44 165.555 215.44 182.175C215.44 182.822 215.44 183.47 215.512 184.117C228.653 169.728 293.644 155.41 307.72 154.187Z"
    fill="#459ED9" />
  <path
    d="M307.72 154.187V147.208C317.917 147.208 400 165.555 400 182.175C400 182.822 400 183.47 399.928 184.117C386.786 169.728 321.795 155.41 307.72 154.187Z"
    fill="#459ED9" />
  <script xmlns="" />
</svg>