<?xml version="1.0" encoding="utf-8"?>
<!-- Generator: Adobe Illustrator 22.1.0, SVG Export Plug-In . SVG Version: 6.00 Build 0)  -->
<svg version="1.1" id="Layer_1" xmlns="http://www.w3.org/2000/svg" xmlns:xlink="http://www.w3.org/1999/xlink" x="0px" y="0px"
	 viewBox="0 0 227.1 158.3" style="enable-background:new 0 0 227.1 158.3;" xml:space="preserve">
<style type="text/css">
	.st0{fill:#7770AB;}
	.st1{fill:none;stroke:#73C69C;stroke-width:2;stroke-linecap:round;stroke-miterlimit:10;}
	.st2{fill:none;stroke:#F04E37;stroke-width:3;stroke-linecap:round;stroke-miterlimit:10;}
	.st3{fill:#F47A5C;}
	.st4{fill:#322D59;}
</style>
<title>Website_LP</title>
<rect x="2.6" y="143.4" class="st0" width="222.2" height="3.8"/>
<line class="st1" x1="4.5" y1="108.5" x2="4.5" y2="116.4"/>
<line class="st1" x1="10.6" y1="108.5" x2="10.6" y2="116.4"/>
<line class="st1" x1="16.7" y1="108.5" x2="16.7" y2="116.4"/>
<line class="st1" x1="22.8" y1="107.3" x2="22.8" y2="116.4"/>
<line class="st1" x1="28.9" y1="105" x2="28.9" y2="116.4"/>
<line class="st1" x1="35" y1="102.6" x2="35" y2="116.4"/>
<line class="st1" x1="41.1" y1="97.9" x2="41.1" y2="116.4"/>
<line class="st1" x1="47.2" y1="91.9" x2="47.2" y2="116.4"/>
<line class="st1" x1="53.3" y1="83.6" x2="53.3" y2="116.4"/>
<line class="st1" x1="173.5" y1="83" x2="173.5" y2="116.4"/>
<line class="st1" x1="179.6" y1="91.9" x2="179.6" y2="116.4"/>
<line class="st1" x1="185.7" y1="98.4" x2="185.7" y2="116.4"/>
<line class="st1" x1="191.8" y1="102" x2="191.8" y2="116.4"/>
<line class="st1" x1="197.9" y1="105" x2="197.9" y2="116.4"/>
<line class="st1" x1="204" y1="106.7" x2="204" y2="116.4"/>
<line class="st1" x1="210.1" y1="108.5" x2="210.1" y2="116.4"/>
<line class="st1" x1="216.2" y1="108.5" x2="216.2" y2="116.4"/>
<line class="st1" x1="222.3" y1="108.5" x2="222.3" y2="116.4"/>
<line class="st1" x1="70.2" y1="83.6" x2="70.2" y2="116.4"/>
<line class="st1" x1="76.4" y1="91.9" x2="76.4" y2="116.4"/>
<line class="st1" x1="82.6" y1="97.9" x2="82.6" y2="116.4"/>
<line class="st1" x1="88.8" y1="101.4" x2="88.8" y2="116.4"/>
<line class="st1" x1="95" y1="105" x2="95" y2="116.4"/>
<line class="st1" x1="101.2" y1="107.3" x2="101.2" y2="116.4"/>
<line class="st1" x1="107.4" y1="108.5" x2="107.4" y2="116.4"/>
<line class="st1" x1="113.6" y1="108.5" x2="113.6" y2="116.4"/>
<line class="st1" x1="119.8" y1="108.5" x2="119.8" y2="116.4"/>
<line class="st1" x1="126.1" y1="107.3" x2="126.1" y2="116.4"/>
<line class="st1" x1="132.3" y1="105" x2="132.3" y2="116.4"/>
<line class="st1" x1="138.5" y1="101.4" x2="138.5" y2="116.4"/>
<line class="st1" x1="144.7" y1="97.9" x2="144.7" y2="116.4"/>
<line class="st1" x1="150.9" y1="91.9" x2="150.9" y2="116.4"/>
<line class="st1" x1="157.1" y1="83.6" x2="157.1" y2="116.4"/>
<path class="st2" d="M2,107.3c0,0,26.3,5.1,42.2-12.4c0,0,16.5-18.4,16.1-36.4h3c0,0,0.1,21.4,16.2,36.3c0,0,8.5,10.8,30.6,13.3
	c0,0,46.3,4.4,53.5-48.6l3.3-0.2c0,0,0,51.1,56.9,48.9"/>
<rect x="2" y="115.3" class="st3" width="222.8" height="7.9"/>
<rect x="158.6" y="140.8" class="st4" width="12.4" height="6"/>
<rect x="161.8" y="56.4" class="st3" width="6" height="86"/>
<rect x="163.6" y="54.2" class="st3" width="2.5" height="3.7"/>
<rect x="55.8" y="140.8" class="st4" width="12.4" height="6"/>
<rect x="59" y="56.4" class="st3" width="6" height="86"/>
<rect x="60.7" y="54.2" class="st3" width="2.5" height="3.7"/>
</svg>
