<svg id="Layer_1" data-name="Layer 1" xmlns="http://www.w3.org/2000/svg" viewBox="0 0 47.16 43.81"><defs><style>.cls-1{fill:#73c69c;}.cls-2{fill:#fff;}</style></defs><title>Website_LP</title><rect class="cls-1" x="8.92" y="7.24" width="29.33" height="29.33" rx="1.5" ry="1.5"/><path class="cls-2" d="M26.36,20.07a5.79,5.79,0,0,1,2.05-.83,5.25,5.25,0,0,1,5.73,3.26,5.19,5.19,0,0,1-2.87,6.65,5,5,0,0,1-4.62-.34c-.25-.14-.3-.1-.27.16s-.08.22-.24.22c-.55,0-1.1,0-1.65,0-.2,0-.24-.07-.24-.26,0-1.17,0-2.33,0-3.5q0-5.43,0-10.85c0-.26.06-.34.32-.32.5,0,1,0,1.5,0,.24,0,.31.06.31.31,0,1.71,0,3.41,0,5.12C26.36,19.79,26.36,19.9,26.36,20.07Zm3,1.3a3,3,0,1,0,2.95,3A3,3,0,0,0,29.33,21.37Z"/><path class="cls-2" d="M21.75,23.16c-.26,0-.53,0-.79,0a.44.44,0,0,1-.48-.27,2.91,2.91,0,0,0-3-1.49A2.87,2.87,0,0,0,15,23.53,3,3,0,0,0,20.38,26a.6.6,0,0,1,.62-.34c.52,0,1,0,1.56,0,.35,0,.36,0,.25.34a5.19,5.19,0,0,1-8.2,2.42,5.19,5.19,0,1,1,8.16-5.75c.19.52.19.52-.35.52Z"/></svg>