<svg width="261" height="87" viewBox="0 0 261 87" fill="none" xmlns="http://www.w3.org/2000/svg">
<path d="M1.32322e-05 43.3983C1.32322e-05 33.6712 1.32322e-05 23.9441 1.32322e-05 14.217C1.32322e-05 11.8272 1.16189 10.6323 3.48565 10.6323C11.7867 10.6323 20.0878 10.4511 28.3687 10.6726C40.2562 11.015 49.746 16.0296 56.1531 26.1997C59.7596 31.9191 61.0491 38.2629 60.767 45.0296C60.4447 52.5615 58.0672 59.2275 53.151 64.9066C47.4894 71.4719 40.1957 75.0365 31.6327 76.1441C29.5776 76.4059 27.5426 76.4865 25.4674 76.4865C17.9722 76.4865 10.4972 76.4865 3.0021 76.4865C0.26194 76.4865 -0.0402832 76.2046 -0.0402832 73.5261C-0.0402832 63.4969 -0.0402832 53.4476 -0.0402832 43.4184L1.32322e-05 43.3983ZM10.9606 43.4184C10.9606 50.0844 10.9606 56.7504 10.9606 63.4164C10.9606 65.7927 11.4039 66.2559 13.8015 66.2559C18.2946 66.2559 22.7675 66.2761 27.2606 66.2559C30.4641 66.2358 33.5468 65.6518 36.5287 64.383C44.447 60.9997 50.7937 52.2796 49.5646 40.7802C48.4968 30.7712 40.5181 22.3129 30.585 21.1045C24.9234 20.4198 19.2617 20.9032 13.5799 20.8025C11.4241 20.7622 10.9606 21.2657 10.9606 23.4407C10.9606 30.1066 10.9606 36.7726 10.9606 43.4386V43.4184Z" fill="white"/>
<path d="M67.8592 43.5762C67.8592 33.6075 67.8592 23.6186 67.8592 13.6498C67.8592 10.8304 68.0809 10.6089 70.9822 10.6089C79.4646 10.6089 87.947 10.5484 96.4294 10.6693C101.144 10.7297 105.698 11.7769 109.868 14.0727C115.53 17.1943 118.875 21.9873 119.862 28.3714C120.909 35.0373 120.204 41.4012 116.255 47.1207C114.482 49.6783 112.185 51.6318 109.465 53.1422C107.551 54.2095 107.43 54.854 108.659 56.6464C112.387 62.0839 116.114 67.5415 119.842 72.979C120.365 73.7443 120.97 74.5095 120.426 75.5366C119.882 76.5637 118.915 76.463 117.968 76.463C115.792 76.463 113.596 76.3825 111.42 76.5033C109.989 76.5839 109.123 76.0602 108.377 74.8519C104.892 69.2533 101.325 63.695 97.8398 58.0964C97.2152 57.0894 96.5301 56.6061 95.3011 56.6262C90.6872 56.6866 86.0732 56.6665 81.4593 56.6866C79.3236 56.6866 78.8601 57.1498 78.8601 59.345C78.8601 64.0776 78.8601 68.8102 78.8601 73.563C78.8601 76.1609 78.5176 76.5033 75.979 76.4832C74.2865 76.4832 72.6142 76.4832 70.9218 76.4832C68.2823 76.4832 67.8592 76.1005 67.8592 73.5026C67.8592 63.5339 67.8592 53.545 67.8592 43.5762ZM78.8601 33.4665C78.8601 36.9505 78.8601 40.4345 78.8601 43.9186C78.8601 45.3082 79.2027 46.5165 80.8548 46.4762C87.1814 46.2748 93.5683 47.1005 99.8546 45.8116C102.776 45.2075 105.456 43.9991 107.249 41.4818C110.291 37.2123 110.432 32.4998 108.579 27.8276C106.786 23.3366 102.776 21.7054 98.3435 21.1012C92.7624 20.3359 87.1411 20.8797 81.56 20.7589C79.384 20.7186 78.8803 21.2825 78.8803 23.5582C78.8803 26.8609 78.8803 30.1637 78.8803 33.4464L78.8601 33.4665Z" fill="white"/>
<path d="M232.893 3.70208C232.369 5.85694 231.846 8.09236 231.302 10.3278C228.42 21.7868 225.519 33.2257 222.678 44.6847C219.313 58.1979 216.009 71.7111 212.705 85.2444C212.382 86.5535 211.617 87.2382 210.287 86.9361C207.93 86.4125 205.572 85.8285 203.235 85.184C201.784 84.7812 201.825 83.7139 202.127 82.4854C203.981 74.9937 205.774 67.5021 207.627 60.0104C210.307 49.216 213.047 38.4215 215.747 27.6271C217.842 19.2493 219.938 10.8715 222.033 2.49375C222.678 -0.0437509 223.202 -0.365973 225.7 0.258332C227.574 0.721527 229.448 1.20486 231.322 1.66805C232.369 1.90972 232.974 2.49375 232.934 3.70208H232.893Z" fill="#27B57C"/>
<path d="M260.96 35.1351C261.02 40.7337 261.181 40.1496 255.903 40.1899C252.377 40.1899 248.931 40.6128 245.828 42.4253C241.376 45.0233 239.462 49.917 240.489 55.8983C241.456 61.5573 245.647 64.9607 252.457 65.6455C254.512 65.8469 256.547 65.9476 258.623 65.8469C260.255 65.7663 261.04 66.4712 260.98 68.183C260.899 70.1163 260.94 72.0496 260.98 73.983C260.98 75.151 260.537 75.9767 259.308 76.017C252.78 76.2385 246.332 75.9364 240.409 72.7746C233.316 68.9885 230.052 62.7857 229.69 54.9719C229.347 47.3594 231.201 40.492 237.406 35.4573C241.557 32.0739 246.473 30.6239 251.732 30.2212C254.029 30.0399 256.346 30.1608 258.643 30.0601C260.436 29.9795 261.141 30.8052 261 32.5371C260.94 33.4031 261 34.2892 261 35.1552L260.96 35.1351Z" fill="white"/>
<path d="M205.089 33.265C205.048 40.8171 202.752 47.3622 196.385 51.9539C191.831 55.2365 186.552 56.324 181.072 56.6462C179.339 56.7469 177.586 56.6865 175.833 56.6865C174.484 56.6865 173.738 56.0421 173.758 54.6323C173.758 52.5782 173.758 50.524 173.758 48.4698C173.758 47.0601 174.484 46.4761 175.874 46.5164C179.359 46.6171 182.865 46.5365 186.23 45.4289C192.033 43.4955 194.612 39.4476 194.43 32.5601C194.289 27.0219 191.247 23.256 185.666 21.665C182.623 20.799 179.521 20.7789 176.398 20.799C174.141 20.799 173.778 20.4365 173.758 18.2011C173.758 16.3282 173.758 14.4553 173.758 12.6025C173.758 11.515 174.222 10.7296 175.35 10.6893C181.233 10.4476 187.076 10.6289 192.597 13.0254C200.797 16.5698 205.169 23.699 205.109 33.2851L205.089 33.265Z" fill="white"/>
<path d="M143.677 43.5755C143.677 53.5443 143.677 63.513 143.677 73.5019C143.677 76.12 143.314 76.4623 140.635 76.4825C138.821 76.4825 137.008 76.4825 135.215 76.4825C133.18 76.4825 132.676 75.9991 132.676 73.9651C132.676 66.7352 132.676 59.5054 132.676 52.2755C132.676 39.3665 132.676 26.4776 132.676 13.5686C132.676 10.8901 132.898 10.6484 135.517 10.6484C137.27 10.6484 139.003 10.6484 140.755 10.6484C143.455 10.6484 143.697 10.8901 143.697 13.6894C143.697 23.6582 143.697 33.6269 143.697 43.6158L143.677 43.5755Z" fill="white"/>
<path d="M156.531 43.5547C156.531 33.4651 156.531 23.3755 156.531 13.2859C156.531 10.8692 156.814 10.6276 159.231 10.6276C161.166 10.6276 163.1 10.688 165.034 10.6074C166.827 10.5269 167.472 11.272 167.452 13.0241C167.412 21.4422 167.452 29.8401 167.452 38.2581C167.452 50.0394 167.452 61.8005 167.452 73.5817C167.452 76.1394 167.109 76.4616 164.53 76.4616C162.717 76.4616 160.924 76.4616 159.11 76.4616C156.854 76.4616 156.531 76.1394 156.531 73.8234C156.531 63.7338 156.531 53.6442 156.531 43.5547Z" fill="white"/>
</svg>
