<?xml version="1.0" encoding="utf-8"?>
<!-- Generator: Adobe Illustrator 18.0.0, SVG Export Plug-In . SVG Version: 6.00 Build 0)  -->
<!DOCTYPE svg PUBLIC "-//W3C//DTD SVG 1.1//EN" "http://www.w3.org/Graphics/SVG/1.1/DTD/svg11.dtd">
<svg version="1.1" id="Layer_1" xmlns="http://www.w3.org/2000/svg" xmlns:xlink="http://www.w3.org/1999/xlink" x="0px" y="0px"
	 viewBox="0 0 326.3 182.9" enable-background="new 0 0 326.3 182.9" xml:space="preserve">
<g>
	<path fill="#322D59" d="M193.3,137.2c-0.2-0.2-0.4-0.3-0.7-0.5c-0.2-0.1-0.5-0.2-0.8-0.3c-0.3-0.1-0.5-0.2-0.8-0.3
		c-0.2-0.1-0.5-0.2-0.7-0.3c-0.2-0.1-0.3-0.2-0.4-0.3c-0.1-0.1-0.1-0.3-0.1-0.4c0-0.2,0-0.3,0.1-0.4c0.1-0.1,0.1-0.2,0.2-0.3
		c0.1-0.1,0.2-0.2,0.4-0.2c0.2-0.1,0.4-0.1,0.6-0.1c0.2,0,0.5,0,0.6,0.1c0.2,0.1,0.3,0.1,0.5,0.2c0.1,0.1,0.3,0.2,0.4,0.2
		c0.2,0.2,0.5,0.1,0.6,0c0.1-0.1,0.2-0.1,0.2-0.2l0.5-0.9l-0.1-0.1c-0.3-0.3-0.7-0.6-1.2-0.7c-0.5-0.2-1-0.3-1.5-0.3
		c-0.5,0-0.9,0.1-1.3,0.2c-0.4,0.2-0.7,0.4-1,0.6c-0.3,0.3-0.5,0.5-0.6,0.9s-0.2,0.7-0.2,1c0,0.4,0.1,0.8,0.2,1.1
		c0.1,0.3,0.3,0.6,0.5,0.8c0.2,0.2,0.4,0.4,0.7,0.5c0.3,0.1,0.5,0.2,0.8,0.3c0.3,0.1,0.5,0.2,0.8,0.2c0.2,0.1,0.5,0.2,0.6,0.2
		c0.2,0.1,0.3,0.2,0.4,0.3c0.1,0.1,0.2,0.3,0.2,0.5c0,0.4-0.1,0.7-0.4,0.9c-0.2,0.2-0.6,0.3-1,0.3c-0.3,0-0.6,0-0.8-0.1
		c-0.2-0.1-0.4-0.2-0.6-0.3c-0.2-0.1-0.3-0.2-0.4-0.3c-0.3-0.2-0.5-0.2-0.7-0.1c-0.1,0-0.1,0.1-0.2,0.2l-0.5,0.9l0.1,0.1
		c0.2,0.2,0.4,0.4,0.6,0.5c0.2,0.1,0.5,0.3,0.7,0.4c0.3,0.1,0.5,0.2,0.8,0.2c0.3,0.1,0.6,0.1,0.9,0.1c0.5,0,1-0.1,1.4-0.2
		c0.4-0.2,0.8-0.4,1-0.7c0.3-0.3,0.5-0.6,0.6-1c0.1-0.4,0.2-0.8,0.2-1.2c0-0.4-0.1-0.7-0.2-1C193.6,137.6,193.5,137.4,193.3,137.2"
		/>
	<rect x="198.5" y="132.6" fill="#322D59" width="2" height="9.3"/>
	<path fill="#322D59" d="M214,132.6c-0.1,0-0.1,0-0.2,0c-0.1,0-0.1,0.1-0.2,0.1c0,0-0.1,0.1-0.1,0.2l-2.7,5
		c-0.1,0.1-0.1,0.3-0.2,0.4c0,0,0,0.1-0.1,0.1c0,0,0-0.1-0.1-0.1c-0.1-0.1-0.1-0.3-0.2-0.4l-2.7-5c0-0.1-0.1-0.1-0.1-0.2
		c-0.1-0.1-0.1-0.1-0.2-0.1c-0.1,0-0.1,0-0.2,0c-0.1,0-0.1,0-0.2,0h-1.4v9.3h1.7v-6c0-0.1,0-0.1,0-0.2l2.5,4.6
		c0.1,0.1,0.2,0.2,0.3,0.3c0.1,0.1,0.3,0.1,0.4,0.1h0.2c0.2,0,0.3,0,0.4-0.1c0.1-0.1,0.2-0.2,0.3-0.3l2.5-4.6c0,0.1,0,0.1,0,0.2v6
		h1.7v-9.3h-1.4C214.2,132.6,214.1,132.6,214,132.6"/>
	<path fill="#322D59" d="M226.4,133.4c-0.3-0.3-0.7-0.5-1.1-0.6c-0.5-0.1-1-0.2-1.6-0.2h-3.1v9.3h1.9v-3.2h1.1
		c0.6,0,1.1-0.1,1.6-0.2c0.5-0.2,0.8-0.4,1.1-0.6c0.3-0.3,0.5-0.6,0.7-1c0.2-0.4,0.2-0.8,0.2-1.3c0-0.4-0.1-0.8-0.2-1.2
		C227,134,226.7,133.7,226.4,133.4 M224.4,137c-0.2,0.1-0.5,0.1-0.8,0.1h-1.1v-3h1.1c0.3,0,0.6,0,0.8,0.1c0.2,0.1,0.4,0.2,0.5,0.3
		c0.1,0.1,0.2,0.3,0.3,0.5c0.1,0.2,0.1,0.4,0.1,0.6c0,0.2,0,0.5-0.1,0.6c-0.1,0.2-0.2,0.3-0.3,0.5
		C224.8,136.8,224.7,136.9,224.4,137"/>
	<polygon fill="#322D59" points="233.6,132.6 231.7,132.6 231.7,141.9 237.3,141.9 237.3,140.2 233.6,140.2 	"/>
	<rect x="241.7" y="132.6" fill="#322D59" width="2" height="9.3"/>
	<polygon fill="#322D59" points="248.7,141.9 250.7,141.9 250.7,138.2 254.1,138.2 254.1,136.6 250.7,136.6 250.7,134.2 
		254.7,134.2 254.7,132.6 248.7,132.6 	"/>
	<rect x="259.3" y="132.6" fill="#322D59" width="2" height="9.3"/>
	<polygon fill="#322D59" points="266.4,141.9 272.3,141.9 272.3,140.3 268.3,140.3 268.3,138 271.5,138 271.5,136.4 268.3,136.4 
		268.3,134.2 272.3,134.2 272.3,132.6 266.4,132.6 	"/>
	<path fill="#322D59" d="M283.9,133.9c-0.4-0.4-0.9-0.7-1.5-1c-0.6-0.2-1.2-0.3-1.9-0.3h-3.6v9.3h3.6c0.7,0,1.3-0.1,1.9-0.3
		c0.6-0.2,1.1-0.6,1.5-1c0.4-0.4,0.7-0.9,1-1.5c0.2-0.6,0.3-1.2,0.3-1.9c0-0.7-0.1-1.3-0.3-1.9C284.6,134.8,284.3,134.3,283.9,133.9
		 M280.4,140.3h-1.6v-6.1h1.6c0.4,0,0.8,0.1,1.1,0.2c0.3,0.1,0.6,0.3,0.9,0.6c0.2,0.3,0.4,0.6,0.5,1c0.1,0.4,0.2,0.8,0.2,1.3
		c0,0.5-0.1,0.9-0.2,1.3c-0.1,0.4-0.3,0.7-0.5,1c-0.2,0.3-0.5,0.5-0.9,0.6C281.3,140.2,280.9,140.3,280.4,140.3"/>
	<polygon fill="#322D59" points="41.3,134.2 44,134.2 44,141.9 46,141.9 46,134.2 48.7,134.2 48.7,132.6 41.3,132.6 	"/>
	<path fill="#322D59" d="M57.5,137.9c0.2-0.1,0.4-0.2,0.6-0.3c0.3-0.2,0.5-0.4,0.7-0.6c0.2-0.2,0.3-0.5,0.4-0.8
		c0.1-0.3,0.1-0.6,0.1-0.9c0-0.4-0.1-0.8-0.2-1.1c-0.1-0.3-0.4-0.6-0.7-0.9c-0.3-0.2-0.7-0.4-1.1-0.6c-0.4-0.1-1-0.2-1.6-0.2h-2.9
		v9.3h1.9v-3.5h0.6c0.2,0,0.3,0,0.3,0.1c0.1,0,0.1,0.1,0.2,0.2l1.9,2.9c0.1,0.1,0.2,0.2,0.3,0.3c0.1,0.1,0.3,0.1,0.4,0.1h1.8
		l-2.4-3.6C57.8,138.2,57.7,138,57.5,137.9 M54.8,134.1h0.9c0.6,0,1,0.1,1.3,0.3c0.3,0.2,0.4,0.5,0.4,1c0,0.2,0,0.4-0.1,0.6
		c-0.1,0.2-0.2,0.3-0.3,0.4c-0.1,0.1-0.3,0.2-0.5,0.3c-0.2,0.1-0.5,0.1-0.8,0.1h-0.9V134.1z"/>
	<path fill="#322D59" d="M69,132.6h-1.9l-3.7,9.3h1.5c0.2,0,0.3-0.1,0.4-0.1c0.1-0.1,0.2-0.2,0.2-0.3l0.6-1.8h3.6l0.6,1.8
		c0.1,0.1,0.1,0.2,0.2,0.3c0.1,0.1,0.3,0.1,0.4,0.1h1.5L69,132.6L69,132.6z M68,134.9c0-0.1,0-0.1,0-0.2c0,0.1,0,0.1,0.1,0.2
		c0.1,0.2,0.1,0.3,0.2,0.5l1,2.8h-2.5l1-2.8C67.9,135.2,67.9,135.1,68,134.9"/>
	<path fill="#322D59" d="M83.6,133.9c-0.4-0.4-0.9-0.7-1.5-1c-0.6-0.2-1.2-0.3-1.9-0.3h-3.6v9.3h3.6c0.7,0,1.3-0.1,1.9-0.3
		c0.6-0.2,1.1-0.6,1.5-1c0.4-0.4,0.7-0.9,1-1.5c0.2-0.6,0.3-1.2,0.3-1.9c0-0.7-0.1-1.3-0.3-1.9C84.3,134.8,84,134.3,83.6,133.9
		 M80.2,140.3h-1.6v-6.1h1.6c0.4,0,0.8,0.1,1.1,0.2c0.3,0.1,0.6,0.3,0.9,0.6c0.2,0.3,0.4,0.6,0.5,1c0.1,0.4,0.2,0.8,0.2,1.3
		c0,0.5-0.1,0.9-0.2,1.3c-0.1,0.4-0.3,0.7-0.5,1c-0.2,0.3-0.5,0.5-0.9,0.6C81,140.2,80.6,140.3,80.2,140.3"/>
	<polygon fill="#322D59" points="89.3,141.9 95.2,141.9 95.2,140.3 91.2,140.3 91.2,138 94.4,138 94.4,136.4 91.2,136.4 91.2,134.2 
		95.2,134.2 95.2,132.6 89.3,132.6 	"/>
	<polygon fill="#322D59" points="105.5,141.9 107.5,141.9 107.5,138.2 110.8,138.2 110.8,136.6 107.5,136.6 107.5,134.2 
		111.5,134.2 111.5,132.6 105.5,132.6 	"/>
	<rect x="116.1" y="132.6" fill="#322D59" width="2" height="9.3"/>
	<path fill="#322D59" d="M129.3,138.2c0,0.1,0,0.3,0,0.4v0l-4.5-5.7c0-0.1-0.1-0.1-0.1-0.2c0,0-0.1-0.1-0.1-0.1c-0.1,0-0.1,0-0.2,0
		h0c-0.1,0-0.1,0-0.2,0h-1v9.3h1.7v-5.7c0-0.1,0-0.2,0-0.3l4.5,5.7c0.1,0.1,0.2,0.2,0.3,0.3c0.1,0,0.2,0.1,0.4,0.1h1v-9.3h-1.7
		V138.2z"/>
	<path fill="#322D59" d="M140.5,132.6h-1.9l-3.7,9.3h1.5c0.2,0,0.3-0.1,0.4-0.1c0.1-0.1,0.2-0.2,0.2-0.3l0.6-1.8h3.6l0.6,1.8
		c0.1,0.1,0.1,0.2,0.2,0.3c0.1,0.1,0.3,0.1,0.4,0.1h1.5L140.5,132.6L140.5,132.6z M139.5,134.9c0-0.1,0-0.1,0.1-0.2
		c0,0.1,0,0.1,0.1,0.2c0.1,0.2,0.1,0.3,0.2,0.5l1,2.8h-2.5l1-2.8C139.4,135.2,139.5,135.1,139.5,134.9"/>
	<path fill="#322D59" d="M154.3,138.2c0,0.1,0,0.3,0,0.4v0l-4.5-5.7c0-0.1-0.1-0.1-0.1-0.2c0,0-0.1-0.1-0.1-0.1c-0.1,0-0.1,0-0.2,0
		h0c-0.1,0-0.1,0-0.2,0h-1v9.3h1.7v-5.7c0-0.1,0-0.2,0-0.3l4.5,5.7c0.1,0.1,0.2,0.2,0.3,0.3c0.1,0,0.2,0.1,0.4,0.1h1v-9.3h-1.7
		V138.2z"/>
	<path fill="#322D59" d="M163.2,135c0.2-0.3,0.5-0.5,0.9-0.6c0.3-0.1,0.7-0.2,1.1-0.2c0.4,0,0.6,0,0.9,0.1c0.2,0.1,0.4,0.2,0.6,0.2
		c0.1,0.1,0.3,0.2,0.4,0.2c0.2,0.2,0.5,0.2,0.7,0.1c0.1,0,0.1-0.1,0.2-0.2l0.6-0.9l-0.1-0.1c-0.4-0.4-0.8-0.7-1.3-0.9
		c-0.5-0.2-1.1-0.3-1.8-0.3c-0.7,0-1.4,0.1-1.9,0.4c-0.6,0.2-1.1,0.6-1.5,1c-0.4,0.4-0.8,0.9-1,1.5c-0.2,0.6-0.3,1.2-0.3,1.9
		c0,0.7,0.1,1.3,0.3,1.9c0.2,0.6,0.5,1.1,0.9,1.5c0.4,0.4,0.9,0.8,1.4,1c0.5,0.2,1.2,0.4,1.9,0.4c0.8,0,1.4-0.1,2-0.4
		c0.6-0.2,1-0.6,1.4-1.1l0.1-0.1l-0.7-0.8c-0.1-0.2-0.4-0.2-0.5-0.1c-0.1,0-0.1,0.1-0.2,0.1c-0.1,0.1-0.3,0.2-0.4,0.3
		c-0.1,0.1-0.3,0.1-0.4,0.2c-0.1,0.1-0.3,0.1-0.5,0.1c-0.2,0-0.4,0-0.6,0c-0.4,0-0.7-0.1-1-0.2c-0.3-0.1-0.6-0.3-0.8-0.6
		c-0.2-0.3-0.4-0.6-0.6-1c-0.1-0.4-0.2-0.8-0.2-1.3c0-0.5,0.1-0.9,0.2-1.3C162.7,135.6,162.9,135.2,163.2,135"/>
	<polygon fill="#322D59" points="178.6,134.2 178.6,132.6 172.6,132.6 172.6,141.9 178.6,141.9 178.6,140.3 174.6,140.3 174.6,138 
		177.8,138 177.8,136.4 174.6,136.4 174.6,134.2 	"/>
	<path fill="#322D59" d="M82.4,54.9c-4.8-2.7-10.3-4-16.2-4H42.5c-0.9,0-1.6,0.7-1.6,1.6V111c0,0.9,0.7,1.6,1.6,1.6h23.5
		c6,0,11.5-1.3,16.3-4c4.9-2.7,8.7-6.4,11.5-11.1c2.8-4.7,4.2-10,4.2-15.8c0-5.8-1.4-11.1-4.1-15.8C91.1,61.3,87.2,57.5,82.4,54.9
		 M87.5,81.8c0,4-0.9,7.6-2.8,10.9c-1.9,3.2-4.4,5.8-7.6,7.6c-3.2,1.8-6.8,2.8-10.7,2.8H52.8c-0.9,0-1.6-0.7-1.6-1.6V62
		c0-0.9,0.7-1.6,1.6-1.6H66c4,0,7.7,0.9,10.9,2.8c3.2,1.9,5.9,4.4,7.7,7.7C86.5,74.1,87.5,77.8,87.5,81.8"/>
	<path fill="#322D59" d="M150.1,84.8c2.4-3.5,3.5-7.8,3.5-12.8c0-6.7-2.2-12-6.5-15.7c-4.3-3.6-10.4-5.5-18.2-5.5h-22.8
		c-0.9,0-1.6,0.7-1.6,1.6V111c0,0.9,0.7,1.6,1.6,1.6h7.1c0.9,0,1.6-0.7,1.6-1.6V95.6c0-0.9,0.7-1.6,1.6-1.6h12.5
		c0.5,0,1.1,0,1.8-0.1c0.6,0,1.1,0.3,1.4,0.7l10.8,17.1c0.3,0.5,0.8,0.7,1.4,0.7h8c1.3,0,2.1-1.4,1.3-2.5l-11.4-16.6
		c-0.5-0.8-0.3-1.9,0.6-2.3C145.8,89.5,148.2,87.4,150.1,84.8 M143.6,72.3c0,4.1-1.2,7-3.7,9.1c-2.5,2.1-6.2,3.1-11.1,3.1h-12.5
		c-0.9,0-1.6-0.7-1.6-1.6V62c0-0.9,0.7-1.6,1.6-1.6h12.5c4.8,0,8.6,1,11.1,3C142.4,65.4,143.6,68.3,143.6,72.3"/>
	<path fill="#322D59" d="M166.8,112.6h7.1c0.9,0,1.6-0.7,1.6-1.6V52.5c0-0.9-0.7-1.6-1.6-1.6h-7.1c-0.9,0-1.6,0.7-1.6,1.6V111
		C165.2,111.8,165.9,112.6,166.8,112.6"/>
	<path fill="#322D59" d="M189.1,112.6h7.1c0.9,0,1.6-0.7,1.6-1.6V52.5c0-0.9-0.7-1.6-1.6-1.6h-7.1c-0.9,0-1.6,0.7-1.6,1.6V111
		C187.5,111.8,188.2,112.6,189.1,112.6"/>
	<path fill="#322D59" d="M226.6,56.4c-4.2-3.7-10.3-5.5-17.9-5.5h-3.4c-0.9,0-1.6,0.7-1.6,1.6v6.3c0,0.9,0.7,1.6,1.6,1.6l3,0
		c4.8,0,8.6,1,11.1,3c2.5,2,3.7,4.9,3.7,8.8c0,4.1-1.2,7-3.7,9.1c-2.5,2.1-6.2,3.1-11.1,3.1h-3c-0.9,0-1.6,0.7-1.6,1.6v6.3
		c0,0.9,0.7,1.6,1.6,1.6h3.4c7.6,0,13.6-1.9,17.9-5.8c4.3-3.9,6.5-9.3,6.5-16.2C233.1,65.4,230.9,60.1,226.6,56.4"/>
	<path fill="#322D59" d="M269.8,81.7c2.5-2.1,6.2-3.1,11.1-3.1h3c0.9,0,1.6-0.7,1.6-1.6v-6.3c0-0.9-0.7-1.6-1.6-1.6h-3.4
		c-7.6,0-13.6,1.9-17.9,5.8c-4.3,3.9-6.5,9.3-6.5,16.2c0,6.6,2.2,11.9,6.5,15.6c4.2,3.7,10.3,5.5,17.9,5.5h3.4
		c0.9,0,1.6-0.7,1.6-1.6v-6.3c0-0.9-0.7-1.6-1.6-1.6l-3,0c-4.8,0-8.6-1-11.1-3c-2.5-2-3.7-4.9-3.7-8.8
		C266.1,86.7,267.3,83.7,269.8,81.7"/>
	<path fill="#73C69C" d="M231.2,120.8l6.8,1.7c0.8,0.2,1.7-0.3,1.9-1.2l19.1-76.8c0.2-0.9-0.3-1.7-1.2-1.9l-6.8-1.7
		c-0.8-0.2-1.7,0.3-1.9,1.2l-19.1,76.8C229.9,119.7,230.4,120.6,231.2,120.8"/>
</g>
</svg>
