<?xml version="1.0" encoding="utf-8"?>
<!-- Generator: Adobe Illustrator 18.0.0, SVG Export Plug-In . SVG Version: 6.00 Build 0)  -->
<!DOCTYPE svg PUBLIC "-//W3C//DTD SVG 1.1//EN" "http://www.w3.org/Graphics/SVG/1.1/DTD/svg11.dtd">
<svg version="1.1" id="Layer_1" xmlns="http://www.w3.org/2000/svg" xmlns:xlink="http://www.w3.org/1999/xlink" x="0px" y="0px"
	 viewBox="0 0 244.6 81.6" enable-background="new 0 0 244.6 81.6" xml:space="preserve">
<g>
	<path fill="#322D59" d="M41.5,14c-4.8-2.7-10.3-4-16.2-4H1.6C0.7,10,0,10.7,0,11.6v58.5c0,0.9,0.7,1.6,1.6,1.6h23.5
		c6,0,11.5-1.3,16.3-4c4.9-2.7,8.7-6.4,11.5-11.1c2.8-4.7,4.2-10,4.2-15.8c0-5.8-1.4-11.1-4.1-15.8C50.2,20.4,46.4,16.6,41.5,14
		 M46.6,40.9c0,4-0.9,7.6-2.8,10.9c-1.9,3.2-4.4,5.8-7.6,7.6c-3.2,1.8-6.8,2.8-10.7,2.8H11.9c-0.9,0-1.6-0.7-1.6-1.6V21.1
		c0-0.9,0.7-1.6,1.6-1.6h13.2c4,0,7.7,0.9,10.9,2.8c3.2,1.9,5.9,4.4,7.7,7.7C45.7,33.2,46.6,36.9,46.6,40.9"/>
	<path fill="#322D59" d="M109.2,43.9c2.4-3.5,3.5-7.8,3.5-12.8c0-6.7-2.2-12-6.5-15.7C101.9,11.8,95.8,10,88,10H65.2
		c-0.9,0-1.6,0.7-1.6,1.6v58.5c0,0.9,0.7,1.6,1.6,1.6h7.1c0.9,0,1.6-0.7,1.6-1.6V54.7c0-0.9,0.7-1.6,1.6-1.6H88c0.5,0,1.1,0,1.8-0.1
		c0.6,0,1.1,0.3,1.4,0.7l10.8,17.1c0.3,0.5,0.8,0.7,1.4,0.7h8c1.3,0,2.1-1.4,1.3-2.5l-11.4-16.6c-0.5-0.8-0.3-1.9,0.6-2.3
		C105,48.6,107.4,46.5,109.2,43.9 M102.8,31.4c0,4.1-1.2,7-3.7,9.1c-2.5,2.1-6.2,3.1-11.1,3.1H75.5c-0.9,0-1.6-0.7-1.6-1.6V21.1
		c0-0.9,0.7-1.6,1.6-1.6H88c4.8,0,8.6,1,11.1,3C101.6,24.5,102.8,27.4,102.8,31.4"/>
	<path fill="#322D59" d="M125.9,71.7h7.1c0.9,0,1.6-0.7,1.6-1.6V11.6c0-0.9-0.7-1.6-1.6-1.6h-7.1c-0.9,0-1.6,0.7-1.6,1.6v58.5
		C124.3,70.9,125.1,71.7,125.9,71.7"/>
	<path fill="#322D59" d="M148.3,71.7h7.1c0.9,0,1.6-0.7,1.6-1.6V11.6c0-0.9-0.7-1.6-1.6-1.6h-7.1c-0.9,0-1.6,0.7-1.6,1.6v58.5
		C146.7,70.9,147.4,71.7,148.3,71.7"/>
	<path fill="#322D59" d="M185.8,15.5c-4.2-3.7-10.3-5.5-17.9-5.5h-3.4c-0.9,0-1.6,0.7-1.6,1.6v6.3c0,0.9,0.7,1.6,1.6,1.6l3,0
		c4.8,0,8.6,1,11.1,3c2.5,2,3.7,4.9,3.7,8.8c0,4.1-1.2,7-3.7,9.1c-2.5,2.1-6.2,3.1-11.1,3.1h-3c-0.9,0-1.6,0.7-1.6,1.6v6.3
		c0,0.9,0.7,1.6,1.6,1.6h3.4c7.6,0,13.6-1.9,17.9-5.8c4.3-3.9,6.5-9.3,6.5-16.2C192.2,24.5,190,19.2,185.8,15.5"/>
	<path fill="#322D59" d="M228.9,40.8c2.5-2.1,6.2-3.1,11.1-3.1h3c0.9,0,1.6-0.7,1.6-1.6v-6.3c0-0.9-0.7-1.6-1.6-1.6h-3.4
		c-7.6,0-13.6,1.9-17.9,5.8c-4.3,3.9-6.5,9.3-6.5,16.2c0,6.6,2.2,11.9,6.5,15.6c4.2,3.7,10.3,5.5,17.9,5.5h3.4
		c0.9,0,1.6-0.7,1.6-1.6v-6.3c0-0.9-0.7-1.6-1.6-1.6l-3,0c-4.8,0-8.6-1-11.1-3c-2.5-2-3.7-4.9-3.7-8.8
		C225.2,45.8,226.4,42.8,228.9,40.8"/>
	<path fill="#73C69C" d="M190.4,79.9l6.8,1.7c0.8,0.2,1.7-0.3,1.9-1.2l19.1-76.8c0.2-0.9-0.3-1.7-1.2-1.9L210.3,0
		c-0.8-0.2-1.7,0.3-1.9,1.2L189.2,78C189,78.8,189.5,79.7,190.4,79.9"/>
</g>
</svg>
