<?xml version="1.0" encoding="utf-8"?>
<!-- Generator: Adobe Illustrator 21.1.0, SVG Export Plug-In . SVG Version: 6.00 Build 0)  -->
<svg version="1.1" id="Layer_1" xmlns="http://www.w3.org/2000/svg" xmlns:xlink="http://www.w3.org/1999/xlink" x="0px" y="0px"
	 viewBox="0 0 228.2 95.8" style="enable-background:new 0 0 228.2 95.8;" xml:space="preserve">
<style type="text/css">
	.st0{fill:#FFFFFF;}
	.st1{fill:#73C69C;}
</style>
<g id="Layer_1_1_">
	<g>
		<g>
			<path class="st0" d="M5.5,88.6c0,0.1-0.1,0.1-0.2,0.2s-0.1,0.1-0.2,0.1s-0.2,0-0.3-0.1s-0.2-0.1-0.4-0.2
				c-0.1-0.1-0.3-0.1-0.5-0.2c-0.2-0.1-0.4-0.1-0.6-0.1s-0.4,0-0.6,0.1s-0.3,0.1-0.4,0.2c-0.1,0.1-0.2,0.2-0.3,0.3
				c-0.1,0.1-0.1,0.3-0.1,0.4c0,0.2,0.1,0.4,0.2,0.5s0.3,0.3,0.5,0.3c0.2,0.1,0.4,0.2,0.6,0.3s0.5,0.2,0.7,0.2s0.5,0.2,0.7,0.3
				s0.5,0.3,0.6,0.4c0.2,0.2,0.3,0.4,0.5,0.6s0.2,0.6,0.2,0.9c0,0.4-0.1,0.8-0.2,1.1s-0.3,0.6-0.6,0.9s-0.6,0.5-0.9,0.6
				c-0.4,0.1-0.8,0.2-1.3,0.2c-0.3,0-0.5,0-0.8-0.1s-0.5-0.1-0.8-0.2c-0.2-0.1-0.5-0.2-0.7-0.4c-0.2-0.1-0.4-0.3-0.6-0.5l0.5-0.8
				c0-0.1,0.1-0.1,0.2-0.1s0.1-0.1,0.2-0.1s0.2,0,0.3,0.1s0.3,0.2,0.4,0.3c0.2,0.1,0.3,0.2,0.6,0.3s0.5,0.1,0.8,0.1
				c0.5,0,0.8-0.1,1.1-0.3s0.4-0.5,0.4-0.9c0-0.2-0.1-0.4-0.2-0.6C4.2,92.3,4,92.1,3.8,92c-0.2-0.1-0.4-0.2-0.6-0.2
				c-0.2-0.1-0.5-0.1-0.7-0.2S2,91.4,1.8,91.3S1.3,91,1.2,90.9c-0.2-0.2-0.3-0.4-0.5-0.7c-0.1-0.3-0.2-0.6-0.2-1
				c0-0.3,0.1-0.6,0.2-0.9s0.3-0.6,0.6-0.8c0.2-0.2,0.5-0.4,0.9-0.6c0.4-0.1,0.8-0.2,1.2-0.2c0.5,0,1,0.1,1.4,0.2
				c0.4,0.2,0.8,0.4,1.1,0.7L5.5,88.6z"/>
			<path class="st0" d="M12,95.7h-1.6V87H12V95.7z"/>
			<path class="st0" d="M21.3,92.5c0.1,0.1,0.1,0.3,0.2,0.4c0.1-0.1,0.1-0.3,0.2-0.4c0.1-0.1,0.1-0.3,0.2-0.4l2.6-4.8
				c0-0.1,0.1-0.1,0.1-0.1l0.1-0.1h0.1c0,0,0.1,0,0.2,0h1.2v8.7h-1.4v-5.6c0-0.1,0-0.2,0-0.3s0-0.2,0-0.4l-2.6,4.9
				c-0.1,0.1-0.1,0.2-0.2,0.3c-0.1,0.1-0.2,0.1-0.3,0.1h-0.2c-0.1,0-0.2,0-0.3-0.1S21,94.6,21,94.4l-2.7-4.9c0,0.1,0,0.3,0,0.4
				s0,0.2,0,0.4v5.6h-1.4v-8.7h1.2c0.1,0,0.1,0,0.2,0c0.1,0,0.1,0,0.1,0s0.1,0,0.1,0.1l0.1,0.1l2.6,4.8
				C21.2,92.2,21.3,92.4,21.3,92.5z"/>
			<path class="st0" d="M32.5,92.6v3.1h-1.6V87h2.8c0.6,0,1.1,0.1,1.5,0.2s0.8,0.3,1,0.6c0.3,0.2,0.5,0.5,0.6,0.9
				c0.1,0.3,0.2,0.7,0.2,1.1c0,0.4-0.1,0.8-0.2,1.2c-0.1,0.3-0.4,0.7-0.6,0.9c-0.3,0.3-0.6,0.4-1,0.6c-0.4,0.1-0.9,0.2-1.5,0.2h-1.2
				V92.6z M32.5,91.4h1.2c0.3,0,0.6,0,0.8-0.1s0.4-0.2,0.5-0.3s0.3-0.3,0.3-0.5c0.1-0.2,0.1-0.4,0.1-0.7c0-0.2,0-0.4-0.1-0.6
				c-0.1-0.2-0.2-0.3-0.3-0.5c-0.1-0.1-0.3-0.2-0.5-0.3s-0.5-0.1-0.8-0.1h-1.2V91.4z"/>
			<path class="st0" d="M42.8,94.4h3.5v1.3h-5.1V87h1.6V94.4z"/>
			<path class="st0" d="M52.1,95.7h-1.6V87h1.6V95.7z"/>
			<path class="st0" d="M62.4,87v1.3h-3.8v2.6h3.2v1.3h-3.2v3.5H57V87C57,87,62.4,87,62.4,87z"/>
			<path class="st0" d="M68.4,95.7h-1.6V87h1.6V95.7z"/>
			<path class="st0" d="M78.7,87v1.3h-3.8v2.4h3v1.2h-3v2.5h3.8v1.3h-5.5V87C73.2,87,78.7,87,78.7,87z"/>
			<path class="st0" d="M90.7,91.4c0,0.6-0.1,1.2-0.3,1.8s-0.5,1-0.9,1.4s-0.8,0.7-1.4,0.9c-0.5,0.2-1.1,0.3-1.8,0.3H83v-8.7h3.3
				c0.7,0,1.3,0.1,1.8,0.3c0.5,0.2,1,0.5,1.4,0.9s0.7,0.8,0.9,1.4S90.7,90.7,90.7,91.4z M89,91.4c0-0.5-0.1-0.9-0.2-1.3
				s-0.3-0.7-0.5-1s-0.5-0.5-0.9-0.6c-0.3-0.1-0.7-0.2-1.1-0.2h-1.7v6.1h1.7c0.4,0,0.8-0.1,1.1-0.2c0.3-0.1,0.6-0.3,0.9-0.6
				c0.2-0.3,0.4-0.6,0.5-1S89,91.8,89,91.4z"/>
			<path class="st0" d="M106.1,87v1.3h-2.6v7.3h-1.6v-7.3h-2.6V87C99.3,87,106.1,87,106.1,87z"/>
			<path class="st0" d="M111.7,92.3v3.4h-1.6V87h2.6c0.6,0,1.1,0.1,1.5,0.2s0.8,0.3,1,0.5c0.3,0.2,0.5,0.5,0.6,0.8s0.2,0.6,0.2,1
				c0,0.3,0,0.6-0.1,0.8c-0.1,0.3-0.2,0.5-0.4,0.7s-0.4,0.4-0.6,0.6c-0.2,0.2-0.5,0.3-0.8,0.4c0.2,0.1,0.4,0.3,0.5,0.5l2.2,3.2h-1.5
				c-0.1,0-0.3,0-0.4-0.1c-0.1-0.1-0.2-0.1-0.2-0.2l-1.8-2.8c-0.1-0.1-0.1-0.2-0.2-0.2s-0.2-0.1-0.4-0.1L111.7,92.3L111.7,92.3z
				 M111.7,91.2h1c0.3,0,0.6,0,0.8-0.1s0.4-0.2,0.6-0.3c0.1-0.1,0.3-0.3,0.3-0.5c0.1-0.2,0.1-0.4,0.1-0.6c0-0.4-0.1-0.8-0.4-1
				c-0.3-0.2-0.7-0.4-1.3-0.4h-1v2.9H111.7z"/>
			<path class="st0" d="M128.4,95.7h-1.2c-0.1,0-0.3,0-0.3-0.1c-0.1-0.1-0.2-0.2-0.2-0.3l-0.6-1.8h-3.6l-0.6,1.8
				c0,0.1-0.1,0.2-0.2,0.3c-0.1,0.1-0.2,0.1-0.3,0.1h-1.3l3.4-8.7h1.6L128.4,95.7z M122.8,92.4h2.8l-1.1-2.9c0-0.1-0.1-0.3-0.2-0.5
				c-0.1-0.2-0.1-0.4-0.2-0.6c-0.1,0.2-0.1,0.4-0.2,0.6c-0.1,0.2-0.1,0.3-0.2,0.5L122.8,92.4z"/>
			<path class="st0" d="M139.9,91.4c0,0.6-0.1,1.2-0.3,1.8s-0.5,1-0.9,1.4s-0.8,0.7-1.4,0.9c-0.5,0.2-1.1,0.3-1.8,0.3h-3.3v-8.7h3.3
				c0.7,0,1.3,0.1,1.8,0.3c0.5,0.2,1,0.5,1.4,0.9s0.7,0.8,0.9,1.4S139.9,90.7,139.9,91.4z M138.2,91.4c0-0.5-0.1-0.9-0.2-1.3
				s-0.3-0.7-0.5-1s-0.5-0.5-0.9-0.6c-0.3-0.1-0.7-0.2-1.1-0.2h-1.7v6.1h1.7c0.4,0,0.8-0.1,1.1-0.2c0.3-0.1,0.6-0.3,0.9-0.6
				c0.2-0.3,0.4-0.6,0.5-1S138.2,91.8,138.2,91.4z"/>
			<path class="st0" d="M149.5,87v1.3h-3.8v2.4h3v1.2h-3v2.5h3.8v1.3H144V87C144,87,149.5,87,149.5,87z"/>
			<path class="st0" d="M164.4,87v1.3h-3.8v2.6h3.2v1.3h-3.2v3.5H159V87C159,87,164.4,87,164.4,87z"/>
			<path class="st0" d="M170.4,95.7h-1.6V87h1.6V95.7z"/>
			<path class="st0" d="M176.3,87h0.1c0,0,0.1,0,0.1,0.1l0.1,0.1l4.6,5.8c0-0.1,0-0.3,0-0.4c0-0.1,0-0.3,0-0.4v-5.3h1.4v8.7h-0.8
				c-0.1,0-0.2,0-0.3-0.1s-0.2-0.1-0.2-0.2l-4.5-5.8c0,0.1,0,0.3,0,0.4s0,0.2,0,0.3v5.3h-1.4v-8.7h0.8C176.1,87,176.2,87,176.3,87z"
				/>
			<path class="st0" d="M194.8,95.7h-1.2c-0.1,0-0.3,0-0.3-0.1c-0.1-0.1-0.2-0.2-0.2-0.3l-0.6-1.8h-3.6l-0.6,1.8
				c0,0.1-0.1,0.2-0.2,0.3c-0.1,0.1-0.2,0.1-0.3,0.1h-1.3l3.4-8.7h1.6L194.8,95.7z M189.2,92.4h2.8l-1.1-2.9c0-0.1-0.1-0.3-0.2-0.5
				c-0.1-0.2-0.1-0.4-0.2-0.6c-0.1,0.2-0.1,0.4-0.2,0.6c-0.1,0.2-0.1,0.3-0.2,0.5L189.2,92.4z"/>
			<path class="st0" d="M199.6,87h0.1c0,0,0.1,0,0.1,0.1l0.1,0.1l4.6,5.8c0-0.1,0-0.3,0-0.4c0-0.1,0-0.3,0-0.4v-5.3h1.4v8.7h-0.8
				c-0.1,0-0.2,0-0.3-0.1s-0.2-0.1-0.2-0.2l-4.5-5.8c0,0.1,0,0.3,0,0.4s0,0.2,0,0.3v5.3h-1.4v-8.7h0.8C199.5,87,199.6,87,199.6,87z"
				/>
			<path class="st0" d="M216.5,93.7c0.1,0,0.2,0,0.2,0.1l0.6,0.7c-0.4,0.4-0.8,0.8-1.3,1s-1.1,0.3-1.9,0.3c-0.6,0-1.2-0.1-1.7-0.3
				s-1-0.5-1.3-0.9c-0.4-0.4-0.6-0.9-0.8-1.4s-0.3-1.1-0.3-1.8s0.1-1.2,0.3-1.8s0.5-1,0.9-1.4s0.9-0.7,1.4-0.9
				c0.5-0.2,1.1-0.3,1.8-0.3c0.6,0,1.2,0.1,1.7,0.3c0.5,0.2,0.9,0.5,1.2,0.8l-0.5,0.8l-0.1,0.1c0,0-0.1,0.1-0.2,0.1
				c-0.1,0-0.2,0-0.3-0.1s-0.2-0.1-0.4-0.2c-0.1-0.1-0.3-0.2-0.6-0.2c-0.2-0.1-0.5-0.1-0.9-0.1s-0.8,0.1-1.1,0.2
				c-0.3,0.1-0.6,0.3-0.9,0.6c-0.2,0.3-0.4,0.6-0.6,1c-0.1,0.4-0.2,0.8-0.2,1.3s0.1,0.9,0.2,1.3c0.1,0.4,0.3,0.7,0.6,1
				s0.5,0.5,0.8,0.6s0.7,0.2,1,0.2c0.2,0,0.4,0,0.6,0c0.2,0,0.3-0.1,0.5-0.1c0.1-0.1,0.3-0.1,0.4-0.2s0.3-0.2,0.4-0.3l0.1-0.1
				C216.4,93.7,216.4,93.7,216.5,93.7z"/>
			<path class="st0" d="M226.9,87v1.3h-3.8v2.4h3v1.2h-3v2.5h3.8v1.3h-5.4V87C221.5,87,226.9,87,226.9,87z"/>
		</g>
		<g>
			<path class="st0" d="M38.8,13.4c-4.5-2.5-9.6-3.7-15.2-3.7H1.5C0.7,9.7,0,10.4,0,11.2v54.7c0,0.8,0.7,1.5,1.5,1.5h21.9
				c5.6,0,10.8-1.3,15.3-3.7c4.5-2.5,8.2-6,10.8-10.4c2.6-4.4,3.9-9.3,3.9-14.8c0-5.4-1.3-10.4-3.9-14.8
				C46.9,19.4,43.3,15.9,38.8,13.4z M43.6,38.6c0,3.7-0.9,7.2-2.6,10.2s-4.1,5.4-7.1,7.1s-6.4,2.6-10.1,2.6H11.1
				c-0.8,0-1.5-0.7-1.5-1.5V20.1c0-0.8,0.7-1.5,1.5-1.5h12.4c3.7,0,7.2,0.9,10.2,2.6c3,1.7,5.5,4.1,7.2,7.2
				C42.7,31.4,43.6,34.8,43.6,38.6z"/>
			<path class="st0" d="M101.9,41.4c2.2-3.2,3.3-7.2,3.3-11.9c0-6.3-2.1-11.2-6.1-14.6c-4-3.4-9.7-5.1-17-5.1H60.8
				c-0.8,0-1.5,0.7-1.5,1.5V66c0,0.8,0.7,1.5,1.5,1.5h6.6c0.8,0,1.5-0.7,1.5-1.5V51.5c0-0.8,0.7-1.5,1.5-1.5h11.7
				c0.5,0,1.1,0,1.7-0.1c0.5,0,1.1,0.2,1.4,0.7l10.1,16c0.3,0.4,0.8,0.7,1.3,0.7h7.5c1.2,0,1.9-1.4,1.2-2.3L94.6,49.4
				c-0.5-0.7-0.2-1.8,0.6-2.2C97.9,45.9,100.2,43.9,101.9,41.4z M95.9,29.7c0,3.8-1.1,6.6-3.5,8.5s-5.8,2.9-10.4,2.9H70.4
				c-0.8,0-1.5-0.7-1.5-1.5V20.1c0-0.8,0.7-1.5,1.5-1.5h11.7c4.5,0,8,1,10.4,2.8C94.8,23.3,95.9,26,95.9,29.7z"/>
			<path class="st0" d="M115.4,67.4h6.6c0.8,0,1.5-0.7,1.5-1.5V11.2c0-0.8-0.7-1.5-1.5-1.5h-6.6c-0.8,0-1.5,0.7-1.5,1.5v54.7
				C113.9,66.7,114.5,67.4,115.4,67.4z"/>
			<path class="st1" d="M172.7,14.9c-4-3.4-9.6-5.2-16.8-5.2h-3.1c-0.8,0-1.5,0.7-1.5,1.5v5.9c0,0.8,0.7,1.5,1.5,1.5h2.8
				c4.5,0,8,1,10.4,2.8c2.3,1.9,3.4,4.6,3.4,8.3c0,3.8-1.1,6.6-3.5,8.5s-5.8,2.9-10.4,2.9h-2.8c-0.8,0-1.5,0.7-1.5,1.5v5.9
				c0,0.8,0.7,1.5,1.5,1.5h3.1c7.1,0,12.8-1.8,16.7-5.4c4-3.6,6.1-8.7,6.1-15.2C178.7,23.2,176.7,18.3,172.7,14.9z"/>
			<path class="st0" d="M135.9,67.4h6.6c0.8,0,1.5-0.7,1.5-1.5V11.2c0-0.8-0.7-1.5-1.5-1.5h-6.6c-0.8,0-1.5,0.7-1.5,1.5v54.7
				C134.4,66.7,135.1,67.4,135.9,67.4z"/>
			<path class="st1" d="M213.5,38.9c2.4-1.9,5.8-2.9,10.4-2.9h2.8c0.8,0,1.5-0.7,1.5-1.5v-5.9c0-0.8-0.7-1.5-1.5-1.5h-3.2
				c-7.1,0-12.8,1.8-16.7,5.4c-4,3.6-6.1,8.7-6.1,15.2c0,6.2,2,11.1,6,14.6c4,3.4,9.6,5.2,16.8,5.2h3.1c0.8,0,1.5-0.7,1.5-1.5v-5.9
				c0-0.8-0.7-1.5-1.5-1.5h-2.8c-4.5,0-8-1-10.4-2.8c-2.3-1.9-3.4-4.6-3.4-8.3C210.1,43.6,211.2,40.8,213.5,38.9z"/>
			<path class="st0" d="M177.1,75.5l6.4,1.6c0.8,0.2,1.6-0.3,1.8-1.1l18.2-72.6c0.2-0.8-0.3-1.6-1.1-1.8L196,0
				c-0.8-0.2-1.6,0.3-1.8,1.1l-18.1,72.6C175.8,74.5,176.3,75.3,177.1,75.5z"/>
		</g>
	</g>
</g>
<g id="Layer_2">
</g>
</svg>
