<?xml version="1.0" encoding="utf-8"?>
<!-- Generator: Adobe Illustrator 18.0.0, SVG Export Plug-In . SVG Version: 6.00 Build 0)  -->
<!DOCTYPE svg PUBLIC "-//W3C//DTD SVG 1.1//EN" "http://www.w3.org/Graphics/SVG/1.1/DTD/svg11.dtd">
<svg version="1.1" id="Layer_1" xmlns="http://www.w3.org/2000/svg" xmlns:xlink="http://www.w3.org/1999/xlink" x="0px" y="0px"
	 viewBox="0 0 326.3 163.4" enable-background="new 0 0 326.3 163.4" xml:space="preserve">
<g>
	<path fill="#FFFFFF" d="M82.4,54.9c-4.8-2.7-10.3-4-16.2-4H42.5c-0.9,0-1.6,0.7-1.6,1.6V111c0,0.9,0.7,1.6,1.6,1.6h23.5
		c6,0,11.5-1.3,16.3-4c4.9-2.7,8.7-6.4,11.5-11.1c2.8-4.7,4.2-10,4.2-15.8c0-5.8-1.4-11.1-4.1-15.8C91.1,61.3,87.2,57.5,82.4,54.9
		 M87.5,81.8c0,4-0.9,7.6-2.8,10.9c-1.9,3.2-4.4,5.8-7.6,7.6c-3.2,1.8-6.8,2.8-10.7,2.8H52.8c-0.9,0-1.6-0.7-1.6-1.6V62
		c0-0.9,0.7-1.6,1.6-1.6H66c4,0,7.7,0.9,10.9,2.8c3.2,1.9,5.9,4.4,7.7,7.7C86.5,74.1,87.5,77.8,87.5,81.8"/>
	<path fill="#FFFFFF" d="M150.1,84.8c2.4-3.5,3.5-7.8,3.5-12.8c0-6.7-2.2-12-6.5-15.7c-4.3-3.6-10.4-5.5-18.2-5.5h-22.8
		c-0.9,0-1.6,0.7-1.6,1.6V111c0,0.9,0.7,1.6,1.6,1.6h7.1c0.9,0,1.6-0.7,1.6-1.6V95.6c0-0.9,0.7-1.6,1.6-1.6h12.5
		c0.5,0,1.1,0,1.8-0.1c0.6,0,1.1,0.3,1.4,0.7l10.8,17.1c0.3,0.5,0.8,0.7,1.4,0.7h8c1.3,0,2.1-1.4,1.3-2.5l-11.4-16.6
		c-0.5-0.8-0.3-1.9,0.6-2.3C145.8,89.5,148.2,87.4,150.1,84.8 M143.6,72.3c0,4.1-1.2,7-3.7,9.1c-2.5,2.1-6.2,3.1-11.1,3.1h-12.5
		c-0.9,0-1.6-0.7-1.6-1.6V62c0-0.9,0.7-1.6,1.6-1.6h12.5c4.8,0,8.6,1,11.1,3C142.4,65.4,143.6,68.3,143.6,72.3"/>
	<path fill="#FFFFFF" d="M166.8,112.6h7.1c0.9,0,1.6-0.7,1.6-1.6V52.5c0-0.9-0.7-1.6-1.6-1.6h-7.1c-0.9,0-1.6,0.7-1.6,1.6V111
		C165.2,111.8,165.9,112.6,166.8,112.6"/>
	<path fill="#FFFFFF" d="M189.1,112.6h7.1c0.9,0,1.6-0.7,1.6-1.6V52.5c0-0.9-0.7-1.6-1.6-1.6h-7.1c-0.9,0-1.6,0.7-1.6,1.6V111
		C187.5,111.8,188.2,112.6,189.1,112.6"/>
	<path fill="#FFFFFF" d="M226.6,56.4c-4.2-3.7-10.3-5.5-17.9-5.5h-3.4c-0.9,0-1.6,0.7-1.6,1.6v6.3c0,0.9,0.7,1.6,1.6,1.6l3,0
		c4.8,0,8.6,1,11.1,3c2.5,2,3.7,4.9,3.7,8.8c0,4.1-1.2,7-3.7,9.1c-2.5,2.1-6.2,3.1-11.1,3.1h-3c-0.9,0-1.6,0.7-1.6,1.6v6.3
		c0,0.9,0.7,1.6,1.6,1.6h3.4c7.6,0,13.6-1.9,17.9-5.8c4.3-3.9,6.5-9.3,6.5-16.2C233.1,65.4,230.9,60.1,226.6,56.4"/>
	<path fill="#FFFFFF" d="M269.8,81.7c2.5-2.1,6.2-3.1,11.1-3.1h3c0.9,0,1.6-0.7,1.6-1.6v-6.3c0-0.9-0.7-1.6-1.6-1.6h-3.4
		c-7.6,0-13.6,1.9-17.9,5.8c-4.3,3.9-6.5,9.3-6.5,16.2c0,6.6,2.2,11.9,6.5,15.6c4.2,3.7,10.3,5.5,17.9,5.5h3.4
		c0.9,0,1.6-0.7,1.6-1.6v-6.3c0-0.9-0.7-1.6-1.6-1.6l-3,0c-4.8,0-8.6-1-11.1-3c-2.5-2-3.7-4.9-3.7-8.8
		C266.1,86.7,267.3,83.7,269.8,81.7"/>
	<path fill="#73C69C" d="M231.2,120.8l6.8,1.7c0.8,0.2,1.7-0.3,1.9-1.2l19.1-76.8c0.2-0.9-0.3-1.7-1.2-1.9l-6.8-1.7
		c-0.8-0.2-1.7,0.3-1.9,1.2l-19.1,76.8C229.9,119.7,230.4,120.6,231.2,120.8"/>
</g>
</svg>
