<svg id="Layer_1" data-name="Layer 1" xmlns="http://www.w3.org/2000/svg" viewBox="0 0 47.16 43.81"><defs><style>.cls-1{fill:#73c69c;}.cls-2{fill:#fff;}</style></defs><title>Website_LP</title><rect class="cls-1" x="8.92" y="7.24" width="29.33" height="29.33" rx="1.5" ry="1.5"/><rect class="cls-2" x="16.93" y="19.63" width="2.93" height="8.8"/><path class="cls-2" d="M18.39,18.43h0a1.53,1.53,0,1,1,0-3,1.53,1.53,0,1,1,0,3Z"/><path class="cls-2" d="M30.41,28.43H27.48V23.72c0-1.18-.42-2-1.48-2a1.6,1.6,0,0,0-1.5,1.07,2,2,0,0,0-.1.71v4.92H21.47s0-8,0-8.8H24.4v1.25A2.91,2.91,0,0,1,27,19.42c1.92,0,3.37,1.26,3.37,4Z"/></svg>