<?xml version="1.0" encoding="utf-8"?>
<!-- Generator: Adobe Illustrator 21.1.0, SVG Export Plug-In . SVG Version: 6.00 Build 0)  -->
<!DOCTYPE svg PUBLIC "-//W3C//DTD SVG 1.1//EN" "http://www.w3.org/Graphics/SVG/1.1/DTD/svg11.dtd" [
	<!ENTITY ns_extend "http://ns.adobe.com/Extensibility/1.0/">
	<!ENTITY ns_ai "http://ns.adobe.com/AdobeIllustrator/10.0/">
	<!ENTITY ns_graphs "http://ns.adobe.com/Graphs/1.0/">
	<!ENTITY ns_vars "http://ns.adobe.com/Variables/1.0/">
	<!ENTITY ns_imrep "http://ns.adobe.com/ImageReplacement/1.0/">
	<!ENTITY ns_sfw "http://ns.adobe.com/SaveForWeb/1.0/">
	<!ENTITY ns_custom "http://ns.adobe.com/GenericCustomNamespace/1.0/">
	<!ENTITY ns_adobe_xpath "http://ns.adobe.com/XPath/1.0/">
]>
<svg version="1.1" xmlns:x="&ns_extend;" xmlns:i="&ns_ai;" xmlns:graph="&ns_graphs;"
	 xmlns="http://www.w3.org/2000/svg" xmlns:xlink="http://www.w3.org/1999/xlink" x="0px" y="0px" viewBox="0 0 107.3 143"
	 style="enable-background:new 0 0 107.3 143;" xml:space="preserve">
<style type="text/css">
	.st0{display:none;}
	.st1{display:inline;}
	.st2{fill:none;stroke:#F2F2F2;stroke-miterlimit:10;}
	.st3{fill:#322D59;}
	.st4{display:inline;opacity:0.2;}
	.st5{display:inline;opacity:0.27;}
	.st6{fill:#FFFFFF;}
	.st7{fill:#F2F2F2;}
	.st8{fill:#666666;}
	.st9{fill:#F47A5C;}
	.st10{fill:#4D4D4D;}
	.st11{fill:#58595B;}
	.st12{fill:#27B67C;}
	.st13{fill:none;stroke:#F04E37;stroke-miterlimit:10;}
	.st14{fill:#F04E37;}
	.st15{fill:#5F588B;}
	.st16{fill:#73C69C;}
	.st17{fill:#E6E6E6;}
	.st18{fill:none;stroke:#73C69C;stroke-miterlimit:10;}
	.st19{fill:#FFFFFF;stroke:#F47A5C;stroke-width:2;stroke-miterlimit:10;}
	.st20{fill:#7770AB;}
	.st21{fill:none;stroke:#808080;stroke-miterlimit:10;}
	.st22{fill:#F8A084;}
	.st23{fill:none;stroke:#322D59;stroke-linecap:round;stroke-linejoin:round;stroke-miterlimit:10;}
	.st24{fill:none;stroke:#F8A084;stroke-linecap:round;stroke-linejoin:round;stroke-miterlimit:10;}
	.st25{fill:#BFE3D3;}
	.st26{fill:#CCCCCC;}
	.st27{clip-path:url(#SVGID_2_);fill-rule:evenodd;clip-rule:evenodd;fill:#E6E6E6;}
	.st28{fill:#808080;}
	.st29{clip-path:url(#SVGID_4_);fill-rule:evenodd;clip-rule:evenodd;fill:#E6E6E6;}
	.st30{fill:none;stroke:#322D59;stroke-width:2;stroke-linecap:round;stroke-miterlimit:10;}
	.st31{fill:none;stroke:#73C69C;stroke-linecap:round;stroke-miterlimit:10;}
	.st32{fill:none;stroke:#4D4D4D;stroke-width:2;stroke-linecap:round;stroke-miterlimit:10;}
	.st33{fill:#FFFFFF;stroke:#5F588B;stroke-width:2;stroke-miterlimit:10;}
	.st34{fill:none;stroke:#F04E37;stroke-width:3;stroke-linecap:round;stroke-miterlimit:10;}
	.st35{fill:none;stroke:#999999;stroke-miterlimit:10;}
	.st36{fill:none;stroke:#5F588B;stroke-width:2;stroke-miterlimit:10;}
	.st37{fill:#A6D8C0;}
	.st38{fill:none;stroke:#FFFFFF;stroke-width:2;stroke-linecap:round;stroke-miterlimit:10;}
</style>
<switch>
	<foreignObject requiredExtensions="&ns_ai;" x="0" y="0" width="1" height="1">
		<i:pgfRef  xlink:href="#adobe_illustrator_pgf">
		</i:pgfRef>
	</foreignObject>
	<g i:extraneous="self">
		<g id="Layer_2" class="st0">
		</g>
		<g id="Layer_1">
			<g>
				<polyline class="st37" points="107.3,21 107.3,137.1 107.3,143 101.3,143 6,143 0,143 0,137.1 0,23.8 0,21.4 0,0 21.4,0 23.8,0
					86.3,0 				"/>
				<path class="st14" d="M49.5,27.5c0.5,0.5,1.1,1,1.9,1.3c0.7,0.3,1.8,0.7,3.1,1.1c1.6,0.5,3,1,4,1.5c1,0.5,1.9,1.2,2.6,2.1
					c0.7,0.9,1.1,2.1,1.1,3.6c0,1.9-0.7,3.4-2,4.6c-1.3,1.2-3.2,2-5.4,2.2v4.6h-2.5V44c-1.6-0.1-3.1-0.5-4.6-1.2
					c-1.5-0.7-2.8-1.5-3.9-2.6l1.5-2.9c1.2,1.1,2.5,2,3.9,2.6c1.4,0.6,2.9,0.9,4.2,0.9c1.6,0,2.9-0.3,3.8-1c0.9-0.6,1.4-1.5,1.4-2.6
					c0-0.9-0.3-1.6-0.8-2.1c-0.5-0.6-1.2-1-1.9-1.3c-0.8-0.3-1.8-0.7-3.1-1.1c-1.6-0.5-2.9-1-4-1.4c-1-0.5-1.9-1.1-2.6-2.1
					c-0.7-0.9-1.1-2.1-1.1-3.6c0-1.8,0.6-3.3,1.9-4.4c1.3-1.1,3-1.8,5.2-2.1V15h2.5v4.2c1.3,0.1,2.5,0.3,3.7,0.8
					c1.2,0.4,2.3,0.9,3.2,1.6l-1.4,3c-1.1-0.7-2.3-1.3-3.5-1.6c-1.2-0.4-2.3-0.5-3.4-0.5c-1.4,0-2.5,0.3-3.4,0.8
					c-0.8,0.5-1.3,1.3-1.3,2.2C48.7,26.3,49,27,49.5,27.5z"/>
				<g>
					<path class="st3" d="M44.9,101.5c-1.8-1.6-4.4-2.4-7.7-2.4h-1.4c-0.4,0-0.7,0.3-0.7,0.7v2.7c0,0.4,0.3,0.7,0.7,0.7l1.3,0
						c2.1,0,3.7,0.4,4.7,1.3c1.1,0.9,1.6,2.1,1.6,3.8c0,1.7-0.5,3-1.6,3.9c-1.1,0.9-2.7,1.3-4.7,1.3h-1.3c-0.4,0-0.7,0.3-0.7,0.7
						v2.7c0,0.4,0.3,0.7,0.7,0.7h1.4c3.3,0,5.8-0.8,7.7-2.5c1.8-1.6,2.8-4,2.8-7C47.7,105.3,46.8,103.1,44.9,101.5z"/>
					<path class="st3" d="M63.6,112.5c1.1-0.9,2.7-1.3,4.7-1.3h1.3c0.4,0,0.7-0.3,0.7-0.7v-2.7c0-0.4-0.3-0.7-0.7-0.7h-1.4
						c-3.3,0-5.8,0.8-7.7,2.5c-1.8,1.6-2.8,4-2.8,7c0,2.8,0.9,5.1,2.8,6.7c1.8,1.6,4.4,2.4,7.7,2.4h1.4c0.4,0,0.7-0.3,0.7-0.7v-2.7
						c0-0.4-0.3-0.7-0.7-0.7l-1.3,0c-2.1,0-3.7-0.4-4.7-1.3c-1.1-0.9-1.6-2.1-1.6-3.8C62,114.6,62.6,113.4,63.6,112.5z"/>
					<path class="st3" d="M47,129.2l2.9,0.7c0.4,0.1,0.7-0.1,0.8-0.5L59,96.3c0.1-0.4-0.1-0.7-0.5-0.8l-2.9-0.7
						c-0.4-0.1-0.7,0.1-0.8,0.5l-8.3,33.2C46.4,128.8,46.6,129.2,47,129.2z"/>
				</g>
				<g>
					<line class="st38" x1="52.7" y1="84.3" x2="52.7" y2="59.1"/>
					<polyline class="st38" points="60.2,75 52.7,84.3 45.3,75 					"/>
				</g>
				<polygon class="st16" points="107.3,21 86.3,21 86.3,0 				"/>
			</g>
		</g>
	</g>
</switch>
</svg>
