<?xml version="1.0" encoding="utf-8"?>
<!-- Generator: Adobe Illustrator 21.1.0, SVG Export Plug-In . SVG Version: 6.00 Build 0)  -->
<!DOCTYPE svg PUBLIC "-//W3C//DTD SVG 1.1//EN" "http://www.w3.org/Graphics/SVG/1.1/DTD/svg11.dtd" [
	<!ENTITY ns_extend "http://ns.adobe.com/Extensibility/1.0/">
	<!ENTITY ns_ai "http://ns.adobe.com/AdobeIllustrator/10.0/">
	<!ENTITY ns_graphs "http://ns.adobe.com/Graphs/1.0/">
	<!ENTITY ns_vars "http://ns.adobe.com/Variables/1.0/">
	<!ENTITY ns_imrep "http://ns.adobe.com/ImageReplacement/1.0/">
	<!ENTITY ns_sfw "http://ns.adobe.com/SaveForWeb/1.0/">
	<!ENTITY ns_custom "http://ns.adobe.com/GenericCustomNamespace/1.0/">
	<!ENTITY ns_adobe_xpath "http://ns.adobe.com/XPath/1.0/">
]>
<svg version="1.1" xmlns:x="&ns_extend;" xmlns:i="&ns_ai;" xmlns:graph="&ns_graphs;"
	 xmlns="http://www.w3.org/2000/svg" xmlns:xlink="http://www.w3.org/1999/xlink" x="0px" y="0px" viewBox="0 0 30 30"
	 style="enable-background:new 0 0 30 30;" xml:space="preserve">
<style type="text/css">
	.st0{display:none;}
	.st1{display:inline;}
	.st2{fill:#322D59;}
	.st3{display:inline;opacity:0.2;}
	.st4{display:inline;opacity:0.44;}
	.st5{fill:none;stroke:#F2F2F2;stroke-miterlimit:10;}
	.st6{display:inline;stroke:#F2F2F2;stroke-miterlimit:10;}
	.st7{fill:#F2F2F2;}
	.st8{fill:#FFFFFF;}
	.st9{opacity:0.4;}
	.st10{opacity:0.5;fill:#73C69C;}
	.st11{fill:#73C69C;stroke:#73C69C;stroke-width:0.75;}
	.st12{fill:none;stroke:#F04E37;stroke-miterlimit:10;}
	.st13{fill:#F04E37;}
	.st14{fill:#27B67C;}
	.st15{fill:#73C69C;}
	.st16{fill:#4D4D4D;}
	.st17{fill:none;stroke:#FFFFFF;stroke-width:4;stroke-linecap:round;stroke-miterlimit:10;}
	.st18{fill:#58595B;}
	.st19{fill:#016D9A;}
	.st20{opacity:0.4;fill:#FFFFFF;}
	.st21{fill:none;stroke:#322D59;stroke-miterlimit:10;}
	.st22{fill:#7770AB;}
	.st23{fill:none;stroke:#73C69C;stroke-width:2;stroke-linecap:round;stroke-miterlimit:10;}
	.st24{fill:none;stroke:#F04E37;stroke-width:3;stroke-linecap:round;stroke-miterlimit:10;}
	.st25{fill:#F47A5C;}
	.st26{fill:none;stroke:#322D59;stroke-width:5;stroke-linecap:round;stroke-miterlimit:10;}
	.st27{fill:#F8A084;}
	.st28{fill:#A6D8C0;}
	.st29{fill:#BFE3D3;}
	.st30{fill:#BFE3D3;stroke:#BFE3D3;stroke-width:0.75;stroke-miterlimit:10;}
	.st31{fill:#E6E6E6;}
	.st32{enable-background:new    ;}
	.st33{fill:none;stroke:#27B67C;stroke-linecap:round;stroke-miterlimit:10;}
</style>
<switch>
	<foreignObject requiredExtensions="&ns_ai;" x="0" y="0" width="1" height="1">
		<i:pgfRef  xlink:href="#adobe_illustrator_pgf">
		</i:pgfRef>
	</foreignObject>
	<g i:extraneous="self">
		<g id="Layer_2" class="st0">
		</g>
		<g id="Layer_1">
			<g>
				<path class="st8" d="M4.3,26.4c-0.5-1.1-0.9-2.2-1.1-3.3c-0.2-1.1-0.3-2.2-0.3-3.3c0-3,0.8-5.9,2.4-8.7C6.8,8.4,9,5.8,11.8,3.6
					L13.9,5c0.4,0.3,0.5,0.6,0.5,1c0,0.2-0.1,0.5-0.2,0.7c-0.1,0.2-0.4,0.5-0.7,0.9c-0.5,0.6-1,1.2-1.5,1.9s-0.9,1.5-1.3,2.4
					c-0.4,0.9-0.7,1.8-1,2.7c-0.3,1-0.4,1.9-0.4,3c0,0.8,0.1,1.6,0.2,2.4c0.1,0.8,0.4,1.6,0.8,2.5c0.1,0.2,0.1,0.4,0.1,0.6
					c0,0.7-0.4,1.3-1.3,1.7L4.3,26.4z M17,26.4c-0.5-1.1-0.9-2.2-1.1-3.3c-0.2-1.1-0.3-2.2-0.3-3.3c0-3,0.8-5.9,2.4-8.7
					c1.6-2.8,3.8-5.3,6.6-7.6L26.6,5c0.4,0.3,0.5,0.6,0.5,1c0,0.2-0.1,0.5-0.2,0.7c-0.1,0.2-0.4,0.5-0.7,0.9c-0.5,0.6-1,1.2-1.5,1.9
					c-0.5,0.7-0.9,1.5-1.3,2.4c-0.4,0.9-0.7,1.8-1,2.7c-0.3,1-0.4,1.9-0.4,3c0,0.8,0.1,1.6,0.2,2.4c0.1,0.8,0.4,1.6,0.8,2.5
					c0.1,0.2,0.1,0.4,0.1,0.6c0,0.7-0.4,1.3-1.3,1.7L17,26.4z"/>
			</g>
		</g>
	</g>
</switch>
</svg>
