<?xml version="1.0" encoding="utf-8"?>
<!-- Generator: Adobe Illustrator 21.1.0, SVG Export Plug-In . SVG Version: 6.00 Build 0)  -->
<!DOCTYPE svg PUBLIC "-//W3C//DTD SVG 1.1//EN" "http://www.w3.org/Graphics/SVG/1.1/DTD/svg11.dtd" [
	<!ENTITY ns_extend "http://ns.adobe.com/Extensibility/1.0/">
	<!ENTITY ns_ai "http://ns.adobe.com/AdobeIllustrator/10.0/">
	<!ENTITY ns_graphs "http://ns.adobe.com/Graphs/1.0/">
	<!ENTITY ns_vars "http://ns.adobe.com/Variables/1.0/">
	<!ENTITY ns_imrep "http://ns.adobe.com/ImageReplacement/1.0/">
	<!ENTITY ns_sfw "http://ns.adobe.com/SaveForWeb/1.0/">
	<!ENTITY ns_custom "http://ns.adobe.com/GenericCustomNamespace/1.0/">
	<!ENTITY ns_adobe_xpath "http://ns.adobe.com/XPath/1.0/">
]>
<svg version="1.1" xmlns:x="&ns_extend;" xmlns:i="&ns_ai;" xmlns:graph="&ns_graphs;"
	 xmlns="http://www.w3.org/2000/svg" xmlns:xlink="http://www.w3.org/1999/xlink" x="0px" y="0px" viewBox="0 0 65.2 65.2"
	 style="enable-background:new 0 0 65.2 65.2;" xml:space="preserve">
<style type="text/css">
	.st0{display:none;}
	.st1{display:inline;}
	.st2{fill:#322D59;}
	.st3{display:inline;opacity:0.2;}
	.st4{display:inline;opacity:0.44;}
	.st5{fill:none;stroke:#F2F2F2;stroke-miterlimit:10;}
	.st6{display:inline;stroke:#F2F2F2;stroke-miterlimit:10;}
	.st7{fill:#F2F2F2;}
	.st8{fill:#FFFFFF;}
	.st9{opacity:0.4;}
	.st10{opacity:0.5;fill:#73C69C;}
	.st11{fill:#73C69C;stroke:#73C69C;stroke-width:0.75;}
	.st12{fill:none;stroke:#F04E37;stroke-miterlimit:10;}
	.st13{fill:#F04E37;}
	.st14{fill:#27B67C;}
	.st15{fill:#73C69C;}
	.st16{fill:#4D4D4D;}
	.st17{fill:none;stroke:#FFFFFF;stroke-width:4;stroke-linecap:round;stroke-miterlimit:10;}
	.st18{fill:#58595B;}
	.st19{fill:#016D9A;}
	.st20{opacity:0.4;fill:#FFFFFF;}
	.st21{fill:none;stroke:#322D59;stroke-miterlimit:10;}
	.st22{fill:#7770AB;}
	.st23{fill:none;stroke:#73C69C;stroke-width:2;stroke-linecap:round;stroke-miterlimit:10;}
	.st24{fill:none;stroke:#F04E37;stroke-width:3;stroke-linecap:round;stroke-miterlimit:10;}
	.st25{fill:#F47A5C;}
	.st26{fill:none;stroke:#322D59;stroke-width:5;stroke-linecap:round;stroke-miterlimit:10;}
	.st27{fill:#F8A084;}
	.st28{fill:#A6D8C0;}
	.st29{fill:#E6E6E6;}
	.st30{enable-background:new    ;}
	.st31{fill:none;stroke:#27B67C;stroke-linecap:round;stroke-miterlimit:10;}
	.st32{fill:#BFE3D3;}
	.st33{fill:#BFE3D3;stroke:#BFE3D3;stroke-width:0.75;stroke-miterlimit:10;}
	.st34{fill:none;stroke:#FF931E;stroke-linecap:round;}
	.st35{fill:none;stroke:#A6D8C0;stroke-linecap:round;}
	.st36{opacity:0.3;}
	.st37{fill:none;stroke:#FFFFFF;stroke-width:0.75;}
	.st38{fill:none;stroke:#FFFFFF;stroke-width:0.75;stroke-dasharray:3.0029,3.0029;}
	.st39{fill:none;stroke:#C69C6D;stroke-linecap:round;}
	.st40{fill:none;stroke:#009245;stroke-linecap:round;}
	.st41{fill:none;stroke:#FCEE21;stroke-width:3;stroke-linecap:round;}
	.st42{fill:none;stroke:#FFFFFF;stroke-width:0.75;stroke-linecap:round;}
	.st43{fill:#5F588B;}
	.st44{opacity:0.15;fill:none;}
	.st45{clip-path:url(#SVGID_2_);fill:#FFFFFF;}
	.st46{clip-path:url(#SVGID_4_);}
	.st47{clip-path:url(#SVGID_6_);}
</style>
<switch>
	<foreignObject requiredExtensions="&ns_ai;" x="0" y="0" width="1" height="1">
		<i:pgfRef  xlink:href="#adobe_illustrator_pgf">
		</i:pgfRef>
	</foreignObject>
	<g i:extraneous="self">
		<g id="Layer_2" class="st0">
		</g>
		<g id="Layer_1">
			<g>
				<defs>
					<circle id="SVGID_3_" cx="32.6" cy="32.6" r="31.6"/>
				</defs>
				<clipPath id="SVGID_2_">
					<use xlink:href="#SVGID_3_"  style="overflow:visible;"/>
				</clipPath>
				<g style="clip-path:url(#SVGID_2_);">
					<path class="st8" d="M17.4,80.6c-0.1,0-0.2-0.1-0.3-0.1c-1.2-0.5-1.9-1.3-1.9-2.6c0-8.5,0-17,0-25.5c0-0.3,0.1-0.6,0.2-0.9
						c0.8-2.2,1.2-4.5,1.3-6.9c0-1-0.2-1.9-0.4-2.9c-0.1-0.6-0.5-1-1.1-1.2c-1.7-0.7-3-1.9-3.9-3.4c-2.8-4.4-2.9-9-0.9-13.8
						c0.9-2,2.3-3.6,4.4-4.5c4.3-1.9,9.1,0.3,11,4.5c1.6,3.6,1.8,7.4,0.5,11.1c-0.9,2.5-2.4,4.6-4.8,5.9c-0.1,0-0.2,0.1-0.3,0.1
						c-0.9,0.2-1.2,0.9-1.4,1.7c-0.4,1.6-0.3,3.3,0,4.9c0.3,1.6,0.7,3.1,1.1,4.6c0.1,0.4,0.2,0.8,0.2,1.2c0,8.1,0,16.2,0,24.4
						c0,1.7-0.5,2.9-2.2,3.4C18.4,80.6,17.9,80.6,17.4,80.6z M12.9,24.6c-0.1,0-0.1,0-0.2,0c-0.3-0.1-1.1,3.3-1.2,3.7
						c-0.3,1.4-0.3,2.8,0,4.2c0.5,2.5,2.1,4.6,4.1,6.2c-0.5-1.3-1.2-2.6-1.7-3.9c-1.2-3.1-1-6.3-1-9.6
						C12.9,24.9,12.9,24.8,12.9,24.6z"/>
					<path class="st8" d="M34.4,35.7c0-5.5,0-10.9,0-16.4c0.4,0,0.8,0,1.2,0c0.1,0,0.2,0.1,0.2,0.2c0,0.1,0,0.3,0,0.4
						c0,5,0,10.1,0,15.1c0,0.5,0.1,0.7,0.6,0.6c1.1,0,0.9,0.1,0.9-0.9c0-4.9,0-9.9,0-14.8c0-0.2,0.1-0.6,0.1-0.6
						c0.4-0.1,0.7,0,1.1,0c0.1,0,0.1,0.3,0.1,0.5c0,2.7,0,5.5,0,8.2c0,2.3,0,4.6,0,6.9c0,0.2,0,0.4,0,0.6c0.6,0,1.2,0,1.9,0
						c-0.1-5.4-0.3-10.8-0.4-16.2c0.5,0,0.9,0,1.3,0c0.1,0,0.3,0.3,0.3,0.5c0.2,1.8,0.4,3.6,0.6,5.4c0.3,2.7,0.6,5.3,0.9,8
						c0.3,2.1-0.4,3.9-1.9,5.5c-2.4,2.5-3.3,5.5-2.9,9c0.1,0.8,0.2,1.6,0.4,2.4c0.3,1.4,0.4,2.9,0.4,4.4c0,7.7,0,15.3,0,23
						c0,1.8-1.3,3-2.9,2.8c-1.2-0.1-2.2-1.1-2.3-2.4c0-0.2,0-0.5,0-0.7c0-8,0-16,0-24c0-1.2,0.4-2.4,0.7-3.5c0.5-2,0.7-4,0.2-6
						c-0.5-1.9-1.5-3.5-2.9-4.9c-1.6-1.5-2.3-3.4-2-5.6c0.5-4.5,1.1-9,1.7-13.5c0-0.1,0-0.2,0.1-0.3c0.4,0,0.9,0,1.3,0
						c0,0.2,0,0.4,0,0.6c-0.1,4.1-0.3,8.3-0.4,12.4c0,0.9,0,1.9-0.1,2.8c0,0.4,0.1,0.5,0.5,0.5C33.5,35.7,34,35.7,34.4,35.7z"/>
					<path class="st8" d="M54.4,18.3c0,0.2,0,0.3,0,0.5c0,19.5,0,39,0.1,58.5c0,1-0.2,1.9-1,2.5c-0.8,0.6-1.8,0.7-2.7,0.3
						c-0.9-0.4-1.4-1.1-1.4-2.1c-0.1-2.1-0.1-4.2-0.1-6.3c0-3.3,0-6.6-0.1-10c0-0.8,0.1-1.5,0.4-2.3c0.4-1,0.5-2.1,0.4-3.2
						c-0.2-1.9-1.2-3.2-3-3.8c-0.4-0.2-0.6-0.3-0.6-0.8c0.2-3.6,0.2-7.2,0.4-10.7c0.3-4.4,0.9-8.8,2-13.1c0.7-2.5,1.5-5,2.8-7.2
						c0.4-0.6,0.8-1.2,1.3-1.7C53.3,18.3,53.8,18.1,54.4,18.3z"/>
				</g>
				<use xlink:href="#SVGID_3_"  style="overflow:visible;fill:none;stroke:#FFFFFF;stroke-width:2;"/>
			</g>
		</g>
	</g>
</switch>
</svg>
