<?xml version="1.0" encoding="utf-8"?>
<!-- Generator: Adobe Illustrator 21.1.0, SVG Export Plug-In . SVG Version: 6.00 Build 0)  -->
<!DOCTYPE svg PUBLIC "-//W3C//DTD SVG 1.1//EN" "http://www.w3.org/Graphics/SVG/1.1/DTD/svg11.dtd" [
	<!ENTITY ns_extend "http://ns.adobe.com/Extensibility/1.0/">
	<!ENTITY ns_ai "http://ns.adobe.com/AdobeIllustrator/10.0/">
	<!ENTITY ns_graphs "http://ns.adobe.com/Graphs/1.0/">
	<!ENTITY ns_vars "http://ns.adobe.com/Variables/1.0/">
	<!ENTITY ns_imrep "http://ns.adobe.com/ImageReplacement/1.0/">
	<!ENTITY ns_sfw "http://ns.adobe.com/SaveForWeb/1.0/">
	<!ENTITY ns_custom "http://ns.adobe.com/GenericCustomNamespace/1.0/">
	<!ENTITY ns_adobe_xpath "http://ns.adobe.com/XPath/1.0/">
]>
<svg version="1.1" xmlns:x="&ns_extend;" xmlns:i="&ns_ai;" xmlns:graph="&ns_graphs;"
	 xmlns="http://www.w3.org/2000/svg" xmlns:xlink="http://www.w3.org/1999/xlink" x="0px" y="0px" viewBox="0 0 232.3 174.1"
	 style="enable-background:new 0 0 232.3 174.1;" xml:space="preserve">
<style type="text/css">
	.st0{display:none;}
	.st1{display:inline;}
	.st2{fill:#322D59;}
	.st3{display:inline;opacity:0.2;}
	.st4{display:inline;opacity:0.44;}
	.st5{fill:none;stroke:#F2F2F2;stroke-miterlimit:10;}
	.st6{display:inline;stroke:#F2F2F2;stroke-miterlimit:10;}
	.st7{fill:#F2F2F2;}
	.st8{fill:#FFFFFF;}
	.st9{opacity:0.4;}
	.st10{opacity:0.5;fill:#73C69C;}
	.st11{fill:#73C69C;stroke:#73C69C;stroke-width:0.75;}
	.st12{fill:none;stroke:#F04E37;stroke-miterlimit:10;}
	.st13{fill:#F04E37;}
	.st14{fill:#27B67C;}
	.st15{fill:#73C69C;}
	.st16{fill:#4D4D4D;}
	.st17{fill:none;stroke:#FFFFFF;stroke-width:4;stroke-linecap:round;stroke-miterlimit:10;}
	.st18{fill:#58595B;}
	.st19{fill:#016D9A;}
	.st20{opacity:0.4;fill:#FFFFFF;}
	.st21{fill:none;stroke:#322D59;stroke-miterlimit:10;}
	.st22{fill:#7770AB;}
	.st23{fill:none;stroke:#73C69C;stroke-width:2;stroke-linecap:round;stroke-miterlimit:10;}
	.st24{fill:none;stroke:#F04E37;stroke-width:3;stroke-linecap:round;stroke-miterlimit:10;}
	.st25{fill:#F47A5C;}
	.st26{fill:none;stroke:#322D59;stroke-width:5;stroke-linecap:round;stroke-miterlimit:10;}
	.st27{fill:#F8A084;}
	.st28{fill:#A6D8C0;}
	.st29{fill:#BFE3D3;}
	.st30{fill:#BFE3D3;stroke:#BFE3D3;stroke-width:0.75;stroke-miterlimit:10;}
	.st31{fill:#E6E6E6;}
	.st32{enable-background:new    ;}
	.st33{fill:none;stroke:#27B67C;stroke-linecap:round;stroke-miterlimit:10;}
	.st34{fill:none;stroke:#FF931E;stroke-linecap:round;}
	.st35{fill:none;stroke:#A6D8C0;stroke-linecap:round;}
	.st36{opacity:0.3;}
	.st37{fill:none;stroke:#FFFFFF;stroke-width:0.75;}
	.st38{fill:none;stroke:#FFFFFF;stroke-width:0.75;stroke-dasharray:3.0029,3.0029;}
	.st39{fill:none;stroke:#C69C6D;stroke-linecap:round;}
	.st40{fill:none;stroke:#009245;stroke-linecap:round;}
	.st41{fill:none;stroke:#FCEE21;stroke-width:3;stroke-linecap:round;}
	.st42{fill:none;stroke:#FFFFFF;stroke-width:0.75;stroke-linecap:round;}
	.st43{fill:#5F588B;}
	.st44{opacity:0.15;fill:none;}
</style>
<switch>
	<foreignObject requiredExtensions="&ns_ai;" x="0" y="0" width="1" height="1">
		<i:pgfRef  xlink:href="#adobe_illustrator_pgf">
		</i:pgfRef>
	</foreignObject>
	<g i:extraneous="self">
		<g id="Layer_2" class="st0">
		</g>
		<g id="Layer_1">
			<g>
				<path d="M21.7,64.9c2.7,0,5.1-0.2,7.4,0.1c0.7,0.1,1.6,1.2,1.8,2c3,9.7,6,19.4,8.9,29.1c0.3,0.9,0.6,1.8,1.1,3.4
					c1.5-5.3,2.8-10,4.1-14.7c1.4-5,2.7-10,4.1-15.1c1.1-3.8,3.1-5.4,6.8-5.4c3.8,0,5.9,1.5,7,5.5c2.6,9.2,5,18.3,7.6,27.5
					c0.1,0.5,0.3,1.1,0.7,2.1c2.1-7,4.1-13.4,6.1-19.9c1.3-4.3,2.7-8.5,3.9-12.8c0.4-1.4,1.1-2,2.6-1.9c2.1,0.1,4.2,0,6.6,0
					c-1.4,4.6-2.7,9-4,13.3c-2.6,8.6-5.2,17.1-7.8,25.7c-1.5,4.9-5.4,6.9-10.3,5.3c-2.2-0.7-3.3-2.4-3.9-4.6
					C61.8,94.6,59,84.6,56,74.1c-0.6,2.1-1.1,3.7-1.5,5.3c-2.3,8.4-4.5,16.8-6.8,25.2c-0.9,3.3-2.8,4.8-6.3,5
					c-3.8,0.2-6.4-1.2-7.4-4.3C29.9,91.9,25.9,78.6,21.7,64.9z"/>
				<path d="M114.6,108.6c0-8.1,0-16,0-23.9c0-4.3,0-8.6,0-13c0-3.7,1.1-5.5,3.7-6.5c3.6-1.3,7.7-0.4,9.6,2.2
					c2.5,3.5,4.8,7.2,7.2,10.8c4.6,7,9.2,14,13.8,21.1c0.2,0.2,0.4,0.4,0.9,1c0-11.9,0-23.3,0-34.9c2.8,0,5.5,0,8.3,0
					c0,0.9,0.1,1.7,0.1,2.4c0,11.4,0,22.8,0,34.2c0,4-1.3,6.1-4.4,7c-3.7,1.2-7.2,0.1-9.2-3c-6.8-10.2-13.6-20.5-20.3-30.8
					c-0.2-0.4-0.5-0.7-1.1-1.5c0,11.9,0,23.3,0,34.8C120.2,108.6,117.5,108.6,114.6,108.6z"/>
				<path d="M207.4,71.2c-2.4,0-4.6,0-6.9,0c-5.2,0-10.4,0-15.6,0c-1.4,0-2.8,0.1-4.1,0.2c-2.9,0.4-4.2,1.7-4.3,4.7
					c-0.1,7.1-0.1,14.2,0,21.3c0,2.9,1.4,4.6,4.3,4.7c5.6,0.3,11.2,0.3,16.8,0.1c3.1-0.1,4.4-2.1,4.5-5.3c0-4,0-8,0-12.1
					c2.8,0,5.4,0,8.3,0c0,5.5,0.5,11.1-0.2,16.5c-0.6,4.7-4.8,7-9.1,7.2c-8.3,0.3-16.6,0.3-24.9-0.3c-4.7-0.3-8.8-3.2-8.7-10.1
					c0.1-7.6,0-15.1,0-22.7c0-5.4,2.4-8.3,7.6-9.5c2-0.5,4.2-0.8,6.3-0.8c8.1-0.1,16.1,0,24.2,0c0.6,0,1.1,0.1,1.7,0.2
					C207.4,67,207.4,69,207.4,71.2z"/>
				<path d="M104.9,77.6c0,10.5,0,20.7,0,31c-2.8,0-5.6,0-8.5,0c-0.1-0.7-0.2-1.4-0.2-2.1c0-7.6,0-15.1,0-22.7
					c0-1.4,0.4-2.2,1.7-2.8C100.2,80.1,102.4,78.9,104.9,77.6z"/>
				<path class="st16" d="M96.5,64.8c2.9,0,5.5,0,8.5,0c0,2.4,0.1,4.7,0,7c0,0.4-0.6,1-1,1.2c-2.4,1.2-4.8,2.3-7.4,3.5
					C96.5,72.5,96.5,68.8,96.5,64.8z"/>
			</g>
		</g>
	</g>
</switch>
</svg>
