<svg width="668" height="404" viewBox="0 0 668 404" fill="none" xmlns="http://www.w3.org/2000/svg">
<g opacity="0.3">
<path fill-rule="evenodd" clip-rule="evenodd" d="M208.292 17.525C206.288 16.9558 204.202 18.1185 203.633 20.1221L163.655 160.828C163.085 162.831 164.248 164.917 166.252 165.486C168.255 166.056 170.341 164.893 170.91 162.889L210.889 22.1837C211.458 20.1801 210.295 18.0943 208.292 17.525Z" fill="#082546"/>
<path fill-rule="evenodd" clip-rule="evenodd" d="M493.368 17.525C491.364 16.9558 489.278 18.1185 488.709 20.1221L448.731 160.828C448.161 162.831 449.324 164.917 451.328 165.486C453.331 166.056 455.417 164.893 455.986 162.889L495.965 22.1837C496.534 20.1801 495.371 18.0943 493.368 17.525Z" fill="#082546"/>
<path fill-rule="evenodd" clip-rule="evenodd" d="M50.6679 246.031C48.6642 245.462 46.5785 246.624 46.0092 248.628L6.03075 389.334C5.46147 391.337 6.62423 393.423 8.62784 393.992C10.6314 394.562 12.7172 393.399 13.2865 391.395L53.2649 250.69C53.8342 248.686 52.6715 246.6 50.6679 246.031Z" fill="#082546"/>
<path fill-rule="evenodd" clip-rule="evenodd" d="M204.668 246.031C202.664 245.462 200.579 246.624 200.009 248.628L160.031 389.334C159.462 391.337 160.624 393.423 162.628 393.992C164.631 394.562 166.717 393.399 167.286 391.395L207.265 250.69C207.834 248.686 206.671 246.6 204.668 246.031Z" fill="#082546"/>
<path fill-rule="evenodd" clip-rule="evenodd" d="M377.662 57.7424C380.568 58.5682 382.255 61.5935 381.429 64.4996L356.887 150.878C356.061 153.784 353.036 155.47 350.13 154.645C347.223 153.819 345.537 150.793 346.363 147.887L370.905 61.5094C371.731 58.6032 374.756 56.9167 377.662 57.7424Z" fill="#1355A1"/>
<path fill-rule="evenodd" clip-rule="evenodd" d="M662.738 57.7421C665.644 58.5678 667.331 61.5931 666.505 64.4993L641.963 150.877C641.137 153.783 638.111 155.47 635.205 154.644C632.299 153.818 630.613 150.793 631.438 147.887L655.981 61.5091C656.806 58.6029 659.832 56.9163 662.738 57.7421Z" fill="#1355A1"/>
<path fill-rule="evenodd" clip-rule="evenodd" d="M285.089 35.7026C286.674 36.1529 287.594 37.8031 287.144 39.3883L245.925 184.459C245.475 186.044 243.824 186.964 242.239 186.514C240.654 186.063 239.734 184.413 240.184 182.828L281.403 37.7573C281.854 36.1721 283.504 35.2522 285.089 35.7026Z" fill="#1355A1"/>
<path fill-rule="evenodd" clip-rule="evenodd" d="M570.165 35.7026C571.75 36.1529 572.67 37.8031 572.22 39.3883L531.001 184.459C530.55 186.044 528.9 186.964 527.315 186.514C525.73 186.063 524.81 184.413 525.26 182.828L566.479 37.7573C566.93 36.1721 568.58 35.2522 570.165 35.7026Z" fill="#1355A1"/>
<path fill-rule="evenodd" clip-rule="evenodd" d="M239.855 243.464C243.29 244.439 245.283 248.015 244.307 251.449L226.633 313.653C225.657 317.088 222.082 319.081 218.647 318.105C215.213 317.129 213.219 313.554 214.195 310.12L231.869 247.915C232.845 244.481 236.42 242.488 239.855 243.464Z" fill="#1355A1"/>
<path fill-rule="evenodd" clip-rule="evenodd" d="M524.931 243.464C528.365 244.439 530.358 248.015 529.382 251.449L511.709 313.653C510.733 317.088 507.157 319.081 503.723 318.105C500.288 317.129 498.295 313.554 499.271 310.12L516.945 247.915C517.921 244.481 521.496 242.488 524.931 243.464Z" fill="#1355A1"/>
<path fill-rule="evenodd" clip-rule="evenodd" d="M23.4266 230.851C26.8612 231.827 28.8544 235.403 27.8785 238.837L10.2046 301.041C9.22871 304.476 5.65335 306.469 2.21877 305.493C-1.2158 304.517 -3.20898 300.942 -2.23312 297.507L15.4408 235.303C16.4167 231.869 19.992 229.876 23.4266 230.851Z" fill="#1355A1"/>
<path fill-rule="evenodd" clip-rule="evenodd" d="M74.8997 247.152C75.5602 247.34 75.9435 248.027 75.7559 248.688L32.2816 401.697C32.0939 402.357 31.4064 402.741 30.7459 402.553C30.0854 402.365 29.7021 401.678 29.8897 401.017L73.364 248.008C73.5517 247.348 74.2392 246.964 74.8997 247.152Z" fill="#082546"/>
<path fill-rule="evenodd" clip-rule="evenodd" d="M471.004 323.466C477.741 325.38 481.651 332.394 479.737 339.131L464.863 391.48C462.949 398.217 455.936 402.127 449.198 400.212C442.461 398.298 438.552 391.285 440.466 384.548L455.34 332.199C457.254 325.462 464.267 321.552 471.004 323.466Z" fill="#082546"/>
<path fill-rule="evenodd" clip-rule="evenodd" d="M253.841 1.89692C257.529 2.94462 259.668 6.78319 258.621 10.4706L248.515 46.0388C247.467 49.7263 243.629 51.8662 239.941 50.8185C236.254 49.7708 234.114 45.9322 235.162 42.2448L245.267 6.67655C246.315 2.98913 250.154 0.849219 253.841 1.89692Z" fill="#1355A1"/>
<path fill-rule="evenodd" clip-rule="evenodd" d="M432.716 5.97553C436.404 7.02323 438.543 10.8618 437.496 14.5492L427.39 50.1175C426.342 53.8049 422.504 55.9448 418.816 54.8971C415.129 53.8494 412.989 50.0108 414.037 46.3234L424.142 10.7552C425.19 7.06775 429.029 4.92783 432.716 5.97553Z" fill="#1355A1"/>
<path fill-rule="evenodd" clip-rule="evenodd" d="M322.577 341.897C326.264 342.945 328.404 346.783 327.356 350.471L317.25 386.039C316.203 389.727 312.364 391.866 308.677 390.819C304.989 389.771 302.849 385.932 303.897 382.245L314.003 346.677C315.051 342.989 318.889 340.849 322.577 341.897Z" fill="#1355A1"/>
<path fill-rule="evenodd" clip-rule="evenodd" d="M138.013 246.408C138.806 246.633 139.266 247.458 139.04 248.251L98.278 391.716C98.0528 392.508 97.2277 392.968 96.4351 392.743C95.6425 392.518 95.1825 391.693 95.4077 390.9L136.17 247.435C136.395 246.643 137.22 246.183 138.013 246.408Z" fill="#082546"/>
<path fill-rule="evenodd" clip-rule="evenodd" d="M425.013 230.408C425.806 230.633 426.266 231.458 426.04 232.251L385.278 375.716C385.053 376.508 384.228 376.968 383.435 376.743C382.643 376.518 382.183 375.693 382.408 374.9L423.17 231.435C423.395 230.643 424.22 230.183 425.013 230.408Z" fill="#082546"/>
<path fill-rule="evenodd" clip-rule="evenodd" d="M326.377 11.2727C326.641 11.3477 326.794 11.6227 326.719 11.8869L263.014 236.099C262.939 236.363 262.664 236.516 262.4 236.441C262.136 236.366 261.982 236.091 262.057 235.827L325.762 11.6151C325.837 11.3509 326.112 11.1976 326.377 11.2727Z" fill="#1355A1"/>
<path fill-rule="evenodd" clip-rule="evenodd" d="M611.453 11.2727C611.717 11.3477 611.87 11.6227 611.795 11.8869L548.09 236.099C548.015 236.363 547.74 236.516 547.476 236.441C547.212 236.366 547.058 236.091 547.133 235.827L610.838 11.6151C610.913 11.3509 611.188 11.1976 611.453 11.2727Z" fill="#1355A1"/>
<path fill-rule="evenodd" clip-rule="evenodd" d="M146.658 111.101C146.923 111.176 147.076 111.451 147.001 111.716L83.296 335.927C83.2209 336.191 82.9459 336.345 82.6817 336.27C82.4175 336.195 82.2642 335.92 82.3392 335.655L146.044 111.444C146.119 111.18 146.394 111.026 146.658 111.101Z" fill="#1355A1"/>
<path fill-rule="evenodd" clip-rule="evenodd" d="M431.734 111.101C431.999 111.176 432.152 111.451 432.077 111.716L368.372 335.927C368.297 336.191 368.022 336.345 367.758 336.27C367.493 336.195 367.34 335.92 367.415 335.655L431.12 111.444C431.195 111.18 431.47 111.026 431.734 111.101Z" fill="#1355A1"/>
<path fill-rule="evenodd" clip-rule="evenodd" d="M271.436 264.113C271.7 264.188 271.88 264.371 271.837 264.523L235.347 392.95C235.304 393.101 235.055 393.163 234.791 393.088C234.526 393.013 234.347 392.829 234.39 392.678L270.88 264.251C270.923 264.1 271.172 264.038 271.436 264.113Z" fill="#1355A1"/>
<path fill-rule="evenodd" clip-rule="evenodd" d="M556.512 264.113C556.776 264.188 556.961 264.353 556.924 264.482L525.877 373.752C525.841 373.881 525.597 373.924 525.333 373.849C525.068 373.774 524.884 373.609 524.92 373.48L555.967 264.21C556.004 264.081 556.248 264.038 556.512 264.113Z" fill="#1355A1"/>
<path fill-rule="evenodd" clip-rule="evenodd" d="M322.768 184.844C324.485 185.332 325.482 187.119 324.994 188.837L276.419 359.797C275.931 361.514 274.144 362.511 272.426 362.023C270.709 361.535 269.713 359.747 270.201 358.03L318.775 187.07C319.263 185.352 321.051 184.356 322.768 184.844Z" fill="#082546"/>
<path fill-rule="evenodd" clip-rule="evenodd" d="M607.844 184.844C609.561 185.332 610.558 187.119 610.07 188.837L561.495 359.797C561.007 361.514 559.22 362.511 557.502 362.023C555.785 361.535 554.788 359.747 555.276 358.03L603.851 187.07C604.339 185.352 606.127 184.356 607.844 184.844Z" fill="#082546"/>
<path fill-rule="evenodd" clip-rule="evenodd" d="M205.356 146.708C207.073 147.196 208.07 148.984 207.582 150.701L159.007 321.661C158.52 323.378 156.732 324.375 155.015 323.887C153.297 323.399 152.301 321.611 152.789 319.894L201.363 148.934C201.851 147.217 203.639 146.22 205.356 146.708Z" fill="#082546"/>
<path fill-rule="evenodd" clip-rule="evenodd" d="M490.432 146.708C492.149 147.196 493.146 148.984 492.658 150.701L444.083 321.661C443.595 323.378 441.808 324.375 440.091 323.887C438.373 323.399 437.377 321.611 437.865 319.894L486.439 148.934C486.927 147.217 488.715 146.22 490.432 146.708Z" fill="#082546"/>
<path fill-rule="evenodd" clip-rule="evenodd" d="M126.723 67.2644C128.44 67.7523 129.437 69.54 128.949 71.2573L80.3741 242.217C79.8861 243.935 78.0984 244.931 76.3812 244.443C74.6639 243.955 73.6673 242.168 74.1552 240.45L122.73 69.4903C123.218 67.773 125.005 66.7764 126.723 67.2644Z" fill="#1355A1"/>
<path fill-rule="evenodd" clip-rule="evenodd" d="M395.298 129.198C397.015 129.686 398.012 131.473 397.524 133.191L348.949 304.151C348.462 305.868 346.674 306.865 344.957 306.377C343.239 305.889 342.243 304.101 342.731 302.384L391.305 131.424C391.793 129.706 393.581 128.71 395.298 129.198Z" fill="#082546"/>
<path fill-rule="evenodd" clip-rule="evenodd" d="M76.9145 24.1558C77.9713 24.4561 78.5846 25.5562 78.2844 26.613L33.2799 185.008C32.9796 186.065 31.8795 186.678 30.8227 186.378C29.7659 186.078 29.1526 184.977 29.4529 183.921L74.4574 25.5256C74.7576 24.4688 75.8578 23.8555 76.9145 24.1558Z" fill="#1355A1"/>
<path fill-rule="evenodd" clip-rule="evenodd" d="M43.1465 35.0958C44.2033 35.3961 44.8166 36.4962 44.5163 37.553L7.77928 166.85C7.47901 167.907 6.3789 168.52 5.32211 168.22C4.26532 167.92 3.65203 166.82 3.9523 165.763L40.6893 36.4657C40.9896 35.4089 42.0897 34.7956 43.1465 35.0958Z" fill="#082546"/>
</g>
</svg>
