<svg width="40" height="41" viewBox="0 0 40 41" fill="none" xmlns="http://www.w3.org/2000/svg">
<path d="M40 20.5C40 9.4543 31.0457 0.5 20 0.5C8.9543 0.5 0 9.4543 0 20.5C0 30.4826 7.3137 38.7567 16.875 40.257V26.2813H11.7969V20.5H16.875V16.0938C16.875 11.0812 19.8609 8.31251 24.4293 8.31251C26.6175 8.31251 28.9063 8.70313 28.9063 8.70313V13.625H26.3843C23.8998 13.625 23.125 15.1667 23.125 16.7483V20.5H28.6719L27.7852 26.2813H23.125V40.257C32.6863 38.7567 40 30.4826 40 20.5Z" fill="#316FF6"/>
<path d="M27.7852 26.2812L28.6719 20.5H23.125V16.7483C23.125 15.1667 23.8998 13.625 26.3843 13.625H28.9063V8.70312C28.9063 8.70312 26.6175 8.3125 24.4293 8.3125C19.8608 8.3125 16.875 11.0812 16.875 16.0938V20.5H11.7969V26.2812H16.875V40.257C17.9088 40.419 18.9536 40.5003 20 40.5C21.0631 40.5 22.1067 40.4168 23.125 40.257V26.2812H27.7852Z" fill="white"/>
</svg>
