<svg width="48" height="41" viewBox="0 0 48 41" fill="none" xmlns="http://www.w3.org/2000/svg">
<path d="M45.1573 37.9633C45.2581 37.9643 45.358 37.9446 45.4509 37.9054C45.5437 37.8662 45.6275 37.8083 45.6971 37.7354C45.7666 37.6624 45.8205 37.576 45.8552 37.4813C45.89 37.3867 45.9049 37.286 45.8991 37.1854C45.8991 36.6336 45.5662 36.37 44.8833 36.37H43.7798V39.2587H44.1948V37.9995H44.7049L44.7165 38.0148L45.508 39.2587H45.9518L45.1003 37.9713L45.1573 37.9633ZM44.6773 37.674H44.196V36.6974H44.806C45.1211 36.6974 45.4804 36.7489 45.4804 37.1614C45.4804 37.6359 45.1168 37.674 44.6748 37.674M34.3308 34.3432H28.4455V25.1266C28.4455 22.9288 28.4062 20.0996 25.3845 20.0996C22.3192 20.0996 21.8502 22.4942 21.8502 24.9666V34.3426H15.9649V15.3895H21.6148V17.9796H21.6939C22.2593 17.0129 23.0764 16.2176 24.058 15.6784C25.0397 15.1393 26.1492 14.8765 27.2684 14.918C33.2334 14.918 34.3332 18.8416 34.3332 23.9459L34.3308 34.3432ZM9.32434 12.7987C8.64886 12.7988 7.98851 12.5986 7.42679 12.2235C6.86508 11.8483 6.42723 11.315 6.16862 10.6909C5.91001 10.0669 5.84226 9.38023 5.97392 8.7177C6.10558 8.05517 6.43075 7.44656 6.9083 6.96883C7.38586 6.49111 7.99435 6.16572 8.65683 6.03382C9.31932 5.90192 10.006 5.96943 10.6302 6.22782C11.2543 6.4862 11.7877 6.92385 12.1631 7.48543C12.5385 8.04701 12.7389 8.70729 12.7391 9.38278C12.7391 9.83129 12.6509 10.2754 12.4793 10.6898C12.3077 11.1042 12.0562 11.4808 11.7392 11.798C11.4221 12.1152 11.0456 12.3668 10.6313 12.5385C10.2169 12.7102 9.77285 12.7986 9.32434 12.7987ZM12.267 34.3432H6.37556V15.3895H12.267V34.3432ZM37.2649 0.502705H3.41819C2.64997 0.494036 1.90973 0.790714 1.36013 1.32755C0.810541 1.86438 0.496558 2.59745 0.487183 3.36566V37.3527C0.496237 38.1213 0.810018 38.8549 1.35959 39.3923C1.90917 39.9297 2.64959 40.2269 3.41819 40.2187H37.2649C38.035 40.2284 38.7775 39.932 39.3292 39.3946C39.881 38.8572 40.1968 38.1228 40.2075 37.3527V3.36321C40.1965 2.59347 39.8804 1.85957 39.3287 1.32275C38.7769 0.785932 38.0346 0.490101 37.2649 0.500253" fill="#0A66C2"/>
<path d="M44.7275 35.083C44.0115 35.0899 43.3273 35.3801 42.8247 35.89C42.322 36.4 42.0417 37.0883 42.0452 37.8044C42.0486 38.5204 42.3355 39.206 42.843 39.7111C43.3506 40.2162 44.0375 40.4998 44.7536 40.4998C45.4697 40.4998 46.1566 40.2162 46.6642 39.7111C47.1717 39.206 47.4586 38.5204 47.462 37.8044C47.4655 37.0883 47.1852 36.4 46.6825 35.89C46.1799 35.3801 45.4957 35.0899 44.7797 35.083H44.7275ZM44.7275 40.1897C44.2579 40.1976 43.7965 40.0659 43.4016 39.8115C43.0068 39.5571 42.6962 39.1913 42.5093 38.7604C42.3223 38.3294 42.2673 37.8528 42.3513 37.3906C42.4353 36.9284 42.6544 36.5016 42.9809 36.1639C43.3075 35.8263 43.7269 35.5931 44.186 35.4938C44.6451 35.3945 45.1233 35.4336 45.5602 35.6061C45.9971 35.7786 46.3731 36.0768 46.6405 36.4629C46.9079 36.8491 47.0548 37.3059 47.0627 37.7755V37.8154C47.0758 38.4315 46.8437 39.0276 46.4174 39.4726C45.9912 39.9177 45.4056 40.1752 44.7895 40.1885H44.7282" fill="#0A66C2"/>
</svg>
