<svg width="50" height="41" viewBox="0 0 50 41" fill="none" xmlns="http://www.w3.org/2000/svg">
<path d="M15.5632 40.5C34.2385 40.5 44.4513 25.1124 44.4513 11.7688C44.4513 11.3318 44.4424 10.8968 44.4226 10.4636C46.4097 9.0336 48.1247 7.26295 49.4872 5.23463C47.668 6.03896 45.7103 6.58035 43.6567 6.82446C45.7528 5.5742 47.3621 3.59674 48.1213 1.23925C46.1282 2.41523 43.9478 3.24419 41.6741 3.69039C39.8214 1.72763 37.1838 0.5 34.2629 0.5C28.656 0.5 24.1092 5.02223 24.1092 10.5965C24.1092 11.389 24.1984 12.1598 24.3726 12.899C15.9342 12.4767 8.45157 8.45854 3.4438 2.34863C2.54187 3.88955 2.06743 5.64099 2.06897 7.42399C2.06897 10.9274 3.86144 14.0201 6.58719 15.8295C4.97489 15.7805 3.39796 15.3474 1.98893 14.5665C1.98743 14.6089 1.98743 14.6502 1.98743 14.6955C1.98743 19.5858 5.48719 23.6689 10.1329 24.5941C9.2604 24.8305 8.36003 24.9501 7.45569 24.9496C6.81525 24.9491 6.1763 24.8881 5.54747 24.7674C6.8401 28.7796 10.5883 31.6993 15.0321 31.7809C11.5571 34.4898 7.17953 36.1033 2.42185 36.1033C1.60333 36.1033 0.794773 36.057 0 35.9636C4.49348 38.8281 9.82905 40.4995 15.5637 40.4995" fill="#1DA1F2"/>
</svg>
