<svg width="183" height="170" viewBox="0 0 183 170" fill="none" xmlns="http://www.w3.org/2000/svg">
<g clip-path="url(#clip0_308_530)">
<path d="M117.754 147.055C152.45 133.567 169.656 94.4722 156.184 59.7342C142.713 24.9963 103.664 7.76973 68.968 21.2577C34.2715 34.7456 17.0656 73.8404 30.5374 108.578C44.0092 143.316 83.0573 160.543 117.754 147.055Z" fill="#31AE7C"/>
<path d="M93.3398 151.987C55.9762 151.987 25.601 121.575 25.601 84.167C25.601 46.7587 55.9762 16.3125 93.3398 16.3125C130.703 16.3125 161.079 46.7241 161.079 84.1324C161.079 121.541 130.703 151.952 93.3398 151.952V151.987ZM93.3398 17.0399C56.3568 17.0052 26.2583 47.1397 26.2583 84.167C26.2583 121.194 56.3222 151.294 93.3052 151.294C130.288 151.294 160.352 121.194 160.352 84.167C160.352 47.1397 130.288 17.0052 93.3398 17.0052V17.0399Z" fill="#1B3054"/>
<path d="M160.733 85.0004C158.83 84.0305 157.342 82.645 156.789 80.7053C155.474 76.2717 157.1 72.6348 159.349 70.4527C156.097 54.6927 147.344 40.9417 135.201 31.3125C135.789 34.5684 135.616 38.24 133.506 41.6691C133.506 41.6691 132.814 35.6075 128.143 35.9539C123.473 36.3003 128.143 41.4959 124.511 44.0937C120.878 46.6915 125.722 51.0211 128.316 47.9038C130.911 44.7864 134.717 48.2502 132.987 51.0211C131.257 53.7921 127.797 54.3117 124.165 52.753C120.532 51.1943 121.397 57.2559 118.111 58.8145C114.824 60.3732 111.537 58.8145 111.537 58.8145L115.239 63.4559C116.208 64.6682 116.104 66.3655 114.997 67.4739L113.786 68.6862C113.786 68.6862 112.99 65.8459 110.845 65.6727C108.666 65.4995 109.531 70.4527 106.59 70.6259C103.649 70.799 103.303 75.1287 107.282 75.4751C111.261 75.8215 111.779 78.0036 111.779 78.0036C111.779 78.0036 115.758 77.3109 115.758 73.3276C115.758 69.3443 119.91 70.4527 119.91 70.4527C119.91 70.4527 120.532 67.0582 123.992 68.2013C127.451 69.3443 131.188 62.6593 134.198 70.7991C137.242 78.9388 140.771 75.9254 140.771 75.9254L141.809 71.9421C141.809 71.9421 143.642 78.1075 147.448 78.0036C151.253 77.9343 153.606 84.6886 147.448 86.2473C141.29 87.806 139.387 84.273 139.387 84.273C139.387 84.273 139.733 88.7758 137.138 88.7758C134.544 88.7758 132.883 85.1389 132.883 85.1389C132.883 85.1389 127.763 85.6585 127.244 83.2339C126.725 80.8092 129.493 81.0517 129.493 81.0517C129.493 81.0517 129.666 76.722 126.621 77.8304C123.577 78.9735 117.453 77.8304 117.453 77.8304C117.453 77.8304 115.274 81.9176 111.572 81.2942C107.836 80.6707 103.857 79.493 101.608 84.2383C99.3595 88.9836 95.2772 88.7412 95.2772 88.7412L90.0532 93.5558C90.0532 93.5558 86.9396 92.0664 85.9017 94.5949C84.8638 97.1234 88.7732 97.6083 86.4898 104.189C84.1719 110.771 85.106 112.849 86.386 113.784C86.386 113.784 84.76 119.083 91.3333 121.3C91.3333 121.3 94.8966 125.803 100.916 122.928C100.916 122.928 104.376 125.907 108.285 123.898C112.195 121.889 116 124.314 116.139 126.496C116.139 126.496 120.186 125.561 120.048 128.817C119.944 132.038 116.346 131.345 116.346 131.345C116.346 131.345 121.328 135.848 118.076 141.147C118.076 141.147 111.849 140.801 112.298 144.369C112.506 145.962 111.779 147.798 110.949 149.356C139.352 141.632 160.318 115.793 160.664 85.0004H160.733Z" fill="white"/>
<path d="M110.326 149.91L110.707 149.183C111.745 147.278 112.195 145.684 112.022 144.403C111.918 143.572 112.125 142.844 112.679 142.255C114.063 140.766 117.142 140.766 117.972 140.766C120.809 135.847 116.381 131.726 116.173 131.552L115.274 130.721L116.485 130.964C116.485 130.964 118.076 131.241 119.01 130.479C119.494 130.098 119.737 129.509 119.771 128.747C119.771 128.019 119.598 127.534 119.183 127.188C118.214 126.357 116.277 126.807 116.242 126.807L115.827 126.911V126.495C115.758 125.664 115.101 124.764 114.063 124.175C112.402 123.239 110.326 123.205 108.493 124.175C104.929 126.01 101.677 123.898 100.916 123.309C95.3118 125.872 91.7138 122.2 91.1949 121.577C85.279 119.568 85.8325 114.996 86.0401 113.922C84.3103 112.467 84.3449 109.385 86.2131 104.085C87.5623 100.206 86.732 98.5777 86.0401 97.2961C85.5903 96.4302 85.1752 95.6335 85.6249 94.4905C85.9363 93.7631 86.4206 93.2436 87.078 93.0011C88.2196 92.5508 89.4997 93.0011 90.0186 93.2089L95.1734 88.429H95.3118C95.3118 88.429 99.1865 88.6021 101.297 84.1339C103.476 79.5618 107.282 80.2199 110.638 80.8087C110.984 80.878 111.295 80.9127 111.606 80.9819C115.031 81.5361 117.107 77.726 117.142 77.6914L117.246 77.4836H117.488C117.488 77.4836 123.577 78.6266 126.483 77.5528C127.348 77.2411 128.074 77.2757 128.628 77.6914C129.873 78.592 129.804 80.9819 129.804 81.0858V81.4669H129.423C129.423 81.4669 128.247 81.3629 127.728 81.9518C127.486 82.2289 127.417 82.6445 127.521 83.1987C127.901 84.9306 131.43 84.9652 132.779 84.8267H133.021L133.125 85.0345C133.125 85.0345 134.717 88.4636 137.035 88.4636C137.484 88.4636 137.83 88.325 138.107 88.0133C139.11 86.9395 138.937 84.3764 138.937 84.3418L138.799 82.7138L139.56 84.1686C139.56 84.1686 141.428 87.4591 147.206 85.9697C149.662 85.3462 150.977 83.7529 150.7 81.7093C150.492 80.0814 149.108 78.3841 147.309 78.4188C147.309 78.4188 147.24 78.4188 147.206 78.4188C144.23 78.4188 142.431 74.9897 141.705 73.1885L140.909 76.202L140.84 76.2713C140.84 76.2713 139.733 77.2065 138.245 76.8255C136.516 76.3752 134.993 74.4355 133.713 71.041C132.952 68.9628 132.087 67.7505 131.084 67.3348C130.012 66.8845 128.835 67.4041 127.59 67.9583C126.31 68.5125 125.03 69.1013 123.68 68.651C122.712 68.3393 121.916 68.3739 121.293 68.755C120.29 69.3438 120.048 70.6254 120.048 70.66L119.979 71.041L119.598 70.9371C119.598 70.9371 117.799 70.4522 116.727 71.2835C116.173 71.6991 115.896 72.4265 115.896 73.4656C115.896 77.6914 111.676 78.488 111.641 78.488L111.33 78.5573L111.261 78.2456C111.261 78.2456 110.707 76.3059 107.074 75.9942C104.791 75.7863 103.788 74.3662 103.822 73.05C103.822 71.8377 104.722 70.5561 106.382 70.4522C107.732 70.3829 108.147 69.136 108.562 67.8544C108.977 66.6421 109.392 65.4298 110.672 65.5337C112.437 65.6722 113.371 67.3695 113.717 68.27L114.547 67.4734C115.516 66.5035 115.585 64.9795 114.755 63.9404L110.153 58.1213L111.503 58.7448C111.503 58.7448 114.686 60.1995 117.799 58.7448C119.114 58.1213 119.702 56.6665 120.29 55.281C120.774 54.0687 121.259 52.9257 122.227 52.5447C122.781 52.3369 123.404 52.3715 124.13 52.6832C127.728 54.2419 130.946 53.6184 132.537 51.0899C133.333 49.8083 132.779 48.3882 131.845 47.7301C130.98 47.1066 129.631 46.9334 128.42 48.3882C127.555 49.3927 126.379 49.8083 125.168 49.4966C123.957 49.1849 122.954 48.1457 122.746 47.0027C122.643 46.3792 122.643 45.1323 124.165 44.0932C125.722 42.9848 125.583 41.3222 125.479 39.7289C125.376 38.5512 125.306 37.4775 125.929 36.7154C126.344 36.2305 127.002 35.9534 127.97 35.8841C131.741 35.607 133.091 39.2093 133.506 40.9758C134.924 38.2395 135.339 35.1221 134.682 31.6584L134.509 30.7578L135.236 31.3466C147.69 41.2183 156.304 55.2118 159.522 70.6946V70.8678L159.418 71.0064C158.173 72.2187 155.405 75.6478 156.962 80.9127C157.446 82.5753 158.726 83.9261 160.733 84.9652L160.906 85.0691V85.277C160.56 115.481 140.01 142.048 110.949 149.945L110.153 150.153L110.326 149.91ZM110.534 81.4669C107.109 80.878 103.892 80.2892 101.954 84.411C99.8785 88.7753 96.2459 89.0871 95.4502 89.1217L90.157 94.0056L89.9494 93.9017C89.9494 93.9017 88.4618 93.2089 87.3201 93.6246C86.8358 93.7977 86.4898 94.1788 86.2477 94.733C85.9017 95.5643 86.1785 96.1184 86.6282 96.9497C87.3201 98.3006 88.2888 100.136 86.8358 104.293C84.4833 110.978 85.5903 112.744 86.5936 113.472L86.8012 113.61L86.732 113.853C86.6628 114.061 85.3136 118.875 91.4717 120.919H91.5754L91.6446 121.023C91.783 121.196 95.1388 125.283 100.813 122.547L101.02 122.443L101.193 122.581C101.193 122.581 104.514 125.387 108.181 123.517C110.257 122.477 112.575 122.477 114.443 123.517C115.55 124.14 116.277 125.075 116.485 126.01C117.176 125.907 118.664 125.803 119.633 126.599C120.221 127.084 120.498 127.812 120.463 128.747C120.428 129.751 120.082 130.513 119.46 130.998C118.802 131.518 117.938 131.656 117.28 131.691C118.56 133.18 121.086 136.99 118.456 141.286L118.353 141.459H118.145C118.145 141.459 117.972 141.459 117.73 141.459C116.761 141.459 114.236 141.563 113.163 142.74C112.783 143.156 112.61 143.675 112.714 144.334C112.887 145.581 112.541 147.105 111.676 148.836C139.975 140.801 159.937 114.753 160.352 85.2423C158.276 84.1339 156.962 82.6445 156.443 80.8434C155.336 76.9986 156.27 73.0846 158.934 70.3829C155.785 55.4196 147.552 41.8764 135.651 32.1779C136.135 35.8149 135.512 39.0708 133.782 41.911L133.264 42.777L133.16 41.7725C133.16 41.53 132.433 36.0573 128.178 36.3691C127.417 36.4383 126.898 36.6115 126.621 36.9579C126.171 37.4775 126.241 38.4127 126.31 39.4864C126.448 41.1144 126.621 43.1233 124.718 44.4742C123.819 45.0977 123.438 45.8943 123.577 46.7256C123.75 47.6262 124.545 48.4228 125.514 48.6653C126.068 48.8039 127.14 48.8731 128.04 47.7994C129.527 45.9982 131.326 46.2753 132.399 47.0374C133.575 47.9033 134.301 49.7044 133.264 51.3324C131.499 54.1726 127.936 54.9 123.992 53.2028C123.438 52.9603 122.954 52.9257 122.608 53.0642C121.916 53.3413 121.501 54.3458 121.051 55.4542C120.463 56.909 119.771 58.5369 118.214 59.2643C116 60.3035 113.786 60.0263 112.506 59.68L115.447 63.3862C116.519 64.737 116.381 66.6421 115.17 67.8544L113.544 69.4823L113.371 68.9281C113.371 68.9281 112.644 66.3303 110.742 66.1918C110.05 66.1572 109.738 66.8499 109.358 68.0622C108.908 69.3784 108.354 71.041 106.555 71.1449C105.241 71.2142 104.653 72.1841 104.618 73.05C104.618 73.9852 105.275 75.1282 107.247 75.3014C110.534 75.5785 111.606 77.0679 111.918 77.7607C112.783 77.5182 115.343 76.583 115.343 73.5003C115.343 72.2533 115.723 71.3528 116.45 70.7639C117.488 69.9673 118.941 70.1058 119.564 70.2097C119.737 69.6902 120.117 68.755 121.051 68.2008C121.847 67.7158 122.85 67.6812 123.992 68.0276C125.064 68.3739 126.206 67.889 127.382 67.3348C128.697 66.746 130.046 66.1572 131.395 66.7114C132.572 67.1963 133.54 68.5471 134.405 70.8332C135.858 74.7819 137.415 75.9249 138.453 76.202C139.387 76.4444 140.114 76.0288 140.356 75.8556L141.67 70.7986L142.016 71.9762C142.016 71.9762 143.781 77.7953 147.24 77.7953C147.275 77.7953 147.344 77.7953 147.379 77.7953C149.558 77.7953 151.115 79.7696 151.392 81.6747C151.634 83.5451 150.734 85.8658 147.379 86.6971C142.95 87.8401 140.632 86.3854 139.595 85.3809C139.56 86.3507 139.352 87.7362 138.591 88.5329C138.176 88.9832 137.623 89.2256 137 89.2256C134.578 89.2256 132.987 86.42 132.537 85.5887C131.465 85.658 127.278 85.7965 126.794 83.4065C126.621 82.6099 126.76 81.9864 127.14 81.5361C127.659 80.9473 128.524 80.8434 129.008 80.8087C129.008 80.0814 128.801 78.8344 128.109 78.3149C127.728 78.0378 127.244 78.0378 126.621 78.2802C123.853 79.3193 118.699 78.5227 117.522 78.3495C117.003 79.2154 114.859 82.3328 111.399 81.7786C111.053 81.7093 110.742 81.6747 110.396 81.6054" fill="#1B3054"/>
<path d="M53.3123 117.803C46.151 118.6 43.8676 108.209 43.8676 108.209C43.8676 108.209 38.9204 107.759 39.474 102.217C40.0275 96.6747 35.5646 93.3149 35.5646 93.3149C35.5646 93.3149 35.8068 83.9628 32.9007 81.9885C30.0293 80.0142 30.2368 75.5459 30.2368 75.5459C30.2368 75.5459 31.1709 71.147 28.9568 74.6107C28.0573 76.0655 27.1232 76.4811 26.3621 76.4811C26.0853 79.0443 25.9124 81.6075 25.9124 84.2399C25.9124 98.2334 30.1677 111.188 37.4328 121.96C39.1626 121.233 41.4113 122.341 43.0027 125.666C46.2202 132.351 49.8181 129.719 49.8181 129.719C49.8181 129.719 50.0603 124.627 53.3815 125.909C56.7373 127.19 56.9449 125.32 56.9449 125.32C52.5512 123.484 53.2431 117.803 53.2431 117.803H53.3123Z" fill="white"/>
<path d="M48.0883 130.585C47.8116 130.585 47.5348 130.585 47.2235 130.481C45.5282 130.065 44.0406 128.507 42.726 125.839C41.1692 122.584 39.0242 121.718 37.5712 122.306L37.2944 122.41L37.1214 122.168C29.5449 110.945 25.5318 97.8178 25.5318 84.24C25.5318 81.6768 25.6702 79.0444 25.9815 76.4466V76.1349H26.3275C27.1232 76.1349 27.8843 75.5807 28.6108 74.4376C29.3719 73.2253 29.8563 72.8097 30.306 72.9829C30.479 73.0522 30.998 73.26 30.5136 75.6153C30.5136 75.6153 30.3406 79.8757 33.0391 81.7115C35.8414 83.6165 35.876 91.7909 35.8414 93.1418C36.6371 93.7999 40.3043 97.0558 39.7507 102.251C39.5777 103.879 39.8891 105.23 40.6848 106.2C41.8957 107.655 43.7985 107.863 43.7985 107.863H44.0406L44.1098 108.14C44.1098 108.244 46.4277 118.219 53.2085 117.457H53.6583L53.5891 117.838C53.5891 117.907 53.001 123.276 57.0833 124.974L57.3255 125.077V125.355C57.2563 125.597 57.0833 126.082 56.5644 126.394C55.8378 126.844 54.7308 126.775 53.2431 126.22C52.5512 125.943 51.9977 125.978 51.5133 126.29C50.4755 126.982 50.1641 128.991 50.1295 129.719V129.892L49.9911 129.996C49.9565 129.996 49.1954 130.585 48.0192 130.585H48.0883ZM38.5053 121.441C40.0275 121.441 41.8611 122.48 43.3487 125.528C44.525 127.952 45.9088 129.442 47.3618 129.788C48.3997 130.065 49.1954 129.684 49.5068 129.511C49.576 128.853 49.8527 126.601 51.202 125.701C51.8593 125.285 52.655 125.216 53.5545 125.562C55.1113 126.151 55.8724 126.013 56.253 125.805C56.426 125.701 56.4952 125.597 56.5644 125.493C53.001 123.761 52.8626 119.535 52.9318 118.185C46.4623 118.531 43.9714 110.045 43.5563 108.521C42.9336 108.417 41.3421 108.001 40.2005 106.65C39.2664 105.507 38.8858 104.018 39.0934 102.182C39.6469 96.9173 35.357 93.6267 35.3224 93.5921L35.1841 93.4882V93.315C35.1841 93.315 35.3916 84.1361 32.6932 82.3003C29.6833 80.2567 29.8909 75.7192 29.8909 75.546C30.0293 74.8187 30.0985 74.0566 30.0639 73.7449C29.9255 73.8835 29.6833 74.1606 29.2336 74.8187C28.4725 76.031 27.6076 76.6891 26.6735 76.8276C26.3967 79.3215 26.2583 81.8154 26.2583 84.2746C26.2583 97.6447 30.1677 110.53 37.5712 121.579C37.848 121.475 38.1593 121.441 38.5053 121.441V121.441Z" fill="#1B3054"/>
<path d="M92.4749 16.6953C69.2956 16.9724 48.9532 28.9569 37.0522 47.0376C37.2944 46.8298 40.7886 43.9549 38.9896 51.679C38.9896 51.679 42.6914 50.5013 45.459 46.3449C48.2267 42.1884 51.4441 40.3526 52.3782 42.7772C52.3782 42.7772 54.0042 38.8632 56.9795 40.5951V43.0197C56.9795 43.0197 59.7472 44.8555 62.0651 41.8766C62.0651 41.8766 59.6434 40.1448 61.0272 38.0665C62.411 35.9883 67.2545 35.6419 67.4967 39.2096C67.7388 42.7772 65.1787 42.9158 65.1787 42.9158C65.1787 42.9158 66.6663 46.0331 70.8179 43.3661C74.9694 40.699 71.752 36.5079 71.752 36.5079C71.752 36.5079 71.1638 31.8318 76.2494 30.1L74.5196 29.4072C73.9315 29.1647 73.8969 28.3335 74.4504 28.0564C75.4537 27.5714 76.4224 26.8094 76.2494 25.701C75.9035 23.6228 72.7898 24.9044 69.78 27.6753C66.7701 30.4463 63.4489 28.2642 63.4489 28.2642C63.4489 28.2642 66.182 27.9524 68.6383 24.2116C71.0946 20.4708 78.6711 20.0551 77.737 24.2116L80.7123 22.9647C81.162 22.7915 81.5426 23.311 81.2312 23.6921L78.6711 26.7401C78.6711 26.7401 80.055 29.615 84.2065 25.1122C88.358 20.6093 91.0219 20.6786 92.1636 21.2328C92.1636 21.2328 92.1636 19.4663 88.4618 19.1199C86.5936 18.9467 89.3267 17.8037 92.4749 16.6953V16.6953Z" fill="white"/>
<path d="M38.5053 52.1621L38.6437 51.5733C39.5431 47.6939 39.0242 46.8973 38.7474 46.7241C38.4015 46.5162 37.675 46.9319 37.2598 47.2783L35.3916 48.8716L36.7409 46.828C49.1608 28.0199 69.9876 16.5896 92.4749 16.3125H94.6199L92.6133 16.9706C89.8456 17.9405 88.8078 18.46 88.4272 18.7025C88.4272 18.7025 88.4964 18.7025 88.531 18.7025C92.4749 19.0835 92.5441 21.0925 92.5441 21.1617V21.7159L92.0598 21.4735C91.4025 21.1617 88.8769 20.5383 84.4833 25.2836C82.7189 27.2233 81.1621 28.0892 79.9166 27.8814C78.8441 27.7082 78.3944 26.8422 78.3944 26.8076L78.2906 26.5998L81.0237 23.3785C81.0237 23.3785 81.0237 23.2746 81.0237 23.24C81.0237 23.24 80.9545 23.1707 80.8853 23.2053L77.3219 24.6947L77.4603 24.0366C77.7025 22.9629 77.3219 22.2008 76.3532 21.7852C74.3121 20.9193 70.5411 21.9237 68.9843 24.2791C67.3237 26.8076 65.5247 27.8467 64.4522 28.2277C65.5593 28.678 67.635 29.0937 69.607 27.2925C71.5444 25.4914 74.1737 23.7595 75.6959 24.3137C76.0419 24.4523 76.5262 24.764 76.6646 25.526C76.803 26.2534 76.5262 27.3272 74.658 28.2624C74.4504 28.3663 74.4159 28.5741 74.4504 28.6434C74.4504 28.7127 74.4504 28.9205 74.6926 28.9898L77.3219 29.9942L76.4224 30.306C71.9941 31.83 72.0979 35.6401 72.1325 36.2636C72.4093 36.6792 73.6201 38.515 73.2742 40.4894C73.0666 41.7017 72.3055 42.7408 71.06 43.5374C69.5032 44.5419 68.0848 44.8883 66.8739 44.5419C65.4901 44.1609 64.902 42.9832 64.902 42.9486L64.6598 42.4637H65.1787C65.1787 42.4637 65.9398 42.3944 66.4934 41.7363C67.0123 41.1475 67.2199 40.2815 67.1507 39.1039C67.0469 37.6145 66.1128 37.0603 65.3171 36.8524C63.8641 36.4714 62.0305 37.0603 61.304 38.134C60.1277 39.9005 62.1689 41.4246 62.2727 41.4592L62.5494 41.667L62.3419 41.9441C59.851 45.1654 56.8411 43.1911 56.8065 43.1911L56.6681 43.0872V40.6972C56.0454 40.3854 55.4227 40.3162 54.8691 40.4894C53.4853 40.9743 52.7242 42.7754 52.7242 42.8101L52.3782 43.6067L52.0669 42.7754C51.8593 42.2559 51.5479 41.9788 51.1328 41.9095C50.0257 41.7709 47.95 43.1218 45.7704 46.4123C42.9681 50.6035 39.2664 51.8158 39.128 51.885L38.5399 52.0582L38.5053 52.1621ZM38.5053 45.9967C38.7128 45.9967 38.9204 46.0313 39.0934 46.1699C39.9237 46.6894 40.0621 48.2481 39.4394 51.123C40.581 50.6035 43.1065 49.218 45.1477 46.1699C47.2234 43.0872 49.576 41.1821 51.1674 41.3899C51.5133 41.4246 51.9977 41.5977 52.3436 42.048C52.7242 41.3899 53.4853 40.3508 54.5924 39.9698C55.3881 39.6927 56.253 39.7966 57.1179 40.3162L57.2909 40.4201V42.8447C57.8444 43.1564 59.7818 43.9531 61.5462 41.9441C60.6467 41.1475 59.5742 39.5541 60.7159 37.8916C61.6153 36.5753 63.7257 35.848 65.4901 36.3329C66.8739 36.7139 67.7388 37.753 67.808 39.2424C67.9118 40.5933 67.6005 41.667 66.9777 42.3944C66.5626 42.8447 66.1128 43.0872 65.7323 43.1911C65.9744 43.4682 66.3896 43.8838 67.0123 44.057C68.0156 44.3341 69.2265 44.057 70.6103 43.1218C71.6828 42.429 72.3401 41.5631 72.5131 40.5586C72.859 38.6536 71.4406 36.7832 71.4406 36.7832L71.3714 36.7139V36.61C71.3714 36.61 70.8525 32.1764 75.2462 30.1674L74.3121 29.8211C73.8969 29.6479 73.6547 29.3015 73.6201 28.8512C73.6201 28.4009 73.8277 28.0199 74.2429 27.8121C75.0732 27.3964 76.0073 26.7383 75.8689 25.8378C75.7997 25.3528 75.5575 25.2143 75.3845 25.145C74.3813 24.7986 72.1671 25.9763 69.9876 27.9853C66.8393 30.8948 63.2414 28.6088 63.2068 28.6088L62.4111 28.0892L63.3797 27.9853C63.3797 27.9853 66.009 27.6389 68.327 24.1059C70.0914 21.4042 74.2775 20.3651 76.5608 21.3349C77.6333 21.7852 78.1868 22.6511 78.1522 23.7595L80.5739 22.755C80.9199 22.6165 81.3004 22.7204 81.5426 23.0321C81.7848 23.3439 81.7502 23.7595 81.508 24.0366L79.0863 26.8769C79.2247 27.0501 79.5361 27.3272 79.9858 27.3964C80.6777 27.5004 81.9232 27.154 83.9297 25.0065C87.6661 20.9539 90.1916 20.5729 91.5408 20.8154C91.1949 20.3651 90.3646 19.7762 88.3926 19.5684C88.1504 19.5684 87.5277 19.4991 87.4585 19.0142C87.4239 18.7025 87.3893 18.3215 90.2608 17.2131C69.2957 18.1483 49.9911 28.8166 38.0209 46.1699C38.1593 46.1699 38.2977 46.1352 38.4015 46.1352L38.5053 45.9967Z" fill="#1B3054"/>
<path d="M96.9032 21.7578C96.9032 21.7578 94.2394 25.5679 87.9083 28.235C81.5772 30.9021 83.8606 35.9591 87.9083 36.0977C87.9083 36.0977 86.4207 32.3915 93.3399 31.8373C100.259 31.2831 105.794 27.3344 105.794 27.3344L106.59 23.2819C106.59 23.2819 100.951 23.8707 96.9032 21.7924V21.7578Z" fill="white"/>
<path d="M88.4272 36.4412H87.9083C85.7979 36.3719 84.0335 35.0211 83.6876 33.1853C83.307 31.1071 84.8292 29.1327 87.7699 27.8858C93.9626 25.288 96.5919 21.5818 96.6265 21.5471L96.7994 21.3047L97.0762 21.4432C100.986 23.4522 106.521 22.898 106.59 22.898H107.04L106.106 27.5048L106.002 27.574C106.002 27.574 100.294 31.5573 93.3744 32.1462C90.8143 32.354 89.1191 33.0467 88.4618 34.1205C87.9083 35.0211 88.2542 35.9216 88.2542 35.9563L88.4618 36.4412H88.4272ZM97.007 22.2053C96.3151 23.1058 93.5474 26.2578 88.0467 28.5439C85.4174 29.6523 84.0335 31.3495 84.3795 33.0467C84.6217 34.3976 85.9017 35.4714 87.4931 35.6792C87.4239 35.2289 87.4239 34.5015 87.8737 33.7395C88.6694 32.4579 90.503 31.6612 93.3398 31.4188C99.5671 30.8992 104.687 27.6087 105.518 27.0545L106.21 23.5908C104.791 23.6947 100.467 23.7986 97.0416 22.136L97.007 22.2053Z" fill="#1B3054"/>
<path d="M97.9757 16.6641C98.8752 18.3613 100.64 20.0585 104.134 20.6474C111.987 21.9289 110.465 26.1893 110.465 26.1893L114.616 25.6005L116 22.9334C116 22.9334 119.564 24.1804 123.196 23.5915C115.516 19.7468 106.971 17.2875 97.9757 16.6641Z" fill="white"/>
<path d="M109.946 26.6032L110.119 26.0836C110.119 26.0836 110.465 24.9752 109.773 23.8322C108.943 22.4467 106.971 21.4768 104.03 20.9919C100.986 20.507 98.806 19.0869 97.6297 16.8354L97.353 16.2812H97.9757C106.867 16.974 115.412 19.3293 123.335 23.3126L124.303 23.7975L123.265 23.9707C120.152 24.4903 117.107 23.659 116.173 23.3819L114.859 25.9451L109.98 26.6378L109.946 26.6032ZM98.5984 17.0779C99.7401 18.8098 101.608 19.8835 104.168 20.2992C107.351 20.8187 109.462 21.8925 110.396 23.4858C110.949 24.3864 110.949 25.2523 110.88 25.7719L114.374 25.287L115.827 22.516L116.104 22.6199C116.104 22.6199 118.906 23.5897 121.985 23.3819C114.616 19.8489 106.763 17.7014 98.5984 17.0433V17.0779Z" fill="#1B3054"/>
<path d="M112.783 46.968C111.779 47.1066 111.157 48.1803 111.572 49.1502C111.814 49.7044 112.195 50.3971 112.748 51.263C114.651 54.2072 111.053 56.4586 111.053 56.4586C111.053 56.4586 117.453 58.433 118.318 54.2072C119.079 50.4317 115.689 51.0206 114.582 48.0071C114.34 47.3144 113.648 46.8641 112.921 46.968H112.783V46.968Z" fill="white"/>
<path d="M114.201 57.2575C112.541 57.2575 111.088 56.8072 110.984 56.7726L110.257 56.5647L110.88 56.1491C110.88 56.1491 112.575 55.0753 112.887 53.5513C113.025 52.8585 112.887 52.1312 112.437 51.4384C111.918 50.6417 111.537 49.9144 111.226 49.2563C110.984 48.7021 111.018 48.1132 111.295 47.5937C111.572 47.0741 112.091 46.6931 112.714 46.6238H112.852C113.751 46.4853 114.582 47.0048 114.893 47.8708C115.308 49.0138 116.104 49.6026 116.865 50.1568C117.972 50.9881 119.148 51.8194 118.629 54.244C118.422 55.2831 117.868 56.0452 117.038 56.5647C116.173 57.0843 115.135 57.2228 114.132 57.2228L114.201 57.2575ZM111.849 56.2876C112.99 56.5301 115.274 56.8765 116.727 55.9759C117.419 55.5602 117.834 54.9714 118.007 54.1055C118.422 52.1312 117.626 51.5423 116.485 50.711C115.689 50.1222 114.755 49.4294 114.27 48.0786C114.063 47.5244 113.509 47.178 112.956 47.2473H112.817C112.437 47.3166 112.091 47.559 111.918 47.8708C111.745 48.2171 111.71 48.5981 111.883 48.9445C112.16 49.568 112.541 50.2607 113.025 51.0228C113.578 51.8887 113.751 52.7546 113.544 53.6552C113.267 54.8329 112.437 55.7334 111.814 56.253L111.849 56.2876Z" fill="#1B3054"/>
<path d="M104.307 31.3495C101.747 31.6266 102.162 35.5753 104.722 35.3328C104.722 35.3328 104.791 35.3328 104.826 35.3328C107.939 34.9864 107.593 31.8691 105.414 31.4188C105.033 31.3495 104.653 31.3149 104.341 31.3495H104.307Z" fill="white"/>
<path d="M104.48 35.6818C103.13 35.6818 102.335 34.6427 102.231 33.5689C102.127 32.4259 102.785 31.179 104.272 31.0058C104.653 30.9711 105.068 31.0058 105.448 31.0751C106.659 31.3175 107.49 32.322 107.42 33.465C107.386 34.4002 106.659 35.474 104.826 35.6818H104.722C104.722 35.6818 104.549 35.6818 104.48 35.6818ZM104.307 31.6985C103.234 31.8024 102.819 32.703 102.888 33.4997C102.958 34.2963 103.546 35.093 104.653 34.9891H104.722C105.933 34.8505 106.659 34.2617 106.694 33.4304C106.694 32.7723 106.244 31.9756 105.275 31.7332C104.929 31.6639 104.618 31.6292 104.307 31.6639V31.6985Z" fill="#1B3054"/>
<path d="M33.3851 63.6326C33.3851 63.6326 35.9106 64.9488 35.8068 60.1689C35.7722 57.3633 34.2846 55.7353 33.5926 52.9297C33.2121 53.6224 32.8661 54.3498 32.5202 55.0772C32.5202 55.0772 34.6651 60.2728 33.3851 63.6673V63.6326Z" fill="white"/>
<path d="M34.077 64.1142C33.5927 64.1142 33.2121 63.941 33.2121 63.9064L32.9353 63.7678L33.0391 63.4907C34.25 60.3041 32.278 55.3856 32.1742 55.1778L32.105 55.0392L32.1742 54.9007C32.5202 54.1733 32.9007 53.4459 33.2467 52.7532L33.6618 51.9219L33.8694 52.8224C34.1462 53.9308 34.5267 54.866 34.9073 55.7666C35.4954 57.1175 36.049 58.3991 36.0836 60.1656C36.1182 62.1399 35.7376 63.3868 34.9073 63.9064C34.5959 64.0796 34.3192 64.1489 34.0424 64.1489L34.077 64.1142ZM33.8002 63.3868C34.0078 63.4215 34.3192 63.4561 34.5959 63.2829C35.0111 63.0405 35.4954 62.2784 35.4608 60.1656C35.4608 58.5722 34.9073 57.3253 34.3538 56.0437C34.0424 55.351 33.7656 54.6582 33.4889 53.8616C33.2813 54.2772 33.0737 54.6582 32.9007 55.0739C33.2467 55.9398 34.8035 60.2695 33.8348 63.4215L33.8002 63.3868Z" fill="#1B3054"/>
<path d="M37.5366 66.9563C37.5366 67.9955 37.0523 68.8268 36.4641 68.8268C35.876 68.8268 35.3916 67.9955 35.3916 66.9563C35.3916 65.9172 35.876 65.0859 36.4641 65.0859C37.0523 65.0859 37.5366 65.9172 37.5366 66.9563Z" fill="white"/>
<path d="M36.4641 69.1758C35.6684 69.1758 35.0457 68.2059 35.0457 66.959C35.0457 65.712 35.6684 64.7422 36.4641 64.7422C37.2598 64.7422 37.8826 65.712 37.8826 66.959C37.8826 68.2059 37.2598 69.1758 36.4641 69.1758ZM36.4641 65.4349C36.1182 65.4349 35.7376 66.093 35.7376 66.959C35.7376 67.8249 36.1182 68.483 36.4641 68.483C36.8101 68.483 37.1906 67.8249 37.1906 66.959C37.1906 66.093 36.8101 65.4349 36.4641 65.4349Z" fill="#1B3054"/>
<path d="M108.631 54.2439C109.491 54.2439 110.188 53.4531 110.188 52.4774C110.188 51.5018 109.491 50.7109 108.631 50.7109C107.771 50.7109 107.074 51.5018 107.074 52.4774C107.074 53.4531 107.771 54.2439 108.631 54.2439Z" fill="white"/>
<path d="M108.631 54.6242C107.593 54.6242 106.728 53.689 106.728 52.5113C106.728 51.3336 107.593 50.3984 108.631 50.3984C109.669 50.3984 110.534 51.3336 110.534 52.5113C110.534 53.689 109.669 54.6242 108.631 54.6242ZM108.631 51.0565C107.974 51.0565 107.42 51.7147 107.42 52.4767C107.42 53.2387 107.974 53.8968 108.631 53.8968C109.289 53.8968 109.842 53.2387 109.842 52.4767C109.842 51.7147 109.289 51.0565 108.631 51.0565Z" fill="#1B3054"/>
<path d="M83.3762 104.673C83.3762 105.643 82.7189 106.439 81.8886 106.439C81.0583 106.439 80.401 105.643 80.401 104.673C80.401 103.703 81.0583 102.906 81.8886 102.906C82.7189 102.906 83.3762 103.703 83.3762 104.673Z" fill="white"/>
<path d="M81.9232 106.82C80.9199 106.82 80.0896 105.884 80.0896 104.707C80.0896 103.529 80.9199 102.594 81.9232 102.594C82.9265 102.594 83.7568 103.529 83.7568 104.707C83.7568 105.884 82.9265 106.82 81.9232 106.82ZM81.9232 103.252C81.3005 103.252 80.7815 103.91 80.7815 104.672C80.7815 105.434 81.3005 106.092 81.9232 106.092C82.5459 106.092 83.0649 105.434 83.0649 104.672C83.0649 103.91 82.5459 103.252 81.9232 103.252Z" fill="#1B3054"/>
<path d="M131.326 76.585C131.568 77.5895 132.329 78.7672 134.44 78.7672C135.097 77.9705 134.89 76.7236 133.99 76.204C133.298 75.7884 132.675 75.2342 132.71 74.4375L132.26 74.6453C131.534 74.9917 131.119 75.7884 131.326 76.585V76.585Z" fill="white"/>
<path d="M134.578 79.1164H134.405C131.949 79.1164 131.188 77.5924 130.946 76.6572C130.703 75.722 131.188 74.7175 132.087 74.3019L133.056 73.8516V74.4404C132.987 74.9946 133.367 75.4795 134.128 75.8952C134.647 76.1723 134.993 76.6918 135.097 77.2807C135.201 77.8695 135.063 78.493 134.682 78.9779L134.578 79.1164V79.1164ZM131.638 76.5186C131.949 77.7309 132.814 78.3891 134.232 78.4237C134.405 78.1466 134.474 77.7656 134.405 77.4192C134.336 77.0382 134.094 76.6918 133.748 76.5186C132.848 75.9991 132.502 75.4449 132.364 74.96C131.776 75.2371 131.465 75.8952 131.603 76.5186H131.638Z" fill="#1B3054"/>
<path d="M62.5149 46.6241C62.757 47.6286 63.5181 48.8062 65.6285 48.8062C66.2858 48.0096 66.0782 46.7626 65.1787 46.2431C64.4868 45.8274 63.8641 45.2732 63.8987 44.4766L63.449 44.6844C62.7224 45.0308 62.3073 45.8274 62.5149 46.6241V46.6241Z" fill="white"/>
<path d="M65.7669 49.1555H65.5939C63.1376 49.1555 62.3765 47.6315 62.1343 46.6962C61.8921 45.761 62.3765 44.7566 63.276 44.3409L64.2447 43.8906V44.4795C64.1755 45.0337 64.556 45.5186 65.3171 45.9342C65.8361 46.2113 66.182 46.7309 66.2858 47.3197C66.3896 47.9086 66.2512 48.532 65.8707 49.0169L65.7669 49.1555V49.1555ZM62.8262 46.5577C63.1376 47.77 64.0025 48.4281 65.4209 48.4628C65.5939 48.1857 65.6631 47.8046 65.5939 47.4583C65.5247 47.0773 65.2825 46.7309 64.9366 46.5577C64.0371 46.0381 63.6911 45.4839 63.5527 44.999C62.9646 45.2761 62.6532 45.9342 62.7916 46.5577H62.8262Z" fill="#1B3054"/>
<path d="M106.313 142.259C106.002 141.913 105.448 142.121 105.414 142.571C105.345 143.853 104.964 145.896 103.303 147.455C101.366 149.291 100.017 148.182 99.3941 147.455C99.1865 147.212 98.8406 147.212 98.633 147.455C95.9345 150.191 88.9807 151.438 88.6694 151.508C90.1916 151.611 91.7484 151.681 93.3398 151.681C97.6989 151.681 101.92 151.265 106.037 150.468C109.358 146.97 107.593 143.818 106.313 142.294V142.259Z" fill="white"/>
<path d="M93.3052 151.989C91.783 151.989 90.2262 151.92 88.6348 151.816L85.8325 151.608L88.6002 151.123C88.877 151.054 95.7616 149.807 98.3563 147.175C98.5292 147.001 98.7714 146.897 99.0136 146.932C99.2557 146.932 99.4979 147.071 99.6363 147.244C99.9477 147.625 100.432 148.075 101.089 148.11C101.677 148.144 102.335 147.833 103.027 147.209C104.584 145.754 104.999 143.884 105.033 142.568C105.033 142.221 105.275 141.91 105.621 141.806C105.967 141.702 106.313 141.806 106.555 142.048C107.663 143.364 109.911 146.863 106.279 150.673L106.21 150.742H106.106C101.92 151.573 97.5951 151.989 93.3398 151.989H93.3052ZM91.1949 151.262C91.9214 151.262 92.6133 151.262 93.3052 151.262C97.4914 151.262 101.712 150.881 105.829 150.084C108.839 146.828 107.247 143.919 106.002 142.464C105.933 142.395 105.864 142.395 105.829 142.429C105.829 142.429 105.725 142.464 105.725 142.568C105.656 144.023 105.241 146.066 103.476 147.694C102.646 148.456 101.816 148.837 101.02 148.768C100.121 148.699 99.4633 148.11 99.0828 147.625C99.0482 147.59 98.979 147.556 98.979 147.556C98.979 147.556 98.9098 147.556 98.8406 147.59C97.0762 149.391 93.582 150.534 91.1949 151.158V151.262Z" fill="#1B3054"/>
<path d="M128.939 26.8516C130.115 28.4102 131.119 30.3153 130.876 32.2203C130.842 32.5667 131.222 32.7399 131.465 32.4974C132.018 31.9432 132.745 31.0427 133.194 29.7611C131.811 28.7566 130.392 27.7868 128.939 26.8516V26.8516Z" fill="white"/>
<path d="M131.222 32.9447C131.222 32.9447 131.015 32.9447 130.911 32.8754C130.634 32.7369 130.496 32.4598 130.53 32.1827C130.703 30.6586 130.081 28.9614 128.662 27.091L127.521 25.6016L129.112 26.606C130.565 27.5066 132.018 28.5111 133.402 29.5156L133.61 29.6541L133.54 29.8966C133.056 31.2474 132.295 32.2173 131.741 32.7715C131.603 32.91 131.43 32.9793 131.257 32.9793L131.222 32.9447ZM130.15 28.0608C131.015 29.5502 131.361 30.9704 131.222 32.2519C131.707 31.767 132.364 31.005 132.779 29.8966C131.914 29.2731 131.049 28.6496 130.15 28.0608V28.0608Z" fill="#1B3054"/>
<path d="M36.4641 82.6094C36.4641 82.6094 37.9517 86.8351 37.502 90.3335C37.502 90.3335 40.7194 89.5368 39.9237 85.1379C39.9237 85.1379 38.4361 86.0731 36.4641 82.6094Z" fill="white"/>
<path d="M37.0868 90.7851L37.156 90.2655C37.6058 86.9057 36.1527 82.7492 36.1181 82.7146L36.7409 82.4375C38.4707 85.4856 39.7161 84.8621 39.7161 84.8621L40.1313 84.6197L40.2351 85.0699C41.1 89.7113 37.6058 90.6465 37.5712 90.6465L37.0868 90.7505V90.7851ZM37.3636 84.4811C37.7096 85.9012 38.0555 87.9102 37.9171 89.8153C38.6782 89.4342 40.0275 88.3258 39.6469 85.6241C39.474 85.6241 39.2318 85.6241 38.955 85.5895C38.4015 85.4509 37.8825 85.1046 37.3636 84.5157V84.4811Z" fill="#1B3054"/>
<path d="M147.31 69.417C147.31 69.417 146.133 72.0148 144.161 70.7332C142.189 69.417 142.985 65.4337 144.611 62.8359C144.611 62.8359 145.995 66.4036 148.624 64.1522C151.253 61.9007 151.98 69.8673 147.31 69.4517V69.417Z" fill="#31AE7C"/>
<path d="M145.234 71.4224C144.819 71.4224 144.403 71.2838 143.954 71.0067C141.705 69.5173 142.708 65.2223 144.3 62.6591L144.646 62.0703L144.888 62.7284C144.888 62.7284 145.511 64.2525 146.583 64.5296C147.137 64.6681 147.725 64.4603 148.382 63.9061C149.212 63.1787 149.87 63.4212 150.181 63.629C151.046 64.2525 151.323 66.0536 150.769 67.543C150.216 69.0324 149.074 69.8637 147.482 69.7944C147.24 70.2101 146.652 71.1107 145.753 71.3531C145.58 71.3878 145.407 71.4224 145.234 71.4224V71.4224ZM144.576 63.5597C143.193 66.1229 142.777 69.3788 144.334 70.4179C144.784 70.695 145.165 70.7989 145.58 70.6604C146.306 70.4525 146.825 69.5866 146.998 69.2402L147.102 68.9978H147.344C149.143 69.171 149.87 67.9933 150.146 67.2313C150.631 65.9497 150.354 64.4949 149.8 64.1139C149.558 63.9407 149.247 64.01 148.866 64.3564C148.036 65.0491 147.24 65.3262 146.445 65.1184C145.545 64.8759 144.922 64.0793 144.576 63.5251V63.5597Z" fill="#1B3054"/>
<path d="M157.584 104.674C157.584 104.674 155.163 101.037 155.543 97.5036C155.924 93.936 155.993 85.7962 150.769 92.308C150.769 92.308 156.408 102.006 155.232 111.047C156.131 108.969 156.927 106.856 157.619 104.708L157.584 104.674Z" fill="#31AE7C"/>
<path d="M154.54 113.434L154.851 110.974C155.993 102.177 150.492 92.582 150.423 92.4781L150.319 92.2702L150.458 92.097C152.118 90.0188 153.433 89.2221 154.436 89.6378C156.443 90.4691 156.028 95.9071 155.855 97.5697C155.509 100.93 157.757 104.359 157.861 104.532L157.965 104.67V104.844C157.239 106.956 156.443 109.104 155.509 111.217L154.54 113.503V113.434ZM151.15 92.3395C151.876 93.6904 155.855 101.276 155.716 108.896C156.27 107.511 156.789 106.091 157.204 104.705C156.754 103.978 154.851 100.722 155.197 97.4312C155.509 94.2792 155.336 90.7115 154.194 90.2266C153.814 90.0881 152.949 90.1573 151.15 92.3049V92.3395Z" fill="#1B3054"/>
<path d="M125.549 42.0487C119.944 42.0487 113.094 41.1828 105.829 39.347C97.4222 37.2688 89.7765 34.2207 84.3103 30.8262C78.7404 27.3625 76.0419 23.8641 76.7684 21.0239C77.1143 19.673 78.1868 18.53 79.9858 17.6641L80.2972 18.2875C78.7057 19.0496 77.7371 20.0194 77.4603 21.1971C76.8376 23.691 79.4669 27.0161 84.6908 30.272C90.0878 33.6319 97.6643 36.6453 106.002 38.7236C123.092 42.9839 138.072 42.0487 139.422 36.6453C139.525 36.2297 139.525 35.7794 139.456 35.2945L140.148 35.1905C140.252 35.7447 140.217 36.2989 140.079 36.8185C139.214 40.2822 133.644 42.0834 125.549 42.0834V42.0487Z" fill="#1B3054"/>
<path d="M124.545 104.568C113.717 104.568 101.608 102.975 89.2921 99.9271C53.4853 91.0253 27.2616 72.1133 30.825 57.7734L31.4823 57.9466C28.0227 71.9055 54.0043 90.4364 89.4651 99.269C106.694 103.564 123.507 104.915 136.896 103.114C150.146 101.313 158.38 96.6365 160.041 89.9515L160.698 90.1247C158.968 97.1214 150.527 102.005 136.965 103.806C133.091 104.326 128.939 104.603 124.545 104.603V104.568Z" fill="#1B3054"/>
<path d="M105.275 145.513C97.0762 145.513 88.1505 144.404 79.0517 142.118C55.2843 136.195 35.9798 123.656 31.0672 110.875L31.7245 110.633C36.5679 123.206 55.6649 135.572 79.2593 141.46C100.259 146.69 120.463 145.755 132.018 139.07L132.364 139.659C125.687 143.538 116.173 145.513 105.31 145.513H105.275Z" fill="#1B3054"/>
<path d="M159.591 110.352L158.968 110.04C158.968 110.04 165.957 96.4278 164.089 78.0354C163.639 73.4979 162.739 69.0297 161.459 64.7L162.117 64.4922C163.431 68.8565 164.331 73.394 164.78 77.9661C166.683 96.5663 159.66 110.213 159.591 110.352Z" fill="#1B3054"/>
<path d="M159.833 59.8507C157.031 52.4729 153.917 48.2472 153.883 48.2125L154.436 47.7969C154.436 47.7969 157.619 52.1265 160.491 59.6082L159.833 59.8507Z" fill="#1B3054"/>
<path d="M41.1 157.811C37.8826 157.811 35.1495 157.015 33.0737 155.318C26.3967 149.914 27.054 136.752 35.0111 118.29L35.703 118.567C28.0227 136.44 27.2616 149.637 33.5581 154.729C46.0818 164.877 82.4075 141.844 114.478 103.362C139.802 72.9846 155.716 41.1183 154.056 24.1114C153.675 20.0934 152.257 17.08 149.904 15.1749C144.161 10.5335 133.16 12.7157 118.906 21.3404L118.526 20.7169C133.091 11.9537 144.403 9.77152 150.389 14.6207C152.914 16.6643 154.367 19.8163 154.782 24.0421C156.477 41.2222 140.494 73.2964 115.031 103.812C87.9429 136.302 57.7406 157.777 41.1 157.777V157.811Z" fill="#1B3054"/>
<path d="M131.603 118.566C117.938 118.566 102.439 117.146 86.2131 114.202C46.5661 106.962 13.354 92.5186 3.52879 78.248C1.17627 74.8189 0.276771 71.4938 0.864902 68.411C2.42172 60.2366 13.9768 54.5215 33.4543 52.3047L33.5235 53.0321C14.7033 55.1449 3.04445 60.7908 1.59142 68.5496C1.03788 71.4591 1.90278 74.5765 4.15152 77.8324C13.8384 91.9644 46.8775 106.304 86.3515 113.509C136.031 122.584 178.861 117.18 181.836 101.455C183.185 94.3544 176.024 85.9722 161.736 77.9017L162.082 77.2436C176.681 85.4872 183.947 94.1119 182.528 101.559C180.487 112.435 160.075 118.566 131.603 118.566V118.566Z" fill="#1B3054"/>
<path d="M122.608 170C115.377 170 106.14 163.696 96.0383 151.781L96.5919 151.296C108.493 165.393 119.114 171.524 126.448 168.545C129.285 167.402 131.534 164.909 133.125 161.133C139.733 145.304 134.025 110.32 118.941 74.0202C99.7747 27.9179 71.9595 -4.64117 56.9449 1.455C49.6452 4.39917 46.3931 16.5569 48.0192 34.7761L47.2926 34.8454C45.632 16.0027 48.9532 3.87961 56.7027 0.762255C72.0979 -5.43783 100.328 27.2598 119.633 73.7085C134.786 110.182 140.494 145.408 133.817 161.376C132.156 165.324 129.769 167.957 126.76 169.204C125.479 169.723 124.096 169.966 122.643 169.966L122.608 170Z" fill="#1B3054"/>
<path d="M2.17955 68.6482C2.17955 69.0985 1.83359 69.4449 1.38384 69.4449C0.934094 69.4449 0.588135 69.0985 0.588135 68.6482C0.588135 68.1979 0.934094 67.8516 1.38384 67.8516C1.83359 67.8516 2.17955 68.1979 2.17955 68.6482Z" fill="#31AE7C"/>
<path d="M1.38384 69.7939C0.761111 69.7939 0.242172 69.2743 0.242172 68.6508C0.242172 68.0274 0.761111 67.5078 1.38384 67.5078C2.00657 67.5078 2.5255 68.0274 2.5255 68.6508C2.5255 69.2743 2.00657 69.7939 1.38384 69.7939V69.7939ZM1.38384 68.2006C1.14167 68.2006 0.934091 68.4084 0.934091 68.6508C0.934091 68.8933 1.14167 69.1011 1.38384 69.1011C1.62601 69.1011 1.83359 68.8933 1.83359 68.6508C1.83359 68.4084 1.62601 68.2006 1.38384 68.2006Z" fill="#1B3054"/>
<path d="M71.8212 5.19488C72.2606 5.19488 72.6169 4.8382 72.6169 4.39822C72.6169 3.95824 72.2606 3.60156 71.8212 3.60156C71.3817 3.60156 71.0255 3.95824 71.0255 4.39822C71.0255 4.8382 71.3817 5.19488 71.8212 5.19488Z" fill="#31AE7C"/>
<path d="M71.8212 5.57513C71.1984 5.57513 70.6795 5.05557 70.6795 4.43209C70.6795 3.80862 71.1984 3.28906 71.8212 3.28906C72.4439 3.28906 72.9628 3.80862 72.9628 4.43209C72.9628 5.05557 72.4439 5.57513 71.8212 5.57513ZM71.8212 3.98181C71.579 3.98181 71.3714 4.18963 71.3714 4.43209C71.3714 4.67456 71.579 4.88238 71.8212 4.88238C72.0633 4.88238 72.2709 4.67456 72.2709 4.43209C72.2709 4.18963 72.0633 3.98181 71.8212 3.98181V3.98181Z" fill="#1B3054"/>
<path d="M151.772 43.1168C152.212 43.1168 152.568 42.7601 152.568 42.3201C152.568 41.8801 152.212 41.5234 151.772 41.5234C151.333 41.5234 150.977 41.8801 150.977 42.3201C150.977 42.7601 151.333 43.1168 151.772 43.1168Z" fill="#31AE7C"/>
<path d="M151.772 43.4658C151.15 43.4658 150.631 42.9462 150.631 42.3227C150.631 41.6992 151.15 41.1797 151.772 41.1797C152.395 41.1797 152.914 41.6992 152.914 42.3227C152.914 42.9462 152.395 43.4658 151.772 43.4658ZM151.772 41.8724C151.53 41.8724 151.323 42.0803 151.323 42.3227C151.323 42.5652 151.53 42.773 151.772 42.773C152.015 42.773 152.222 42.5652 152.222 42.3227C152.222 42.0803 152.015 41.8724 151.772 41.8724Z" fill="#1B3054"/>
<path d="M102.542 157.804C102.542 158.255 102.196 158.601 101.747 158.601C101.297 158.601 100.951 158.255 100.951 157.804C100.951 157.354 101.297 157.008 101.747 157.008C102.196 157.008 102.542 157.354 102.542 157.804Z" fill="#F7B63C"/>
<path d="M101.747 158.95C101.124 158.95 100.605 158.431 100.605 157.807C100.605 157.184 101.124 156.664 101.747 156.664C102.369 156.664 102.888 157.184 102.888 157.807C102.888 158.431 102.369 158.95 101.747 158.95ZM101.747 157.357C101.504 157.357 101.297 157.565 101.297 157.807C101.297 158.05 101.504 158.257 101.747 158.257C101.989 158.257 102.196 158.05 102.196 157.807C102.196 157.565 101.989 157.357 101.747 157.357Z" fill="#1B3054"/>
<path d="M24.7015 54.031C24.7015 54.4813 24.3555 54.8277 23.9058 54.8277C23.4561 54.8277 23.1101 54.4813 23.1101 54.031C23.1101 53.5808 23.4561 53.2344 23.9058 53.2344C24.3555 53.2344 24.7015 53.5808 24.7015 54.031Z" fill="#31AE7C"/>
<path d="M23.9058 55.1767C23.2831 55.1767 22.7641 54.6571 22.7641 54.0337C22.7641 53.4102 23.2831 52.8906 23.9058 52.8906C24.5285 52.8906 25.0475 53.4102 25.0475 54.0337C25.0475 54.6571 24.5285 55.1767 23.9058 55.1767ZM23.9058 53.5834C23.6636 53.5834 23.456 53.7912 23.456 54.0337C23.456 54.2761 23.6636 54.4839 23.9058 54.4839C24.148 54.4839 24.3555 54.2761 24.3555 54.0337C24.3555 53.7912 24.148 53.5834 23.9058 53.5834Z" fill="#1B3054"/>
<path d="M30.4098 143.952C30.4098 144.991 29.5795 145.857 28.5071 145.857C27.4346 145.857 26.6043 145.026 26.6043 143.952C26.6043 142.878 27.4346 142.047 28.5071 142.047C29.5795 142.047 30.4098 142.878 30.4098 143.952Z" fill="#31AE7C"/>
<path d="M28.5071 146.206C27.2616 146.206 26.2583 145.202 26.2583 143.955C26.2583 142.708 27.2616 141.703 28.5071 141.703C29.7525 141.703 30.7558 142.708 30.7558 143.955C30.7558 145.202 29.7525 146.206 28.5071 146.206ZM28.5071 142.431C27.6422 142.431 26.9502 143.123 26.9502 143.989C26.9502 144.855 27.6422 145.548 28.5071 145.548C29.3719 145.548 30.0639 144.855 30.0639 143.989C30.0639 143.123 29.3719 142.431 28.5071 142.431Z" fill="#1B3054"/>
<path d="M154.678 36.4676C154.678 37.5067 153.848 38.3726 152.776 38.3726C151.703 38.3726 150.873 37.5413 150.873 36.4676C150.873 35.3938 151.703 34.5625 152.776 34.5625C153.848 34.5625 154.678 35.3938 154.678 36.4676Z" fill="#31AE7C"/>
<path d="M152.81 38.7216C151.565 38.7216 150.562 37.7171 150.562 36.4702C150.562 35.2232 151.565 34.2188 152.81 34.2188C154.056 34.2188 155.059 35.2232 155.059 36.4702C155.059 37.7171 154.056 38.7216 152.81 38.7216ZM152.81 34.9461C151.945 34.9461 151.253 35.6389 151.253 36.5048C151.253 37.3707 151.945 38.0635 152.81 38.0635C153.675 38.0635 154.367 37.3707 154.367 36.5048C154.367 35.6389 153.675 34.9461 152.81 34.9461Z" fill="#1B3054"/>
<path d="M114.962 60.4363C114.962 61.4754 114.132 62.3414 113.06 62.3414C111.987 62.3414 111.157 61.5101 111.157 60.4363C111.157 59.3625 111.987 58.5312 113.06 58.5312C114.132 58.5312 114.962 59.3625 114.962 60.4363Z" fill="#31AE7C"/>
<path d="M113.06 62.6904C111.814 62.6904 110.811 61.6859 110.811 60.4389C110.811 59.192 111.814 58.1875 113.06 58.1875C114.305 58.1875 115.308 59.192 115.308 60.4389C115.308 61.6859 114.305 62.6904 113.06 62.6904ZM113.06 58.9149C112.195 58.9149 111.503 59.6076 111.503 60.4736C111.503 61.3395 112.195 62.0322 113.06 62.0322C113.924 62.0322 114.616 61.3395 114.616 60.4736C114.616 59.6076 113.924 58.9149 113.06 58.9149Z" fill="#1B3054"/>
<path d="M78.2906 7.47537C78.2906 8.51449 77.4603 9.38042 76.3878 9.38042C75.3153 9.38042 74.485 8.54912 74.485 7.47537C74.485 6.40161 75.3153 5.57031 76.3878 5.57031C77.4603 5.57031 78.2906 6.40161 78.2906 7.47537Z" fill="#31AE7C"/>
<path d="M76.3878 9.72941C75.1424 9.72941 74.1391 8.72493 74.1391 7.47799C74.1391 6.23105 75.1424 5.22656 76.3878 5.22656C77.6333 5.22656 78.6366 6.23105 78.6366 7.47799C78.6366 8.72493 77.6333 9.72941 76.3878 9.72941ZM76.3878 5.95395C75.5229 5.95395 74.831 6.64669 74.831 7.51263C74.831 8.37856 75.5229 9.07131 76.3878 9.07131C77.2527 9.07131 77.9447 8.37856 77.9447 7.51263C77.9447 6.64669 77.2527 5.95395 76.3878 5.95395Z" fill="#1B3054"/>
<path d="M136.585 145.193C137.636 145.193 138.488 144.34 138.488 143.288C138.488 142.236 137.636 141.383 136.585 141.383C135.534 141.383 134.682 142.236 134.682 143.288C134.682 144.34 135.534 145.193 136.585 145.193Z" fill="#31AE7C"/>
<path d="M136.585 145.542C135.339 145.542 134.336 144.537 134.336 143.29C134.336 142.044 135.339 141.039 136.585 141.039C137.83 141.039 138.833 142.044 138.833 143.29C138.833 144.537 137.83 145.542 136.585 145.542ZM136.585 141.766C135.72 141.766 135.028 142.459 135.028 143.325C135.028 144.191 135.72 144.884 136.585 144.884C137.45 144.884 138.142 144.191 138.142 143.325C138.142 142.459 137.45 141.766 136.585 141.766Z" fill="#1B3054"/>
<path d="M167.514 114.297C167.514 115.129 166.822 115.822 165.991 115.822C165.161 115.822 164.469 115.129 164.469 114.297C164.469 113.466 165.161 112.773 165.991 112.773C166.822 112.773 167.514 113.466 167.514 114.297Z" fill="#31AE7C"/>
<path d="M165.991 116.171C164.953 116.171 164.123 115.339 164.123 114.3C164.123 113.261 164.953 112.43 165.991 112.43C167.029 112.43 167.859 113.261 167.859 114.3C167.859 115.339 167.029 116.171 165.991 116.171ZM165.991 113.157C165.334 113.157 164.815 113.677 164.815 114.335C164.815 114.993 165.334 115.512 165.991 115.512C166.649 115.512 167.168 114.993 167.168 114.335C167.168 113.677 166.649 113.157 165.991 113.157Z" fill="#1B3054"/>
<path d="M112.16 117.18C112.16 118.012 111.468 118.704 110.638 118.704C109.807 118.704 109.116 118.012 109.116 117.18C109.116 116.349 109.807 115.656 110.638 115.656C111.468 115.656 112.16 116.349 112.16 117.18Z" fill="#31AE7C"/>
<path d="M110.638 119.014C109.6 119.014 108.77 118.183 108.77 117.144C108.77 116.105 109.6 115.273 110.638 115.273C111.676 115.273 112.506 116.105 112.506 117.144C112.506 118.183 111.676 119.014 110.638 119.014V119.014ZM110.638 116.001C109.98 116.001 109.462 116.52 109.462 117.179C109.462 117.837 109.98 118.356 110.638 118.356C111.295 118.356 111.814 117.837 111.814 117.179C111.814 116.52 111.295 116.001 110.638 116.001Z" fill="#1B3054"/>
<path d="M12.1432 85.4537C12.1432 86.285 11.4513 86.9778 10.621 86.9778C9.79066 86.9778 9.09874 86.285 9.09874 85.4537C9.09874 84.6224 9.79066 83.9297 10.621 83.9297C11.4513 83.9297 12.1432 84.6224 12.1432 85.4537Z" fill="#31AE7C"/>
<path d="M10.621 87.2877C9.58308 87.2877 8.75278 86.4564 8.75278 85.4173C8.75278 84.3782 9.58308 83.5469 10.621 83.5469C11.6588 83.5469 12.4891 84.3782 12.4891 85.4173C12.4891 86.4564 11.6588 87.2877 10.621 87.2877ZM10.621 84.2743C9.96363 84.2743 9.4447 84.7938 9.4447 85.4519C9.4447 86.11 9.96363 86.6296 10.621 86.6296C11.2783 86.6296 11.7972 86.11 11.7972 85.4519C11.7972 84.7938 11.2783 84.2743 10.621 84.2743Z" fill="#1B3054"/>
<path d="M135.166 77.6881C135.166 78.5194 134.474 79.2122 133.644 79.2122C132.814 79.2122 132.122 78.5194 132.122 77.6881C132.122 76.8568 132.814 76.1641 133.644 76.1641C134.474 76.1641 135.166 76.8568 135.166 77.6881Z" fill="#31AE7C"/>
<path d="M133.644 79.5611C132.606 79.5611 131.776 78.7299 131.776 77.6907C131.776 76.6516 132.606 75.8203 133.644 75.8203C134.682 75.8203 135.512 76.6516 135.512 77.6907C135.512 78.7299 134.682 79.5611 133.644 79.5611ZM133.644 76.5477C132.987 76.5477 132.468 77.0673 132.468 77.7254C132.468 78.3835 132.987 78.903 133.644 78.903C134.301 78.903 134.82 78.3835 134.82 77.7254C134.82 77.0673 134.301 76.5477 133.644 76.5477Z" fill="#1B3054"/>
<path d="M3.35581 74.5709C3.35581 75.4022 2.66389 76.095 1.83359 76.095C1.00329 76.095 0.311371 75.4022 0.311371 74.5709C0.311371 73.7396 1.00329 73.0469 1.83359 73.0469C2.66389 73.0469 3.35581 73.7396 3.35581 74.5709Z" fill="#31AE7C"/>
<path d="M1.86818 76.4049C0.830302 76.4049 0 75.5736 0 74.5345C0 73.4954 0.830302 72.6641 1.86818 72.6641C2.90606 72.6641 3.73636 73.4954 3.73636 74.5345C3.73636 75.5736 2.90606 76.4049 1.86818 76.4049ZM1.86818 73.3914C1.21086 73.3914 0.691919 73.911 0.691919 74.5691C0.691919 75.2272 1.21086 75.7468 1.86818 75.7468C2.5255 75.7468 3.04444 75.2272 3.04444 74.5691C3.04444 73.911 2.5255 73.3914 1.86818 73.3914Z" fill="#1B3054"/>
<path d="M75.0732 113.435C73.8969 114.059 72.4093 113.574 71.8212 112.396C71.1984 111.219 71.6828 109.729 72.859 109.14C74.0353 108.517 75.5229 109.002 76.1111 110.179C76.7338 111.357 76.2495 112.846 75.0732 113.435Z" fill="#31AE7C"/>
<path d="M72.0633 113.259C71.8558 113.051 71.6482 112.809 71.5098 112.532C70.8179 111.181 71.3368 109.518 72.6861 108.791C74.0353 108.098 75.6959 108.618 76.4224 109.968C77.1143 111.319 76.5954 112.982 75.2462 113.709C74.1737 114.264 72.8936 114.056 72.0633 113.259V113.259ZM75.4191 109.761C74.7964 109.172 73.8277 108.999 73.032 109.414C72.0287 109.934 71.6136 111.215 72.1325 112.22C72.6515 113.224 73.9315 113.64 74.9348 113.12C75.9381 112.601 76.3532 111.319 75.8343 110.315C75.7305 110.107 75.5921 109.934 75.4191 109.761V109.761Z" fill="#1B3054"/>
<path d="M111.883 52.3367C111.987 53.6876 110.949 54.8306 109.635 54.9345C108.285 55.0384 107.144 53.9993 107.04 52.6831C106.936 51.3322 107.974 50.1892 109.289 50.0853C110.603 49.9814 111.779 51.0205 111.883 52.3367Z" fill="#31AE7C"/>
<path d="M110.534 55.0404C110.257 55.1444 109.946 55.2136 109.635 55.2483C108.112 55.3522 106.798 54.2091 106.694 52.6851C106.59 51.1611 107.732 49.8448 109.254 49.7409C110.776 49.637 112.091 50.7801 112.195 52.3041C112.264 53.5164 111.572 54.5902 110.499 55.0404H110.534ZM108.666 50.5722C107.87 50.9186 107.317 51.7153 107.386 52.6158C107.455 53.7589 108.458 54.6248 109.6 54.5555C110.742 54.4862 111.606 53.4818 111.537 52.3387C111.468 51.1957 110.465 50.3298 109.323 50.399C109.081 50.399 108.873 50.4683 108.666 50.5722Z" fill="#1B3054"/>
<path d="M154.16 15.9348C154.367 17.251 153.502 18.4979 152.188 18.7404C150.873 18.9482 149.627 18.0823 149.385 16.7661C149.178 15.4499 150.043 14.2029 151.357 13.9604C152.672 13.7526 153.917 14.6186 154.16 15.9348Z" fill="#31AE7C"/>
<path d="M153.087 18.7751C152.81 18.9137 152.533 19.0176 152.222 19.0869C150.735 19.3293 149.281 18.3249 149.039 16.8008C148.797 15.3114 149.8 13.8566 151.323 13.6142C152.81 13.3717 154.263 14.3762 154.505 15.9002C154.713 17.1126 154.09 18.2556 153.087 18.8098V18.7751ZM150.769 14.5148C150.008 14.9304 149.558 15.7963 149.697 16.6969C149.904 17.8399 150.977 18.602 152.084 18.3941C153.225 18.1863 153.987 17.1126 153.779 16.0042C153.571 14.8611 152.499 14.0991 151.392 14.3069C151.15 14.3416 150.942 14.4108 150.735 14.5148H150.769Z" fill="#1B3054"/>
<path d="M32.0012 136.052C31.6553 137.334 30.3406 138.13 29.026 137.784C27.7459 137.438 26.9502 136.121 27.2962 134.805C27.6422 133.524 28.9568 132.727 30.2714 133.073C31.5515 133.42 32.3472 134.736 32.0012 136.052Z" fill="#31AE7C"/>
<path d="M29.8563 138.2C29.5449 138.2 29.2682 138.2 28.9568 138.13C27.4692 137.749 26.6043 136.225 26.9848 134.736C27.3654 133.246 28.8876 132.381 30.3752 132.762C31.8629 133.143 32.7278 134.667 32.3472 136.156C32.0358 137.334 31.0326 138.13 29.8563 138.2ZM29.5103 133.35C28.6454 133.42 27.8843 134.008 27.6422 134.909C27.3654 136.017 28.0227 137.16 29.1298 137.438C30.2369 137.715 31.3785 137.057 31.6553 135.948C31.932 134.84 31.2747 133.697 30.1677 133.42C29.9255 133.35 29.7179 133.35 29.4757 133.35H29.5103Z" fill="#1B3054"/>
</g>
<defs>
<clipPath id="clip0_308_530">
<rect width="182.701" height="170" fill="white"/>
</clipPath>
</defs>
</svg>
