<svg width="174" height="170" viewBox="0 0 174 170" fill="none" xmlns="http://www.w3.org/2000/svg">
<g clip-path="url(#clip0_308_2156)">
<path d="M115.716 159.691L173.108 126.955V64.5391L115.716 97.2752V159.691Z" fill="#1B3054"/>
<path d="M60.8105 0.414062L173.108 64.436L115.664 97.1721L3.41864 33.1502L60.8105 0.414062Z" fill="#36AE7B"/>
<path d="M173.108 64.0703L173.47 64.3811V131.614L165.753 136.017L162.075 133.738L124.781 154.975L123.123 160.31L116.027 164.351L115.25 164.247V97.0654L172.331 64.5365L173.056 64.1221L173.108 64.0703ZM116.079 159.067L116.545 158.808L127.267 152.696V150.572L134.622 146.377V148.501L154.098 137.416V135.292L161.453 131.097V133.22L172.642 126.849V65.1581L115.975 97.428V159.015L116.079 159.067Z" fill="#1B3054"/>
<path d="M60.8623 2.22656L171.813 65.5233L115.146 97.7933L4.19562 34.5483L60.8623 2.22656ZM115.716 92.0956L164.872 64.6428L60.8623 5.33442L11.9135 33.2016L115.716 92.0437V92.0956Z" fill="white"/>
<path d="M3.41865 32.7344L115.923 96.8599L116.13 96.9635V164.3L115.82 164.456L108.257 160.157L106.6 154.822L14.2444 102.195L10.7221 104.578L3.00427 100.175V32.9416L3.36686 32.7344H3.41865ZM11.4473 103.076L13.5192 101.781L12.3797 101.159L12.2761 101.315L11.4473 103.076Z" fill="#1B3054"/>
<path d="M109.966 98.6236L110.174 98.7272V151.561L104.424 148.298L104.217 148.194L100.332 145.967H100.177V145.863L95.3077 143.066L94.997 142.911L90.9567 140.632L86.0878 137.886L85.777 137.731L81.7367 135.4L76.9196 132.655L76.557 132.499L72.5168 130.168L67.7514 127.475L67.337 127.32L63.2968 124.937L58.376 122.14L58.117 121.984L57.6508 121.725L54.0768 119.757L49.2596 116.96L48.897 116.805L44.8568 114.474L40.0914 111.78L39.677 111.625L35.6368 109.242L30.8714 106.549L30.4052 106.393L26.365 104.011L21.6514 101.317L21.1853 101.162L17.145 98.779L12.0171 95.8784H11.9653L8.13224 93.6511L7.92505 93.5475V40.7656L109.863 98.6236H109.966ZM58.117 121.156V70.0831L54.8538 68.2184V119.343L58.117 121.156ZM104.217 96.2409L100.954 94.3762V145.501L104.217 147.313V96.2409ZM100.177 93.9618L95.7739 91.4238V142.393H100.177V93.9618ZM94.997 142.134V91.0094L91.7337 89.1447V140.269L94.997 142.134ZM91.0085 88.7303L86.5539 86.1922V137.161H90.9567V88.7303H91.0085ZM85.8288 136.902V85.7778L82.5655 83.9131V135.037L85.8288 136.902ZM81.8403 83.5505L77.334 81.0124V132.033H81.7886V83.5505H81.8403ZM76.6088 131.671V80.5462L73.3455 78.6815V129.806L76.6088 131.671ZM72.6722 78.3189L68.1658 75.7291V126.75H72.6204V78.3189H72.724H72.6722ZM67.3888 126.439V75.3147L64.1255 73.45V124.574L67.3888 126.439ZM63.504 73.1392L58.9458 70.5493V121.518H63.3486V73.1392H63.4522H63.504ZM54.1804 67.8558L49.7258 65.3177V116.338H54.1804V67.8558ZM49.0006 116.028V64.8516L45.7374 62.9868V114.111L49.0006 115.976V116.028ZM45.064 62.676L40.5576 60.0862V111.107H45.0122V62.6243H45.1158L45.064 62.676ZM39.7806 110.796V59.62L36.5174 57.7553V108.88L39.7806 110.744V110.796ZM35.7404 57.3927L31.3376 54.8546V105.875H35.7404V57.3409V57.3927ZM30.5606 105.565V54.3884L27.2974 52.5237V103.648L30.5606 105.513V105.565ZM26.5204 52.1611L22.1176 49.623V100.696H26.5204V52.1611ZM21.3406 100.333V49.1568L18.0774 47.2921V98.4165L21.3406 100.281V100.333ZM17.3004 46.9296L12.8458 44.3915V95.205H17.3004V46.8778V46.9296ZM12.1207 94.9978V43.9253L8.85741 42.0606V93.0813L12.1207 94.8942V94.9978ZM105.046 96.7589V147.676H109.449V99.297L105.046 96.7589Z" fill="#36AE7B"/>
<path d="M150.783 57.2837L147.468 55.3672L99.8141 82.1984L103.129 84.1149L150.783 57.2837Z" fill="white"/>
<path d="M159.122 62.104L155.756 60.1875L108.154 87.0705L111.469 88.9352L159.122 62.104Z" fill="white"/>
<path d="M142.081 52.3696L138.766 50.4531L91.1121 77.3361L94.4272 79.2008L142.081 52.3696Z" fill="white"/>
<path d="M133.586 47.3462L130.219 45.4297L82.6173 72.3127L85.9324 74.1774L133.586 47.3462Z" fill="white"/>
<path d="M125.195 42.4712L121.88 40.5547L74.2261 67.3859L77.5411 69.3024L125.195 42.4712Z" fill="white"/>
<path d="M116.493 37.5493L113.178 35.6328L65.5241 62.5158L68.8392 64.3805L116.493 37.5493Z" fill="white"/>
<path d="M107.998 32.5259L104.683 30.6094L57.0293 57.4924L60.3443 59.3571L107.998 32.5259Z" fill="white"/>
<path d="M99.2444 27.7632L95.9293 25.8984L48.2755 52.7296L51.5905 54.6462L99.2444 27.7632Z" fill="white"/>
<path d="M90.6977 22.7368L87.3827 20.8203L39.7288 47.7033L43.0957 49.568L90.6977 22.7368Z" fill="white"/>
<path d="M81.8404 17.8696L78.4735 15.9531L30.8715 42.7843L34.1865 44.7008L81.8404 17.8696Z" fill="white"/>
<path d="M73.1384 12.9478L69.7715 11.0312L22.1694 37.9142L25.4845 39.779L73.1384 12.9478Z" fill="white"/>
<path d="M64.5917 7.92433L61.2767 6.00781L13.6228 32.8908L16.9379 34.7555L64.5917 7.92433Z" fill="white"/>
<path d="M115.664 97.5868L115.871 97.4832L173.419 64.6435L173.056 64.0219L60.8105 0L60.6033 0.103595L3.00427 32.9433V33.3577L115.664 97.5868ZM172.331 64.4363L115.664 96.7581L4.14382 33.1505L60.8105 0.880561L172.331 64.4881V64.4363Z" fill="#1B3054"/>
<path d="M11.9135 33.2051L12.4832 32.8943L60.8623 5.33797L61.0695 5.23438L78.4217 15.1795H78.4735L83.3425 17.9248H83.2907L87.0719 20.1521L87.2273 20.0485L92.0963 22.8456L91.9409 22.9492L95.7221 25.1247H95.8257L100.695 27.8182H100.591L121.569 39.887L126.438 42.6323L164.976 64.6981L116.545 91.8919L115.871 92.2545L115.664 92.3581L11.9135 33.2051ZM161.143 65.8377L158.812 62.419L112.09 89.4574L115.612 91.4775L161.143 65.8377ZM121.517 40.664L73.7599 67.5988L77.0749 69.5153L124.832 42.5805L121.517 40.664ZM95.7221 25.9017L47.9128 52.8364L51.2279 54.753L99.089 27.8182L95.7739 25.9017H95.7221ZM93.0286 26.4714L91.1639 23.26L43.3028 50.1948L47.1359 52.3703H47.1877V52.2667L93.0286 26.4196V26.4714ZM87.0719 20.9291L39.2108 47.9157L42.5259 49.8322L90.387 22.8974L87.0719 20.9809V20.9291ZM84.3266 21.5506L82.4619 18.3392L34.6008 45.3258L38.4339 47.5013V47.4495L84.2748 21.6024L84.3266 21.5506ZM78.4217 15.9565L30.5088 42.9949L33.8239 44.9114L81.7367 17.9248L78.4217 16.0083V15.9565ZM21.9104 38.0741L25.2255 39.9906L73.0865 13.004L69.7715 11.0875L21.9104 38.0741ZM66.819 11.8645L64.9543 8.65302L17.3522 35.4842L21.1334 37.6597L66.819 11.8645ZM64.3327 8.13505L61.0177 6.21853L13.4156 33.2051L16.5752 35.018L64.3327 8.13505ZM25.9506 40.405L29.7319 42.5805L75.5728 16.7335L73.7081 13.522L25.9506 40.405ZM65.0061 62.678L68.3211 64.5945L116.079 37.7115L112.764 35.795L65.0061 62.7298V62.678ZM109.863 36.5202L107.998 33.3087L60.4997 60.0881L64.2809 62.2636L109.915 36.5202H109.863ZM107.377 32.7907L104.062 30.8742L102.611 31.703L56.4077 57.809L59.6709 59.6737L107.325 32.8425L107.377 32.7907ZM101.575 31.3922L99.7105 28.2325L51.9013 55.1673L55.6307 57.291L101.575 31.3922ZM69.0981 64.9571L72.8793 67.1326L118.565 41.3892L116.7 38.1777L69.0981 65.0089V64.9571ZM153.632 61.3831L108.154 87.2301L111.261 88.9912L158.087 61.8492L155.393 60.3471L153.632 61.3313V61.3831ZM152.855 60.9687L151.146 57.9126L103.647 84.692L107.221 86.7121L152.907 60.9687H152.855ZM150.524 57.3946L147.209 55.4781L99.5551 82.3093L102.87 84.2258L150.524 57.3946ZM144.308 56.2551L142.444 53.0436L94.997 79.7712L98.7782 81.9467L144.308 56.3069V56.2551ZM141.822 52.5257L138.507 50.6091L90.9049 77.3885L94.2718 79.3051L141.822 52.5257ZM135.865 51.1789L134.001 47.9675L86.3985 74.7987L90.1798 76.9742L135.917 51.1789H135.865ZM133.379 47.4495L130.064 45.533L128.355 46.4653L82.3065 72.4678L85.6216 74.3325L133.379 47.4495ZM127.319 46.2063L125.454 43.0467L77.8001 69.8779L81.5295 72.0016L127.319 46.2063Z" fill="#1B3054"/>
<path d="M119.445 153.061L169.378 124.625V70.7031L119.445 99.1401V153.061ZM168.394 124.055L120.378 151.456V99.7098L168.394 72.3089V124.055Z" fill="#36AE7B"/>
<path d="M144.775 138.094H145.707L145.603 85.3125H144.671L144.775 138.094Z" fill="#36AE7B"/>
<path d="M155.445 110.845H155.548C155.289 111.156 155.134 111.622 155.134 111.985C155.134 112.658 155.6 112.917 156.222 112.606L158.708 111.208C159.278 110.845 159.796 110.068 159.796 109.395C159.796 108.98 159.64 108.773 159.381 108.67H159.485C160.417 108.1 161.194 108.514 161.194 109.602C161.194 110.69 160.417 111.985 159.485 112.554L155.548 114.782C154.616 115.3 153.839 114.885 153.839 113.798C153.839 112.71 154.616 111.415 155.548 110.845H155.445Z" fill="#36AE7B"/>
<path d="M130.219 125.197H130.323C130.064 125.507 129.909 125.974 129.909 126.336C129.909 127.01 130.375 127.269 130.996 126.958L133.483 125.559C134.052 125.197 134.57 124.42 134.57 123.746C134.57 123.332 134.415 123.125 134.156 123.021H134.26C135.192 122.451 135.969 122.866 135.969 123.953C135.969 125.041 135.192 126.336 134.26 126.906L130.323 129.133C129.391 129.651 128.614 129.237 128.614 128.149C128.614 127.061 129.391 125.766 130.323 125.197H130.219Z" fill="#36AE7B"/>
<path d="M116.338 98.625H115.302V163.683H116.338V98.625Z" fill="#36AE7B"/>
<path d="M141.169 145.084L132.931 149.773L133.367 150.539L141.605 145.849L141.169 145.084Z" fill="#36AE7B"/>
<path d="M115.664 164.558L108.413 160.777L108.827 160L115.716 163.574L119.446 161.865L119.808 162.642L115.664 164.558Z" fill="#36AE7B"/>
<path d="M163.629 135.14L162.075 134.156L160.417 135.14L159.951 134.415L162.127 133.172L164.095 134.415L163.629 135.14Z" fill="#36AE7B"/>
<path d="M25.6398 149.275L0.725159 134.876V106.18L25.6398 120.528V149.275Z" fill="#36AE7B"/>
<path d="M50.5027 106.181L25.6398 120.529L0.725159 106.181L25.6398 91.7812L50.5027 106.181Z" fill="#36AE7B"/>
<path d="M50.5027 109.028L28.1261 121.822L3.26324 107.422L25.6398 94.6797L50.5027 109.028Z" fill="white"/>
<path d="M25.5881 90.9531L0.725168 105.301L0 105.767V135.344L24.8629 149.692L25.5881 150.106L26.3132 149.692L51.1761 135.344V105.767L25.5363 90.9531H25.5881ZM25.5881 92.6624L49.0006 106.182L37.2425 112.967L25.5881 119.701L21.9104 117.577L2.1755 106.182L25.5881 92.6624ZM1.45034 134.463V107.425L24.8629 120.944V147.982L1.45034 134.463Z" fill="#1B3054"/>
<path d="M19.6313 140.679L15.8501 138.503C15.2285 138.14 14.7623 137.208 14.7623 136.379V132.391C14.7623 131.562 15.2803 131.2 15.8501 131.562L19.6313 133.738C20.2529 134.1 20.7191 135.033 20.7191 135.861V139.85C20.7191 140.679 20.2011 141.041 19.6313 140.679Z" fill="#1B3054"/>
<path d="M60.1372 169.119L35.2225 154.771V126.023L60.1372 140.423V169.119Z" fill="#36AE7B"/>
<path d="M85 126.02L60.1372 140.42L35.2225 126.02L60.1372 111.672L85 126.02Z" fill="#36AE7B"/>
<path d="M85 128.923L62.6234 141.665L37.7605 127.317L60.1371 114.523L85 128.923Z" fill="white"/>
<path d="M60.1371 110.844L35.2742 125.192L34.5491 125.658V155.234L59.412 169.582L60.1371 169.997L60.8623 169.582L85.7252 155.234V125.658L60.0853 110.844H60.1371ZM60.1371 112.553L83.5497 126.072L71.7916 132.858L60.1371 139.591L56.4595 137.468L36.7246 126.072L60.1371 112.553ZM35.9994 154.406V127.367L59.412 140.886V167.925L35.9994 154.406Z" fill="#1B3054"/>
<path d="M54.1286 160.515L50.3474 158.339C49.7258 157.976 49.2596 157.044 49.2596 156.215V152.227C49.2596 151.398 49.7776 151.036 50.3474 151.398L54.1286 153.574C54.7502 153.936 55.2164 154.869 55.2164 155.697V159.686C55.2164 160.515 54.6984 160.877 54.1286 160.515Z" fill="#1B3054"/>
<path d="M40.3504 127.736L15.4357 113.388V84.6406L40.3504 99.0404V127.736Z" fill="#36AE7B"/>
<path d="M65.2133 84.637L40.3504 99.0368L15.4357 84.637L40.3504 70.2891L65.2133 84.637Z" fill="#36AE7B"/>
<path d="M65.2133 87.5404L42.8367 100.283L17.9738 85.9347L40.3504 73.1406L65.2133 87.5404Z" fill="white"/>
<path d="M40.3504 69.4609L15.4875 83.8089L14.7623 84.2751V113.852L39.6252 128.2L40.3504 128.614L41.0756 128.2L65.9384 113.852V84.2751L40.2986 69.4609H40.3504ZM40.3504 71.1703L63.7629 84.6895L52.0049 91.475L40.3504 98.2086L36.6728 96.0849L16.9378 84.6895L40.3504 71.1703ZM16.1609 112.971V85.9326L39.5734 99.4518V126.49L16.1609 112.971Z" fill="#1B3054"/>
<path d="M34.3419 119.132L30.5607 116.956C29.9391 116.594 29.4729 115.661 29.4729 114.832V110.844C29.4729 110.015 29.9909 109.653 30.5607 110.015L34.3419 112.191C34.9635 112.553 35.4296 113.486 35.4296 114.315V118.303C35.4296 119.132 34.9117 119.494 34.3419 119.132Z" fill="#1B3054"/>
</g>
<defs>
<clipPath id="clip0_308_2156">
<rect width="173.47" height="170" fill="white"/>
</clipPath>
</defs>
</svg>