<svg width="25" height="19" viewBox="0 0 25 19" fill="none" xmlns="http://www.w3.org/2000/svg">
<path d="M17.3449 9.14786C16.2518 9.14786 15.3657 8.26172 15.3657 7.16862L15.3657 2.04381C15.3657 0.939237 16.2611 0.0438092 17.3657 0.0438093L22.5 0.0438097C23.6046 0.0438098 24.5 0.939241 24.5 2.04381L24.5 6.4702C24.5 8.96935 24.0821 11.2602 23.2463 13.3429C22.593 14.9706 21.5933 16.562 20.2471 18.1171C19.5849 18.882 18.4393 18.9417 17.6442 18.3161L17.3229 18.0632C16.4106 17.3453 16.3106 16.011 17.0025 15.0788C17.9394 13.8164 18.6267 12.5614 19.0645 11.3137C19.4572 10.1945 18.5311 9.14786 17.3449 9.14786ZM2.47924 9.14786C1.38614 9.14786 0.500001 8.26172 0.500001 7.16862L0.500002 2.04381C0.500002 0.939235 1.39543 0.0438079 2.5 0.043808L7.63433 0.0438084C8.7389 0.0438085 9.63433 0.93924 9.63433 2.04381L9.63433 6.4702C9.63433 8.96935 9.21642 11.2602 8.3806 13.3429C7.72733 14.9706 6.7276 16.562 5.38139 18.1171C4.71924 18.882 3.57361 18.9417 2.77856 18.3161L2.45725 18.0632C1.54488 17.3453 1.44495 16.011 2.13683 15.0788C3.07369 13.8164 3.761 12.5614 4.19878 11.3137C4.5915 10.1945 3.66541 9.14786 2.47924 9.14786Z" fill="#6FE1B3"/>
</svg>
