<svg width="28" height="19" viewBox="0 0 28 19" fill="none" xmlns="http://www.w3.org/2000/svg">
<path d="M26.18 5.94591C26.18 5.9129 26.147 5.9129 26.147 5.87988C23.803 7.23342 20.2706 9.04914 19.4453 11.4591C19.4123 11.5911 19.3793 11.8552 19.3463 11.9873C19.0822 13.638 17.6956 14.9255 16.3421 15.6848C15.0216 16.4441 13.602 16.9393 12.1494 17.1704C13.2058 18.3588 14.7905 18.9531 16.7382 18.92C18.8511 18.854 21.096 17.9957 23.0107 16.5101C26.9393 13.5059 28.3588 8.75202 26.18 5.94591Z" fill="#459ED9"/>
<path d="M12.2814 16.9063C13.5029 16.2461 14.6914 15.5858 15.7478 14.7935C16.7712 14.0012 17.7616 13.0768 17.9597 11.7893C17.9927 11.5912 18.0257 11.2941 18.0917 11.096C19.0821 8.05883 23.0107 6.37517 26.0149 5.74792C24.9915 4.55945 23.4068 3.96521 21.6571 3.96521C19.5773 3.96521 17.2004 4.79054 15.1536 6.37516C14.9555 6.54023 14.7574 6.67228 14.5923 6.83735C14.8234 8.09185 14.8895 9.47839 14.6914 10.898C14.3943 13.2419 13.5029 15.3217 12.2814 16.9063Z" fill="#459ED9"/>
<path d="M0.891923 9.14823C0.264674 14.0672 2.6086 18.4579 6.141 18.8871C6.17402 18.8871 6.20703 18.8871 6.24004 18.8871C6.70222 17.4675 7.09838 16.048 7.26345 14.6284C7.42851 13.3409 7.46152 11.9874 6.73524 10.9309C6.60318 10.7659 6.43812 10.5348 6.33908 10.3367C4.8865 7.49758 6.50415 3.53601 8.1548 0.960992C8.05576 0.960992 7.95672 0.927979 7.82467 0.927979C4.52336 0.994005 1.48616 4.49339 0.891923 9.14823Z" fill="#459ED9"/>
<path d="M8.38587 1.02698C8.35286 1.02698 8.35286 1.02698 8.31985 1.02698C7.62657 3.63501 6.40509 7.3985 7.52753 9.70942C7.59356 9.84147 7.72561 10.0395 7.82465 10.1716C8.81504 11.5251 8.71601 13.4069 8.31985 14.8925C7.92369 16.3781 7.26343 17.7316 6.40509 18.9201C9.80544 19.1181 13.0077 15.5527 13.6019 10.7658C14.2622 5.84689 11.9183 1.48916 8.38587 1.02698Z" fill="#459ED9"/>
</svg>
