<svg width="32" height="19" viewBox="0 0 32 19" fill="none" xmlns="http://www.w3.org/2000/svg">
<path d="M12.4257 3.33746C14.9107 2.41746 17.5357 1.93246 20.1907 1.90246C20.5807 1.90246 20.9607 1.91246 21.3307 1.93746C19.5907 0.187466 17.5357 0.0274658 15.1107 0.0274658H9.13571L12.4057 3.29746C12.4157 3.31246 12.4257 3.33746 12.4257 3.33746Z" fill="#459ED9"/>
<path d="M14.9757 16.0474L12.0507 18.9724H17.6207C18.5957 18.9774 19.5307 18.5924 20.2207 17.9024L21.4207 16.6824C21.0157 16.7174 20.6007 16.7374 20.1757 16.7374C18.4207 16.7324 16.6707 16.4974 14.9757 16.0474Z" fill="#459ED9"/>
<path d="M0.0957407 3.48755C-0.164258 5.35254 0.27574 7.24254 1.33074 8.79753C1.46574 8.99253 1.46574 9.24753 1.33074 9.44253C1.31074 9.47253 -0.359258 12.0375 0.0707408 14.7725L4.49073 10.7175C4.06073 10.3025 3.82573 9.72753 3.83573 9.13253C3.84073 8.55753 4.08073 8.00753 4.49073 7.60754C2.97073 6.17754 1.08574 4.41255 0.0957407 3.48755Z" fill="#459ED9"/>
<path d="M31.6506 7.91243C29.8306 6.08243 25.9407 3.00244 20.1907 3.00244C13.7607 3.00244 8.17072 6.31743 5.40572 8.28742C5.12572 8.48242 4.95572 8.80742 4.95072 9.14742C4.94572 9.48242 5.10072 9.79742 5.36572 9.99742C8.13071 12.0974 13.7407 15.6274 20.1857 15.6274C25.9757 15.6274 29.9006 11.8174 31.7306 9.54742H31.7206C32.1206 9.06742 32.0856 8.35742 31.6506 7.91243ZM24.8957 13.1274C24.6707 13.3374 24.3157 13.3224 24.1107 13.0974C21.9707 10.9574 21.9707 7.48743 24.1107 5.34743C24.3307 5.13243 24.6807 5.13243 24.8957 5.34743C25.1107 5.56743 25.1107 5.91743 24.8957 6.13243C23.1907 7.83743 23.1907 10.6024 24.8957 12.3074C24.9057 12.3174 24.9157 12.3274 24.9257 12.3374C25.1357 12.5674 25.1207 12.9174 24.8957 13.1274ZM27.6107 9.69242C27.0957 9.69242 26.6807 9.27742 26.6807 8.76242C26.6807 8.24742 27.0957 7.83243 27.6107 7.83243C28.1257 7.83243 28.5407 8.24742 28.5407 8.76242C28.5407 9.27242 28.1257 9.69242 27.6107 9.69242Z" fill="#459ED9"/>
</svg>
