<svg width="28" height="19" viewBox="0 0 28 19" fill="none" xmlns="http://www.w3.org/2000/svg">
<path d="M2.59747 10.5898C4.30472 12.8835 9.09956 16.1238 15.2747 15.5412C16.2918 15.432 17.1999 15.3228 17.9627 15.2136C20.0696 14.8495 21.4862 14.3398 22.4307 13.6116C23.811 12.5558 23.7383 11.2451 23.702 9.86159C23.6657 8.66012 23.6294 7.42225 24.4648 6.22078C25.5183 4.80087 25.5909 3.63581 24.7918 2.76202C22.7576 0.577537 15.7833 0.759577 11.8239 1.05084C8.51837 1.3057 5.14018 2.83484 3.21498 4.98291C1.54405 6.87613 1.32611 8.87857 2.59747 10.5898ZM19.3431 2.90765C21.123 2.61639 22.7213 3.30814 22.9392 4.4732C23.1572 5.63826 21.8495 6.83972 20.0696 7.16739C18.2897 7.45866 16.6914 6.76691 16.4734 5.60185C16.2918 4.40038 17.5632 3.19892 19.3431 2.90765Z" fill="#459ED9"/>
<path d="M26.7896 3.67221C26.826 3.05328 26.608 2.50716 26.1721 2.07026C25.1914 1.05084 21.9948 -0.587526 11.6786 0.213451C8.00986 0.468307 4.23211 2.17948 2.08896 4.58242C1.25349 5.49262 0.744951 6.43923 0.563329 7.34943C-0.30846 9.75236 -0.163162 11.864 0.962898 13.5752C4.05048 18.3082 13.7128 19 19.1978 19C21.5952 19 23.4841 18.1626 24.8281 16.5243C26.3538 14.6674 27.1529 11.7912 27.1529 8.00477C27.1166 6.22078 26.9349 4.54601 26.7896 3.67221ZM2.5975 4.80086C4.59535 2.54356 8.11883 0.941611 11.606 0.686755C15.0568 0.431899 23.3388 0.0678184 25.5546 2.36153C26.3901 3.23532 26.2448 4.36397 25.1914 5.78388C24.1016 7.2402 24.138 8.76934 24.2106 10.1164C24.2469 11.6092 24.2833 12.9199 22.9756 13.9393C21.7405 14.9223 19.2705 15.5412 15.4564 15.9053C8.91797 16.4878 3.79621 13.0655 1.94366 10.5897C0.635978 8.80575 0.853925 6.7669 2.5975 4.80086ZM24.3559 16.233C23.1209 17.7257 21.3773 18.4903 19.1252 18.4903C14.8025 18.4903 4.41373 17.9806 1.36247 13.2839C0.599653 12.1553 0.345381 10.8082 0.563329 9.31546C0.708627 9.82517 0.962898 10.3349 1.32614 10.8446C3.25134 13.3932 8.59105 16.9976 15.4927 16.3422C16.6188 16.233 17.5995 16.1238 18.5077 15.9781C20.8687 15.5776 22.467 14.9951 23.4841 14.1941C25.0097 12.9927 24.9371 11.5728 24.9008 10.0072C24.8644 8.66012 24.8281 7.2402 25.7726 5.92951C26.0268 5.60184 26.2085 5.27417 26.3901 4.9829C26.717 7.82273 26.8623 13.2111 24.3559 16.233Z" fill="#459ED9"/>
</svg>
