<svg width="29" height="23" viewBox="0 0 29 23" fill="none" xmlns="http://www.w3.org/2000/svg">
<path d="M9.15672 11.7766C10.2613 11.7766 11.1567 12.672 11.1567 13.7766V20.5876C11.1567 21.6922 10.2613 22.5876 9.15672 22.5876H2.5C1.39543 22.5876 0.5 21.6922 0.5 20.5876V14.9563C0.5 11.9886 0.987562 9.26814 1.96269 6.79502C2.75446 4.78691 3.9825 2.82538 5.64678 0.910447C6.31918 0.136787 7.48121 0.0746582 8.28126 0.715424L9.19523 1.44743C10.0906 2.16455 10.1915 3.48087 9.49868 4.3952C8.17993 6.13567 7.25296 7.86445 6.71777 9.58154C6.36159 10.7243 7.29774 11.7766 8.49469 11.7766H9.15672ZM26.5 11.7766C27.6046 11.7766 28.5 12.672 28.5 13.7766V20.5876C28.5 21.6922 27.6046 22.5876 26.5 22.5876H19.8433C18.7387 22.5876 17.8433 21.6922 17.8433 20.5876V14.9563C17.8433 11.9886 18.3308 9.26814 19.306 6.79502C20.0977 4.78691 21.3258 2.82538 22.9901 0.910445C23.6625 0.136786 24.8245 0.074658 25.6245 0.715424L26.5385 1.44743C27.4339 2.16454 27.5348 3.48087 26.842 4.3952C25.5232 6.13567 24.5962 7.86445 24.061 9.58154C23.7049 10.7243 24.641 11.7766 25.838 11.7766H26.5Z" fill="#6FE1B3"/>
</svg>
