<svg width="24" height="20" viewBox="0 0 24 20" fill="none" xmlns="http://www.w3.org/2000/svg">
<path d="M22.846 17.7138L21.099 15.2612V2.30769H21.5532C21.7121 2.75423 22.134 3.07692 22.6335 3.07692C23.268 3.07692 23.7844 2.55923 23.7844 1.92308C23.7844 1.28692 23.268 0.769231 22.6335 0.769231C22.134 0.769231 21.7121 1.09192 21.5532 1.53846H16.4956C16.4956 0.69 15.8074 0 14.9611 0C14.1149 0 13.4267 0.69 13.4267 1.53846H8.43962C8.43962 0.69 7.75141 0 6.90514 0C6.05888 0 5.37067 0.69 5.37067 1.53846H2.23113C2.07231 1.09192 1.65033 0.769231 1.15086 0.769231C0.516351 0.769231 0 1.28692 0 1.92308C0 2.55923 0.516351 3.07692 1.15086 3.07692C1.65033 3.07692 2.07231 2.75423 2.23113 2.30769H2.68533V15.2612L0.938332 17.7138C0.405102 17.8142 0 18.2831 0 18.8462V20H23.7844V18.8462C23.7844 18.2831 23.3793 17.8142 22.846 17.7138ZM16.112 3.975C16.6383 4.39038 17.284 4.61538 17.9641 4.61538H18.7973V6.15385H18.0301C18.0301 5.72962 17.686 5.38462 17.2629 5.38462H14.9611C14.538 5.38462 14.1939 5.72962 14.1939 6.15385H13.4267V4.61538H14.2599C14.94 4.61538 15.5857 4.39038 16.112 3.975ZM14.9611 0.769231C15.3843 0.769231 15.7284 1.11423 15.7284 1.53846H14.1939C14.1939 1.11423 14.538 0.769231 14.9611 0.769231ZM8.056 3.975C8.38591 4.235 8.76531 4.41077 9.16773 4.51269C9.04152 5.01269 8.59307 5.38462 8.056 5.38462C7.51893 5.38462 7.07048 5.01269 6.94427 4.51308C7.34669 4.41077 7.72609 4.235 8.056 3.975ZM6.90514 0.769231C7.32827 0.769231 7.67238 1.11423 7.67238 1.53846H6.1379C6.1379 1.11423 6.48201 0.769231 6.90514 0.769231ZM3.83619 18.8462V19.2308H2.30171V18.8462C2.30171 18.4373 2.08727 18.0796 1.76618 17.8746L3.06895 16.0465L4.37172 17.8746C4.05063 18.0796 3.83619 18.4373 3.83619 18.8462ZM17.6465 18.8462V19.2308H6.1379V18.8462C6.1379 18.2831 5.7328 17.8142 5.19957 17.7138L3.45257 15.2612V2.30769H7.67238V3.29192C7.26498 3.64885 6.75016 3.84615 6.20389 3.84615H4.21981V5.96154L4.68015 6.30769C5.33844 6.80269 5.73472 7.58539 5.75122 8.40885L4.17608 13.1462L4.29653 13.3077C4.34832 13.3769 5.59086 15 8.056 15C10.5211 15 11.7637 13.3769 11.8155 13.3077L11.9359 13.1465L10.3608 8.40923C10.3773 7.58577 10.7736 6.80308 11.4322 6.30808L11.8922 5.96154V3.84615H9.90811C9.36184 3.84615 8.84664 3.64885 8.43962 3.29192V2.30769H15.7284V3.29192C15.321 3.64885 14.8062 3.84615 14.2599 3.84615H12.6594V6.92308H14.1939V12.3077V12.6923V14.2308H14.9611V12.6923H15.7284V14.2308H16.4956V12.6923H17.2629V14.2308H18.0301V12.6923V12.3077V6.92308H19.5646V3.84615H17.9641C17.4178 3.84615 16.9026 3.64885 16.4956 3.29192V2.30769H20.3318V15.2612L18.5848 17.7138C18.0516 17.8142 17.6465 18.2831 17.6465 18.8462ZM21.4827 18.8462V19.2308H19.9482V18.8462C19.9482 18.4373 19.7337 18.0796 19.4127 17.8746L20.7154 16.0465L22.0182 17.8746C21.6971 18.0796 21.4827 18.4373 21.4827 18.8462Z" fill="#459ED9"/>
</svg>
