<svg version="1.1" id="Layer_1" xmlns="http://www.w3.org/2000/svg" x="0" y="0" viewBox="0 0 600 600" style="enable-background:new 0 0 600 600" xml:space="preserve"><style>.st0{fill:#0a2e57}.st1{fill:#27b67c}</style><path class="st0" d="M299.56 284.98c-15.5 0-28.11-12.61-28.11-28.11s12.61-28.11 28.11-28.11 28.11 12.61 28.11 28.11-12.61 28.11-28.11 28.11zm0-52.81c-13.62 0-24.7 11.08-24.7 24.7s11.08 24.7 24.7 24.7 24.7-11.08 24.7-24.7-11.08-24.7-24.7-24.7zM356.63 289.24c-12.68 0-23-10.32-23-23s10.32-23 23-23 23 10.32 23 23-10.32 23-23 23zm0-43.21c-11.14 0-20.21 9.07-20.21 20.21s9.07 20.21 20.21 20.21 20.21-9.07 20.21-20.21-9.07-20.21-20.21-20.21zM243.34 289.24c-12.68 0-23-10.32-23-23s10.32-23 23-23 23 10.32 23 23-10.32 23-23 23zm0-43.21c-11.14 0-20.21 9.07-20.21 20.21s9.07 20.21 20.21 20.21 20.21-9.07 20.21-20.21-9.06-20.21-20.21-20.21zM389.88 331.94v-19.12c-.01-10.94-8.56-20.05-19.47-20.74h-.01c-.85-.08-1.3.42-1.94 1.2-5.18 6.32-14.51 7.25-20.83 2.09-.95-.78-1.79-1.67-2.52-2.65-.32-.44-.84-.71-1.38-.68-3.6.08-7.13 1.11-10.2 2.98l-.93.56-.71-.82c-4.11-4.79-10.09-7.75-16.39-8.13-.84-.01-1.25.42-1.97 1.3-5.98 7.31-16.8 8.39-24.11 2.41-1.1-.9-2.08-1.93-2.92-3.07-.32-.44-.86-.69-1.38-.68a23.21 23.21 0 0 0-16.22 7.08c-.36.36-.69.74-1.02 1.12l-.71.82-.93-.56a20.7 20.7 0 0 0-9.46-2.97c-.88-.06-1.32.42-1.96 1.21-5.17 6.31-14.51 7.24-20.82 2.08-.95-.78-1.8-1.67-2.52-2.65-.32-.44-.85-.7-1.38-.68-11.36.29-20.26 9.42-20.26 20.78v19.12c0 .92.75 1.67 1.67 1.67h50.69v8.04c0 .92.75 1.67 1.67 1.67h7.08c-.05-.48-.07-.96-.08-1.42-.02-.55-.04-1.07-.11-1.58-.01-.11-.02-.22-.02-.34h-5.2V310.1c.06-10.34 7.86-18.97 18.14-20.07l.67-.07.44.51c7.38 8.54 20.34 9.49 28.88 2.11.73-.63 1.42-1.32 2.05-2.04l.45-.52.68.09c9.93 1.37 17.42 9.97 17.43 19.99v29.88h-4.84c.08.46.08.9.06 1.32h.02c-.06.56-.1 1.11-.13 1.67-.01.12-.02.24-.02.35h6.58c.92 0 1.67-.75 1.67-1.67v-8.04h50.62c.89-.01 1.64-.75 1.64-1.67zm-125.14-32.51a23.384 23.384 0 0 0-2.55 10.66v20.17h-49.03v-17.45c.06-8.84 6.71-16.29 15.49-17.34l.67-.08.44.5c6.61 7.5 18.09 8.22 25.59 1.62.55-.48 1.07-1 1.55-1.55l.46-.52.68.1c2.2.33 4.29 1.07 6.21 2.19l1.04.61-.55 1.09zm121.8 30.84h-48.95V310.1c0-3.7-.89-7.4-2.58-10.69l-.55-1.08 1.05-.61c2.09-1.22 4.37-1.97 6.78-2.24l.66-.07.44.5c3.2 3.63 7.63 5.8 12.46 6.11 4.84.31 9.5-1.29 13.13-4.49.55-.48 1.07-1 1.55-1.55l.46-.52.68.1c8.6 1.3 14.86 8.56 14.86 17.26v17.45z"/><g><path class="st1" d="M299.85 372.67c-16.66 0-30.22-13.56-30.22-30.22s13.56-30.22 30.22-30.22 30.22 13.56 30.22 30.22-13.55 30.22-30.22 30.22zm0-57.88c-15.25 0-27.66 12.41-27.66 27.66s12.41 27.66 27.66 27.66 27.66-12.41 27.66-27.66-12.4-27.66-27.66-27.66z"/></g><g><path class="st1" d="M299.88 341.67h14.06c1.49 0 2.08.61 2.03 2.1-.23 6.91-4.66 12.79-11.25 14.94-6.37 2.07-13.67-.26-17.69-5.64-2.09-2.79-3.2-5.91-3.29-9.4-.03-1.35.57-2 1.92-2h14.22zm-12.76 3.32c.84 6.43 6.4 11.26 12.82 11.17 6.45-.08 11.95-4.94 12.64-11.17h-25.46zM289 331.22c1.88.01 3.45.64 4.78 1.87.74.69.82 1.64.21 2.35-.6.69-1.6.78-2.34.11-1.46-1.32-3.21-1.29-4.4-.56-.3.18-.57.42-.86.64-.72.55-1.69.47-2.27-.2a1.61 1.61 0 0 1 .11-2.23c1.33-1.31 2.95-1.97 4.77-1.98zM310.66 331.22c1.8.01 3.38.63 4.71 1.87.73.68.82 1.66.23 2.35-.62.71-1.62.79-2.38.09-1.51-1.38-3.64-1.35-5.1-.01-.77.71-1.78.63-2.39-.07-.62-.71-.52-1.67.25-2.38 1.31-1.22 2.87-1.84 4.68-1.85z"/></g><g><path class="st0" d="M299.85 452.72c-83.81 0-152-68.19-152-152s68.19-152 152-152 152 68.19 152 152-68.18 152-152 152zm0-300c-81.61 0-148 66.39-148 148s66.39 148 148 148 148-66.39 148-148-66.39-148-148-148z"/></g></svg>