<svg version="1.1" id="Layer_1" xmlns="http://www.w3.org/2000/svg" x="0" y="0" viewBox="0 0 600 600" style="enable-background:new 0 0 600 600" xml:space="preserve"><style>.st0{fill:#0a2e57}.st1{fill:#27b67c}</style><path class="st0" d="M300.14 348.63c-3.48 2.73-7.06 5.28-10.29 8.21-1.38 1.25-2.55 3.18-2.95 4.99-1.05 4.72-1.62 9.55-2.36 14.34-.14.89.06 1.86-.24 2.67-.24.64-1.14 1.58-1.52 1.49-.69-.17-1.74-1.03-1.73-1.58.15-7.76.47-15.54 4.57-22.48.74-1.25 2.13-2.14 3.31-3.09 1.26-1.01 2.7-1.81 3.93-2.85 4.99-4.23 5.04-4.72 2.59-10.7-1.07-2.63-1.91-5.35-2.95-8.29-1.01 1.76-1.82 3.36-2.79 4.85-4.68 7.18-11.31 10.88-20.12 10.61-1.58-.05-3.15-.07-4.73-.01-9.59.36-16.54-3.84-21.21-11.86-2.72-4.67-4.17-9.74-4.37-15.16-.13-3.47-2.25-5.73-5.21-5.67-2.98.05-5.1 2.37-5.01 5.84.23 9.3 2.48 18.07 8.04 25.63 2.04 2.77 4.75 5.2 7.58 7.17 2.49 1.74 4.74 3.65 5.34 6.5 1.32 6.22 2.22 12.53 3.11 18.83.02.18-.03.36-.13.55-.58 1.12-2.19 1.17-2.9.12-.18-.26-.3-.52-.35-.8-.71-4.62-1.02-9.3-1.8-13.9-.65-3.84-2.58-6.76-6.14-9-7.45-4.69-11.58-12.06-13.79-20.33-1.33-5-1.97-10.25-2.32-15.42-.33-4.86 3.44-8.47 8.12-8.63 4.84-.17 8.62 3.22 8.87 8.24.31 6.2 1.93 11.9 5.73 16.86 3.88 5.05 8.99 7.71 15.5 7.54 1.79-.05 3.59-.09 5.38 0 8.52.43 14.47-3.51 18.46-10.64 2.23-3.98 3.49-8.26 3.54-12.89.06-5.36 3.68-9.1 8.64-9.09 4.88.02 8.29 3.59 8.57 8.88.4 7.47 2.8 14.11 8.48 19.25 3.27 2.95 7.15 4.45 11.57 4.51 2.34.03 4.69-.05 7.03.02 8.05.26 13.75-3.52 17.71-10.26 2.41-4.11 3.65-8.59 3.84-13.37.21-5.45 3.72-9.08 8.69-9.03 5.07.05 8.67 3.9 8.5 9.47-.31 10.2-2.63 19.86-9.05 28.05-2.13 2.72-4.75 5.26-7.63 7.14-2.89 1.89-4.72 4.23-5.34 7.41-.9 4.58-1.42 9.23-2.09 13.86-.09.62.15 1.37-.12 1.86-.11.2-.24.38-.39.56-.73.89-2.16.83-2.74-.16-.1-.17-.17-.35-.16-.52.04-6.78.47-13.58 3.4-19.81 1.01-2.14 2.92-4.12 4.9-5.47 4.37-2.98 7.73-6.71 10.19-11.32 3.57-6.72 5.35-13.92 5.53-21.52.08-3.55-1.76-5.87-4.73-6.09-3.04-.22-5.29 2-5.47 5.67-.35 6.86-2.41 13.08-6.65 18.51-3.85 4.92-8.86 7.93-15.15 8.34-3.85.25-7.76.35-11.6.03-10.71-.89-18.74-8.83-21.37-20.9-.44-2.01-.58-4.09-.77-6.15-.31-3.44-2.45-5.66-5.41-5.51-2.89.15-4.9 2.42-4.82 5.74.24 9.98 2.77 19.26 9.08 27.17 1.77 2.21 4.01 4.21 6.41 5.69 2.88 1.78 5.05 4.07 5.7 7.2 1.22 5.97 2.01 12.03 2.79 18.07.02.14 0 .28-.05.43-.44 1.29-2.22 1.41-2.95.27a1.71 1.71 0 0 1-.27-.66c-.68-4.44-.96-8.95-1.69-13.38-.69-4.12-2.51-7.45-6.46-9.72-2.85-1.62-5.04-4.31-7.28-6.31zM258.51 271.53c.14-2.31.65-5.08 1.59-6.65 1.23-2.05 3.27-3.32 5.62-3.72 5.21-.88 9.39 2.8 10.16 8.34.56 4.05 1.24 8.25 2.85 11.96 3.55 8.15 9.87 12.65 19.11 12.25.9-.04 1.8 0 2.7 0 12.92 0 20.88-6.7 23.08-19.48.27-1.59.38-3.22.49-4.83.32-4.82 3.9-8.32 8.57-8.34 4.65-.02 8.54 3.5 8.59 8.29.09 8.69-1.75 17-6.03 24.64-.32.58-1.38 1.27-2.04 1.3-1.27.07-1.27-2.32-.9-3.07 3.42-6.89 5.32-14.13 5.48-21.83.05-2.26-.62-4.09-2.66-5.22-3.36-1.86-7.01.4-7.6 4.45-.54 3.72-.94 7.55-2.2 11.05-4.03 11.26-11.91 16.56-23.84 16.57h-2.16c-14.72 0-24.13-8.02-26.54-22.66-.26-1.59-.36-3.22-.49-4.83-.24-3.08-2.31-5.22-5.1-5.23-2.9-.01-5.16 2.26-5.13 5.46.08 7.3 1.7 14.28 4.88 20.87.75 1.55 1 2.09.71 3.85-.03.16-.06.33-.18.44-.15.14-.38.13-.59.1-3.97-.6-5.28-7.41-6.08-10.64-.87-3.49-2.1-7.31-2.33-10.9-.02-.61-.01-1.36.04-2.17z"/><path class="st0" d="M318.89 268.26a18.89 18.89 0 0 1-18.87 18.89c-10.56.03-19.02-8.42-19.03-19.02-.02-10.26 8.47-18.87 18.62-18.91 10.8-.03 19.3 8.37 19.28 19.04zm-34.33-.07c.11 8.65 6.94 15.49 15.44 15.46 8.47-.03 15.46-7.1 15.4-15.57-.07-8.52-7.1-15.39-15.63-15.27-8.49.13-15.32 7.03-15.21 15.38zM351.84 318.12a18.891 18.891 0 0 1-19.18 18.85c-10.43-.12-18.79-8.62-18.74-19.05.05-10.49 8.74-19.03 19.21-18.9 10.38.13 18.76 8.69 18.71 19.1zm-34.33-.18c-.03 8.56 6.86 15.53 15.37 15.53 8.48 0 15.51-7.04 15.46-15.5-.05-8.45-6.84-15.27-15.29-15.34-8.59-.08-15.51 6.74-15.54 15.31zM267.04 336.97c-10.43-.04-18.88-8.47-18.93-18.89-.04-10.45 8.62-19.11 19.07-19.06 10.37.05 18.88 8.56 18.92 18.94.05 10.5-8.52 19.05-19.06 19.01zm15.49-18.92c.01-8.54-6.91-15.44-15.47-15.42-8.44.02-15.3 6.82-15.37 15.24-.07 8.52 6.83 15.55 15.33 15.6 8.49.05 15.5-6.92 15.51-15.42z"/><path class="st1" d="M364.17 298.4c-1.89 0-3.79.16-5.65-.08a1.38 1.38 0 0 1-.47-.16c-1.06-.6-1.17-2.11-.26-2.93.24-.22.48-.36.72-.37 3.77-.19 7.55-.18 11.32 0 .2.01.39.09.58.21 1.12.71 1.09 2.43-.06 3.09-.17.1-.34.16-.52.19-1.85.26-3.76.08-5.65.08-.01-.02-.01-.02-.01-.03zM350.83 248.63l-7.97 7.97c-.57.57-1.49.57-2.06 0l-.25-.25c-.57-.57-.57-1.49 0-2.06l7.97-7.97c.57-.57 1.49-.57 2.06 0l.25.25c.57.57.57 1.5 0 2.06zM301.84 226.54v11.28c0 .8-.65 1.46-1.46 1.46h-.36c-.8 0-1.46-.65-1.46-1.46v-11.28c0-.8.65-1.46 1.46-1.46h.36c.81 0 1.46.66 1.46 1.46zM251.53 245.23l7.97 7.97c.57.57.57 1.49 0 2.06l-.25.25c-.57.57-1.49.57-2.06 0l-7.97-7.97c-.57-.57-.57-1.49 0-2.06l.25-.25c.57-.57 1.49-.57 2.06 0zM230.16 294.58h11.28c.8 0 1.46.65 1.46 1.46v.36c0 .8-.65 1.46-1.46 1.46h-11.28c-.8 0-1.46-.65-1.46-1.46v-.36c.01-.81.66-1.46 1.46-1.46zM329 229.8l-.26-.11a1.13 1.13 0 0 0-1.49.59l-1.86 4.26c-.25.57.01 1.24.59 1.49l.26.11c.57.25 1.24-.01 1.49-.59l1.86-4.26c.25-.58-.01-1.24-.59-1.49zM333 220.7l-.26-.11a1.13 1.13 0 0 0-1.49.59l-1.86 4.26c-.25.57.01 1.24.59 1.49l.26.11c.57.25 1.24-.01 1.49-.59l1.86-4.26a1.13 1.13 0 0 0-.59-1.49zM272.94 228.87l-.26.11c-.58.25-.84.91-.6 1.49l1.82 4.28c.25.58.91.84 1.49.6l.26-.11c.58-.25.84-.91.6-1.49l-1.82-4.28c-.25-.58-.92-.85-1.49-.6zM269.07 219.71l-.26.11c-.58.25-.84.91-.6 1.49l1.82 4.28c.25.58.91.84 1.49.6l.26-.11c.58-.25.84-.91.6-1.49l-1.82-4.28a1.13 1.13 0 0 0-1.49-.6z"/><g><path class="st1" d="m237.23 268.32-.14.24c-.32.54-.13 1.23.41 1.55l4.01 2.35c.54.32 1.23.13 1.55-.41l.14-.24c.32-.54.13-1.23-.41-1.55l-4.01-2.35c-.54-.31-1.24-.13-1.55.41zM228.66 263.28l-.14.24c-.32.54-.13 1.23.41 1.55l4.01 2.35c.54.32 1.23.13 1.55-.41l.14-.24c.32-.54.13-1.23-.41-1.55l-4.01-2.35a1.14 1.14 0 0 0-1.55.41z"/></g><g><path class="st1" d="m362.62 268.44-.12-.25c-.27-.56-.95-.8-1.51-.53l-4.19 2.01c-.56.27-.8.95-.53 1.51l.12.25c.27.56.95.8 1.51.53l4.19-2.01c.57-.27.8-.95.53-1.51zM371.59 264.16l-.12-.25c-.27-.56-.95-.8-1.51-.53l-4.19 2.01c-.56.27-.8.95-.53 1.51l.12.25c.27.56.95.8 1.51.53l4.19-2.01c.56-.27.8-.95.53-1.51z"/></g><g><path class="st0" d="M300 450c-82.71 0-150-67.29-150-150s67.29-150 150-150 150 67.29 150 150-67.29 150-150 150zm0-295.51c-80.23 0-145.51 65.27-145.51 145.51S219.77 445.51 300 445.51c80.23 0 145.51-65.27 145.51-145.51S380.23 154.49 300 154.49z"/></g></svg>