<svg version="1.1" id="Layer_1" xmlns="http://www.w3.org/2000/svg" x="0" y="0" viewBox="0 0 600 600" style="enable-background:new 0 0 600 600" xml:space="preserve"><style>.st0{fill:#0a2e57}</style><path class="st0" d="M262.74 385.12c-1.74-1.02-2.31-2.52-2.24-4.52.12-3.41.04-6.83.03-10.25-.02-5.61-2.03-10.4-5.93-14.42-1.08-1.11-2.24-2.16-3.27-3.31-1.11-1.24-1.04-2.76.05-3.85 1.08-1.08 2.6-1.14 3.86-.05 6.89 5.98 11.23 13.18 10.9 22.64-.09 2.65-.01 5.31-.01 8.06h26.1c.05-.33.13-.62.13-.91-.02-9.31-.01-18.63-.1-27.94-.08-8.15-2.22-15.94-4.36-23.72-2.07-7.53-4.05-15.09-6.09-22.63-.53-1.95-1.05-2.19-2.93-1.47-5.03 1.94-7.68 7.3-6.28 12.79.72 2.82 1.52 5.63 2.26 8.45.66 2.5.15 4.69-1.92 6.37-1.9 1.54-4.39 1.66-6.8.27-10.54-6.07-21.07-12.15-31.59-18.24-2.76-1.6-4.57-3.94-5.41-7.04-1.58-5.87-3.08-11.76-4.78-17.59-1.71-5.87-7.82-8.98-13.41-6.99-.22.08-.42.23-.77.42 1.39 5.22 2.76 10.41 4.15 15.6.95 3.53 1.99 7.04 2.85 10.6.8 3.31 2.48 6.02 4.89 8.39 7.66 7.53 15.27 15.12 22.9 22.69.4.39.83.76 1.16 1.21.92 1.27.94 2.59-.2 3.71-1.13 1.11-2.44 1.1-3.71.17-.45-.33-.82-.76-1.22-1.15-7.63-7.56-15.23-15.16-22.9-22.68-3.2-3.13-5.29-6.8-6.41-11.13-2.16-8.34-4.45-16.65-6.69-24.97-.09-.35-.27-.68-.4-1.01v-2.61c1.11-3.43 3.84-4.71 7.08-5.17 5.59-.79 10.41.8 14.43 4.82.57.57 1.54.99 2.35 1.01 4.42.15 7.83 2.04 10.45 5.55.41.55 1.19 1.11 1.84 1.17 5.69.51 10 3.97 11.54 9.54 1.78 6.45 3.54 12.92 5.19 19.4.59 2.33 1.79 3.99 3.92 5.12 2.65 1.42 5.23 2.99 8.23 4.72-.95-3.62-1.85-6.76-2.6-9.94a16.068 16.068 0 0 1 11.29-19.16c3.74-1.06 7.6.81 8.56 4.54 3.53 13.68 7.06 27.36 10.25 41.12.88 3.81.75 7.9.8 11.87.11 8.63-.01 17.26.06 25.89.02 1.94-.42 3.51-2.07 4.62-11.06.01-22.12.01-33.18.01zm-11.29-69.59c-.48-1.8-.9-3.39-1.32-4.98-1.13-4.19-2.19-8.39-3.41-12.56-.81-2.77-2.96-4.52-5.16-4.44 1.42 5.28 2.95 10.51 4.2 15.81.73 3.14 2.6 4.94 5.69 6.17zm-21.59-28.97c1.55 5.74 3.1 11.17 4.45 16.64.72 2.92 2.64 4.42 5.66 5.65-1.85-6.49-3.47-12.64-5.39-18.71-.61-1.9-2.3-3.15-4.72-3.58zM304.12 385.12c-1.58-1.06-2.08-2.55-2.07-4.43.07-8.82.11-17.64.01-26.46-.11-10.05 2.09-19.7 4.78-29.29 2.04-7.28 3.93-14.61 5.89-21.92 1.52-5.7 5.48-7.61 10.94-5.27a16.07 16.07 0 0 1 9.34 18.5c-.75 3.18-1.64 6.32-2.61 10 3.63-2.16 6.92-3.9 9.93-6.03 1.07-.76 1.74-2.39 2.13-3.76 1.84-6.44 3.5-12.93 5.26-19.39 1.56-5.7 5.77-9.14 11.61-9.69.61-.06 1.35-.54 1.72-1.05 2.67-3.68 6.19-5.59 10.76-5.67.73-.01 1.61-.5 2.16-1.03 4.92-4.78 10.63-6.16 17.13-4.07 3.41 1.1 4.95 3.97 4.03 7.48-2.37 9.06-4.78 18.1-7.25 27.14-1 3.68-3.1 6.72-5.8 9.39-11.88 11.75-23.69 23.57-35.62 35.27-4.75 4.66-7.21 10.12-6.99 16.8.1 2.98-.07 5.97.05 8.94.08 2-.5 3.51-2.24 4.52-11.04.02-22.1.02-33.16.02zm56.09-76.32c3.96-1.79 4.74-2.69 5.71-6.3.26-.96.47-1.93.79-2.87.54-1.57 1.91-2.36 3.3-2 1.46.38 2.33 1.67 2.03 3.28-.29 1.52-.75 3.01-1.15 4.5-.82 3.02-2.58 5.35-5.28 6.92-10.58 6.13-21.16 12.23-31.76 18.33-2.25 1.29-4.53 1.34-6.64-.24-2.18-1.64-2.69-3.91-2-6.49.76-2.81 1.55-5.62 2.26-8.44 1.36-5.41-1.25-10.71-6.2-12.69-1.97-.79-2.51-.54-3.06 1.5-2.61 9.7-5.43 19.35-7.72 29.12-1.35 5.77-2.35 11.7-2.64 17.61-.45 9.11-.16 18.25-.17 27.38 0 .34.11.69.16 1h26.07c0-2.85.04-5.57-.01-8.29-.13-7.82 2.71-14.35 8.27-19.84 12.03-11.86 23.98-23.8 35.99-35.68 2.31-2.29 3.87-4.93 4.68-8.1 1.25-4.93 2.64-9.82 3.96-14.73 1.04-3.87 2.05-7.75 3.06-11.58-4.43-2-9.53-.76-12.35 3.04-.87 1.17-1.21 2.73-2.07 3.91-.59.81-1.62 1.69-2.52 1.77-.8.07-1.78-.84-2.49-1.52-.38-.36-.35-1.14-.53-1.83-2.59.64-4.17 2.33-5 4.76-.56 1.64-.95 3.34-1.4 5.01-1.06 4.04-2.13 8.1-3.29 12.47zm-11.61 6.66c3.65-1.47 4.68-2.59 5.58-5.91 1.45-5.36 2.88-10.72 4.41-16.4-2.83.82-4.53 2.35-5.27 4.84-.85 2.85-1.57 5.74-2.34 8.61-.79 2.9-1.56 5.81-2.38 8.86z"/><path d="M299.76 223.74c2.14-1.86 4.01-3.99 6.32-5.42 7.34-4.54 14.97-4.64 22.23.03 7.25 4.66 10.36 11.58 9.38 20.18-.77 6.77-4.11 12.42-8.27 17.61-7.76 9.7-17.46 17.17-27.88 23.77-.98.62-1.98.69-2.99.06-10.91-6.85-20.95-14.7-28.89-24.98-.4-.52-.81-1.05-1.15-1.61-.64-1.04-.41-2.18.52-2.8.89-.59 1.95-.41 2.7.51 1.44 1.78 2.78 3.66 4.3 5.37 6.76 7.62 14.75 13.78 23.28 19.27.31.2.96.26 1.25.07 10.14-6.55 19.6-13.89 26.89-23.66 3.09-4.14 5.5-8.62 6.28-13.83 1.19-7.96-3.38-15.63-10.95-18.33a16.72 16.72 0 0 0-19.99 7.2c-.14.23-.26.46-.4.69-1.27 2.06-3.44 2.01-4.8.02-1.11-1.63-2.24-3.32-3.68-4.63-5.39-4.88-13.33-5.63-19.44-2.01-6.52 3.86-9.64 11.08-7.97 18.48.26 1.16.65 2.29.97 3.43.32 1.14-.12 2.14-1.08 2.53-1.05.42-2.17-.02-2.61-1.15-5.74-14.68 3.77-27.58 16.01-29.25 8.01-1.09 14.55 1.69 19.6 8l.37.45z" style="fill:#27b67c"/><g><path class="st0" d="M300 452c-83.81 0-152-68.19-152-152s68.19-152 152-152 152 68.19 152 152-68.19 152-152 152zm0-300c-81.61 0-148 66.39-148 148s66.39 148 148 148 148-66.39 148-148-66.39-148-148-148z"/></g></svg>