<svg version="1.1" id="Layer_1" xmlns="http://www.w3.org/2000/svg" x="0" y="0" viewBox="0 0 600 600" style="enable-background:new 0 0 600 600" xml:space="preserve"><style>.st0{fill:#0a2e57}</style><path class="st0" d="M269.77 275.23h48.5c1.89 0 3.42-.98 3.42-2.19s-1.53-2.19-3.42-2.19h-48.5c-1.89 0-3.42.98-3.42 2.19s1.53 2.19 3.42 2.19zM269.77 294.79h48.5c1.89 0 3.42-.98 3.42-2.19s-1.53-2.19-3.42-2.19h-48.5c-1.89 0-3.42.98-3.42 2.19s1.53 2.19 3.42 2.19zM269.77 314.34h39.61c1.89 0 3.42-.98 3.42-2.19s-1.53-2.19-3.42-2.19h-39.61c-1.89 0-3.42.98-3.42 2.19s1.53 2.19 3.42 2.19zM269.77 333.91h14.9c1.89 0 3.42-.98 3.42-2.19s-1.53-2.19-3.42-2.19h-14.9c-1.89 0-3.42.98-3.42 2.19 0 1.2 1.53 2.19 3.42 2.19z"/><path d="m321.81 352.75 5.42 3.5c.53.34 1.12.51 1.72.51.77 0 1.54-.28 2.13-.83l12.86-11.73a3.172 3.172 0 0 0 .21-4.47 3.172 3.172 0 0 0-4.47-.21l-11.05 10.08-3.38-2.18a3.167 3.167 0 0 0-4.38.94c-.95 1.48-.53 3.44.94 4.39z" style="fill:#27b67c"/><path class="st0" d="M349.51 322.41v-32.15a2.19 2.19 0 1 0-4.38 0v29.53a29.048 29.048 0 0 0-7.21-2.37V252.1c0-1.99-1.62-3.61-3.61-3.61H321.3v-7.21H343c1.18 0 2.13.95 2.13 2.12v36.81a2.19 2.19 0 1 0 4.38 0V243.4c0-3.59-2.92-6.51-6.52-6.51h-21.94a3.753 3.753 0 0 0-3.52-2.47h-7.72a18.05 18.05 0 0 0-3-3.96 18.033 18.033 0 0 0-12.83-5.31c-4.85 0-9.4 1.89-12.82 5.31-1.19 1.19-2.2 2.52-3.01 3.96h-7.71c-1.62 0-3 1.03-3.53 2.47h-21.94c-3.59 0-6.51 2.92-6.51 6.51v116.25c0 3.59 2.92 6.51 6.51 6.51h66.97c5.26 5.35 12.57 8.67 20.64 8.67 15.97 0 28.96-12.99 28.96-28.96 0-9.63-4.75-18.19-12.03-23.46zm-78.45-83.59h8.18c1.05.03 1.88-.48 2.32-1.45l.02-.05a13.43 13.43 0 0 1 2.68-3.75c2.59-2.6 6.04-4.02 9.72-4.02 3.68 0 7.13 1.43 9.73 4.03 1.1 1.1 2 2.36 2.67 3.75 0 .01.01.02.01.03l.03.06c.58 1.2 1.57 1.43 2.3 1.4h8.18v13.03h-45.84v-13.03zm-26.09 122.96c-1.17 0-2.12-.95-2.12-2.12V243.41c0-1.17.95-2.12 2.12-2.12h21.71v7.21h-13.01c-1.99 0-3.61 1.62-3.61 3.61v54.65a2.19 2.19 0 1 0 4.38 0v-53.87h12.26c.2 1.88 1.8 3.35 3.74 3.35h47.09c1.93 0 3.53-1.47 3.73-3.35h12.27v64.06c-.31-.01-.63-.02-.95-.02-15.97 0-28.96 12.99-28.96 28.95 0 1.46.11 2.9.32 4.3h-49.5V316.8a2.19 2.19 0 1 0-4.38 0v34.16c0 1.99 1.62 3.61 3.61 3.61h51.29c.81 2.58 1.98 5 3.44 7.21h-63.43zm87.61 8.68c-13.55 0-24.57-11.02-24.57-24.57 0-13.54 11.02-24.56 24.57-24.56s24.57 11.02 24.57 24.56-11.02 24.57-24.57 24.57z"/><g><path class="st0" d="M300 450c-82.71 0-150-67.29-150-150s67.29-150 150-150 150 67.29 150 150-67.29 150-150 150zm0-295.51c-80.23 0-145.51 65.27-145.51 145.51S219.77 445.51 300 445.51 445.51 380.23 445.51 300 380.23 154.49 300 154.49z"/></g></svg>