<svg version="1.1" id="Layer_1" xmlns="http://www.w3.org/2000/svg" x="0" y="0" viewBox="0 0 600 600" style="enable-background:new 0 0 600 600" xml:space="preserve"><style>.st0{fill:#0a2e57}.st1{fill:#27b67c}</style><path class="st1" d="M400.54 289.54c-1.09 4.18-2.48 8.24-5.07 11.78-4.81 6.56-10.95 10.69-19.41 10.14-2.51-.16-4.98-.97-7.71-1.53-.59 1.72-1.26 3.66-1.87 5.43 3.3-.3 6.58-.93 9.84-.83 6.64.19 12.69 2.32 17.82 6.71 2.68 2.29 3.3 5.35 1.25 8.21-6.46 9.02-15.17 13.61-26.39 12.72-4.05-.32-7.43-2.36-10.45-4.99-.49-.42-.96-.86-1.63-1.45-1.44 2.27-2.82 4.44-4.2 6.59 3.11.38 6.12.5 9 1.15 6.01 1.35 11.24 4.21 15.33 8.93 2.16 2.49 2.22 5.51.23 8.05-6.14 7.8-19.45 11.91-28.79 8.91-4.01-1.29-7.08-3.85-9.67-7.08-.41-.51-.8-1.03-1.24-1.59-3.25 2.82-6.3 5.78-9.68 8.31-5.44 4.07-11.07 7.89-16.67 11.74-1.91 1.31-3.67.99-4.62-.57-.94-1.53-.4-3.21 1.58-4.41 8.58-5.23 16.59-11.19 23.84-18.16 16.57-15.95 27.29-35.23 32.77-57.49 3.69-15 4.67-30.22 3.52-45.59-.04-.57-.56-1.29-1.07-1.6-11.42-6.97-13.14-23.48-3.39-32.76 1.81-1.73 3.98-2.21 6.12-1.1 7.81 4.01 14.54 17.44 9.67 26.91-.88 1.72-2.1 3.32-3.38 4.78-2.26 2.58-2.51 3.26-1.54 6.92 3.49-2.71 7.34-4.72 11.69-5.18 2.95-.31 6-.16 8.94.23 2.54.34 4.07 2.47 4.08 5.04.01 8.24-6.8 20.15-17.88 21.38a19.7 19.7 0 0 1-3.52.06c-1.17-.08-2.32-.35-3.75-.58-.27 2.36-.54 4.72-.82 7.19 2.45-1.08 4.75-2.24 7.15-3.13 4.06-1.49 8.29-1.79 12.58-1.32 3.21.36 5.93 1.5 7.35 4.67-.01 1.15-.01 2.33-.01 3.51zm-9.9 36.33c-5.21-4.19-11.05-5.89-17.57-5.47-5.93.39-9.94 3.55-12.49 8.74-.24.49-.23 1.46.09 1.83 2.67 3.02 5.84 5.24 10.02 5.49 5.11.32 9.62-1.42 13.79-4.19 2.47-1.64 4.61-3.62 6.16-6.4zm-17.85 30.53c-4.46-4.97-10.03-7.35-16.44-7.86-6.49-.52-11.1 2.54-14.4 7.98 2.12 3.31 4.66 6.03 8.48 7.27 6.99 2.28 17.83-1.24 22.36-7.39zm21.93-68.74c-6.17-1.37-11.71-.31-16.93 2.71-4.74 2.74-6.89 6.96-6.95 12.32-.01.62.42 1.61.9 1.8 4.11 1.68 8.29 1.96 12.22-.45 6.01-3.68 9.51-9.1 10.76-16.38zm-26.88-62.93c-7.03 6.55-5.53 19.04 2.77 23.1 7.16-5.66 5.68-18.05-2.77-23.1zm25.58 33.59c-10.29-2.18-20.27 5.53-18.49 14.15 8.98 2.77 18.55-4.5 18.49-14.15zM262.97 361.06c-3.15 2.55-5.81 5.37-9.05 7.17-6.13 3.4-12.66 2.56-19.03.37-4.59-1.57-8.62-4.08-11.84-7.77-2.44-2.8-2.47-5.88.05-8.63 5.85-6.39 13.25-9.32 21.81-9.6.71-.02 1.43 0 2.52 0-1.5-2.37-2.88-4.53-4.31-6.79-1.54 1.21-2.89 2.43-4.4 3.42-6.16 4.05-12.71 3.94-19.37 1.54-5.99-2.16-11.04-5.65-14.6-11.05-2.14-3.24-1.74-6.26 1.3-8.65 7.74-6.08 16.41-8.02 26.01-5.63.38.09.76.19 1.14.27.05.01.11-.05.35-.16-.65-1.91-1.31-3.85-1.92-5.65-2.71.56-5.23 1.36-7.8 1.55-6.89.53-12.49-2.32-17.04-7.3-3.88-4.25-6.37-9.24-7.22-14.97-.58-3.9 1.13-6.53 4.98-7.39 7.09-1.59 13.76-.3 20.07 3.17.56.31 1.11.63 1.89 1.06-.29-2.64-.54-5.03-.8-7.41-13.36 2.03-24.47-6.78-25.16-19.77-.19-3.67 1.26-5.68 4.9-6.36 6.65-1.26 12.7.36 18.26 4.07.43.29.85.61 1.28.91.05.03.13.03.43.08.27-2.4.83-4.46-1.45-6.62-6.13-5.84-6.94-14.05-2.67-22.4 1.85-3.61 4.28-6.73 7.73-8.96 2.44-1.58 4.77-1.45 6.85.35 6.84 5.93 8.78 19.8 3.48 27.09-1.64 2.25-4.25 3.78-6.34 5.71-.59.54-1.29 1.33-1.35 2.04-1.27 16.58.02 32.95 4.46 49 6.57 23.75 19.16 43.73 38.19 59.45 5.23 4.32 11 7.98 16.53 11.93.53.38 1.13.67 1.64 1.07 1.37 1.08 1.7 2.67.86 3.99-.84 1.33-2.45 1.8-3.96.9-2.75-1.64-5.57-3.23-8.09-5.18-5.84-4.53-11.51-9.26-17.25-13.91-.52-.41-.99-.85-1.08-.94zm-23.09-30.8c-2.15-4.97-5.43-8.67-10.93-9.52-2.61-.4-5.37-.41-7.99-.05-4.31.58-8.29 2.15-11.62 5.36 3.24 4.94 7.73 7.88 13.13 9.57 7.04 2.18 12.63.47 17.41-5.36zm-12.71 26.4c4 4.45 9.06 6.82 14.92 7.66 6.47.94 11.53-1.34 15.16-6.74.32-.47.52-1.42.27-1.82-2.04-3.14-4.67-5.6-8.38-6.69-6.94-2.04-17.51 1.54-21.97 7.59zm-21.77-68.84c.67 5.82 3.93 11.35 8.8 15.06 2.82 2.14 5.95 3.12 9.52 2.81 5.32-.47 6.22-1.67 4.95-6.87-2.04-8.27-14.5-14.2-23.27-11zm23.93-39.95c4.34-1.96 6.83-5.14 7.09-9.87.27-4.98-.99-9.48-4.19-13.4-8.59 5.66-9.97 17.22-2.9 23.27zm-22.79 10.45c-.05 9.83 10.22 17.49 18.6 13.99.9-9.06-8.43-16.13-18.6-13.99z"/><path class="st0" d="M265.98 296.46c.44-20.13 16.68-35.13 36.78-33.97 18.79 1.09 33.65 18.76 31.51 37.46-1.68 14.67-11.52 26.19-25.49 29.8-.63.16-1.28.3-1.92.31-1.53.04-2.49-.82-2.83-2.23-.35-1.45.29-2.62 1.63-3.22 1.13-.5 2.37-.72 3.54-1.12 12.18-4.15 20.37-16.37 19.3-28.79-1.17-13.61-10.78-24.17-24.17-26.02-11.81-1.64-21.39 2.68-27.81 12.63-6.46 10.01-6.37 20.5-.02 30.71 3.75 6.03 9.19 9.92 16.02 11.87.31.09.63.17.94.27 1.91.63 2.89 2.06 2.48 3.63-.44 1.72-2.1 2.71-4.03 2-3.24-1.19-6.56-2.31-9.52-4.04-10.19-5.94-16.66-17.73-16.41-29.29z"/><g><path class="st0" d="M310.68 314.84c-.61 0-1.22-.19-1.74-.57l-8.74-6.35-8.74 6.35c-1.04.76-2.44.76-3.49 0a2.957 2.957 0 0 1-1.08-3.31l3.34-10.28-8.74-6.35a2.966 2.966 0 0 1-1.08-3.32c.4-1.23 1.53-2.05 2.82-2.05h10.81l3.34-10.28c.4-1.23 1.53-2.05 2.82-2.05 1.29 0 2.42.82 2.82 2.05l3.34 10.28h10.81c1.29 0 2.42.82 2.82 2.05.4 1.23-.04 2.56-1.08 3.32l-8.74 6.35 3.34 10.28c.4 1.23-.04 2.56-1.08 3.32-.53.37-1.14.56-1.75.56zm-10.48-12.07c.61 0 1.22.19 1.74.57l5.38 3.91-2.06-6.33c-.4-1.23.03-2.56 1.08-3.32l5.38-3.91h-6.65c-1.29 0-2.42-.82-2.82-2.05l-2.06-6.33-2.06 6.33a2.966 2.966 0 0 1-2.82 2.05h-6.65l5.38 3.91c1.04.76 1.48 2.09 1.08 3.32l-2.06 6.33 5.38-3.91c.54-.39 1.15-.57 1.76-.57zm-1.68-22.63z"/></g><g><path class="st0" d="M300 452c-83.81 0-152-68.19-152-152s68.19-152 152-152 152 68.19 152 152-68.19 152-152 152zm0-300c-81.61 0-148 66.39-148 148s66.39 148 148 148 148-66.39 148-148-66.39-148-148-148z"/></g></svg>