<svg version="1.1" id="Layer_1" xmlns="http://www.w3.org/2000/svg" x="0" y="0" viewBox="0 0 600 600" style="enable-background:new 0 0 600 600" xml:space="preserve"><style>.st0{fill:#0a2e57}.st1{fill:#27b67c}</style><path class="st0" d="M300.08 275.48c-7.45 0-14.42-2.84-19.68-8.02-5.33-5.25-8.28-12.29-8.3-19.84-.02-7.57 2.88-14.65 8.17-19.94 5.29-5.29 12.38-8.18 19.94-8.14 15.28.08 27.75 12.57 27.81 27.84.06 15.3-12.31 27.9-27.57 28.09-.12.01-.24.01-.37.01zm-.01-51.41c-6.31 0-12.2 2.42-16.61 6.82-4.44 4.43-6.87 10.37-6.85 16.73.02 6.33 2.49 12.24 6.96 16.63 4.48 4.41 10.48 6.82 16.83 6.72 12.8-.16 23.16-10.73 23.12-23.55-.05-12.81-10.51-23.28-23.32-23.34-.05-.01-.09-.01-.13-.01zM275.9 380.44c-3.16 0-6.34-.08-9.49-.38-4.13-.39-8.63-2.52-11.21-5.3-5.36-5.8-10.45-11.99-15.36-17.99-2.19-2.66-4.44-5.42-6.69-8.1-4.02-4.78-5.07-9.91-3.22-15.69l.76-2.37c1.13-3.52 2.3-7.16 3.36-10.76a1.803 1.803 0 1 1 3.46 1.02c-1.07 3.64-2.25 7.3-3.39 10.84l-.76 2.37c-1.48 4.63-.7 8.41 2.54 12.27 2.26 2.69 4.53 5.46 6.72 8.13 4.88 5.95 9.93 12.11 15.22 17.82 1.95 2.11 5.69 3.86 8.9 4.16 4.94.46 10.05.38 15.01.3 2.53-.04 5.15-.08 7.74-.06 1.61.02 3.55-.07 4.41-.91.15-.15.6-.59.61-1.93.02-2.06-.68-2.47-4.67-2.72l-.49-.03c-2.69-.18-6.36-.42-8.22-2.51-8.73-9.81-16.93-19.76-25.26-29.95-1.33-1.63-1.63-4.32-1.24-6.02 1.34-5.73 2.79-10.88 4.43-15.73.49-1.44 1.77-2.38 2.7-3.06a4.388 4.388 0 0 1 4.95-.14c.51.33.82.9.82 1.52 0 1.58.04 3.17.07 4.75.08 3.58.16 7.27-.17 10.92-.6 6.59 1.17 11.55 5.74 16.09 2 1.99 3.76 4.34 5.46 6.61 2.85 3.81 5.55 7.42 9.03 8.98 4.22 1.9 9.92 1.37 15.43.86 1.92-.18 3.91-.36 5.82-.44 1.51-.06 3.57-1.07 4.79-2.33 5.36-5.53 9.77-10.56 13.51-15.37 1.43-1.84 2.43-4.55 2.55-6.9.28-5.39.22-10.92.17-16.26-.02-2.16-.04-4.32-.04-6.48 0-.51.21-.99.58-1.33 1.55-1.44 3.84-1.62 5.58-.43 1.1.75 2.6 1.77 3.3 3.34 1.05 2.37 1.88 4.83 2.67 7.22.71 2.14 1.45 4.34 2.33 6.4 1.51 3.52.98 6.32-1.78 9.36-6.39 7.05-13.9 15.46-21.24 24.36-3.25 3.95-7.23 7.52-14.18 6.9-.97-.07-3.61 1.79-3.84 2.71-.17.87.09 1.18.19 1.3.5.6 1.89.97 3.6.96 2.57-.02 5.16.02 7.68.06 5.15.08 10.48.16 15.63-.29 3.28-.29 7.04-1.95 9.13-4.04 6.13-6.13 12.05-12.72 17.78-19.08 2.26-2.52 4.53-5.03 6.81-7.53 3.21-3.51 3.95-7.17 2.33-11.52-2.41-6.47-4.73-13.09-6.97-19.49-1.04-2.97-2.08-5.95-3.13-8.92-4.76-13.41-15.31-21.24-28.97-21.5-16.97-.32-35.41-.33-56.38-.04-12.31.17-27.35 9.21-30.18 23.52-.19.98-1.14 1.62-2.12 1.42a1.802 1.802 0 0 1-1.42-2.12c3.19-16.08 19.96-26.24 33.68-26.43 21.01-.29 39.49-.27 56.5.04 15.24.29 27.01 9 32.3 23.9 1.05 2.97 2.1 5.95 3.14 8.93 2.23 6.38 4.55 12.98 6.94 19.42 2.11 5.68 1.12 10.65-3.05 15.21-2.28 2.49-4.53 5-6.79 7.51-5.76 6.4-11.71 13.02-17.91 19.22-2.68 2.68-7.25 4.73-11.37 5.09-5.33.47-10.76.38-16.01.3-2.49-.04-5.07-.08-7.59-.06-2.05.01-4.82-.36-6.4-2.26-.66-.79-1.37-2.18-.96-4.29.51-2.67 4.91-5.87 7.7-5.62 5.02.45 7.95-1.81 11.08-5.6 7.38-8.96 14.93-17.41 21.35-24.49 1.82-2.01 2.09-3.3 1.14-5.51-.94-2.2-1.7-4.48-2.44-6.69-.8-2.41-1.56-4.68-2.54-6.89-.28-.63-1.29-1.32-2.03-1.82a.898.898 0 0 0-.52-.15c0 1.79.02 3.59.04 5.38.05 5.4.1 10.98-.18 16.48-.16 3.09-1.42 6.51-3.31 8.93-3.82 4.91-8.32 10.04-13.77 15.66-1.89 1.95-4.79 3.33-7.24 3.43-1.82.08-3.67.25-5.64.43-5.98.56-12.16 1.13-17.25-1.16-4.33-1.95-7.44-6.1-10.44-10.11-1.62-2.17-3.3-4.41-5.12-6.22-5.33-5.29-7.48-11.32-6.79-18.97.31-3.45.23-7.04.16-10.52-.02-1.11-.05-2.21-.06-3.32-.01.01-.03.02-.04.03-.45.33-1.29.95-1.42 1.31-1.61 4.74-3.02 9.77-4.33 15.39-.21.9.04 2.34.51 2.91 8.31 10.16 16.48 20.08 25.16 29.84.87.98 3.93 1.18 5.76 1.3l.47.03c3.03.19 8.11.51 8.06 6.35-.02 1.88-.59 3.39-1.69 4.48-1.79 1.76-4.53 1.97-6.98 1.94-2.53-.03-5.13.01-7.64.05-1.9.05-3.88.08-5.87.08z"/><path class="st1" d="M276.13 339c-.68 0-1.36 0-2.04-.02-1.02-.02-1.96-.47-2.7-1.3-.52-.58-.72-1.23-.88-1.75-.04-.13-.06-.27-.06-.4v-4.99c0-.72.56-1.31 1.28-1.35.18-.01.28-.02.38-.02.59-.01 1.19.01 1.79-.03.92-.07 1.67-.9 1.71-1.89.03-.95-.69-1.85-1.57-1.95-.46-.05-.95-.05-1.47-.05h-.78c-.74-.01-1.33-.62-1.33-1.35v-4.94c0-.14.02-.28.07-.42l.06-.2c.06-.22.14-.48.27-.76.69-1.39 1.94-2.16 3.52-2.16h3.45v-.45c.02-1.51.67-2.78 1.88-3.66.62-.45 1.29-.64 1.87-.77.1-.02.21-.04.31-.04h.76c.16 0 .32.03.47.08.01 0 .02.01.03.01 1.58.36 2.7 1.34 3.28 2.85.27.7.26 1.39.25 1.93v.04H290.09c.72 0 1.3.13 1.83.4 1.37.71 2.12 1.96 2.12 3.53v3.44c.2 0 .4 0 .6.01 2.32.05 4.21 1.89 4.31 4.19.1 2.36-1.63 4.38-3.94 4.61-.33.03-.66.04-.97.04V335.1c-.01 2.25-1.66 3.88-3.92 3.89h-4.56c-.75 0-1.35-.61-1.35-1.35v-1.48c0-.25 0-.47-.03-.68-.12-.85-.89-1.58-1.71-1.63-1.01-.05-1.86.51-2.09 1.41-.06.24-.08.54-.09.81-.01.35-.01.71-.01 1.05v.48c0 .57-.36 1.08-.89 1.27-.15.05-.38.11-.54.11h-1.3c-.47.02-.94.02-1.42.02zm-2.96-3.68c.08.25.15.45.26.56.31.35.56.39.72.39 1.13.02 2.26.02 3.4.01h.04c0-.11 0-.21.01-.32.02-.41.04-.88.17-1.38.55-2.15 2.55-3.56 4.86-3.44 2.12.12 3.94 1.82 4.25 3.95.05.36.06.7.06 1v.19h3.2c.76 0 1.21-.45 1.21-1.2.01-1.04.01-2.07 0-3.11v-1.69c0-.72.57-1.32 1.29-1.35l.32-.02h.64c.41 0 .8 0 1.17-.03.89-.09 1.53-.86 1.49-1.79-.04-.88-.77-1.58-1.66-1.6-.42-.01-.84-.01-1.27-.01h-.62c-.75 0-1.35-.61-1.35-1.35v-4.8c0-.56-.19-.88-.66-1.12-.13-.07-.32-.1-.58-.1h-4.77c-.75 0-1.35-.61-1.35-1.35v-1.42c0-.39.01-.72-.08-.95-.26-.68-.67-1.03-1.38-1.17-.03-.01-.06-.01-.09-.02h-.37c-.34.09-.58.17-.75.29-.52.38-.76.84-.76 1.5v1.76c0 .75-.61 1.35-1.35 1.35h-4.8c-.55 0-.86.19-1.09.66-.04.09-.07.19-.09.29-.01.03-.02.05-.02.08v3.39c.39 0 .78.02 1.18.07 2.3.27 4.04 2.35 3.96 4.73-.08 2.36-1.93 4.34-4.22 4.51-.31.02-.62.03-.93.03v3.46zm9.86-24.75c.02 0 .03.01.05.01-.01 0-.03-.01-.05-.01zM310.94 343.83c-2.27 0-4.19-1.7-4.41-3.94-.03-.33-.04-.66-.04-.97h-3.48c-2.25-.01-3.88-1.66-3.89-3.92V330.44c0-.75.61-1.35 1.35-1.35h1.48c.25 0 .47 0 .68-.03.85-.12 1.58-.89 1.63-1.71.06-1.02-.51-1.86-1.41-2.09-.24-.06-.54-.08-.82-.09-.35-.01-.7-.01-1.06-.01h-.48c-.57 0-1.08-.36-1.27-.89-.05-.15-.11-.38-.11-.54v-1.33c0-1.15-.01-2.29.01-3.43.02-1.02.47-1.96 1.3-2.7.58-.52 1.23-.72 1.75-.88.13-.04.27-.06.4-.06h4.99c.72 0 1.31.56 1.35 1.28.01.19.02.28.02.37v.62c0 .39 0 .78.03 1.16.07.92.9 1.67 1.89 1.71.95.05 1.85-.69 1.95-1.57.05-.46.05-.95.05-1.48v-.78c.01-.74.62-1.33 1.35-1.33h4.94c.14 0 .28.02.41.07l.2.06c.22.06.49.14.77.28 1.39.69 2.16 1.94 2.16 3.51v3.45h.45c1.51.02 2.78.67 3.66 1.88.45.62.64 1.29.77 1.87.02.1.04.21.04.31v.76c0 .15-.03.31-.08.45 0 .01-.01.03-.02.04-.35 1.57-1.33 2.7-2.85 3.28-.7.27-1.38.25-1.93.25h-.04v3.4c0 .73-.13 1.31-.4 1.85-.71 1.37-1.96 2.12-3.52 2.12h-3.44c0 .2 0 .4-.01.6-.05 2.32-1.89 4.21-4.19 4.31-.05.03-.12.03-.18.03zm-3.44-7.62h.32c.72 0 1.32.57 1.35 1.29.01.17.01.25.02.33v.64c0 .41 0 .8.03 1.16.09.89.85 1.56 1.79 1.49.87-.04 1.58-.78 1.6-1.66.01-.42.01-.83 0-1.26v-.63c0-.75.61-1.35 1.35-1.35h4.8c.56 0 .88-.19 1.12-.66.07-.13.1-.32.1-.59v-4.76c0-.75.61-1.35 1.35-1.35h1.42c.38.01.72.01.95-.08.68-.26 1.03-.67 1.17-1.38.01-.03.01-.06.02-.09v-.37c-.07-.29-.16-.57-.29-.75-.38-.52-.84-.76-1.5-.77h-1.77c-.75 0-1.35-.61-1.35-1.35v-4.8c0-.55-.19-.86-.66-1.09-.1-.05-.2-.07-.3-.1-.03-.01-.05-.01-.08-.02h-3.39c0 .39-.02.78-.07 1.19-.27 2.3-2.36 4.04-4.73 3.96-2.36-.08-4.34-1.93-4.51-4.22-.02-.31-.03-.62-.03-.93h-3.45c-.25.08-.45.16-.56.26-.34.31-.39.56-.39.72-.02 1.12-.02 2.25-.01 3.37v.06c.11 0 .21.01.32.01.41.02.89.04 1.38.17 2.15.55 3.57 2.55 3.44 4.86-.12 2.12-1.81 3.94-3.95 4.25-.35.05-.69.05-.98.06h-.21V335.01c0 .76.45 1.21 1.2 1.21.99.01 1.99.01 2.98 0l1.52-.01zm18.77-8.69z"/><g><path class="st0" d="M300 450c-82.71 0-150-67.29-150-150s67.29-150 150-150 150 67.29 150 150-67.29 150-150 150zm0-295.51c-80.23 0-145.51 65.27-145.51 145.51S219.77 445.51 300 445.51c80.23 0 145.51-65.27 145.51-145.51S380.23 154.49 300 154.49z"/></g></svg>