<svg version="1.1" id="Layer_1" xmlns="http://www.w3.org/2000/svg" x="0" y="0" viewBox="0 0 600 600" style="enable-background:new 0 0 600 600" xml:space="preserve"><style>.st0{fill:#0a2e57}</style><path class="st0" d="M285.77 307.61c-3.63 1.44-7.14 2.82-10.64 4.22-1.44.58-2.74.57-3.66-.85-.88-1.35-.32-3.05 1.31-3.73 4.24-1.76 8.52-3.43 12.79-5.12 1.31-.52 2.33-.04 3.17.97 4.15 4.98 8.36 9.93 12.4 15 .66.83.87 2.21.88 3.33.06 14.18.04 28.35.03 42.53v2.53h8.02c1.26 0 2.52-.03 3.78.01 4.65.18 7.48 4.79 5.67 9.09-.28.67-.29 1.66-.01 2.33 1.36 3.29.13 7.02-3.1 8.49-1.09.49-1.47 1-1.47 2.2-.01 5.89-2.98 8.82-8.84 8.83-4.41.01-8.82 0-13.23 0-5.93-.01-8.84-2.89-8.88-8.76v-1.34c-1.22-.81-2.44-1.41-3.37-2.29-1.95-1.86-2.25-4.52-1.2-7.16.26-.64.13-1.49.02-2.22-.21-1.52-.52-3.02-.86-4.91-3.84-1.79-5.19-5.39-4.96-9.86.44-8.7-3.06-15.63-9.2-21.67-26.58-26.15-17.14-70.18 17.78-83.29 5.24-1.97 10.68-2.9 16.26-3.05 2.23-.06 3.48.82 3.55 2.48.06 1.67-1.13 2.63-3.36 2.69-21.23.58-39.27 15.42-43.39 36.13-3.11 15.62 1.07 29.36 12.19 40.76 4.61 4.73 8.79 9.64 10.25 16.2.76 3.4.87 6.97 1.04 10.47.17 3.67 1.23 4.86 4.92 4.87 4.33.01 8.67 0 13.22 0v-2.2c0-13.86.02-27.72-.04-41.58 0-1.02-.43-2.23-1.06-3.02-3.23-4.04-6.59-7.97-10.01-12.08zm3.53 79.55c-.5 3.7.19 5.07 2.61 5.09 5.03.06 10.06.05 15.09 0 1.85-.02 2.69-.96 2.76-2.84.02-.73 0-1.45 0-2.26-6.96.01-13.66.01-20.46.01zm10.42-7.77h-13.6c-.95 0-2.19-.08-2 1.25.07.53 1.31 1.26 2.02 1.27 8.87.09 17.75.09 26.63 0 .71-.01 1.97-.77 2.02-1.28.13-1.27-1.06-1.25-2.04-1.25-4.34.01-8.69.01-13.03.01zm-.36-5.22h13.41c.98 0 2.17-.01 2.02-1.27-.06-.52-1.32-1.27-2.03-1.27-8.87-.09-17.75-.09-26.62 0-.71.01-1.93.76-2 1.29-.17 1.33 1.07 1.24 2.01 1.25h13.21z"/><path d="M330.55 266.02c9.93-.95 16.11 6.69 15.9 15.36.22.11.48.29.76.37 13.52 3.74 18.05 20.16 8.75 31.23-1.12 1.34-2.61 2.36-3.82 3.63-.42.44-.85 1.26-.73 1.79 1.34 5.96-.19 11.06-4.35 15.48-.42.45-.69 1.36-.57 1.96 2.24 11.08-8.76 21.16-19.77 17.53-.47-.15-1.35.11-1.68.5-4.21 4.94-11.92 4.37-16.39 1.92-.7-.38-1.1-1.44-1.45-2.26-.21-.48-.06-1.12-.06-1.68 0-29.86.03-59.71-.04-89.57-.01-2.31.82-3.82 2.67-4.99 3.94-2.5 8.15-3.27 12.64-1.89 4.3 1.32 6.79 4.36 7.76 8.7.15.61.25 1.22.38 1.92zm-18.18 40.61v42.53c0 3.05.02 3.07 3.09 3.32 3.42.28 6.67-1.83 7.12-4.62.77-4.81-.81-7.3-5.19-8.14-1.52-.29-2.4-1.23-2.27-2.76.12-1.54 1.2-2.52 2.69-2.29 1.77.27 3.65.67 5.16 1.55 3.82 2.24 5.08 5.94 4.78 10.18-.12 1.67.59 2.2 2.07 2.4 7.64 1.04 13.7-6.19 11.14-13.42-.65-1.84-.39-3.11 1.23-4.22 2.05-1.4 3.46-3.34 4.09-5.73 1.8-6.84-1.7-10.56-8.32-9.82-1.58.18-3.14 1.2-4.53 2.11-1.71 1.12-3.18 1.29-4.19.07-1.03-1.24-.72-2.69.86-4.08 4.6-4.03 11.15-4.63 16.52-1.39 1.04.63 1.71.6 2.67-.08 4.8-3.4 7.35-9.79 6.09-15.47-1.26-5.65-5.66-9.61-11.56-10.4-2.63-.35-3.36-1.41-2.91-3.97.19-1.1.28-2.26.2-3.37-.27-3.61-2.99-6.6-6.7-7.51-3.2-.78-6.27.43-8.03 3.17-1.88 2.92-1.57 6.33.84 9.44 1.16 1.49 1.12 3.04-.1 4-1.17.93-2.58.68-3.83-.65-4.6-4.95-4.36-13.01.52-17.79.52-.51 1.1-1.11 1.28-1.77.86-3.08-1.04-6.57-4.08-7.58-2.31-.77-4.59-.5-6.83.38-1.32.52-1.87 1.29-1.86 2.82.08 14.36.05 28.72.05 43.09z" style="fill:#27b67c"/><path class="st0" d="M264.22 292.33c-2.27.09-3.64-1.64-3-3.33 1.69-4.52 4.24-8.53 7.53-12.06 1.05-1.13 2.4-1.14 3.54-.12 1.08.96 1.1 2.19.34 3.41-2.23 3.54-4.42 7.11-6.72 10.61-.47.71-1.33 1.18-1.69 1.49zM288.58 268.86c-.36.36-.95 1.25-1.78 1.73-2.45 1.4-5.02 2.6-7.51 3.93-1.45.77-2.68.64-3.65-.7-.83-1.15-.53-2.81.85-3.59 2.79-1.57 5.63-3.06 8.55-4.37 1.82-.82 3.57.47 3.54 3zM299.8 231.97c-1.67 0-3.02-1.93-3.02-4.32v-20.79c0-2.38 1.35-4.32 3.02-4.32s3.02 1.93 3.02 4.32v20.79c0 2.39-1.35 4.32-3.02 4.32zM353.56 253.14a3.018 3.018 0 0 1 0-4.27l10.29-10.29c1.18-1.18 3.09-1.18 4.27 0s1.18 3.09 0 4.27l-10.29 10.29a3.018 3.018 0 0 1-4.27 0z"/><g><path class="st0" d="M367.87 299.87c0-1.67 1.88-3.02 4.2-3.02h20.23c2.32 0 4.2 1.35 4.2 3.02s-1.88 3.02-4.2 3.02h-20.23c-2.32 0-4.2-1.35-4.2-3.02z"/></g><g><path class="st0" d="M253.29 249.5a3.018 3.018 0 0 0 0-4.27L243 234.94a3.018 3.018 0 0 0-4.27 0 3.018 3.018 0 0 0 0 4.27l10.29 10.29a3.018 3.018 0 0 0 4.27 0z"/></g><g><path class="st0" d="M229.71 297.04c0-1.67-1.72-3.02-3.85-3.02h-18.52c-2.12 0-3.85 1.35-3.85 3.02s1.72 3.02 3.85 3.02h18.52c2.13 0 3.85-1.35 3.85-3.02z"/></g><g><path class="st0" d="M300 450c-82.71 0-150-67.29-150-150s67.29-150 150-150 150 67.29 150 150-67.29 150-150 150zm0-295.51c-80.23 0-145.51 65.27-145.51 145.51S219.77 445.51 300 445.51c80.23 0 145.51-65.27 145.51-145.51S380.23 154.49 300 154.49z"/></g></svg>