<svg version="1.1" id="Layer_1" xmlns="http://www.w3.org/2000/svg" x="0" y="0" viewBox="0 0 600 600" style="enable-background:new 0 0 600 600" xml:space="preserve"><style>.st0{fill:#0a2e57}.st1{fill:#27b67c}</style><path class="st1" d="M347.2 249.87c-.42-.36-1.1-.67-1.32-1.18-.22-.52-.22-1.44.1-1.82 1.36-1.55 2.83-3.02 4.35-4.41.72-.65 1.64-.55 2.36.15.71.69.89 1.61.22 2.34-1.42 1.56-2.95 3.01-4.47 4.47-.22.22-.66.25-1.24.45zM336.19 241.34c0 .95.03 1.9-.01 2.85-.04 1.07-.66 1.67-1.7 1.8-.98.12-1.92-.59-1.97-1.65-.09-1.98-.09-3.97 0-5.95.04-1.05.99-1.76 1.95-1.7.98.06 1.69.82 1.73 1.91.03.92 0 1.83 0 2.74zM309.61 257.08c.87 0 1.74-.02 2.61.01 1.17.04 1.95.78 1.98 1.79.03 1.02-.74 1.88-1.87 1.91-1.86.05-3.72.05-5.58 0-1.14-.03-1.88-.87-1.84-1.93.04-1.01.74-1.7 1.85-1.79.08-.01.17-.01.25-.01.86.02 1.73.02 2.6.02zM359.15 260.81c-.91 0-1.82.04-2.73-.01-1.16-.06-1.9-.83-1.89-1.88.01-1.06.74-1.81 1.92-1.83 1.82-.04 3.64-.04 5.46 0 1.14.03 1.92.83 1.91 1.86-.01 1.03-.78 1.77-1.94 1.86-.08.01-.17 0-.25 0h-2.48zM323.22 248.03c-.33.45-.61 1.21-1.1 1.39-.6.22-1.6.22-2.04-.15-1.51-1.28-2.89-2.71-4.23-4.17-.7-.76-.63-1.71.11-2.46.7-.71 1.64-.84 2.35-.19 1.53 1.38 2.96 2.88 4.39 4.37.24.23.3.65.52 1.21zM271.84 341.27h-14.2c-.41 0-.84.03-1.24-.07-1.05-.27-1.64-.99-1.63-2.07.01-1.02.59-1.72 1.59-1.98.43-.11.91-.09 1.36-.09h28.91c1.51.04 2.42.82 2.43 2.09.01 1.27-.9 2.1-2.39 2.13-1.37.02-2.74.01-4.11.01-3.58-.02-7.15-.02-10.72-.02zM271.91 297.21h14.58c1.64 0 2.55.74 2.56 2.05.01 1.31-.91 2.13-2.51 2.14-9.76.01-19.52.01-29.28 0-1.57 0-2.54-.86-2.52-2.14.02-1.28.97-2.04 2.59-2.04 4.87-.01 9.72-.01 14.58-.01zM271.97 282.32c-4.98 0-9.97.02-14.95-.01-1.84-.01-2.86-1.7-1.95-3.16.56-.9 1.44-1.01 2.39-1.01 4.07.01 8.14 0 12.21 0h16.32c.41 0 .83-.01 1.24.05 1.15.17 1.87 1.04 1.82 2.14-.05 1.11-.83 1.92-2.01 1.96-1.58.05-3.16.02-4.73.02-3.45.01-6.89.01-10.34.01zM271.89 287.7h14.2c.46 0 .93-.04 1.36.07 1.01.23 1.57.91 1.59 1.95.02 1.04-.5 1.75-1.49 2.03-.47.13-.99.11-1.48.11-9.42.01-18.85 0-28.27 0h-.37c-1.72-.02-2.67-.78-2.67-2.1.01-1.32.96-2.06 2.69-2.06 4.81-.01 9.62 0 14.44 0zM323.76 316.09c4.03 0 8.05-.01 12.08 0 2.93.01 4.39 1.44 4.39 4.33.01 6.02.02 12.04 0 18.05-.01 2.79-1.53 4.3-4.33 4.3-8.09.01-16.19.01-24.28 0-2.88 0-4.39-1.51-4.39-4.37-.01-6.02-.01-12.04 0-18.05 0-2.74 1.49-4.25 4.21-4.27 4.11 0 8.21.01 12.32.01zm-12.72 3.81v19.08h25.36V319.9h-25.36zM271.26 306.46c4.03 0 8.05-.01 12.08 0 2.93.01 4.39 1.44 4.39 4.33.01 6.02.02 12.04 0 18.05-.01 2.79-1.53 4.3-4.33 4.3-8.09.01-16.19.01-24.28 0-2.88 0-4.39-1.51-4.39-4.37-.01-6.02-.01-12.04 0-18.05 0-2.74 1.49-4.25 4.21-4.27 4.1 0 8.21.01 12.32.01zm-12.72 3.81v19.08h25.36v-19.08h-25.36zM323.8 306.71c4.86 0 9.72-.05 14.58.05.75.01 1.71.48 2.18 1.06.89 1.1.05 2.75-1.39 3.04-.4.08-.83.05-1.24.05h-28.41c-.29 0-.58.02-.87-.01-1.21-.1-2.07-.97-2.09-2.08-.02-1.14.9-2.09 2.17-2.11 2.37-.04 4.74-.01 7.1-.01 2.66.01 5.31.01 7.97.01z"/><g><path class="st0" d="M359.43 277.64c0-.46 0-.92-.03-1.37-.19-2.52-2.12-4.39-4.64-4.5-.82-.03-1.64-.01-2.38-.01-.11-.24-.17-.31-.17-.39 0-.25.03-.5.03-.75.09-3.4-.66-6.59-2.38-9.54-.6-1.03-1.61-1.33-2.54-.84-.94.5-1.23 1.48-.74 2.57.12.26.27.52.4.78 2.64 5.22 1.76 11.36-2.03 15.82-1.7 2.01-3.03 4.33-4.56 6.48-.22.31-.67.65-1.02.65-3.36.05-6.73.05-10.09 0-.34-.01-.77-.37-.99-.68-1.54-2.15-2.87-4.47-4.58-6.47-4.43-5.19-4.75-12.52-.59-18.03 4.03-5.35 11.21-7.09 17.32-4.19.34.16.67.35 1.02.45.98.3 1.72-.07 2.19-.94.46-.85.22-1.63-.48-2.23-.31-.27-.7-.44-1.07-.62-9.52-4.65-21.21.19-24.65 10.22-.32.93-.56 1.89-.86 2.9-4.69 0-9.34.03-13.99-.01-1.74-.01-3.39.14-4.81 1.33-1.36-1.17-2.94-1.33-4.6-1.33-14.62.02-29.25.01-43.87.01-4.06 0-4.72.57-5.25 4.55 0 .03-.05.06-.22.25-3.19-.29-6.34-.08-7.67 3.76v30.03h-.01v31.56h.01v18.68c1.03 2.84 3.06 3.9 6.06 3.88 16.16-.07 32.32-.02 48.48-.05 2.02 0 3.6.61 4.77 2.35 1.14 1.68 3.41 1.77 4.53.11 1.34-1.97 3.12-2.47 5.35-2.47 15.37.04 30.74.02 46.12.02 1.2 0 2.41.04 3.61-.07 2.31-.2 4.06-2.01 4.28-4.31.05-.5.05-1 .05-1.49.01-25.34.01-50.72 0-76.11zm-63.47 79.02c0 .08-.03.16-.05.28-5.27-1.88-10.73-.9-16.1-.96-12.54-.15-25.08-.05-37.62-.05-2.13 0-2.27-.13-2.27-2.25 0-6.02-.01-12.04.01-18.06 0-.13 0-.25-.01-.37v-57.58c0-2.06.12-2.17 2.2-2.17h1.96v27.97h-.02v25.55c.01 5.67.07 11.35.08 17.02 0 2.94 1.32 4.27 4.25 4.27h44.85c2.35 0 2.73.38 2.73 2.74 0 1.2 0 2.4-.01 3.61zm.01-11.11c0 .37-.04.73-.05 1.04h-47.95V303.47h-.04v-32.68c.47-.02.9-.06 1.34-.06h44.12c2.09 0 2.59.5 2.59 2.54-.01 24.09-.01 48.19-.01 72.28zm33.21-55.14h10.5c-.17 1.93-.09 3.9-.58 5.72-.63 2.31-3.21 3.65-5.5 3.25-2.48-.43-4.3-2.39-4.4-4.83-.06-1.36-.02-2.72-.02-4.14zm-29.47 54.93v-71.91c0-2.34.36-2.7 2.65-2.7h13.8c.67 2.58 1.28 4.93 1.93 7.42h-1.5c-2.58 0-5.15-.02-7.73.02-1.4.02-2.31.91-2.29 2.11.02 1.2.93 2.04 2.34 2.04 3.82.02 7.64-.03 11.46.04.57.01 1.3.34 1.65.77 1.08 1.34 2.01 2.8 3 4.21l-.21.36h-1.28c-4.86 0-9.72-.01-14.58.01-1.43 0-2.34.8-2.38 2-.04 1.24.9 2.09 2.38 2.15.33.01.66 0 1 0h15.38c.13 1.81.26 3.52.4 5.36h-16.44c-1.71 0-2.69.75-2.71 2.06-.01 1.31.99 2.14 2.67 2.13 5.98-.02 11.96-.09 17.94-.06.94 0 1.97.25 2.79.7 5.63 3.1 12.64-.52 13.23-6.9.11-1.24.19-2.5.07-3.73-.27-2.63.75-4.79 2.22-6.81.63-.86 1.34-1.65 2.23-2.73v64.7h-47.99c-.03-.35-.03-.8-.03-1.24zm55.99 8.16c0 2.37-.06 2.42-2.46 2.42h-46.11c-2.48 0-5-.26-7.4 1.27 0-1.97-.11-3.71.07-5.42.06-.53.86-1.06 1.44-1.41.34-.2.89-.06 1.35-.06h44.37c3.34 0 4.59-1.25 4.59-4.59v-70.09c4.87-.36 4.16-.14 4.16 3.36-.01 24.84-.01 49.68-.01 74.52z"/></g><g><path class="st0" d="M300 433.5c-73.61 0-133.5-59.89-133.5-133.5S226.39 166.5 300 166.5 433.5 226.39 433.5 300 373.61 433.5 300 433.5zm0-263c-71.41 0-129.5 58.09-129.5 129.5S228.59 429.5 300 429.5 429.5 371.41 429.5 300 371.41 170.5 300 170.5z"/></g></svg>