<svg xmlns="http://www.w3.org/2000/svg" width="91" height="92"><defs><filter id="a" x="0" y="0" width="91" height="92" filterUnits="userSpaceOnUse"><feOffset dy="5"/><feGaussianBlur stdDeviation="7" result="blur"/><feFlood flood-opacity=".161"/><feComposite operator="in" in2="blur"/><feComposite in="SourceGraphic"/></filter></defs><g data-name="Call Button"><g data-name="Group 7"><ellipse data-name="Ellipse 1" cx="24.5" cy="25" rx="24.5" ry="25" transform="translate(21 16)" fill="#26b67b" filter="url(#a)"/><path data-name="Icon ionic-md-call" d="M52.167 44.889a7.571 7.571 0 0 1-2.958-.611.656.656 0 0 0-.833.278L46.542 47a15.326 15.326 0 0 1-5.5-7.333l1.834-2.444a1.443 1.443 0 0 0 .208-1.111 15.777 15.777 0 0 1-.5-4C42.583 31.5 42.208 31 41.75 31h-2.917c-.458 0-.833.5-.833 1.111C38 42.555 44.333 51 52.167 51c.458 0 .833-.5.833-1.111V46c0-.611-.375-1.111-.833-1.111z" fill="#fff"/></g></g></svg>