<svg width="25" height="25" viewBox="0 0 25 25" fill="none" xmlns="http://www.w3.org/2000/svg">
<path d="M18.3359 15.0125C18.0847 14.8876 16.4521 14.1386 16.2009 14.0137C15.9497 13.8889 15.6986 13.8889 15.4474 14.1386C15.1962 14.3883 14.6939 15.1373 14.4427 15.387C14.3171 15.6367 14.0659 15.6367 13.8147 15.5119C12.9356 15.1373 12.0565 14.638 11.303 14.0137C10.675 13.3895 10.0471 12.6404 9.54472 11.8914C9.41914 11.6417 9.54472 11.392 9.67031 11.2672C9.7959 11.1423 9.92149 10.8926 10.1727 10.7678C10.2983 10.6429 10.4238 10.3933 10.4238 10.2684C10.5494 10.1436 10.5494 9.89388 10.4238 9.76904C10.2983 9.64419 9.67031 8.14607 9.41914 7.52185C9.29355 6.64794 9.04237 6.64794 8.79119 6.64794H8.16325C7.91207 6.64794 7.53531 6.89763 7.40972 7.02247C6.65619 7.77154 6.27942 8.64544 6.27942 9.64419C6.40501 10.7678 6.78178 11.8914 7.53531 12.8901C8.91678 14.8876 10.675 16.5106 12.81 17.5094C13.438 17.7591 13.9403 18.0087 14.5683 18.1336C15.1962 18.3833 15.8241 18.3833 16.5777 18.2584C17.4568 18.1336 18.2103 17.5094 18.7127 16.7603C18.9639 16.2609 18.9639 15.7615 18.8383 15.2622L18.3359 15.0125ZM21.4756 3.65169C16.5777 -1.21723 8.6656 -1.21723 3.76765 3.65169C-0.251177 7.64669 -1.00471 13.764 1.75824 18.633L0 25L6.65619 23.2522C8.54002 24.2509 10.5494 24.7503 12.5588 24.7503C19.4662 24.7503 24.9921 19.2572 24.9921 12.3908C25.1177 9.14482 23.7362 6.02372 21.4756 3.65169ZM18.0847 21.1298C16.4521 22.1286 14.5683 22.7528 12.5588 22.7528C10.675 22.7528 8.91678 22.2534 7.28413 21.3795L6.90737 21.1298L3.01412 22.1286L4.01883 18.3833L3.76765 18.0087C0.753531 13.015 2.26059 6.77278 7.15854 3.65169C12.0565 0.530587 18.3359 2.15356 21.35 6.89763C24.3642 11.7665 22.9827 18.1336 18.0847 21.1298Z" fill="#32C286"/>
</svg>
