<svg xmlns="http://www.w3.org/2000/svg" xmlns:xlink="http://www.w3.org/1999/xlink" viewBox="0 0 65.2 65.2"><style>.st8{fill:#fff}</style><switch><g><g id="Layer_1"><defs><circle id="SVGID_3_" cx="32.6" cy="32.6" r="31.6"/></defs><clipPath id="SVGID_2_"><use xlink:href="#SVGID_3_" overflow="visible"/></clipPath><g clip-path="url(#SVGID_2_)"><path class="st8" d="M17.4 80.6c-.1 0-.2-.1-.3-.1-1.2-.5-1.9-1.3-1.9-2.6V52.4c0-.3.1-.6.2-.9.8-2.2 1.2-4.5 1.3-6.9 0-1-.2-1.9-.4-2.9-.1-.6-.5-1-1.1-1.2-1.7-.7-3-1.9-3.9-3.4-2.8-4.4-2.9-9-.9-13.8.9-2 2.3-3.6 4.4-4.5 4.3-1.9 9.1.3 11 4.5 1.6 3.6 1.8 7.4.5 11.1-.9 2.5-2.4 4.6-4.8 5.9-.1 0-.2.1-.3.1-.9.2-1.2.9-1.4 1.7-.4 1.6-.3 3.3 0 4.9.3 1.6.7 3.1 1.1 4.6.1.4.2.8.2 1.2v24.4c0 1.7-.5 2.9-2.2 3.4h-1.5zm-4.5-56h-.2c-.3-.1-1.1 3.3-1.2 3.7-.3 1.4-.3 2.8 0 4.2.5 2.5 2.1 4.6 4.1 6.2-.5-1.3-1.2-2.6-1.7-3.9-1.2-3.1-1-6.3-1-9.6v-.6zM34.4 35.7V19.3h1.2c.1 0 .2.1.2.2V35c0 .5.1.7.6.6 1.1 0 .9.1.9-.9V19.9c0-.2.1-.6.1-.6.4-.1.7 0 1.1 0 .1 0 .1.3.1.5v15.7h1.9c-.1-5.4-.3-10.8-.4-16.2h1.3c.1 0 .3.3.3.5l.6 5.4c.3 2.7.6 5.3.9 8 .3 2.1-.4 3.9-1.9 5.5-2.4 2.5-3.3 5.5-2.9 9 .1.8.2 1.6.4 2.4.3 1.4.4 2.9.4 4.4v23c0 1.8-1.3 3-2.9 2.8-1.2-.1-2.2-1.1-2.3-2.4v-.7-24c0-1.2.4-2.4.7-3.5.5-2 .7-4 .2-6-.5-1.9-1.5-3.5-2.9-4.9-1.6-1.5-2.3-3.4-2-5.6.5-4.5 1.1-9 1.7-13.5 0-.1 0-.2.1-.3h1.3v.6c-.1 4.1-.3 8.3-.4 12.4 0 .9 0 1.9-.1 2.8 0 .4.1.5.5.5h1.3zM54.4 18.3v.5c0 19.5 0 39 .1 58.5 0 1-.2 1.9-1 2.5-.8.6-1.8.7-2.7.3-.9-.4-1.4-1.1-1.4-2.1-.1-2.1-.1-4.2-.1-6.3 0-3.3 0-6.6-.1-10 0-.8.1-1.5.4-2.3.4-1 .5-2.1.4-3.2-.2-1.9-1.2-3.2-3-3.8-.4-.2-.6-.3-.6-.8.2-3.6.2-7.2.4-10.7.3-4.4.9-8.8 2-13.1.7-2.5 1.5-5 2.8-7.2.4-.6.8-1.2 1.3-1.7.4-.6.9-.8 1.5-.6z"/></g><use xlink:href="#SVGID_3_" overflow="visible" fill="none" stroke="#fff" stroke-width="2"/></g></g></switch></svg>