<svg xmlns="http://www.w3.org/2000/svg" xmlns:xlink="http://www.w3.org/1999/xlink" viewBox="0 0 65.2 65.2"><style>.st8{fill:#fff}</style><switch><g><g id="Layer_1"><defs><circle id="SVGID_5_" cx="32.6" cy="32.6" r="31.6"/></defs><clipPath id="SVGID_2_"><use xlink:href="#SVGID_5_" overflow="visible"/></clipPath><g clip-path="url(#SVGID_2_)"><path class="st8" d="M36.5 35.7c.9.9 1.8 1.7 2.6 2.6.2.2.3.5.3.7v2.8c0 .6-.2.9-.6 1-.4 0-.7-.3-.7-1 0-.5-.1-1 0-1.5.1-.9-.2-1.6-.9-2.2-.7-.6-1.4-1.3-2-2-.5-.6-1.1-.7-1.9-.6.2.6.4 1.3.6 1.9.3.8.4 1.6.4 2.5V42c0 .4-.2.7-.6.7-.4 0-.6-.3-.7-.7v-.3c.2-2-.2-3.9-.9-5.8-.1-.4-.3-.5-.7-.5h-.8V41.8c0 .6-.2.9-.7.9-.4 0-.6-.3-.6-.9V36v-.6h-.8c-.6-1.8-1.4-2.5-2.7-2.5-1.2.1-2.1.9-2.4 2.3-6.3-.3-12.8-6.1-12.7-13.9h24.8c2 0 3.1.4 4.1 2.8 1.1 2.9 1 5.9-.1 8.8 0 .1-.1.2-.1.3-.5 1.4-1.3 2.5-2.9 2.5zm-18.7-8.9c0 1 .8 1.8 1.7 1.8 1 0 1.8-.8 1.8-1.8s-.8-1.7-1.8-1.7c-.9-.1-1.7.7-1.7 1.7z"/><path class="st8" d="M8.7 39.7H22.6c1.3 0 1.9-.6 1.9-1.9v-2.1c0-1 .7-1.7 1.6-1.7.9 0 1.6.7 1.6 1.7v3.6c0 2.4-1.9 4.4-4.3 4.4s-4.7 0-7.1-.1c-2-.1-3.9-.6-5.7-1.6-.8-.5-1.4-1-1.8-1.9-.1-.1-.1-.2-.1-.4zM40.1 22c1.7.4 3.5 1 5.1 1.9.9.5 1.3 1.5 1.4 2.4.3 2.8-.5 5.3-2.1 7.6-.8 1.1-1.9 1.6-3.3 1.6h-1.4c2.6-4.4 2.6-8.9.3-13.5zM48.7 36.9c2.4-1.6 2.8-2.2 4.3-6 .1.1.2.2.2.3 2 3.1 3.1 6.4 3.3 10 0 .7-.2 1.1-.8 1.3-.5.2-1 0-1.4-.6-1.4-2.1-3.2-3.7-5.4-4.8l-.2-.2z"/><path class="st8" d="M44.7 35.7c2.6-2.9 3.6-6.3 3.1-10.1 1.1 1 2.3 1.9 3.3 3 .7.7.7 1.7.4 2.6-.5 1.7-1.4 3.2-2.8 4.3-.9.7-1.9 1-3 .6-.3-.3-.7-.3-1-.4zM23.5 36.9V38c0 .5-.3.8-.7.8H9.7l-.1-.1c.3-.3.6-.7 1-.9 1-.6 2.1-.9 3.3-.9h9.6z"/></g><use xlink:href="#SVGID_5_" overflow="visible" fill="none" stroke="#fff" stroke-width="2"/></g></g></switch></svg>