<svg xmlns="http://www.w3.org/2000/svg" xmlns:xlink="http://www.w3.org/1999/xlink" viewBox="0 0 65.2 65.2"><style></style><switch><g><g id="Layer_1"><defs><circle id="SVGID_9_" cx="32.6" cy="32.6" r="31.6"/></defs><clipPath id="SVGID_2_"><use xlink:href="#SVGID_9_" overflow="visible"/></clipPath><use xlink:href="#SVGID_9_" overflow="visible" fill="none" stroke="#fff" stroke-width="2"/><path d="M55.4 22.2c-4-1.4-7.7-2.8-11.5-4l-2.3-.8c-1.8 2.5-5.2 4.2-9.1 4.2-3.9 0-7.3-1.7-9.1-4.3l-1.4.5c-4 1.3-8 2.8-12.3 4.3v.1c.6 1.6 1.1 3.1 1.6 4.6.6 1.8 1.2 3.5 1.8 5.2 1.1-.2 2-.4 3.3-.6.5 3.5 1 7 1.5 10.4l1.1 9.8H45.7l.4-3.8c.1-.9.3-2.1.4-3.5 0-.3.1-.5.1-.8l.2-1.5c.4-3.6 1-7.1 1.5-10.7 1.3.2 2.3.4 3.3.6.6-1.8 1.2-3.5 1.8-5.2.5-1.5 1.1-3 1.6-4.6.3.2.4.1.4.1z" fill="#fff"/></g></g></switch></svg>