<?xml version="1.0" encoding="utf-8"?>
<!-- Generator: Adobe Illustrator 26.1.0, SVG Export Plug-In . SVG Version: 6.00 Build 0)  -->
<svg version="1.1" id="Artwork" xmlns="http://www.w3.org/2000/svg" xmlns:xlink="http://www.w3.org/1999/xlink" x="0px" y="0px"
	 viewBox="0 0 278.07 111.62" style="enable-background:new 0 0 278.07 111.62;" xml:space="preserve">
<style type="text/css">
	.st0{fill:#006DC6;}
</style>
<g>
	<path class="st0" d="M99.95,29.66v-5.19H77.79v5.17c5.28,0.82,7.4,1.41,7.4,4.23c0,0.94-0.24,2-0.71,3.41l-11.66,30.3L62.14,37.51
		c-0.47-1.29-0.82-2.58-0.82-3.64c0-2.82,2-3.41,7.4-4.23v-5.17H40.41v5.17c4.58,1.53,5.4,2.11,6.34,4.7l2,5.64L36.41,67.7
		L25.25,37.51c-0.59-1.41-0.94-2.7-0.94-3.76c0-2.58,2-3.29,7.05-4.11v-5.17H0.75v5.17c0,0,6.71,0.64,8.49,5.02
		c1.78,4.38,21.18,53.7,21.18,53.7h4.11l17.74-40.05l15.39,40.05h4.23L93.3,34.34C94.24,31.77,96.32,29.66,99.95,29.66
		C99.94,29.66,99.94,29.66,99.95,29.66z"/>
	<g>
		<path class="st0" d="M119.52,17.85c5.17,0,8.93-3.99,8.93-8.81c0-4.82-3.76-8.81-8.93-8.81c-5.29,0-9.04,3.99-9.04,8.81
			C110.47,13.86,114.23,17.85,119.52,17.85z"/>
		<path class="st0" d="M127.03,75.45V24.47h-22.67v5.19c3.54,0.06,8.46,1.39,8.46,7.26c0,6.55,0,38.52,0,38.52
			c0,5.4-3.29,5.99-8.46,6.7v5.29h30.68v-5.29C130.83,82.06,127.03,80.67,127.03,75.45z"/>
	</g>
	<g>
		<path class="st0" d="M269.14,17.85c5.17,0,8.93-3.99,8.93-8.81c0-4.82-3.76-8.81-8.93-8.81c-5.29,0-9.04,3.99-9.04,8.81
			C260.1,13.86,263.86,17.85,269.14,17.85z"/>
		<path class="st0" d="M254.99,74.28h-26.15c-2.05,0-3.89-0.77-3.89-2.92c0-2.18,1.49-5.26,5.62-8.17
			c3.71,1.19,7.91,1.79,12.42,1.79c16.05,0,28.16-7.6,28.16-22.15c0-15.42-11.9-21.79-28.16-21.79c-15.97,0-28.16,7.31-28.16,21.79
			c0,8.54,4.16,14.67,10.84,18.29c-5.89,3.76-10.58,10.34-10.58,15.85c0,4.93,3.68,7.29,8.37,9.06
			c-5.93,1.41-11.91,4.92-11.91,12.03c0,7.95,9.63,13.42,29.19,13.42c18.02,0,36.9-7.77,36.9-22.92
			C277.64,78.6,268.3,74.28,254.99,74.28z M242.98,26.29c8.29,0,13.29,7.48,13.29,16.71c0,9.23-5.4,16.71-13.29,16.71
			c-7.9,0-13.29-7.48-13.29-16.71C229.69,33.77,234.7,26.29,242.98,26.29z M241.9,106.21c-9.32,0-18.56-3.04-18.56-11.38
			c0-2.23,1.26-5.58,3.15-7.17h28.36c7.26,0,10.4,2.76,10.4,6.25C265.25,101.59,253.84,106.21,241.9,106.21z"/>
	</g>
	<path class="st0" d="M201.62,75.45V40.29c0-13.51-5.75-19.26-16.32-19.26c-10.44,0-18.58,6.18-23.15,12.17v-8.72h-22.69v5.17
		c3.45,0,8.48,1.55,8.48,7.52c0,6.52,0,38.29,0,38.29c0,5.71-4.07,6.08-8.48,6.7v5.29h30.68v-5.29c-5.26-0.28-7.99-1.9-7.99-6.7
		V38.57c3.83-3.38,8.31-7.32,15.39-7.32c6.93,0,9.87,3.77,9.87,11.06v33.15c0,5.4-3.05,5.99-8.34,6.7v5.29h31.01v-5.29
		C204.79,81.44,201.62,80.85,201.62,75.45z"/>
</g>
</svg>
