<svg width="11" height="11" viewBox="0 0 11 11" fill="none" xmlns="http://www.w3.org/2000/svg">
<path d="M10.9973 10.9993V10.9988H11V6.96458C11 4.99099 10.5751 3.4707 8.26788 3.4707C7.15871 3.4707 6.41438 4.07937 6.1105 4.65641H6.07842V3.65495H3.89079V10.9988H6.16871V7.36241C6.16871 6.40495 6.35021 5.47912 7.53592 5.47912C8.70421 5.47912 8.72163 6.57179 8.72163 7.42383V10.9993H10.9973Z" fill="black"/>
<path d="M0.181503 3.65625H2.46217V11.0001H0.181503V3.65625Z" fill="black"/>
<path d="M1.32092 0C0.591708 0 0 0.591708 0 1.32092C0 2.05013 0.591708 2.65421 1.32092 2.65421C2.05013 2.65421 2.64183 2.05013 2.64183 1.32092C2.64138 0.591708 2.04967 0 1.32092 0V0Z" fill="black"/>
</svg>
