<svg width="12" height="12" viewBox="0 0 12 12" fill="none" xmlns="http://www.w3.org/2000/svg">
<g clip-path="url(#clip0_223_2625)">
<path d="M10.767 3.5565C11.255 3.21 11.6655 2.7775 12 2.2795V2.279C11.5535 2.4745 11.0785 2.6045 10.5825 2.6675C11.0925 2.363 11.482 1.8845 11.665 1.308C11.1895 1.5915 10.6645 1.7915 10.105 1.9035C9.6535 1.4225 9.01 1.125 8.308 1.125C6.946 1.125 5.8495 2.2305 5.8495 3.5855C5.8495 3.7805 5.866 3.968 5.9065 4.1465C3.8615 4.0465 2.0515 3.0665 0.8355 1.573C0.6235 1.9415 0.4985 2.363 0.4985 2.8165C0.4985 3.6685 0.937 4.4235 1.5915 4.861C1.196 4.8535 0.8085 4.7385 0.48 4.558V4.585C0.48 5.7805 1.3325 6.7735 2.451 7.0025C2.2505 7.0575 2.0325 7.0835 1.806 7.0835C1.6485 7.0835 1.4895 7.0745 1.3405 7.0415C1.659 8.0155 2.564 8.732 3.639 8.7555C2.802 9.41 1.739 9.8045 0.5885 9.8045C0.387 9.8045 0.1935 9.7955 0 9.771C1.09 10.4735 2.381 10.875 3.774 10.875C8.1155 10.875 10.945 7.253 10.767 3.5565Z" fill="black"/>
</g>
<defs>
<clipPath id="clip0_223_2625">
<rect width="12" height="12" fill="white"/>
</clipPath>
</defs>
</svg>
