<svg width="12" height="12" viewBox="0 0 12 12" fill="none" xmlns="http://www.w3.org/2000/svg">
<g clip-path="url(#clip0_223_2622)">
<path d="M8.75349 7.1531L8.74899 7.1906C7.64949 6.6426 7.53449 6.5696 7.39249 6.7826C7.29399 6.9301 7.00699 7.2646 6.92049 7.3636C6.83299 7.4611 6.74599 7.4686 6.59749 7.4011C6.44749 7.3261 5.96599 7.1686 5.39599 6.6586C4.95199 6.2611 4.65399 5.7736 4.56599 5.6236C4.41949 5.3706 4.72599 5.3346 5.00499 4.8066C5.05499 4.7016 5.02949 4.6191 4.99249 4.5446C4.95499 4.4696 4.65649 3.7346 4.53149 3.4416C4.41149 3.1496 4.28799 3.1866 4.19549 3.1866C3.90749 3.1616 3.69699 3.1656 3.51149 3.3586C2.70449 4.2456 2.90799 5.1606 3.59849 6.1336C4.95549 7.9096 5.67849 8.2366 7.00049 8.6906C7.35749 8.8041 7.68299 8.7881 7.94049 8.7511C8.22749 8.7056 8.82399 8.3906 8.94849 8.0381C9.07599 7.6856 9.07599 7.3931 9.03849 7.3256C9.00149 7.2581 8.90349 7.2206 8.75349 7.1531Z" fill="black"/>
<path d="M10.26 1.72472C6.4155 -1.99178 0.053 0.703716 0.0505 5.94672C0.0505 6.99472 0.325 8.01672 0.848 8.91922L0 12.0002L3.1675 11.1742C7.12 13.3092 11.998 10.4742 12 5.94972C12 4.36172 11.38 2.86722 10.2525 1.74422L10.26 1.72472ZM11.001 5.93322C10.998 9.74972 6.8085 12.1332 3.495 10.1852L3.315 10.0782L1.44 10.5657L1.9425 8.74322L1.823 8.55572C-0.239 5.27322 2.13 0.983216 6.036 0.983216C7.363 0.983216 8.6085 1.50072 9.5465 2.43822C10.484 3.36772 11.001 4.61322 11.001 5.93322Z" fill="black"/>
</g>
<defs>
<clipPath id="clip0_223_2622">
<rect width="12" height="12" fill="white"/>
</clipPath>
</defs>
</svg>
