<svg width="20" height="20" viewBox="0 0 20 20" fill="none" xmlns="http://www.w3.org/2000/svg">
<path d="M19.671 18.0635L14.766 13.1585C15.881 11.6812 16.4642 9.87056 16.4211 8.02023C16.3779 6.1699 15.711 4.38841 14.5283 2.96469C13.3457 1.54096 11.7168 0.558509 9.90579 0.176667C8.09477 -0.205176 6.20787 0.0359876 4.5511 0.861044C2.89434 1.6861 1.56489 3.04666 0.778362 4.72206C-0.00816303 6.39746 -0.205631 8.28943 0.217987 10.0911C0.641604 11.8928 1.66146 13.4986 3.11215 14.648C4.56284 15.7974 6.35928 16.423 8.21011 16.4233C10.005 16.4313 11.7516 15.8421 13.1749 14.7484L18.1122 19.6307C18.2155 19.7338 18.3383 19.8153 18.4735 19.8703C18.6086 19.9254 18.7534 19.9529 18.8994 19.9513C19.1973 19.9493 19.4826 19.8313 19.6949 19.6223C19.8955 19.4097 20.005 19.1271 19.9998 18.8349C19.9947 18.5427 19.8754 18.2641 19.6674 18.0587L19.671 18.0635ZM8.23404 14.1969C7.24684 14.1955 6.27521 13.9508 5.40511 13.4844C4.53501 13.0181 3.79325 12.3445 3.24547 11.5232C2.69769 10.7019 2.36078 9.75829 2.26452 8.7758C2.16827 7.7933 2.31565 6.80223 2.69363 5.89026C3.0716 4.97828 3.66853 4.17353 4.43158 3.54718C5.19463 2.92083 6.1003 2.49221 7.06845 2.29922C8.0366 2.10624 9.03739 2.15484 9.98229 2.44074C10.9272 2.72663 11.787 3.241 12.4858 3.93835C13.0499 4.49211 13.4962 5.15423 13.7978 5.88491C14.0994 6.61558 14.2501 7.3997 14.2408 8.19012C14.2414 9.7834 13.6103 11.3119 12.4858 12.4407C11.9305 13.0029 11.2682 13.4479 10.5379 13.7496C9.80755 14.0512 9.02417 14.2034 8.23404 14.1969Z" fill="white"/>
</svg>
