<svg id="Layer_1" xmlns="http://www.w3.org/2000/svg" viewBox="0 0 63.2 63.2"><style>.st1{fill:#fff}</style><g id="Layer_1-2"><circle cx="31.8" cy="31.6" r="31.6" fill="#73c69c"/><path class="st1" d="M30.9 35.3c-.4 0-.7-.1-1-.4-.5-.6-.5-1.5 0-2l7.6-7.4c.6-.5 1.5-.5 2 0 .5.6.5 1.5 0 2l-7.6 7.4c-.3.3-.7.4-1 .4z"/><path class="st1" d="M42.4 16.5H27.3c-2.6 0-4.5 1.9-4.5 4.5v9.1h-4.5c-.9 0-1.5.6-1.5 1.5v10.6c0 2.6 1.9 4.5 4.5 4.5h21.2c2.6 0 4.5-1.9 4.5-4.5V21c-.1-2.6-2-4.5-4.6-4.5zM19.7 33.1h3v9.1c0 .9-.6 1.5-1.5 1.5s-1.5-.6-1.5-1.5v-9.1zm24.2 9.1c0 .9-.6 1.5-1.5 1.5h-17c.2-.4.4-1.1.4-1.5V21c0-.9.6-1.5 1.5-1.5h15.1c.9 0 1.5.6 1.5 1.5v21.2z"/><path class="st1" d="M38.4 35.3c-.4 0-.7-.1-1-.4L30 27.5c-.6-.6-.6-1.5 0-2 .6-.6 1.5-.6 2 0l7.4 7.4c.6.6.6 1.5 0 2-.3.2-.6.4-1 .4z"/></g></svg>