<svg xmlns="http://www.w3.org/2000/svg" viewBox="0 0 63.2 63.2"><circle cx="31.6" cy="31.6" r="31.6" fill="#73c69c"/><path d="M32.7 29.2h-2.3c-1.9 0-3.3-1.6-3-3.3.2-1.6 1.6-2.8 3.3-2.8h2.6c.9 0 1.9.7 2.1 1.6 0 1.2.9 2.1 2.1 2.1 1.2 0 2.1-.9 2.1-2.1v-.2c-.2-3-2.8-5.3-5.8-5.6h-.5v-2.8c0-.9-.7-1.6-1.6-1.6s-1.7.7-1.7 1.7v3h-.5c-3.7.5-6.5 3.9-6.3 7.9.5 3.5 3.7 6.3 7.4 6.3h1.9c1.9 0 3.3 1.6 3 3.3-.2 1.6-1.6 2.8-3.3 2.8H30c-.9 0-1.9-.7-2.1-1.6 0-1.2-.9-2.1-2.1-2.1s-2.1.9-2.1 2.1c.2 3 2.8 5.3 5.8 5.6h.5V47c0 .9.7 1.6 1.6 1.6s1.6-.7 1.6-1.6v-3.7h.5c3.3-.5 5.8-3 6.3-6.3.4-4.1-3.1-7.8-7.3-7.8z" fill="#fff"/></svg>