<svg id="Layer_1" data-name="Layer 1" xmlns="http://www.w3.org/2000/svg" viewBox="0 0 63.2 63.2"><defs><style>.cls-2{fill:#fff}</style></defs><g id="Layer_1-2" data-name="Layer 1-2"><circle cx="31.6" cy="31.6" r="31.6" fill="#73c69c"/><path class="cls-2" d="M43.17 42.91h-1.51V27.64a1.51 1.51 0 1 0-3 0v15.27h-4.54V30.65a1.51 1.51 0 0 0-3 0v12.26H26.4v-9.24a1.39 1.39 0 0 0-1.51-1.51 1.39 1.39 0 0 0-1.51 1.51v9.24h-7.54a1.51 1.51 0 1 0 0 3h27.52a1.39 1.39 0 0 0 1.51-1.5 1.54 1.54 0 0 0-1.7-1.5z"/><path class="cls-2" d="M43.17 15.38h-6a1.39 1.39 0 0 0-1.51 1.51 1.39 1.39 0 0 0 1.51 1.51h2.45l-6 6-8.3-1.51a1.82 1.82 0 0 0-1.69.76l-6 9.24a1.22 1.22 0 0 0 .56 1.88c.75.38 1.7.38 2.07-.38l5.47-8.29 8.11 1.51c.37.19.94-.19 1.32-.38l6.59-6.6v2.45a1.51 1.51 0 1 0 3 0v-6.19a1.49 1.49 0 0 0-1.58-1.51z"/></g></svg>