<svg id="Layer_1" xmlns="http://www.w3.org/2000/svg" viewBox="0 0 63.2 63.2"><style>.st1{fill:#fff}</style><g id="Layer_1-2"><circle cx="31.6" cy="31.6" r="31.6" fill="#73c69c"/><path class="st1" d="M46.7 20.3c-1.2-.4-2.1-1.4-2.4-2.7-.3-1.7-1.8-2.9-3.6-2.9H23.4c-1.7 0-3.2 1.2-3.5 2.9-.1 1.3-1 2.4-2.2 2.7-1.6.6-2.7 2.1-2.7 3.8 1.1 7.3 4.5 20.4 16.4 25.1.3.2.8.2 1.1 0C44.5 44.4 48 31.4 48.9 24c.3-1.6-.7-3.2-2.2-3.7zM32 45.5c-9.3-4-12.6-14.2-13.5-22 2.6-.7 4.6-2.7 5.1-5.3H41v.2c.3 2.6 2.3 4.7 4.9 5.1-1.2 8.1-4.5 18.3-13.9 22z"/><path class="st1" d="M37.8 25.6l-8 8-3.6-3.6c-.7-.7-1.8-.7-2.4 0-.7.7-.7 1.8 0 2.4l4.7 4.7c.7.7 1.8.7 2.4 0L40 28c.7-.7.7-1.8 0-2.4-.5-.6-1.5-.6-2.1-.1 0 0-.1 0-.1.1z"/></g></svg>