<svg xmlns="http://www.w3.org/2000/svg" width="640" height="438.002" viewBox="0 0 640 438.002">
    <defs>
        <style>
            .cls-1,.cls-7{fill:#6c63ff}.cls-1,.cls-16,.cls-2,.cls-4{opacity:.1}.cls-2{fill:#86a5d6}.cls-3{fill:#535461}.cls-5{fill:#fff}.cls-6{opacity:.2}.cls-8{fill:url(#linear-gradient)}.cls-9{fill:#4c4c78}.cls-10{fill:#ffb9b9}.cls-11{fill:#cbcdda}.cls-12{opacity:.05}.cls-13{fill:none;stroke:#00f;stroke-miterlimit:10}.cls-14{fill:#474463}.cls-15{fill:#472727}
        </style>
        <linearGradient id="linear-gradient" x1="-2.392" x2="-2.392" y1="1" gradientUnits="objectBoundingBox">
            <stop offset="0" stop-color="gray" stop-opacity=".251"/>
            <stop offset=".54" stop-color="gray" stop-opacity=".122"/>
            <stop offset="1" stop-color="gray" stop-opacity=".102"/>
        </linearGradient>
    </defs>
    <g id="Facts_Illustration" data-name="Facts Illustration" transform="translate(-.047 .023)">
        <ellipse id="Ellipse_48" cx="267.483" cy="17.044" class="cls-1" data-name="Ellipse 48" rx="267.483" ry="17.044" transform="translate(41.384 403.891)"/>
        <path id="Path_431" d="M98.835 82.278C82.384 98.321 78.222 118.659 78 138.159c-.159 13.751 2.1 28.666 15.875 38.806 18.137 13.342 52.957 15.972 61.943 33.021 7.968 15.15-10.573 30.391-28.385 41.084s-38.265 23.784-34.937 39.7c2.108 10.166 13.675 18.147 25.21 24.846 21.931 12.765 46.583 23.932 74.373 29.365 50.42 9.845 104.879-.347 152.124-15.778 29.084-9.5 62.85-21.155 91.732-11.387 7.625 2.579 14.1 6.475 21.128 9.7 20.441 9.329 45.406 12.765 69.7 15.681 35.611 4.289 73.037 7.868 107.349.133s63.966-30.361 58.713-54.492c-4.952-22.732-36.482-37.55-61.606-53.078-8.863-5.479-17.885-12.74-15.679-20.71 1.753-6.321 10-10.723 17.358-14.808 38.713-21.619 67.165-51.464 80.245-84.189 6.178-15.441 8.409-33.23-5.375-46.251-11.119-10.5-30.175-15.548-48.3-19.7-33.632-7.705-68.1-14.215-103.475-15.972s-71.915 1.593-103.316 12.709c-15.06 5.336-28.71 12.362-43.917 17.5-43.175 14.583-94.048 12.622-142.2 10.319-17.205-.822-35.189-2.282-50.126-8.542-12.872-5.4-20.227-9.273-36.163-9.875-31.237-1.173-63.551 8.564-81.436 26.037z" class="cls-2" data-name="Path 431" transform="translate(-77.94 -33.72)"/>
        <path id="Path_432" d="M317.507 307.263l-.632 1.295-4.1 8.357-43 87.6-72.96 177.374-10.429.08 73-177.454 49.75-101.365 3.639 1.785 4.1 2.014z" class="cls-3" data-name="Path 432" transform="translate(-70.146 -167.151)"/>
        <path id="Path_433" d="M541.527 581.965l-8.583-.08-72.966-177.374-41.864-85.3-5.226-10.655-.638-1.295.638-.314 5.226-2.567 2.512-1.232 49 101.361z" class="cls-3" data-name="Path 433" transform="translate(-155.247 -167.151)"/>
        <path id="Rectangle_204" d="M0 0h9.331v302.641H0z" class="cls-3" data-name="Rectangle 204" transform="translate(249.254 112.173)"/>
        <path id="Path_434" d="M481.652 207.69a11.837 11.837 0 0 0-11.872 11.779v4.21a11.876 11.876 0 0 0 23.752 0v-4.21a11.843 11.843 0 0 0-11.877-11.779zm8.905 15.971a8.911 8.911 0 0 1-17.822 0v-4.21a8.911 8.911 0 0 1 17.822 0z" class="cls-3" data-name="Path 434" transform="translate(-228.976 -116.659)"/>
        <path id="Path_435" d="M427.591 386.567h-9.647l-41.864-85.3v85.3h-9.325v-87.6l-43 87.6H313.37l49.746-101.361 3.639 1.785V261.38h9.325v25.058l2.512-1.232z" class="cls-4" data-name="Path 435" transform="translate(-118.476 -128.034)"/>
        <path id="Path_436" d="M493.527 229.08v3.788a11.876 11.876 0 0 1-23.752 0v-3.788h2.966v3.788a8.911 8.911 0 0 0 17.822 0v-3.788z" class="cls-4" data-name="Path 436" transform="translate(-228.974 -126.61)"/>
        <path id="Rectangle_205" d="M0 0h358.788v160.741H0z" class="cls-3" data-name="Rectangle 205" transform="translate(57.769 99.077)"/>
        <path id="Rectangle_206" d="M0 0h345.215v146.435H0z" class="cls-5" data-name="Rectangle 206" transform="translate(64.133 104.132)"/>
        <g id="Group_266" class="cls-6" data-name="Group 266" transform="translate(98.224 122.717)">
            <path id="Rectangle_207" d="M0 0h16.321v7.375H0z" class="cls-7" data-name="Rectangle 207"/>
        </g>
        <g id="Group_267" class="cls-6" data-name="Group 267" transform="translate(98.224 135.857)">
            <path id="Rectangle_208" d="M0 0h16.321v7.375H0z" class="cls-7" data-name="Rectangle 208"/>
        </g>
        <g id="Group_268" class="cls-6" data-name="Group 268" transform="translate(98.224 148.991)">
            <path id="Rectangle_209" d="M0 0h16.321v7.375H0z" class="cls-7" data-name="Rectangle 209"/>
        </g>
        <g id="Group_269" class="cls-6" data-name="Group 269" transform="translate(98.224 162.125)">
            <path id="Rectangle_210" d="M0 0h16.321v7.375H0z" class="cls-7" data-name="Rectangle 210"/>
        </g>
        <g id="Group_270" class="cls-6" data-name="Group 270" transform="translate(98.224 175.265)">
            <path id="Rectangle_211" d="M0 0h16.321v7.375H0z" class="cls-7" data-name="Rectangle 211"/>
        </g>
        <g id="Group_271" class="cls-6" data-name="Group 271" transform="translate(98.224 188.399)">
            <path id="Rectangle_212" d="M0 0h16.321v7.375H0z" class="cls-7" data-name="Rectangle 212"/>
        </g>
        <g id="Group_272" class="cls-6" data-name="Group 272" transform="translate(98.224 201.534)">
            <path id="Rectangle_213" d="M0 0h16.321v7.375H0z" class="cls-7" data-name="Rectangle 213"/>
        </g>
        <g id="Group_273" class="cls-6" data-name="Group 273" transform="translate(98.224 214.668)">
            <path id="Rectangle_214" d="M0 0h16.321v7.375H0z" class="cls-7" data-name="Rectangle 214"/>
        </g>
        <g id="Group_274" class="cls-6" data-name="Group 274" transform="translate(137.719 221.467)">
            <path id="Rectangle_215" d="M0 0h16.321v7.375H0z" class="cls-7" data-name="Rectangle 215"/>
        </g>
        <g id="Group_275" class="cls-6" data-name="Group 275" transform="translate(168.425 221.467)">
            <path id="Rectangle_216" d="M0 0h16.321v7.375H0z" class="cls-7" data-name="Rectangle 216"/>
        </g>
        <g id="Group_276" class="cls-6" data-name="Group 276" transform="translate(199.125 221.467)">
            <path id="Rectangle_217" d="M0 0h16.321v7.375H0z" class="cls-7" data-name="Rectangle 217"/>
        </g>
        <g id="Group_277" class="cls-6" data-name="Group 277" transform="translate(229.831 221.467)">
            <path id="Rectangle_218" d="M0 0h16.321v7.375H0z" class="cls-7" data-name="Rectangle 218"/>
        </g>
        <g id="Group_278" class="cls-6" data-name="Group 278" transform="translate(260.531 221.467)">
            <path id="Rectangle_219" d="M0 0h16.321v7.375H0z" class="cls-7" data-name="Rectangle 219"/>
        </g>
        <g id="Group_279" class="cls-6" data-name="Group 279" transform="translate(291.237 221.467)">
            <path id="Rectangle_220" d="M0 0h16.321v7.375H0z" class="cls-7" data-name="Rectangle 220"/>
        </g>
        <g id="Group_280" class="cls-6" data-name="Group 280" transform="translate(321.937 221.467)">
            <path id="Rectangle_221" d="M0 0h16.321v7.375H0z" class="cls-7" data-name="Rectangle 221"/>
        </g>
        <g id="Group_281" class="cls-6" data-name="Group 281" transform="translate(352.643 221.467)">
            <path id="Rectangle_222" d="M0 0h16.321v7.375H0z" class="cls-7" data-name="Rectangle 222"/>
        </g>
        <g id="Group_282" class="cls-6" data-name="Group 282" transform="translate(383.342 221.467)">
            <path id="Rectangle_223" d="M0 0h16.321v7.375H0z" class="cls-7" data-name="Rectangle 223"/>
        </g>
        <path id="Rectangle_224" d="M0 0h16.321v46.226H0z" class="cls-7" data-name="Rectangle 224" transform="translate(137.719 170.755)"/>
        <path id="Rectangle_225" d="M0 0h16.321v67.622H0z" class="cls-7" data-name="Rectangle 225" transform="translate(168.425 150.458)"/>
        <path id="Rectangle_226" d="M0 0h16.321v71.572H0z" class="cls-7" data-name="Rectangle 226" transform="translate(199.125 146.722)"/>
        <path id="Rectangle_227" d="M0 0h16.321v76.263H0z" class="cls-7" data-name="Rectangle 227" transform="translate(229.831 142.286)"/>
        <path id="Rectangle_228" d="M0 0h16.321v92.457H0z" class="cls-7" data-name="Rectangle 228" transform="translate(260.531 127.045)"/>
        <g id="Group_283" class="cls-6" data-name="Group 283" transform="translate(291.237 123.579)">
            <path id="Rectangle_229" d="M0 0h16.321v96.145H0z" class="cls-7" data-name="Rectangle 229"/>
        </g>
        <g id="Group_284" class="cls-6" data-name="Group 284" transform="translate(321.937 119.923)">
            <path id="Rectangle_230" d="M0 0h16.321v100.046H0z" class="cls-7" data-name="Rectangle 230"/>
        </g>
        <g id="Group_285" class="cls-6" data-name="Group 285" transform="translate(352.643 114.344)">
            <path id="Rectangle_231" d="M0 0h16.321v106.011H0z" class="cls-7" data-name="Rectangle 231"/>
        </g>
        <g id="Group_286" class="cls-6" data-name="Group 286" transform="translate(383.342 111.509)">
            <path id="Rectangle_232" d="M0 0h16.321v109.046H0z" class="cls-7" data-name="Rectangle 232"/>
        </g>
        <path id="Path_437" d="M517.708 308.39l-139.758 8.533v2.7l142.736-5.619z" class="cls-3" data-name="Path 437" transform="translate(-141.789 -146.496)"/>
        <path id="Path_438" d="M863.645 298.131s7.313-10.6 5.37-27.223-8.974-43.534-8.974-43.534 3.053-15.075-13.5-17.193c0 0-10.291-1.687-17.649-5.765a16.043 16.043 0 0 1-6.324-5.572s-.1.248-.287.7a7.82 7.82 0 0 1-.448-.7s-.04.091-.1.253l-2.811-3.86s-.385.36-1.035.952a25.072 25.072 0 0 1-2.887-4.558 16.437 16.437 0 0 0 2.052-.577 4.122 4.122 0 0 0 1.673-.942 3.5 3.5 0 0 0 .759-1.667 17.908 17.908 0 0 0 .379-5.856 25.507 25.507 0 0 1-.385-4.584c.127-1.646.788-3.237.88-4.888.161-2.908-1.477-5.674-3.5-7.978a54.22 54.22 0 0 1-3.61-4.118c-.908-1.277-1.569-2.685-2.547-3.926-2.3-2.887-6.134-4.59-10.066-5.192a40.561 40.561 0 0 0-11.918.344c-3.449.507-6.9 1.241-10.348 1.418-3.012.152-5.467-.745-8.227 1.013a6.857 6.857 0 0 0-3.208 5.066 2.373 2.373 0 0 0 .086 1.013 7 7 0 0 0 .575.988c1.225 2.128-.638 4.655-.4 7.031a5.059 5.059 0 0 0 4.714 4.093c-.109.2-.23.4-.333.608a18.829 18.829 0 0 0 1.207 19.091 24.3 24.3 0 0 0 18.265 10.325l1.069.724c2.415 1.646 5.128 3.617 7.744 5.76l-.052.035-.425-.213a23.247 23.247 0 0 1-2.507 1.52 25.578 25.578 0 0 1-10.716 3.2s-7.865 3.673-10.572 15.785a48.707 48.707 0 0 1-23.2 10.055c-15.448 2.026-34.494 2.69-34.494 2.69a7.738 7.738 0 0 0-.374.689l-1.759-.284a2.473 2.473 0 0 1-.075.507l-.69-.274c-5.456-2.1-16.356-5.167-17.736 3.277-1.851 11.327 10.406 10.025 10.406 10.025a63.023 63.023 0 0 1 7.433-1.991l.684-.117a3.225 3.225 0 0 0 .483.831h1.667a17.139 17.139 0 0 0 2.087 2.989l38.852-.75a46.164 46.164 0 0 1 12.768-.466c-2.673 17.608-5.829 36.918-5.829 36.918s-6.611 30.581-1.983 33.778a78.119 78.119 0 0 1 8.2-1.935 29.128 29.128 0 0 0 .678 5.628l2.961 17.076s1.15 17.446 5 27.861l3.392 14.234 2.84 10.755 1.6 18.262a154.918 154.918 0 0 1 4.749 23.525c1.5 12.269 9.647 32.1 10.733 34.7-2.783 3.47-8.5 9.356-15.666 9.964-10.233.871-10.48 6.307-3.329 8.262s22.2 0 22.2 0l21.225-4.625c-.638 3.45-.972 6.175-.506 6.469 1.357.871 21.955 5.572 22.7-1.955q.086-.932.155-1.808a34.077 34.077 0 0 0-2.156-14.234 19.717 19.717 0 0 1-.448-1.363 8.648 8.648 0 0 0 .839-.957s1.483-20.323 2.593-27.608a19.421 19.421 0 0 0 .172-2.092c.512-8.733-3.1-31.706-3.1-31.706s-4.467-14.944-4.3-21.813a5.85 5.85 0 0 1 .328-1.682 1.648 1.648 0 0 0-.057-.365.885.885 0 0 1 .086-.289s-2.265-13.677-1.949-21.813a15.009 15.009 0 0 1 .575-3.6 20.929 20.929 0 0 0 .546-4.7c.287-5.572-.046-15.2-.506-24.224a4.61 4.61 0 0 0 .144-.481 4.19 4.19 0 0 0-.282-2.128c-.034-.583-.063-1.16-.1-1.732a18.163 18.163 0 0 0 .483-1.808h.3v.035s19.328-.816 23.772-5.38c0 0-4.49-12.294-6.979-22.289zm-83.292-38.241l-.3-.1c.489-1.52 1.069-3.288 1.725-5.142-.562 2.01-1.045 3.834-1.425 5.242zm19.615-50.4l.086.071-.092-.046zm24.146 263.677c-1.041-3.156-5.174-16.023-5.042-22.157a5.584 5.584 0 0 1 .316-1.57 10.449 10.449 0 0 0 .575-3.429c.414-6.4-2.369-17.877-2.369-17.877s-6.226-15.476-5.749-27.765c0-.309.04-.618.063-.927.1-1.165.184-2.426.241-3.759v-.025c.236-4.746.184-10.461.029-15.79l-.034-.2a461.196 461.196 0 0 0-.776-15.921c.575 3.632 4.254 26.24 5.841 29.938 0 0 .868 10.43 4.812 19.249l4.323 22.927s1.109 27.284 2.955 35c.828 3.435 1.529 5.749 2.052 7.259-.747 3.075-1.955 8.227-2.765 12.492-.477-2.781-2.156-13.378-4.467-17.446z" class="cls-8" data-name="Path 438" transform="translate(-301.402 -77.366)"/>
        <path id="Path_439" d="M867.012 784.669s-7.215 12.977-17.362 13.946-10.388 7.033-3.3 9.218 22.007 0 22.007 0l21.271-5.213s-2.57-20.866-5.99-21.955-16.626 4.004-16.626 4.004z" class="cls-9" data-name="Path 439" transform="translate(-370.925 -391.457)"/>
        <path id="Path_440" d="M927.862 787.084s-5.381 24.014-4.024 24.989 21.76 6.183 22.5-2.185q.086-1.055.155-2.019a42.5 42.5 0 0 0-2.139-15.886 12.62 12.62 0 0 1-.828-4.9c.335-3.393-15.664.001-15.664.001z" class="cls-9" data-name="Path 440" transform="translate(-397.704 -393.632)"/>
        <path id="Path_441" d="M889.289 233.258s-16.505 40.225-13.568 27.305c1.943-8.556-10.618-19.924-19.305-26.6-4.421-3.422-7.836-5.6-7.836-5.6s30.987-35.844 28.791-20.381a23.123 23.123 0 0 0 1.69 12.481 32.778 32.778 0 0 0 10.228 12.795z" class="cls-10" data-name="Path 441" transform="translate(-374.078 -115.555)"/>
        <path id="Path_442" d="M720 344.112a9.533 9.533 0 0 0-3.777.234 57.086 57.086 0 0 0-7.364 2.219s-12.148 1.455-10.314-11.186c1.363-9.423 12.165-6 17.575-3.662 1.84.8 3.058 1.477 3.058 1.477z" class="cls-10" data-name="Path 442" transform="translate(-317.18 -174.237)"/>
        <path id="Path_443" d="M732.712 346.055a9.533 9.533 0 0 0-3.777.234c-1.322-3.308-.316-11.151-.1-12.629 1.84.8 3.058 1.477 3.058 1.477z" class="cls-4" data-name="Path 443" transform="translate(-329.456 -176.243)"/>
        <path id="Path_444" d="M733.3 333.8l-3.179-.57s-1.627 10.838.5 13.69h3.656z" class="cls-11" data-name="Path 444" transform="translate(-329.931 -176.07)"/>
        <path id="Path_445" d="M832.4 367.267s-9.716-5.767-10.877 1.512-2.69 19.713-2.69 19.713l-2.69 15.829-3.484 31.715.489 5.4s10.348-3.457 12.774-2.242 4.4-13.342 4.4-13.342l4.024-15.042.609-31.9z" class="cls-9" data-name="Path 445" transform="translate(-361.229 -193.594)"/>
        <path id="Path_446" d="M832.4 367.267s-9.716-5.767-10.877 1.512-2.69 19.713-2.69 19.713l-2.69 15.829-3.484 31.715.489 5.4s10.348-3.457 12.774-2.242 4.4-13.342 4.4-13.342l4.024-15.042.609-31.9z" class="cls-4" data-name="Path 446" transform="translate(-361.229 -193.594)"/>
        <path id="Path_447" d="M792.635 303.4s-10.084 11.283-25.393 13.553-34.2 3.006-34.2 3.006-4.766 8.459 2.11 17.466l38.518-.844s8.526-1.837 15.131 0z" class="cls-9" data-name="Path 447" transform="translate(-328.045 -162.462)"/>
        <path id="Path_448" d="M792.635 303.4s-10.084 11.283-25.393 13.553-34.2 3.006-34.2 3.006-4.766 8.459 2.11 17.466l38.518-.844s8.526-1.837 15.131 0z" class="cls-12" data-name="Path 448" transform="translate(-328.045 -162.462)"/>
        <path id="Path_450" d="M877.428 220.116c-3.76 7.986-10.3 13.872-19.777 13.872-.42 0-.828 0-1.236-.029-4.421-3.422-7.836-5.6-7.836-5.6s30.987-35.844 28.791-20.381c-.678 4.74-1.454 8.585.058 12.138z" class="cls-4" data-name="Path 450" transform="translate(-374.728 -114.991)"/>
        <path id="Path_451" d="M870.505 196.455a23.479 23.479 0 1 1-6.9-16.6 23.294 23.294 0 0 1 6.9 16.6z" class="cls-10" data-name="Path 451" transform="translate(-363.989 -100.415)"/>
        <path id="Path_452" d="M889.925 375s-52.684 4.615-54.615-2.059 5.375-24.744 5.375-24.744l-2.38-25.229-.086-.964s6.6-27.294 6.358-29.473c-.23-1.962 10.624-24.864 12.855-29.547.264-.542.4-.839.4-.839l.42.24.184.108 2.581 1.494 10.193-2.4 12.29-6.377 1.15 69.824z" class="cls-11" data-name="Path 452" transform="translate(-368.048 -142.071)"/>
        <path id="Path_453" d="M873.427 268.76a4.209 4.209 0 0 0-5.013 2.607 36.922 36.922 0 0 1-1.955 4.489l-1.4 8.305-2.57 13.119-1.9 58.039.857 10.307 4.708-8.305.857-54.251v-6.748a48.531 48.531 0 0 1 3.921-16.941l.655-1.523 4.093-5.219z" class="cls-4" data-name="Path 453" transform="translate(-380.092 -147.738)"/>
        <path id="Path_454" d="M872.158 267.48a4.207 4.207 0 0 0-5.013 2.607 36.636 36.636 0 0 1-1.96 4.489l-1.4 8.311-2.57 13.119-1.891 58.039.857 10.313 4.708-8.334.857-54.217v-6.765a48.783 48.783 0 0 1 3.921-16.941l.661-1.523 4.093-5.214z" class="cls-9" data-name="Path 454" transform="translate(-379.601 -147.117)"/>
        <path id="Path_455" d="M895.963 241.31s-12.47 13.119-16.873 14.677c0 0 2.2 9.948 4.4 11.887 0 0 13.085-13.239 15.4-14.311l1.943-4.717z" class="cls-4" data-name="Path 455" transform="translate(-386.875 -132.658)"/>
        <path id="Path_456" d="M895.963 240s-12.47 13.119-16.873 14.677c0 0 2.2 9.948 4.4 11.887 0 0 13.085-13.239 15.4-14.311l1.943-4.712z" class="cls-11" data-name="Path 456" transform="translate(-386.875 -132.034)"/>
        <path id="Path_457" d="M860.956 267.37l-.127.342-4 10.627-7.146 20.05s-.063.205-.19.57c-1.184 3.651-7.548 23.461-8.8 29.216l-.086-.964s6.6-27.294 6.358-29.473c-.23-1.962 10.624-24.864 12.855-29.547.356-.24.632-.445.822-.6z" class="cls-4" data-name="Path 457" transform="translate(-372.108 -145.984)"/>
        <path id="Path_458" d="M847.484 267.36l-4.128 10.975-7.146 20.05s-.063.205-.19.57c-1.253 3.89-8.4 26.1-8.974 30.157-.65 4.461-9.635 28.572-9.635 28.572l-5.134 41.748c-4.6-3.542 1.932-37.647 1.932-37.647s7.336-50.578 9.072-67.4 11.1-21.744 11.1-21.744a23.536 23.536 0 0 0 10.619-3.57 22.418 22.418 0 0 0 2.484-1.711z" class="cls-9" data-name="Path 458" transform="translate(-359.701 -148.449)"/>
        <path id="Path_459" d="M906.461 613.539c-1.1 8.128-2.564 30.8-2.564 30.8-5.134 7.638-16.505 3.514-16.505 3.514s-1.219-2.282-3.053-10.918-2.932-39.056-2.932-39.056l-4.283-25.554c-3.909-9.828-4.766-21.47-4.766-21.47-1.725-4.489-5.87-33.962-5.87-33.962s1.725 26.438.615 40.391 5.617 32.724 5.617 32.724 3.794 17.591 1.834 23.05 4.892 28.013 4.892 28.013c-.575 6.554-20.041 3.884-20.041 3.884s-9.158-24.385-10.762-39.061a192.549 192.549 0 0 0-4.708-26.239l-1.587-20.381-2.817-12.047-3.357-15.886c-3.794-11.642-4.95-31.11-4.95-31.11l-2.938-19.1c-1.92-9.446.575-20.535 2.231-26.336.719-2.516 1.294-4.05 1.294-4.05 1.684 1.186 11.331 2.578 16.321 3.708a28.826 28.826 0 0 0 8.336.662 187.062 187.062 0 0 0 37.248-6.776c.822-.245 1.259-.388 1.259-.388l.259 2.185.609 5.2 1.087 9.235s3.3 49.243 1.345 55.9 1.345 29.091 1.345 29.091c-1.834 5.322 3.909 26.952 3.909 26.952s4.036 28.897 2.932 37.025z" class="cls-4" data-name="Path 459" transform="translate(-363.762 -248.59)"/>
        <path id="Path_460" d="M906.461 612.311c-1.1 8.128-2.564 30.8-2.564 30.8-5.134 7.643-16.505 3.514-16.505 3.514s-1.219-2.282-3.053-10.912-2.932-39.061-2.932-39.061l-4.283-25.589c-3.881-9.828-4.766-21.5-4.766-21.5-1.725-4.489-5.87-33.962-5.87-33.962s1.725 26.438.615 40.391 5.617 32.747 5.617 32.747 3.794 17.591 1.834 23.05 4.892 28.018 4.892 28.018c-.575 6.548-20.041 3.879-20.041 3.879s-9.158-24.356-10.762-39.039a192.546 192.546 0 0 0-4.708-26.239l-1.587-20.375-2.817-12.007-3.357-15.886c-3.794-11.648-4.95-31.116-4.95-31.116l-2.938-19.1c-1.92-9.446.575-20.535 2.231-26.336.719-2.51 1.294-4.044 1.294-4.044 1.684 1.186 11.331 2.573 16.321 3.7a28.629 28.629 0 0 0 8.336.662 187.062 187.062 0 0 0 37.248-6.776l1.259-.382.259 2.179.609 5.208 1.087 9.235s3.3 49.237 1.345 55.9 1.345 29.091 1.345 29.091c-1.834 5.316 3.909 26.946 3.909 26.946s4.036 28.864 2.932 37.004z" class="cls-14" data-name="Path 460" transform="translate(-363.762 -248.075)"/>
        <path id="Path_461" d="M872.023 196.472a23.245 23.245 0 0 1-3.127 11.682 12.433 12.433 0 0 1-10.348-2.481c-1.886-1.648-3.1-3.9-4.726-5.812a35.349 35.349 0 0 0-3.375-3.3 10.709 10.709 0 0 0-2.662-1.922 3.642 3.642 0 0 0-3.191-.034c-1.3.719-1.725 2.322-2.478 3.6a4.835 4.835 0 0 1-2.708 2.344 2.887 2.887 0 0 1-3.237-1.089c-.8-1.363-.213-3.491-1.552-4.324a8.586 8.586 0 0 0-1.092-.445c-1.725-.776-1.926-3.074-2.075-4.957a3.079 3.079 0 0 0-1.058-2.464c-.782-.5-1.811-.245-2.742-.228a3.585 3.585 0 0 1-.822-.063 23.65 23.65 0 0 1 45.216 9.5z" class="cls-4" data-name="Path 461" transform="translate(-365.472 -100.254)"/>
        <path id="Path_462" d="M821.945 158.06a7.812 7.812 0 0 0-3.179 5.67 2.9 2.9 0 0 0 .086 1.112 7.511 7.511 0 0 0 .575 1.107c1.207 2.379-.638 5.2-.4 7.849a5.246 5.246 0 0 0 5.174 4.563c.931 0 1.955-.274 2.742.228a3.07 3.07 0 0 1 1.057 2.465c.149 1.882.339 4.181 2.07 4.957a9.713 9.713 0 0 1 1.092.445c1.345.833.759 2.966 1.558 4.324a2.887 2.887 0 0 0 3.237 1.089 4.818 4.818 0 0 0 2.7-2.339c.742-1.283 1.184-2.852 2.484-3.6a3.624 3.624 0 0 1 3.191.029 10.729 10.729 0 0 1 2.662 1.928 34.676 34.676 0 0 1 3.375 3.3c1.621 1.905 2.84 4.158 4.726 5.807 3.553 3.1 8.991 3.422 13.372 1.637a4.062 4.062 0 0 0 1.661-1.05 4.169 4.169 0 0 0 .753-1.865 22.447 22.447 0 0 0 .379-6.531 32.156 32.156 0 0 1-.385-5.134c.121-1.837.782-3.611.874-5.447.161-3.251-1.466-6.337-3.449-8.91-1.2-1.534-2.541-2.955-3.576-4.6-.9-1.426-1.558-2.995-2.524-4.375a15.228 15.228 0 0 0-9.98-5.8 35.737 35.737 0 0 0-11.808.388 96.605 96.605 0 0 1-10.279 1.58c-3.02.213-5.452-.795-8.188 1.173z" class="cls-15" data-name="Path 462" transform="translate(-361.934 -84.4)"/>
        <path id="Path_463" d="M866.253 267.36l-4.128 10.975-7.146 20.05s-.063.205-.19.57v.029l8.991-29.924a22.439 22.439 0 0 0 2.473-1.7z" class="cls-4" data-name="Path 463" transform="translate(-378.039 -145.198)"/>
        <path id="Path_464" d="M942.9 483.619s.425 13.279-3.179 16.616l-9.6-17.951 8.049-3.884z" class="cls-10" data-name="Path 464" transform="translate(-400.472 -245.426)"/>
        <path id="Path_465" d="M944.47 389.107c-4.4 5.094-23.571 6.006-23.571 6.006l-18.972-29.661s-4.49-3.092-12.924-17.015-8.158-24.647-7.686-32.656 5.749-31.024 5.749-31.024c.822-5.179 12.648-37.647 12.648-37.647a16.738 16.738 0 0 0 6.255 6.206c7.3 4.563 17.494 6.434 17.494 6.434 16.419 2.367 13.389 19.194 13.389 19.194s.184 65.409-.828 73.235 8.446 36.928 8.446 36.928z" class="cls-4" data-name="Path 465" transform="translate(-379.641 -139.145)"/>
        <path id="Path_466" d="M865.892 452.443l-.552 4.854-6.663-2.424-4.887-7.341 3.668-2.852z" class="cls-11" data-name="Path 466" transform="translate(-323.213 -211.294)"/>
        <path id="Path_467" d="M901.49 454.041l-3.484.354-33.591 3.331a54.836 54.836 0 0 1-16.155-.787l-15.58-3.092c.719-2.51 1.294-4.044 1.294-4.044 1.684 1.186 11.331 2.573 16.321 3.7a28.629 28.629 0 0 0 8.336.662 187.061 187.061 0 0 0 37.248-6.776l1.518 1.8z" class="cls-4" data-name="Path 467" transform="translate(-366.34 -230.198)"/>
        <g id="Group_287" class="cls-16" data-name="Group 287" transform="translate(468.1 198.67)">
            <path id="Path_468" d="M835.276 451.8a3.051 3.051 0 0 1-.322-.183.17.17 0 0 1-.034.086z" data-name="Path 468" transform="translate(-834.92 -448.836)"/>
            <path id="Path_469" d="M947.746 575.3s-5.749-21.63-3.909-26.946c0 0-3.3-22.417-1.339-29.091s-1.351-55.9-1.351-55.9l-1.087-9.235-.609-5.208-.253-2.179-1.265.382-.782.228.1.844.609 5.2 1.087 9.235s3.3 49.243 1.351 55.9 1.34 29.091 1.34 29.091c-1.834 5.322 3.909 26.946 3.909 26.946s4.024 28.874 2.938 37-2.57 30.8-2.57 30.8c-3.748 5.584-10.825 4.888-14.372 4.107l.063.137s11.372 4.13 16.505-3.514c0 0 1.466-22.685 2.57-30.8s-2.935-36.997-2.935-36.997z" data-name="Path 469" transform="translate(-875.993 -446.74)"/>
            <path id="Path_470" d="M897.986 663.177c1.955-5.459-1.834-23.05-1.834-23.05s-6.721-18.823-5.622-32.747c.46-5.812.431-13.787.236-21.105-1.558-9.44-3.053-19.964-3.053-19.964s1.725 26.438.621 40.385 5.617 32.753 5.617 32.753 3.794 17.586 1.834 23.044 4.881 27.99 4.881 27.99c-.489 5.248-13.05 4.563-18.035 4.107l.19.5s19.437 2.669 20.047-3.879c.01-.016-6.837-22.576-4.882-28.034z" data-name="Path 470" transform="translate(-855.202 -498.106)"/>
        </g>
        <path id="Path_471" d="M945.737 389.107c-4.4 5.094-23.571 6.006-23.571 6.006l-18.972-29.661s-4.49-3.092-12.929-17.015-8.152-24.647-7.686-32.656 5.749-31.024 5.749-31.024c.822-5.179 12.648-37.647 12.648-37.647a16.654 16.654 0 0 0 6.255 6.206c7.3 4.563 17.494 6.434 17.494 6.434 16.413 2.367 13.384 19.194 13.384 19.194s.184 65.409-.828 73.235 8.456 36.928 8.456 36.928z" class="cls-9" data-name="Path 471" transform="translate(-380.177 -139.145)"/>
        <path id="Path_472" d="M904.634 263.194l-4.128 1.523 2.748 1.911-20.524 49.123c.477-7.986 5.749-31.024 5.749-31.024.822-5.179 12.648-37.647 12.648-37.647a16.655 16.655 0 0 0 6.255 6.206z" class="cls-4" data-name="Path 472" transform="translate(-388.118 -136.447)"/>
        <path id="Path_473" d="M851.5 390.988l21-5.368 2.754 8.459-21.455 5.191z" class="cls-4" data-name="Path 473" transform="translate(-322.239 -183.272)"/>
        <path id="Path_474" d="M941.377 280.479s-9.538 8.9-5.939 28.749 9.354 41.389 9.354 41.389l-15.522 42.666s10.82 11.191 16.137 12.549l15.493-34.116s7.244-11.825 5.318-30.38-8.894-48.582-8.894-48.582.007-18.276-15.947-12.275z" class="cls-4" data-name="Path 474" transform="translate(-400.107 -154.058)"/>
        <path id="Path_475" d="M942.63 280.479s-9.543 8.9-5.956 28.749 9.348 41.389 9.348 41.389L930.5 393.283s10.82 11.191 16.137 12.549l15.522-34.116s7.244-11.825 5.318-30.38-8.894-48.582-8.894-48.582.001-18.276-15.953-12.275z" class="cls-9" data-name="Path 475" transform="translate(-400.63 -154.058)"/>
        <path id="Path_476" d="M929.683 480.685s12.1 16.622 11.188 21.048-4.461 2.059-4.461 2.059l-4.766-6.486-4.283-12.133s.419-5.235 2.322-4.488z" class="cls-4" data-name="Path 476" transform="translate(-399.295 -246.57)"/>
        <path id="Path_477" d="M927.133 480.685s12.073 16.622 11.188 21.048-4.461 2.059-4.461 2.059l-4.772-6.486-4.277-12.133s.419-5.235 2.322-4.488z" class="cls-4" data-name="Path 477" transform="translate(-398.211 -246.57)"/>
        <path id="Path_478" d="M928.413 480.685s12.073 16.622 11.182 21.048-4.461 2.059-4.461 2.059l-4.766-6.486-4.277-12.133s.409-5.235 2.322-4.488z" class="cls-14" data-name="Path 478" transform="translate(-398.755 -246.57)"/>
    </g>
</svg>
