<svg data-name="Icon awesome-quote-left" xmlns="http://www.w3.org/2000/svg" width="30" height="30"><path data-name="Icon awesome-quote-left" d="M27.188 15H22.5v-4.286a4.049 4.049 0 013.75-4.286h.469a1.513 1.513 0 001.406-1.607V1.607A1.513 1.513 0 0026.719 0h-.469c-5.18 0-9.375 4.795-9.375 10.714v16.072A3.034 3.034 0 0019.688 30h7.5A3.034 3.034 0 0030 26.786v-8.572A3.034 3.034 0 0027.188 15zm-16.875 0H5.625v-4.286a4.049 4.049 0 013.75-4.286h.469a1.513 1.513 0 001.406-1.607V1.607A1.513 1.513 0 009.844 0h-.469C4.2 0 0 4.795 0 10.714v16.072A3.034 3.034 0 002.813 30h7.5a3.034 3.034 0 002.813-3.214v-8.572A3.034 3.034 0 0010.313 15z" fill="#322d59"/></svg>